<svg width="30" height="50" version="1.1" xmlns="http://www.w3.org/2000/svg" desc="Created with imagetracer.js version 1.2.6" ><path fill="rgb(253,232,59)" stroke="rgb(253,232,59)" stroke-width="1" opacity="1" d="M 3 2 L 9.5 3 L 11.5 2 L 11 3.5 L 12 5.5 L 11 7.5 L 13 6.5 L 13.5 4 L 17 6.5 L 13 9.5 L 10.5 13 L 4 17 L 3 12.5 L 4 9.5 L 3.5 8 L 5 8.5 L 4 6.5 Q 6.5 5 3 3.5 L 3 2 Z M 9 3 L 8 5 L 6 6 L 9 7 L 9 6 Q 11 4 9 3 Z " /><path fill="rgb(253,232,59)" stroke="rgb(253,232,59)" stroke-width="1" opacity="1" d="M 16.5 2 L 18 4.5 L 16 5 L 16.5 2 Z " /><path fill="rgb(253,232,59)" stroke="rgb(253,232,59)" stroke-width="1" opacity="1" d="M 16.5 20 Q 18.8 19.3 18 21.5 L 16.5 20 Z " /><path fill="rgb(253,232,59)" stroke="rgb(253,232,59)" stroke-width="1" opacity="1" d="M 5 21 L 8 22.5 L 7.5 24 L 9 24.5 L 7.5 27 L 11 28.5 Q 11.8 31.1 8.5 30 L 9.5 33 L 6.5 32 L 3.5 34 L 3 32 L 5 31.5 L 3 30.5 L 4 28.5 L 4 26.5 L 3 24.5 L 5 21 Z " /><path fill="rgb(253,232,59)" stroke="rgb(253,232,59)" stroke-width="1" opacity="1" d="M 20 25 L 25 25.5 L 20 27.5 Q 22.3 28.8 19.5 30 L 19.5 28 L 18 27.5 L 20 27 L 20 25 Z " /><path fill="rgb(252,231,53)" stroke="rgb(252,231,53)" stroke-width="1" opacity="1" d="M 9.5 2 L 8.5 4 L 9.5 2 Z " /><path fill="rgb(252,231,53)" stroke="rgb(252,231,53)" stroke-width="1" opacity="1" d="M 11 3 Q 14.3 1.7 13 6.5 L 11 7.5 L 12 5.5 L 11 3 Z " /><path fill="rgb(252,231,53)" stroke="rgb(252,231,53)" stroke-width="1" opacity="1" d="M 6.5 5 Q 9.8 3.9 9 6.5 L 8.5 9 L 7.5 6 L 6.5 5 Z " /><path fill="rgb(252,231,53)" stroke="rgb(252,231,53)" stroke-width="1" opacity="1" d="M 11.5 10 Q 14.5 11.5 11.5 13 L 11.5 10 Z " /><path fill="rgb(252,231,53)" stroke="rgb(252,231,53)" stroke-width="1" opacity="1" d="M 20.5 12 L 21.5 14 L 20.5 12 Z " /><path fill="rgb(252,222,62)" stroke="rgb(252,222,62)" stroke-width="1" opacity="1" d="M 26.5 8 L 28 14 Q 25.3 15.1 26 12.5 L 26.5 11 L 24 10.5 L 26.5 8 Z " /><path fill="rgb(252,222,62)" stroke="rgb(252,222,62)" stroke-width="1" opacity="1" d="M 18.5 10 L 20 12.5 L 19.5 14 L 22 14.5 Q 20 18 18 13.5 L 18.5 10 Z " /><path fill="rgb(252,222,62)" stroke="rgb(252,222,62)" stroke-width="1" opacity="1" d="M 24.5 17 L 26.5 18 L 28 17.5 Q 30.1 23.4 25.5 22 L 25.5 21 L 27 20.5 L 23 18.5 L 24.5 17 Z " /><path fill="rgb(252,222,62)" stroke="rgb(252,222,62)" stroke-width="1" opacity="1" d="M 17.5 23 L 20 24.5 L 18.5 24 L 17.5 23 Z " /><path fill="rgb(252,222,62)" stroke="rgb(252,222,62)" stroke-width="1" opacity="1" d="M 26.5 23 L 25.5 25 L 22 24.5 L 26.5 23 Z " /><path fill="rgb(252,222,62)" stroke="rgb(252,222,62)" stroke-width="1" opacity="1" d="M 23.5 26 L 25 26.5 L 22.5 28 L 23.5 26 Z " /><path fill="rgb(243,215,64)" stroke="rgb(243,215,64)" stroke-width="1" opacity="1" d="M 17.5 6 L 19 6.5 L 16.5 8 L 17.5 6 Z " /><path fill="rgb(243,215,64)" stroke="rgb(243,215,64)" stroke-width="1" opacity="1" d="M 26 14 L 28 14.5 L 27.5 17 L 26 14 Z " /><path fill="rgb(243,215,64)" stroke="rgb(243,215,64)" stroke-width="1" opacity="1" d="M 6.5 20 L 7.5 22 L 6.5 20 Z " /><path fill="rgb(243,215,64)" stroke="rgb(243,215,64)" stroke-width="1" opacity="1" d="M 27.5 22 L 28 24.5 L 27 24.5 L 27.5 22 Z " /><path fill="rgb(224,193,61)" stroke="rgb(224,193,61)" stroke-width="1" opacity="1" d="M 19.5 4 L 20 6.5 L 19 6.5 L 19.5 4 Z " /><path fill="rgb(224,193,61)" stroke="rgb(224,193,61)" stroke-width="1" opacity="1" d="M 21.5 4 L 24 8 L 26 8.5 L 24 9 L 23.5 11 L 21.5 4 Z " /><path fill="rgb(224,193,61)" stroke="rgb(224,193,61)" stroke-width="1" opacity="1" d="M 22.5 18 L 24 20.5 L 22 19.5 L 22.5 18 Z " /><path fill="rgb(224,193,61)" stroke="rgb(224,193,61)" stroke-width="1" opacity="1" d="M 18.5 24 L 19.5 26 L 18.5 24 Z " /><path fill="rgb(224,193,61)" stroke="rgb(224,193,61)" stroke-width="1" opacity="1" d="M 12.5 28 L 14 31.5 L 12 32.5 L 13 29.5 L 11 29.5 L 12.5 28 Z " /><path fill="rgb(224,193,61)" stroke="rgb(224,193,61)" stroke-width="1" opacity="1" d="M 17.5 28 L 17.5 31 Q 14.5 29.5 17.5 28 Z " /><path fill="rgb(136,122,82)" stroke="rgb(136,122,82)" stroke-width="1" opacity="1" d="M 16.5 16 L 18 18.5 L 16 17.5 L 16.5 16 Z " /><path fill="rgb(136,122,82)" stroke="rgb(136,122,82)" stroke-width="1" opacity="1" d="M 6.5 17 L 5.5 19 L 6.5 17 Z " /><path fill="rgb(136,122,82)" stroke="rgb(136,122,82)" stroke-width="1" opacity="1" d="M 10.5 17 L 9.5 19 L 10.5 17 Z " /><path fill="rgb(136,122,82)" stroke="rgb(136,122,82)" stroke-width="1" opacity="1" d="M 14.5 19 L 13.5 21 L 12 20.5 L 14.5 19 Z " /><path fill="rgb(136,122,82)" stroke="rgb(136,122,82)" stroke-width="1" opacity="1" d="M 11.5 23 L 14 24.5 L 10.5 25 L 11.5 23 Z " /><path fill="rgb(136,122,82)" stroke="rgb(136,122,82)" stroke-width="1" opacity="1" d="M 15.5 23 L 16.5 25 L 15.5 23 Z " /><path fill="rgb(136,122,82)" stroke="rgb(136,122,82)" stroke-width="1" opacity="1" d="M 19.5 34 L 20.5 36 L 19.5 34 Z " /><path fill="rgb(136,122,82)" stroke="rgb(136,122,82)" stroke-width="1" opacity="1" d="M 6.5 35 L 10 36.5 L 8.5 36 Q 5.5 36.5 6.5 35 Z " /><path fill="rgb(136,122,82)" stroke="rgb(136,122,82)" stroke-width="1" opacity="1" d="M 13.5 36 L 17 36.5 L 13.5 37 L 13.5 36 Z " /><path fill="rgb(136,122,82)" stroke="rgb(136,122,82)" stroke-width="1" opacity="1" d="M 13.5 46 L 17 46.5 L 13.5 47 L 13.5 46 Z " /><path fill="rgb(152,99,34)" stroke="rgb(152,99,34)" stroke-width="1" opacity="1" d="M 20.5 2 L 22 2.5 L 18.5 4 L 18.5 3 L 20.5 2 Z " /><path fill="rgb(152,99,34)" stroke="rgb(152,99,34)" stroke-width="1" opacity="1" d="M 20.5 6 L 23 7.5 L 22.5 10 L 21.5 8 L 21 10 Q 18.3 11.1 19 8.5 L 18.5 7 L 20.5 8 L 20.5 6 Z " /><path fill="rgb(152,99,34)" stroke="rgb(152,99,34)" stroke-width="1" opacity="1" d="M 18.5 18 L 20.5 19 L 22 18.5 L 23.5 22 L 26 22.5 L 23.5 24 L 22 21 L 20 21 Q 21.1 18.3 18.5 19 L 18.5 21 Q 15.5 19.5 18.5 18 Z " /><path fill="rgb(152,99,34)" stroke="rgb(152,99,34)" stroke-width="1" opacity="1" d="M 8.5 19 L 10.5 20 L 12 19.5 L 9.5 23 L 9.5 21 L 7 20.5 L 8.5 19 Z " /><path fill="rgb(152,99,34)" stroke="rgb(152,99,34)" stroke-width="1" opacity="1" d="M 26.5 34 L 25.5 36 L 26.5 34 Z " /><path fill="rgb(152,99,34)" stroke="rgb(152,99,34)" stroke-width="1" opacity="1" d="M 6 36 L 9 37.5 L 6 38 L 6 36 Z " /><path fill="rgb(152,99,34)" stroke="rgb(152,99,34)" stroke-width="1" opacity="1" d="M 10.5 37 L 14 38.5 L 11.5 39 L 10.5 37 Z " /><path fill="rgb(152,99,34)" stroke="rgb(152,99,34)" stroke-width="1" opacity="1" d="M 17 38 L 19 38.5 L 17 39.5 L 17 38 Z " /><path fill="rgb(152,99,34)" stroke="rgb(152,99,34)" stroke-width="1" opacity="1" d="M 22.5 38 L 21.5 40 L 22.5 38 Z " /><path fill="rgb(251,222,47)" stroke="rgb(251,222,47)" stroke-width="1" opacity="1" d="M 25 11 L 27 11.5 L 25 12.5 L 25 11 Z " /><path fill="rgb(251,222,47)" stroke="rgb(251,222,47)" stroke-width="1" opacity="1" d="M 21.5 12 L 24 13.5 L 22.5 13 L 20.5 14 L 21.5 12 Z " /><path fill="rgb(251,222,47)" stroke="rgb(251,222,47)" stroke-width="1" opacity="1" d="M 25.5 17 L 27 17.5 L 25 18.5 L 26.5 21 L 24 20.5 L 25.5 17 Z " /><path fill="rgb(253,233,72)" stroke="rgb(253,233,72)" stroke-width="1" opacity="1" d="M 2.5 2 L 5 5.5 L 5 7.5 L 3 14.5 L 4 18 L 2 17.5 L 2 7.5 L 2 5.5 L 2.5 2 Z " /><path fill="rgb(253,233,72)" stroke="rgb(253,233,72)" stroke-width="1" opacity="1" d="M 2 20 L 5 21.5 L 3 24.5 L 4 26.5 L 4 28.5 L 3 30.5 L 5 31.5 L 3 32 L 3.5 34 L 6.5 32 L 7.5 34 L 4 34 Q 5 37 2 36 L 2 20 Z " /><path fill="rgb(253,233,72)" stroke="rgb(253,233,72)" stroke-width="1" opacity="1" d="M 18.5 21 L 19 23 L 17 22.5 L 18.5 21 Z " /><path fill="rgb(253,233,72)" stroke="rgb(253,233,72)" stroke-width="1" opacity="1" d="M 8.5 30 L 12 30.5 L 11 32.5 L 11.5 34 Q 9.3 34.8 10 32.5 L 8.5 30 Z " /><path fill="rgb(212,180,93)" stroke="rgb(212,180,93)" stroke-width="1" opacity="1" d="M 14.5 10 L 15.5 12 Q 12.7 12.7 14.5 10 Z " /><path fill="rgb(212,180,93)" stroke="rgb(212,180,93)" stroke-width="1" opacity="1" d="M 10.5 16 L 9.5 18 L 10.5 16 Z " /><path fill="rgb(212,180,93)" stroke="rgb(212,180,93)" stroke-width="1" opacity="1" d="M 23 16 L 25 16.5 L 23 17.5 L 23 16 Z " /><path fill="rgb(212,180,93)" stroke="rgb(212,180,93)" stroke-width="1" opacity="1" d="M 27.5 28 L 26.5 30 L 27.5 28 Z " /><path fill="rgb(212,180,93)" stroke="rgb(212,180,93)" stroke-width="1" opacity="1" d="M 20.5 32 L 19.5 34 L 20.5 32 Z " /><path fill="rgb(237,241,240)" stroke="rgb(237,241,240)" stroke-width="1" opacity="1" d="M 0 0 L 30 0 L 30 50 L 0 50 L 0 0 Z M 15 1 L 14 2 L 2 2 L 2 36 L 4 36 L 6 35 L 4 38 L 6 41 L 8 43 Q 1 41 2 45 L 14 46 L 13 48 L 16 47 L 18 48 Q 20 47 18 46 L 20 46 Q 22 45 21 48 L 23 47 L 23 45 L 28 45 L 28 29 L 26 28 L 25 31 L 26 33 L 25 32 L 23 35 L 24 37 L 21 37 L 23 33 L 24 31 L 22 32 L 21 31 L 28 26 L 28 7 L 25 6 L 23 2 L 28 2 L 15 1 Z M 4 46 Q 3 49 7 48 L 9 48 L 11 49 L 11 46 L 4 46 Z " /><path fill="rgb(237,241,240)" stroke="rgb(237,241,240)" stroke-width="1" opacity="1" d="M 16.5 32 L 19 33 L 17.5 36 L 15 34.5 L 16.5 32 Z " /><path fill="rgb(237,241,240)" stroke="rgb(237,241,240)" stroke-width="1" opacity="1" d="M 7.5 34 L 14 35.5 L 10.5 37 L 7.5 34 Z " /><path fill="rgb(237,241,240)" stroke="rgb(237,241,240)" stroke-width="1" opacity="1" d="M 26.5 39 L 25.5 41 L 26.5 39 Z " /><path fill="rgb(162,171,169)" stroke="rgb(162,171,169)" stroke-width="1" opacity="1" d="M 14.5 1 L 28 1.5 L 14.5 2 L 14.5 1 Z " /><path fill="rgb(162,171,169)" stroke="rgb(162,171,169)" stroke-width="1" opacity="1" d="M 6.5 19 L 5.5 21 L 6.5 19 Z " /><path fill="rgb(162,171,169)" stroke="rgb(162,171,169)" stroke-width="1" opacity="1" d="M 22.5 31 L 26 33.5 L 23.5 32 L 22 33.5 L 21.5 35 L 21 32.5 L 22.5 31 Z " /><path fill="rgb(162,171,169)" stroke="rgb(162,171,169)" stroke-width="1" opacity="1" d="M 14.5 34 L 15.5 36 L 14.5 34 Z " /><path fill="rgb(162,171,169)" stroke="rgb(162,171,169)" stroke-width="1" opacity="1" d="M 23.5 34 L 27 40.5 L 25 39.5 L 23.5 36 L 22 36.5 L 23.5 34 Z " /><path fill="rgb(162,171,169)" stroke="rgb(162,171,169)" stroke-width="1" opacity="1" d="M 5.5 36 Q 3.9 37.8 7 39.5 L 10 43.5 L 8 44 L 4 37.5 L 5.5 36 Z " /><path fill="rgb(162,171,169)" stroke="rgb(162,171,169)" stroke-width="1" opacity="1" d="M 2 43 L 4.5 44 L 7 43 L 6.5 45 L 4.5 45 Q 0.8 46 2 43 Z " /><path fill="rgb(162,171,169)" stroke="rgb(162,171,169)" stroke-width="1" opacity="1" d="M 16.5 45 L 18.5 46 L 23 45 L 21.5 48 L 21 46 L 19 46.5 L 19.5 48 L 17.5 48 L 16 47.5 L 16.5 45 Z " /><path fill="rgb(162,171,169)" stroke="rgb(162,171,169)" stroke-width="1" opacity="1" d="M 6.5 46 L 8 48.5 L 6 47.5 L 6.5 46 Z " /><path fill="rgb(63,42,21)" stroke="rgb(63,42,21)" stroke-width="1" opacity="1" d="M 15.5 8 Q 18.8 6.9 18 9.5 L 16 10.5 L 15.5 8 Z " /><path fill="rgb(63,42,21)" stroke="rgb(63,42,21)" stroke-width="1" opacity="1" d="M 11.5 13 L 12 15 L 9.5 16 L 11.5 13 Z " /><path fill="rgb(63,42,21)" stroke="rgb(63,42,21)" stroke-width="1" opacity="1" d="M 14.5 15 L 19 16.5 L 17.5 17 L 14.5 16 L 14.5 15 Z " /><path fill="rgb(63,42,21)" stroke="rgb(63,42,21)" stroke-width="1" opacity="1" d="M 5.5 17 L 4.5 19 L 5.5 17 Z " /><path fill="rgb(63,42,21)" stroke="rgb(63,42,21)" stroke-width="1" opacity="1" d="M 11.5 17 Q 15.3 15.8 14 19.5 L 12.5 19 L 11 19.5 L 16 22.5 L 10.5 23 L 10.5 22 L 12 21.5 L 10 18.5 L 11.5 17 Z " /><path fill="rgb(63,42,21)" stroke="rgb(63,42,21)" stroke-width="1" opacity="1" d="M 20.5 18 L 20 19.5 L 19.5 21 L 18.5 19 L 20.5 18 Z " /><path fill="rgb(63,42,21)" stroke="rgb(63,42,21)" stroke-width="1" opacity="1" d="M 14.5 24 L 18 25.5 Q 13.8 25.3 12.5 28 L 12.5 26 L 11 25.5 L 14.5 24 Z " /><path fill="rgb(63,42,21)" stroke="rgb(63,42,21)" stroke-width="1" opacity="1" d="M 26.5 30 Q 28.8 30.8 28 34.5 L 24 35.5 L 27 31.5 L 26.5 30 Z " /><path fill="rgb(63,42,21)" stroke="rgb(63,42,21)" stroke-width="1" opacity="1" d="M 17.5 36 L 20 37.5 L 14.5 38 L 14.5 37 L 17.5 36 Z " /><path fill="rgb(63,42,21)" stroke="rgb(63,42,21)" stroke-width="1" opacity="1" d="M 11.5 37 L 12.5 39 L 11.5 37 Z " /><path fill="rgb(63,42,21)" stroke="rgb(63,42,21)" stroke-width="1" opacity="1" d="M 19.5 39 L 21.5 40 L 23 39.5 L 21.5 42 Q 26.5 43 27.5 40 L 28 43 L 25 43.5 L 28 44.5 L 11.5 45 L 12 43.5 L 11 41.5 Q 12.3 38.8 17.5 40 L 20.5 41 L 20.5 40 L 19.5 39 Z M 14 42 L 14 44 L 17 43 L 14 42 Z " /><path fill="rgb(100,84,56)" stroke="rgb(100,84,56)" stroke-width="1" opacity="1" d="M 21.5 10 L 22.5 12 L 20 11.5 L 21.5 10 Z " /><path fill="rgb(100,84,56)" stroke="rgb(100,84,56)" stroke-width="1" opacity="1" d="M 14.5 14 L 18 14.5 L 14 15 Q 12.9 17.7 15.5 17 L 14.5 19 L 14 17 Q 11 18 12 15 L 14.5 14 Z " /><path fill="rgb(100,84,56)" stroke="rgb(100,84,56)" stroke-width="1" opacity="1" d="M 10.5 25 L 13.5 27 Q 14.8 24.8 16 27.5 L 11.5 28 L 10 26.5 L 10.5 25 Z " /><path fill="rgb(100,84,56)" stroke="rgb(100,84,56)" stroke-width="1" opacity="1" d="M 18.5 25 L 17.5 27 L 18.5 25 Z " /><path fill="rgb(100,84,56)" stroke="rgb(100,84,56)" stroke-width="1" opacity="1" d="M 23.5 37 Q 26.8 38.8 23 40.5 Q 23.8 42.8 21.5 42 L 23 39.5 L 23.5 37 Z " /><path fill="rgb(100,84,56)" stroke="rgb(100,84,56)" stroke-width="1" opacity="1" d="M 8.5 38 Q 10.8 37.3 10 39.5 L 8.5 38 Z " /><path fill="rgb(100,84,56)" stroke="rgb(100,84,56)" stroke-width="1" opacity="1" d="M 8.5 41 L 11 42.5 L 9.5 43 L 8.5 41 Z " /><path fill="rgb(100,84,56)" stroke="rgb(100,84,56)" stroke-width="1" opacity="1" d="M 14 42 L 17 42.5 L 14 44 L 14 42 Z " /><path fill="rgb(100,84,56)" stroke="rgb(100,84,56)" stroke-width="1" opacity="1" d="M 7.5 43 L 8.5 45 L 7.5 43 Z " /><path fill="rgb(100,84,56)" stroke="rgb(100,84,56)" stroke-width="1" opacity="1" d="M 25.5 43 L 28 43.5 L 25.5 44 L 25.5 43 Z " /><path fill="rgb(100,84,56)" stroke="rgb(100,84,56)" stroke-width="1" opacity="1" d="M 8.5 46 L 9.5 48 L 7 47.5 L 8.5 46 Z " /><path fill="rgb(186,151,59)" stroke="rgb(186,151,59)" stroke-width="1" opacity="1" d="M 20.5 3 L 21.5 5 L 23 4.5 Q 21.5 7.5 20 4.5 L 20.5 3 Z " /><path fill="rgb(186,151,59)" stroke="rgb(186,151,59)" stroke-width="1" opacity="1" d="M 20.5 7 L 22 9.5 L 21.5 12 Q 18.8 10.8 21 9.5 L 20.5 7 Z " /><path fill="rgb(186,151,59)" stroke="rgb(186,151,59)" stroke-width="1" opacity="1" d="M 18.5 9 L 18 10.5 L 17.5 13 L 17 10.5 L 18.5 9 Z " /><path fill="rgb(186,151,59)" stroke="rgb(186,151,59)" stroke-width="1" opacity="1" d="M 10.5 13 L 10.5 15 L 12 15.5 L 10.5 16 Q 7.5 14.5 10.5 13 Z " /><path fill="rgb(186,151,59)" stroke="rgb(186,151,59)" stroke-width="1" opacity="1" d="M 25.5 14 L 24.5 16 L 25.5 14 Z " /><path fill="rgb(186,151,59)" stroke="rgb(186,151,59)" stroke-width="1" opacity="1" d="M 14.5 20 L 18 24.5 L 16 23.5 L 14.5 20 Z " /><path fill="rgb(186,151,59)" stroke="rgb(186,151,59)" stroke-width="1" opacity="1" d="M 22.5 20 L 23.5 22 L 21 21.5 L 22.5 20 Z " /><path fill="rgb(186,151,59)" stroke="rgb(186,151,59)" stroke-width="1" opacity="1" d="M 16.5 26 L 17 28.5 L 16.5 31 L 13.5 29 L 12 29.5 Q 14 25.8 16 27.5 L 16.5 26 Z " /><path fill="rgb(186,151,59)" stroke="rgb(186,151,59)" stroke-width="1" opacity="1" d="M 18.5 31 L 19.5 33 L 18.5 31 Z " /><path fill="rgb(186,151,59)" stroke="rgb(186,151,59)" stroke-width="1" opacity="1" d="M 21.5 37 L 23 37.5 L 19.5 39 L 19.5 38 L 21.5 37 Z " /><path fill="rgb(186,151,59)" stroke="rgb(186,151,59)" stroke-width="1" opacity="1" d="M 7.5 39 L 10 40.5 L 9.5 42 L 7.5 39 Z " /><path fill="rgb(186,151,59)" stroke="rgb(186,151,59)" stroke-width="1" opacity="1" d="M 11 39 L 15 39.5 L 11.5 41 L 11 39 Z " /><path fill="rgb(186,151,59)" stroke="rgb(186,151,59)" stroke-width="1" opacity="1" d="M 24.5 39 L 25 42 L 23 41.5 L 24.5 39 Z " /></svg>