<svg width="30" height="50" version="1.1" xmlns="http://www.w3.org/2000/svg" desc="Created with imagetracer.js version 1.2.6" ><path fill="rgb(160,155,101)" stroke="rgb(160,155,101)" stroke-width="1" opacity="1" d="M 3.5 2 L 4.5 4 L 3.5 2 Z " /><path fill="rgb(160,155,101)" stroke="rgb(160,155,101)" stroke-width="1" opacity="1" d="M 8.5 11 L 10 13.5 L 8 14.5 L 8.5 13 L 7 12.5 L 8.5 11 Z " /><path fill="rgb(160,155,101)" stroke="rgb(160,155,101)" stroke-width="1" opacity="1" d="M 13 27 L 16 27.5 L 13.5 29 L 13 27 Z " /><path fill="rgb(160,155,101)" stroke="rgb(160,155,101)" stroke-width="1" opacity="1" d="M 12.5 37 L 14.5 37 Q 16.8 36.3 16 38.5 L 15.5 40 L 17 40.5 L 15 41.5 L 13.5 39 L 11 40.5 Q 14.1 38.7 12.5 37 Z " /><path fill="rgb(160,155,101)" stroke="rgb(160,155,101)" stroke-width="1" opacity="1" d="M 21.5 39 L 23.5 40 L 27 39.5 L 26 42 Q 23.3 40.9 24 43.5 L 23 43.5 L 21.5 39 Z " /><path fill="rgb(160,155,101)" stroke="rgb(160,155,101)" stroke-width="1" opacity="1" d="M 18.5 41 L 19 43.5 L 17 42.5 L 18.5 41 Z " /><path fill="rgb(160,155,101)" stroke="rgb(160,155,101)" stroke-width="1" opacity="1" d="M 11.5 42 L 14 42.5 L 11.5 43 L 11.5 42 Z " /><path fill="rgb(160,155,101)" stroke="rgb(160,155,101)" stroke-width="1" opacity="1" d="M 8.5 46 L 12 46.5 L 9.5 48 L 8.5 46 Z " /><path fill="rgb(160,155,101)" stroke="rgb(160,155,101)" stroke-width="1" opacity="1" d="M 20.5 46 L 21.5 48 L 20.5 46 Z " /><path fill="rgb(251,234,38)" stroke="rgb(251,234,38)" stroke-width="1" opacity="1" d="M 13.5 2 L 13.5 4 L 18 3 L 19 6.5 L 18 9.5 L 18 13.5 Q 19 17.3 16 16 L 17 10.5 L 13.5 10 L 13.5 12 L 10.5 10 L 11 11.5 L 10.5 13 L 9 8.5 L 13.5 2 Z " /><path fill="rgb(251,234,38)" stroke="rgb(251,234,38)" stroke-width="1" opacity="1" d="M 4.5 14 L 3.5 16 L 2 15.5 L 4.5 14 Z " /><path fill="rgb(251,234,38)" stroke="rgb(251,234,38)" stroke-width="1" opacity="1" d="M 5.5 24 L 6.5 26 L 5.5 24 Z " /><path fill="rgb(245,221,67)" stroke="rgb(245,221,67)" stroke-width="1" opacity="1" d="M 5.5 3 L 7 5.5 L 5.5 6 Q 2.5 4.5 5.5 3 Z " /><path fill="rgb(245,221,67)" stroke="rgb(245,221,67)" stroke-width="1" opacity="1" d="M 19 4 L 21 4.5 L 18.5 9 L 18 7.5 L 19 4 Z " /><path fill="rgb(245,221,67)" stroke="rgb(245,221,67)" stroke-width="1" opacity="1" d="M 4.5 8 L 6 10.5 L 5 10.5 L 4.5 8 Z " /><path fill="rgb(245,221,67)" stroke="rgb(245,221,67)" stroke-width="1" opacity="1" d="M 15.5 10 L 17 10.5 L 14.5 12 L 15.5 10 Z " /><path fill="rgb(245,221,67)" stroke="rgb(245,221,67)" stroke-width="1" opacity="1" d="M 19.5 10 L 18.5 14 Q 15 12 19.5 10 Z " /><path fill="rgb(245,221,67)" stroke="rgb(245,221,67)" stroke-width="1" opacity="1" d="M 21.5 28 L 22 29.5 L 20 30.5 L 21.5 28 Z " /><path fill="rgb(245,221,67)" stroke="rgb(245,221,67)" stroke-width="1" opacity="1" d="M 20.5 32 L 21 35.5 L 20 35.5 L 20.5 32 Z " /><path fill="rgb(245,221,67)" stroke="rgb(245,221,67)" stroke-width="1" opacity="1" d="M 4 36 L 6 36.5 L 4 37.5 L 4 36 Z " /><path fill="rgb(251,242,102)" stroke="rgb(251,242,102)" stroke-width="1" opacity="1" d="M 21.5 4 L 23.5 5 L 25 4.5 L 23 7.5 L 25 8.5 L 22 9 L 20 15.5 L 24 24 L 26 24.5 L 22 25 L 18 14.5 L 19.5 10 L 18 9.5 L 21.5 4 Z " /><path fill="rgb(251,242,102)" stroke="rgb(251,242,102)" stroke-width="1" opacity="1" d="M 27.5 23 L 28 25.5 L 27 25.5 L 27.5 23 Z " /><path fill="rgb(251,242,102)" stroke="rgb(251,242,102)" stroke-width="1" opacity="1" d="M 26.5 41 L 27.5 43 Q 24.7 43.7 26.5 41 Z " /><path fill="rgb(252,227,12)" stroke="rgb(252,227,12)" stroke-width="1" opacity="1" d="M 7 5 L 11 5 L 11 6.5 L 8 8.5 L 7 5 Z " /><path fill="rgb(252,227,12)" stroke="rgb(252,227,12)" stroke-width="1" opacity="1" d="M 4.5 10 L 7 12.5 L 8 23 Q 4.2 21.5 5 24.5 L 8 25.5 L 6 25.5 Q 7.2 30.1 2 28 L 2 16.5 L 3.5 16 L 3.5 15 Q 0.5 15.9 2 11.5 L 3 11.5 L 3.5 14 Q 6.3 12.8 4 11.5 L 4.5 10 Z " /><path fill="rgb(252,227,12)" stroke="rgb(252,227,12)" stroke-width="1" opacity="1" d="M 5.5 37 L 8 37.5 L 5.5 38 L 5.5 37 Z " /><path fill="rgb(201,127,103)" stroke="rgb(201,127,103)" stroke-width="1" opacity="1" d="M 16.5 17 L 17 19.5 L 16 19.5 L 16.5 17 Z " /><path fill="rgb(201,127,103)" stroke="rgb(201,127,103)" stroke-width="1" opacity="1" d="M 12.5 18 L 13 25.5 L 12 25.5 L 12.5 18 Z " /><path fill="rgb(201,127,103)" stroke="rgb(201,127,103)" stroke-width="1" opacity="1" d="M 16.5 21 L 17 23.5 L 16 23.5 L 16.5 21 Z " /><path fill="rgb(173,30,19)" stroke="rgb(173,30,19)" stroke-width="1" opacity="1" d="M 10.5 15 L 12 21.5 L 11 22.5 L 11 29 L 9 28.5 L 10 26.5 L 9 21.5 L 10 18.5 L 10.5 15 Z " /><path fill="rgb(173,30,19)" stroke="rgb(173,30,19)" stroke-width="1" opacity="1" d="M 17 19 L 19 19.5 L 17 20.5 L 17 19 Z " /><path fill="rgb(173,30,19)" stroke="rgb(173,30,19)" stroke-width="1" opacity="1" d="M 19.5 21 L 20 23.5 L 19 23.5 L 19.5 21 Z " /><path fill="rgb(173,30,19)" stroke="rgb(173,30,19)" stroke-width="1" opacity="1" d="M 17.5 24 L 18 33.5 L 17 33.5 L 17.5 24 Z " /><path fill="rgb(173,30,19)" stroke="rgb(173,30,19)" stroke-width="1" opacity="1" d="M 10.5 30 Q 14.8 31.7 12 33.5 Q 13.1 36.8 10.5 36 L 10.5 34 L 2 33.5 L 6.5 32 L 10.5 33 L 10 31.5 L 10.5 30 Z " /><path fill="rgb(173,30,19)" stroke="rgb(173,30,19)" stroke-width="1" opacity="1" d="M 6.5 35 L 9 35.5 L 6.5 36 L 6.5 35 Z " /><path fill="rgb(173,30,19)" stroke="rgb(173,30,19)" stroke-width="1" opacity="1" d="M 18.5 35 L 19.5 37 L 18.5 35 Z " /><path fill="rgb(173,30,19)" stroke="rgb(173,30,19)" stroke-width="1" opacity="1" d="M 6.5 41 L 7.5 43 L 6.5 41 Z " /><path fill="rgb(251,244,146)" stroke="rgb(251,244,146)" stroke-width="1" opacity="1" d="M 9.5 12 L 8.5 14 L 9.5 12 Z " /><path fill="rgb(251,244,146)" stroke="rgb(251,244,146)" stroke-width="1" opacity="1" d="M 24.5 12 L 26 14.5 L 25 16.5 L 28 20.5 L 24.5 22 L 24 19 L 22 18.5 L 23.5 16 Q 21.3 16.8 22 14.5 L 21.5 13 L 24 14 L 24.5 12 Z " /><path fill="rgb(251,244,146)" stroke="rgb(251,244,146)" stroke-width="1" opacity="1" d="M 26.5 26 L 28 29.5 L 27 31.5 L 27 33.5 L 26.5 38 L 25.5 36 L 22 37 L 21 31.5 L 22.5 32 L 24.5 33 L 26 31.5 L 26 27.5 L 26.5 26 Z " /><path fill="rgb(251,244,146)" stroke="rgb(251,244,146)" stroke-width="1" opacity="1" d="M 18.5 40 L 17.5 42 L 18.5 40 Z " /><path fill="rgb(69,40,22)" stroke="rgb(69,40,22)" stroke-width="1" opacity="1" d="M 2 1 L 28 1.5 L 25 3.5 L 24.5 2 L 21.5 3 L 20.5 2 L 12.5 2 L 10 3.5 Q 10.8 1.3 8.5 2 L 6.5 3 L 3.5 2 L 2 2.5 L 2 1 Z " /><path fill="rgb(69,40,22)" stroke="rgb(69,40,22)" stroke-width="1" opacity="1" d="M 26.5 5 L 27 6.5 L 25 7.5 L 26.5 5 Z " /><path fill="rgb(69,40,22)" stroke="rgb(69,40,22)" stroke-width="1" opacity="1" d="M 5.5 6 L 6.5 8 Q 3.7 8.7 5.5 6 Z " /><path fill="rgb(69,40,22)" stroke="rgb(69,40,22)" stroke-width="1" opacity="1" d="M 10.5 14 Q 13.1 13.2 12 16.5 Q 14.3 17.8 11.5 19 L 10.5 14 Z " /><path fill="rgb(69,40,22)" stroke="rgb(69,40,22)" stroke-width="1" opacity="1" d="M 9.5 16 L 10 18.5 L 9 18.5 L 9.5 16 Z " /><path fill="rgb(69,40,22)" stroke="rgb(69,40,22)" stroke-width="1" opacity="1" d="M 6.5 29 L 5.5 31 L 6.5 29 Z " /><path fill="rgb(69,40,22)" stroke="rgb(69,40,22)" stroke-width="1" opacity="1" d="M 8.5 31 L 9 33 L 7 32.5 L 8.5 31 Z " /><path fill="rgb(69,40,22)" stroke="rgb(69,40,22)" stroke-width="1" opacity="1" d="M 15.5 31 Q 18.5 30.2 17 34 L 12.5 35 L 12 33.5 L 15.5 31 Z " /><path fill="rgb(69,40,22)" stroke="rgb(69,40,22)" stroke-width="1" opacity="1" d="M 2.5 35 L 6 35.5 L 2.5 36 L 2.5 35 Z " /><path fill="rgb(69,40,22)" stroke="rgb(69,40,22)" stroke-width="1" opacity="1" d="M 8.5 36 L 12 36.5 L 11.5 39 L 8.5 40 L 8 38.5 L 8.5 36 Z " /><path fill="rgb(69,40,22)" stroke="rgb(69,40,22)" stroke-width="1" opacity="1" d="M 3.5 43 L 5 43.5 L 2.5 45 L 3.5 43 Z " /><path fill="rgb(69,40,22)" stroke="rgb(69,40,22)" stroke-width="1" opacity="1" d="M 25.5 43 Q 27.8 42.3 27 44.5 L 25.5 43 Z " /><path fill="rgb(69,40,22)" stroke="rgb(69,40,22)" stroke-width="1" opacity="1" d="M 6 46 Q 9 45 8 48 Q 5 49 6 46 Z " /><path fill="rgb(85,74,62)" stroke="rgb(85,74,62)" stroke-width="1" opacity="1" d="M 25.5 6 L 26.5 8 L 25.5 6 Z " /><path fill="rgb(85,74,62)" stroke="rgb(85,74,62)" stroke-width="1" opacity="1" d="M 14.5 25 L 13.5 27 L 14.5 25 Z " /><path fill="rgb(85,74,62)" stroke="rgb(85,74,62)" stroke-width="1" opacity="1" d="M 16.5 25 L 17 27.5 L 16 27.5 L 16.5 25 Z " /><path fill="rgb(85,74,62)" stroke="rgb(85,74,62)" stroke-width="1" opacity="1" d="M 13.5 34 L 13.5 37 Q 10.5 35.5 13.5 34 Z " /><path fill="rgb(85,74,62)" stroke="rgb(85,74,62)" stroke-width="1" opacity="1" d="M 15 35 L 17 35.5 L 15 36.5 L 15 35 Z " /><path fill="rgb(85,74,62)" stroke="rgb(85,74,62)" stroke-width="1" opacity="1" d="M 2.5 37 Q 5.2 38.3 3 39.5 L 2.5 41 L 2 39.5 L 2.5 37 Z " /><path fill="rgb(85,74,62)" stroke="rgb(85,74,62)" stroke-width="1" opacity="1" d="M 8.5 42 L 12 43.5 L 10.5 45 L 8.5 42 Z " /><path fill="rgb(85,74,62)" stroke="rgb(85,74,62)" stroke-width="1" opacity="1" d="M 13.5 43 L 14.5 45 Q 11.7 45.7 13.5 43 Z " /><path fill="rgb(85,74,62)" stroke="rgb(85,74,62)" stroke-width="1" opacity="1" d="M 16.5 44 L 20 44.5 L 16.5 45 L 16.5 44 Z " /><path fill="rgb(85,74,62)" stroke="rgb(85,74,62)" stroke-width="1" opacity="1" d="M 14.5 47 L 23 48.5 L 2.5 49 L 2.5 48 L 13.5 48 L 14.5 47 Z " /><path fill="rgb(85,74,62)" stroke="rgb(85,74,62)" stroke-width="1" opacity="1" d="M 24.5 48 L 28 48.5 L 24.5 49 L 24.5 48 Z " /><path fill="rgb(233,33,19)" stroke="rgb(233,33,19)" stroke-width="1" opacity="1" d="M 18.5 20 L 20 28.5 L 20 30.5 Q 21.3 35.8 18.5 37 L 18 34.5 Q 19.3 26.3 17 21.5 L 18.5 20 Z " /><path fill="rgb(233,33,19)" stroke="rgb(233,33,19)" stroke-width="1" opacity="1" d="M 10.5 21 Q 13.5 22.5 12 28.5 L 11 28.5 Q 11.5 22.5 10.5 21 Z " /><path fill="rgb(233,33,19)" stroke="rgb(233,33,19)" stroke-width="1" opacity="1" d="M 8.5 30 Q 10.8 29.3 10 31.5 L 8.5 30 Z " /><path fill="rgb(233,33,19)" stroke="rgb(233,33,19)" stroke-width="1" opacity="1" d="M 2.5 31 L 6 31.5 L 2.5 32 L 2.5 31 Z " /><path fill="rgb(233,33,19)" stroke="rgb(233,33,19)" stroke-width="1" opacity="1" d="M 2.5 34 L 11 34.5 Q 9.8 37.3 8.5 35 L 2.5 35 L 2.5 34 Z " /><path fill="rgb(252,244,128)" stroke="rgb(252,244,128)" stroke-width="1" opacity="1" d="M 22 9 Q 26.1 7.3 25 11.5 L 24 14 Q 21 13 22 16 L 24 16.5 L 22.5 19 Q 25.1 18.2 24 21.5 L 25.5 21 L 28 22.5 L 27 25.5 L 27.5 27 L 26 26.5 L 25 28.5 L 25.5 34 L 22 32 L 22 37 L 24.5 37 L 26 36.5 L 26 38 L 21 38 L 22 31.5 L 22 29.5 Q 21.3 26.9 24 28 L 24 25 L 25.5 25 L 25.5 24 Q 23.3 24.8 24 22.5 Q 20.3 19.7 20 13.5 Q 22.8 12.4 22 9 Z " /><path fill="rgb(252,244,128)" stroke="rgb(252,244,128)" stroke-width="1" opacity="1" d="M 27.5 13 L 28 15.5 L 27 15.5 L 27.5 13 Z " /><path fill="rgb(252,244,128)" stroke="rgb(252,244,128)" stroke-width="1" opacity="1" d="M 27.5 17 L 28 19.5 L 27 19.5 L 27.5 17 Z " /><path fill="rgb(252,244,128)" stroke="rgb(252,244,128)" stroke-width="1" opacity="1" d="M 27.5 33 L 28 37.5 L 27 37.5 L 27.5 33 Z " /><path fill="rgb(207,183,50)" stroke="rgb(207,183,50)" stroke-width="1" opacity="1" d="M 9.5 2 L 10 5 L 8 4.5 L 9.5 2 Z " /><path fill="rgb(207,183,50)" stroke="rgb(207,183,50)" stroke-width="1" opacity="1" d="M 2.5 5 L 6 8.5 L 4.5 10 L 3.5 7 L 2.5 9 L 2 7.5 L 2.5 5 Z " /><path fill="rgb(207,183,50)" stroke="rgb(207,183,50)" stroke-width="1" opacity="1" d="M 10.5 10 L 12.5 11 L 14 10.5 Q 12.8 13.3 11.5 11 L 9.5 12 L 10.5 10 Z " /><path fill="rgb(207,183,50)" stroke="rgb(207,183,50)" stroke-width="1" opacity="1" d="M 25.5 11 L 27 13.5 L 25 14 L 25.5 11 Z " /><path fill="rgb(207,183,50)" stroke="rgb(207,183,50)" stroke-width="1" opacity="1" d="M 8.5 15 L 9 23.5 L 8 23.5 L 8.5 15 Z " /><path fill="rgb(207,183,50)" stroke="rgb(207,183,50)" stroke-width="1" opacity="1" d="M 17.5 16 L 18.5 18 L 17.5 16 Z " /><path fill="rgb(207,183,50)" stroke="rgb(207,183,50)" stroke-width="1" opacity="1" d="M 19.5 19 L 22 22.5 L 19 20.5 L 19.5 19 Z " /><path fill="rgb(207,183,50)" stroke="rgb(207,183,50)" stroke-width="1" opacity="1" d="M 8.5 25 L 9 28.5 L 8 32 L 6 31.5 L 7 29.5 L 5 29.5 L 8.5 25 Z " /><path fill="rgb(207,183,50)" stroke="rgb(207,183,50)" stroke-width="1" opacity="1" d="M 6.5 36 L 9 37.5 L 5 40.5 Q 4.3 38.3 6.5 39 L 7.5 37 L 6.5 36 Z " /><path fill="rgb(207,183,50)" stroke="rgb(207,183,50)" stroke-width="1" opacity="1" d="M 26.5 38 L 27.5 40 L 25 39.5 L 26.5 38 Z " /><path fill="rgb(207,183,50)" stroke="rgb(207,183,50)" stroke-width="1" opacity="1" d="M 20.5 40 L 23 41.5 L 21.5 41 L 20.5 40 Z " /><path fill="rgb(207,183,50)" stroke="rgb(207,183,50)" stroke-width="1" opacity="1" d="M 20.5 42 L 24 44.5 L 22.5 45 L 20 44 L 20.5 42 Z " /><path fill="rgb(110,106,99)" stroke="rgb(110,106,99)" stroke-width="1" opacity="1" d="M 13.5 29 L 14.5 31 L 13.5 29 Z " /><path fill="rgb(110,106,99)" stroke="rgb(110,106,99)" stroke-width="1" opacity="1" d="M 10.5 39 L 12.5 40 Q 13.8 37.8 15 40.5 L 14.5 43 L 13.5 40 L 9 43 L 10.5 39 Z " /><path fill="rgb(110,106,99)" stroke="rgb(110,106,99)" stroke-width="1" opacity="1" d="M 7.5 44 L 10 44.5 L 7.5 45 L 7.5 44 Z " /><path fill="rgb(247,245,243)" stroke="rgb(247,245,243)" stroke-width="1" opacity="1" d="M 0 0 L 30 0 L 30 50 L 0 50 L 0 0 Z M 2 1 L 2 45 L 28 45 L 28 1 L 2 1 Z M 5 46 Q 6 49 3 48 L 3 49 L 28 49 L 22 48 L 24 47 L 21 46 L 21 48 L 14 46 L 5 46 Z " /><path fill="rgb(247,245,243)" stroke="rgb(247,245,243)" stroke-width="1" opacity="1" d="M 13 18 L 16 18 L 16 25 L 13 25 L 13 18 Z " /><path fill="rgb(247,245,243)" stroke="rgb(247,245,243)" stroke-width="1" opacity="1" d="M 15.5 39 L 19 39.5 Q 17.8 42.3 16.5 40 L 15.5 39 Z " /><path fill="rgb(132,103,36)" stroke="rgb(132,103,36)" stroke-width="1" opacity="1" d="M 4.5 2 L 3 4.5 Q 6.5 6 4 7.5 L 3.5 9 L 3 7.5 Q 5.5 6 2 4.5 L 4.5 2 Z " /><path fill="rgb(132,103,36)" stroke="rgb(132,103,36)" stroke-width="1" opacity="1" d="M 18 2 Q 21.8 0.5 21 3.5 L 18 3.5 L 18 2 Z " /><path fill="rgb(132,103,36)" stroke="rgb(132,103,36)" stroke-width="1" opacity="1" d="M 25.5 5 L 24.5 7 L 25.5 5 Z " /><path fill="rgb(132,103,36)" stroke="rgb(132,103,36)" stroke-width="1" opacity="1" d="M 6.5 6 L 7.5 8 L 6.5 6 Z " /><path fill="rgb(132,103,36)" stroke="rgb(132,103,36)" stroke-width="1" opacity="1" d="M 12.5 14 L 14.5 14 L 16 14.5 L 12.5 17 L 12.5 14 Z " /><path fill="rgb(132,103,36)" stroke="rgb(132,103,36)" stroke-width="1" opacity="1" d="M 21.5 25 L 23 25.5 L 21 26 L 20.5 30 L 20 26.5 L 21.5 25 Z " /><path fill="rgb(132,103,36)" stroke="rgb(132,103,36)" stroke-width="1" opacity="1" d="M 3.5 28 L 5 30.5 L 3 31 L 3.5 28 Z " /><path fill="rgb(132,103,36)" stroke="rgb(132,103,36)" stroke-width="1" opacity="1" d="M 9.5 29 Q 12.8 27.9 12 30.5 L 10.5 30 L 9.5 29 Z " /><path fill="rgb(132,103,36)" stroke="rgb(132,103,36)" stroke-width="1" opacity="1" d="M 24.5 42 L 26 44.5 L 24 43.5 L 24.5 42 Z " /><path fill="rgb(132,103,36)" stroke="rgb(132,103,36)" stroke-width="1" opacity="1" d="M 5.5 43 L 6 45 L 4 44.5 L 5.5 43 Z " /></svg>