<svg width="30" height="50" version="1.1" xmlns="http://www.w3.org/2000/svg" desc="Created with imagetracer.js version 1.2.6" ><path fill="rgb(232,212,56)" stroke="rgb(232,212,56)" stroke-width="1" opacity="1" d="M 2.5 36 L 3.5 38 L 2.5 36 Z " /><path fill="rgb(232,212,56)" stroke="rgb(232,212,56)" stroke-width="1" opacity="1" d="M 9.5 40 L 11 43.5 L 6.5 44 Q 5 40.5 3.5 43 L 2 42.5 Q 2.8 40.3 6.5 41 L 9 42 L 9.5 40 Z " /><path fill="rgb(135,140,135)" stroke="rgb(135,140,135)" stroke-width="1" opacity="1" d="M 5.5 2 L 4.5 4 L 5.5 2 Z " /><path fill="rgb(135,140,135)" stroke="rgb(135,140,135)" stroke-width="1" opacity="1" d="M 9.5 5 L 10.5 7 L 9.5 5 Z " /><path fill="rgb(135,140,135)" stroke="rgb(135,140,135)" stroke-width="1" opacity="1" d="M 12.5 6 L 14 8.5 L 13.5 11 Q 10.6 11.4 12.5 6 Z " /><path fill="rgb(135,140,135)" stroke="rgb(135,140,135)" stroke-width="1" opacity="1" d="M 17.5 6 L 16.5 8 L 17.5 6 Z " /><path fill="rgb(135,140,135)" stroke="rgb(135,140,135)" stroke-width="1" opacity="1" d="M 20.5 8 L 20 9.5 L 19.5 11 L 19 9.5 L 20.5 8 Z " /><path fill="rgb(135,140,135)" stroke="rgb(135,140,135)" stroke-width="1" opacity="1" d="M 25 9 Q 28 8 27 11 Q 24 12 25 9 Z " /><path fill="rgb(135,140,135)" stroke="rgb(135,140,135)" stroke-width="1" opacity="1" d="M 8.5 12 L 9 13.5 L 7 14.5 L 8.5 12 Z " /><path fill="rgb(135,140,135)" stroke="rgb(135,140,135)" stroke-width="1" opacity="1" d="M 11.5 13 L 14 13.5 L 11 14 L 10.5 16 L 10 14.5 L 11.5 13 Z " /><path fill="rgb(135,140,135)" stroke="rgb(135,140,135)" stroke-width="1" opacity="1" d="M 17.5 16 L 20 16.5 L 17.5 17 L 17.5 16 Z " /><path fill="rgb(135,140,135)" stroke="rgb(135,140,135)" stroke-width="1" opacity="1" d="M 5.5 21 L 5 22.5 L 6 26 L 4 25.5 L 4 23.5 L 5.5 21 Z " /><path fill="rgb(135,140,135)" stroke="rgb(135,140,135)" stroke-width="1" opacity="1" d="M 10.5 33 L 9.5 35 L 10.5 33 Z " /><path fill="rgb(135,140,135)" stroke="rgb(135,140,135)" stroke-width="1" opacity="1" d="M 10.5 38 L 9.5 40 L 8 39.5 L 10.5 38 Z " /><path fill="rgb(135,140,135)" stroke="rgb(135,140,135)" stroke-width="1" opacity="1" d="M 25.5 38 L 28 39.5 L 28 41.5 Q 28.8 43.8 26.5 43 L 26.5 39 L 25.5 38 Z " /><path fill="rgb(135,140,135)" stroke="rgb(135,140,135)" stroke-width="1" opacity="1" d="M 13.5 42 L 15 42.5 L 10.5 45 L 11.5 43 L 13.5 42 Z " /><path fill="rgb(135,140,135)" stroke="rgb(135,140,135)" stroke-width="1" opacity="1" d="M 2.5 45 L 6 46.5 L 4.5 47 L 2.5 45 Z " /><path fill="rgb(135,140,135)" stroke="rgb(135,140,135)" stroke-width="1" opacity="1" d="M 15.5 45 L 16 47 L 14 46.5 L 15.5 45 Z " /><path fill="rgb(135,140,135)" stroke="rgb(135,140,135)" stroke-width="1" opacity="1" d="M 21.5 46 L 20.5 48 L 21.5 46 Z " /><path fill="rgb(217,211,210)" stroke="rgb(217,211,210)" stroke-width="1" opacity="1" d="M 23.5 2 L 22.5 4 L 19 3.5 L 23.5 2 Z " /><path fill="rgb(217,211,210)" stroke="rgb(217,211,210)" stroke-width="1" opacity="1" d="M 10 3 L 13 3.5 L 10.5 5 L 10 3 Z " /><path fill="rgb(217,211,210)" stroke="rgb(217,211,210)" stroke-width="1" opacity="1" d="M 8 6 L 12 7.5 L 12 9.5 L 13 11.5 L 11.5 12 Q 9.2 7.8 7 9.5 L 8 6 Z " /><path fill="rgb(217,211,210)" stroke="rgb(217,211,210)" stroke-width="1" opacity="1" d="M 18.5 7 Q 21.3 8.3 19 9.5 L 20 11.5 L 18.5 11 Q 16.3 11.8 17 9.5 L 18.5 7 Z " /><path fill="rgb(217,211,210)" stroke="rgb(217,211,210)" stroke-width="1" opacity="1" d="M 26.5 7 L 27.5 9 L 25 8.5 L 26.5 7 Z " /><path fill="rgb(217,211,210)" stroke="rgb(217,211,210)" stroke-width="1" opacity="1" d="M 2.5 8 L 8 11.5 L 7 14 L 4 15.5 L 6 16.5 L 6 18.5 L 3.5 21 Q 0.1 21.9 2 16.5 L 2 12.5 L 3 10.5 L 2.5 8 Z " /><path fill="rgb(217,211,210)" stroke="rgb(217,211,210)" stroke-width="1" opacity="1" d="M 27.5 10 L 28 20.5 L 26.5 20 Q 21.4 20.6 20 17.5 Q 22.3 16.3 19.5 15 L 18 15.5 Q 17.3 13.3 19.5 14 L 21 14.5 L 23.5 11 L 27.5 10 Z " /><path fill="rgb(217,211,210)" stroke="rgb(217,211,210)" stroke-width="1" opacity="1" d="M 9 13 L 11 13.5 L 9 14.5 L 9 13 Z " /><path fill="rgb(217,211,210)" stroke="rgb(217,211,210)" stroke-width="1" opacity="1" d="M 4.5 35 L 8 36 L 8.5 38 L 10 37.5 L 7 39 Q 8.1 36.3 5.5 37 L 4.5 35 Z " /><path fill="rgb(217,211,210)" stroke="rgb(217,211,210)" stroke-width="1" opacity="1" d="M 2.5 37 L 5 40.5 L 2.5 42 L 2.5 37 Z " /><path fill="rgb(217,211,210)" stroke="rgb(217,211,210)" stroke-width="1" opacity="1" d="M 11 39 L 13 39 Q 11.9 41.7 14.5 41 L 17 42 L 17.5 45 L 19.5 45 L 26 45.5 L 24 46.5 L 27 47 L 27.5 45 L 28 48 L 17.5 49 L 16 46.5 Q 18.3 45.3 15.5 44 L 14 43.5 L 14.5 42 Q 9.3 43.5 11 39 Z M 19 45 Q 16 47 19 48 L 22 47 L 19 45 Z " /><path fill="rgb(217,211,210)" stroke="rgb(217,211,210)" stroke-width="1" opacity="1" d="M 17.5 39 L 18 41 L 16 40.5 L 17.5 39 Z " /><path fill="rgb(217,211,210)" stroke="rgb(217,211,210)" stroke-width="1" opacity="1" d="M 26.5 39 L 27.5 41 L 26.5 39 Z " /><path fill="rgb(217,211,210)" stroke="rgb(217,211,210)" stroke-width="1" opacity="1" d="M 6.5 44 L 9 44.5 L 6.5 45 L 6.5 44 Z " /><path fill="rgb(217,211,210)" stroke="rgb(217,211,210)" stroke-width="1" opacity="1" d="M 10 45 Q 15.2 42.9 14 47.5 L 14.5 49 L 7 48.5 L 10 48 L 10 45 Z " /><path fill="rgb(217,211,210)" stroke="rgb(217,211,210)" stroke-width="1" opacity="1" d="M 2 47 L 5 47.5 L 2 49 L 2 47 Z " /><path fill="rgb(185,182,179)" stroke="rgb(185,182,179)" stroke-width="1" opacity="1" d="M 19.5 2 L 19.5 5 Q 16.5 3.5 19.5 2 Z " /><path fill="rgb(185,182,179)" stroke="rgb(185,182,179)" stroke-width="1" opacity="1" d="M 22.5 2 L 23.5 4 L 22.5 2 Z " /><path fill="rgb(185,182,179)" stroke="rgb(185,182,179)" stroke-width="1" opacity="1" d="M 15 5 L 17 5.5 L 15 6.5 L 15 5 Z " /><path fill="rgb(185,182,179)" stroke="rgb(185,182,179)" stroke-width="1" opacity="1" d="M 2.5 6 L 5 9.5 L 3 8.5 L 2.5 6 Z " /><path fill="rgb(185,182,179)" stroke="rgb(185,182,179)" stroke-width="1" opacity="1" d="M 17.5 7 L 18 8.5 L 16 9.5 L 17.5 7 Z " /><path fill="rgb(185,182,179)" stroke="rgb(185,182,179)" stroke-width="1" opacity="1" d="M 23.5 10 L 25 10.5 L 21.5 13 L 23.5 10 Z " /><path fill="rgb(185,182,179)" stroke="rgb(185,182,179)" stroke-width="1" opacity="1" d="M 18.5 11 L 18.5 14 Q 15.5 12.5 18.5 11 Z " /><path fill="rgb(185,182,179)" stroke="rgb(185,182,179)" stroke-width="1" opacity="1" d="M 7.5 12 L 9 14.5 L 7 13.5 L 7.5 12 Z " /><path fill="rgb(185,182,179)" stroke="rgb(185,182,179)" stroke-width="1" opacity="1" d="M 5.5 14 L 4.5 16 L 5.5 14 Z " /><path fill="rgb(185,182,179)" stroke="rgb(185,182,179)" stroke-width="1" opacity="1" d="M 11 14 L 13 14.5 L 11 15.5 L 11 14 Z " /><path fill="rgb(185,182,179)" stroke="rgb(185,182,179)" stroke-width="1" opacity="1" d="M 20.5 16 L 19.5 18 L 20.5 16 Z " /><path fill="rgb(185,182,179)" stroke="rgb(185,182,179)" stroke-width="1" opacity="1" d="M 5.5 17 Q 7.3 20.1 9 18.5 L 3 22.5 L 2.5 24 L 2 21 L 6 18.5 L 5.5 17 Z " /><path fill="rgb(185,182,179)" stroke="rgb(185,182,179)" stroke-width="1" opacity="1" d="M 21.5 18 L 23 20.5 L 22 20.5 L 21.5 18 Z " /><path fill="rgb(185,182,179)" stroke="rgb(185,182,179)" stroke-width="1" opacity="1" d="M 8.5 37 L 12 38.5 L 9.5 39 L 8.5 37 Z " /><path fill="rgb(185,182,179)" stroke="rgb(185,182,179)" stroke-width="1" opacity="1" d="M 22.5 37 L 22.5 40 L 20 39.5 Q 19.3 37.3 21.5 38 L 22.5 37 Z " /><path fill="rgb(185,182,179)" stroke="rgb(185,182,179)" stroke-width="1" opacity="1" d="M 16.5 41 L 21 43.5 L 18.5 44 L 16.5 41 Z " /><path fill="rgb(185,182,179)" stroke="rgb(185,182,179)" stroke-width="1" opacity="1" d="M 3.5 44 L 7 45 Q 9.1 50.2 4.5 49 L 5.5 46 L 2.5 47 L 2.5 46 L 4 45.5 L 3.5 44 Z " /><path fill="rgb(185,182,179)" stroke="rgb(185,182,179)" stroke-width="1" opacity="1" d="M 9.5 44 L 10 46 L 8 45.5 L 9.5 44 Z " /><path fill="rgb(185,182,179)" stroke="rgb(185,182,179)" stroke-width="1" opacity="1" d="M 18.5 45 L 20 48 L 18 47.5 L 18.5 45 Z " /><path fill="rgb(185,182,179)" stroke="rgb(185,182,179)" stroke-width="1" opacity="1" d="M 26.5 45 L 27 47 L 25 46.5 L 26.5 45 Z " /><path fill="rgb(90,87,67)" stroke="rgb(90,87,67)" stroke-width="1" opacity="1" d="M 10.5 5 L 11.5 7 L 10.5 5 Z " /><path fill="rgb(90,87,67)" stroke="rgb(90,87,67)" stroke-width="1" opacity="1" d="M 3.5 6 L 4.5 8 L 3.5 6 Z " /><path fill="rgb(90,87,67)" stroke="rgb(90,87,67)" stroke-width="1" opacity="1" d="M 13 6 L 17 8.5 L 13.5 10 L 13 7.5 L 13 6 Z " /><path fill="rgb(90,87,67)" stroke="rgb(90,87,67)" stroke-width="1" opacity="1" d="M 20.5 10 L 23 10.5 Q 20.9 13.8 20.5 10 Z " /><path fill="rgb(90,87,67)" stroke="rgb(90,87,67)" stroke-width="1" opacity="1" d="M 13.5 12 L 16 12.5 Q 13.9 15.8 13.5 12 Z " /><path fill="rgb(90,87,67)" stroke="rgb(90,87,67)" stroke-width="1" opacity="1" d="M 6.5 14 L 5.5 16 L 6.5 14 Z " /><path fill="rgb(90,87,67)" stroke="rgb(90,87,67)" stroke-width="1" opacity="1" d="M 20.5 18 L 21.5 20 L 20.5 18 Z " /><path fill="rgb(90,87,67)" stroke="rgb(90,87,67)" stroke-width="1" opacity="1" d="M 26.5 20 L 27.5 22 L 26.5 20 Z " /><path fill="rgb(90,87,67)" stroke="rgb(90,87,67)" stroke-width="1" opacity="1" d="M 3.5 22 L 4 23.5 L 2 24.5 L 3.5 22 Z " /><path fill="rgb(90,87,67)" stroke="rgb(90,87,67)" stroke-width="1" opacity="1" d="M 23 23 L 25 23.5 L 23 24.5 L 23 23 Z " /><path fill="rgb(90,87,67)" stroke="rgb(90,87,67)" stroke-width="1" opacity="1" d="M 7.5 46 L 10 46.5 L 7.5 47 L 7.5 46 Z " /><path fill="rgb(250,163,56)" stroke="rgb(250,163,56)" stroke-width="1" opacity="1" d="M 11 17 L 15.5 18 L 17.5 17 L 20 18 Q 18.5 21.8 21.5 21 L 23 24.5 L 21.5 24 L 19.5 25 L 18.5 23 L 21 22.5 Q 19 17.3 11 19 L 11 17 Z " /><path fill="rgb(250,163,56)" stroke="rgb(250,163,56)" stroke-width="1" opacity="1" d="M 8.5 20 L 10 20.5 L 8.5 23 L 10.5 22 L 11.5 24 L 6 23.5 L 8.5 20 Z " /><path fill="rgb(250,163,56)" stroke="rgb(250,163,56)" stroke-width="1" opacity="1" d="M 16.5 20 Q 19.5 21.5 16.5 23 L 16.5 20 Z " /><path fill="rgb(250,163,56)" stroke="rgb(250,163,56)" stroke-width="1" opacity="1" d="M 6.5 26 L 12 26.5 L 11 28.5 L 14.5 26 L 15.5 27 L 19.5 26 L 23 27.5 L 22 30 L 20 29.5 L 20.5 28 L 17 29 Q 15.9 31.7 18.5 31 L 16.5 34 L 16 31 Q 11.9 29.3 13 33.5 L 11.5 33 L 8.5 31 L 6.5 26 Z M 14 29 L 14 30 L 16 30 L 14 29 Z " /><path fill="rgb(233,149,59)" stroke="rgb(233,149,59)" stroke-width="1" opacity="1" d="M 9.5 18 L 12 19.5 L 10.5 19 L 9.5 18 Z " /><path fill="rgb(233,149,59)" stroke="rgb(233,149,59)" stroke-width="1" opacity="1" d="M 20.5 19 L 21.5 21 L 20 21.5 L 20.5 23 Q 19.2 20.8 18 23.5 L 18.5 25 L 17 24.5 L 16.5 26 L 15 24.5 L 15.5 22 L 18 23 L 17 20.5 L 18.5 20 L 20 20.5 L 20.5 19 Z " /><path fill="rgb(233,149,59)" stroke="rgb(233,149,59)" stroke-width="1" opacity="1" d="M 8 24 L 10 24.5 L 8 25.5 L 8 24 Z " /><path fill="rgb(233,149,59)" stroke="rgb(233,149,59)" stroke-width="1" opacity="1" d="M 11 27 L 13 27.5 L 11 28.5 L 11 27 Z " /><path fill="rgb(128,213,229)" stroke="rgb(128,213,229)" stroke-width="1" opacity="1" d="M 15.5 2 L 18 2.5 L 15.5 3 L 15.5 2 Z " /><path fill="rgb(128,213,229)" stroke="rgb(128,213,229)" stroke-width="1" opacity="1" d="M 25.5 2 L 28 3.5 Q 29.7 8.3 25.5 7 L 27 4.5 Q 27.8 2.3 25.5 3 L 25.5 2 Z " /><path fill="rgb(128,213,229)" stroke="rgb(128,213,229)" stroke-width="1" opacity="1" d="M 11.5 5 L 15 5.5 L 11.5 6 L 11.5 5 Z " /><path fill="rgb(128,213,229)" stroke="rgb(128,213,229)" stroke-width="1" opacity="1" d="M 15.5 11 L 18 11.5 L 15.5 12 L 15.5 11 Z " /><path fill="rgb(128,213,229)" stroke="rgb(128,213,229)" stroke-width="1" opacity="1" d="M 16.5 13 L 18 15.5 L 16 14.5 L 16.5 13 Z " /><path fill="rgb(128,213,229)" stroke="rgb(128,213,229)" stroke-width="1" opacity="1" d="M 13.5 14 L 14.5 16 L 13.5 14 Z " /><path fill="rgb(128,213,229)" stroke="rgb(128,213,229)" stroke-width="1" opacity="1" d="M 6 15 L 11 16.5 L 7.5 19 L 6 15 Z " /><path fill="rgb(128,213,229)" stroke="rgb(128,213,229)" stroke-width="1" opacity="1" d="M 23.5 20 Q 27.5 19.5 28 22.5 L 27.5 27 L 27 24 L 24 22.5 L 23.5 20 Z " /><path fill="rgb(128,213,229)" stroke="rgb(128,213,229)" stroke-width="1" opacity="1" d="M 3.5 27 L 5 27.5 L 4 30 L 6 30.5 L 4 31.5 L 6.5 33 L 8.5 33 L 10 33.5 L 9.5 35 L 17 37 L 15.5 41 L 12 38.5 Q 12.9 35.5 8.5 37 L 6 36 L 3.5 32 L 2 31.5 L 4 30.5 L 2 30 L 3.5 27 Z " /><path fill="rgb(128,213,229)" stroke="rgb(128,213,229)" stroke-width="1" opacity="1" d="M 26 28 Q 29.5 26.9 28 34.5 L 24.5 36 L 22 35.5 L 26 30.5 L 26 28 Z " /><path fill="rgb(128,213,229)" stroke="rgb(128,213,229)" stroke-width="1" opacity="1" d="M 13.5 43 L 16 44.5 L 13 45 L 13.5 43 Z " /><path fill="rgb(109,173,184)" stroke="rgb(109,173,184)" stroke-width="1" opacity="1" d="M 12.5 2 L 15 2.5 L 12.5 3 L 12.5 2 Z " /><path fill="rgb(109,173,184)" stroke="rgb(109,173,184)" stroke-width="1" opacity="1" d="M 13.5 4 L 16 4.5 L 13.5 5 L 13.5 4 Z " /><path fill="rgb(109,173,184)" stroke="rgb(109,173,184)" stroke-width="1" opacity="1" d="M 15.5 13 L 17 15.5 L 15.5 16 Q 12.5 14.5 15.5 13 Z " /><path fill="rgb(109,173,184)" stroke="rgb(109,173,184)" stroke-width="1" opacity="1" d="M 5.5 27 L 4.5 29 L 5.5 27 Z " /><path fill="rgb(109,173,184)" stroke="rgb(109,173,184)" stroke-width="1" opacity="1" d="M 6.5 30 L 8.5 33 L 6.5 30 Z " /><path fill="rgb(109,173,184)" stroke="rgb(109,173,184)" stroke-width="1" opacity="1" d="M 4.5 31 L 3.5 33 L 2 32.5 L 4.5 31 Z " /><path fill="rgb(109,173,184)" stroke="rgb(109,173,184)" stroke-width="1" opacity="1" d="M 23.5 33 L 22 35.5 Q 22.8 37.8 20.5 37 L 23.5 33 Z " /><path fill="rgb(109,173,184)" stroke="rgb(109,173,184)" stroke-width="1" opacity="1" d="M 18.5 37 L 19 39 L 17 38.5 L 18.5 37 Z " /><path fill="rgb(210,116,46)" stroke="rgb(210,116,46)" stroke-width="1" opacity="1" d="M 8.5 19 L 7.5 21 L 8.5 19 Z " /><path fill="rgb(210,116,46)" stroke="rgb(210,116,46)" stroke-width="1" opacity="1" d="M 14.5 19 L 14 20.5 L 15 22.5 L 13 21.5 L 14.5 19 Z " /><path fill="rgb(210,116,46)" stroke="rgb(210,116,46)" stroke-width="1" opacity="1" d="M 11.5 22 L 13 24.5 L 12 24.5 L 11.5 22 Z " /><path fill="rgb(210,116,46)" stroke="rgb(210,116,46)" stroke-width="1" opacity="1" d="M 14.5 24 L 15.5 26 Q 12.7 26.7 14.5 24 Z " /><path fill="rgb(210,116,46)" stroke="rgb(210,116,46)" stroke-width="1" opacity="1" d="M 21.5 24 L 22 27 L 19 25.5 L 21 25.5 L 21.5 24 Z " /><path fill="rgb(210,116,46)" stroke="rgb(210,116,46)" stroke-width="1" opacity="1" d="M 24.5 27 L 25 29 L 23 28.5 L 24.5 27 Z " /><path fill="rgb(210,116,46)" stroke="rgb(210,116,46)" stroke-width="1" opacity="1" d="M 20.5 28 L 21 30.5 Q 20.3 33.1 23 32 L 23.5 30 L 24 31.5 L 17.5 34 L 17.5 33 L 20 31.5 L 19.5 30 Q 18.3 32.3 17 29.5 Q 18.8 31.1 20.5 28 Z " /><path fill="rgb(210,116,46)" stroke="rgb(210,116,46)" stroke-width="1" opacity="1" d="M 10.5 29 L 12.5 30 L 14 29.5 L 13.5 32 L 10.5 29 Z " /><path fill="rgb(157,110,36)" stroke="rgb(157,110,36)" stroke-width="1" opacity="1" d="M 7.5 5 L 6.5 9 Q 3 7 7.5 5 Z " /><path fill="rgb(157,110,36)" stroke="rgb(157,110,36)" stroke-width="1" opacity="1" d="M 18 5 Q 21 4 20 7 Q 17 8 18 5 Z " /><path fill="rgb(157,110,36)" stroke="rgb(157,110,36)" stroke-width="1" opacity="1" d="M 9.5 11 L 10.5 13 Q 7.7 13.7 9.5 11 Z " /><path fill="rgb(157,110,36)" stroke="rgb(157,110,36)" stroke-width="1" opacity="1" d="M 12.5 19 L 12 20.5 L 13 22.5 L 11.5 22 L 10 21.5 L 12.5 19 Z " /><path fill="rgb(157,110,36)" stroke="rgb(157,110,36)" stroke-width="1" opacity="1" d="M 15 19 L 17 19.5 L 15.5 22 L 15 19 Z " /><path fill="rgb(157,110,36)" stroke="rgb(157,110,36)" stroke-width="1" opacity="1" d="M 5.5 22 L 6 23.5 L 3.5 25 L 3.5 24 Q 6 24.7 5.5 22 Z " /><path fill="rgb(157,110,36)" stroke="rgb(157,110,36)" stroke-width="1" opacity="1" d="M 10.5 24 L 12 24.5 L 9.5 26 L 10.5 24 Z " /><path fill="rgb(157,110,36)" stroke="rgb(157,110,36)" stroke-width="1" opacity="1" d="M 17.5 25 L 19 25.5 L 15.5 27 L 15.5 26 L 17.5 25 Z " /><path fill="rgb(157,110,36)" stroke="rgb(157,110,36)" stroke-width="1" opacity="1" d="M 14.5 31 L 15.5 33 L 14 32.5 L 13.5 34 L 13 32.5 L 14.5 31 Z " /><path fill="rgb(157,110,36)" stroke="rgb(157,110,36)" stroke-width="1" opacity="1" d="M 19.5 31 L 18.5 33 L 19.5 31 Z " /><path fill="rgb(157,110,36)" stroke="rgb(157,110,36)" stroke-width="1" opacity="1" d="M 7 40 L 9 40.5 L 7 41.5 L 7 40 Z " /><path fill="rgb(157,110,36)" stroke="rgb(157,110,36)" stroke-width="1" opacity="1" d="M 22.5 40 Q 24.8 39.3 24 41.5 L 22.5 40 Z " /><path fill="rgb(146,49,20)" stroke="rgb(146,49,20)" stroke-width="1" opacity="1" d="M 13.5 19 L 15 21.5 L 14 21.5 L 13.5 19 Z " /><path fill="rgb(146,49,20)" stroke="rgb(146,49,20)" stroke-width="1" opacity="1" d="M 13 23 L 15 23.5 L 13 24.5 L 13 23 Z " /><path fill="rgb(146,49,20)" stroke="rgb(146,49,20)" stroke-width="1" opacity="1" d="M 6.5 24 L 7.5 26 Q 4.7 26.7 6.5 24 Z " /><path fill="rgb(146,49,20)" stroke="rgb(146,49,20)" stroke-width="1" opacity="1" d="M 24.5 24 Q 28.3 22.8 27 26.5 Q 25 30 23 25.5 L 24.5 24 Z " /><path fill="rgb(146,49,20)" stroke="rgb(146,49,20)" stroke-width="1" opacity="1" d="M 19.5 28 L 19.5 31 Q 16.5 29.5 19.5 28 Z " /><path fill="rgb(146,49,20)" stroke="rgb(146,49,20)" stroke-width="1" opacity="1" d="M 22 29 Q 26.1 27.3 25 31.5 Q 22.9 36.4 16.5 37 L 10 34.5 Q 11.3 31.7 12.5 34 Q 14.8 34.8 14 32.5 L 16.5 34 L 23 32.5 L 21 31.5 L 22 29 Z " /><path fill="rgb(176,157,52)" stroke="rgb(176,157,52)" stroke-width="1" opacity="1" d="M 8.5 3 L 9 5 L 7 4.5 L 8.5 3 Z " /><path fill="rgb(176,157,52)" stroke="rgb(176,157,52)" stroke-width="1" opacity="1" d="M 24.5 4 L 25 6.5 L 24 6.5 L 24.5 4 Z " /><path fill="rgb(176,157,52)" stroke="rgb(176,157,52)" stroke-width="1" opacity="1" d="M 6.5 37 L 7 40.5 L 6 40.5 L 6.5 37 Z " /><path fill="rgb(250,250,249)" stroke="rgb(250,250,249)" stroke-width="1" opacity="1" d="M 0 0 L 30 0 L 30 50 L 0 50 L 0 0 Z M 2 2 L 2 49 L 15 49 L 16 48 L 18 49 L 22 48 L 28 48 L 28 45 L 19 45 L 22 44 L 21 43 L 24 42 L 24 44 L 28 43 Q 29 39 27 38 L 24 39 L 23 36 L 28 37 L 28 2 L 2 2 Z " /><path fill="rgb(250,250,249)" stroke="rgb(250,250,249)" stroke-width="1" opacity="1" d="M 20.5 11 L 21 13.5 L 20.5 15 L 18.5 12 L 20.5 11 Z " /><path fill="rgb(186,176,106)" stroke="rgb(186,176,106)" stroke-width="1" opacity="1" d="M 10.5 2 L 10 3.5 L 8.5 6 L 9 4.5 L 10.5 2 Z " /><path fill="rgb(186,176,106)" stroke="rgb(186,176,106)" stroke-width="1" opacity="1" d="M 4.5 4 L 5 6.5 L 4 6.5 L 4.5 4 Z " /><path fill="rgb(186,176,106)" stroke="rgb(186,176,106)" stroke-width="1" opacity="1" d="M 21.5 4 L 24 4.5 L 21 6 L 21.5 4 Z " /><path fill="rgb(186,176,106)" stroke="rgb(186,176,106)" stroke-width="1" opacity="1" d="M 4.5 8 L 5.5 10 L 4.5 8 Z " /><path fill="rgb(231,221,115)" stroke="rgb(231,221,115)" stroke-width="1" opacity="1" d="M 21.5 6 L 24 9.5 L 21.5 10 L 21.5 8 L 19 7.5 L 21.5 6 Z " /><path fill="rgb(231,221,115)" stroke="rgb(231,221,115)" stroke-width="1" opacity="1" d="M 25.5 39 L 25 40.5 L 24.5 43 L 24 40.5 L 25.5 39 Z " /></svg>