<svg width="30" height="50" version="1.1" xmlns="http://www.w3.org/2000/svg" desc="Created with imagetracer.js version 1.2.6" ><path fill="rgb(96,49,63)" stroke="rgb(96,49,63)" stroke-width="1" opacity="1" d="M 6.5 4 Q 9.5 5.5 6.5 7 L 6.5 4 Z " /><path fill="rgb(96,49,63)" stroke="rgb(96,49,63)" stroke-width="1" opacity="1" d="M 9.5 6 L 8.5 8 L 9.5 6 Z " /><path fill="rgb(96,49,63)" stroke="rgb(96,49,63)" stroke-width="1" opacity="1" d="M 13.5 7 L 12.5 9 L 13.5 7 Z " /><path fill="rgb(96,49,63)" stroke="rgb(96,49,63)" stroke-width="1" opacity="1" d="M 7.5 9 Q 9.8 8.3 9 10.5 L 10.5 10 L 12 10.5 L 7.5 13 L 8 11.5 L 7.5 10 L 6 10.5 L 7.5 9 Z " /><path fill="rgb(96,49,63)" stroke="rgb(96,49,63)" stroke-width="1" opacity="1" d="M 6.5 17 L 8 19.5 L 7 19.5 L 6.5 17 Z " /><path fill="rgb(96,49,63)" stroke="rgb(96,49,63)" stroke-width="1" opacity="1" d="M 23.5 18 L 22.5 20 L 23.5 18 Z " /><path fill="rgb(96,49,63)" stroke="rgb(96,49,63)" stroke-width="1" opacity="1" d="M 6.5 23 L 7 25.5 L 6 25.5 L 6.5 23 Z " /><path fill="rgb(96,49,63)" stroke="rgb(96,49,63)" stroke-width="1" opacity="1" d="M 22.5 25 L 21.5 27 L 22.5 25 Z " /><path fill="rgb(96,49,63)" stroke="rgb(96,49,63)" stroke-width="1" opacity="1" d="M 6.5 27 L 7 30 Q 9.7 31.1 9 28.5 L 10 28.5 L 11 30.5 L 9 30.5 Q 9.7 33.1 7 32 L 5 28.5 L 6.5 27 Z " /><path fill="rgb(157,69,99)" stroke="rgb(157,69,99)" stroke-width="1" opacity="1" d="M 8.5 5 L 9.5 7 L 12 6 L 11.5 8 L 10 7.5 L 11 9.5 L 9.5 9 L 8 8.5 L 8.5 7 L 7 6.5 L 8.5 5 Z " /><path fill="rgb(157,69,99)" stroke="rgb(157,69,99)" stroke-width="1" opacity="1" d="M 17.5 6 L 20 6.5 L 17.5 7 L 17.5 6 Z " /><path fill="rgb(157,69,99)" stroke="rgb(157,69,99)" stroke-width="1" opacity="1" d="M 20.5 8 L 23 8.5 L 20 9 L 20 11 Q 17.3 9.9 18 12.5 L 15.5 11 L 12 12.5 L 13 13.5 L 10.5 18 L 8.5 19 L 6 14.5 L 9 13.5 Q 8.3 11.3 10.5 12 L 16.5 9 L 18.5 10 L 20.5 8 Z " /><path fill="rgb(157,69,99)" stroke="rgb(157,69,99)" stroke-width="1" opacity="1" d="M 21 11 L 23 11.5 L 21 12.5 L 21 11 Z " /><path fill="rgb(157,69,99)" stroke="rgb(157,69,99)" stroke-width="1" opacity="1" d="M 22.5 14 L 23.5 16 Q 20.7 16.7 22.5 14 Z " /><path fill="rgb(157,69,99)" stroke="rgb(157,69,99)" stroke-width="1" opacity="1" d="M 22.5 17 L 23 19 L 21 18.5 L 22.5 17 Z " /><path fill="rgb(187,91,123)" stroke="rgb(187,91,123)" stroke-width="1" opacity="1" d="M 19.5 7 L 18.5 9 L 15.5 10 L 13.5 10 L 11 9.5 L 19.5 7 Z " /><path fill="rgb(187,91,123)" stroke="rgb(187,91,123)" stroke-width="1" opacity="1" d="M 21.5 9 L 22.5 11 Q 19.7 11.7 21.5 9 Z " /><path fill="rgb(187,91,123)" stroke="rgb(187,91,123)" stroke-width="1" opacity="1" d="M 18.5 12 L 21 13.5 Q 18.8 14.8 21.5 16 L 23 16.5 L 20.5 18 L 18 17 L 17 14.5 L 18.5 12 Z " /><path fill="rgb(221,213,211)" stroke="rgb(221,213,211)" stroke-width="1" opacity="1" d="M 16.5 2 L 15.5 4 L 16.5 2 Z " /><path fill="rgb(221,213,211)" stroke="rgb(221,213,211)" stroke-width="1" opacity="1" d="M 25.5 2 L 26 3.5 L 24.5 11 L 24 4.5 L 25.5 2 Z " /><path fill="rgb(221,213,211)" stroke="rgb(221,213,211)" stroke-width="1" opacity="1" d="M 3.5 6 L 5 16 L 3 15.5 L 3.5 6 Z " /><path fill="rgb(221,213,211)" stroke="rgb(221,213,211)" stroke-width="1" opacity="1" d="M 24.5 12 L 25 19.5 L 24 19.5 L 24.5 12 Z " /><path fill="rgb(221,213,211)" stroke="rgb(221,213,211)" stroke-width="1" opacity="1" d="M 28.5 12 L 29 15.5 L 28 18.5 L 29 21.5 L 27.5 21 Q 24.9 21.8 26 18.5 L 28.5 12 Z " /><path fill="rgb(221,213,211)" stroke="rgb(221,213,211)" stroke-width="1" opacity="1" d="M 3.5 18 L 5 21.5 L 3.5 28 L 3.5 18 Z " /><path fill="rgb(221,213,211)" stroke="rgb(221,213,211)" stroke-width="1" opacity="1" d="M 26.5 23 Q 28.8 24.8 28 29.5 L 27 29.5 Q 28.9 24.1 25.5 25 L 26 26.5 Q 26.8 28.8 24.5 28 L 24 25.5 L 26.5 23 Z " /><path fill="rgb(221,213,211)" stroke="rgb(221,213,211)" stroke-width="1" opacity="1" d="M 4.5 29 L 3.5 31 L 4.5 29 Z " /><path fill="rgb(221,213,211)" stroke="rgb(221,213,211)" stroke-width="1" opacity="1" d="M 24 29 L 26 29.5 L 24 30.5 L 24 29 Z " /><path fill="rgb(221,213,211)" stroke="rgb(221,213,211)" stroke-width="1" opacity="1" d="M 3.5 32 Q 6.3 33.3 4 34.5 L 5 37.5 L 3 38.5 L 4 36.5 L 3 34.5 L 3.5 32 Z " /><path fill="rgb(221,213,211)" stroke="rgb(221,213,211)" stroke-width="1" opacity="1" d="M 1.5 36 L 2 41 L 6 40 L 6 42 L 1 42 L 1.5 36 Z " /><path fill="rgb(221,213,211)" stroke="rgb(221,213,211)" stroke-width="1" opacity="1" d="M 25.5 40 Q 28.8 38.9 28 41.5 L 26.5 41 L 25.5 40 Z " /><path fill="rgb(221,213,211)" stroke="rgb(221,213,211)" stroke-width="1" opacity="1" d="M 10.5 41 L 13 41.5 L 10.5 42 L 10.5 41 Z " /><path fill="rgb(221,213,211)" stroke="rgb(221,213,211)" stroke-width="1" opacity="1" d="M 20 42 Q 25.7 41.1 29 43.5 L 26 45 Q 27.3 41.7 22.5 43 L 19.5 45 L 20 43.5 L 20 42 Z " /><path fill="rgb(221,213,211)" stroke="rgb(221,213,211)" stroke-width="1" opacity="1" d="M 16.5 43 Q 18.8 42.3 18 44.5 L 16.5 43 Z " /><path fill="rgb(221,213,211)" stroke="rgb(221,213,211)" stroke-width="1" opacity="1" d="M 5.5 44 L 7 46.5 L 6.5 48 L 9 48.5 L 2 49 Q -0.1 43.8 4.5 45 L 5.5 44 Z M 4 46 L 4 48 L 6 47 L 4 46 Z " /><path fill="rgb(101,80,62)" stroke="rgb(101,80,62)" stroke-width="1" opacity="1" d="M 23.5 5 L 24 9.5 L 23 9.5 L 23.5 5 Z " /><path fill="rgb(101,80,62)" stroke="rgb(101,80,62)" stroke-width="1" opacity="1" d="M 13.5 16 L 12.5 18 L 11 18.5 L 11.5 20 Q 8.5 18.5 11.5 17 L 13.5 16 Z " /><path fill="rgb(101,80,62)" stroke="rgb(101,80,62)" stroke-width="1" opacity="1" d="M 14.5 18 L 13.5 20 L 14.5 18 Z " /><path fill="rgb(101,80,62)" stroke="rgb(101,80,62)" stroke-width="1" opacity="1" d="M 16 18 Q 20.1 16.7 19 20 Q 14.9 21.3 16 18 Z " /><path fill="rgb(101,80,62)" stroke="rgb(101,80,62)" stroke-width="1" opacity="1" d="M 5.5 19 L 8 20.5 L 6.5 21 L 5.5 19 Z " /><path fill="rgb(101,80,62)" stroke="rgb(101,80,62)" stroke-width="1" opacity="1" d="M 23.5 19 L 22.5 21 L 23.5 19 Z " /><path fill="rgb(101,80,62)" stroke="rgb(101,80,62)" stroke-width="1" opacity="1" d="M 5.5 25 L 6 27.5 L 5 27.5 L 5.5 25 Z " /><path fill="rgb(101,80,62)" stroke="rgb(101,80,62)" stroke-width="1" opacity="1" d="M 17.5 27 L 20 30.5 L 19 30.5 L 17.5 27 Z " /><path fill="rgb(101,80,62)" stroke="rgb(101,80,62)" stroke-width="1" opacity="1" d="M 8.5 32 L 7.5 34 L 8.5 32 Z " /><path fill="rgb(101,80,62)" stroke="rgb(101,80,62)" stroke-width="1" opacity="1" d="M 14.5 43 L 15.5 45 Q 12.7 45.7 14.5 43 Z " /><path fill="rgb(101,80,62)" stroke="rgb(101,80,62)" stroke-width="1" opacity="1" d="M 11.5 46 L 10.5 48 L 11.5 46 Z " /><path fill="rgb(120,19,25)" stroke="rgb(120,19,25)" stroke-width="1" opacity="1" d="M 8.5 20 L 10 22.5 L 8.5 25 Q 11.1 24.2 10 27.5 L 8 26.5 L 7 24.5 L 8 21.5 L 8.5 20 Z " /><path fill="rgb(120,19,25)" stroke="rgb(120,19,25)" stroke-width="1" opacity="1" d="M 12.5 20 L 12 21.5 L 11.5 23 L 11 21.5 L 12.5 20 Z " /><path fill="rgb(120,19,25)" stroke="rgb(120,19,25)" stroke-width="1" opacity="1" d="M 18.5 20 L 20 22.5 L 19.5 25 Q 16.6 25.4 18.5 20 Z " /><path fill="rgb(120,19,25)" stroke="rgb(120,19,25)" stroke-width="1" opacity="1" d="M 14.5 22 L 15 24.5 L 14 24.5 L 14.5 22 Z " /><path fill="rgb(120,19,25)" stroke="rgb(120,19,25)" stroke-width="1" opacity="1" d="M 14.5 26 L 14 27.5 Q 14.8 29.8 12.5 29 L 14.5 26 Z " /><path fill="rgb(120,19,25)" stroke="rgb(120,19,25)" stroke-width="1" opacity="1" d="M 20.5 26 L 22 29.5 L 21 29.5 L 20.5 26 Z " /><path fill="rgb(120,19,25)" stroke="rgb(120,19,25)" stroke-width="1" opacity="1" d="M 20.5 31 L 21 33.5 L 20 33.5 L 20.5 31 Z " /><path fill="rgb(120,19,25)" stroke="rgb(120,19,25)" stroke-width="1" opacity="1" d="M 9.5 33 L 10.5 35 L 9.5 33 Z " /><path fill="rgb(120,19,25)" stroke="rgb(120,19,25)" stroke-width="1" opacity="1" d="M 7.5 37 Q 9.8 36.3 9 38.5 L 7 39.5 L 7.5 37 Z " /><path fill="rgb(120,19,25)" stroke="rgb(120,19,25)" stroke-width="1" opacity="1" d="M 10.5 39 L 11.5 41 L 10.5 39 Z " /><path fill="rgb(120,19,25)" stroke="rgb(120,19,25)" stroke-width="1" opacity="1" d="M 21.5 39 L 22 41 L 20 40.5 L 21.5 39 Z " /><path fill="rgb(78,21,25)" stroke="rgb(78,21,25)" stroke-width="1" opacity="1" d="M 6 8 L 8 8.5 L 6 9.5 L 6 8 Z " /><path fill="rgb(78,21,25)" stroke="rgb(78,21,25)" stroke-width="1" opacity="1" d="M 10.5 8 L 12 8.5 L 9.5 10 L 10.5 8 Z " /><path fill="rgb(78,21,25)" stroke="rgb(78,21,25)" stroke-width="1" opacity="1" d="M 13.5 17 L 14 19 L 12 18.5 L 13.5 17 Z " /><path fill="rgb(78,21,25)" stroke="rgb(78,21,25)" stroke-width="1" opacity="1" d="M 8.5 19 L 12 20.5 L 10.5 27 L 9 23.5 L 9.5 20 L 8.5 19 Z " /><path fill="rgb(78,21,25)" stroke="rgb(78,21,25)" stroke-width="1" opacity="1" d="M 13.5 20 L 14 23.5 L 13 23.5 L 13.5 20 Z " /><path fill="rgb(78,21,25)" stroke="rgb(78,21,25)" stroke-width="1" opacity="1" d="M 6 21 L 8 21.5 L 7.5 24 L 6 21 Z " /><path fill="rgb(78,21,25)" stroke="rgb(78,21,25)" stroke-width="1" opacity="1" d="M 7.5 25 L 7.5 27 L 9 27.5 L 7 28.5 L 6 26.5 L 7.5 25 Z " /><path fill="rgb(78,21,25)" stroke="rgb(78,21,25)" stroke-width="1" opacity="1" d="M 13.5 25 L 14 26.5 L 10.5 29 L 10.5 28 L 13 26.5 L 13.5 25 Z " /><path fill="rgb(78,21,25)" stroke="rgb(78,21,25)" stroke-width="1" opacity="1" d="M 18.5 27 Q 20.8 26.3 20 28.5 L 20.5 30 L 18.5 27 Z " /><path fill="rgb(78,21,25)" stroke="rgb(78,21,25)" stroke-width="1" opacity="1" d="M 21.5 33 L 22 35 L 20 34.5 L 21.5 33 Z " /><path fill="rgb(78,21,25)" stroke="rgb(78,21,25)" stroke-width="1" opacity="1" d="M 14.5 40 L 17 40.5 L 14.5 41 L 14.5 40 Z " /><path fill="rgb(199,190,189)" stroke="rgb(199,190,189)" stroke-width="1" opacity="1" d="M 7.5 1 L 9 1.5 L 6.5 3 L 7.5 1 Z " /><path fill="rgb(199,190,189)" stroke="rgb(199,190,189)" stroke-width="1" opacity="1" d="M 26.5 2 Q 29.5 2.5 29 6.5 L 28 6.5 L 27.5 4 L 26 4.5 L 26.5 2 Z " /><path fill="rgb(199,190,189)" stroke="rgb(199,190,189)" stroke-width="1" opacity="1" d="M 4.5 3 L 5 13.5 L 4 13.5 L 4.5 3 Z " /><path fill="rgb(199,190,189)" stroke="rgb(199,190,189)" stroke-width="1" opacity="1" d="M 26.5 6 L 27 8.5 L 26 8.5 L 26.5 6 Z " /><path fill="rgb(199,190,189)" stroke="rgb(199,190,189)" stroke-width="1" opacity="1" d="M 28.5 10 L 29 11.5 L 26 13.5 L 26.5 11 L 28.5 10 Z " /><path fill="rgb(199,190,189)" stroke="rgb(199,190,189)" stroke-width="1" opacity="1" d="M 13.5 14 L 16 14.5 L 13.5 15 L 13.5 14 Z " /><path fill="rgb(199,190,189)" stroke="rgb(199,190,189)" stroke-width="1" opacity="1" d="M 4.5 22 Q 7.3 23.3 5 24.5 L 6 29.5 L 5 32.5 L 5 34.5 L 6 37.5 Q 4.5 40.5 3 37.5 L 5 37.5 L 3.5 34 L 2.5 36 L 2 32.5 L 4.5 29 L 3 28.5 L 4.5 22 Z " /><path fill="rgb(199,190,189)" stroke="rgb(199,190,189)" stroke-width="1" opacity="1" d="M 1.5 42 L 2 44.5 L 1 44.5 L 1.5 42 Z " /><path fill="rgb(199,190,189)" stroke="rgb(199,190,189)" stroke-width="1" opacity="1" d="M 19.5 42 L 20 43.5 L 18 44.5 L 19.5 42 Z " /><path fill="rgb(199,190,189)" stroke="rgb(199,190,189)" stroke-width="1" opacity="1" d="M 11.5 43 L 12.5 45 L 10.5 45 L 9 44.5 L 11.5 43 Z " /><path fill="rgb(199,190,189)" stroke="rgb(199,190,189)" stroke-width="1" opacity="1" d="M 8.5 47 L 16 48.5 L 9.5 49 L 8.5 47 Z " /><path fill="rgb(199,190,189)" stroke="rgb(199,190,189)" stroke-width="1" opacity="1" d="M 20.5 48 L 26 48.5 L 20.5 49 L 20.5 48 Z " /><path fill="rgb(141,51,75)" stroke="rgb(141,51,75)" stroke-width="1" opacity="1" d="M 21.5 5 L 23 5.5 L 22 8 L 20 8.5 L 21 10.5 L 18.5 12 L 18.5 11 Q 20.8 11.8 20 9.5 L 20 7.5 L 21.5 5 Z " /><path fill="rgb(141,51,75)" stroke="rgb(141,51,75)" stroke-width="1" opacity="1" d="M 6.5 13 L 9 13.5 Q 6.9 16.8 6.5 13 Z " /><path fill="rgb(141,51,75)" stroke="rgb(141,51,75)" stroke-width="1" opacity="1" d="M 21.5 13 L 21.5 16 Q 18.5 14.5 21.5 13 Z " /><path fill="rgb(141,51,75)" stroke="rgb(141,51,75)" stroke-width="1" opacity="1" d="M 17.5 24 L 18 27 L 16 26.5 L 17.5 24 Z " /><path fill="rgb(141,51,75)" stroke="rgb(141,51,75)" stroke-width="1" opacity="1" d="M 22.5 27 L 23 29.5 L 22 29.5 L 22.5 27 Z " /><path fill="rgb(141,51,75)" stroke="rgb(141,51,75)" stroke-width="1" opacity="1" d="M 8.5 28 L 6.5 31 L 8.5 28 Z " /><path fill="rgb(141,51,75)" stroke="rgb(141,51,75)" stroke-width="1" opacity="1" d="M 6 32 L 8 32.5 L 7 34.5 L 7.5 36 L 6 32 Z " /><path fill="rgb(141,51,75)" stroke="rgb(141,51,75)" stroke-width="1" opacity="1" d="M 21.5 32 L 23 36 L 21 35.5 L 22 33.5 L 21.5 32 Z " /><path fill="rgb(207,33,42)" stroke="rgb(207,33,42)" stroke-width="1" opacity="1" d="M 21.5 20 L 22 23.5 L 21 23.5 L 21.5 20 Z " /><path fill="rgb(207,33,42)" stroke="rgb(207,33,42)" stroke-width="1" opacity="1" d="M 12.5 30 L 19 31.5 L 16.5 32 L 15 31.5 L 13.5 34 L 12.5 30 Z " /><path fill="rgb(207,33,42)" stroke="rgb(207,33,42)" stroke-width="1" opacity="1" d="M 16.5 33 L 19 39.5 L 17.5 40 L 15 38.5 L 16.5 33 Z " /><path fill="rgb(207,33,42)" stroke="rgb(207,33,42)" stroke-width="1" opacity="1" d="M 11.5 34 L 13 39.5 L 11 38.5 L 11 36.5 L 11.5 34 Z " /><path fill="rgb(207,33,42)" stroke="rgb(207,33,42)" stroke-width="1" opacity="1" d="M 19.5 37 L 22 38.5 L 20.5 38 L 19.5 37 Z " /><path fill="rgb(162,121,81)" stroke="rgb(162,121,81)" stroke-width="1" opacity="1" d="M 2.5 3 L 3 5.5 L 2 5.5 L 2.5 3 Z " /><path fill="rgb(162,121,81)" stroke="rgb(162,121,81)" stroke-width="1" opacity="1" d="M 13.5 13 L 16 13.5 L 13 14.5 L 17 17.5 L 14 17.5 L 12 14.5 L 13.5 13 Z " /><path fill="rgb(162,121,81)" stroke="rgb(162,121,81)" stroke-width="1" opacity="1" d="M 4.5 18 Q 7.8 16.9 7 19.5 L 5 20.5 L 5.5 19 L 4.5 18 Z " /><path fill="rgb(162,121,81)" stroke="rgb(162,121,81)" stroke-width="1" opacity="1" d="M 11.5 18 L 12.5 20 L 11.5 18 Z " /><path fill="rgb(162,121,81)" stroke="rgb(162,121,81)" stroke-width="1" opacity="1" d="M 19 18 L 21 18.5 L 19 19.5 L 19 18 Z " /><path fill="rgb(162,121,81)" stroke="rgb(162,121,81)" stroke-width="1" opacity="1" d="M 23.5 20 L 24 22 L 22 21.5 L 23.5 20 Z " /><path fill="rgb(249,247,247)" stroke="rgb(249,247,247)" stroke-width="1" opacity="1" d="M 0 0 L 30 0 L 30 50 L 0 50 L 0 0 Z M 2 1 L 2 36 L 1 37 L 1 49 L 28 49 L 28 48 Q 20 50 21 46 L 19 47 L 11 46 L 9 46 L 5 48 L 4 46 L 7 45 L 28 45 L 29 44 L 27 35 L 28 31 Q 29 23 25 22 L 26 4 L 26 14 L 26 18 Q 24 22 28 21 L 29 22 L 28 19 L 29 16 L 29 1 L 2 1 Z " /><path fill="rgb(249,247,247)" stroke="rgb(249,247,247)" stroke-width="1" opacity="1" d="M 7 2 L 12.5 2 L 13 4 L 15.5 4 Q 16.8 0.7 22.5 2 L 20.5 5 L 11.5 6 L 7 4 L 7 2 Z " /><path fill="rgb(249,247,247)" stroke="rgb(249,247,247)" stroke-width="1" opacity="1" d="M 24 31 Q 27.3 29.9 26 34 Q 22.7 35.1 24 31 Z " /><path fill="rgb(249,247,247)" stroke="rgb(249,247,247)" stroke-width="1" opacity="1" d="M 25.5 36 Q 27.8 35.3 27 37.5 L 26.5 40 Q 24.3 40.8 25 38.5 Q 22.7 37.3 25.5 36 Z " /><path fill="rgb(249,247,247)" stroke="rgb(249,247,247)" stroke-width="1" opacity="1" d="M 16.5 41 L 27 41.5 L 16.5 42 L 16.5 41 Z " /><path fill="rgb(167,154,155)" stroke="rgb(167,154,155)" stroke-width="1" opacity="1" d="M 3.5 1 L 4 4.5 L 3 4.5 L 2 2.5 L 3.5 1 Z " /><path fill="rgb(167,154,155)" stroke="rgb(167,154,155)" stroke-width="1" opacity="1" d="M 9.5 1 Q 13.3 0.3 14 2.5 L 13.5 4 L 13 2 Q 8.6 3 9.5 1 Z " /><path fill="rgb(167,154,155)" stroke="rgb(167,154,155)" stroke-width="1" opacity="1" d="M 19.5 1 L 24.5 2 L 26.5 1 L 29 2 L 28 6.5 L 28 8.5 L 27.5 11 L 26 5.5 Q 29.8 3.7 26.5 2 L 23.5 3 L 19.5 2 L 19.5 1 Z " /><path fill="rgb(167,154,155)" stroke="rgb(167,154,155)" stroke-width="1" opacity="1" d="M 2.5 13 L 3 15.5 L 2 15.5 L 2.5 13 Z " /><path fill="rgb(167,154,155)" stroke="rgb(167,154,155)" stroke-width="1" opacity="1" d="M 5.5 14 L 7 16.5 L 5 17 L 5.5 14 Z " /><path fill="rgb(167,154,155)" stroke="rgb(167,154,155)" stroke-width="1" opacity="1" d="M 23.5 26 L 24 32.5 L 23 32.5 L 23.5 26 Z " /><path fill="rgb(167,154,155)" stroke="rgb(167,154,155)" stroke-width="1" opacity="1" d="M 8.5 33 L 9 36.5 L 8 36.5 L 8.5 33 Z " /><path fill="rgb(167,154,155)" stroke="rgb(167,154,155)" stroke-width="1" opacity="1" d="M 8.5 41 L 9 43 L 11 43.5 L 9.5 44 Q 8.3 41.7 3.5 43 L 2 43.5 Q 1.4 40.8 7.5 42 L 8.5 41 Z " /><path fill="rgb(167,154,155)" stroke="rgb(167,154,155)" stroke-width="1" opacity="1" d="M 16.5 42 L 19 42.5 L 16.5 43 L 16.5 42 Z " /><path fill="rgb(167,154,155)" stroke="rgb(167,154,155)" stroke-width="1" opacity="1" d="M 24 43 L 26 43.5 L 24 44.5 L 24 43 Z " /><path fill="rgb(167,154,155)" stroke="rgb(167,154,155)" stroke-width="1" opacity="1" d="M 1.5 45 L 2 47.5 L 1 47.5 L 1.5 45 Z " /><path fill="rgb(167,154,155)" stroke="rgb(167,154,155)" stroke-width="1" opacity="1" d="M 7.5 46 L 6.5 48 L 7.5 46 Z " /><path fill="rgb(167,154,155)" stroke="rgb(167,154,155)" stroke-width="1" opacity="1" d="M 16.5 46 L 17.5 48 L 21 47.5 Q 20.3 49.8 16.5 49 L 13 47.5 L 16.5 46 Z " /><path fill="rgb(171,24,32)" stroke="rgb(171,24,32)" stroke-width="1" opacity="1" d="M 15.5 26 L 18 28.5 L 17.5 31 L 16 31.5 L 16 33.5 Q 16.7 36.1 14 35 Q 12.9 32.3 15.5 33 L 16 30.5 L 17 28.5 L 15.5 28 L 13 29.5 L 15.5 26 Z " /><path fill="rgb(171,24,32)" stroke="rgb(171,24,32)" stroke-width="1" opacity="1" d="M 12.5 32 L 13 36 Q 16.8 34.5 16 37.5 Q 12.5 44.5 9 37.5 Q 8.3 35.3 10.5 36 L 12.5 40 L 13 38 L 15 37.5 L 12 35.5 Q 12.8 33.3 10.5 34 L 10.5 33 L 12.5 32 Z " /><path fill="rgb(171,24,32)" stroke="rgb(171,24,32)" stroke-width="1" opacity="1" d="M 18 34 Q 20.7 32.9 20 35.5 L 19 38 L 22.5 36 L 21 38.5 L 19.5 41 Q 17.1 38.7 18 34 Z " /><path fill="rgb(171,24,32)" stroke="rgb(171,24,32)" stroke-width="1" opacity="1" d="M 7.5 38 L 6.5 40 L 7.5 38 Z " /><path fill="rgb(144,22,28)" stroke="rgb(144,22,28)" stroke-width="1" opacity="1" d="M 15.5 20 L 16 22.5 L 14 21.5 L 15.5 20 Z " /><path fill="rgb(144,22,28)" stroke="rgb(144,22,28)" stroke-width="1" opacity="1" d="M 12.5 22 L 11.5 24 L 12.5 22 Z " /><path fill="rgb(144,22,28)" stroke="rgb(144,22,28)" stroke-width="1" opacity="1" d="M 20.5 22 L 21 24.5 L 20 24.5 L 20.5 22 Z " /><path fill="rgb(144,22,28)" stroke="rgb(144,22,28)" stroke-width="1" opacity="1" d="M 11 29 L 13 29.5 L 12 33 L 9 32.5 L 11 32 L 11 29 Z " /><path fill="rgb(144,22,28)" stroke="rgb(144,22,28)" stroke-width="1" opacity="1" d="M 17.5 32 L 18.5 34 Q 15.7 34.7 17.5 32 Z " /><path fill="rgb(144,22,28)" stroke="rgb(144,22,28)" stroke-width="1" opacity="1" d="M 13.5 34 L 16 35.5 L 14.5 36 L 13.5 34 Z " /><path fill="rgb(144,22,28)" stroke="rgb(144,22,28)" stroke-width="1" opacity="1" d="M 19.5 36 L 22 36.5 L 19.5 37 L 19.5 36 Z " /><path fill="rgb(144,22,28)" stroke="rgb(144,22,28)" stroke-width="1" opacity="1" d="M 10.5 37 L 10 38.5 L 9.5 40 L 9 38.5 L 10.5 37 Z " /><path fill="rgb(121,115,113)" stroke="rgb(121,115,113)" stroke-width="1" opacity="1" d="M 5.5 1 L 7 3.5 L 6 4.5 L 5.5 14 L 5.5 1 Z " /><path fill="rgb(121,115,113)" stroke="rgb(121,115,113)" stroke-width="1" opacity="1" d="M 13.5 1 L 17 1.5 L 13.5 2 L 13.5 1 Z " /><path fill="rgb(121,115,113)" stroke="rgb(121,115,113)" stroke-width="1" opacity="1" d="M 3.5 5 L 2.5 7 L 3.5 5 Z " /><path fill="rgb(121,115,113)" stroke="rgb(121,115,113)" stroke-width="1" opacity="1" d="M 23.5 10 L 24 14.5 L 23 14.5 L 23.5 10 Z " /><path fill="rgb(121,115,113)" stroke="rgb(121,115,113)" stroke-width="1" opacity="1" d="M 2 16 L 5 17.5 L 3 18 L 3 28.5 L 4 29.5 L 2 30 L 2 16 Z " /><path fill="rgb(121,115,113)" stroke="rgb(121,115,113)" stroke-width="1" opacity="1" d="M 24.5 24 Q 27.5 25.5 24.5 27 L 24.5 24 Z " /><path fill="rgb(121,115,113)" stroke="rgb(121,115,113)" stroke-width="1" opacity="1" d="M 26.5 27 L 27 29.5 L 25 30.5 L 26.5 27 Z " /><path fill="rgb(121,115,113)" stroke="rgb(121,115,113)" stroke-width="1" opacity="1" d="M 5.5 30 L 6 32.5 L 5 32.5 L 5.5 30 Z " /><path fill="rgb(121,115,113)" stroke="rgb(121,115,113)" stroke-width="1" opacity="1" d="M 24.5 35 L 27 35.5 L 24.5 36 L 24.5 35 Z " /><path fill="rgb(121,115,113)" stroke="rgb(121,115,113)" stroke-width="1" opacity="1" d="M 2.5 38 L 3.5 40 L 2.5 38 Z " /><path fill="rgb(121,115,113)" stroke="rgb(121,115,113)" stroke-width="1" opacity="1" d="M 9.5 42 Q 16.5 40.5 16 43.5 L 14 43.5 L 13.5 45 L 13 43 Q 8.6 44 9.5 42 Z " /><path fill="rgb(121,115,113)" stroke="rgb(121,115,113)" stroke-width="1" opacity="1" d="M 3.5 43 L 4.5 45 L 3.5 43 Z " /><path fill="rgb(121,115,113)" stroke="rgb(121,115,113)" stroke-width="1" opacity="1" d="M 22.5 43 L 23.5 45 Q 20.7 45.7 22.5 43 Z " /><path fill="rgb(121,115,113)" stroke="rgb(121,115,113)" stroke-width="1" opacity="1" d="M 13.5 46 L 16 46.5 L 13.5 47 L 13.5 46 Z " /></svg>