<svg width="30" height="50" version="1.1" xmlns="http://www.w3.org/2000/svg" desc="Created with imagetracer.js version 1.2.6" ><path fill="rgb(233,225,223)" stroke="rgb(233,225,223)" stroke-width="1" opacity="1" d="M 7.5 2 L 12 2.5 L 7.5 3 L 7.5 2 Z " /><path fill="rgb(233,225,223)" stroke="rgb(233,225,223)" stroke-width="1" opacity="1" d="M 20.5 7 L 22.5 10 L 19 8.5 L 20.5 7 Z " /><path fill="rgb(233,225,223)" stroke="rgb(233,225,223)" stroke-width="1" opacity="1" d="M 24.5 9 L 25 10.5 L 24.5 13 L 22.5 12 L 21.5 14 L 21 12 L 19 11.5 L 20.5 11 L 22.5 11 Q 25 11.7 24.5 9 Z " /><path fill="rgb(233,225,223)" stroke="rgb(233,225,223)" stroke-width="1" opacity="1" d="M 5.5 11 L 6.5 13 L 5.5 11 Z " /><path fill="rgb(233,225,223)" stroke="rgb(233,225,223)" stroke-width="1" opacity="1" d="M 23.5 14 L 24 16 L 27 16.5 L 23 18.5 L 21.5 21 Q 20.3 18.8 19 21.5 L 22.5 27 L 25.5 26 L 27 27.5 L 28 30.5 L 26.5 33 L 23 31.5 L 26 30.5 L 25 28 L 23 28.5 L 23.5 30 L 19 29 L 18 26.5 L 20 26.5 L 18 21.5 L 22 16.5 L 21.5 15 L 23.5 14 Z " /><path fill="rgb(233,225,223)" stroke="rgb(233,225,223)" stroke-width="1" opacity="1" d="M 6.5 20 Q 10.4 22.1 10 28.5 L 8 28.5 L 7.5 30 L 5 25.5 L 5.5 23 L 8 24 Q 9 21 6 22 L 6.5 20 Z M 7 25 L 8 26 L 9 27 Q 10 24 7 25 Z " /><path fill="rgb(233,225,223)" stroke="rgb(233,225,223)" stroke-width="1" opacity="1" d="M 22.5 22 Q 24.8 21.3 24 23.5 L 24.5 25 Q 22.3 25.8 23 23.5 L 22.5 22 Z " /><path fill="rgb(233,225,223)" stroke="rgb(233,225,223)" stroke-width="1" opacity="1" d="M 21.5 33 L 23 33.5 L 19.5 35 L 19.5 34 L 21.5 33 Z " /><path fill="rgb(233,225,223)" stroke="rgb(233,225,223)" stroke-width="1" opacity="1" d="M 21.5 37 L 22.5 39 L 19 41.5 L 21 42.5 L 18 44 L 17 41.5 L 21 38.5 L 21.5 37 Z " /><path fill="rgb(233,225,223)" stroke="rgb(233,225,223)" stroke-width="1" opacity="1" d="M 25 37 Q 28 36 27 39 Q 24 40 25 37 Z " /><path fill="rgb(233,225,223)" stroke="rgb(233,225,223)" stroke-width="1" opacity="1" d="M 8.5 39 L 11 40.5 L 10.5 42 L 8.5 39 Z " /><path fill="rgb(233,225,223)" stroke="rgb(233,225,223)" stroke-width="1" opacity="1" d="M 24.5 40 L 27 41.5 L 24.5 43 L 24.5 40 Z " /><path fill="rgb(233,225,223)" stroke="rgb(233,225,223)" stroke-width="1" opacity="1" d="M 5.5 41 L 9 42.5 L 8.5 44 L 10.5 43 L 9.5 45 L 7 43.5 Q 7.8 41.3 5.5 42 L 5.5 41 Z " /><path fill="rgb(156,150,135)" stroke="rgb(156,150,135)" stroke-width="1" opacity="1" d="M 13.5 1 L 14 3.5 L 13 3.5 L 13.5 1 Z " /><path fill="rgb(156,150,135)" stroke="rgb(156,150,135)" stroke-width="1" opacity="1" d="M 12.5 6 L 13 7.5 L 11 8.5 L 12.5 6 Z " /><path fill="rgb(156,150,135)" stroke="rgb(156,150,135)" stroke-width="1" opacity="1" d="M 17.5 7 L 18 16.5 L 19 17.5 L 17 18 L 17.5 7 Z " /><path fill="rgb(156,150,135)" stroke="rgb(156,150,135)" stroke-width="1" opacity="1" d="M 12.5 10 L 13 12.5 L 12 12.5 L 12.5 10 Z " /><path fill="rgb(156,150,135)" stroke="rgb(156,150,135)" stroke-width="1" opacity="1" d="M 13.5 23 L 15 23.5 L 12 25.5 L 13 28.5 L 10 28.5 L 11 25.5 L 10.5 24 Q 12 26.5 13.5 23 Z " /><path fill="rgb(156,150,135)" stroke="rgb(156,150,135)" stroke-width="1" opacity="1" d="M 15.5 46 Q 17.8 45.3 17 47.5 L 15.5 46 Z " /><path fill="rgb(215,213,212)" stroke="rgb(215,213,212)" stroke-width="1" opacity="1" d="M 4 1 L 7 1.5 L 4.5 3 L 4 1 Z " /><path fill="rgb(215,213,212)" stroke="rgb(215,213,212)" stroke-width="1" opacity="1" d="M 27.5 42 L 28 43.5 L 25.5 45 L 24.5 43 L 27 44 L 27.5 42 Z " /><path fill="rgb(215,213,212)" stroke="rgb(215,213,212)" stroke-width="1" opacity="1" d="M 17 46 Q 19.7 44.9 19 47.5 L 19.5 49 L 17.5 48 L 14.5 49 L 14.5 48 Q 18.3 49 17 46 Z " /><path fill="rgb(215,213,212)" stroke="rgb(215,213,212)" stroke-width="1" opacity="1" d="M 4.5 48 L 7 48.5 L 4.5 49 L 4.5 48 Z " /><path fill="rgb(231,223,220)" stroke="rgb(231,223,220)" stroke-width="1" opacity="1" d="M 18.5 9 L 23.5 10 L 26 12.5 L 25.5 14 L 23.5 11 L 19 11.5 L 21 12 L 20.5 14 L 18 11.5 L 18.5 9 Z " /><path fill="rgb(231,223,220)" stroke="rgb(231,223,220)" stroke-width="1" opacity="1" d="M 24.5 15 L 26 15.5 L 23.5 17 L 24.5 15 Z " /><path fill="rgb(231,223,220)" stroke="rgb(231,223,220)" stroke-width="1" opacity="1" d="M 26 17 L 28 17.5 L 26 20.5 L 26.5 22 Q 23.9 22.8 25 19.5 L 26 17 Z " /><path fill="rgb(231,223,220)" stroke="rgb(231,223,220)" stroke-width="1" opacity="1" d="M 21.5 19 L 22.5 21 L 21.5 19 Z " /><path fill="rgb(231,223,220)" stroke="rgb(231,223,220)" stroke-width="1" opacity="1" d="M 25 23 L 28 23.5 L 26 24.5 L 27 26.5 L 26 26.5 L 25 23 Z " /><path fill="rgb(231,223,220)" stroke="rgb(231,223,220)" stroke-width="1" opacity="1" d="M 5.5 26 L 6.5 28 L 5.5 26 Z " /><path fill="rgb(231,223,220)" stroke="rgb(231,223,220)" stroke-width="1" opacity="1" d="M 25.5 39 L 26.5 41 L 25.5 39 Z " /><path fill="rgb(231,224,225)" stroke="rgb(231,224,225)" stroke-width="1" opacity="1" d="M 4 12 Q 7 11 6 14 Q 3 15 4 12 Z " /><path fill="rgb(231,224,225)" stroke="rgb(231,224,225)" stroke-width="1" opacity="1" d="M 4.5 16 L 6 18.5 L 5 21 L 3 20.5 Q 6.5 19 4 17.5 L 4.5 16 Z " /><path fill="rgb(231,224,225)" stroke="rgb(231,224,225)" stroke-width="1" opacity="1" d="M 3 25 L 5 25.5 L 4 28 L 6 28.5 L 4 31.5 Q 6.3 32.8 3.5 34 L 2 33.5 L 4 32.5 L 2 29.5 L 4 29.5 Q 4.8 27.3 2.5 28 L 3 26.5 L 3 25 Z " /><path fill="rgb(231,224,225)" stroke="rgb(231,224,225)" stroke-width="1" opacity="1" d="M 9.5 34 L 8.5 36 L 9.5 34 Z " /><path fill="rgb(231,224,225)" stroke="rgb(231,224,225)" stroke-width="1" opacity="1" d="M 3.5 35 L 4 37 L 6 37.5 Q 2.9 39.3 4.5 41 Q 2.3 41.8 3 39.5 L 3.5 38 L 2 37.5 L 3.5 35 Z " /><path fill="rgb(231,224,225)" stroke="rgb(231,224,225)" stroke-width="1" opacity="1" d="M 4 42 Q 7 41 6 44 Q 3 45 4 42 Z " /><path fill="rgb(136,115,87)" stroke="rgb(136,115,87)" stroke-width="1" opacity="1" d="M 5.5 6 L 4.5 8 L 5.5 6 Z " /><path fill="rgb(136,115,87)" stroke="rgb(136,115,87)" stroke-width="1" opacity="1" d="M 18.5 36 L 19 38.5 L 14.5 41 L 14.5 40 L 18 39 L 18.5 36 Z " /><path fill="rgb(136,115,87)" stroke="rgb(136,115,87)" stroke-width="1" opacity="1" d="M 8.5 45 L 7.5 47 L 8.5 45 Z " /><path fill="rgb(136,115,87)" stroke="rgb(136,115,87)" stroke-width="1" opacity="1" d="M 13.5 45 L 14.5 47 Q 11.7 47.7 13.5 45 Z " /><path fill="rgb(229,221,220)" stroke="rgb(229,221,220)" stroke-width="1" opacity="1" d="M 23.5 7 L 24.5 9 L 22 8.5 L 23.5 7 Z " /><path fill="rgb(229,221,220)" stroke="rgb(229,221,220)" stroke-width="1" opacity="1" d="M 26 14 Q 29 12.8 28 16.5 L 26 15.5 L 26 14 Z " /><path fill="rgb(229,221,220)" stroke="rgb(229,221,220)" stroke-width="1" opacity="1" d="M 6.5 17 L 12 17.5 L 6.5 18 L 6.5 17 Z " /><path fill="rgb(229,221,220)" stroke="rgb(229,221,220)" stroke-width="1" opacity="1" d="M 27.5 18 L 28 23 L 26 22.5 L 27 19.5 L 27.5 18 Z " /><path fill="rgb(229,221,220)" stroke="rgb(229,221,220)" stroke-width="1" opacity="1" d="M 18.5 24 L 19.5 26 Q 16.7 26.7 18.5 24 Z " /><path fill="rgb(229,221,220)" stroke="rgb(229,221,220)" stroke-width="1" opacity="1" d="M 27.5 24 L 28 29.5 L 27 29.5 L 27.5 24 Z " /><path fill="rgb(229,221,220)" stroke="rgb(229,221,220)" stroke-width="1" opacity="1" d="M 27.5 34 L 28 41.5 L 27 41.5 L 26 39.5 L 27.5 34 Z " /><path fill="rgb(229,221,220)" stroke="rgb(229,221,220)" stroke-width="1" opacity="1" d="M 7.5 48 L 10 48.5 L 7.5 49 L 7.5 48 Z " /><path fill="rgb(234,226,224)" stroke="rgb(234,226,224)" stroke-width="1" opacity="1" d="M 6.5 7 L 11 8 L 10.5 11 L 8.5 9 L 6 10.5 L 6.5 7 Z " /><path fill="rgb(234,226,224)" stroke="rgb(234,226,224)" stroke-width="1" opacity="1" d="M 7.5 12 L 11 13 L 12 15.5 L 10.5 16 L 8.5 16 L 5 14.5 L 7.5 12 Z " /><path fill="rgb(234,226,224)" stroke="rgb(234,226,224)" stroke-width="1" opacity="1" d="M 22 13 Q 25.8 11.5 25 14.5 L 22 14.5 L 22 13 Z " /><path fill="rgb(234,226,224)" stroke="rgb(234,226,224)" stroke-width="1" opacity="1" d="M 24.5 17 Q 26.8 16.3 26 18.5 L 24.5 24 L 24 22 Q 20.3 20.5 21 23.5 L 19 22.5 L 20.5 20 L 24 21 L 25 18.5 L 24.5 17 Z " /><path fill="rgb(234,226,224)" stroke="rgb(234,226,224)" stroke-width="1" opacity="1" d="M 5.5 22 Q 8.8 20.9 8 23.5 L 6.5 23 L 5.5 22 Z " /><path fill="rgb(234,226,224)" stroke="rgb(234,226,224)" stroke-width="1" opacity="1" d="M 6.5 25 Q 9.8 23.9 9 26.5 L 7.5 26 L 6.5 25 Z " /><path fill="rgb(234,226,224)" stroke="rgb(234,226,224)" stroke-width="1" opacity="1" d="M 22.5 25 L 26 25.5 Q 24.8 28.3 23.5 26 L 22.5 25 Z " /><path fill="rgb(234,226,224)" stroke="rgb(234,226,224)" stroke-width="1" opacity="1" d="M 19.5 26 L 18.5 28 L 19.5 26 Z " /><path fill="rgb(234,226,224)" stroke="rgb(234,226,224)" stroke-width="1" opacity="1" d="M 23.5 28 Q 25.8 27.3 25 29.5 L 23 30.5 L 23.5 28 Z " /><path fill="rgb(234,226,224)" stroke="rgb(234,226,224)" stroke-width="1" opacity="1" d="M 23.5 32 L 24.5 34 L 26 33.5 L 21 36 L 20.5 38 L 20 35 L 23 33.5 L 23.5 32 Z " /><path fill="rgb(234,226,224)" stroke="rgb(234,226,224)" stroke-width="1" opacity="1" d="M 5.5 34 L 9 36.5 L 8 39.5 L 8.5 41 Q 5.9 41.8 7 38.5 L 7.5 37 Q 5.3 37.8 6 35.5 L 5.5 34 Z " /><path fill="rgb(234,226,224)" stroke="rgb(234,226,224)" stroke-width="1" opacity="1" d="M 26.5 35 L 24 38.5 L 24 42.5 Q 24.9 45.5 20.5 44 L 21.5 41 L 20 40.5 L 23 38.5 L 22.5 37 L 23.5 38 L 26.5 35 Z " /><path fill="rgb(234,226,224)" stroke="rgb(234,226,224)" stroke-width="1" opacity="1" d="M 9.5 42 L 10 44 L 8 43.5 L 9.5 42 Z " /><path fill="rgb(173,180,173)" stroke="rgb(173,180,173)" stroke-width="1" opacity="1" d="M 17.5 2 L 18.5 4 L 17.5 2 Z " /><path fill="rgb(173,180,173)" stroke="rgb(173,180,173)" stroke-width="1" opacity="1" d="M 12.5 13 L 13 15.5 L 12 15.5 L 12.5 13 Z " /><path fill="rgb(173,180,173)" stroke="rgb(173,180,173)" stroke-width="1" opacity="1" d="M 17.5 22 L 15.5 25 L 15 23 L 17.5 22 Z " /><path fill="rgb(173,180,173)" stroke="rgb(173,180,173)" stroke-width="1" opacity="1" d="M 13.5 24 L 15 29.5 L 13 28.5 L 14 26.5 L 13.5 24 Z " /><path fill="rgb(173,180,173)" stroke="rgb(173,180,173)" stroke-width="1" opacity="1" d="M 17.5 25 L 18 26.5 L 16 27.5 L 17.5 25 Z " /><path fill="rgb(173,180,173)" stroke="rgb(173,180,173)" stroke-width="1" opacity="1" d="M 21.5 29 L 23 31.5 L 21 32.5 L 21 30.5 L 21.5 29 Z " /><path fill="rgb(173,180,173)" stroke="rgb(173,180,173)" stroke-width="1" opacity="1" d="M 6.5 30 L 7.5 32 L 5 31.5 L 6.5 30 Z " /><path fill="rgb(173,180,173)" stroke="rgb(173,180,173)" stroke-width="1" opacity="1" d="M 10.5 32 L 13 32.5 L 10.5 33 L 10.5 32 Z " /><path fill="rgb(173,180,173)" stroke="rgb(173,180,173)" stroke-width="1" opacity="1" d="M 19.5 33 L 18.5 35 L 19.5 33 Z " /><path fill="rgb(173,180,173)" stroke="rgb(173,180,173)" stroke-width="1" opacity="1" d="M 10.5 39 L 12.5 42 L 10.5 39 Z " /><path fill="rgb(84,99,105)" stroke="rgb(84,99,105)" stroke-width="1" opacity="1" d="M 14 1 L 17 1.5 L 15 2 L 14.5 4 L 14 1 Z " /><path fill="rgb(84,99,105)" stroke="rgb(84,99,105)" stroke-width="1" opacity="1" d="M 13.5 21 L 16 21.5 Q 16.8 24.1 13.5 23 L 10.5 24 L 10.5 23 Q 14 24 13.5 21 Z " /><path fill="rgb(84,99,105)" stroke="rgb(84,99,105)" stroke-width="1" opacity="1" d="M 16.5 24 L 17 27 L 14 25.5 L 16 25.5 L 16.5 24 Z " /><path fill="rgb(84,99,105)" stroke="rgb(84,99,105)" stroke-width="1" opacity="1" d="M 12.5 25 L 13 27.5 L 12 27.5 L 12.5 25 Z " /><path fill="rgb(84,99,105)" stroke="rgb(84,99,105)" stroke-width="1" opacity="1" d="M 13.5 29 L 14.5 31 L 15.5 29 L 17.5 31 L 20 29.5 L 19 31.5 L 19.5 33 L 18 32.5 L 17.5 34 L 17 31 Q 14.3 29.9 15 32.5 L 13.5 32 Q 11.3 32.8 12 30.5 L 13.5 29 Z " /><path fill="rgb(84,99,105)" stroke="rgb(84,99,105)" stroke-width="1" opacity="1" d="M 5.5 45 L 8.5 46 L 10.5 45 L 10.5 46 Q 8.3 45.3 9 47.5 L 8 47.5 Q 8.8 44.9 5.5 46 L 5.5 45 Z " /><path fill="rgb(84,99,105)" stroke="rgb(84,99,105)" stroke-width="1" opacity="1" d="M 14.5 45 L 21.5 45 L 22 47.5 L 21 47.5 Q 21.5 44.5 14.5 46 L 14.5 45 Z " /><path fill="rgb(58,50,43)" stroke="rgb(58,50,43)" stroke-width="1" opacity="1" d="M 2.5 2 L 12 3.5 L 3.5 4 L 2.5 5 L 2.5 2 Z " /><path fill="rgb(58,50,43)" stroke="rgb(58,50,43)" stroke-width="1" opacity="1" d="M 4.5 5 L 6 5.5 Q 2.7 7 4 12 L 2 12 L 2 6 L 4.5 5 Z " /><path fill="rgb(58,50,43)" stroke="rgb(58,50,43)" stroke-width="1" opacity="1" d="M 11.5 5 L 17 5.5 L 16.5 8 Q 13.2 6.9 14 9.5 L 12 8.5 L 15 6.5 Q 10.6 6.9 11.5 5 Z " /><path fill="rgb(58,50,43)" stroke="rgb(58,50,43)" stroke-width="1" opacity="1" d="M 20.5 5 Q 22.8 4.3 22 6.5 L 20.5 5 Z " /><path fill="rgb(58,50,43)" stroke="rgb(58,50,43)" stroke-width="1" opacity="1" d="M 24.5 5 L 28 5.5 L 27 7.5 L 27.5 13 L 24.5 5 Z " /><path fill="rgb(58,50,43)" stroke="rgb(58,50,43)" stroke-width="1" opacity="1" d="M 11.5 19 L 15 20.5 L 13.5 20 Q 10.5 20.5 11.5 19 Z " /><path fill="rgb(58,50,43)" stroke="rgb(58,50,43)" stroke-width="1" opacity="1" d="M 12.5 21 L 13 23 L 10 22.5 L 12.5 21 Z " /><path fill="rgb(58,50,43)" stroke="rgb(58,50,43)" stroke-width="1" opacity="1" d="M 11.5 28 Q 14.3 29.3 12 30.5 L 11.5 32 L 9.5 32 L 8 31.5 L 11 29.5 L 11.5 28 Z " /><path fill="rgb(58,50,43)" stroke="rgb(58,50,43)" stroke-width="1" opacity="1" d="M 16 28 L 19.5 30 L 21 29.5 Q 21.8 31.8 19.5 31 L 16 29.5 L 16 28 Z " /><path fill="rgb(58,50,43)" stroke="rgb(58,50,43)" stroke-width="1" opacity="1" d="M 8.5 33 L 11 33.5 L 8.5 34 L 8.5 33 Z " /><path fill="rgb(58,50,43)" stroke="rgb(58,50,43)" stroke-width="1" opacity="1" d="M 22.5 45 L 26 45.5 L 22.5 46 L 22.5 45 Z " /><path fill="rgb(58,50,43)" stroke="rgb(58,50,43)" stroke-width="1" opacity="1" d="M 13.5 47 L 16 47.5 L 13.5 48 L 13.5 47 Z " /><path fill="rgb(252,252,251)" stroke="rgb(252,252,251)" stroke-width="1" opacity="1" d="M 0 0 L 30 0 L 30 50 L 0 50 L 0 0 Z M 2 1 L 2 45 L 1 49 L 28 49 L 28 7 L 29 4 L 29 1 L 2 1 Z " /><path fill="rgb(234,226,227)" stroke="rgb(234,226,227)" stroke-width="1" opacity="1" d="M 7.5 7 L 11 7.5 L 7.5 8 L 7.5 7 Z " /><path fill="rgb(234,226,227)" stroke="rgb(234,226,227)" stroke-width="1" opacity="1" d="M 8.5 9 L 11 13 L 6 11.5 L 8.5 9 Z " /><path fill="rgb(234,226,227)" stroke="rgb(234,226,227)" stroke-width="1" opacity="1" d="M 4.5 11 L 4 12.5 L 5 14.5 L 4 17.5 L 5.5 20 Q 4.3 17.8 3 20.5 L 6 21.5 Q 2.9 23.3 4.5 25 Q 2.3 24.3 3 26.5 L 2 26.5 L 2 18.5 L 3 17.5 L 2 15.5 L 4.5 11 Z " /><path fill="rgb(234,226,227)" stroke="rgb(234,226,227)" stroke-width="1" opacity="1" d="M 19 14 L 22 14.5 L 19.5 16 L 19 14 Z " /><path fill="rgb(234,226,227)" stroke="rgb(234,226,227)" stroke-width="1" opacity="1" d="M 23 18 L 25 18.5 L 23.5 21 L 23 18 Z " /><path fill="rgb(234,226,227)" stroke="rgb(234,226,227)" stroke-width="1" opacity="1" d="M 21.5 22 L 22 25.5 L 21 25.5 L 21.5 22 Z " /><path fill="rgb(234,226,227)" stroke="rgb(234,226,227)" stroke-width="1" opacity="1" d="M 2.5 31 L 3.5 33 Q 0.7 33.7 2.5 31 Z " /><path fill="rgb(234,226,227)" stroke="rgb(234,226,227)" stroke-width="1" opacity="1" d="M 24 32 L 26 32.5 L 26 34.5 L 24 37.5 L 24.5 39 L 21 36.5 L 25 34.5 L 24 32 Z " /><path fill="rgb(234,226,227)" stroke="rgb(234,226,227)" stroke-width="1" opacity="1" d="M 3.5 34 L 5 34.5 L 3 35 L 2.5 37 L 2 35.5 L 3.5 34 Z " /><path fill="rgb(234,226,227)" stroke="rgb(234,226,227)" stroke-width="1" opacity="1" d="M 8.5 34 L 9.5 36 L 8.5 34 Z " /><path fill="rgb(234,226,227)" stroke="rgb(234,226,227)" stroke-width="1" opacity="1" d="M 6 37 L 8 37.5 L 7 41 L 4 42.5 Q 4.8 44.8 2.5 44 L 2 41.5 Q 0.5 37.1 3.5 38 L 3 39.5 Q 2.3 41.8 4.5 41 L 6 37 Z " /><path fill="rgb(234,226,227)" stroke="rgb(234,226,227)" stroke-width="1" opacity="1" d="M 19.5 41 L 22 41.5 L 19.5 42 L 19.5 41 Z " /><path fill="rgb(234,226,227)" stroke="rgb(234,226,227)" stroke-width="1" opacity="1" d="M 1.5 45 L 2 47.5 L 1 47.5 L 1.5 45 Z " /><path fill="rgb(185,81,30)" stroke="rgb(185,81,30)" stroke-width="1" opacity="1" d="M 3.5 4 L 28 4.5 L 3.5 5 L 3.5 4 Z " /><path fill="rgb(185,81,30)" stroke="rgb(185,81,30)" stroke-width="1" opacity="1" d="M 14 8 Q 17 6.8 16 10.5 L 17 15 L 15 15.5 L 17 16 Q 15.9 18.7 18.5 18 L 18.5 19 L 15.5 21 L 13 20.5 L 13.5 19 L 11 19.5 L 12 22 L 9 20.5 Q 7.8 15.9 13 18 L 13 10.5 L 14 8 Z " /><path fill="rgb(185,81,30)" stroke="rgb(185,81,30)" stroke-width="1" opacity="1" d="M 14.5 35 L 16.5 35 L 18 35 L 18 39 L 13 38 L 14.5 35 Z " /><path fill="rgb(185,81,30)" stroke="rgb(185,81,30)" stroke-width="1" opacity="1" d="M 13 41 Q 16.8 39.5 16 42.5 L 14 42.5 L 13.5 45 L 13 41 Z " /><path fill="rgb(224,197,115)" stroke="rgb(224,197,115)" stroke-width="1" opacity="1" d="M 15.5 33 L 16.5 35 L 14 35.5 L 14.5 37 L 13 36.5 L 14 39.5 L 12 38.5 Q 12.8 36.3 10.5 37 L 11.5 35 L 15.5 33 Z " /><path fill="rgb(230,223,224)" stroke="rgb(230,223,224)" stroke-width="1" opacity="1" d="M 24.5 1 L 23.5 3 L 24.5 1 Z " /><path fill="rgb(230,223,224)" stroke="rgb(230,223,224)" stroke-width="1" opacity="1" d="M 4.5 15 Q 7.1 14.2 6 17.5 L 5 17.5 L 4.5 15 Z " /><path fill="rgb(230,223,224)" stroke="rgb(230,223,224)" stroke-width="1" opacity="1" d="M 5.5 30 L 4.5 32 L 5.5 30 Z " /></svg>