<svg width="30" height="50" version="1.1" xmlns="http://www.w3.org/2000/svg" desc="Created with imagetracer.js version 1.2.6" ><path fill="rgb(137,106,39)" stroke="rgb(137,106,39)" stroke-width="1" opacity="1" d="M 22.5 25 L 23.5 27 L 22.5 25 Z " /><path fill="rgb(137,106,39)" stroke="rgb(137,106,39)" stroke-width="1" opacity="1" d="M 21.5 28 L 24 29.5 L 22.5 30 L 21.5 28 Z " /><path fill="rgb(137,106,39)" stroke="rgb(137,106,39)" stroke-width="1" opacity="1" d="M 22.5 31 L 24 31.5 L 21.5 33 L 22.5 31 Z " /><path fill="rgb(137,106,39)" stroke="rgb(137,106,39)" stroke-width="1" opacity="1" d="M 26.5 33 L 28 34.5 L 27.5 37 L 25 35.5 L 27 34.5 L 26.5 33 Z " /><path fill="rgb(137,106,39)" stroke="rgb(137,106,39)" stroke-width="1" opacity="1" d="M 13.5 36 L 17 37.5 L 14.5 38 L 13.5 36 Z " /><path fill="rgb(137,106,39)" stroke="rgb(137,106,39)" stroke-width="1" opacity="1" d="M 19.5 37 Q 21.8 36.3 21 38.5 L 19.5 37 Z " /><path fill="rgb(137,106,39)" stroke="rgb(137,106,39)" stroke-width="1" opacity="1" d="M 15.5 41 L 17.5 41 L 19 41.5 L 17 42.5 L 20 44.5 L 18.5 45 Q 16.3 40.7 14 42.5 L 15.5 41 Z " /><path fill="rgb(66,60,53)" stroke="rgb(66,60,53)" stroke-width="1" opacity="1" d="M 12.5 1 L 19 1.5 L 12.5 2 L 12.5 1 Z " /><path fill="rgb(66,60,53)" stroke="rgb(66,60,53)" stroke-width="1" opacity="1" d="M 3 7 L 5 7.5 L 2 9.5 L 3 7 Z " /><path fill="rgb(66,60,53)" stroke="rgb(66,60,53)" stroke-width="1" opacity="1" d="M 22.5 8 Q 25.5 9.5 22.5 11 L 22.5 8 Z " /><path fill="rgb(66,60,53)" stroke="rgb(66,60,53)" stroke-width="1" opacity="1" d="M 4.5 15 L 5.5 17 Q 2.7 17.7 4.5 15 Z " /><path fill="rgb(66,60,53)" stroke="rgb(66,60,53)" stroke-width="1" opacity="1" d="M 8.5 15 L 7.5 17 L 8.5 15 Z " /><path fill="rgb(66,60,53)" stroke="rgb(66,60,53)" stroke-width="1" opacity="1" d="M 20.5 15 Q 23.1 14.2 22 17.5 L 21 17.5 L 20.5 15 Z " /><path fill="rgb(66,60,53)" stroke="rgb(66,60,53)" stroke-width="1" opacity="1" d="M 8.5 20 L 9 22.5 Q 7.8 25.3 6.5 23 L 4 21.5 L 7 21.5 L 7.5 23 L 8.5 20 Z " /><path fill="rgb(66,60,53)" stroke="rgb(66,60,53)" stroke-width="1" opacity="1" d="M 21.5 23 L 22.5 25 L 21.5 23 Z " /><path fill="rgb(66,60,53)" stroke="rgb(66,60,53)" stroke-width="1" opacity="1" d="M 7.5 38 L 9.5 38 Q 11.8 37.3 11 39.5 L 8.5 40 L 7.5 38 Z " /><path fill="rgb(66,60,53)" stroke="rgb(66,60,53)" stroke-width="1" opacity="1" d="M 14.5 41 L 15.5 44 L 18 44.5 L 14 45 L 13 42.5 L 14.5 41 Z " /><path fill="rgb(66,60,53)" stroke="rgb(66,60,53)" stroke-width="1" opacity="1" d="M 6.5 42 L 9 43.5 L 7.5 44 L 6.5 42 Z " /><path fill="rgb(66,60,53)" stroke="rgb(66,60,53)" stroke-width="1" opacity="1" d="M 3.5 43 L 2.5 45 L 3.5 43 Z " /><path fill="rgb(169,165,165)" stroke="rgb(169,165,165)" stroke-width="1" opacity="1" d="M 17.5 4 L 21 5.5 L 18.5 6 L 16 5.5 L 17.5 4 Z " /><path fill="rgb(169,165,165)" stroke="rgb(169,165,165)" stroke-width="1" opacity="1" d="M 17.5 9 Q 20.5 10.5 17.5 12 L 17.5 9 Z " /><path fill="rgb(169,165,165)" stroke="rgb(169,165,165)" stroke-width="1" opacity="1" d="M 22.5 16 L 24 18.5 L 23 18.5 L 22.5 16 Z " /><path fill="rgb(169,165,165)" stroke="rgb(169,165,165)" stroke-width="1" opacity="1" d="M 14.5 20 L 15.5 22 L 14.5 20 Z " /><path fill="rgb(169,165,165)" stroke="rgb(169,165,165)" stroke-width="1" opacity="1" d="M 9.5 24 L 9.5 27 Q 6.5 25.5 9.5 24 Z " /><path fill="rgb(169,165,165)" stroke="rgb(169,165,165)" stroke-width="1" opacity="1" d="M 5.5 25 L 6.5 27 Q 3.7 27.7 5.5 25 Z " /><path fill="rgb(169,165,165)" stroke="rgb(169,165,165)" stroke-width="1" opacity="1" d="M 26.5 36 L 26 37.5 L 25 41 Q 27.7 39.9 27 42.5 L 24 40.5 L 26.5 36 Z " /><path fill="rgb(169,165,165)" stroke="rgb(169,165,165)" stroke-width="1" opacity="1" d="M 5.5 39 L 8 39.5 L 5.5 40 L 5.5 39 Z " /><path fill="rgb(169,165,165)" stroke="rgb(169,165,165)" stroke-width="1" opacity="1" d="M 11.5 40 L 14 43.5 L 12 44 L 11.5 40 Z " /><path fill="rgb(169,165,165)" stroke="rgb(169,165,165)" stroke-width="1" opacity="1" d="M 19.5 46 L 20 48 L 25 48.5 L 14.5 49 L 14.5 48 Q 19.9 49.7 19.5 46 Z " /><path fill="rgb(194,185,175)" stroke="rgb(194,185,175)" stroke-width="1" opacity="1" d="M 24.5 8 L 25 13.5 L 24 13.5 L 24.5 8 Z " /><path fill="rgb(194,185,175)" stroke="rgb(194,185,175)" stroke-width="1" opacity="1" d="M 22.5 20 L 23.5 22 L 22.5 20 Z " /><path fill="rgb(194,185,175)" stroke="rgb(194,185,175)" stroke-width="1" opacity="1" d="M 26.5 22 L 25.5 24 L 26.5 22 Z " /><path fill="rgb(194,185,175)" stroke="rgb(194,185,175)" stroke-width="1" opacity="1" d="M 11.5 31 L 14 31.5 L 11.5 32 L 11.5 31 Z " /><path fill="rgb(194,185,175)" stroke="rgb(194,185,175)" stroke-width="1" opacity="1" d="M 25.5 48 L 28 48.5 L 25.5 49 L 25.5 48 Z " /><path fill="rgb(85,83,85)" stroke="rgb(85,83,85)" stroke-width="1" opacity="1" d="M 19.5 1 L 24 1.5 L 19.5 2 L 19.5 1 Z " /><path fill="rgb(85,83,85)" stroke="rgb(85,83,85)" stroke-width="1" opacity="1" d="M 6.5 11 L 5.5 13 L 3.5 14 L 4.5 12 L 6.5 11 Z " /><path fill="rgb(85,83,85)" stroke="rgb(85,83,85)" stroke-width="1" opacity="1" d="M 6.5 16 L 7.5 18 L 6.5 16 Z " /><path fill="rgb(85,83,85)" stroke="rgb(85,83,85)" stroke-width="1" opacity="1" d="M 4.5 17 L 5 19.5 L 4 19.5 L 4.5 17 Z " /><path fill="rgb(85,83,85)" stroke="rgb(85,83,85)" stroke-width="1" opacity="1" d="M 6.5 20 L 5.5 22 L 6.5 20 Z " /><path fill="rgb(85,83,85)" stroke="rgb(85,83,85)" stroke-width="1" opacity="1" d="M 18 21 L 20 21.5 L 19 23.5 L 19.5 25 L 18 21 Z " /><path fill="rgb(85,83,85)" stroke="rgb(85,83,85)" stroke-width="1" opacity="1" d="M 8.5 27 L 7.5 29 L 8.5 27 Z " /><path fill="rgb(85,83,85)" stroke="rgb(85,83,85)" stroke-width="1" opacity="1" d="M 10.5 28 L 11 31 L 9 30.5 L 10.5 28 Z " /><path fill="rgb(85,83,85)" stroke="rgb(85,83,85)" stroke-width="1" opacity="1" d="M 10.5 32 L 11.5 34 L 10.5 32 Z " /><path fill="rgb(85,83,85)" stroke="rgb(85,83,85)" stroke-width="1" opacity="1" d="M 15.5 38 Q 17.8 37.3 17 39.5 Q 19.2 40.8 16.5 42 L 15.5 38 Z " /><path fill="rgb(134,125,119)" stroke="rgb(134,125,119)" stroke-width="1" opacity="1" d="M 4.5 1 L 7 1.5 L 4.5 2 L 4.5 1 Z " /><path fill="rgb(134,125,119)" stroke="rgb(134,125,119)" stroke-width="1" opacity="1" d="M 12.5 3 L 13 8.5 L 12 8.5 L 12.5 3 Z " /><path fill="rgb(134,125,119)" stroke="rgb(134,125,119)" stroke-width="1" opacity="1" d="M 15.5 8 L 16.5 10 L 15.5 8 Z " /><path fill="rgb(134,125,119)" stroke="rgb(134,125,119)" stroke-width="1" opacity="1" d="M 8.5 9 L 9 10.5 L 7 11.5 L 8.5 9 Z " /><path fill="rgb(134,125,119)" stroke="rgb(134,125,119)" stroke-width="1" opacity="1" d="M 19.5 14 L 21 14.5 L 19 15.5 Q 21.3 16.8 18.5 18 L 18 15.5 L 19.5 14 Z " /><path fill="rgb(134,125,119)" stroke="rgb(134,125,119)" stroke-width="1" opacity="1" d="M 16.5 15 L 17 16.5 Q 15.5 19.5 14 16.5 L 16.5 15 Z " /><path fill="rgb(134,125,119)" stroke="rgb(134,125,119)" stroke-width="1" opacity="1" d="M 10.5 24 Q 13.5 25.5 10.5 27 L 10.5 24 Z " /><path fill="rgb(134,125,119)" stroke="rgb(134,125,119)" stroke-width="1" opacity="1" d="M 6.5 41 L 5.5 43 L 6.5 41 Z " /><path fill="rgb(134,125,119)" stroke="rgb(134,125,119)" stroke-width="1" opacity="1" d="M 8.5 46 L 9 48 L 13 48.5 L 7.5 49 L 8 47.5 L 8.5 46 Z " /><path fill="rgb(251,250,250)" stroke="rgb(251,250,250)" stroke-width="1" opacity="1" d="M 0 0 L 30 0 L 30 50 L 0 50 L 0 0 Z M 2 1 L 2 49 L 28 49 L 25 47 Q 24 44 28 45 L 28 1 L 2 1 Z " /><path fill="rgb(251,250,250)" stroke="rgb(251,250,250)" stroke-width="1" opacity="1" d="M 14.5 19 Q 18.3 18.3 19 20.5 L 16.5 22 L 14.5 19 Z " /><path fill="rgb(251,250,250)" stroke="rgb(251,250,250)" stroke-width="1" opacity="1" d="M 12 22 L 18 24.5 Q 18.9 27.5 14.5 26 L 12 25 L 12 22 Z " /><path fill="rgb(251,250,250)" stroke="rgb(251,250,250)" stroke-width="1" opacity="1" d="M 12.5 26 L 17 28.5 L 12 29 L 12.5 26 Z " /><path fill="rgb(251,250,250)" stroke="rgb(251,250,250)" stroke-width="1" opacity="1" d="M 3.5 27 L 5.5 30 L 3 29 L 3.5 27 Z " /><path fill="rgb(251,250,250)" stroke="rgb(251,250,250)" stroke-width="1" opacity="1" d="M 14.5 30 L 18 32.5 L 16.5 32 Q 12.5 33 14.5 30 Z " /><path fill="rgb(221,199,86)" stroke="rgb(221,199,86)" stroke-width="1" opacity="1" d="M 25.5 16 L 27 22 L 25 21.5 L 26 19.5 L 24 19.5 L 25.5 16 Z " /><path fill="rgb(221,199,86)" stroke="rgb(221,199,86)" stroke-width="1" opacity="1" d="M 24.5 26 L 26 26.5 L 26 28.5 Q 26.8 30.8 24.5 30 L 23 30.5 L 23 28.5 L 24.5 26 Z " /><path fill="rgb(221,199,86)" stroke="rgb(221,199,86)" stroke-width="1" opacity="1" d="M 22.5 32 Q 25.1 31.2 24 34.5 L 25.5 34 L 28 35.5 L 26.5 35 Q 24.3 34.3 25 36.5 L 23 35.5 L 22.5 32 Z " /><path fill="rgb(221,199,86)" stroke="rgb(221,199,86)" stroke-width="1" opacity="1" d="M 21.5 35 L 20.5 37 L 19 36.5 L 21.5 35 Z " /><path fill="rgb(221,199,86)" stroke="rgb(221,199,86)" stroke-width="1" opacity="1" d="M 3.5 36 L 7 36.5 L 3.5 37 L 3.5 36 Z " /><path fill="rgb(221,199,86)" stroke="rgb(221,199,86)" stroke-width="1" opacity="1" d="M 8.5 36 L 11 36.5 L 8.5 37 L 8.5 36 Z " /><path fill="rgb(221,199,86)" stroke="rgb(221,199,86)" stroke-width="1" opacity="1" d="M 16.5 36 L 15.5 38 L 16.5 36 Z " /><path fill="rgb(221,199,86)" stroke="rgb(221,199,86)" stroke-width="1" opacity="1" d="M 22.5 37 L 24 39.5 L 22 40.5 L 23 38.5 L 22.5 37 Z " /><path fill="rgb(221,199,86)" stroke="rgb(221,199,86)" stroke-width="1" opacity="1" d="M 20.5 44 L 23 44.5 L 20.5 45 L 20.5 44 Z " /><path fill="rgb(30,25,29)" stroke="rgb(30,25,29)" stroke-width="1" opacity="1" d="M 17 2 Q 23.1 0.2 25 3.5 L 23.5 9 L 23 4 L 17 4 L 17 2 Z " /><path fill="rgb(30,25,29)" stroke="rgb(30,25,29)" stroke-width="1" opacity="1" d="M 13 4 Q 15.7 2.9 15 5.5 L 13.5 9 L 13 4 Z " /><path fill="rgb(30,25,29)" stroke="rgb(30,25,29)" stroke-width="1" opacity="1" d="M 4.5 6 L 6 8.5 L 5 8.5 L 4.5 6 Z " /><path fill="rgb(30,25,29)" stroke="rgb(30,25,29)" stroke-width="1" opacity="1" d="M 13.5 10 Q 15.2 12.8 20.5 12 L 23.5 10 L 24 14 L 13.5 13 L 12 11.5 L 13.5 10 Z " /><path fill="rgb(30,25,29)" stroke="rgb(30,25,29)" stroke-width="1" opacity="1" d="M 4 13 L 6 13.5 L 4 14.5 L 4 13 Z " /><path fill="rgb(30,25,29)" stroke="rgb(30,25,29)" stroke-width="1" opacity="1" d="M 7.5 14 L 8 16 L 10 16.5 L 8.5 17 L 6 15.5 L 7.5 14 Z " /><path fill="rgb(30,25,29)" stroke="rgb(30,25,29)" stroke-width="1" opacity="1" d="M 6.5 23 L 7.5 25 L 6.5 23 Z " /><path fill="rgb(30,25,29)" stroke="rgb(30,25,29)" stroke-width="1" opacity="1" d="M 26.5 24 Q 29.1 23.2 28 26.5 L 27 26.5 L 26.5 24 Z " /><path fill="rgb(30,25,29)" stroke="rgb(30,25,29)" stroke-width="1" opacity="1" d="M 19.5 25 L 23 26.5 L 18.5 27 L 19.5 25 Z " /><path fill="rgb(30,25,29)" stroke="rgb(30,25,29)" stroke-width="1" opacity="1" d="M 9.5 28 L 10 30 L 8 29.5 L 9.5 28 Z " /><path fill="rgb(30,25,29)" stroke="rgb(30,25,29)" stroke-width="1" opacity="1" d="M 3.5 34 L 2.5 36 L 3.5 34 Z " /><path fill="rgb(30,25,29)" stroke="rgb(30,25,29)" stroke-width="1" opacity="1" d="M 7.5 42 L 10 42.5 L 4.5 44 L 4.5 43 L 7.5 42 Z " /><path fill="rgb(210,204,204)" stroke="rgb(210,204,204)" stroke-width="1" opacity="1" d="M 25.5 2 L 26 5.5 L 25 5.5 L 25.5 2 Z " /><path fill="rgb(210,204,204)" stroke="rgb(210,204,204)" stroke-width="1" opacity="1" d="M 21.5 6 L 20.5 8 L 21.5 6 Z " /><path fill="rgb(210,204,204)" stroke="rgb(210,204,204)" stroke-width="1" opacity="1" d="M 15.5 7 Q 17.8 6.3 17 8.5 L 15.5 7 Z " /><path fill="rgb(210,204,204)" stroke="rgb(210,204,204)" stroke-width="1" opacity="1" d="M 2.5 12 L 4 14.5 L 2 13.5 L 2.5 12 Z " /><path fill="rgb(210,204,204)" stroke="rgb(210,204,204)" stroke-width="1" opacity="1" d="M 22.5 14 L 23.5 16 L 22.5 14 Z " /><path fill="rgb(210,204,204)" stroke="rgb(210,204,204)" stroke-width="1" opacity="1" d="M 3.5 16 L 4 20.5 L 3 20.5 L 3.5 16 Z " /><path fill="rgb(210,204,204)" stroke="rgb(210,204,204)" stroke-width="1" opacity="1" d="M 21.5 19 L 22 21.5 L 20 22.5 L 21.5 19 Z " /><path fill="rgb(210,204,204)" stroke="rgb(210,204,204)" stroke-width="1" opacity="1" d="M 16.5 27 L 17.5 29 L 16.5 27 Z " /><path fill="rgb(210,204,204)" stroke="rgb(210,204,204)" stroke-width="1" opacity="1" d="M 13.5 29 L 14 31 L 11 30.5 L 13.5 29 Z " /><path fill="rgb(210,204,204)" stroke="rgb(210,204,204)" stroke-width="1" opacity="1" d="M 26.5 43 L 27.5 45 L 26.5 43 Z " /><path fill="rgb(210,204,204)" stroke="rgb(210,204,204)" stroke-width="1" opacity="1" d="M 2 45 L 6.5 46 L 8 45.5 L 8 48 L 2 48 L 2 45 Z " /><path fill="rgb(210,204,204)" stroke="rgb(210,204,204)" stroke-width="1" opacity="1" d="M 10.5 46 L 14 47.5 L 12.5 48 L 10.5 46 Z " /><path fill="rgb(128,180,190)" stroke="rgb(128,180,190)" stroke-width="1" opacity="1" d="M 22.5 23 L 24 23.5 L 21.5 25 L 22.5 23 Z " /><path fill="rgb(128,180,190)" stroke="rgb(128,180,190)" stroke-width="1" opacity="1" d="M 17.5 27 Q 20.5 26.1 19 30.5 L 18 30.5 L 17.5 27 Z " /><path fill="rgb(128,180,190)" stroke="rgb(128,180,190)" stroke-width="1" opacity="1" d="M 4.5 32 L 8 33.5 L 5.5 34 L 3.5 34 L 2 33.5 L 4.5 32 Z " /><path fill="rgb(128,180,190)" stroke="rgb(128,180,190)" stroke-width="1" opacity="1" d="M 14.5 38 L 14.5 41 Q 11.5 39.5 14.5 38 Z " /><path fill="rgb(128,180,190)" stroke="rgb(128,180,190)" stroke-width="1" opacity="1" d="M 19.5 42 Q 21.8 41.3 21 43.5 L 19.5 42 Z " /><path fill="rgb(244,238,153)" stroke="rgb(244,238,153)" stroke-width="1" opacity="1" d="M 25.5 19 L 26 21 L 24 20.5 L 25.5 19 Z " /><path fill="rgb(244,238,153)" stroke="rgb(244,238,153)" stroke-width="1" opacity="1" d="M 24 30 L 27 30.5 L 25 31.5 L 26 33.5 L 24 34.5 L 24 30 Z " /><path fill="rgb(244,238,153)" stroke="rgb(244,238,153)" stroke-width="1" opacity="1" d="M 22.5 33 L 24 37.5 L 22.5 37 L 21 36.5 L 22.5 33 Z " /><path fill="rgb(231,224,223)" stroke="rgb(231,224,223)" stroke-width="1" opacity="1" d="M 2 2 L 12 2 L 12 6.5 L 11 7.5 L 11 15 Q 8 16.3 9 12.5 L 9 10.5 Q 11.3 3.3 3.5 6 L 2 6.5 L 2 2 Z " /><path fill="rgb(231,224,223)" stroke="rgb(231,224,223)" stroke-width="1" opacity="1" d="M 26 2 L 28 2.5 L 28 17.5 L 25.5 16 L 23.5 17 L 23.5 14 L 25 13.5 L 25 6.5 L 26 2 Z " /><path fill="rgb(231,224,223)" stroke="rgb(231,224,223)" stroke-width="1" opacity="1" d="M 17.5 8 L 21 10.5 L 18.5 12 L 17.5 8 Z " /><path fill="rgb(231,224,223)" stroke="rgb(231,224,223)" stroke-width="1" opacity="1" d="M 13.5 13 L 17 14.5 L 13 16 L 13.5 13 Z " /><path fill="rgb(231,224,223)" stroke="rgb(231,224,223)" stroke-width="1" opacity="1" d="M 2.5 14 L 3 20.5 L 2 20.5 L 2.5 14 Z " /><path fill="rgb(231,224,223)" stroke="rgb(231,224,223)" stroke-width="1" opacity="1" d="M 8.5 17 L 11 17.5 L 8.5 18 L 8.5 17 Z " /><path fill="rgb(231,224,223)" stroke="rgb(231,224,223)" stroke-width="1" opacity="1" d="M 14.5 18 L 20 18.5 L 13.5 20 L 14.5 18 Z " /><path fill="rgb(231,224,223)" stroke="rgb(231,224,223)" stroke-width="1" opacity="1" d="M 2.5 22 L 3.5 24 L 2.5 22 Z " /><path fill="rgb(231,224,223)" stroke="rgb(231,224,223)" stroke-width="1" opacity="1" d="M 3.5 25 L 7 29.5 L 3 26.5 L 3.5 25 Z " /><path fill="rgb(231,224,223)" stroke="rgb(231,224,223)" stroke-width="1" opacity="1" d="M 26.5 38 L 27 39.5 L 25 40.5 L 26.5 38 Z " /><path fill="rgb(231,224,223)" stroke="rgb(231,224,223)" stroke-width="1" opacity="1" d="M 6.5 40 Q 10.3 39 9 42 L 6.5 40 Z " /><path fill="rgb(231,224,223)" stroke="rgb(231,224,223)" stroke-width="1" opacity="1" d="M 8.5 45 L 24.5 45 L 25 47 L 26.5 47 L 28 46.5 L 26.5 48 L 20 48 Q 21 45 18 46 Q 19.3 49.3 14.5 48 L 14.5 46 L 8.5 46 L 8.5 45 Z " /><path fill="rgb(93,104,108)" stroke="rgb(93,104,108)" stroke-width="1" opacity="1" d="M 7.5 1 L 10 1.5 L 7.5 2 L 7.5 1 Z " /><path fill="rgb(93,104,108)" stroke="rgb(93,104,108)" stroke-width="1" opacity="1" d="M 13.5 2 L 15.5 3 L 17 2.5 L 13 4 L 13.5 2 Z " /><path fill="rgb(93,104,108)" stroke="rgb(93,104,108)" stroke-width="1" opacity="1" d="M 6.5 12 L 7.5 14 Q 4.7 14.7 6.5 12 Z " /><path fill="rgb(93,104,108)" stroke="rgb(93,104,108)" stroke-width="1" opacity="1" d="M 17.5 13 L 20 15.5 L 19.5 18 L 17.5 13 Z " /><path fill="rgb(93,104,108)" stroke="rgb(93,104,108)" stroke-width="1" opacity="1" d="M 12 17 L 14 17.5 L 12 18.5 L 12 17 Z " /><path fill="rgb(93,104,108)" stroke="rgb(93,104,108)" stroke-width="1" opacity="1" d="M 13.5 20 L 14.5 22 L 13.5 20 Z " /><path fill="rgb(93,104,108)" stroke="rgb(93,104,108)" stroke-width="1" opacity="1" d="M 3.5 21 L 4.5 23 Q 1.7 23.7 3.5 21 Z " /><path fill="rgb(93,104,108)" stroke="rgb(93,104,108)" stroke-width="1" opacity="1" d="M 7.5 22 L 10 22.5 Q 7.9 25.8 7.5 22 Z " /><path fill="rgb(93,104,108)" stroke="rgb(93,104,108)" stroke-width="1" opacity="1" d="M 25.5 22 L 28 23.5 L 26.5 24 L 25.5 22 Z " /><path fill="rgb(93,104,108)" stroke="rgb(93,104,108)" stroke-width="1" opacity="1" d="M 2.5 29 Q 4.8 28.3 4 30.5 L 2.5 29 Z " /><path fill="rgb(93,104,108)" stroke="rgb(93,104,108)" stroke-width="1" opacity="1" d="M 5.5 30 L 7 32.5 L 5 31.5 L 5.5 30 Z " /><path fill="rgb(93,104,108)" stroke="rgb(93,104,108)" stroke-width="1" opacity="1" d="M 8.5 33 Q 10.8 32.3 10 34.5 L 10.5 36 L 6 34.5 L 8.5 33 Z " /><path fill="rgb(93,104,108)" stroke="rgb(93,104,108)" stroke-width="1" opacity="1" d="M 2.5 34 L 3.5 36 L 2.5 34 Z " /><path fill="rgb(93,104,108)" stroke="rgb(93,104,108)" stroke-width="1" opacity="1" d="M 9.5 37 L 9.5 40 Q 6.5 38.5 9.5 37 Z " /><path fill="rgb(93,104,108)" stroke="rgb(93,104,108)" stroke-width="1" opacity="1" d="M 19.5 41 L 19 42.5 L 18.5 44 L 18 42.5 L 19.5 41 Z " /><path fill="rgb(93,104,108)" stroke="rgb(93,104,108)" stroke-width="1" opacity="1" d="M 4.5 48 L 7 48.5 L 4.5 49 L 4.5 48 Z " /><path fill="rgb(115,142,148)" stroke="rgb(115,142,148)" stroke-width="1" opacity="1" d="M 17.5 7 L 18.5 9 L 17.5 7 Z " /><path fill="rgb(115,142,148)" stroke="rgb(115,142,148)" stroke-width="1" opacity="1" d="M 14.5 17 L 13.5 19 L 14.5 17 Z " /><path fill="rgb(115,142,148)" stroke="rgb(115,142,148)" stroke-width="1" opacity="1" d="M 19.5 28 L 20 30.5 L 19 30.5 L 19.5 28 Z " /><path fill="rgb(115,142,148)" stroke="rgb(115,142,148)" stroke-width="1" opacity="1" d="M 17.5 29 L 18 31 L 16 30.5 L 17.5 29 Z " /><path fill="rgb(115,142,148)" stroke="rgb(115,142,148)" stroke-width="1" opacity="1" d="M 14.5 33 L 18 34.5 Q 18.8 36.8 16.5 36 L 14.5 33 Z " /><path fill="rgb(115,142,148)" stroke="rgb(115,142,148)" stroke-width="1" opacity="1" d="M 10.5 34 L 13 34.5 Q 10.9 37.8 10.5 34 Z " /><path fill="rgb(115,142,148)" stroke="rgb(115,142,148)" stroke-width="1" opacity="1" d="M 14.5 39 L 15.5 41 L 13 40.5 L 14.5 39 Z " /><path fill="rgb(173,155,109)" stroke="rgb(173,155,109)" stroke-width="1" opacity="1" d="M 7.5 25 L 8 28 L 6 27.5 L 7.5 25 Z " /><path fill="rgb(173,155,109)" stroke="rgb(173,155,109)" stroke-width="1" opacity="1" d="M 20.5 30 L 23 30.5 L 20.5 31 L 20.5 30 Z " /><path fill="rgb(173,155,109)" stroke="rgb(173,155,109)" stroke-width="1" opacity="1" d="M 23.5 40 L 25 42.5 L 24 42.5 L 23.5 40 Z " /><path fill="rgb(173,155,109)" stroke="rgb(173,155,109)" stroke-width="1" opacity="1" d="M 22.5 42 L 21.5 44 L 22.5 42 Z " /></svg>