<svg width="30" height="50" version="1.1" xmlns="http://www.w3.org/2000/svg" desc="Created with imagetracer.js version 1.2.6" ><path fill="rgb(70,42,37)" stroke="rgb(70,42,37)" stroke-width="1" opacity="1" d="M 6.5 6 L 7.5 8 Q 4.7 8.7 6.5 6 Z " /><path fill="rgb(70,42,37)" stroke="rgb(70,42,37)" stroke-width="1" opacity="1" d="M 21.5 7 Q 23.8 6.3 23 8.5 L 21.5 7 Z " /><path fill="rgb(70,42,37)" stroke="rgb(70,42,37)" stroke-width="1" opacity="1" d="M 3.5 10 L 5 10.5 L 3 11.5 L 6 13.5 L 5.5 16 L 2 13.5 L 3.5 10 Z " /><path fill="rgb(70,42,37)" stroke="rgb(70,42,37)" stroke-width="1" opacity="1" d="M 6 10 L 9 11.5 Q 9.8 13.8 7.5 13 L 6 10 Z " /><path fill="rgb(70,42,37)" stroke="rgb(70,42,37)" stroke-width="1" opacity="1" d="M 24 11 L 28 12.5 L 27 15.5 L 28 18.5 L 27.5 22 L 23 18.5 Q 22.1 15.5 26.5 17 L 26 15.5 L 25.5 14 L 23 15.5 Q 22.3 13.3 24.5 14 L 24 12.5 L 24 11 Z " /><path fill="rgb(70,42,37)" stroke="rgb(70,42,37)" stroke-width="1" opacity="1" d="M 2.5 17 L 5 20.5 L 3 21 L 2.5 17 Z " /><path fill="rgb(70,42,37)" stroke="rgb(70,42,37)" stroke-width="1" opacity="1" d="M 5.5 17 L 9 19.5 L 6 20 L 5.5 17 Z " /><path fill="rgb(70,42,37)" stroke="rgb(70,42,37)" stroke-width="1" opacity="1" d="M 26.5 26 L 27 29.5 L 26.5 31 L 28 31.5 L 26.5 32 L 24.5 29 Q 27.4 29.7 26.5 26 Z " /><path fill="rgb(70,42,37)" stroke="rgb(70,42,37)" stroke-width="1" opacity="1" d="M 5 31 L 10 32 L 9.5 34 L 6.5 33 L 5 33.5 L 5 31 Z " /><path fill="rgb(70,42,37)" stroke="rgb(70,42,37)" stroke-width="1" opacity="1" d="M 22.5 33 L 26 35.5 L 21 37 L 21.5 35 L 23 35.5 L 22.5 33 Z " /><path fill="rgb(70,42,37)" stroke="rgb(70,42,37)" stroke-width="1" opacity="1" d="M 2.5 35 L 7 36 Q 8.1 39.3 4 38 Q 5.1 35.3 2.5 36 L 2.5 35 Z " /><path fill="rgb(70,42,37)" stroke="rgb(70,42,37)" stroke-width="1" opacity="1" d="M 10.5 37 L 14 38.5 L 11.5 39 L 10.5 37 Z " /><path fill="rgb(70,42,37)" stroke="rgb(70,42,37)" stroke-width="1" opacity="1" d="M 10.5 45 L 12 45.5 L 9.5 47 L 10.5 45 Z " /><path fill="rgb(138,136,135)" stroke="rgb(138,136,135)" stroke-width="1" opacity="1" d="M 8.5 24 L 9.5 26 L 8.5 24 Z " /><path fill="rgb(138,136,135)" stroke="rgb(138,136,135)" stroke-width="1" opacity="1" d="M 3.5 29 L 4.5 31 L 3.5 29 Z " /><path fill="rgb(138,136,135)" stroke="rgb(138,136,135)" stroke-width="1" opacity="1" d="M 19.5 34 L 20.5 36 L 19.5 34 Z " /><path fill="rgb(247,245,246)" stroke="rgb(247,245,246)" stroke-width="1" opacity="1" d="M 0 0 L 30 0 L 30 50 L 0 50 L 0 0 Z M 11 2 L 11 4 Q 15 5 16 3 L 11 2 Z M 17 5 L 11 7 L 5 6 L 2 11 L 3 25 L 4 21 L 8 20 L 10 21 L 10 23 Q 6 21 7 25 L 10 26 L 10 29 L 6 24 L 2 29 L 2 45 L 5 48 L 6 47 L 17 47 L 18 46 L 22 47 L 21 46 L 23 46 L 28 45 L 28 24 L 24 25 L 24 27 L 23 26 Q 17 28 18 25 L 18 23 L 19 21 L 21 21 L 23 20 L 28 23 L 28 10 L 23 5 L 20 7 Q 21 9 18 8 L 17 5 Z " /><path fill="rgb(247,245,246)" stroke="rgb(247,245,246)" stroke-width="1" opacity="1" d="M 17.5 10 L 17.5 13 Q 14.5 11.5 17.5 10 Z " /><path fill="rgb(247,245,246)" stroke="rgb(247,245,246)" stroke-width="1" opacity="1" d="M 11.5 12 L 14.5 14 Q 15.8 11.8 17 14.5 L 12 15 L 13 17.5 L 11.5 17 Q 8.5 17.7 10 14 L 12 13.5 L 11.5 12 Z " /><path fill="rgb(247,245,246)" stroke="rgb(247,245,246)" stroke-width="1" opacity="1" d="M 4 27 Q 7 26 6 29 Q 3 30 4 27 Z " /><path fill="rgb(247,245,246)" stroke="rgb(247,245,246)" stroke-width="1" opacity="1" d="M 15 29 Q 17.7 27.9 17 30.5 L 16 32.5 L 17 35.5 L 16 35.5 L 15 29 Z " /><path fill="rgb(99,77,72)" stroke="rgb(99,77,72)" stroke-width="1" opacity="1" d="M 5.5 6 L 6 7.5 L 5.5 9 L 7.5 8 L 10 11.5 L 7.5 10 L 4 8.5 L 5.5 6 Z " /><path fill="rgb(99,77,72)" stroke="rgb(99,77,72)" stroke-width="1" opacity="1" d="M 22.5 9 L 26 10.5 L 24 11 L 22.5 16 L 22 14.5 L 23 11.5 L 22.5 9 Z " /><path fill="rgb(99,77,72)" stroke="rgb(99,77,72)" stroke-width="1" opacity="1" d="M 26.5 12 L 28 14.5 L 27 14.5 L 26.5 12 Z " /><path fill="rgb(99,77,72)" stroke="rgb(99,77,72)" stroke-width="1" opacity="1" d="M 2.5 14 Q 5.5 15.5 2.5 17 L 2.5 14 Z " /><path fill="rgb(99,77,72)" stroke="rgb(99,77,72)" stroke-width="1" opacity="1" d="M 7.5 14 L 9 14.5 L 6.5 16 L 7.5 14 Z " /><path fill="rgb(99,77,72)" stroke="rgb(99,77,72)" stroke-width="1" opacity="1" d="M 22.5 17 L 24 19.5 L 22 20 L 22.5 17 Z " /><path fill="rgb(99,77,72)" stroke="rgb(99,77,72)" stroke-width="1" opacity="1" d="M 2.5 21 Q 4.8 20.3 4 22.5 L 2.5 21 Z " /><path fill="rgb(99,77,72)" stroke="rgb(99,77,72)" stroke-width="1" opacity="1" d="M 26.5 21 L 27.5 23 L 26.5 21 Z " /><path fill="rgb(99,77,72)" stroke="rgb(99,77,72)" stroke-width="1" opacity="1" d="M 10.5 25 Q 12.8 24.3 12 26.5 L 10.5 25 Z " /><path fill="rgb(99,77,72)" stroke="rgb(99,77,72)" stroke-width="1" opacity="1" d="M 26.5 25 L 28 25.5 L 26 26 L 24.5 29 Q 22.3 29.8 23 27.5 L 25 27.5 L 26.5 25 Z " /><path fill="rgb(99,77,72)" stroke="rgb(99,77,72)" stroke-width="1" opacity="1" d="M 21.5 30 L 20.5 32 L 19 31.5 L 21.5 30 Z " /><path fill="rgb(99,77,72)" stroke="rgb(99,77,72)" stroke-width="1" opacity="1" d="M 26.5 30 L 26 31.5 L 25.5 33 L 25 31.5 L 26.5 30 Z " /><path fill="rgb(99,77,72)" stroke="rgb(99,77,72)" stroke-width="1" opacity="1" d="M 10.5 33 L 12 37.5 L 11 37.5 L 10.5 33 Z " /><path fill="rgb(99,77,72)" stroke="rgb(99,77,72)" stroke-width="1" opacity="1" d="M 24.5 36 Q 26.8 35.3 26 37.5 L 24.5 36 Z " /><path fill="rgb(99,77,72)" stroke="rgb(99,77,72)" stroke-width="1" opacity="1" d="M 8.5 44 L 10 44.5 L 8 45.5 L 8.5 47 L 5.5 46 L 4 46.5 L 8.5 44 Z " /><path fill="rgb(99,77,72)" stroke="rgb(99,77,72)" stroke-width="1" opacity="1" d="M 11.5 44 Q 13.8 43.3 13 45.5 L 11.5 44 Z " /><path fill="rgb(99,77,72)" stroke="rgb(99,77,72)" stroke-width="1" opacity="1" d="M 20.5 44 L 24 44.5 L 20.5 45 L 20.5 44 Z " /><path fill="rgb(160,100,106)" stroke="rgb(160,100,106)" stroke-width="1" opacity="1" d="M 20.5 7 L 21.5 9 L 20.5 7 Z " /><path fill="rgb(160,100,106)" stroke="rgb(160,100,106)" stroke-width="1" opacity="1" d="M 23 7 L 25 7.5 L 24.5 10 L 23 7 Z " /><path fill="rgb(160,100,106)" stroke="rgb(160,100,106)" stroke-width="1" opacity="1" d="M 9.5 12 L 8.5 14 L 9.5 12 Z " /><path fill="rgb(160,100,106)" stroke="rgb(160,100,106)" stroke-width="1" opacity="1" d="M 6.5 13 L 5.5 15 L 6.5 13 Z " /><path fill="rgb(160,100,106)" stroke="rgb(160,100,106)" stroke-width="1" opacity="1" d="M 24.5 15 L 23.5 17 L 22 16.5 L 24.5 15 Z " /><path fill="rgb(160,100,106)" stroke="rgb(160,100,106)" stroke-width="1" opacity="1" d="M 27.5 15 L 26.5 17 L 27.5 15 Z " /><path fill="rgb(215,196,119)" stroke="rgb(215,196,119)" stroke-width="1" opacity="1" d="M 12 8 L 14 8.5 L 12 9.5 L 12 8 Z " /><path fill="rgb(215,196,119)" stroke="rgb(215,196,119)" stroke-width="1" opacity="1" d="M 14.5 11 L 15.5 13 Q 12.7 13.7 14.5 11 Z " /><path fill="rgb(215,196,119)" stroke="rgb(215,196,119)" stroke-width="1" opacity="1" d="M 10.5 19 L 11 21.5 L 10 21.5 L 10.5 19 Z " /><path fill="rgb(215,196,119)" stroke="rgb(215,196,119)" stroke-width="1" opacity="1" d="M 6.5 25 L 5.5 27 L 6.5 25 Z " /><path fill="rgb(215,196,119)" stroke="rgb(215,196,119)" stroke-width="1" opacity="1" d="M 27.5 27 L 28 30.5 L 27 30.5 L 27.5 27 Z " /><path fill="rgb(215,196,119)" stroke="rgb(215,196,119)" stroke-width="1" opacity="1" d="M 26 32 Q 29.3 30.9 28 35 Q 24.7 36.1 26 32 Z " /><path fill="rgb(215,196,119)" stroke="rgb(215,196,119)" stroke-width="1" opacity="1" d="M 25 38 L 28 39.5 L 25 39.5 L 25 38 Z " /><path fill="rgb(208,202,199)" stroke="rgb(208,202,199)" stroke-width="1" opacity="1" d="M 15.5 2 L 14.5 4 L 13 3.5 L 15.5 2 Z " /><path fill="rgb(208,202,199)" stroke="rgb(208,202,199)" stroke-width="1" opacity="1" d="M 9.5 5 L 10.5 8 L 11 6 L 15 7.5 L 11 8.5 L 11.5 10 L 9.5 10 L 8 9.5 L 9 7.5 Q 6.8 6.3 9.5 5 Z " /><path fill="rgb(208,202,199)" stroke="rgb(208,202,199)" stroke-width="1" opacity="1" d="M 16.5 5 L 18 8 L 21 8.5 L 19 9 L 18.5 11 Q 17.3 8.7 16 11.5 L 17.5 14 L 19.5 13 L 22 16.5 L 20 15.5 Q 20.8 13.3 18.5 14 L 16.5 17 L 16 15.5 L 16 13.5 L 15 11.5 L 17 7.5 L 16.5 5 Z " /><path fill="rgb(208,202,199)" stroke="rgb(208,202,199)" stroke-width="1" opacity="1" d="M 4.5 6 L 3.5 8 L 4.5 6 Z " /><path fill="rgb(208,202,199)" stroke="rgb(208,202,199)" stroke-width="1" opacity="1" d="M 12.5 15 L 13.5 17 Q 10.7 17.7 12.5 15 Z " /><path fill="rgb(208,202,199)" stroke="rgb(208,202,199)" stroke-width="1" opacity="1" d="M 9.5 18 L 13 20.5 Q 13.7 23.1 11 22 Q 12.5 18.2 9.5 19 L 9.5 18 Z " /><path fill="rgb(208,202,199)" stroke="rgb(208,202,199)" stroke-width="1" opacity="1" d="M 20.5 19 L 21.5 21 L 20.5 19 Z " /><path fill="rgb(208,202,199)" stroke="rgb(208,202,199)" stroke-width="1" opacity="1" d="M 15.5 20 L 18 21.5 L 18.5 20 L 19 21.5 L 18.5 24 L 16.5 23 L 14 24 L 13.5 28 L 13 24.5 L 16 23 L 15.5 20 Z " /><path fill="rgb(208,202,199)" stroke="rgb(208,202,199)" stroke-width="1" opacity="1" d="M 7.5 23 L 8.5 25 L 10 24.5 L 6.5 29 L 6 27.5 Q 9.5 26 7 24.5 L 7.5 23 Z " /><path fill="rgb(208,202,199)" stroke="rgb(208,202,199)" stroke-width="1" opacity="1" d="M 2 28 L 4 28.5 L 2 29.5 L 2 28 Z " /><path fill="rgb(208,202,199)" stroke="rgb(208,202,199)" stroke-width="1" opacity="1" d="M 9.5 29 L 10.5 31 L 8.5 31 L 7 30.5 L 9.5 29 Z " /><path fill="rgb(208,202,199)" stroke="rgb(208,202,199)" stroke-width="1" opacity="1" d="M 18.5 32 L 19 35.5 L 17 34.5 L 18.5 32 Z " /><path fill="rgb(208,202,199)" stroke="rgb(208,202,199)" stroke-width="1" opacity="1" d="M 3.5 46 L 6 46.5 Q 3.9 49.8 3.5 46 Z " /><path fill="rgb(173,165,166)" stroke="rgb(173,165,166)" stroke-width="1" opacity="1" d="M 26.5 9 L 27.5 11 L 26.5 9 Z " /><path fill="rgb(173,165,166)" stroke="rgb(173,165,166)" stroke-width="1" opacity="1" d="M 9.5 13 L 10 16.5 L 9 16.5 L 9.5 13 Z " /><path fill="rgb(173,165,166)" stroke="rgb(173,165,166)" stroke-width="1" opacity="1" d="M 13.5 17 L 14.5 19 L 13.5 17 Z " /><path fill="rgb(173,165,166)" stroke="rgb(173,165,166)" stroke-width="1" opacity="1" d="M 21.5 19 L 20.5 21 L 21.5 19 Z " /><path fill="rgb(173,165,166)" stroke="rgb(173,165,166)" stroke-width="1" opacity="1" d="M 13.5 20 L 14.5 22 Q 11.7 22.7 13.5 20 Z " /><path fill="rgb(173,165,166)" stroke="rgb(173,165,166)" stroke-width="1" opacity="1" d="M 14.5 24 Q 17.5 25.5 14.5 27 L 14.5 24 Z " /><path fill="rgb(173,165,166)" stroke="rgb(173,165,166)" stroke-width="1" opacity="1" d="M 17.5 25 L 18 27.5 L 16 28.5 L 17.5 25 Z " /><path fill="rgb(173,165,166)" stroke="rgb(173,165,166)" stroke-width="1" opacity="1" d="M 8.5 28 L 10 30.5 L 8 29.5 L 8.5 28 Z " /><path fill="rgb(173,165,166)" stroke="rgb(173,165,166)" stroke-width="1" opacity="1" d="M 13.5 29 Q 17 31 12.5 33 L 13.5 29 Z " /><path fill="rgb(173,165,166)" stroke="rgb(173,165,166)" stroke-width="1" opacity="1" d="M 17.5 35 L 18.5 37 L 17.5 35 Z " /><path fill="rgb(187,177,179)" stroke="rgb(187,177,179)" stroke-width="1" opacity="1" d="M 13.5 2 L 15 2.5 L 12.5 4 L 13.5 2 Z " /><path fill="rgb(187,177,179)" stroke="rgb(187,177,179)" stroke-width="1" opacity="1" d="M 19.5 10 L 18.5 12 L 19.5 10 Z " /><path fill="rgb(187,177,179)" stroke="rgb(187,177,179)" stroke-width="1" opacity="1" d="M 18 14 L 20 14.5 L 18 15.5 L 18 14 Z " /><path fill="rgb(187,177,179)" stroke="rgb(187,177,179)" stroke-width="1" opacity="1" d="M 21.5 14 L 22 15.5 L 20 16.5 L 21.5 14 Z " /><path fill="rgb(187,177,179)" stroke="rgb(187,177,179)" stroke-width="1" opacity="1" d="M 10.5 17 L 11.5 19 L 10.5 17 Z " /><path fill="rgb(187,177,179)" stroke="rgb(187,177,179)" stroke-width="1" opacity="1" d="M 16.5 20 L 16 21.5 L 18 24.5 L 15 24.5 L 15 22.5 L 16.5 20 Z " /><path fill="rgb(187,177,179)" stroke="rgb(187,177,179)" stroke-width="1" opacity="1" d="M 10.5 26 L 11 29.5 L 10 29.5 L 10.5 26 Z " /><path fill="rgb(187,177,179)" stroke="rgb(187,177,179)" stroke-width="1" opacity="1" d="M 14.5 27 Q 17.1 26.3 16 29 L 13 28.5 L 14.5 27 Z " /><path fill="rgb(187,177,179)" stroke="rgb(187,177,179)" stroke-width="1" opacity="1" d="M 17.5 28 L 18 31.5 L 16 32.5 L 17.5 28 Z " /><path fill="rgb(187,177,179)" stroke="rgb(187,177,179)" stroke-width="1" opacity="1" d="M 13.5 30 L 14 32.5 L 12.5 35 L 11 31 L 13.5 30 Z " /><path fill="rgb(148,152,155)" stroke="rgb(148,152,155)" stroke-width="1" opacity="1" d="M 10.5 9 L 13 10.5 L 11 11.5 L 10.5 9 Z " /><path fill="rgb(148,152,155)" stroke="rgb(148,152,155)" stroke-width="1" opacity="1" d="M 11.5 17 L 15.5 19 L 17 18.5 Q 15.3 22.8 13.5 20 Q 11.3 20.8 12 18.5 L 11.5 17 Z " /><path fill="rgb(148,152,155)" stroke="rgb(148,152,155)" stroke-width="1" opacity="1" d="M 15.5 26 L 16.5 28 L 15.5 26 Z " /><path fill="rgb(148,152,155)" stroke="rgb(148,152,155)" stroke-width="1" opacity="1" d="M 12.5 28 L 13 30.5 L 12 30.5 L 12.5 28 Z " /><path fill="rgb(148,152,155)" stroke="rgb(148,152,155)" stroke-width="1" opacity="1" d="M 14.5 31 L 15 33.5 L 14 33.5 L 14.5 31 Z " /><path fill="rgb(148,152,155)" stroke="rgb(148,152,155)" stroke-width="1" opacity="1" d="M 14.5 35 L 15.5 37 Q 12.7 37.7 14.5 35 Z " /><path fill="rgb(148,152,155)" stroke="rgb(148,152,155)" stroke-width="1" opacity="1" d="M 16.5 39 L 15.5 41 L 16.5 39 Z " /><path fill="rgb(148,152,155)" stroke="rgb(148,152,155)" stroke-width="1" opacity="1" d="M 10.5 40 L 11 42.5 L 10 42.5 L 10.5 40 Z " /><path fill="rgb(102,109,110)" stroke="rgb(102,109,110)" stroke-width="1" opacity="1" d="M 25.5 12 L 24.5 14 L 25.5 12 Z " /><path fill="rgb(102,109,110)" stroke="rgb(102,109,110)" stroke-width="1" opacity="1" d="M 7.5 13 L 6.5 15 L 7.5 13 Z " /><path fill="rgb(102,109,110)" stroke="rgb(102,109,110)" stroke-width="1" opacity="1" d="M 17 19 L 19 19.5 L 17 20.5 L 17 19 Z " /><path fill="rgb(102,109,110)" stroke="rgb(102,109,110)" stroke-width="1" opacity="1" d="M 19.5 26 L 18.5 28 L 19.5 26 Z " /><path fill="rgb(102,109,110)" stroke="rgb(102,109,110)" stroke-width="1" opacity="1" d="M 17.5 39 L 16.5 41 L 17.5 39 Z " /><path fill="rgb(102,109,110)" stroke="rgb(102,109,110)" stroke-width="1" opacity="1" d="M 3.5 43 L 9 45.5 L 7.5 45 L 2 44.5 L 3.5 43 Z " /><path fill="rgb(102,109,110)" stroke="rgb(102,109,110)" stroke-width="1" opacity="1" d="M 26.5 43 L 27.5 45 L 24 44.5 L 26.5 43 Z " /><path fill="rgb(102,109,110)" stroke="rgb(102,109,110)" stroke-width="1" opacity="1" d="M 13 44 L 17 44.5 L 13.5 46 L 13 44 Z " /><path fill="rgb(184,165,86)" stroke="rgb(184,165,86)" stroke-width="1" opacity="1" d="M 14.5 8 Q 17.8 9.8 14 11.5 L 13.5 13 L 13 11.5 L 14.5 8 Z " /><path fill="rgb(184,165,86)" stroke="rgb(184,165,86)" stroke-width="1" opacity="1" d="M 10.5 22 L 9.5 24 L 10.5 22 Z " /><path fill="rgb(184,165,86)" stroke="rgb(184,165,86)" stroke-width="1" opacity="1" d="M 20.5 27 L 21 30.5 L 20 30.5 L 20.5 27 Z " /><path fill="rgb(184,165,86)" stroke="rgb(184,165,86)" stroke-width="1" opacity="1" d="M 24.5 30 L 25 33.5 L 23 32.5 L 24.5 30 Z " /><path fill="rgb(184,165,86)" stroke="rgb(184,165,86)" stroke-width="1" opacity="1" d="M 7.5 34 L 10 34.5 L 6.5 36 L 7.5 34 Z " /><path fill="rgb(184,165,86)" stroke="rgb(184,165,86)" stroke-width="1" opacity="1" d="M 2.5 37 L 3.5 39 L 2.5 37 Z " /><path fill="rgb(184,165,86)" stroke="rgb(184,165,86)" stroke-width="1" opacity="1" d="M 18.5 37 L 22 39.5 L 20.5 39 L 18.5 37 Z " /><path fill="rgb(184,165,86)" stroke="rgb(184,165,86)" stroke-width="1" opacity="1" d="M 26.5 37 L 27.5 39 L 26.5 37 Z " /><path fill="rgb(184,165,86)" stroke="rgb(184,165,86)" stroke-width="1" opacity="1" d="M 23.5 38 L 24.5 40 L 23.5 38 Z " /><path fill="rgb(161,222,234)" stroke="rgb(161,222,234)" stroke-width="1" opacity="1" d="M 4.5 40 L 8 40 Q 6.3 44.1 10.5 43 L 10.5 44 Q 6 45 5 42.5 L 5.5 41 L 2.5 43 L 2 41 L 4.5 40 Z " /><path fill="rgb(161,222,234)" stroke="rgb(161,222,234)" stroke-width="1" opacity="1" d="M 19.5 41 L 21.5 42 L 24.5 41 L 24.5 42 L 23 42.5 L 26 43 L 26.5 41 L 27.5 43 L 21.5 44 L 17.5 44 Q 13 45 12 42.5 L 13.5 42 L 17.5 43 L 19.5 41 Z " /><path fill="rgb(128,183,195)" stroke="rgb(128,183,195)" stroke-width="1" opacity="1" d="M 3.5 39 L 4 41 L 2 40.5 L 3.5 39 Z " /><path fill="rgb(128,183,195)" stroke="rgb(128,183,195)" stroke-width="1" opacity="1" d="M 9.5 39 Q 13.9 37.5 13 40.5 L 16 41.5 Q 14.8 44.3 13.5 42 L 12 42.5 L 12.5 44 Q 9.9 44.8 11 41.5 L 11.5 40 Q 8.5 40.5 9.5 39 Z " /><path fill="rgb(128,183,195)" stroke="rgb(128,183,195)" stroke-width="1" opacity="1" d="M 5.5 41 L 4.5 43 L 2.5 44 L 3.5 42 L 5.5 41 Z " /><path fill="rgb(128,183,195)" stroke="rgb(128,183,195)" stroke-width="1" opacity="1" d="M 8.5 41 Q 10.8 40.3 10 42.5 L 8.5 41 Z " /><path fill="rgb(128,183,195)" stroke="rgb(128,183,195)" stroke-width="1" opacity="1" d="M 17 41 L 19 41.5 L 18.5 44 L 17 41 Z " /><path fill="rgb(158,79,55)" stroke="rgb(158,79,55)" stroke-width="1" opacity="1" d="M 3.5 9 L 3.5 12 Q 0.5 10.5 3.5 9 Z " /><path fill="rgb(158,79,55)" stroke="rgb(158,79,55)" stroke-width="1" opacity="1" d="M 5.5 10 L 6 12.5 L 5 12.5 L 5.5 10 Z " /><path fill="rgb(158,79,55)" stroke="rgb(158,79,55)" stroke-width="1" opacity="1" d="M 22.5 11 L 23 14 L 20 12.5 L 22.5 11 Z " /><path fill="rgb(158,79,55)" stroke="rgb(158,79,55)" stroke-width="1" opacity="1" d="M 4.5 15 L 7.5 16 L 9 15.5 L 7.5 18 L 5.5 17 L 4.5 19 L 6 19.5 L 4.5 20 L 3 17.5 L 4.5 15 Z " /><path fill="rgb(158,79,55)" stroke="rgb(158,79,55)" stroke-width="1" opacity="1" d="M 14 38 L 16 38.5 L 14 39.5 L 14 38 Z " /><path fill="rgb(158,79,55)" stroke="rgb(158,79,55)" stroke-width="1" opacity="1" d="M 19.5 39 L 18.5 41 L 19.5 39 Z " /><path fill="rgb(145,131,63)" stroke="rgb(145,131,63)" stroke-width="1" opacity="1" d="M 18.5 18 L 19.5 20 L 18.5 18 Z " /><path fill="rgb(145,131,63)" stroke="rgb(145,131,63)" stroke-width="1" opacity="1" d="M 4.5 31 L 5.5 35 L 6 33 Q 9.7 31.5 9 34.5 L 10.5 37 L 7 36.5 L 9 35.5 L 7.5 34 Q 6 37.5 4.5 35 L 2 34.5 L 4 34 L 4.5 31 Z " /><path fill="rgb(145,131,63)" stroke="rgb(145,131,63)" stroke-width="1" opacity="1" d="M 27.5 35 L 28 37 L 26 36.5 L 27.5 35 Z " /><path fill="rgb(145,131,63)" stroke="rgb(145,131,63)" stroke-width="1" opacity="1" d="M 2.5 36 Q 4.8 35.3 4 37.5 L 4.5 39 L 2.5 36 Z " /><path fill="rgb(145,131,63)" stroke="rgb(145,131,63)" stroke-width="1" opacity="1" d="M 13.5 37 Q 18 36 19 38.5 L 18.5 40 Q 17.8 37.3 13.5 38 L 13.5 37 Z " /><path fill="rgb(145,131,63)" stroke="rgb(145,131,63)" stroke-width="1" opacity="1" d="M 22.5 38 L 25 38.5 L 24.5 40 L 26.5 39 L 27.5 41 L 25.5 41 L 22.5 38 Z " /></svg>