<svg width="30" height="50" version="1.1" xmlns="http://www.w3.org/2000/svg" desc="Created with imagetracer.js version 1.2.6" ><path fill="rgb(172,140,119)" stroke="rgb(172,140,119)" stroke-width="1" opacity="1" d="M 12.5 3 L 18 7.5 L 17.5 9 L 17 7 L 13 5.5 L 13.5 4 L 12.5 3 Z " /><path fill="rgb(172,140,119)" stroke="rgb(172,140,119)" stroke-width="1" opacity="1" d="M 12.5 7 L 13.5 9 Q 10.7 9.7 12.5 7 Z " /><path fill="rgb(172,140,119)" stroke="rgb(172,140,119)" stroke-width="1" opacity="1" d="M 16.5 33 L 19 34.5 L 17.5 35 L 16.5 33 Z " /><path fill="rgb(80,66,65)" stroke="rgb(80,66,65)" stroke-width="1" opacity="1" d="M 10.5 1 L 23 1.5 L 10.5 2 L 10.5 1 Z " /><path fill="rgb(80,66,65)" stroke="rgb(80,66,65)" stroke-width="1" opacity="1" d="M 8.5 4 L 11 7.5 L 10 7.5 L 8.5 4 Z " /><path fill="rgb(80,66,65)" stroke="rgb(80,66,65)" stroke-width="1" opacity="1" d="M 21.5 4 L 22.5 6 L 21.5 4 Z " /><path fill="rgb(80,66,65)" stroke="rgb(80,66,65)" stroke-width="1" opacity="1" d="M 8.5 7 L 9 9 L 7 8.5 L 8.5 7 Z " /><path fill="rgb(80,66,65)" stroke="rgb(80,66,65)" stroke-width="1" opacity="1" d="M 22.5 7 L 24 9.5 L 22 9.5 L 21.5 11 L 21 9.5 L 22.5 7 Z " /><path fill="rgb(80,66,65)" stroke="rgb(80,66,65)" stroke-width="1" opacity="1" d="M 13.5 12 L 14.5 14 L 13.5 12 Z " /><path fill="rgb(80,66,65)" stroke="rgb(80,66,65)" stroke-width="1" opacity="1" d="M 11.5 35 L 11.5 38 Q 8.5 36.5 11.5 35 Z " /><path fill="rgb(80,66,65)" stroke="rgb(80,66,65)" stroke-width="1" opacity="1" d="M 15.5 36 L 15.5 38 L 17 38.5 L 14.5 40 L 14 37.5 L 15.5 36 Z " /><path fill="rgb(80,66,65)" stroke="rgb(80,66,65)" stroke-width="1" opacity="1" d="M 8.5 43 L 9.5 45 L 8.5 43 Z " /><path fill="rgb(80,66,65)" stroke="rgb(80,66,65)" stroke-width="1" opacity="1" d="M 17.5 44 L 20 44.5 L 17.5 45 L 17.5 44 Z " /><path fill="rgb(80,66,65)" stroke="rgb(80,66,65)" stroke-width="1" opacity="1" d="M 8.5 46 L 9 48 L 15 48.5 L 9.5 49 L 7.5 49 L 2 48.5 L 8 48 L 8.5 46 Z " /><path fill="rgb(80,66,65)" stroke="rgb(80,66,65)" stroke-width="1" opacity="1" d="M 20.5 48 L 23 48.5 L 20.5 49 L 20.5 48 Z " /><path fill="rgb(80,66,65)" stroke="rgb(80,66,65)" stroke-width="1" opacity="1" d="M 25.5 48 L 28 48.5 L 25.5 49 L 25.5 48 Z " /><path fill="rgb(33,22,24)" stroke="rgb(33,22,24)" stroke-width="1" opacity="1" d="M 10.5 9 L 11.5 11 L 10.5 9 Z " /><path fill="rgb(33,22,24)" stroke="rgb(33,22,24)" stroke-width="1" opacity="1" d="M 18.5 9 Q 21.5 10.5 18.5 12 L 18.5 9 Z " /><path fill="rgb(33,22,24)" stroke="rgb(33,22,24)" stroke-width="1" opacity="1" d="M 3.5 16 L 4.5 18 L 3.5 16 Z " /><path fill="rgb(33,22,24)" stroke="rgb(33,22,24)" stroke-width="1" opacity="1" d="M 26.5 16 L 25.5 18 L 24 17.5 L 26.5 16 Z " /><path fill="rgb(33,22,24)" stroke="rgb(33,22,24)" stroke-width="1" opacity="1" d="M 5 20 L 7 20.5 L 5 21.5 L 5 20 Z " /><path fill="rgb(33,22,24)" stroke="rgb(33,22,24)" stroke-width="1" opacity="1" d="M 10.5 21 L 11.5 23 Q 12.8 20.8 14 23.5 L 11.5 24 L 10 22.5 L 10.5 21 Z " /><path fill="rgb(33,22,24)" stroke="rgb(33,22,24)" stroke-width="1" opacity="1" d="M 17.5 22 L 17.5 25 Q 14.5 23.5 17.5 22 Z " /><path fill="rgb(33,22,24)" stroke="rgb(33,22,24)" stroke-width="1" opacity="1" d="M 27.5 22 L 28 23.5 L 26 24.5 L 27.5 22 Z " /><path fill="rgb(33,22,24)" stroke="rgb(33,22,24)" stroke-width="1" opacity="1" d="M 7.5 23 L 6.5 25 L 7.5 23 Z " /><path fill="rgb(33,22,24)" stroke="rgb(33,22,24)" stroke-width="1" opacity="1" d="M 8.5 27 L 12 32.5 L 10 31.5 L 8.5 27 Z " /><path fill="rgb(33,22,24)" stroke="rgb(33,22,24)" stroke-width="1" opacity="1" d="M 16.5 27 L 17 28.5 L 14.5 32 L 13.5 30 L 15 30.5 L 16.5 27 Z " /><path fill="rgb(33,22,24)" stroke="rgb(33,22,24)" stroke-width="1" opacity="1" d="M 2.5 35 L 4 38.5 L 2 37.5 L 2.5 35 Z " /><path fill="rgb(33,22,24)" stroke="rgb(33,22,24)" stroke-width="1" opacity="1" d="M 12.5 39 L 14 39.5 L 11.5 41 L 12.5 39 Z " /><path fill="rgb(240,237,237)" stroke="rgb(240,237,237)" stroke-width="1" opacity="1" d="M 0 0 L 30 0 L 30 50 L 0 50 L 0 0 Z M 2 1 Q 1 4 4 6 Q 5 9 2 8 Q 1 11 4 10 L 4 13 Q 5 17 2 16 L 2 45 L 28 45 L 28 1 L 2 1 Z M 6 46 Q 7 49 3 48 L 3 49 L 28 49 Q 23 49 21 46 Q 13 45 14 48 Q 11 49 12 46 L 6 46 Z " /><path fill="rgb(240,237,237)" stroke="rgb(240,237,237)" stroke-width="1" opacity="1" d="M 23.5 11 L 26 12 Q 27.2 15.7 22 14 L 23.5 11 Z " /><path fill="rgb(50,35,35)" stroke="rgb(50,35,35)" stroke-width="1" opacity="1" d="M 5.5 1 L 10 1.5 L 5.5 2 L 5.5 1 Z " /><path fill="rgb(50,35,35)" stroke="rgb(50,35,35)" stroke-width="1" opacity="1" d="M 23.5 1 L 28 1.5 L 23.5 2 L 23.5 1 Z " /><path fill="rgb(50,35,35)" stroke="rgb(50,35,35)" stroke-width="1" opacity="1" d="M 16.5 2 L 15.5 4 L 16.5 2 Z " /><path fill="rgb(50,35,35)" stroke="rgb(50,35,35)" stroke-width="1" opacity="1" d="M 20.5 5 L 21 6.5 L 20.5 9 Q 17.8 7.8 20 6.5 L 20.5 5 Z " /><path fill="rgb(50,35,35)" stroke="rgb(50,35,35)" stroke-width="1" opacity="1" d="M 22.5 6 L 25 7.5 L 23.5 8 L 22.5 6 Z " /><path fill="rgb(50,35,35)" stroke="rgb(50,35,35)" stroke-width="1" opacity="1" d="M 27.5 14 L 28 16.5 L 27 16.5 L 27.5 14 Z " /><path fill="rgb(50,35,35)" stroke="rgb(50,35,35)" stroke-width="1" opacity="1" d="M 20.5 18 L 19.5 20 L 20.5 18 Z " /><path fill="rgb(50,35,35)" stroke="rgb(50,35,35)" stroke-width="1" opacity="1" d="M 3.5 29 L 4 35.5 L 3 35.5 L 3.5 29 Z " /><path fill="rgb(50,35,35)" stroke="rgb(50,35,35)" stroke-width="1" opacity="1" d="M 27.5 30 L 26.5 32 L 27.5 30 Z " /><path fill="rgb(50,35,35)" stroke="rgb(50,35,35)" stroke-width="1" opacity="1" d="M 13 34 L 20 36.5 L 18 37.5 Q 18.8 34.9 15.5 36 Q 14.3 33.8 13 36.5 Q 15.3 37.8 12.5 39 L 13 35.5 L 13 34 Z " /><path fill="rgb(50,35,35)" stroke="rgb(50,35,35)" stroke-width="1" opacity="1" d="M 27.5 34 L 27 35.5 L 26.5 37 L 26 35.5 L 27.5 34 Z " /><path fill="rgb(50,35,35)" stroke="rgb(50,35,35)" stroke-width="1" opacity="1" d="M 11.5 41 L 13 44.5 L 11 43.5 L 11.5 41 Z " /><path fill="rgb(50,35,35)" stroke="rgb(50,35,35)" stroke-width="1" opacity="1" d="M 17.5 47 L 16.5 49 L 15 48.5 L 17.5 47 Z " /><path fill="rgb(244,151,57)" stroke="rgb(244,151,57)" stroke-width="1" opacity="1" d="M 10.5 12 Q 12.8 11.3 12 13.5 L 14 17 L 17 15.5 L 18.5 12 Q 23.5 15.6 25 22.5 L 23.5 22 L 22 21.5 L 23 19.5 L 20 15 Q 16 13.6 18 20.5 Q 16.8 23.3 15.5 21 Q 11.8 21.8 11 19.5 L 12 17.5 L 9 17 Q 7.9 14.3 10.5 15 L 10.5 14 L 9 13.5 L 10.5 12 Z " /><path fill="rgb(244,151,57)" stroke="rgb(244,151,57)" stroke-width="1" opacity="1" d="M 6.5 14 L 9 20 Q 6.3 21.1 7 18.5 L 6.5 14 Z " /><path fill="rgb(244,151,57)" stroke="rgb(244,151,57)" stroke-width="1" opacity="1" d="M 19 28 L 21 28.5 L 20.5 30 L 23.5 29 L 23 30.5 L 21.5 34 L 21 31 Q 17.7 32.1 19 28 Z " /><path fill="rgb(244,151,57)" stroke="rgb(244,151,57)" stroke-width="1" opacity="1" d="M 20.5 35 L 23 35.5 L 22.5 39 L 20.5 35 Z " /><path fill="rgb(118,72,40)" stroke="rgb(118,72,40)" stroke-width="1" opacity="1" d="M 4.5 8 L 5 10 L 3 9.5 L 4.5 8 Z " /><path fill="rgb(118,72,40)" stroke="rgb(118,72,40)" stroke-width="1" opacity="1" d="M 12.5 9 L 14.5 12 L 12.5 9 Z " /><path fill="rgb(118,72,40)" stroke="rgb(118,72,40)" stroke-width="1" opacity="1" d="M 18.5 15 L 19 18.5 L 18 18.5 L 18.5 15 Z " /><path fill="rgb(118,72,40)" stroke="rgb(118,72,40)" stroke-width="1" opacity="1" d="M 8.5 20 L 9.5 22 L 8.5 20 Z " /><path fill="rgb(118,72,40)" stroke="rgb(118,72,40)" stroke-width="1" opacity="1" d="M 18.5 20 L 20 20.5 L 17.5 22 L 18.5 20 Z " /><path fill="rgb(118,72,40)" stroke="rgb(118,72,40)" stroke-width="1" opacity="1" d="M 6.5 21 L 10 23.5 L 8.5 24 L 6.5 21 Z " /><path fill="rgb(118,72,40)" stroke="rgb(118,72,40)" stroke-width="1" opacity="1" d="M 21.5 22 L 20.5 24 L 18 23.5 L 21.5 22 Z " /><path fill="rgb(118,72,40)" stroke="rgb(118,72,40)" stroke-width="1" opacity="1" d="M 12.5 24 L 11.5 26 L 10 25.5 L 12.5 24 Z " /><path fill="rgb(118,72,40)" stroke="rgb(118,72,40)" stroke-width="1" opacity="1" d="M 14.5 25 L 18 26.5 L 15.5 27 L 13 26.5 L 14.5 25 Z " /><path fill="rgb(118,72,40)" stroke="rgb(118,72,40)" stroke-width="1" opacity="1" d="M 20.5 25 L 19.5 27 L 20.5 25 Z " /><path fill="rgb(118,72,40)" stroke="rgb(118,72,40)" stroke-width="1" opacity="1" d="M 8.5 26 L 9.5 28 L 8.5 26 Z " /><path fill="rgb(118,72,40)" stroke="rgb(118,72,40)" stroke-width="1" opacity="1" d="M 5.5 27 L 6.5 29 L 5.5 27 Z " /><path fill="rgb(118,72,40)" stroke="rgb(118,72,40)" stroke-width="1" opacity="1" d="M 16 30 L 18 30.5 L 16 31.5 L 16 30 Z " /><path fill="rgb(118,72,40)" stroke="rgb(118,72,40)" stroke-width="1" opacity="1" d="M 17.5 33 L 16.5 35 L 15 34.5 L 17.5 33 Z " /><path fill="rgb(118,72,40)" stroke="rgb(118,72,40)" stroke-width="1" opacity="1" d="M 23.5 34 L 24 36.5 L 23 36.5 L 23.5 34 Z " /><path fill="rgb(118,72,40)" stroke="rgb(118,72,40)" stroke-width="1" opacity="1" d="M 7 36 L 9 36.5 L 7 37.5 L 7 36 Z " /><path fill="rgb(191,170,156)" stroke="rgb(191,170,156)" stroke-width="1" opacity="1" d="M 2.5 3 Q 4.8 2.3 4 4.5 L 2.5 3 Z " /><path fill="rgb(191,170,156)" stroke="rgb(191,170,156)" stroke-width="1" opacity="1" d="M 27.5 3 L 28 13.5 L 25.5 12 L 23.5 11 L 22 14 Q 25.8 13 27 15.5 L 25.5 15 L 22.5 16 Q 20 14.8 21 11 L 24 9.5 L 25 7.5 L 24.5 6 Q 28.5 7.1 27.5 3 Z " /><path fill="rgb(191,170,156)" stroke="rgb(191,170,156)" stroke-width="1" opacity="1" d="M 9.5 4 L 13 4.5 L 9.5 5 L 9.5 4 Z " /><path fill="rgb(191,170,156)" stroke="rgb(191,170,156)" stroke-width="1" opacity="1" d="M 4.5 6 L 6.5 6 L 8 6.5 L 4 8 L 4.5 6 Z " /><path fill="rgb(191,170,156)" stroke="rgb(191,170,156)" stroke-width="1" opacity="1" d="M 13.5 6 L 17 8.5 L 15.5 11 L 13.5 6 Z " /><path fill="rgb(191,170,156)" stroke="rgb(191,170,156)" stroke-width="1" opacity="1" d="M 6.5 9 L 10 10.5 L 8 11.5 L 9 13.5 L 8 13.5 L 6.5 9 Z " /><path fill="rgb(191,170,156)" stroke="rgb(191,170,156)" stroke-width="1" opacity="1" d="M 3.5 11 Q 5.8 11.8 5 15.5 L 4 15.5 L 3.5 11 Z " /><path fill="rgb(191,170,156)" stroke="rgb(191,170,156)" stroke-width="1" opacity="1" d="M 6 46 Q 9 45 8 48 Q 5 49 6 46 Z " /><path fill="rgb(191,170,156)" stroke="rgb(191,170,156)" stroke-width="1" opacity="1" d="M 9 46 L 12 46.5 L 9.5 48 L 9 46 Z " /><path fill="rgb(191,170,156)" stroke="rgb(191,170,156)" stroke-width="1" opacity="1" d="M 17.5 46 L 18.5 48 L 17.5 46 Z " /><path fill="rgb(191,170,156)" stroke="rgb(191,170,156)" stroke-width="1" opacity="1" d="M 20.5 46 L 23 47.5 L 21.5 48 L 20.5 46 Z " /><path fill="rgb(249,203,98)" stroke="rgb(249,203,98)" stroke-width="1" opacity="1" d="M 4 29 L 8 29.5 L 7 32.5 L 8 35 L 5.5 36 L 4 33 Q 7 34 6 31 Q 3 32 4 29 Z " /><path fill="rgb(78,41,23)" stroke="rgb(78,41,23)" stroke-width="1" opacity="1" d="M 5.5 15 L 6 17.5 L 5 17.5 L 5.5 15 Z " /><path fill="rgb(78,41,23)" stroke="rgb(78,41,23)" stroke-width="1" opacity="1" d="M 10.5 19 L 12.5 23 L 14.5 23 L 16.5 22 L 19 22.5 L 15.5 28 L 16.5 25 L 13 26.5 L 13.5 28 L 11 26.5 Q 14.8 24.8 11.5 23 L 10.5 25 L 10 23.5 L 11 21 L 9 20.5 L 10.5 19 Z " /><path fill="rgb(78,41,23)" stroke="rgb(78,41,23)" stroke-width="1" opacity="1" d="M 6.5 23 L 9 24.5 L 5.5 26 L 5.5 25 L 7 24.5 L 6.5 23 Z " /><path fill="rgb(78,41,23)" stroke="rgb(78,41,23)" stroke-width="1" opacity="1" d="M 13.5 29 L 15 29.5 L 13 30.5 L 13.5 32 L 11 30.5 L 13.5 29 Z " /><path fill="rgb(78,41,23)" stroke="rgb(78,41,23)" stroke-width="1" opacity="1" d="M 5.5 37 L 6 39.5 L 5 39.5 L 5.5 37 Z " /><path fill="rgb(78,41,23)" stroke="rgb(78,41,23)" stroke-width="1" opacity="1" d="M 23 37 L 26 37.5 L 23.5 39 L 23 37 Z " /><path fill="rgb(142,113,92)" stroke="rgb(142,113,92)" stroke-width="1" opacity="1" d="M 17.5 3 L 17.5 6 L 15 4.5 L 17.5 3 Z " /><path fill="rgb(142,113,92)" stroke="rgb(142,113,92)" stroke-width="1" opacity="1" d="M 13.5 4 L 12.5 6 L 13.5 4 Z " /><path fill="rgb(142,113,92)" stroke="rgb(142,113,92)" stroke-width="1" opacity="1" d="M 6.5 8 L 7.5 10 L 6.5 8 Z " /><path fill="rgb(142,113,92)" stroke="rgb(142,113,92)" stroke-width="1" opacity="1" d="M 13.5 9 Q 15.8 8.3 15 10.5 L 17 10.5 Q 17.8 12.8 15.5 12 L 13 11.5 L 13.5 9 Z " /><path fill="rgb(142,113,92)" stroke="rgb(142,113,92)" stroke-width="1" opacity="1" d="M 23.5 26 L 26 27 L 25.5 29 L 23.5 26 Z " /><path fill="rgb(142,113,92)" stroke="rgb(142,113,92)" stroke-width="1" opacity="1" d="M 27.5 29 L 26.5 31 L 27.5 29 Z " /><path fill="rgb(142,113,92)" stroke="rgb(142,113,92)" stroke-width="1" opacity="1" d="M 11.5 34 L 12.5 38 L 9 35.5 L 11.5 34 Z " /><path fill="rgb(142,113,92)" stroke="rgb(142,113,92)" stroke-width="1" opacity="1" d="M 15.5 46 L 16.5 48 Q 13.7 48.7 15.5 46 Z " /><path fill="rgb(158,92,39)" stroke="rgb(158,92,39)" stroke-width="1" opacity="1" d="M 17.5 12 L 17 13.5 L 16 17 Q 13.3 18.1 14 15.5 L 13.5 14 L 16 15 L 17.5 12 Z " /><path fill="rgb(158,92,39)" stroke="rgb(158,92,39)" stroke-width="1" opacity="1" d="M 8.5 21 L 9.5 23 Q 6.7 23.7 8.5 21 Z " /><path fill="rgb(158,92,39)" stroke="rgb(158,92,39)" stroke-width="1" opacity="1" d="M 13.5 21 L 16 21.5 Q 13.9 24.8 13.5 21 Z " /><path fill="rgb(158,92,39)" stroke="rgb(158,92,39)" stroke-width="1" opacity="1" d="M 18.5 21 L 20.5 21 L 22 21.5 L 19.5 23 L 18.5 21 Z " /><path fill="rgb(158,92,39)" stroke="rgb(158,92,39)" stroke-width="1" opacity="1" d="M 18 24 L 21.5 25 L 23 24.5 Q 21.3 28.8 19.5 26 Q 16.9 26.7 18 24 Z " /><path fill="rgb(158,92,39)" stroke="rgb(158,92,39)" stroke-width="1" opacity="1" d="M 8.5 25 L 11 26.5 L 9.5 26 L 8.5 25 Z " /><path fill="rgb(158,92,39)" stroke="rgb(158,92,39)" stroke-width="1" opacity="1" d="M 17 27 L 19 27.5 L 19 29.5 L 20 31.5 L 17.5 30 L 16 29.5 L 17 27 Z " /><path fill="rgb(158,92,39)" stroke="rgb(158,92,39)" stroke-width="1" opacity="1" d="M 10.5 28 L 13 29.5 L 11.5 30 L 10.5 28 Z " /><path fill="rgb(158,92,39)" stroke="rgb(158,92,39)" stroke-width="1" opacity="1" d="M 24.5 30 L 24 31.5 L 23.5 33 L 23 31.5 L 24.5 30 Z " /><path fill="rgb(158,92,39)" stroke="rgb(158,92,39)" stroke-width="1" opacity="1" d="M 15.5 31 L 16.5 33 L 15.5 31 Z " /><path fill="rgb(158,92,39)" stroke="rgb(158,92,39)" stroke-width="1" opacity="1" d="M 13.5 33 L 12.5 35 L 13.5 33 Z " /><path fill="rgb(158,92,39)" stroke="rgb(158,92,39)" stroke-width="1" opacity="1" d="M 24.5 34 Q 27.5 35.5 24.5 37 L 24.5 34 Z " /><path fill="rgb(158,92,39)" stroke="rgb(158,92,39)" stroke-width="1" opacity="1" d="M 21.5 38 L 22.5 40 L 20 39.5 L 21.5 38 Z " /><path fill="rgb(236,178,82)" stroke="rgb(236,178,82)" stroke-width="1" opacity="1" d="M 5.5 9 L 6.5 11 L 5.5 9 Z " /><path fill="rgb(236,178,82)" stroke="rgb(236,178,82)" stroke-width="1" opacity="1" d="M 10.5 27 L 11.5 29 L 10.5 27 Z " /><path fill="rgb(236,178,82)" stroke="rgb(236,178,82)" stroke-width="1" opacity="1" d="M 23.5 28 L 24.5 30 L 23.5 28 Z " /><path fill="rgb(236,178,82)" stroke="rgb(236,178,82)" stroke-width="1" opacity="1" d="M 7.5 30 L 8 32.5 L 7 32.5 L 7.5 30 Z " /><path fill="rgb(236,178,82)" stroke="rgb(236,178,82)" stroke-width="1" opacity="1" d="M 22.5 33 L 24 33.5 L 21.5 35 L 22.5 33 Z " /><path fill="rgb(236,178,82)" stroke="rgb(236,178,82)" stroke-width="1" opacity="1" d="M 6.5 35 L 7 38.5 L 6 38.5 L 6.5 35 Z " /><path fill="rgb(236,178,82)" stroke="rgb(236,178,82)" stroke-width="1" opacity="1" d="M 5.5 40 L 8 40.5 L 6.5 43 L 5.5 40 Z " /><path fill="rgb(33,26,33)" stroke="rgb(33,26,33)" stroke-width="1" opacity="1" d="M 3 1 L 10 2 L 9.5 4 L 4.5 2 L 3 2.5 L 3 1 Z " /><path fill="rgb(33,26,33)" stroke="rgb(33,26,33)" stroke-width="1" opacity="1" d="M 19.5 2 Q 24.3 0.7 25.5 3 L 27.5 2 L 26 4.5 L 25.5 6 L 20.5 4 L 19.5 2 Z " /><path fill="rgb(33,26,33)" stroke="rgb(33,26,33)" stroke-width="1" opacity="1" d="M 4.5 4 L 7 5.5 L 5.5 6 L 4.5 4 Z " /><path fill="rgb(33,26,33)" stroke="rgb(33,26,33)" stroke-width="1" opacity="1" d="M 20.5 7 L 20 8.5 L 19.5 10 L 19 8.5 L 20.5 7 Z " /><path fill="rgb(33,26,33)" stroke="rgb(33,26,33)" stroke-width="1" opacity="1" d="M 9.5 9 L 11.5 12 Q 9.3 12.8 10 10.5 L 9.5 9 Z " /><path fill="rgb(33,26,33)" stroke="rgb(33,26,33)" stroke-width="1" opacity="1" d="M 24.5 15 L 26 15.5 L 23.5 17 L 24.5 15 Z " /><path fill="rgb(33,26,33)" stroke="rgb(33,26,33)" stroke-width="1" opacity="1" d="M 26 17 Q 29.7 15.7 28 21.5 L 26 20.5 L 26 18.5 L 26 17 Z " /><path fill="rgb(33,26,33)" stroke="rgb(33,26,33)" stroke-width="1" opacity="1" d="M 19.5 18 L 20.5 20 L 19.5 18 Z " /><path fill="rgb(33,26,33)" stroke="rgb(33,26,33)" stroke-width="1" opacity="1" d="M 2.5 23 L 4.5 26 L 2 25 L 2.5 23 Z " /><path fill="rgb(33,26,33)" stroke="rgb(33,26,33)" stroke-width="1" opacity="1" d="M 11.5 38 L 13 40.5 L 11 39.5 L 11.5 38 Z " /><path fill="rgb(33,26,33)" stroke="rgb(33,26,33)" stroke-width="1" opacity="1" d="M 17.5 38 L 17 39.5 L 18 43.5 L 16 42.5 Q 15.3 38.8 17.5 38 Z " /><path fill="rgb(33,26,33)" stroke="rgb(33,26,33)" stroke-width="1" opacity="1" d="M 25.5 39 Q 29.3 37.8 28 41.5 L 25.5 39 Z " /><path fill="rgb(25,18,25)" stroke="rgb(25,18,25)" stroke-width="1" opacity="1" d="M 4.5 3 L 9 3.5 L 6.5 5 L 4.5 3 Z " /><path fill="rgb(25,18,25)" stroke="rgb(25,18,25)" stroke-width="1" opacity="1" d="M 2 18 L 6 19.5 L 5 21.5 Q 7.3 22.8 4.5 24 L 2 22.5 L 2 18 Z " /><path fill="rgb(25,18,25)" stroke="rgb(25,18,25)" stroke-width="1" opacity="1" d="M 26.5 23 L 27.5 25 L 26.5 23 Z " /><path fill="rgb(25,18,25)" stroke="rgb(25,18,25)" stroke-width="1" opacity="1" d="M 2 27 L 5 27.5 Q 1.7 29.2 2.5 35 L 2 27 Z " /><path fill="rgb(25,18,25)" stroke="rgb(25,18,25)" stroke-width="1" opacity="1" d="M 9.5 36 L 11 37.5 Q 9.5 43 12 44.5 L 10.5 45 Q 7.3 44.3 8 39.5 L 9.5 36 Z " /><path fill="rgb(25,18,25)" stroke="rgb(25,18,25)" stroke-width="1" opacity="1" d="M 18.5 38 L 20 38.5 L 20 44 Q 16.7 45.3 18 40.5 Q 15.8 39.3 18.5 38 Z " /><path fill="rgb(25,18,25)" stroke="rgb(25,18,25)" stroke-width="1" opacity="1" d="M 13 40 Q 17.5 38.3 16 43.5 L 13 41.5 L 13 40 Z " /><path fill="rgb(25,18,25)" stroke="rgb(25,18,25)" stroke-width="1" opacity="1" d="M 25.5 41 L 27 44.5 L 25.5 44 L 23 42.5 L 25.5 41 Z " /><path fill="rgb(25,18,25)" stroke="rgb(25,18,25)" stroke-width="1" opacity="1" d="M 2 42 L 5 42.5 L 2 44 L 2 42 Z " /><path fill="rgb(214,120,48)" stroke="rgb(214,120,48)" stroke-width="1" opacity="1" d="M 4.5 10 L 7 11 L 6.5 14 L 4.5 10 Z " /><path fill="rgb(214,120,48)" stroke="rgb(214,120,48)" stroke-width="1" opacity="1" d="M 7.5 15 L 8 17 L 10 17.5 L 8.5 18 L 7.5 15 Z " /><path fill="rgb(214,120,48)" stroke="rgb(214,120,48)" stroke-width="1" opacity="1" d="M 23.5 18 L 23 19.5 L 22.5 21 L 22 19.5 L 23.5 18 Z " /><path fill="rgb(214,120,48)" stroke="rgb(214,120,48)" stroke-width="1" opacity="1" d="M 19.5 21 L 20.5 23 L 19.5 21 Z " /><path fill="rgb(214,120,48)" stroke="rgb(214,120,48)" stroke-width="1" opacity="1" d="M 23.5 22 L 25 25.5 L 24 25.5 L 23.5 22 Z " /><path fill="rgb(214,120,48)" stroke="rgb(214,120,48)" stroke-width="1" opacity="1" d="M 21.5 26 L 23 30 L 21 29.5 L 21 27.5 L 21.5 26 Z " /><path fill="rgb(214,120,48)" stroke="rgb(214,120,48)" stroke-width="1" opacity="1" d="M 18.5 31 L 19 33 L 17 32.5 L 18.5 31 Z " /><path fill="rgb(214,120,48)" stroke="rgb(214,120,48)" stroke-width="1" opacity="1" d="M 24 32 L 28 33.5 L 25.5 35 L 24 32 Z " /><path fill="rgb(214,120,48)" stroke="rgb(214,120,48)" stroke-width="1" opacity="1" d="M 20.5 34 L 22 35.5 L 21.5 38 L 20 36.5 L 20.5 34 Z " /></svg>