<svg width="30" height="50" version="1.1" xmlns="http://www.w3.org/2000/svg" desc="Created with imagetracer.js version 1.2.6" ><path fill="rgb(42,35,39)" stroke="rgb(42,35,39)" stroke-width="1" opacity="1" d="M 2.5 2 L 7 2.5 L 6 5.5 L 6 7.5 L 7.5 10 L 10 10.5 L 6 12 Q 7.3 9 3.5 10 L 2 10.5 L 2.5 4 L 3.5 6 L 4 3 L 2.5 2 Z " /><path fill="rgb(42,35,39)" stroke="rgb(42,35,39)" stroke-width="1" opacity="1" d="M 19.5 2 L 26 2 L 26 4.5 L 23.5 3 Q 20.5 2.1 22 6.5 L 21 6.5 Q 22.5 2.1 19.5 3 L 19.5 2 Z " /><path fill="rgb(42,35,39)" stroke="rgb(42,35,39)" stroke-width="1" opacity="1" d="M 23.5 6 L 24.5 8 Q 21.7 8.7 23.5 6 Z " /><path fill="rgb(42,35,39)" stroke="rgb(42,35,39)" stroke-width="1" opacity="1" d="M 27.5 7 L 28 10 L 24 10.5 L 28 11 Q 29.7 15.1 25.5 14 L 25.5 16 L 23.5 15 L 20 16.5 L 22 17.5 L 19.5 19 L 19 13 Q 22.7 14.5 22 11.5 Q 24.3 10.3 21.5 9 L 19.5 10 L 18.5 8 L 25.5 9 L 27.5 7 Z M 24 12 L 22 14 L 24 14 L 24 12 Z " /><path fill="rgb(42,35,39)" stroke="rgb(42,35,39)" stroke-width="1" opacity="1" d="M 7.5 18 L 7.5 21 L 5.5 21 L 2.5 22 L 3.5 20 L 7.5 18 Z " /><path fill="rgb(42,35,39)" stroke="rgb(42,35,39)" stroke-width="1" opacity="1" d="M 25.5 22 L 27 22.5 L 24 24.5 L 28 28.5 L 28 30.5 L 27 30.5 L 26.5 28 L 25.5 30 L 25 27 L 23 26.5 L 23 24.5 L 25.5 22 Z " /><path fill="rgb(42,35,39)" stroke="rgb(42,35,39)" stroke-width="1" opacity="1" d="M 6 23 Q 9 22 8 25 Q 5 26 6 23 Z " /><path fill="rgb(42,35,39)" stroke="rgb(42,35,39)" stroke-width="1" opacity="1" d="M 3.5 28 L 2.5 30 L 3.5 28 Z " /><path fill="rgb(42,35,39)" stroke="rgb(42,35,39)" stroke-width="1" opacity="1" d="M 20.5 31 L 21 34.5 L 20 34.5 L 20.5 31 Z " /><path fill="rgb(42,35,39)" stroke="rgb(42,35,39)" stroke-width="1" opacity="1" d="M 27.5 33 L 28 34.5 L 27 37.5 L 27.5 39 Q 23.8 39.8 23 37.5 L 24.5 34 L 24.5 38 Q 27.1 38.8 26 35.5 L 27.5 33 Z " /><path fill="rgb(42,35,39)" stroke="rgb(42,35,39)" stroke-width="1" opacity="1" d="M 14.5 34 L 16 36.5 L 14 35.5 L 14.5 34 Z " /><path fill="rgb(42,35,39)" stroke="rgb(42,35,39)" stroke-width="1" opacity="1" d="M 2.5 37 L 3 39.5 L 2 39.5 L 2.5 37 Z " /><path fill="rgb(42,35,39)" stroke="rgb(42,35,39)" stroke-width="1" opacity="1" d="M 27.5 40 L 28 42.5 L 27 42.5 L 27.5 40 Z " /><path fill="rgb(42,35,39)" stroke="rgb(42,35,39)" stroke-width="1" opacity="1" d="M 23.5 44 L 26 44.5 L 23.5 45 L 23.5 44 Z " /><path fill="rgb(116,108,108)" stroke="rgb(116,108,108)" stroke-width="1" opacity="1" d="M 12.5 3 L 13.5 5 L 12.5 3 Z " /><path fill="rgb(116,108,108)" stroke="rgb(116,108,108)" stroke-width="1" opacity="1" d="M 12.5 10 L 12 11.5 Q 13.1 14.8 10.5 14 L 11 12.5 L 12.5 10 Z " /><path fill="rgb(116,108,108)" stroke="rgb(116,108,108)" stroke-width="1" opacity="1" d="M 19.5 12 L 19 13.5 L 18.5 16 L 18 13.5 L 19.5 12 Z " /><path fill="rgb(116,108,108)" stroke="rgb(116,108,108)" stroke-width="1" opacity="1" d="M 11.5 18 L 12 24.5 L 11 24.5 L 11.5 18 Z " /><path fill="rgb(116,108,108)" stroke="rgb(116,108,108)" stroke-width="1" opacity="1" d="M 13.5 18 L 14 20.5 L 13 20.5 L 13.5 18 Z " /><path fill="rgb(116,108,108)" stroke="rgb(116,108,108)" stroke-width="1" opacity="1" d="M 19.5 26 L 20 34.5 L 19 34.5 L 19.5 26 Z " /><path fill="rgb(116,108,108)" stroke="rgb(116,108,108)" stroke-width="1" opacity="1" d="M 10.5 33 L 12 35.5 L 11 35.5 L 10.5 33 Z " /><path fill="rgb(116,108,108)" stroke="rgb(116,108,108)" stroke-width="1" opacity="1" d="M 20.5 39 L 20 40.5 L 19.5 42 L 19 40.5 L 20.5 39 Z " /><path fill="rgb(116,108,108)" stroke="rgb(116,108,108)" stroke-width="1" opacity="1" d="M 12.5 42 L 13.5 44 L 15 43.5 Q 13.5 46.5 12 43.5 L 12.5 42 Z " /><path fill="rgb(120,99,47)" stroke="rgb(120,99,47)" stroke-width="1" opacity="1" d="M 7.5 4 Q 10.5 5.5 7.5 7 Q 4.5 5.5 7.5 4 Z " /><path fill="rgb(120,99,47)" stroke="rgb(120,99,47)" stroke-width="1" opacity="1" d="M 11 5 L 13 5.5 L 12.5 7 L 14 7.5 L 11 8 L 10.5 10 L 9.5 8 Q 12.5 8.7 11 5 Z " /><path fill="rgb(120,99,47)" stroke="rgb(120,99,47)" stroke-width="1" opacity="1" d="M 25 5 L 27 5.5 L 25 6.5 L 25 5 Z " /><path fill="rgb(120,99,47)" stroke="rgb(120,99,47)" stroke-width="1" opacity="1" d="M 17.5 8 L 19 10.5 L 17 9.5 L 17.5 8 Z " /><path fill="rgb(120,99,47)" stroke="rgb(120,99,47)" stroke-width="1" opacity="1" d="M 24.5 31 L 23.5 33 L 24.5 31 Z " /><path fill="rgb(202,179,69)" stroke="rgb(202,179,69)" stroke-width="1" opacity="1" d="M 8.5 2 Q 12.9 0.5 12 3.5 L 9 9 Q 6.3 10.1 7 7.5 L 7 3.5 L 8.5 2 Z " /><path fill="rgb(202,179,69)" stroke="rgb(202,179,69)" stroke-width="1" opacity="1" d="M 22.5 3 L 24.5 6 L 22 5.5 L 22.5 3 Z " /><path fill="rgb(202,179,69)" stroke="rgb(202,179,69)" stroke-width="1" opacity="1" d="M 17.5 7 L 19 7.5 L 17 8 L 16.5 10 L 16 8.5 L 17.5 7 Z " /><path fill="rgb(202,179,69)" stroke="rgb(202,179,69)" stroke-width="1" opacity="1" d="M 21.5 7 L 24 8.5 L 22.5 9 L 21.5 7 Z " /><path fill="rgb(202,179,69)" stroke="rgb(202,179,69)" stroke-width="1" opacity="1" d="M 12.5 8 L 13 10 L 11 9.5 L 12.5 8 Z " /><path fill="rgb(202,179,69)" stroke="rgb(202,179,69)" stroke-width="1" opacity="1" d="M 22.5 33 L 25 33.5 L 22.5 34 L 22.5 33 Z " /><path fill="rgb(64,54,47)" stroke="rgb(64,54,47)" stroke-width="1" opacity="1" d="M 27.5 2 L 28 4.5 L 27 4.5 L 27.5 2 Z " /><path fill="rgb(64,54,47)" stroke="rgb(64,54,47)" stroke-width="1" opacity="1" d="M 23.5 3 Q 27 5 22.5 7 L 23.5 3 Z " /><path fill="rgb(64,54,47)" stroke="rgb(64,54,47)" stroke-width="1" opacity="1" d="M 27.5 6 L 25.5 9 L 24 8.5 L 27.5 6 Z " /><path fill="rgb(64,54,47)" stroke="rgb(64,54,47)" stroke-width="1" opacity="1" d="M 21.5 9 Q 24.5 10.5 21.5 12 Q 18.5 10.5 21.5 9 Z " /><path fill="rgb(64,54,47)" stroke="rgb(64,54,47)" stroke-width="1" opacity="1" d="M 2.5 11 L 4 13.5 L 2 12.5 L 2.5 11 Z " /><path fill="rgb(64,54,47)" stroke="rgb(64,54,47)" stroke-width="1" opacity="1" d="M 24.5 15 L 25.5 17 L 24.5 15 Z " /><path fill="rgb(64,54,47)" stroke="rgb(64,54,47)" stroke-width="1" opacity="1" d="M 6.5 20 L 5.5 22 L 6.5 20 Z " /><path fill="rgb(64,54,47)" stroke="rgb(64,54,47)" stroke-width="1" opacity="1" d="M 19.5 22 L 18.5 24 L 19.5 22 Z " /><path fill="rgb(64,54,47)" stroke="rgb(64,54,47)" stroke-width="1" opacity="1" d="M 21.5 24 L 24 25.5 L 22 26.5 L 22.5 25 L 21.5 24 Z " /><path fill="rgb(64,54,47)" stroke="rgb(64,54,47)" stroke-width="1" opacity="1" d="M 3.5 27 Q 6.8 25.9 6 28.5 L 3 30.5 L 4 28.5 L 3.5 27 Z " /><path fill="rgb(64,54,47)" stroke="rgb(64,54,47)" stroke-width="1" opacity="1" d="M 27.5 31 L 28 32.5 L 25.5 34 L 24.5 32 L 27 33 L 27.5 31 Z " /><path fill="rgb(64,54,47)" stroke="rgb(64,54,47)" stroke-width="1" opacity="1" d="M 23.5 34 L 22.5 36 L 23.5 34 Z " /><path fill="rgb(64,54,47)" stroke="rgb(64,54,47)" stroke-width="1" opacity="1" d="M 17.5 35 L 17.5 38 Q 14.5 36.5 17.5 35 Z " /><path fill="rgb(64,54,47)" stroke="rgb(64,54,47)" stroke-width="1" opacity="1" d="M 8.5 37 L 11 38.5 L 10.5 40 L 10 38 L 8.5 37 Z " /><path fill="rgb(64,54,47)" stroke="rgb(64,54,47)" stroke-width="1" opacity="1" d="M 25.5 42 L 27 44.5 L 26 44.5 L 25.5 43 L 24 43.5 L 25.5 42 Z " /><path fill="rgb(127,127,131)" stroke="rgb(127,127,131)" stroke-width="1" opacity="1" d="M 13.5 12 L 14 14.5 L 13 14.5 L 13.5 12 Z " /><path fill="rgb(127,127,131)" stroke="rgb(127,127,131)" stroke-width="1" opacity="1" d="M 18.5 16 L 19 19.5 L 18 19.5 L 18.5 16 Z " /><path fill="rgb(127,127,131)" stroke="rgb(127,127,131)" stroke-width="1" opacity="1" d="M 16.5 22 Q 18.8 21.3 18 23.5 L 19 25.5 L 18 25.5 L 16.5 22 Z " /><path fill="rgb(127,127,131)" stroke="rgb(127,127,131)" stroke-width="1" opacity="1" d="M 14.5 33 L 15.5 35 L 14.5 33 Z " /><path fill="rgb(127,127,131)" stroke="rgb(127,127,131)" stroke-width="1" opacity="1" d="M 17.5 45 L 18.5 47 L 17.5 45 Z " /><path fill="rgb(157,137,125)" stroke="rgb(157,137,125)" stroke-width="1" opacity="1" d="M 13.5 8 L 14 10.5 L 13 10.5 L 13.5 8 Z " /><path fill="rgb(157,137,125)" stroke="rgb(157,137,125)" stroke-width="1" opacity="1" d="M 22.5 32 L 22 33.5 L 21.5 35 L 21 33.5 L 22.5 32 Z " /><path fill="rgb(248,247,246)" stroke="rgb(248,247,246)" stroke-width="1" opacity="1" d="M 0 0 L 30 0 L 30 50 L 0 50 L 0 0 Z M 2 1 L 2 34 L 1 39 L 1 41 Q -1 47 3 49 Q 11 50 16 47 L 19 48 Q 20 50 22 47 L 25 47 Q 24 44 28 45 L 28 21 L 28 20 L 21 20 L 22 18 Q 24 19 23 16 Q 26 15 25 18 L 28 17 L 28 2 L 19 2 L 19 4 L 17 3 L 17 1 L 2 1 Z M 26 48 L 26 49 L 28 49 L 26 48 Z " /><path fill="rgb(182,41,28)" stroke="rgb(182,41,28)" stroke-width="1" opacity="1" d="M 19.5 10 L 20.5 12 Q 17.7 12.7 19.5 10 Z " /><path fill="rgb(182,41,28)" stroke="rgb(182,41,28)" stroke-width="1" opacity="1" d="M 4.5 21 L 6 23.5 L 4 22.5 L 4.5 21 Z " /><path fill="rgb(182,41,28)" stroke="rgb(182,41,28)" stroke-width="1" opacity="1" d="M 2.5 24 L 8 25 L 10 28.5 L 4 32 Q 2.8 29 6.5 30 L 6 28.5 L 6 27 Q 2.3 28.5 3 25.5 L 2.5 24 Z " /><path fill="rgb(221,215,211)" stroke="rgb(221,215,211)" stroke-width="1" opacity="1" d="M 16.5 1 L 17 3 L 15 2.5 L 16.5 1 Z " /><path fill="rgb(221,215,211)" stroke="rgb(221,215,211)" stroke-width="1" opacity="1" d="M 14.5 4 Q 19 3 20 5.5 Q 20.8 7.8 18.5 7 Q 14.5 6.5 14.5 4 Z " /><path fill="rgb(221,215,211)" stroke="rgb(221,215,211)" stroke-width="1" opacity="1" d="M 4.5 10 L 6.5 13 L 12 15 L 12.5 11 L 13 15 Q 15.7 13.9 15 16.5 L 13.5 16 Q 9.8 15 11 18 L 8 18 L 7.5 16 L 5.5 16 Q 2.9 15.3 4 18 L 2 18 L 2 15 Q 4.7 16.1 4 13.5 L 3 11.5 L 4.5 10 Z " /><path fill="rgb(221,215,211)" stroke="rgb(221,215,211)" stroke-width="1" opacity="1" d="M 18.5 12 L 18 13.5 L 17.5 19 L 16 14.5 L 18.5 12 Z " /><path fill="rgb(221,215,211)" stroke="rgb(221,215,211)" stroke-width="1" opacity="1" d="M 14.5 18 L 17 21.5 L 15 22.5 L 17 23.5 L 17 25.5 L 16.5 35 L 13 33 L 12.5 35 Q 10 34 11 29.5 L 12 28.5 L 12 21 Q 15.1 22.1 14.5 18 Z " /><path fill="rgb(221,215,211)" stroke="rgb(221,215,211)" stroke-width="1" opacity="1" d="M 20.5 20 L 28 20.5 L 28 22.5 L 27.5 27 L 25 24.5 L 26.5 22 L 24.5 21 L 24 23 L 19 21.5 L 20.5 20 Z " /><path fill="rgb(221,215,211)" stroke="rgb(221,215,211)" stroke-width="1" opacity="1" d="M 1.5 34 L 2 38.5 L 1 38.5 L 1.5 34 Z " /><path fill="rgb(221,215,211)" stroke="rgb(221,215,211)" stroke-width="1" opacity="1" d="M 3 37 L 7 38.5 L 6 40.5 L 7 42.5 L 5.5 42 L 3.5 43 L 1 42 Q -0.1 39.3 2.5 40 L 4 40.5 L 3 37 Z " /><path fill="rgb(221,215,211)" stroke="rgb(221,215,211)" stroke-width="1" opacity="1" d="M 2 45 Q 4.7 43.9 4 46.5 L 7.5 48 Q 8.8 45.7 10 48.5 L 2 49 L 2 45 Z " /><path fill="rgb(221,215,211)" stroke="rgb(221,215,211)" stroke-width="1" opacity="1" d="M 11.5 45 L 13 48 Q 9.5 49.1 11.5 45 Z " /><path fill="rgb(221,215,211)" stroke="rgb(221,215,211)" stroke-width="1" opacity="1" d="M 20.5 47 L 19.5 49 L 20.5 47 Z " /><path fill="rgb(175,178,181)" stroke="rgb(175,178,181)" stroke-width="1" opacity="1" d="M 17.5 27 L 19 30.5 L 18 30.5 L 17.5 27 Z " /><path fill="rgb(175,178,181)" stroke="rgb(175,178,181)" stroke-width="1" opacity="1" d="M 23.5 27 L 24 28.5 L 22 29.5 L 23.5 27 Z " /><path fill="rgb(175,178,181)" stroke="rgb(175,178,181)" stroke-width="1" opacity="1" d="M 6.5 36 L 8 39.5 L 7 39.5 L 6.5 36 Z " /><path fill="rgb(175,178,181)" stroke="rgb(175,178,181)" stroke-width="1" opacity="1" d="M 13.5 37 L 15 39.5 L 13 38.5 L 13.5 37 Z " /><path fill="rgb(175,178,181)" stroke="rgb(175,178,181)" stroke-width="1" opacity="1" d="M 10.5 45 L 9.5 47 L 10.5 45 Z " /><path fill="rgb(83,80,81)" stroke="rgb(83,80,81)" stroke-width="1" opacity="1" d="M 7.5 2 L 7 3.5 L 6.5 5 L 6 3.5 L 7.5 2 Z " /><path fill="rgb(83,80,81)" stroke="rgb(83,80,81)" stroke-width="1" opacity="1" d="M 7.5 19 L 9 21.5 L 8 21.5 L 7.5 19 Z " /><path fill="rgb(83,80,81)" stroke="rgb(83,80,81)" stroke-width="1" opacity="1" d="M 24.5 22 L 23.5 24 L 24.5 22 Z " /><path fill="rgb(83,80,81)" stroke="rgb(83,80,81)" stroke-width="1" opacity="1" d="M 10.5 27 L 11 29.5 L 10 29.5 L 10.5 27 Z " /><path fill="rgb(83,80,81)" stroke="rgb(83,80,81)" stroke-width="1" opacity="1" d="M 24.5 28 L 24.5 31 Q 21.5 29.5 24.5 28 Z " /><path fill="rgb(83,80,81)" stroke="rgb(83,80,81)" stroke-width="1" opacity="1" d="M 9.5 31 Q 11.8 30.3 11 32.5 L 9.5 31 Z " /><path fill="rgb(83,80,81)" stroke="rgb(83,80,81)" stroke-width="1" opacity="1" d="M 9.5 35 L 10 37 L 12.5 36 L 11.5 38 L 9 36.5 L 9.5 35 Z " /><path fill="rgb(83,80,81)" stroke="rgb(83,80,81)" stroke-width="1" opacity="1" d="M 20.5 35 Q 23.3 36.3 21 37.5 L 22 41 L 19 39.5 L 21 36.5 L 20.5 35 Z " /><path fill="rgb(83,80,81)" stroke="rgb(83,80,81)" stroke-width="1" opacity="1" d="M 8.5 38 L 10 40.5 L 8 39.5 L 8.5 38 Z " /><path fill="rgb(83,80,81)" stroke="rgb(83,80,81)" stroke-width="1" opacity="1" d="M 19.5 42 L 21.5 45 L 23 44.5 L 21.5 46 Q 20 42.5 18.5 45 L 14 44.5 L 19 44 L 19.5 42 Z " /><path fill="rgb(83,80,81)" stroke="rgb(83,80,81)" stroke-width="1" opacity="1" d="M 6.5 43 L 9 44.5 L 6 45 L 6.5 43 Z " /><path fill="rgb(204,193,181)" stroke="rgb(204,193,181)" stroke-width="1" opacity="1" d="M 13.5 1 L 16 1.5 Q 13.9 4.8 13.5 1 Z " /><path fill="rgb(204,193,181)" stroke="rgb(204,193,181)" stroke-width="1" opacity="1" d="M 15.5 6 L 16 9.5 L 15 9.5 L 15.5 6 Z " /><path fill="rgb(204,193,181)" stroke="rgb(204,193,181)" stroke-width="1" opacity="1" d="M 13.5 11 L 18 12.5 L 16.5 13 L 13.5 12 L 13.5 11 Z " /><path fill="rgb(204,193,181)" stroke="rgb(204,193,181)" stroke-width="1" opacity="1" d="M 14.5 17 L 17 17.5 Q 17.8 19.8 15.5 19 L 14.5 17 Z " /><path fill="rgb(204,193,181)" stroke="rgb(204,193,181)" stroke-width="1" opacity="1" d="M 6.5 21 L 7.5 23 L 6.5 21 Z " /><path fill="rgb(204,193,181)" stroke="rgb(204,193,181)" stroke-width="1" opacity="1" d="M 17.5 26 L 18.5 28 L 17.5 26 Z " /><path fill="rgb(204,193,181)" stroke="rgb(204,193,181)" stroke-width="1" opacity="1" d="M 6.5 40 L 8 42.5 L 7 42.5 L 6.5 40 Z " /><path fill="rgb(204,193,181)" stroke="rgb(204,193,181)" stroke-width="1" opacity="1" d="M 6.5 45 L 10 45.5 L 6.5 46 L 6.5 45 Z " /><path fill="rgb(204,193,181)" stroke="rgb(204,193,181)" stroke-width="1" opacity="1" d="M 15.5 45 L 19 47.5 L 16.5 46 L 15.5 45 Z " /><path fill="rgb(148,146,150)" stroke="rgb(148,146,150)" stroke-width="1" opacity="1" d="M 10.5 24 L 11.5 26 L 10.5 24 Z " /><path fill="rgb(148,146,150)" stroke="rgb(148,146,150)" stroke-width="1" opacity="1" d="M 12.5 35 L 13.5 37 L 12.5 35 Z " /><path fill="rgb(148,146,150)" stroke="rgb(148,146,150)" stroke-width="1" opacity="1" d="M 18.5 37 L 18 38.5 L 19 43.5 L 17 42.5 Q 16 38 18.5 37 Z " /><path fill="rgb(148,146,150)" stroke="rgb(148,146,150)" stroke-width="1" opacity="1" d="M 12.5 39 L 14 41.5 L 12 40.5 L 12.5 39 Z " /><path fill="rgb(148,146,150)" stroke="rgb(148,146,150)" stroke-width="1" opacity="1" d="M 13 45 L 15 45.5 L 13 46.5 L 13 45 Z " /><path fill="rgb(148,146,150)" stroke="rgb(148,146,150)" stroke-width="1" opacity="1" d="M 22.5 45 L 23.5 47 L 22.5 45 Z " /><path fill="rgb(167,161,162)" stroke="rgb(167,161,162)" stroke-width="1" opacity="1" d="M 16.5 16 L 15.5 18 L 16.5 16 Z " /><path fill="rgb(167,161,162)" stroke="rgb(167,161,162)" stroke-width="1" opacity="1" d="M 12.5 41 L 13.5 43 L 12.5 41 Z " /><path fill="rgb(167,161,162)" stroke="rgb(167,161,162)" stroke-width="1" opacity="1" d="M 21.5 41 Q 23.8 40.3 23 42.5 L 21.5 41 Z " /><path fill="rgb(37,27,32)" stroke="rgb(37,27,32)" stroke-width="1" opacity="1" d="M 2.5 3 Q 5.1 2.2 4 5.5 L 3 5.5 L 2.5 3 Z " /><path fill="rgb(37,27,32)" stroke="rgb(37,27,32)" stroke-width="1" opacity="1" d="M 24.5 6 L 25.5 8 L 24.5 6 Z " /><path fill="rgb(37,27,32)" stroke="rgb(37,27,32)" stroke-width="1" opacity="1" d="M 7.5 9 L 11 10.5 Q 11.8 13.1 8.5 12 L 8.5 11 L 10 10.5 Q 6.7 10.6 7.5 9 Z " /><path fill="rgb(37,27,32)" stroke="rgb(37,27,32)" stroke-width="1" opacity="1" d="M 10.5 18 L 11 20 L 9 19.5 L 10.5 18 Z " /><path fill="rgb(37,27,32)" stroke="rgb(37,27,32)" stroke-width="1" opacity="1" d="M 5.5 22 L 5.5 25 L 3 23.5 L 5.5 22 Z " /><path fill="rgb(37,27,32)" stroke="rgb(37,27,32)" stroke-width="1" opacity="1" d="M 20 29 L 22 29.5 L 20 30.5 L 20 29 Z " /><path fill="rgb(37,27,32)" stroke="rgb(37,27,32)" stroke-width="1" opacity="1" d="M 6.5 31 L 7 35 Q 10 36.3 9 32.5 L 10 32.5 L 11 34.5 L 9 35 L 8.5 37 L 3.5 36 L 2 36.5 L 3.5 34 L 5.5 35 L 5 33.5 L 6.5 31 Z " /><path fill="rgb(37,27,32)" stroke="rgb(37,27,32)" stroke-width="1" opacity="1" d="M 25.5 34 L 26 38 L 24 38.5 L 28 39.5 L 24 42.5 L 23 39 L 21 38.5 L 22.5 36 L 23.5 38 L 25.5 34 Z " /><path fill="rgb(37,27,32)" stroke="rgb(37,27,32)" stroke-width="1" opacity="1" d="M 27.5 35 L 28 37.5 L 27 37.5 L 27.5 35 Z " /><path fill="rgb(37,27,32)" stroke="rgb(37,27,32)" stroke-width="1" opacity="1" d="M 2 43 Q 6.1 41.7 5 45 Q 0.9 46.3 2 43 Z " /></svg>