<svg width="30" height="50" version="1.1" xmlns="http://www.w3.org/2000/svg" desc="Created with imagetracer.js version 1.2.6" ><path fill="rgb(203,224,221)" stroke="rgb(203,224,221)" stroke-width="1" opacity="1" d="M 11.5 5 L 13 7.5 L 12 7.5 L 11.5 5 Z " /><path fill="rgb(203,224,221)" stroke="rgb(203,224,221)" stroke-width="1" opacity="1" d="M 13.5 18 L 12.5 20 L 13.5 18 Z " /><path fill="rgb(203,224,221)" stroke="rgb(203,224,221)" stroke-width="1" opacity="1" d="M 26.5 22 L 27.5 24 L 26.5 22 Z " /><path fill="rgb(203,224,221)" stroke="rgb(203,224,221)" stroke-width="1" opacity="1" d="M 11.5 23 L 12.5 25 L 14.5 24 L 14.5 25 L 12.5 26 L 11.5 23 Z " /><path fill="rgb(203,224,221)" stroke="rgb(203,224,221)" stroke-width="1" opacity="1" d="M 14.5 45 L 17.5 47 L 19.5 46 L 19.5 47 L 12.5 49 L 11.5 47 L 14 48 L 14.5 45 Z " /><path fill="rgb(251,250,250)" stroke="rgb(251,250,250)" stroke-width="1" opacity="1" d="M 0 0 L 30 0 L 30 50 L 0 50 L 0 0 Z M 2 2 L 2 8 L 2 12 L 1 14 L 1 30 L 2 31 L 1 33 L 2 36 L 1 40 L 1 42 L 1 45 Q 4 44 3 47 L 5 47 Q 6 49 3 48 L 3 49 L 17 49 L 19 47 L 23 47 Q 22 44 28 45 L 28 32 L 29 31 Q 27 27 28 20 L 28 18 L 28 2 L 2 2 Z " /><path fill="rgb(251,250,250)" stroke="rgb(251,250,250)" stroke-width="1" opacity="1" d="M 4.5 4 L 6 7 Q 2.5 8.1 4.5 4 Z " /><path fill="rgb(251,250,250)" stroke="rgb(251,250,250)" stroke-width="1" opacity="1" d="M 24.5 4 L 25 6.5 L 24 6.5 L 24.5 4 Z " /><path fill="rgb(251,250,250)" stroke="rgb(251,250,250)" stroke-width="1" opacity="1" d="M 13 7 L 18 7.5 L 17.5 9 L 20 9.5 L 15.5 13 L 13.5 12 L 12 12.5 L 13 11.5 L 11.5 9 Q 14.1 9.7 13 7 Z " /><path fill="rgb(251,250,250)" stroke="rgb(251,250,250)" stroke-width="1" opacity="1" d="M 4 10 Q 7.3 8.9 6 13 Q 2.7 14.1 4 10 Z " /><path fill="rgb(251,250,250)" stroke="rgb(251,250,250)" stroke-width="1" opacity="1" d="M 24.5 10 L 26 13 Q 22.5 14.1 24.5 10 Z " /><path fill="rgb(251,250,250)" stroke="rgb(251,250,250)" stroke-width="1" opacity="1" d="M 8.5 16 L 9.5 18 L 7 17.5 L 8.5 16 Z " /><path fill="rgb(251,250,250)" stroke="rgb(251,250,250)" stroke-width="1" opacity="1" d="M 21.5 16 Q 24.5 15.2 23 19 L 20 17.5 L 21.5 16 Z " /><path fill="rgb(251,250,250)" stroke="rgb(251,250,250)" stroke-width="1" opacity="1" d="M 5.5 21 L 6 23.5 L 4 22.5 L 5.5 21 Z " /><path fill="rgb(251,250,250)" stroke="rgb(251,250,250)" stroke-width="1" opacity="1" d="M 12.5 45 Q 14.8 44.3 14 46.5 Q 12.5 49.5 11 46.5 L 12.5 45 Z " /><path fill="rgb(236,237,233)" stroke="rgb(236,237,233)" stroke-width="1" opacity="1" d="M 16.5 12 L 19 13.5 L 17.5 13 L 16.5 12 Z " /><path fill="rgb(236,237,233)" stroke="rgb(236,237,233)" stroke-width="1" opacity="1" d="M 1.5 13 L 2 17.5 L 1 17.5 L 1.5 13 Z " /><path fill="rgb(236,237,233)" stroke="rgb(236,237,233)" stroke-width="1" opacity="1" d="M 11.5 18 L 13 18.5 L 11.5 21 Q 8.5 19.5 11.5 18 Z " /><path fill="rgb(236,237,233)" stroke="rgb(236,237,233)" stroke-width="1" opacity="1" d="M 1.5 19 L 2 29.5 L 1 29.5 L 1.5 19 Z " /><path fill="rgb(236,237,233)" stroke="rgb(236,237,233)" stroke-width="1" opacity="1" d="M 22.5 23 Q 25.1 22.2 24 25.5 L 23 25.5 L 22.5 23 Z " /><path fill="rgb(236,237,233)" stroke="rgb(236,237,233)" stroke-width="1" opacity="1" d="M 1.5 32 L 2 34.5 L 1 34.5 L 1.5 32 Z " /><path fill="rgb(236,237,233)" stroke="rgb(236,237,233)" stroke-width="1" opacity="1" d="M 1.5 41 L 2 44.5 L 1 44.5 L 1.5 41 Z " /><path fill="rgb(236,237,233)" stroke="rgb(236,237,233)" stroke-width="1" opacity="1" d="M 3 45 L 6 46.5 L 3 46.5 L 3 45 Z " /><path fill="rgb(236,237,233)" stroke="rgb(236,237,233)" stroke-width="1" opacity="1" d="M 7 45 L 9 45.5 L 7 46.5 L 7 45 Z " /><path fill="rgb(225,244,249)" stroke="rgb(225,244,249)" stroke-width="1" opacity="1" d="M 5.5 3 L 7 6.5 L 5 7.5 L 6 5.5 L 5.5 3 Z " /><path fill="rgb(225,244,249)" stroke="rgb(225,244,249)" stroke-width="1" opacity="1" d="M 23.5 4 L 24.5 7 L 25.5 4 L 26 6.5 Q 24.5 9.5 23 6.5 L 23.5 4 Z " /><path fill="rgb(225,244,249)" stroke="rgb(225,244,249)" stroke-width="1" opacity="1" d="M 20.5 9 L 19.5 11 L 20.5 9 Z " /><path fill="rgb(225,244,249)" stroke="rgb(225,244,249)" stroke-width="1" opacity="1" d="M 23.5 10 L 25 13.5 L 22 11.5 L 23.5 10 Z " /><path fill="rgb(225,244,249)" stroke="rgb(225,244,249)" stroke-width="1" opacity="1" d="M 6.5 11 L 7 12.5 L 5 13.5 L 6.5 11 Z " /><path fill="rgb(225,244,249)" stroke="rgb(225,244,249)" stroke-width="1" opacity="1" d="M 18.5 12 L 19.5 14 L 18.5 12 Z " /><path fill="rgb(225,244,249)" stroke="rgb(225,244,249)" stroke-width="1" opacity="1" d="M 9.5 16 L 10.5 18 L 9.5 16 Z " /><path fill="rgb(225,244,249)" stroke="rgb(225,244,249)" stroke-width="1" opacity="1" d="M 20.5 16 L 20.5 19 Q 17.5 17.5 20.5 16 Z " /><path fill="rgb(225,244,249)" stroke="rgb(225,244,249)" stroke-width="1" opacity="1" d="M 5.5 20 L 7 23.5 L 6 23.5 L 5.5 21 L 3 22.5 L 5.5 20 Z " /><path fill="rgb(141,235,249)" stroke="rgb(141,235,249)" stroke-width="1" opacity="1" d="M 2.5 2 L 5 2.5 L 3 5.5 L 5 9.5 L 3 13.5 L 5.5 14 L 8 11.5 L 6 7.5 L 10 4.5 L 11 6.5 L 10.5 9 Q 7.9 8.3 9 11 Q 11.7 9.9 11 12.5 L 10 14.5 L 11.5 14 L 13 14.5 L 11.5 18 L 7.5 15 L 6 19 L 9 20.5 Q 8.3 23.1 11 22 L 11 24.5 L 7.5 26 Q 4.3 24.3 8 22.5 L 6 20.5 L 5.5 19 L 3 23.5 Q 5.2 24.8 2.5 26 L 2.5 2 Z " /><path fill="rgb(141,235,249)" stroke="rgb(141,235,249)" stroke-width="1" opacity="1" d="M 6.5 2 Q 12.6 0.8 12 3.5 L 10.5 3 L 7.5 4 L 6.5 2 Z " /><path fill="rgb(248,215,143)" stroke="rgb(248,215,143)" stroke-width="1" opacity="1" d="M 15.5 19 L 20.5 19 L 26 22 L 24.5 25 L 23.5 22 L 18.5 20 L 21.5 24 Q 24.5 23.1 23 27.5 L 21 31.5 L 22.5 32 L 24 31.5 L 20.5 34 Q 17.8 32.8 20 31.5 L 18.5 28 L 12.5 29 L 10 27.5 Q 11.3 24.8 12.5 27 L 18 25.5 L 13 23 L 12.5 25 L 12 23.5 L 15 21.5 L 12 20.5 L 15.5 19 Z " /><path fill="rgb(191,168,128)" stroke="rgb(191,168,128)" stroke-width="1" opacity="1" d="M 15.5 18 L 17 18.5 L 13.5 20 L 13.5 19 L 15.5 18 Z " /><path fill="rgb(191,168,128)" stroke="rgb(191,168,128)" stroke-width="1" opacity="1" d="M 18.5 20 Q 20.8 19.3 20 21.5 L 18.5 20 Z " /><path fill="rgb(191,168,128)" stroke="rgb(191,168,128)" stroke-width="1" opacity="1" d="M 12.5 22 L 17 24.5 L 15.5 25 L 12.5 22 Z " /><path fill="rgb(191,168,128)" stroke="rgb(191,168,128)" stroke-width="1" opacity="1" d="M 4.5 25 L 5 27 L 2 26.5 L 4.5 25 Z " /><path fill="rgb(191,168,128)" stroke="rgb(191,168,128)" stroke-width="1" opacity="1" d="M 11.5 25 L 12.5 27 L 10.5 27 L 8 26.5 L 11.5 25 Z " /><path fill="rgb(191,168,128)" stroke="rgb(191,168,128)" stroke-width="1" opacity="1" d="M 18.5 28 L 20 31.5 L 19 31.5 L 18.5 28 Z " /><path fill="rgb(191,168,128)" stroke="rgb(191,168,128)" stroke-width="1" opacity="1" d="M 13.5 34 Q 15.8 33.3 15 35.5 L 13.5 34 Z " /><path fill="rgb(162,238,249)" stroke="rgb(162,238,249)" stroke-width="1" opacity="1" d="M 3.5 2 L 7.5 4 L 8.5 3 L 11.5 4 Q 12.8 1.7 14 4.5 Q 14.7 7.1 12 6 L 12 8.5 L 10 7.5 L 10 5.5 L 9.5 4 L 6 5 L 5.5 3 Q 3.7 5.5 3.5 2 Z " /><path fill="rgb(162,238,249)" stroke="rgb(162,238,249)" stroke-width="1" opacity="1" d="M 18 2 L 28 2 L 28 16 Q 25.3 17.1 26 14.5 Q 23.5 13 27 11.5 L 24.5 9 Q 19.8 11.3 24 13.5 L 23.5 17 Q 21 12.5 18.5 18 L 12 18 L 12 15.5 Q 14.3 14.3 11.5 13 L 10 13.5 L 11 11 Q 8.3 12.1 9 9.5 L 12 11.5 Q 11.3 14.1 14 13 L 14 16 L 15.5 16 L 18.5 14 L 20.5 15 L 19 12.5 L 21 9.5 L 19 9 Q 20.5 5.2 17.5 6 L 16 6.5 L 16.5 4 L 18 4.5 L 18 2 Z M 25 3 L 23 7 Q 25 10 26 7 L 25 3 Z " /><path fill="rgb(162,238,249)" stroke="rgb(162,238,249)" stroke-width="1" opacity="1" d="M 6.5 16 L 7 18.5 L 6 18.5 L 6.5 16 Z " /><path fill="rgb(162,238,249)" stroke="rgb(162,238,249)" stroke-width="1" opacity="1" d="M 3.5 23 L 7 25.5 L 5.5 25 L 3.5 23 Z " /><path fill="rgb(162,238,249)" stroke="rgb(162,238,249)" stroke-width="1" opacity="1" d="M 13.5 25 L 17 25.5 L 13.5 26 L 13.5 25 Z " /><path fill="rgb(162,238,249)" stroke="rgb(162,238,249)" stroke-width="1" opacity="1" d="M 12.5 39 L 16 39.5 L 14 40 Q 15.3 43 11.5 42 Q 10.3 44.2 5.5 43 L 3.5 40 Q 4.8 43.3 10.5 42 L 10.5 41 L 7 40.5 L 10.5 40 L 12.5 41 L 12.5 39 Z " /><path fill="rgb(213,113,37)" stroke="rgb(213,113,37)" stroke-width="1" opacity="1" d="M 26 24 Q 28.7 22.9 28 25.5 L 25.5 27 L 26 25.5 L 26 24 Z " /><path fill="rgb(213,113,37)" stroke="rgb(213,113,37)" stroke-width="1" opacity="1" d="M 6.5 29 L 9 29.5 L 8.5 32 L 5 30.5 L 6.5 29 Z " /><path fill="rgb(214,201,87)" stroke="rgb(214,201,87)" stroke-width="1" opacity="1" d="M 27.5 26 L 26.5 28 L 27.5 26 Z " /><path fill="rgb(214,201,87)" stroke="rgb(214,201,87)" stroke-width="1" opacity="1" d="M 10.5 28 L 8.5 31 L 10.5 28 Z " /><path fill="rgb(214,201,87)" stroke="rgb(214,201,87)" stroke-width="1" opacity="1" d="M 17.5 28 L 18 30.5 L 17 30.5 L 17.5 28 Z " /><path fill="rgb(214,201,87)" stroke="rgb(214,201,87)" stroke-width="1" opacity="1" d="M 13.5 29 Q 18 31 14.5 33 L 12.5 32 L 11 32.5 L 13.5 29 Z " /><path fill="rgb(214,201,87)" stroke="rgb(214,201,87)" stroke-width="1" opacity="1" d="M 26.5 33 L 27.5 35 Q 24.7 35.7 26.5 33 Z " /><path fill="rgb(214,201,87)" stroke="rgb(214,201,87)" stroke-width="1" opacity="1" d="M 21.5 35 L 24 35.5 L 20.5 37 L 21.5 35 Z " /><path fill="rgb(214,201,87)" stroke="rgb(214,201,87)" stroke-width="1" opacity="1" d="M 12.5 44 L 16 44.5 L 12.5 45 L 12.5 44 Z " /><path fill="rgb(89,83,38)" stroke="rgb(89,83,38)" stroke-width="1" opacity="1" d="M 26.5 17 L 27.5 19 L 24 18.5 L 26.5 17 Z " /><path fill="rgb(89,83,38)" stroke="rgb(89,83,38)" stroke-width="1" opacity="1" d="M 5.5 26 L 8 26.5 L 5.5 27 L 5.5 26 Z " /><path fill="rgb(89,83,38)" stroke="rgb(89,83,38)" stroke-width="1" opacity="1" d="M 5.5 28 L 8 28.5 L 4.5 30 L 5.5 28 Z " /><path fill="rgb(89,83,38)" stroke="rgb(89,83,38)" stroke-width="1" opacity="1" d="M 25.5 28 L 28 29 L 27.5 32 L 27 30 Q 23.8 31 25.5 28 Z " /><path fill="rgb(89,83,38)" stroke="rgb(89,83,38)" stroke-width="1" opacity="1" d="M 23.5 29 L 24 31 L 22 30.5 L 23.5 29 Z " /><path fill="rgb(89,83,38)" stroke="rgb(89,83,38)" stroke-width="1" opacity="1" d="M 9.5 30 Q 13.3 29 12 32 L 9.5 30 Z " /><path fill="rgb(89,83,38)" stroke="rgb(89,83,38)" stroke-width="1" opacity="1" d="M 15.5 30 L 19 31.5 L 16.5 32 L 15.5 30 Z " /><path fill="rgb(89,83,38)" stroke="rgb(89,83,38)" stroke-width="1" opacity="1" d="M 3.5 31 L 3.5 33 L 7 32.5 L 6.5 31 Q 8.8 33.8 14 33.5 L 8.5 34 L 6.5 34 Q 1.1 35.9 2 32.5 L 3.5 31 Z " /><path fill="rgb(89,83,38)" stroke="rgb(89,83,38)" stroke-width="1" opacity="1" d="M 23 32 Q 26.7 30.6 25 36.5 L 25.5 38 Q 22.9 38.8 24 35.5 L 23 32 Z " /><path fill="rgb(89,83,38)" stroke="rgb(89,83,38)" stroke-width="1" opacity="1" d="M 15.5 33 L 19 33.5 L 15.5 34 L 15.5 33 Z " /><path fill="rgb(89,83,38)" stroke="rgb(89,83,38)" stroke-width="1" opacity="1" d="M 17.5 35 Q 19.8 34.3 19 36.5 L 17.5 35 Z " /><path fill="rgb(89,83,38)" stroke="rgb(89,83,38)" stroke-width="1" opacity="1" d="M 21.5 36 L 22 38 L 20 37.5 L 21.5 36 Z " /><path fill="rgb(89,83,38)" stroke="rgb(89,83,38)" stroke-width="1" opacity="1" d="M 20 42 Q 23 41 22 44 Q 19 45 20 42 Z " /><path fill="rgb(89,83,38)" stroke="rgb(89,83,38)" stroke-width="1" opacity="1" d="M 21.5 45 L 22 47 L 20 46.5 L 21.5 45 Z " /><path fill="rgb(94,122,127)" stroke="rgb(94,122,127)" stroke-width="1" opacity="1" d="M 13.5 2 L 16 2.5 Q 13.9 5.8 13.5 2 Z " /><path fill="rgb(94,122,127)" stroke="rgb(94,122,127)" stroke-width="1" opacity="1" d="M 24.5 27 L 25 30.5 L 24 30.5 L 24.5 27 Z " /><path fill="rgb(94,122,127)" stroke="rgb(94,122,127)" stroke-width="1" opacity="1" d="M 9.5 34 L 12 35.5 L 10 36 L 11 39.5 L 8 40 L 7 37.5 L 7.5 36 Q 3.1 34.5 4 37.5 L 3 37.5 L 2 35.5 L 9.5 34 Z " /><path fill="rgb(94,122,127)" stroke="rgb(94,122,127)" stroke-width="1" opacity="1" d="M 26.5 37 L 28 37.5 L 26 38.5 L 26.5 40 Q 23.5 38.5 26.5 37 Z " /><path fill="rgb(94,122,127)" stroke="rgb(94,122,127)" stroke-width="1" opacity="1" d="M 16.5 40 L 17.5 42 L 16.5 40 Z " /><path fill="rgb(94,122,127)" stroke="rgb(94,122,127)" stroke-width="1" opacity="1" d="M 4.5 42 L 3.5 44 L 4.5 42 Z " /><path fill="rgb(94,122,127)" stroke="rgb(94,122,127)" stroke-width="1" opacity="1" d="M 2.5 48 L 5 48.5 L 2.5 49 L 2.5 48 Z " /><path fill="rgb(157,219,232)" stroke="rgb(157,219,232)" stroke-width="1" opacity="1" d="M 15.5 3 L 18 6.5 L 15.5 5 L 14 4.5 L 15.5 3 Z " /><path fill="rgb(157,219,232)" stroke="rgb(157,219,232)" stroke-width="1" opacity="1" d="M 16 13 L 18 13.5 L 14.5 16 L 14.5 15 Q 17.1 15.7 16 13 Z " /><path fill="rgb(157,219,232)" stroke="rgb(157,219,232)" stroke-width="1" opacity="1" d="M 19.5 14 L 22 15.5 L 20.5 15 L 19.5 14 Z " /><path fill="rgb(157,219,232)" stroke="rgb(157,219,232)" stroke-width="1" opacity="1" d="M 20.5 21 L 21.5 23 L 20.5 21 Z " /><path fill="rgb(157,219,232)" stroke="rgb(157,219,232)" stroke-width="1" opacity="1" d="M 4 36 L 8 36.5 L 5 37.5 L 7 40.5 L 4 41.5 Q 3.2 44.1 6.5 43 L 5.5 45 L 2.5 43 L 3 39.5 L 2 37.5 L 4 37.5 L 4 36 Z " /><path fill="rgb(157,219,232)" stroke="rgb(157,219,232)" stroke-width="1" opacity="1" d="M 10 36 L 12 36.5 L 11.5 38 L 16 38.5 L 12 39 L 10.5 42 L 9 41.5 L 11 41 L 10 36 Z " /><path fill="rgb(149,186,193)" stroke="rgb(149,186,193)" stroke-width="1" opacity="1" d="M 12.5 2 L 13.5 4 L 12.5 2 Z " /><path fill="rgb(149,186,193)" stroke="rgb(149,186,193)" stroke-width="1" opacity="1" d="M 17.5 2 L 16.5 4 L 17.5 2 Z " /><path fill="rgb(149,186,193)" stroke="rgb(149,186,193)" stroke-width="1" opacity="1" d="M 23.5 18 L 22.5 20 L 23.5 18 Z " /><path fill="rgb(149,186,193)" stroke="rgb(149,186,193)" stroke-width="1" opacity="1" d="M 21.5 21 L 20.5 23 L 21.5 21 Z " /><path fill="rgb(149,186,193)" stroke="rgb(149,186,193)" stroke-width="1" opacity="1" d="M 2.5 34 L 5 34.5 L 2.5 35 L 2.5 34 Z " /><path fill="rgb(149,186,193)" stroke="rgb(149,186,193)" stroke-width="1" opacity="1" d="M 6.5 34 L 9 34.5 L 6.5 35 L 6.5 34 Z " /><path fill="rgb(149,186,193)" stroke="rgb(149,186,193)" stroke-width="1" opacity="1" d="M 10.5 34 L 13 34.5 L 10.5 35 L 10.5 34 Z " /><path fill="rgb(149,186,193)" stroke="rgb(149,186,193)" stroke-width="1" opacity="1" d="M 12.5 36 Q 17.3 34.7 16 38 L 12.5 37 L 11 37.5 L 12.5 36 Z " /><path fill="rgb(149,186,193)" stroke="rgb(149,186,193)" stroke-width="1" opacity="1" d="M 5.5 37 L 7 37.5 L 5 38 L 4.5 40 L 4 38.5 L 5.5 37 Z " /><path fill="rgb(149,186,193)" stroke="rgb(149,186,193)" stroke-width="1" opacity="1" d="M 22.5 40 L 21.5 42 L 22.5 40 Z " /><path fill="rgb(149,186,193)" stroke="rgb(149,186,193)" stroke-width="1" opacity="1" d="M 25.5 40 L 26 43 L 28 43.5 L 26.5 44 Q 24 43 25.5 40 Z " /><path fill="rgb(149,186,193)" stroke="rgb(149,186,193)" stroke-width="1" opacity="1" d="M 2.5 43 L 3.5 45 L 2.5 43 Z " /><path fill="rgb(149,186,193)" stroke="rgb(149,186,193)" stroke-width="1" opacity="1" d="M 7.5 43 L 7 44.5 L 6.5 47 L 6 44.5 L 7.5 43 Z " /><path fill="rgb(149,186,193)" stroke="rgb(149,186,193)" stroke-width="1" opacity="1" d="M 8.5 47 L 12 48.5 L 5.5 49 L 5.5 48 L 8.5 47 Z " /><path fill="rgb(195,195,62)" stroke="rgb(195,195,62)" stroke-width="1" opacity="1" d="M 4.5 27 L 7 27.5 L 4 28 L 7 32.5 L 3.5 33 L 2.5 31 L 4.5 32 L 3.5 30 Q 0.9 30.7 2 28 L 4.5 27 Z " /><path fill="rgb(195,195,62)" stroke="rgb(195,195,62)" stroke-width="1" opacity="1" d="M 9.5 31 L 10.5 33 Q 7.7 33.7 9.5 31 Z " /><path fill="rgb(195,195,62)" stroke="rgb(195,195,62)" stroke-width="1" opacity="1" d="M 26.5 31 L 28 33.5 L 27 33.5 L 26.5 32 L 25.5 34 L 25 32.5 L 26.5 31 Z " /><path fill="rgb(195,195,62)" stroke="rgb(195,195,62)" stroke-width="1" opacity="1" d="M 20 34 L 22 34.5 L 20 35.5 L 20 34 Z " /><path fill="rgb(195,195,62)" stroke="rgb(195,195,62)" stroke-width="1" opacity="1" d="M 26 35 L 28 35.5 L 26 36.5 L 26 35 Z " /><path fill="rgb(195,195,62)" stroke="rgb(195,195,62)" stroke-width="1" opacity="1" d="M 22.5 37 L 23.5 39 L 18.5 41 L 20.5 38 L 22.5 37 Z " /><path fill="rgb(195,195,62)" stroke="rgb(195,195,62)" stroke-width="1" opacity="1" d="M 15.5 41 L 17.5 44 Q 13.8 44.8 13 42.5 L 15.5 41 Z " /><path fill="rgb(158,153,66)" stroke="rgb(158,153,66)" stroke-width="1" opacity="1" d="M 23.5 26 L 24 28.5 L 22 29.5 L 23.5 26 Z " /><path fill="rgb(158,153,66)" stroke="rgb(158,153,66)" stroke-width="1" opacity="1" d="M 7.5 27 L 8.5 29 L 7.5 27 Z " /><path fill="rgb(158,153,66)" stroke="rgb(158,153,66)" stroke-width="1" opacity="1" d="M 25.5 27 L 28 28.5 L 26.5 29 L 25.5 27 Z " /><path fill="rgb(158,153,66)" stroke="rgb(158,153,66)" stroke-width="1" opacity="1" d="M 15.5 29 L 16.5 31 L 15.5 29 Z " /><path fill="rgb(158,153,66)" stroke="rgb(158,153,66)" stroke-width="1" opacity="1" d="M 2.5 30 L 5 31.5 L 3.5 31 L 2.5 30 Z " /><path fill="rgb(158,153,66)" stroke="rgb(158,153,66)" stroke-width="1" opacity="1" d="M 21.5 33 Q 23.8 32.3 23 34.5 L 21.5 33 Z " /><path fill="rgb(158,153,66)" stroke="rgb(158,153,66)" stroke-width="1" opacity="1" d="M 19.5 34 L 20 38.5 L 17.5 42 Q 21.3 41 20 44 L 16 41.5 Q 20 40 19.5 34 Z " /><path fill="rgb(158,153,66)" stroke="rgb(158,153,66)" stroke-width="1" opacity="1" d="M 25.5 34 L 26 36.5 L 25 36.5 L 25.5 34 Z " /><path fill="rgb(158,153,66)" stroke="rgb(158,153,66)" stroke-width="1" opacity="1" d="M 26.5 38 L 28 41 L 26 40.5 L 26.5 38 Z " /><path fill="rgb(158,153,66)" stroke="rgb(158,153,66)" stroke-width="1" opacity="1" d="M 12.5 42 L 13 43.5 L 10.5 45 L 10.5 44 Q 13 44.7 12.5 42 Z " /><path fill="rgb(158,153,66)" stroke="rgb(158,153,66)" stroke-width="1" opacity="1" d="M 22.5 42 L 26 44.5 L 21.5 45 L 22 43.5 L 22.5 42 Z " /></svg>