<svg width="30" height="50" version="1.1" xmlns="http://www.w3.org/2000/svg" desc="Created with imagetracer.js version 1.2.6" ><path fill="rgb(147,209,219)" stroke="rgb(147,209,219)" stroke-width="1" opacity="1" d="M 26.5 2 Q 29.5 1.1 28 5.5 L 28 7.5 L 28 16.5 L 25 17 L 25 18.5 L 27 21.5 Q 24.5 23 28 24.5 Q 28.7 27.1 26 26 L 26 28.5 L 25 28.5 L 23.5 25 L 22 25.5 Q 21.2 22.5 25 24 L 25 22 L 23 21.5 L 24 18.5 L 25 14 L 22.5 15 L 23 13.5 Q 21.8 9.8 25.5 11 L 25.5 10 Q 22.2 11.1 23 8.5 Q 27.2 6.2 25.5 4 L 27 4.5 L 26.5 2 Z " /><path fill="rgb(147,209,219)" stroke="rgb(147,209,219)" stroke-width="1" opacity="1" d="M 10.5 3 L 9.5 5 L 10.5 3 Z " /><path fill="rgb(147,209,219)" stroke="rgb(147,209,219)" stroke-width="1" opacity="1" d="M 23.5 5 L 22.5 7 L 23.5 5 Z " /><path fill="rgb(147,209,219)" stroke="rgb(147,209,219)" stroke-width="1" opacity="1" d="M 8.5 15 Q 11.5 16.5 8.5 18 L 7 17.5 L 9 16.5 L 8.5 15 Z " /><path fill="rgb(147,209,219)" stroke="rgb(147,209,219)" stroke-width="1" opacity="1" d="M 22.5 16 L 23 18 L 20 17.5 L 22.5 16 Z " /><path fill="rgb(147,209,219)" stroke="rgb(147,209,219)" stroke-width="1" opacity="1" d="M 3 19 L 6 20.5 L 5 21.5 L 6.5 24 Q 5.3 21.7 4 24.5 L 7 25.5 L 3 27.5 L 2.5 29 L 2 26 L 4 25.5 L 2 25 L 3 19 Z " /><path fill="rgb(147,209,219)" stroke="rgb(147,209,219)" stroke-width="1" opacity="1" d="M 7.5 20 L 8.5 22 L 7.5 20 Z " /><path fill="rgb(147,209,219)" stroke="rgb(147,209,219)" stroke-width="1" opacity="1" d="M 7.5 41 Q 10.3 42.3 8 43.5 Q 8.8 46.1 5.5 45 L 3.5 45 Q 1.3 45.8 2 43.5 L 6 42 L 6.5 44 L 7.5 41 Z " /><path fill="rgb(147,209,219)" stroke="rgb(147,209,219)" stroke-width="1" opacity="1" d="M 18.5 41 L 22 42.5 L 21.5 44 Q 24.1 44.8 23 41.5 L 24 41.5 L 25 43.5 Q 24 46 19.5 45 L 18.5 41 Z " /><path fill="rgb(147,209,219)" stroke="rgb(147,209,219)" stroke-width="1" opacity="1" d="M 9.5 44 L 12 44.5 L 9.5 45 L 9.5 44 Z " /><path fill="rgb(147,209,219)" stroke="rgb(147,209,219)" stroke-width="1" opacity="1" d="M 4.5 46 L 5 48 L 7 48.5 L 3.5 49 L 4 47.5 L 4.5 46 Z " /><path fill="rgb(218,223,108)" stroke="rgb(218,223,108)" stroke-width="1" opacity="1" d="M 4.5 29 L 5 32.5 L 5 34.5 L 4 36.5 L 4.5 38 L 2.5 39 L 2 34.5 L 2 32.5 L 4.5 29 Z " /><path fill="rgb(218,223,108)" stroke="rgb(218,223,108)" stroke-width="1" opacity="1" d="M 13.5 32 L 16 33.5 L 14.5 34 L 13.5 32 Z " /><path fill="rgb(218,223,108)" stroke="rgb(218,223,108)" stroke-width="1" opacity="1" d="M 20 33 Q 23 32 22 35 Q 19 36 20 33 Z " /><path fill="rgb(218,223,108)" stroke="rgb(218,223,108)" stroke-width="1" opacity="1" d="M 7.5 35 L 10 36 Q 11.5 39.8 8.5 39 L 7 37.5 L 7.5 35 Z " /><path fill="rgb(218,223,108)" stroke="rgb(218,223,108)" stroke-width="1" opacity="1" d="M 17.5 36 L 23.5 37 L 26 36 L 24.5 39 L 20.5 38 L 19 38.5 Q 19.8 36.3 17.5 37 L 17.5 36 Z " /><path fill="rgb(249,236,90)" stroke="rgb(249,236,90)" stroke-width="1" opacity="1" d="M 16.5 5 Q 20.5 4.5 21 7.5 L 22 11.5 L 19 13.5 L 21 14.5 Q 19.6 17.6 14.5 17 L 11 14.5 L 10 9.5 L 12.5 6 L 16.5 5 Z M 14 8 Q 13 11 16 10 Q 17 7 14 8 Z M 14 11 L 14 13 L 18 13 L 14 11 Z " /><path fill="rgb(249,236,90)" stroke="rgb(249,236,90)" stroke-width="1" opacity="1" d="M 18.5 27 L 20 27 Q 18.5 30.8 21.5 30 L 27 33.5 L 25 34 L 24.5 36 L 20 33 L 19.5 35 L 19 33.5 L 19 31.5 L 18.5 27 Z " /><path fill="rgb(249,236,90)" stroke="rgb(249,236,90)" stroke-width="1" opacity="1" d="M 23.5 29 L 26 30.5 L 24.5 30 L 23.5 29 Z " /><path fill="rgb(249,236,90)" stroke="rgb(249,236,90)" stroke-width="1" opacity="1" d="M 16 33 L 18 33.5 L 16.5 37 L 13.5 38 L 14.5 36 Q 17.5 36.7 16 33 Z " /><path fill="rgb(94,125,133)" stroke="rgb(94,125,133)" stroke-width="1" opacity="1" d="M 11.5 1 Q 16 0 17 2.5 L 14.5 4 L 14.5 2 Q 10.5 2.7 11.5 1 Z " /><path fill="rgb(94,125,133)" stroke="rgb(94,125,133)" stroke-width="1" opacity="1" d="M 16 25 L 20 25.5 L 17 26 L 16.5 28 L 16 25 Z " /><path fill="rgb(94,125,133)" stroke="rgb(94,125,133)" stroke-width="1" opacity="1" d="M 6.5 26 L 8 26.5 L 5.5 28 L 6.5 26 Z " /><path fill="rgb(94,125,133)" stroke="rgb(94,125,133)" stroke-width="1" opacity="1" d="M 10.5 40 L 12.5 44 L 14 43.5 L 12.5 45 Q 10.8 41.9 9 43.5 L 10.5 40 Z " /><path fill="rgb(94,125,133)" stroke="rgb(94,125,133)" stroke-width="1" opacity="1" d="M 14.5 40 L 15.5 42 L 16.5 40 L 18 44 L 15.5 45 L 14.5 40 Z " /><path fill="rgb(94,125,133)" stroke="rgb(94,125,133)" stroke-width="1" opacity="1" d="M 27.5 40 L 27 41.5 L 28 43.5 L 25.5 42 L 24 41.5 L 27.5 40 Z " /><path fill="rgb(143,219,233)" stroke="rgb(143,219,233)" stroke-width="1" opacity="1" d="M 2.5 2 L 9 2.5 L 6 3.5 L 10 5.5 L 6 7.5 L 8 8.5 L 7 10.5 L 7.5 14 L 6 14.5 L 8 15.5 L 3 17 L 2 11.5 L 3 9.5 L 2 6.5 L 4 3.5 L 2.5 2 Z " /><path fill="rgb(143,219,233)" stroke="rgb(143,219,233)" stroke-width="1" opacity="1" d="M 21.5 2 Q 26 1 27 3.5 L 24.5 7 L 22 5.5 L 23.5 3 L 20.5 4 L 21.5 2 Z " /><path fill="rgb(143,219,233)" stroke="rgb(143,219,233)" stroke-width="1" opacity="1" d="M 22.5 15 L 25 15.5 L 22.5 16 L 22.5 15 Z " /><path fill="rgb(143,219,233)" stroke="rgb(143,219,233)" stroke-width="1" opacity="1" d="M 23.5 17 L 24 19 L 22 19.5 L 24 20.5 L 20.5 22 L 20.5 21 L 22 20.5 L 20 20 Q 18.8 17 22.5 18 L 23.5 17 Z " /><path fill="rgb(143,219,233)" stroke="rgb(143,219,233)" stroke-width="1" opacity="1" d="M 10.5 20 L 10 21.5 L 9.5 23 L 9 21.5 L 10.5 20 Z " /><path fill="rgb(143,219,233)" stroke="rgb(143,219,233)" stroke-width="1" opacity="1" d="M 13.5 21 L 21.5 24 L 23 23.5 L 19.5 25 L 13.5 22 L 13.5 21 Z " /><path fill="rgb(153,221,233)" stroke="rgb(153,221,233)" stroke-width="1" opacity="1" d="M 9.5 2 L 12 2.5 L 8.5 5 L 6 3.5 L 9.5 2 Z " /><path fill="rgb(153,221,233)" stroke="rgb(153,221,233)" stroke-width="1" opacity="1" d="M 2.5 13 L 3 16.5 L 2 16.5 L 2.5 13 Z " /><path fill="rgb(153,221,233)" stroke="rgb(153,221,233)" stroke-width="1" opacity="1" d="M 5.5 17 L 10 19.5 L 10.5 21 L 13 19.5 L 10 17.5 L 11.5 18 L 13.5 19 L 15 18.5 Q 15.7 21.1 13 20 L 13 23 L 17 23.5 Q 15.4 26.5 10 25 L 8.5 28 L 8.5 26 L 6 24.5 L 8 23.5 L 6 22.5 Q 7.8 19.3 9.5 23 L 12 22.5 L 5 19.5 L 7 18.5 L 5.5 17 Z " /><path fill="rgb(153,221,233)" stroke="rgb(153,221,233)" stroke-width="1" opacity="1" d="M 19.5 20 L 21.5 23 L 24 22 L 23.5 24 L 20.5 23 L 16 21.5 L 19.5 20 Z " /><path fill="rgb(153,221,233)" stroke="rgb(153,221,233)" stroke-width="1" opacity="1" d="M 22.5 42 L 21.5 44 L 22.5 42 Z " /><path fill="rgb(153,221,233)" stroke="rgb(153,221,233)" stroke-width="1" opacity="1" d="M 25.5 43 L 26 45 L 24 44.5 L 25.5 43 Z " /><path fill="rgb(159,184,179)" stroke="rgb(159,184,179)" stroke-width="1" opacity="1" d="M 20.5 1 L 27 1.5 L 20.5 2 L 20.5 1 Z " /><path fill="rgb(159,184,179)" stroke="rgb(159,184,179)" stroke-width="1" opacity="1" d="M 17.5 2 L 20 3 L 19.5 6 L 17.5 2 Z " /><path fill="rgb(159,184,179)" stroke="rgb(159,184,179)" stroke-width="1" opacity="1" d="M 11.5 3 L 12 4.5 L 10 5.5 L 11.5 3 Z " /><path fill="rgb(159,184,179)" stroke="rgb(159,184,179)" stroke-width="1" opacity="1" d="M 22.5 3 L 23 4.5 L 21 5.5 L 22.5 3 Z " /><path fill="rgb(159,184,179)" stroke="rgb(159,184,179)" stroke-width="1" opacity="1" d="M 8.5 6 L 9.5 8 L 7 7.5 L 8.5 6 Z " /><path fill="rgb(159,184,179)" stroke="rgb(159,184,179)" stroke-width="1" opacity="1" d="M 8.5 13 L 10 16 L 13 17.5 L 11.5 17 Q 9.3 16.3 10 18.5 L 9 18.5 L 10 16.5 L 8.5 13 Z " /><path fill="rgb(159,184,179)" stroke="rgb(159,184,179)" stroke-width="1" opacity="1" d="M 19.5 17 L 20 19 L 18 18.5 L 19.5 17 Z " /><path fill="rgb(159,184,179)" stroke="rgb(159,184,179)" stroke-width="1" opacity="1" d="M 25 17 Q 28 15.8 27 19.5 L 25 18.5 L 25 17 Z " /><path fill="rgb(159,184,179)" stroke="rgb(159,184,179)" stroke-width="1" opacity="1" d="M 2.5 18 L 3 21.5 L 2 21.5 L 2.5 18 Z " /><path fill="rgb(159,184,179)" stroke="rgb(159,184,179)" stroke-width="1" opacity="1" d="M 15 19 L 19 20.5 L 15 21 L 15 19 Z " /><path fill="rgb(159,184,179)" stroke="rgb(159,184,179)" stroke-width="1" opacity="1" d="M 26.5 22 L 27.5 24 L 26.5 22 Z " /><path fill="rgb(159,184,179)" stroke="rgb(159,184,179)" stroke-width="1" opacity="1" d="M 11.5 25 L 10 27.5 L 9.5 29 L 8.5 27 L 7 27.5 L 11.5 25 Z " /><path fill="rgb(159,184,179)" stroke="rgb(159,184,179)" stroke-width="1" opacity="1" d="M 23.5 25 L 24.5 27 L 22 26.5 L 23.5 25 Z " /><path fill="rgb(159,184,179)" stroke="rgb(159,184,179)" stroke-width="1" opacity="1" d="M 4.5 26 L 5 28.5 L 3 27.5 L 4.5 26 Z " /><path fill="rgb(159,184,179)" stroke="rgb(159,184,179)" stroke-width="1" opacity="1" d="M 26 26 L 28 26.5 L 26 27.5 L 26 26 Z " /><path fill="rgb(159,184,179)" stroke="rgb(159,184,179)" stroke-width="1" opacity="1" d="M 15.5 27 L 16.5 29 L 15.5 27 Z " /><path fill="rgb(159,184,179)" stroke="rgb(159,184,179)" stroke-width="1" opacity="1" d="M 18 43 L 20 43.5 L 18 44.5 L 18 43 Z " /><path fill="rgb(159,184,179)" stroke="rgb(159,184,179)" stroke-width="1" opacity="1" d="M 7.5 46 L 8.5 48 L 10.5 48 L 14.5 46 L 15 49 L 7 49 L 7.5 46 Z " /><path fill="rgb(159,184,179)" stroke="rgb(159,184,179)" stroke-width="1" opacity="1" d="M 17 46 L 20 47.5 L 17 48 L 17 46 Z " /><path fill="rgb(159,184,179)" stroke="rgb(159,184,179)" stroke-width="1" opacity="1" d="M 21.5 46 L 22.5 48 L 21.5 46 Z " /><path fill="rgb(243,242,241)" stroke="rgb(243,242,241)" stroke-width="1" opacity="1" d="M 0 0 L 30 0 L 30 50 L 0 50 L 0 0 Z M 2 1 L 2 25 L 6 23 L 6 25 L 2 26 L 2 45 L 28 45 L 28 1 L 2 1 Z M 4 46 L 4 48 L 4 49 L 28 49 L 22 46 L 13 46 L 12 48 L 11 48 L 11 47 L 4 46 Z " /><path fill="rgb(134,116,38)" stroke="rgb(134,116,38)" stroke-width="1" opacity="1" d="M 14.5 30 L 18 31.5 L 16.5 31 Q 13.5 31.5 14.5 30 Z " /><path fill="rgb(134,116,38)" stroke="rgb(134,116,38)" stroke-width="1" opacity="1" d="M 23.5 30 L 25.5 33 L 23.5 30 Z " /><path fill="rgb(134,116,38)" stroke="rgb(134,116,38)" stroke-width="1" opacity="1" d="M 7.5 33 L 6.5 35 L 7.5 33 Z " /><path fill="rgb(134,116,38)" stroke="rgb(134,116,38)" stroke-width="1" opacity="1" d="M 27.5 37 L 27 38.5 L 26.5 40 L 26 38.5 L 27.5 37 Z " /><path fill="rgb(134,116,38)" stroke="rgb(134,116,38)" stroke-width="1" opacity="1" d="M 20.5 40 L 24 40.5 L 20.5 41 L 20.5 40 Z " /><path fill="rgb(233,159,78)" stroke="rgb(233,159,78)" stroke-width="1" opacity="1" d="M 11.5 27 Q 13.8 26.3 13 28.5 L 12 31.5 Q 12.7 34.1 10 33 L 10 35 L 7.5 35 L 7.5 33 Q 5.3 33.8 6 31.5 L 7.5 32 L 11 29.5 Q 8.7 28.3 11.5 27 Z " /><path fill="rgb(173,164,73)" stroke="rgb(173,164,73)" stroke-width="1" opacity="1" d="M 12.5 4 L 13 6 L 11 5.5 L 12.5 4 Z " /><path fill="rgb(173,164,73)" stroke="rgb(173,164,73)" stroke-width="1" opacity="1" d="M 22.5 9 L 23.5 11 L 22.5 9 Z " /><path fill="rgb(173,164,73)" stroke="rgb(173,164,73)" stroke-width="1" opacity="1" d="M 14.5 11 L 18 12.5 L 16.5 13 L 14.5 11 Z " /><path fill="rgb(173,164,73)" stroke="rgb(173,164,73)" stroke-width="1" opacity="1" d="M 9.5 13 L 10.5 15 L 9.5 13 Z " /><path fill="rgb(173,164,73)" stroke="rgb(173,164,73)" stroke-width="1" opacity="1" d="M 19.5 15 L 18.5 17 L 19.5 15 Z " /><path fill="rgb(173,164,73)" stroke="rgb(173,164,73)" stroke-width="1" opacity="1" d="M 13.5 28 L 14 30.5 Q 14.8 32.8 12.5 32 L 12 29.5 L 13.5 28 Z " /><path fill="rgb(173,164,73)" stroke="rgb(173,164,73)" stroke-width="1" opacity="1" d="M 18.5 30 L 19 33 L 15 31.5 L 16.5 32 Q 19 32.7 18.5 30 Z " /><path fill="rgb(173,164,73)" stroke="rgb(173,164,73)" stroke-width="1" opacity="1" d="M 10.5 33 L 12 36 L 10 35.5 L 10.5 33 Z " /><path fill="rgb(173,164,73)" stroke="rgb(173,164,73)" stroke-width="1" opacity="1" d="M 13.5 34 L 16 35.5 L 14.5 36 L 13.5 34 Z " /><path fill="rgb(173,164,73)" stroke="rgb(173,164,73)" stroke-width="1" opacity="1" d="M 6.5 35 L 8 36.5 L 7.5 39 L 5 38.5 L 6.5 35 Z " /><path fill="rgb(173,164,73)" stroke="rgb(173,164,73)" stroke-width="1" opacity="1" d="M 26.5 37 L 27.5 39 L 26.5 37 Z " /><path fill="rgb(173,164,73)" stroke="rgb(173,164,73)" stroke-width="1" opacity="1" d="M 17.5 38 L 20 39.5 L 18.5 40 L 17.5 38 Z " /><path fill="rgb(206,205,85)" stroke="rgb(206,205,85)" stroke-width="1" opacity="1" d="M 20.5 10 L 22 12.5 L 21.5 15 L 20 11.5 L 20.5 10 Z " /><path fill="rgb(206,205,85)" stroke="rgb(206,205,85)" stroke-width="1" opacity="1" d="M 24.5 27 L 25 29 L 23 28.5 L 24.5 27 Z " /><path fill="rgb(206,205,85)" stroke="rgb(206,205,85)" stroke-width="1" opacity="1" d="M 5.5 29 L 6 35.5 Q 3.5 37 7 38.5 L 5.5 40 Q 7.1 38.3 4 36.5 L 5 35.5 L 4.5 34 L 3 34.5 Q 5.8 33.3 5.5 29 Z " /><path fill="rgb(206,205,85)" stroke="rgb(206,205,85)" stroke-width="1" opacity="1" d="M 24.5 30 L 26.5 30 Q 28.8 29.3 28 31.5 L 26.5 33 Q 24.8 29.9 23 31.5 L 24.5 30 Z " /><path fill="rgb(206,205,85)" stroke="rgb(206,205,85)" stroke-width="1" opacity="1" d="M 16.5 31 L 15.5 33 L 14 32.5 L 16.5 31 Z " /><path fill="rgb(206,205,85)" stroke="rgb(206,205,85)" stroke-width="1" opacity="1" d="M 14.5 34 L 16 34.5 L 14 35 L 12.5 38 L 12.5 35 L 14.5 34 Z " /><path fill="rgb(206,205,85)" stroke="rgb(206,205,85)" stroke-width="1" opacity="1" d="M 17.5 34 L 21.5 35 Q 22.8 32.8 24 35.5 L 23.5 37 L 21.5 37 Q 16.8 36.2 17.5 34 Z " /><path fill="rgb(206,205,85)" stroke="rgb(206,205,85)" stroke-width="1" opacity="1" d="M 26 34 L 28 34.5 L 27.5 37 Q 24.5 37.7 26 34 Z " /><path fill="rgb(206,205,85)" stroke="rgb(206,205,85)" stroke-width="1" opacity="1" d="M 16.5 37 Q 19.8 35.9 19 38.5 L 17.5 38 L 16.5 37 Z " /><path fill="rgb(206,205,85)" stroke="rgb(206,205,85)" stroke-width="1" opacity="1" d="M 3.5 38 L 2.5 40 L 3.5 38 Z " /><path fill="rgb(206,205,85)" stroke="rgb(206,205,85)" stroke-width="1" opacity="1" d="M 20.5 38 L 21.5 40 L 19.5 41 L 20 39.5 L 20.5 38 Z " /><path fill="rgb(49,38,17)" stroke="rgb(49,38,17)" stroke-width="1" opacity="1" d="M 7.5 39 L 8 41 L 5 40.5 L 7.5 39 Z " /><path fill="rgb(49,38,17)" stroke="rgb(49,38,17)" stroke-width="1" opacity="1" d="M 15.5 39 L 18 39.5 L 15.5 40 L 15.5 39 Z " /><path fill="rgb(130,142,135)" stroke="rgb(130,142,135)" stroke-width="1" opacity="1" d="M 20.5 6 L 23 7.5 L 22.5 9 L 22 7 L 20.5 6 Z " /><path fill="rgb(130,142,135)" stroke="rgb(130,142,135)" stroke-width="1" opacity="1" d="M 5.5 26 L 8.5 30 L 5.5 26 Z " /><path fill="rgb(130,142,135)" stroke="rgb(130,142,135)" stroke-width="1" opacity="1" d="M 23.5 26 L 24 28 L 22 27.5 L 23.5 26 Z " /><path fill="rgb(130,142,135)" stroke="rgb(130,142,135)" stroke-width="1" opacity="1" d="M 9.5 40 L 11 43.5 L 9 42.5 L 9.5 40 Z " /><path fill="rgb(130,142,135)" stroke="rgb(130,142,135)" stroke-width="1" opacity="1" d="M 26.5 40 L 27.5 42 L 26.5 40 Z " /><path fill="rgb(130,142,135)" stroke="rgb(130,142,135)" stroke-width="1" opacity="1" d="M 6.5 41 L 7.5 43 Q 4.7 43.7 6.5 41 Z " /><path fill="rgb(130,142,135)" stroke="rgb(130,142,135)" stroke-width="1" opacity="1" d="M 8 46 L 10 46.5 L 8 47.5 L 8 46 Z " /><path fill="rgb(130,142,135)" stroke="rgb(130,142,135)" stroke-width="1" opacity="1" d="M 15 46 L 17 46.5 L 16.5 48 L 20.5 47 L 24 48.5 L 15 49 L 15 46 Z " /><path fill="rgb(134,124,72)" stroke="rgb(134,124,72)" stroke-width="1" opacity="1" d="M 21.5 26 L 20.5 28 L 21.5 26 Z " /><path fill="rgb(134,124,72)" stroke="rgb(134,124,72)" stroke-width="1" opacity="1" d="M 11.5 36 L 12 38.5 L 10 39.5 L 11.5 36 Z " /><path fill="rgb(78,76,63)" stroke="rgb(78,76,63)" stroke-width="1" opacity="1" d="M 20.5 15 L 19.5 17 L 20.5 15 Z " /><path fill="rgb(78,76,63)" stroke="rgb(78,76,63)" stroke-width="1" opacity="1" d="M 27.5 18 L 28 20.5 L 27 20.5 L 27.5 18 Z " /><path fill="rgb(78,76,63)" stroke="rgb(78,76,63)" stroke-width="1" opacity="1" d="M 12.5 39 L 15 39.5 Q 12.3 40.6 13 44 L 15 44.5 L 13.5 45 L 12 41.5 L 12.5 39 Z " /><path fill="rgb(78,76,63)" stroke="rgb(78,76,63)" stroke-width="1" opacity="1" d="M 24 39 Q 27 38 26 41 Q 23 42 24 39 Z " /><path fill="rgb(78,76,63)" stroke="rgb(78,76,63)" stroke-width="1" opacity="1" d="M 2 40 Q 5 39 4 42 Q 1 43 2 40 Z " /><path fill="rgb(78,76,63)" stroke="rgb(78,76,63)" stroke-width="1" opacity="1" d="M 20.5 46 L 21.5 48 L 20.5 46 Z " /></svg>