<svg width="30" height="50" version="1.1" xmlns="http://www.w3.org/2000/svg" desc="Created with imagetracer.js version 1.2.6" ><path fill="rgb(192,181,64)" stroke="rgb(192,181,64)" stroke-width="1" opacity="1" d="M 17.5 4 L 18.5 6 L 17.5 4 Z " /><path fill="rgb(192,181,64)" stroke="rgb(192,181,64)" stroke-width="1" opacity="1" d="M 8.5 6 L 7.5 8 L 8.5 6 Z " /><path fill="rgb(192,181,64)" stroke="rgb(192,181,64)" stroke-width="1" opacity="1" d="M 21.5 6 L 21.5 9 Q 18.5 7.5 21.5 6 Z " /><path fill="rgb(192,181,64)" stroke="rgb(192,181,64)" stroke-width="1" opacity="1" d="M 10.5 8 L 8.5 11 L 5 10.5 Q 9.3 10.8 10.5 8 Z " /><path fill="rgb(192,181,64)" stroke="rgb(192,181,64)" stroke-width="1" opacity="1" d="M 12.5 8 Q 14.8 7.3 14 9.5 L 12.5 8 Z " /><path fill="rgb(192,181,64)" stroke="rgb(192,181,64)" stroke-width="1" opacity="1" d="M 15.5 8 L 18 8.5 Q 15.9 11.8 15.5 8 Z " /><path fill="rgb(192,181,64)" stroke="rgb(192,181,64)" stroke-width="1" opacity="1" d="M 22.5 10 L 22.5 13 Q 19.5 11.5 22.5 10 Z " /><path fill="rgb(192,181,64)" stroke="rgb(192,181,64)" stroke-width="1" opacity="1" d="M 2.5 12 L 3.5 14 L 2.5 12 Z " /><path fill="rgb(192,181,64)" stroke="rgb(192,181,64)" stroke-width="1" opacity="1" d="M 13.5 12 L 17 13.5 L 15.5 14 L 13.5 12 Z " /><path fill="rgb(192,181,64)" stroke="rgb(192,181,64)" stroke-width="1" opacity="1" d="M 10.5 15 L 11.5 17 L 10.5 15 Z " /><path fill="rgb(192,181,64)" stroke="rgb(192,181,64)" stroke-width="1" opacity="1" d="M 20.5 15 L 22 17.5 L 20 16.5 L 20.5 15 Z " /><path fill="rgb(192,181,64)" stroke="rgb(192,181,64)" stroke-width="1" opacity="1" d="M 17.5 16 L 19 18.5 L 16.5 20 L 13 17.5 L 17.5 16 Z M 18 17 L 16 19 L 18 19 L 18 17 Z " /><path fill="rgb(192,181,64)" stroke="rgb(192,181,64)" stroke-width="1" opacity="1" d="M 9.5 19 L 8.5 21 L 9.5 19 Z " /><path fill="rgb(192,181,64)" stroke="rgb(192,181,64)" stroke-width="1" opacity="1" d="M 2.5 23 Q 5.5 24.5 2.5 26 L 2.5 23 Z " /><path fill="rgb(192,181,64)" stroke="rgb(192,181,64)" stroke-width="1" opacity="1" d="M 22.5 27 L 23.5 29 Q 20.7 29.7 22.5 27 Z " /><path fill="rgb(192,181,64)" stroke="rgb(192,181,64)" stroke-width="1" opacity="1" d="M 27.5 27 L 26.5 29 L 25 28.5 L 27.5 27 Z " /><path fill="rgb(192,181,64)" stroke="rgb(192,181,64)" stroke-width="1" opacity="1" d="M 7.5 28 L 8 30 L 6 29.5 L 7.5 28 Z " /><path fill="rgb(244,228,56)" stroke="rgb(244,228,56)" stroke-width="1" opacity="1" d="M 4.5 3 L 5.5 5 L 4.5 3 Z " /><path fill="rgb(244,228,56)" stroke="rgb(244,228,56)" stroke-width="1" opacity="1" d="M 8.5 4 L 10 4.5 L 7.5 6 L 8.5 4 Z " /><path fill="rgb(244,228,56)" stroke="rgb(244,228,56)" stroke-width="1" opacity="1" d="M 11.5 5 L 15 6.5 L 11.5 9 L 9.5 9 L 5 7.5 L 6.5 7 L 9.5 8 L 9.5 6 L 11.5 5 Z " /><path fill="rgb(244,228,56)" stroke="rgb(244,228,56)" stroke-width="1" opacity="1" d="M 27.5 6 L 26.5 8 L 27.5 6 Z " /><path fill="rgb(244,228,56)" stroke="rgb(244,228,56)" stroke-width="1" opacity="1" d="M 17.5 7 Q 20.5 8.5 17.5 10 L 17.5 7 Z " /><path fill="rgb(244,228,56)" stroke="rgb(244,228,56)" stroke-width="1" opacity="1" d="M 9.5 10 Q 14.9 8.1 14 11.5 L 13.5 13 Q 15.8 13.8 15 11.5 L 17 12.5 L 15 13.5 L 18 14.5 L 12.5 16 L 7.5 12 L 7.5 14 L 4 12.5 L 9.5 10 Z " /><path fill="rgb(242,232,84)" stroke="rgb(242,232,84)" stroke-width="1" opacity="1" d="M 23.5 2 L 24 4 L 21.5 5 L 21 3 L 23.5 2 Z " /><path fill="rgb(242,232,84)" stroke="rgb(242,232,84)" stroke-width="1" opacity="1" d="M 13.5 4 Q 17.8 3.3 18.5 6 L 20 5.5 Q 17.3 7.3 21.5 9 L 24 9.5 L 20 12.5 L 21 14.5 Q 19.5 17.5 13.5 16 L 13.5 15 L 18 14.5 L 15.5 11 L 14 11.5 L 15 6.5 L 13.5 4 Z M 18 7 L 15 8 Q 14 11 18 10 Q 21 9 18 7 Z " /><path fill="rgb(242,232,84)" stroke="rgb(242,232,84)" stroke-width="1" opacity="1" d="M 23.5 5 L 25 5.5 L 22.5 7 L 23.5 5 Z " /><path fill="rgb(242,232,84)" stroke="rgb(242,232,84)" stroke-width="1" opacity="1" d="M 23.5 27 Q 26.5 28.5 23.5 30 L 23.5 27 Z " /><path fill="rgb(146,101,49)" stroke="rgb(146,101,49)" stroke-width="1" opacity="1" d="M 20.5 6 L 21.5 8 L 20.5 6 Z " /><path fill="rgb(146,101,49)" stroke="rgb(146,101,49)" stroke-width="1" opacity="1" d="M 9.5 13 L 14 16.5 L 12.5 17 L 9.5 13 Z " /><path fill="rgb(146,101,49)" stroke="rgb(146,101,49)" stroke-width="1" opacity="1" d="M 23.5 13 L 22.5 15 L 23.5 13 Z " /><path fill="rgb(146,101,49)" stroke="rgb(146,101,49)" stroke-width="1" opacity="1" d="M 8.5 22 L 10 22.5 L 7 24.5 L 6.5 26 L 6 23 L 8.5 22 Z " /><path fill="rgb(146,101,49)" stroke="rgb(146,101,49)" stroke-width="1" opacity="1" d="M 13.5 22 Q 11.9 23.8 15 25.5 L 13.5 28 L 14 26.5 Q 14.8 24.3 12.5 25 L 11.5 23 L 13.5 22 Z " /><path fill="rgb(146,101,49)" stroke="rgb(146,101,49)" stroke-width="1" opacity="1" d="M 4.5 25 L 3.5 27 L 4.5 25 Z " /><path fill="rgb(146,101,49)" stroke="rgb(146,101,49)" stroke-width="1" opacity="1" d="M 10.5 28 Q 12.8 27.3 12 29.5 L 10.5 28 Z " /><path fill="rgb(146,101,49)" stroke="rgb(146,101,49)" stroke-width="1" opacity="1" d="M 19.5 28 L 22 28.5 L 19.5 29 L 19.5 28 Z " /><path fill="rgb(146,101,49)" stroke="rgb(146,101,49)" stroke-width="1" opacity="1" d="M 22.5 36 L 22 37.5 L 21.5 40 L 21 37.5 L 22.5 36 Z " /><path fill="rgb(146,101,49)" stroke="rgb(146,101,49)" stroke-width="1" opacity="1" d="M 20.5 41 L 19.5 43 L 20.5 41 Z " /><path fill="rgb(131,197,204)" stroke="rgb(131,197,204)" stroke-width="1" opacity="1" d="M 4.5 2 L 7 3.5 L 5.5 3 L 4.5 2 Z " /><path fill="rgb(131,197,204)" stroke="rgb(131,197,204)" stroke-width="1" opacity="1" d="M 20 2 L 23 2.5 L 20.5 4 L 20 2 Z " /><path fill="rgb(131,197,204)" stroke="rgb(131,197,204)" stroke-width="1" opacity="1" d="M 25.5 2 L 28 2.5 L 22.5 5 L 22.5 4 L 25.5 2 Z " /><path fill="rgb(131,197,204)" stroke="rgb(131,197,204)" stroke-width="1" opacity="1" d="M 2.5 3 L 6 5.5 L 5.5 7 L 2 6 L 2.5 3 Z " /><path fill="rgb(131,197,204)" stroke="rgb(131,197,204)" stroke-width="1" opacity="1" d="M 3.5 7 L 4.5 9 L 2 8.5 L 3.5 7 Z " /><path fill="rgb(131,197,204)" stroke="rgb(131,197,204)" stroke-width="1" opacity="1" d="M 2.5 11 L 7 11.5 L 3.5 13 L 2.5 11 Z " /><path fill="rgb(131,197,204)" stroke="rgb(131,197,204)" stroke-width="1" opacity="1" d="M 5.5 15 Q 8.1 14.3 7 17 Q 3.6 16.3 2.5 19 L 2 17.5 L 5.5 15 Z " /><path fill="rgb(131,197,204)" stroke="rgb(131,197,204)" stroke-width="1" opacity="1" d="M 9.5 16 L 9 17.5 L 6.5 22 L 4 20.5 L 6 20 Q 4.9 17.3 7.5 18 L 9.5 16 Z " /><path fill="rgb(138,133,107)" stroke="rgb(138,133,107)" stroke-width="1" opacity="1" d="M 6.5 2 L 5.5 4 L 6.5 2 Z " /><path fill="rgb(138,133,107)" stroke="rgb(138,133,107)" stroke-width="1" opacity="1" d="M 8.5 2 L 9.5 4 L 8.5 2 Z " /><path fill="rgb(138,133,107)" stroke="rgb(138,133,107)" stroke-width="1" opacity="1" d="M 7.5 4 L 7 5.5 L 6.5 7 L 6 5.5 L 7.5 4 Z " /><path fill="rgb(138,133,107)" stroke="rgb(138,133,107)" stroke-width="1" opacity="1" d="M 6.5 13 L 7.5 15 L 6.5 13 Z " /><path fill="rgb(138,133,107)" stroke="rgb(138,133,107)" stroke-width="1" opacity="1" d="M 13.5 20 L 14 22 L 11.5 23 L 13.5 20 Z " /><path fill="rgb(138,133,107)" stroke="rgb(138,133,107)" stroke-width="1" opacity="1" d="M 10.5 24 L 9.5 26 L 10.5 24 Z " /><path fill="rgb(138,133,107)" stroke="rgb(138,133,107)" stroke-width="1" opacity="1" d="M 6.5 26 L 5.5 28 L 6.5 26 Z " /><path fill="rgb(138,133,107)" stroke="rgb(138,133,107)" stroke-width="1" opacity="1" d="M 8.5 29 L 9.5 31 L 7 30.5 L 8.5 29 Z " /><path fill="rgb(138,133,107)" stroke="rgb(138,133,107)" stroke-width="1" opacity="1" d="M 21.5 30 L 22 31.5 L 20 32.5 L 21.5 30 Z " /><path fill="rgb(138,133,107)" stroke="rgb(138,133,107)" stroke-width="1" opacity="1" d="M 26.5 30 L 27.5 32 L 26.5 30 Z " /><path fill="rgb(138,133,107)" stroke="rgb(138,133,107)" stroke-width="1" opacity="1" d="M 15.5 31 Q 17.8 30.3 17 32.5 L 14 32.5 L 15.5 31 Z " /><path fill="rgb(138,133,107)" stroke="rgb(138,133,107)" stroke-width="1" opacity="1" d="M 7.5 32 L 8.5 34 L 7.5 32 Z " /><path fill="rgb(138,133,107)" stroke="rgb(138,133,107)" stroke-width="1" opacity="1" d="M 5.5 33 L 6.5 35 Q 3.7 35.7 5.5 33 Z " /><path fill="rgb(138,133,107)" stroke="rgb(138,133,107)" stroke-width="1" opacity="1" d="M 22.5 33 L 21.5 35 L 22.5 33 Z " /><path fill="rgb(138,133,107)" stroke="rgb(138,133,107)" stroke-width="1" opacity="1" d="M 14.5 35 L 13.5 37 L 14.5 35 Z " /><path fill="rgb(138,133,107)" stroke="rgb(138,133,107)" stroke-width="1" opacity="1" d="M 27.5 40 L 28 41.5 L 26.5 43 L 24 42.5 L 27.5 40 Z " /><path fill="rgb(138,133,107)" stroke="rgb(138,133,107)" stroke-width="1" opacity="1" d="M 2.5 42 L 3 44.5 L 2 44.5 L 2.5 42 Z " /><path fill="rgb(138,133,107)" stroke="rgb(138,133,107)" stroke-width="1" opacity="1" d="M 4 42 L 6 42.5 L 4 43.5 L 4 42 Z " /><path fill="rgb(138,133,107)" stroke="rgb(138,133,107)" stroke-width="1" opacity="1" d="M 10.5 46 L 12 46.5 L 8.5 48 L 8.5 47 L 10.5 46 Z " /><path fill="rgb(144,42,15)" stroke="rgb(144,42,15)" stroke-width="1" opacity="1" d="M 25.5 8 L 27 10.5 L 25 11.5 L 28 12.5 L 25 14 L 24 11.5 L 25.5 8 Z " /><path fill="rgb(144,42,15)" stroke="rgb(144,42,15)" stroke-width="1" opacity="1" d="M 24.5 16 L 26.5 16 Q 29.9 15.1 28 20.5 L 26.5 24 L 25.5 19 L 24 19.5 L 23 17.5 L 24.5 16 Z " /><path fill="rgb(144,42,15)" stroke="rgb(144,42,15)" stroke-width="1" opacity="1" d="M 20.5 19 L 23 19 Q 21.9 21.7 24.5 21 L 23.5 23 L 21 22.5 L 23 21.5 L 20.5 20 L 19 22.5 L 19 24.5 L 18 26.5 L 19 29 L 15 27.5 L 17 27.5 L 16 25.5 L 16.5 24 L 15 23.5 L 17 22.5 Q 14.7 21.3 17.5 20 L 20.5 19 Z " /><path fill="rgb(144,42,15)" stroke="rgb(144,42,15)" stroke-width="1" opacity="1" d="M 21.5 25 L 26 25.5 L 21.5 26 L 21.5 25 Z " /><path fill="rgb(144,42,15)" stroke="rgb(144,42,15)" stroke-width="1" opacity="1" d="M 22 31 Q 24.7 29.9 24 32.5 L 25 36 L 22 34.5 L 24 33.5 L 22 33 L 22 31 Z " /><path fill="rgb(144,42,15)" stroke="rgb(144,42,15)" stroke-width="1" opacity="1" d="M 22.5 37 Q 25.8 35.9 25 38.5 L 23.5 38 L 22.5 37 Z " /><path fill="rgb(144,42,15)" stroke="rgb(144,42,15)" stroke-width="1" opacity="1" d="M 22.5 39 L 24 42 L 21 42.5 L 23 43.5 Q 21.5 46.5 20 43.5 L 22.5 39 Z " /><path fill="rgb(223,95,31)" stroke="rgb(223,95,31)" stroke-width="1" opacity="1" d="M 25.5 11 Q 27.8 10.3 27 12.5 L 25 12.5 Q 24.2 15.5 28 14 L 28 16 L 25.5 17 L 23 16.5 L 24 13.5 L 23.5 12 L 25.5 11 Z " /><path fill="rgb(223,95,31)" stroke="rgb(223,95,31)" stroke-width="1" opacity="1" d="M 19.5 19 L 22.5 21 L 25.5 19 L 27 24.5 Q 21.6 23.6 20 26.5 L 19.5 28 Q 16.8 26.8 19 25.5 L 18 23.5 L 20 20.5 L 19.5 19 Z M 24 21 L 22 22 L 22 23 L 25 22 L 24 21 Z " /><path fill="rgb(223,95,31)" stroke="rgb(223,95,31)" stroke-width="1" opacity="1" d="M 14.5 24 L 17 24.5 L 17 26.5 L 16.5 28 L 14.5 24 Z " /><path fill="rgb(223,95,31)" stroke="rgb(223,95,31)" stroke-width="1" opacity="1" d="M 25.5 35 L 26 37.5 L 25 37.5 L 25.5 35 Z " /><path fill="rgb(223,95,31)" stroke="rgb(223,95,31)" stroke-width="1" opacity="1" d="M 22.5 38 L 25 39.5 L 23.5 40 L 22.5 38 Z " /><path fill="rgb(63,48,36)" stroke="rgb(63,48,36)" stroke-width="1" opacity="1" d="M 20.5 26 L 23 26.5 Q 20.9 29.8 20.5 26 Z " /><path fill="rgb(63,48,36)" stroke="rgb(63,48,36)" stroke-width="1" opacity="1" d="M 24.5 29 L 25.5 31 Q 22.7 31.7 24.5 29 Z " /><path fill="rgb(63,48,36)" stroke="rgb(63,48,36)" stroke-width="1" opacity="1" d="M 5.5 30 Q 7.8 29.3 7 31.5 L 5.5 30 Z " /><path fill="rgb(63,48,36)" stroke="rgb(63,48,36)" stroke-width="1" opacity="1" d="M 16.5 30 L 17.5 32 L 16.5 30 Z " /><path fill="rgb(63,48,36)" stroke="rgb(63,48,36)" stroke-width="1" opacity="1" d="M 4.5 32 L 6 35.5 L 4.5 38 L 2 34.5 L 4 34 L 4.5 32 Z " /><path fill="rgb(63,48,36)" stroke="rgb(63,48,36)" stroke-width="1" opacity="1" d="M 26.5 37 L 27 41 L 25 40.5 L 26.5 37 Z " /><path fill="rgb(63,48,36)" stroke="rgb(63,48,36)" stroke-width="1" opacity="1" d="M 3.5 39 L 4 40.5 L 2 41.5 L 3.5 39 Z " /><path fill="rgb(63,48,36)" stroke="rgb(63,48,36)" stroke-width="1" opacity="1" d="M 23.5 43 L 22.5 45 L 23.5 43 Z " /><path fill="rgb(237,181,103)" stroke="rgb(237,181,103)" stroke-width="1" opacity="1" d="M 12.5 29 L 17 29.5 L 14 31.5 L 15 33.5 L 13 34 L 9.5 41 L 10 39.5 Q 12.8 36.5 12 31 L 10 30.5 L 12.5 29 Z " /><path fill="rgb(163,171,157)" stroke="rgb(163,171,157)" stroke-width="1" opacity="1" d="M 9.5 17 L 10 18.5 L 7 20.5 L 9.5 17 Z " /><path fill="rgb(163,171,157)" stroke="rgb(163,171,157)" stroke-width="1" opacity="1" d="M 18 29 L 20 29.5 L 18 30.5 L 18 29 Z " /><path fill="rgb(163,171,157)" stroke="rgb(163,171,157)" stroke-width="1" opacity="1" d="M 3.5 38 L 6 39.5 Q 6.8 41.8 4.5 41 L 4.5 39 L 3.5 38 Z " /><path fill="rgb(163,171,157)" stroke="rgb(163,171,157)" stroke-width="1" opacity="1" d="M 18.5 38 L 17.5 40 L 18.5 38 Z " /><path fill="rgb(163,171,157)" stroke="rgb(163,171,157)" stroke-width="1" opacity="1" d="M 5.5 43 L 6.5 45 Q 3.7 45.7 5.5 43 Z " /><path fill="rgb(163,171,157)" stroke="rgb(163,171,157)" stroke-width="1" opacity="1" d="M 11.5 44 L 14 44.5 L 11.5 45 L 11.5 44 Z " /><path fill="rgb(89,86,73)" stroke="rgb(89,86,73)" stroke-width="1" opacity="1" d="M 14.5 2 L 17 3.5 L 13.5 4 L 14.5 2 Z " /><path fill="rgb(89,86,73)" stroke="rgb(89,86,73)" stroke-width="1" opacity="1" d="M 4.5 9 L 7 9.5 L 4.5 10 L 4.5 9 Z " /><path fill="rgb(89,86,73)" stroke="rgb(89,86,73)" stroke-width="1" opacity="1" d="M 22.5 11 L 21.5 13 L 22.5 11 Z " /><path fill="rgb(89,86,73)" stroke="rgb(89,86,73)" stroke-width="1" opacity="1" d="M 4.5 21 L 7 22.5 L 5.5 23 L 4.5 21 Z " /><path fill="rgb(89,86,73)" stroke="rgb(89,86,73)" stroke-width="1" opacity="1" d="M 8.5 25 L 8 26.5 L 6.5 29 Q 3.5 28.2 5 32 L 10.5 29 L 10.5 30 L 5.5 33 L 2 31.5 L 4 31 Q 2.5 27.3 5.5 28 L 8.5 25 Z " /><path fill="rgb(89,86,73)" stroke="rgb(89,86,73)" stroke-width="1" opacity="1" d="M 12.5 25 Q 14.8 24.3 14 26.5 L 12.5 25 Z " /><path fill="rgb(89,86,73)" stroke="rgb(89,86,73)" stroke-width="1" opacity="1" d="M 25.5 29 L 28 30.5 L 26 33.5 L 28 33.5 L 27 36.5 L 28 39.5 L 27 39.5 L 25 31 L 27 30.5 L 25.5 29 Z " /><path fill="rgb(89,86,73)" stroke="rgb(89,86,73)" stroke-width="1" opacity="1" d="M 17.5 30 L 19.5 30 L 21 30.5 L 18.5 32 L 17.5 30 Z " /><path fill="rgb(89,86,73)" stroke="rgb(89,86,73)" stroke-width="1" opacity="1" d="M 9.5 33 L 8.5 35 L 6.5 36 L 7.5 34 L 9.5 33 Z " /><path fill="rgb(89,86,73)" stroke="rgb(89,86,73)" stroke-width="1" opacity="1" d="M 3 41 L 7 42.5 L 6.5 44 L 6 42 Q 3.3 40.9 4 43.5 L 3 43.5 L 3 41 Z " /><path fill="rgb(89,86,73)" stroke="rgb(89,86,73)" stroke-width="1" opacity="1" d="M 24.5 41 L 26 44.5 L 24 43.5 L 24.5 41 Z " /><path fill="rgb(227,219,217)" stroke="rgb(227,219,217)" stroke-width="1" opacity="1" d="M 20.5 33 L 20.5 35 L 22 35.5 L 20 36.5 L 19 34.5 L 20.5 33 Z " /><path fill="rgb(227,219,217)" stroke="rgb(227,219,217)" stroke-width="1" opacity="1" d="M 16.5 34 L 19 38 L 21 38.5 L 20.5 41 Q 17.5 41.7 19 38 L 16.5 38 L 15 37.5 L 15.5 41 Q 17.3 38.3 19 42.5 L 17.5 45 L 16.5 44 L 7 44 L 6 37.5 L 7 35 Q 10.7 33.5 10 36.5 L 9.5 39 L 7 40.5 L 10 42 Q 8.9 39.3 11.5 40 Q 12.8 42.3 14 39.5 L 12 38.5 L 15 36.5 L 16.5 34 Z M 13 41 L 13 43 L 16 43 L 13 41 Z " /><path fill="rgb(227,219,217)" stroke="rgb(227,219,217)" stroke-width="1" opacity="1" d="M 2 45 Q 6.5 43.5 5 48 L 2.5 49 L 2 45 Z " /><path fill="rgb(227,219,217)" stroke="rgb(227,219,217)" stroke-width="1" opacity="1" d="M 12 45 L 14 45.5 L 13.5 47 L 18.5 46 L 20 46.5 L 20.5 45 L 21 46.5 L 19.5 48 L 12 48 L 12 45 Z " /><path fill="rgb(249,248,247)" stroke="rgb(249,248,247)" stroke-width="1" opacity="1" d="M 0 0 L 30 0 L 30 50 L 0 50 L 0 0 Z M 2 2 L 2 49 L 5 48 L 20 48 L 21 47 L 22 45 L 28 45 L 28 2 L 2 2 Z " /><path fill="rgb(249,248,247)" stroke="rgb(249,248,247)" stroke-width="1" opacity="1" d="M 15.5 37 L 17 39.5 L 15 40.5 L 15.5 37 Z " /><path fill="rgb(249,248,247)" stroke="rgb(249,248,247)" stroke-width="1" opacity="1" d="M 11.5 39 L 12.5 41 L 11.5 39 Z " /><path fill="rgb(196,198,182)" stroke="rgb(196,198,182)" stroke-width="1" opacity="1" d="M 10.5 16 L 13 17.5 L 12.5 20 Q 9.9 20.8 11 17.5 L 10.5 16 Z " /><path fill="rgb(196,198,182)" stroke="rgb(196,198,182)" stroke-width="1" opacity="1" d="M 21.5 16 L 20.5 18 L 21.5 16 Z " /><path fill="rgb(196,198,182)" stroke="rgb(196,198,182)" stroke-width="1" opacity="1" d="M 14.5 18 L 16 20.5 L 14 21 L 14.5 18 Z " /><path fill="rgb(196,198,182)" stroke="rgb(196,198,182)" stroke-width="1" opacity="1" d="M 17.5 32 L 18 34 L 16 33.5 L 17.5 32 Z " /><path fill="rgb(196,198,182)" stroke="rgb(196,198,182)" stroke-width="1" opacity="1" d="M 18.5 35 Q 20.8 34.3 20 36.5 L 17.5 37 L 16 36.5 L 18.5 35 Z " /><path fill="rgb(196,198,182)" stroke="rgb(196,198,182)" stroke-width="1" opacity="1" d="M 8.5 39 L 8.5 42 Q 5.5 40.5 8.5 39 Z " /><path fill="rgb(196,198,182)" stroke="rgb(196,198,182)" stroke-width="1" opacity="1" d="M 18.5 39 L 19 41 L 17 40.5 L 18.5 39 Z " /><path fill="rgb(196,198,182)" stroke="rgb(196,198,182)" stroke-width="1" opacity="1" d="M 7.5 44 Q 11.3 43.3 12 45.5 L 8 46 L 7.5 48 L 6.5 46 L 5.5 48 L 5 45 L 7.5 44 Z " /><path fill="rgb(196,198,182)" stroke="rgb(196,198,182)" stroke-width="1" opacity="1" d="M 14 44 L 17.5 45 Q 18.8 42.8 20 45.5 L 19.5 47 L 17 46.5 Q 17.8 44.3 15.5 45 L 14 45.5 L 14 44 Z " /><path fill="rgb(199,126,64)" stroke="rgb(199,126,64)" stroke-width="1" opacity="1" d="M 15.5 21 L 16 22.5 L 13.5 24 L 12.5 22 L 15 23 L 15.5 21 Z " /><path fill="rgb(199,126,64)" stroke="rgb(199,126,64)" stroke-width="1" opacity="1" d="M 11.5 26 Q 14.1 25.3 13 28 L 10 27.5 L 11.5 26 Z " /><path fill="rgb(199,126,64)" stroke="rgb(199,126,64)" stroke-width="1" opacity="1" d="M 25.5 26 L 26.5 28 Q 23.7 28.7 25.5 26 Z " /><path fill="rgb(199,126,64)" stroke="rgb(199,126,64)" stroke-width="1" opacity="1" d="M 9.5 31 L 12 31.5 L 9.5 32 L 9.5 31 Z " /></svg>