<svg width="30" height="50" version="1.1" xmlns="http://www.w3.org/2000/svg" desc="Created with imagetracer.js version 1.2.6" ><path fill="rgb(72,69,67)" stroke="rgb(72,69,67)" stroke-width="1" opacity="1" d="M 9.5 4 L 12 5.5 L 10.5 6 L 9.5 4 Z " /><path fill="rgb(72,69,67)" stroke="rgb(72,69,67)" stroke-width="1" opacity="1" d="M 10.5 12 L 11 14 L 9 13.5 L 10.5 12 Z " /><path fill="rgb(72,69,67)" stroke="rgb(72,69,67)" stroke-width="1" opacity="1" d="M 14.5 17 L 17 18.5 L 15.5 18 L 14.5 17 Z " /><path fill="rgb(72,69,67)" stroke="rgb(72,69,67)" stroke-width="1" opacity="1" d="M 25.5 20 L 26 22.5 L 25 22.5 L 25.5 20 Z " /><path fill="rgb(72,69,67)" stroke="rgb(72,69,67)" stroke-width="1" opacity="1" d="M 5.5 22 L 6.5 24 L 5.5 22 Z " /><path fill="rgb(72,69,67)" stroke="rgb(72,69,67)" stroke-width="1" opacity="1" d="M 6.5 32 L 7 34.5 L 6 34.5 L 6.5 32 Z " /><path fill="rgb(132,125,92)" stroke="rgb(132,125,92)" stroke-width="1" opacity="1" d="M 12.5 6 L 13.5 8 L 8.5 9 L 8.5 8 Q 13 9.3 12.5 6 Z " /><path fill="rgb(132,125,92)" stroke="rgb(132,125,92)" stroke-width="1" opacity="1" d="M 19.5 10 Q 22.1 9.2 21 12.5 L 20 14.5 L 20 16.5 L 19.5 19 L 17 13.5 L 20 12.5 L 19.5 10 Z " /><path fill="rgb(132,125,92)" stroke="rgb(132,125,92)" stroke-width="1" opacity="1" d="M 9 14 L 11 14.5 L 9 15.5 L 9 14 Z " /><path fill="rgb(132,125,92)" stroke="rgb(132,125,92)" stroke-width="1" opacity="1" d="M 14.5 15 L 17 16.5 L 15.5 16 L 14.5 15 Z " /><path fill="rgb(132,125,92)" stroke="rgb(132,125,92)" stroke-width="1" opacity="1" d="M 11.5 16 L 10.5 18 L 11.5 16 Z " /><path fill="rgb(132,125,92)" stroke="rgb(132,125,92)" stroke-width="1" opacity="1" d="M 16.5 42 L 20 43.5 L 17.5 44 L 16.5 42 Z " /><path fill="rgb(183,179,161)" stroke="rgb(183,179,161)" stroke-width="1" opacity="1" d="M 8.5 1 L 11 1.5 L 8.5 2 L 8.5 1 Z " /><path fill="rgb(183,179,161)" stroke="rgb(183,179,161)" stroke-width="1" opacity="1" d="M 11.5 4 L 15 4.5 L 11.5 5 L 11.5 4 Z " /><path fill="rgb(183,179,161)" stroke="rgb(183,179,161)" stroke-width="1" opacity="1" d="M 21.5 5 L 20.5 7 L 19 7.5 L 21 8.5 L 19.5 9 Q 16.5 7.5 19.5 6 L 21.5 5 Z " /><path fill="rgb(183,179,161)" stroke="rgb(183,179,161)" stroke-width="1" opacity="1" d="M 10.5 6 Q 13.1 5.3 12 8 L 9 7.5 L 10.5 6 Z " /><path fill="rgb(183,179,161)" stroke="rgb(183,179,161)" stroke-width="1" opacity="1" d="M 25.5 7 L 26.5 9 L 24.5 10 L 24 8.5 L 25.5 7 Z " /><path fill="rgb(183,179,161)" stroke="rgb(183,179,161)" stroke-width="1" opacity="1" d="M 10 9 L 12 9.5 L 10 10.5 L 10 9 Z " /><path fill="rgb(183,179,161)" stroke="rgb(183,179,161)" stroke-width="1" opacity="1" d="M 18.5 10 L 17.5 12 L 18.5 10 Z " /><path fill="rgb(183,179,161)" stroke="rgb(183,179,161)" stroke-width="1" opacity="1" d="M 8.5 15 L 10.5 16 L 12 15.5 L 8 17 L 8.5 15 Z " /><path fill="rgb(183,179,161)" stroke="rgb(183,179,161)" stroke-width="1" opacity="1" d="M 8.5 19 L 10 21.5 L 8 20.5 L 8.5 19 Z " /><path fill="rgb(183,179,161)" stroke="rgb(183,179,161)" stroke-width="1" opacity="1" d="M 3.5 20 L 4 22.5 L 3 22.5 L 3.5 20 Z " /><path fill="rgb(183,179,161)" stroke="rgb(183,179,161)" stroke-width="1" opacity="1" d="M 16.5 28 L 17 30 L 15 29.5 L 16.5 28 Z " /><path fill="rgb(183,179,161)" stroke="rgb(183,179,161)" stroke-width="1" opacity="1" d="M 8.5 34 L 9.5 36 L 8.5 34 Z " /><path fill="rgb(183,179,161)" stroke="rgb(183,179,161)" stroke-width="1" opacity="1" d="M 20.5 41 L 19.5 43 L 20.5 41 Z " /><path fill="rgb(183,179,161)" stroke="rgb(183,179,161)" stroke-width="1" opacity="1" d="M 11.5 42 L 14 43.5 L 13.5 45 L 19.5 44 L 19.5 45 L 16.5 47 L 14.5 46 L 13 46.5 Q 13.8 44.3 11.5 45 L 11.5 42 Z " /><path fill="rgb(100,102,98)" stroke="rgb(100,102,98)" stroke-width="1" opacity="1" d="M 19.5 3 L 22 6.5 L 20 7.5 Q 22.5 6 19 4.5 L 19.5 3 Z " /><path fill="rgb(100,102,98)" stroke="rgb(100,102,98)" stroke-width="1" opacity="1" d="M 7.5 8 L 9 10.5 L 8 10.5 L 7.5 9 L 6 9.5 L 7.5 8 Z " /><path fill="rgb(100,102,98)" stroke="rgb(100,102,98)" stroke-width="1" opacity="1" d="M 18.5 8 L 19.5 10 L 18.5 8 Z " /><path fill="rgb(100,102,98)" stroke="rgb(100,102,98)" stroke-width="1" opacity="1" d="M 21.5 29 Q 23.8 28.3 23 30.5 L 21.5 29 Z " /><path fill="rgb(100,102,98)" stroke="rgb(100,102,98)" stroke-width="1" opacity="1" d="M 9.5 31 L 9 32.5 L 8.5 34 L 8 32.5 L 9.5 31 Z " /><path fill="rgb(100,102,98)" stroke="rgb(100,102,98)" stroke-width="1" opacity="1" d="M 8.5 35 L 9 37.5 L 8 37.5 L 8.5 35 Z " /><path fill="rgb(100,102,98)" stroke="rgb(100,102,98)" stroke-width="1" opacity="1" d="M 26.5 39 Q 28.8 38.3 28 40.5 L 26.5 39 Z " /><path fill="rgb(59,79,88)" stroke="rgb(59,79,88)" stroke-width="1" opacity="1" d="M 6.5 10 L 7 22.5 L 6 22.5 L 6.5 10 Z " /><path fill="rgb(59,79,88)" stroke="rgb(59,79,88)" stroke-width="1" opacity="1" d="M 12.5 19 Q 14.8 18.3 14 20.5 L 12.5 19 Z " /><path fill="rgb(59,79,88)" stroke="rgb(59,79,88)" stroke-width="1" opacity="1" d="M 17.5 20 L 18 23.5 L 17 23.5 L 17.5 20 Z " /><path fill="rgb(59,79,88)" stroke="rgb(59,79,88)" stroke-width="1" opacity="1" d="M 8.5 23 L 6.5 26 L 8.5 23 Z " /><path fill="rgb(59,79,88)" stroke="rgb(59,79,88)" stroke-width="1" opacity="1" d="M 22.5 42 L 21.5 44 L 22.5 42 Z " /><path fill="rgb(100,166,179)" stroke="rgb(100,166,179)" stroke-width="1" opacity="1" d="M 18.5 21 L 19 23.5 L 18 23.5 L 18.5 21 Z " /><path fill="rgb(100,166,179)" stroke="rgb(100,166,179)" stroke-width="1" opacity="1" d="M 11.5 23 L 13 25.5 L 11 24.5 L 11.5 23 Z " /><path fill="rgb(100,166,179)" stroke="rgb(100,166,179)" stroke-width="1" opacity="1" d="M 15.5 30 L 14.5 32 L 15.5 30 Z " /><path fill="rgb(100,166,179)" stroke="rgb(100,166,179)" stroke-width="1" opacity="1" d="M 11.5 31 L 10.5 33 L 11.5 31 Z " /><path fill="rgb(100,166,179)" stroke="rgb(100,166,179)" stroke-width="1" opacity="1" d="M 16.5 32 L 15.5 34 L 14 33.5 L 16.5 32 Z " /><path fill="rgb(100,166,179)" stroke="rgb(100,166,179)" stroke-width="1" opacity="1" d="M 15.5 35 L 16.5 37 L 15.5 35 Z " /><path fill="rgb(100,166,179)" stroke="rgb(100,166,179)" stroke-width="1" opacity="1" d="M 19.5 35 L 20 37 L 18 36.5 L 19.5 35 Z " /><path fill="rgb(100,166,179)" stroke="rgb(100,166,179)" stroke-width="1" opacity="1" d="M 10.5 38 L 11.5 40 L 10.5 38 Z " /><path fill="rgb(100,166,179)" stroke="rgb(100,166,179)" stroke-width="1" opacity="1" d="M 20.5 38 Q 23.5 39.5 20.5 41 L 20.5 38 Z " /><path fill="rgb(100,166,179)" stroke="rgb(100,166,179)" stroke-width="1" opacity="1" d="M 15.5 41 L 14.5 43 L 15.5 41 Z " /><path fill="rgb(117,188,200)" stroke="rgb(117,188,200)" stroke-width="1" opacity="1" d="M 7.5 17 L 8 19.5 L 7 19.5 L 7.5 17 Z " /><path fill="rgb(117,188,200)" stroke="rgb(117,188,200)" stroke-width="1" opacity="1" d="M 17.5 19 L 18.5 21 L 17.5 19 Z " /><path fill="rgb(117,188,200)" stroke="rgb(117,188,200)" stroke-width="1" opacity="1" d="M 22.5 22 L 23 28.5 L 22 28.5 L 22.5 22 Z " /><path fill="rgb(117,188,200)" stroke="rgb(117,188,200)" stroke-width="1" opacity="1" d="M 7.5 25 L 8 27.5 L 7 27.5 L 7.5 25 Z " /><path fill="rgb(117,188,200)" stroke="rgb(117,188,200)" stroke-width="1" opacity="1" d="M 11.5 30 L 10.5 32 L 11.5 30 Z " /><path fill="rgb(117,188,200)" stroke="rgb(117,188,200)" stroke-width="1" opacity="1" d="M 18.5 30 L 19.5 32 L 18.5 30 Z " /><path fill="rgb(117,188,200)" stroke="rgb(117,188,200)" stroke-width="1" opacity="1" d="M 7.5 31 L 8 33.5 L 7 33.5 L 7.5 31 Z " /><path fill="rgb(117,188,200)" stroke="rgb(117,188,200)" stroke-width="1" opacity="1" d="M 18 38 L 20 38.5 L 20 40.5 L 19.5 42 L 18 38 Z " /><path fill="rgb(252,253,252)" stroke="rgb(252,253,252)" stroke-width="1" opacity="1" d="M 0 0 L 30 0 L 30 50 L 0 50 L 0 0 Z M 1 1 L 1 43 L 1 45 L 2 48 L 28 48 L 29 45 L 28 42 L 29 40 L 29 36 L 28 26 L 28 24 L 29 22 L 28 21 L 28 10 L 28 8 Q 29 1 28 1 L 1 1 Z " /><path fill="rgb(47,46,51)" stroke="rgb(47,46,51)" stroke-width="1" opacity="1" d="M 6.5 8 L 7.5 10 L 6 9.5 L 5.5 11 L 5 9.5 L 6.5 8 Z " /><path fill="rgb(47,46,51)" stroke="rgb(47,46,51)" stroke-width="1" opacity="1" d="M 16.5 17 L 19 17.5 L 16.5 18 L 16.5 17 Z " /><path fill="rgb(47,46,51)" stroke="rgb(47,46,51)" stroke-width="1" opacity="1" d="M 20.5 19 L 21.5 21 L 20.5 19 Z " /><path fill="rgb(47,46,51)" stroke="rgb(47,46,51)" stroke-width="1" opacity="1" d="M 2.5 20 L 3 22.5 L 2 22.5 L 2.5 20 Z " /><path fill="rgb(47,46,51)" stroke="rgb(47,46,51)" stroke-width="1" opacity="1" d="M 4.5 20 L 5.5 22 L 4.5 20 Z " /><path fill="rgb(47,46,51)" stroke="rgb(47,46,51)" stroke-width="1" opacity="1" d="M 6.5 39 L 7.5 41 L 9 40.5 Q 7.5 43.5 6 40.5 L 6.5 39 Z " /><path fill="rgb(77,124,135)" stroke="rgb(77,124,135)" stroke-width="1" opacity="1" d="M 11 18 L 13 18.5 L 11 19.5 L 11 18 Z " /><path fill="rgb(77,124,135)" stroke="rgb(77,124,135)" stroke-width="1" opacity="1" d="M 17.5 18 L 18.5 20 L 17.5 18 Z " /><path fill="rgb(77,124,135)" stroke="rgb(77,124,135)" stroke-width="1" opacity="1" d="M 9.5 25 L 8.5 27 L 9.5 25 Z " /><path fill="rgb(77,124,135)" stroke="rgb(77,124,135)" stroke-width="1" opacity="1" d="M 10.5 29 L 9.5 31 L 10.5 29 Z " /><path fill="rgb(77,124,135)" stroke="rgb(77,124,135)" stroke-width="1" opacity="1" d="M 12 30 Q 15 29 14 32 Q 11 33 12 30 Z " /><path fill="rgb(77,124,135)" stroke="rgb(77,124,135)" stroke-width="1" opacity="1" d="M 22.5 31 L 21.5 33 L 22.5 31 Z " /><path fill="rgb(77,124,135)" stroke="rgb(77,124,135)" stroke-width="1" opacity="1" d="M 19.5 34 L 17.5 37 L 19.5 34 Z " /><path fill="rgb(77,124,135)" stroke="rgb(77,124,135)" stroke-width="1" opacity="1" d="M 8.5 41 L 9.5 43 L 8.5 41 Z " /><path fill="rgb(77,124,135)" stroke="rgb(77,124,135)" stroke-width="1" opacity="1" d="M 23.5 42 L 24.5 44 L 23.5 42 Z " /><path fill="rgb(142,224,235)" stroke="rgb(142,224,235)" stroke-width="1" opacity="1" d="M 13.5 2 Q 19.4 0.3 18 4 L 12 3.5 L 13.5 2 Z " /><path fill="rgb(142,224,235)" stroke="rgb(142,224,235)" stroke-width="1" opacity="1" d="M 27.5 11 L 28 23.5 L 27 23.5 L 27.5 11 Z " /><path fill="rgb(142,224,235)" stroke="rgb(142,224,235)" stroke-width="1" opacity="1" d="M 7.5 14 L 8 16.5 L 7 16.5 L 7.5 14 Z " /><path fill="rgb(142,224,235)" stroke="rgb(142,224,235)" stroke-width="1" opacity="1" d="M 19.5 20 Q 22 25.7 21 34 L 15.5 35 L 17 32.5 L 16 31.5 Q 15.3 28.9 18 30 Q 16.9 32.7 19.5 32 L 19 30.5 L 20 26.5 Q 17.4 24.9 19.5 20 Z " /><path fill="rgb(142,224,235)" stroke="rgb(142,224,235)" stroke-width="1" opacity="1" d="M 11.5 21 L 13 21.5 L 11 22 L 12 28.5 L 9 28.5 L 10 22.5 L 11.5 21 Z " /><path fill="rgb(142,224,235)" stroke="rgb(142,224,235)" stroke-width="1" opacity="1" d="M 27.5 25 L 28 30.5 L 27 30.5 L 27.5 25 Z " /><path fill="rgb(142,224,235)" stroke="rgb(142,224,235)" stroke-width="1" opacity="1" d="M 11 32 L 15 32.5 L 11 34 L 11 32 Z " /><path fill="rgb(142,224,235)" stroke="rgb(142,224,235)" stroke-width="1" opacity="1" d="M 18.5 37 L 21 37.5 L 18.5 38 L 18.5 37 Z " /><path fill="rgb(142,224,235)" stroke="rgb(142,224,235)" stroke-width="1" opacity="1" d="M 10 40 L 12 40.5 L 10 41.5 L 10 40 Z " /><path fill="rgb(142,224,235)" stroke="rgb(142,224,235)" stroke-width="1" opacity="1" d="M 24.5 42 L 24.5 45 Q 21.5 43.5 24.5 42 Z " /><path fill="rgb(245,246,248)" stroke="rgb(245,246,248)" stroke-width="1" opacity="1" d="M 1.5 1 L 2 27.5 L 1 27.5 L 1.5 1 Z " /><path fill="rgb(245,246,248)" stroke="rgb(245,246,248)" stroke-width="1" opacity="1" d="M 27.5 1 L 29 8.5 L 26.5 7 L 23.5 8 L 20 2.5 L 27.5 1 Z " /><path fill="rgb(245,246,248)" stroke="rgb(245,246,248)" stroke-width="1" opacity="1" d="M 14 11 L 17 12.5 L 13.5 14 L 14 12.5 L 14 11 Z " /><path fill="rgb(245,246,248)" stroke="rgb(245,246,248)" stroke-width="1" opacity="1" d="M 25 12 Q 27.7 10.9 27 13.5 L 24 24 L 26.5 23 L 27 24.5 L 26 28.5 Q 28.3 29.7 27 34.5 L 26 36.5 L 26 38.5 L 27 40.5 L 25.5 43 L 23 37.5 L 24 36.5 L 24 27.5 L 23 26.5 L 23 14 Q 26 15 25 12 Z " /><path fill="rgb(245,246,248)" stroke="rgb(245,246,248)" stroke-width="1" opacity="1" d="M 28.5 30 L 29 35.5 L 28 35.5 L 28.5 30 Z " /><path fill="rgb(245,246,248)" stroke="rgb(245,246,248)" stroke-width="1" opacity="1" d="M 1.5 33 L 2 37.5 L 1 37.5 L 1.5 33 Z " /><path fill="rgb(245,246,248)" stroke="rgb(245,246,248)" stroke-width="1" opacity="1" d="M 12.5 34 Q 15.1 33.2 14 36.5 L 15 39 L 17.5 38 L 16.5 40 Q 13.2 41.1 14 38.5 L 11 37.5 Q 14.1 35.7 12.5 34 Z " /><path fill="rgb(245,246,248)" stroke="rgb(245,246,248)" stroke-width="1" opacity="1" d="M 1.5 39 L 3 43.5 L 1 44.5 L 1 42.5 L 1.5 39 Z " /><path fill="rgb(245,246,248)" stroke="rgb(245,246,248)" stroke-width="1" opacity="1" d="M 12.5 40 L 13 42.5 L 11 43.5 L 12.5 40 Z " /><path fill="rgb(245,246,248)" stroke="rgb(245,246,248)" stroke-width="1" opacity="1" d="M 28.5 42 L 29 44.5 L 28.5 46 L 27 43.5 L 28.5 42 Z " /><path fill="rgb(245,246,248)" stroke="rgb(245,246,248)" stroke-width="1" opacity="1" d="M 13.5 47 L 28 47.5 L 13.5 48 L 13.5 47 Z " /><path fill="rgb(28,18,25)" stroke="rgb(28,18,25)" stroke-width="1" opacity="1" d="M 2 2 L 12 2.5 L 8 5.5 L 8.5 7 L 5.5 6 L 2 6.5 L 2 2 Z " /><path fill="rgb(28,18,25)" stroke="rgb(28,18,25)" stroke-width="1" opacity="1" d="M 4.5 8 Q 7.4 12.2 6 20.5 L 5 22.5 L 6 23.5 L 6 38.5 Q 3.5 40 7 41.5 L 7 43 L 2 43 L 4 39.5 L 2 39 L 2 23.5 L 4 23 L 4 21.5 L 4.5 20 L 2 19.5 L 3 18.5 L 3 10.5 L 2.5 9 L 4.5 8 Z " /><path fill="rgb(28,18,25)" stroke="rgb(28,18,25)" stroke-width="1" opacity="1" d="M 14 8 L 16 8.5 L 14 9.5 L 14 8 Z " /><path fill="rgb(194,220,224)" stroke="rgb(194,220,224)" stroke-width="1" opacity="1" d="M 11.5 1 L 15 1.5 L 11.5 2 L 11.5 1 Z " /><path fill="rgb(194,220,224)" stroke="rgb(194,220,224)" stroke-width="1" opacity="1" d="M 20.5 3 L 21.5 5 L 20.5 3 Z " /><path fill="rgb(194,220,224)" stroke="rgb(194,220,224)" stroke-width="1" opacity="1" d="M 15.5 4 L 19 4.5 L 15.5 5 L 15.5 4 Z " /><path fill="rgb(194,220,224)" stroke="rgb(194,220,224)" stroke-width="1" opacity="1" d="M 22.5 6 L 24 8.5 L 22 7.5 L 22.5 6 Z " /><path fill="rgb(194,220,224)" stroke="rgb(194,220,224)" stroke-width="1" opacity="1" d="M 25.5 10 L 27 10.5 L 24.5 12 L 25.5 10 Z " /><path fill="rgb(194,220,224)" stroke="rgb(194,220,224)" stroke-width="1" opacity="1" d="M 15.5 20 L 16 23 Q 13 21.8 14 25.5 L 12 26.5 L 15.5 20 Z " /><path fill="rgb(194,220,224)" stroke="rgb(194,220,224)" stroke-width="1" opacity="1" d="M 15.5 27 L 18 27.5 L 14.5 29 L 15.5 27 Z " /><path fill="rgb(194,220,224)" stroke="rgb(194,220,224)" stroke-width="1" opacity="1" d="M 23.5 29 L 24 34.5 L 23 37.5 L 22 40.5 L 22.5 42 Q 19.8 40.8 22 39.5 L 23 36.5 L 21 35.5 L 23 35 L 23.5 29 Z " /><path fill="rgb(194,220,224)" stroke="rgb(194,220,224)" stroke-width="1" opacity="1" d="M 9.5 32 Q 12.5 33.5 9.5 35 L 9.5 32 Z " /><path fill="rgb(194,220,224)" stroke="rgb(194,220,224)" stroke-width="1" opacity="1" d="M 14.5 34 L 15 37 L 18 37.5 L 15 39 L 14.5 34 Z " /><path fill="rgb(194,220,224)" stroke="rgb(194,220,224)" stroke-width="1" opacity="1" d="M 26.5 35 L 27.5 37 L 26.5 35 Z " /><path fill="rgb(194,220,224)" stroke="rgb(194,220,224)" stroke-width="1" opacity="1" d="M 9.5 36 Q 12.5 37.5 9.5 39 L 9.5 36 Z " /><path fill="rgb(194,220,224)" stroke="rgb(194,220,224)" stroke-width="1" opacity="1" d="M 12.5 37 L 13.5 39 L 12.5 37 Z " /><path fill="rgb(194,220,224)" stroke="rgb(194,220,224)" stroke-width="1" opacity="1" d="M 15.5 42 L 14.5 44 L 15.5 42 Z " /><path fill="rgb(194,220,224)" stroke="rgb(194,220,224)" stroke-width="1" opacity="1" d="M 4.5 45 L 5 47 L 3 46.5 L 4.5 45 Z " /><path fill="rgb(136,146,145)" stroke="rgb(136,146,145)" stroke-width="1" opacity="1" d="M 12.5 5 L 18 8.5 Q 16.9 11.8 19.5 11 L 19.5 12 L 17.5 13 Q 14.7 11.8 17 10.5 Q 18.3 6.8 14.5 8 L 12.5 5 Z " /><path fill="rgb(136,146,145)" stroke="rgb(136,146,145)" stroke-width="1" opacity="1" d="M 19.5 5 L 18.5 7 L 19.5 5 Z " /><path fill="rgb(136,146,145)" stroke="rgb(136,146,145)" stroke-width="1" opacity="1" d="M 12.5 8 L 13 10 L 15.5 9 L 14.5 11 L 12 9.5 L 12.5 8 Z " /><path fill="rgb(136,146,145)" stroke="rgb(136,146,145)" stroke-width="1" opacity="1" d="M 11 12 L 13 12.5 L 11 13.5 L 11 12 Z " /><path fill="rgb(136,146,145)" stroke="rgb(136,146,145)" stroke-width="1" opacity="1" d="M 12 15 L 14 15.5 L 12 16.5 L 12 15 Z " /><path fill="rgb(136,146,145)" stroke="rgb(136,146,145)" stroke-width="1" opacity="1" d="M 17.5 15 L 18.5 17 Q 15.7 17.7 17.5 15 Z " /><path fill="rgb(136,146,145)" stroke="rgb(136,146,145)" stroke-width="1" opacity="1" d="M 15.5 19 L 17 19.5 L 14 21.5 L 13.5 23 L 13 21.5 L 15.5 19 Z " /><path fill="rgb(136,146,145)" stroke="rgb(136,146,145)" stroke-width="1" opacity="1" d="M 15.5 24 L 18.5 28 L 15.5 24 Z " /><path fill="rgb(136,146,145)" stroke="rgb(136,146,145)" stroke-width="1" opacity="1" d="M 21.5 33 L 22 35 L 20 34.5 L 21.5 33 Z " /><path fill="rgb(136,146,145)" stroke="rgb(136,146,145)" stroke-width="1" opacity="1" d="M 16.5 43 L 15.5 45 L 16.5 43 Z " /><path fill="rgb(136,146,145)" stroke="rgb(136,146,145)" stroke-width="1" opacity="1" d="M 2.5 44 L 7 45.5 L 5 46.5 Q 5.8 43.9 2.5 45 L 2.5 44 Z " /><path fill="rgb(236,234,233)" stroke="rgb(236,234,233)" stroke-width="1" opacity="1" d="M 15.5 1 L 27 1.5 L 15.5 2 L 15.5 1 Z " /><path fill="rgb(236,234,233)" stroke="rgb(236,234,233)" stroke-width="1" opacity="1" d="M 25.5 11 L 25 12.5 L 24.5 14 L 24 12.5 L 25.5 11 Z " /><path fill="rgb(236,234,233)" stroke="rgb(236,234,233)" stroke-width="1" opacity="1" d="M 16.5 13 L 15.5 15 L 13 14.5 L 16.5 13 Z " /><path fill="rgb(236,234,233)" stroke="rgb(236,234,233)" stroke-width="1" opacity="1" d="M 26.5 25 L 27 28.5 L 26 28.5 L 26.5 25 Z " /><path fill="rgb(236,234,233)" stroke="rgb(236,234,233)" stroke-width="1" opacity="1" d="M 12.5 35 L 11.5 37 L 12.5 35 Z " /><path fill="rgb(236,234,233)" stroke="rgb(236,234,233)" stroke-width="1" opacity="1" d="M 26.5 36 L 27.5 38 L 26.5 36 Z " /><path fill="rgb(236,234,233)" stroke="rgb(236,234,233)" stroke-width="1" opacity="1" d="M 1.5 45 L 2 47 L 7 47 Q 6 44 9 45 L 10 47.5 L 7.5 48 Q 2.3 49.3 1 46.5 L 1.5 45 Z " /><path fill="rgb(236,234,233)" stroke="rgb(236,234,233)" stroke-width="1" opacity="1" d="M 16.5 45 L 15.5 47 L 14 46.5 L 16.5 45 Z " /></svg>