<svg width="30" height="50" version="1.1" xmlns="http://www.w3.org/2000/svg" desc="Created with imagetracer.js version 1.2.6" ><path fill="rgb(50,34,40)" stroke="rgb(50,34,40)" stroke-width="1" opacity="1" d="M 4.5 3 L 4 4.5 L 2.5 7 L 3 5.5 L 4.5 3 Z " /><path fill="rgb(50,34,40)" stroke="rgb(50,34,40)" stroke-width="1" opacity="1" d="M 26.5 4 L 28 4 L 28 8 L 25 6.5 L 27 6.5 L 26.5 4 Z " /><path fill="rgb(50,34,40)" stroke="rgb(50,34,40)" stroke-width="1" opacity="1" d="M 7.5 11 L 8 12.5 L 5 14.5 L 7.5 11 Z " /><path fill="rgb(50,34,40)" stroke="rgb(50,34,40)" stroke-width="1" opacity="1" d="M 24.5 12 L 26 12.5 L 23.5 14 L 24.5 12 Z " /><path fill="rgb(50,34,40)" stroke="rgb(50,34,40)" stroke-width="1" opacity="1" d="M 3.5 13 L 4 15.5 L 3 15.5 L 3.5 13 Z " /><path fill="rgb(50,34,40)" stroke="rgb(50,34,40)" stroke-width="1" opacity="1" d="M 17.5 25 L 18.5 27 L 16 26.5 L 17.5 25 Z " /><path fill="rgb(50,34,40)" stroke="rgb(50,34,40)" stroke-width="1" opacity="1" d="M 4.5 29 L 5 31.5 L 3 30.5 L 4.5 29 Z " /><path fill="rgb(50,34,40)" stroke="rgb(50,34,40)" stroke-width="1" opacity="1" d="M 14.5 35 L 15.5 37 Q 12.7 37.7 14.5 35 Z " /><path fill="rgb(50,34,40)" stroke="rgb(50,34,40)" stroke-width="1" opacity="1" d="M 20.5 39 Q 22.8 38.3 22 40.5 L 20.5 39 Z " /><path fill="rgb(50,34,40)" stroke="rgb(50,34,40)" stroke-width="1" opacity="1" d="M 16.5 41 Q 19.8 39.9 19 42.5 L 17.5 42 L 16.5 41 Z " /><path fill="rgb(50,34,40)" stroke="rgb(50,34,40)" stroke-width="1" opacity="1" d="M 25.5 41 Q 30 43 26.5 45 Q 23 45.8 25.5 41 Z " /><path fill="rgb(50,34,40)" stroke="rgb(50,34,40)" stroke-width="1" opacity="1" d="M 3.5 42 Q 6.5 43.5 3.5 45 Q 1.3 45.8 2 43.5 L 3.5 42 Z " /><path fill="rgb(50,34,40)" stroke="rgb(50,34,40)" stroke-width="1" opacity="1" d="M 16.5 48 L 22 48.5 L 16.5 49 L 16.5 48 Z " /><path fill="rgb(129,133,139)" stroke="rgb(129,133,139)" stroke-width="1" opacity="1" d="M 22.5 2 L 21.5 4 L 22.5 2 Z " /><path fill="rgb(129,133,139)" stroke="rgb(129,133,139)" stroke-width="1" opacity="1" d="M 8.5 4 L 9 6.5 L 8 6.5 L 8.5 4 Z " /><path fill="rgb(129,133,139)" stroke="rgb(129,133,139)" stroke-width="1" opacity="1" d="M 10.5 13 L 11.5 15 L 10.5 13 Z " /><path fill="rgb(129,133,139)" stroke="rgb(129,133,139)" stroke-width="1" opacity="1" d="M 2.5 14 L 3 16.5 L 2 16.5 L 2.5 14 Z " /><path fill="rgb(129,133,139)" stroke="rgb(129,133,139)" stroke-width="1" opacity="1" d="M 21.5 16 L 22.5 18 L 21.5 16 Z " /><path fill="rgb(129,133,139)" stroke="rgb(129,133,139)" stroke-width="1" opacity="1" d="M 8.5 23 L 9 25.5 L 8 25.5 L 8.5 23 Z " /><path fill="rgb(129,133,139)" stroke="rgb(129,133,139)" stroke-width="1" opacity="1" d="M 4.5 39 L 3.5 41 L 4.5 39 Z " /><path fill="rgb(129,133,139)" stroke="rgb(129,133,139)" stroke-width="1" opacity="1" d="M 11.5 40 L 12.5 42 L 11.5 40 Z " /><path fill="rgb(129,133,139)" stroke="rgb(129,133,139)" stroke-width="1" opacity="1" d="M 11.5 46 L 14 47.5 L 12.5 47 L 11.5 46 Z " /><path fill="rgb(129,133,139)" stroke="rgb(129,133,139)" stroke-width="1" opacity="1" d="M 8.5 47 L 9.5 49 L 7.5 49 L 6 48.5 L 8.5 47 Z " /><path fill="rgb(164,237,247)" stroke="rgb(164,237,247)" stroke-width="1" opacity="1" d="M 2 1 L 26.5 1 L 28 2.5 L 26.5 2 Q 22 1 21 3.5 Q 22.1 6.8 19.5 6 L 17 2 Q 12 1.2 10 4.5 L 10 6.5 L 10 10 Q 12.7 8.9 12 11.5 L 10.5 11 Q 7.5 11.5 9 4.5 Q 8.5 1.5 4.5 2 L 2 3 L 2 1 Z " /><path fill="rgb(164,237,247)" stroke="rgb(164,237,247)" stroke-width="1" opacity="1" d="M 20.5 7 L 21 8.5 L 20 11 L 17 10.5 L 20 8.5 L 20.5 7 Z " /><path fill="rgb(164,237,247)" stroke="rgb(164,237,247)" stroke-width="1" opacity="1" d="M 2 21 L 7 23.5 L 8 27.5 L 6.5 27 L 2 27 L 2 21 Z " /><path fill="rgb(164,237,247)" stroke="rgb(164,237,247)" stroke-width="1" opacity="1" d="M 24.5 21 L 26.5 22 L 28 21.5 L 27.5 28 L 27 26 Q 23.6 25.3 22.5 28 L 20 26.5 Q 22.3 25.3 19.5 24 L 18 23.5 L 24.5 21 Z " /><path fill="rgb(164,237,247)" stroke="rgb(164,237,247)" stroke-width="1" opacity="1" d="M 11.5 26 L 15 26.5 L 9.5 28 L 9.5 27 L 11.5 26 Z " /><path fill="rgb(128,63,61)" stroke="rgb(128,63,61)" stroke-width="1" opacity="1" d="M 5.5 3 Q 7.8 2.3 7 4.5 L 7.5 6 L 4 4.5 L 5.5 3 Z " /><path fill="rgb(128,63,61)" stroke="rgb(128,63,61)" stroke-width="1" opacity="1" d="M 23.5 3 L 26 4.5 L 24.5 5 L 23.5 3 Z " /><path fill="rgb(128,63,61)" stroke="rgb(128,63,61)" stroke-width="1" opacity="1" d="M 22.5 7 L 23 10.5 L 22 10.5 L 22.5 7 Z " /><path fill="rgb(128,63,61)" stroke="rgb(128,63,61)" stroke-width="1" opacity="1" d="M 13.5 10 L 14.5 12 Q 11.7 12.7 13.5 10 Z " /><path fill="rgb(128,63,61)" stroke="rgb(128,63,61)" stroke-width="1" opacity="1" d="M 4 11 Q 8.1 9.7 7 13 Q 2.9 14.3 4 11 Z " /><path fill="rgb(128,63,61)" stroke="rgb(128,63,61)" stroke-width="1" opacity="1" d="M 11.5 18 L 12 20.5 L 11 20.5 L 11.5 18 Z " /><path fill="rgb(128,63,61)" stroke="rgb(128,63,61)" stroke-width="1" opacity="1" d="M 9.5 21 L 8.5 23 L 9.5 21 Z " /><path fill="rgb(193,192,192)" stroke="rgb(193,192,192)" stroke-width="1" opacity="1" d="M 22.5 31 L 23 32.5 L 21 33.5 L 22.5 31 Z " /><path fill="rgb(193,192,192)" stroke="rgb(193,192,192)" stroke-width="1" opacity="1" d="M 22.5 39 L 23 41.5 L 22 41.5 L 22.5 39 Z " /><path fill="rgb(193,192,192)" stroke="rgb(193,192,192)" stroke-width="1" opacity="1" d="M 24.5 39 L 25.5 41 L 24.5 39 Z " /><path fill="rgb(193,192,192)" stroke="rgb(193,192,192)" stroke-width="1" opacity="1" d="M 7.5 43 L 6.5 45 L 7.5 43 Z " /><path fill="rgb(193,192,192)" stroke="rgb(193,192,192)" stroke-width="1" opacity="1" d="M 21.5 43 L 24 43.5 L 23.5 46 L 21.5 43 Z " /><path fill="rgb(216,130,77)" stroke="rgb(216,130,77)" stroke-width="1" opacity="1" d="M 17.5 5 L 16.5 7 L 15 7.5 L 17 8 L 16 11.5 L 16.5 13 L 15 13.5 Q 17.8 15.3 13.5 17 L 13 15.5 L 14 13.5 L 13.5 12 L 15 11.5 L 12 10 L 13.5 6 L 17.5 5 Z " /><path fill="rgb(216,130,77)" stroke="rgb(216,130,77)" stroke-width="1" opacity="1" d="M 12.5 19 L 13.5 21 L 15.5 21 Q 20.3 22.3 21.5 20 L 22 22 L 17.5 23 L 13.5 22 L 9.5 23 L 10.5 21 Q 13 21.7 12.5 19 Z " /><path fill="rgb(216,130,77)" stroke="rgb(216,130,77)" stroke-width="1" opacity="1" d="M 12.5 24 L 13.5 26 Q 10.7 26.7 12.5 24 Z " /><path fill="rgb(184,137,123)" stroke="rgb(184,137,123)" stroke-width="1" opacity="1" d="M 22.5 3 L 23 7 Q 20.3 8.1 21 5.5 L 22.5 3 Z " /><path fill="rgb(184,137,123)" stroke="rgb(184,137,123)" stroke-width="1" opacity="1" d="M 7.5 6 L 9 10.5 L 7 11 L 7.5 6 Z " /><path fill="rgb(184,137,123)" stroke="rgb(184,137,123)" stroke-width="1" opacity="1" d="M 18.5 7 L 18 8.5 L 17.5 10 L 17 8.5 L 18.5 7 Z " /><path fill="rgb(184,137,123)" stroke="rgb(184,137,123)" stroke-width="1" opacity="1" d="M 21.5 9 L 21 10.5 L 20.5 12 L 20 10.5 L 21.5 9 Z " /><path fill="rgb(184,137,123)" stroke="rgb(184,137,123)" stroke-width="1" opacity="1" d="M 13.5 22 L 14 24.5 L 13 24.5 L 13.5 22 Z " /><path fill="rgb(105,97,102)" stroke="rgb(105,97,102)" stroke-width="1" opacity="1" d="M 24.5 7 Q 26.8 6.3 26 8.5 L 24.5 7 Z " /><path fill="rgb(105,97,102)" stroke="rgb(105,97,102)" stroke-width="1" opacity="1" d="M 5.5 8 Q 8.5 9.5 5.5 11 L 5.5 8 Z " /><path fill="rgb(105,97,102)" stroke="rgb(105,97,102)" stroke-width="1" opacity="1" d="M 16.5 14 L 19 15.5 L 17.5 15 L 16.5 14 Z " /><path fill="rgb(105,97,102)" stroke="rgb(105,97,102)" stroke-width="1" opacity="1" d="M 7.5 15 Q 10.5 16.5 7.5 18 L 7.5 15 Z " /><path fill="rgb(105,97,102)" stroke="rgb(105,97,102)" stroke-width="1" opacity="1" d="M 23.5 17 L 22.5 19 L 23.5 17 Z " /><path fill="rgb(105,97,102)" stroke="rgb(105,97,102)" stroke-width="1" opacity="1" d="M 26.5 17 L 26 18.5 L 25 20.5 L 25.5 22 L 23 21.5 L 26.5 17 Z " /><path fill="rgb(105,97,102)" stroke="rgb(105,97,102)" stroke-width="1" opacity="1" d="M 24.5 26 L 27 26.5 Q 24.9 29.8 24.5 26 Z " /><path fill="rgb(105,97,102)" stroke="rgb(105,97,102)" stroke-width="1" opacity="1" d="M 25.5 29 L 26.5 31 L 25.5 29 Z " /><path fill="rgb(105,97,102)" stroke="rgb(105,97,102)" stroke-width="1" opacity="1" d="M 16.5 34 L 17 36.5 L 16 36.5 L 16.5 34 Z " /><path fill="rgb(105,97,102)" stroke="rgb(105,97,102)" stroke-width="1" opacity="1" d="M 26.5 36 Q 28.8 35.3 28 37.5 L 26.5 36 Z " /><path fill="rgb(105,97,102)" stroke="rgb(105,97,102)" stroke-width="1" opacity="1" d="M 19.5 41 L 22 41.5 L 19 43.5 L 19.5 41 Z " /><path fill="rgb(105,97,102)" stroke="rgb(105,97,102)" stroke-width="1" opacity="1" d="M 8.5 43 L 9.5 45 L 7 44.5 L 8.5 43 Z " /><path fill="rgb(105,97,102)" stroke="rgb(105,97,102)" stroke-width="1" opacity="1" d="M 13.5 44 L 16 44.5 L 13.5 45 L 13.5 44 Z " /><path fill="rgb(105,97,102)" stroke="rgb(105,97,102)" stroke-width="1" opacity="1" d="M 5.5 47 L 6 49 L 1 48.5 L 5.5 47 Z " /><path fill="rgb(105,97,102)" stroke="rgb(105,97,102)" stroke-width="1" opacity="1" d="M 24.5 48 L 28 48.5 L 24.5 49 L 24.5 48 Z " /><path fill="rgb(176,183,187)" stroke="rgb(176,183,187)" stroke-width="1" opacity="1" d="M 15.5 2 Q 17.8 1.3 17 3.5 L 15.5 2 Z " /><path fill="rgb(176,183,187)" stroke="rgb(176,183,187)" stroke-width="1" opacity="1" d="M 20.5 6 L 19.5 8 L 20.5 6 Z " /><path fill="rgb(176,183,187)" stroke="rgb(176,183,187)" stroke-width="1" opacity="1" d="M 8.5 42 L 9.5 44 L 8.5 42 Z " /><path fill="rgb(176,183,187)" stroke="rgb(176,183,187)" stroke-width="1" opacity="1" d="M 17.5 43 L 18.5 45 L 17.5 43 Z " /><path fill="rgb(250,250,250)" stroke="rgb(250,250,250)" stroke-width="1" opacity="1" d="M 0 0 L 30 0 L 30 50 L 0 50 L 0 0 Z M 2 1 L 2 28 L 5 29 L 3 29 L 1 29 L 2 32 L 2 34 L 1 35 L 1 49 L 28 49 L 25 47 L 28 45 L 28 21 L 27 20 L 28 19 L 28 7 L 28 5 L 28 1 L 2 1 Z " /><path fill="rgb(250,250,250)" stroke="rgb(250,250,250)" stroke-width="1" opacity="1" d="M 13.5 4 L 16 4.5 L 11.5 6 L 11.5 5 L 13.5 4 Z " /><path fill="rgb(250,250,250)" stroke="rgb(250,250,250)" stroke-width="1" opacity="1" d="M 8 19 Q 11 18 10 21 Q 7 22 8 19 Z " /><path fill="rgb(250,250,250)" stroke="rgb(250,250,250)" stroke-width="1" opacity="1" d="M 9 23 Q 12 22 11 25 Q 8 26 9 23 Z " /><path fill="rgb(250,250,250)" stroke="rgb(250,250,250)" stroke-width="1" opacity="1" d="M 11.5 28 L 14 28.5 L 13 31 L 9 30 Q 10.3 33 6.5 32 L 8.5 29 L 11.5 28 Z " /><path fill="rgb(250,250,250)" stroke="rgb(250,250,250)" stroke-width="1" opacity="1" d="M 22.5 28 L 23.5 30 L 24.5 28 L 25 29.5 L 25 31.5 L 24 36.5 L 25 38.5 L 24 43 L 22 42.5 L 23 37.5 L 23 35.5 L 24 33.5 L 23.5 31 L 20 30.5 L 22 30 L 22.5 28 Z " /><path fill="rgb(250,250,250)" stroke="rgb(250,250,250)" stroke-width="1" opacity="1" d="M 16 29 L 18 29.5 L 16 30.5 L 16 29 Z " /><path fill="rgb(250,250,250)" stroke="rgb(250,250,250)" stroke-width="1" opacity="1" d="M 13.5 37 L 17 37.5 Q 14.3 38.6 15 42 L 13 41.5 L 14 38.5 L 13.5 37 Z " /><path fill="rgb(250,250,250)" stroke="rgb(250,250,250)" stroke-width="1" opacity="1" d="M 3.5 45 L 4 48 L 2 47.5 L 3.5 45 Z " /><path fill="rgb(162,175,180)" stroke="rgb(162,175,180)" stroke-width="1" opacity="1" d="M 17.5 4 L 18.5 6 L 17.5 4 Z " /><path fill="rgb(162,175,180)" stroke="rgb(162,175,180)" stroke-width="1" opacity="1" d="M 13.5 31 L 12.5 33 L 13.5 31 Z " /><path fill="rgb(162,175,180)" stroke="rgb(162,175,180)" stroke-width="1" opacity="1" d="M 19.5 32 L 21 32.5 L 19 33 L 18.5 35 L 18 33.5 L 19.5 32 Z " /><path fill="rgb(162,175,180)" stroke="rgb(162,175,180)" stroke-width="1" opacity="1" d="M 18.5 37 L 18 38.5 L 17.5 40 L 17 38.5 L 18.5 37 Z " /><path fill="rgb(158,156,161)" stroke="rgb(158,156,161)" stroke-width="1" opacity="1" d="M 7.5 14 L 6.5 16 L 7.5 14 Z " /><path fill="rgb(158,156,161)" stroke="rgb(158,156,161)" stroke-width="1" opacity="1" d="M 10.5 14 L 11.5 16 L 10.5 14 Z " /><path fill="rgb(158,156,161)" stroke="rgb(158,156,161)" stroke-width="1" opacity="1" d="M 21.5 14 L 20.5 16 L 19 15.5 L 21.5 14 Z " /><path fill="rgb(158,156,161)" stroke="rgb(158,156,161)" stroke-width="1" opacity="1" d="M 16.5 18 L 15.5 20 L 16.5 18 Z " /><path fill="rgb(158,156,161)" stroke="rgb(158,156,161)" stroke-width="1" opacity="1" d="M 20.5 18 L 19.5 20 L 20.5 18 Z " /><path fill="rgb(158,156,161)" stroke="rgb(158,156,161)" stroke-width="1" opacity="1" d="M 19.5 26 L 18.5 28 L 19.5 26 Z " /><path fill="rgb(158,156,161)" stroke="rgb(158,156,161)" stroke-width="1" opacity="1" d="M 7.5 32 L 8.5 34 L 7.5 32 Z " /><path fill="rgb(158,156,161)" stroke="rgb(158,156,161)" stroke-width="1" opacity="1" d="M 11.5 37 L 12.5 39 L 11.5 37 Z " /><path fill="rgb(158,156,161)" stroke="rgb(158,156,161)" stroke-width="1" opacity="1" d="M 26.5 37 L 27.5 39 Q 24.7 39.7 26.5 37 Z " /><path fill="rgb(158,156,161)" stroke="rgb(158,156,161)" stroke-width="1" opacity="1" d="M 10.5 40 Q 13.5 41.5 10.5 43 L 10.5 40 Z " /><path fill="rgb(158,156,161)" stroke="rgb(158,156,161)" stroke-width="1" opacity="1" d="M 26.5 40 L 27.5 42 L 26.5 40 Z " /><path fill="rgb(158,156,161)" stroke="rgb(158,156,161)" stroke-width="1" opacity="1" d="M 18.5 43 L 17.5 45 L 18.5 43 Z " /><path fill="rgb(231,229,231)" stroke="rgb(231,229,231)" stroke-width="1" opacity="1" d="M 25.5 9 Q 29.7 7.7 28 12.5 L 27 15.5 L 28 18.5 L 26 19.5 L 27 17.5 L 25 14.5 L 27 11.5 L 25.5 9 Z " /><path fill="rgb(231,229,231)" stroke="rgb(231,229,231)" stroke-width="1" opacity="1" d="M 11.5 12 L 13 14.5 L 12 14.5 L 11.5 12 Z " /><path fill="rgb(231,229,231)" stroke="rgb(231,229,231)" stroke-width="1" opacity="1" d="M 9.5 14 L 8.5 16 L 9.5 14 Z " /><path fill="rgb(231,229,231)" stroke="rgb(231,229,231)" stroke-width="1" opacity="1" d="M 3 17 Q 6 16 5 19 L 8 19 L 8 20.5 L 6.5 23 L 5 20 L 2 19.5 L 3 17 Z " /><path fill="rgb(231,229,231)" stroke="rgb(231,229,231)" stroke-width="1" opacity="1" d="M 16.5 23 L 17.5 25 L 16.5 23 Z " /><path fill="rgb(231,229,231)" stroke="rgb(231,229,231)" stroke-width="1" opacity="1" d="M 2.5 27 L 3 29.5 L 2.5 31 L 1 28.5 L 2.5 27 Z " /><path fill="rgb(231,229,231)" stroke="rgb(231,229,231)" stroke-width="1" opacity="1" d="M 6.5 27 L 8 30 L 6 29.5 L 6.5 27 Z " /><path fill="rgb(231,229,231)" stroke="rgb(231,229,231)" stroke-width="1" opacity="1" d="M 20.5 27 L 22 29.5 L 21 29.5 L 20.5 28 L 19 28.5 L 20.5 27 Z " /><path fill="rgb(231,229,231)" stroke="rgb(231,229,231)" stroke-width="1" opacity="1" d="M 24.5 27 L 25.5 29 L 24 28.5 L 23.5 30 L 23 28.5 L 24.5 27 Z " /><path fill="rgb(231,229,231)" stroke="rgb(231,229,231)" stroke-width="1" opacity="1" d="M 16.5 28 L 15.5 30 L 16.5 28 Z " /><path fill="rgb(231,229,231)" stroke="rgb(231,229,231)" stroke-width="1" opacity="1" d="M 9.5 30 L 10.5 32 Q 7.7 32.7 9.5 30 Z " /><path fill="rgb(231,229,231)" stroke="rgb(231,229,231)" stroke-width="1" opacity="1" d="M 19.5 30 L 20.5 32 L 19.5 30 Z " /><path fill="rgb(231,229,231)" stroke="rgb(231,229,231)" stroke-width="1" opacity="1" d="M 3.5 32 L 7 33.5 L 9 36.5 L 6 38.5 L 8 39.5 L 7 41.5 L 7.5 43 L 5 42.5 Q 4.2 37.2 7 35.5 L 5.5 36 Q 2.9 36.8 4 33.5 L 3.5 32 Z " /><path fill="rgb(231,229,231)" stroke="rgb(231,229,231)" stroke-width="1" opacity="1" d="M 14.5 32 Q 17.8 30.9 17 33.5 L 15.5 33 L 14.5 32 Z " /><path fill="rgb(231,229,231)" stroke="rgb(231,229,231)" stroke-width="1" opacity="1" d="M 1.5 34 L 2 36.5 L 1 36.5 L 1.5 34 Z " /><path fill="rgb(231,229,231)" stroke="rgb(231,229,231)" stroke-width="1" opacity="1" d="M 12.5 37 L 13.5 39 L 12.5 37 Z " /><path fill="rgb(231,229,231)" stroke="rgb(231,229,231)" stroke-width="1" opacity="1" d="M 15.5 40 L 18 40.5 L 15.5 41 L 15.5 40 Z " /><path fill="rgb(231,229,231)" stroke="rgb(231,229,231)" stroke-width="1" opacity="1" d="M 5.5 44 L 6.5 48 L 4 47 L 5.5 44 Z " /><path fill="rgb(231,229,231)" stroke="rgb(231,229,231)" stroke-width="1" opacity="1" d="M 12.5 45 Q 17.3 44.3 18 47.5 L 16 48 Q 17.3 44.7 12.5 46 L 12.5 45 Z " /><path fill="rgb(231,229,231)" stroke="rgb(231,229,231)" stroke-width="1" opacity="1" d="M 18.5 45 L 21 45.5 L 18.5 46 L 18.5 45 Z " /><path fill="rgb(191,170,165)" stroke="rgb(191,170,165)" stroke-width="1" opacity="1" d="M 13.5 3 L 12.5 5 L 13.5 3 Z " /><path fill="rgb(191,170,165)" stroke="rgb(191,170,165)" stroke-width="1" opacity="1" d="M 11.5 23 L 12 25.5 L 11 25.5 L 11.5 23 Z " /><path fill="rgb(203,208,209)" stroke="rgb(203,208,209)" stroke-width="1" opacity="1" d="M 27.5 1 L 26.5 3 L 27.5 1 Z " /><path fill="rgb(203,208,209)" stroke="rgb(203,208,209)" stroke-width="1" opacity="1" d="M 12.5 12 L 14 14.5 L 13 14.5 L 12.5 12 Z " /><path fill="rgb(203,208,209)" stroke="rgb(203,208,209)" stroke-width="1" opacity="1" d="M 25.5 13 L 25.5 16 Q 22.5 14.5 25.5 13 Z " /><path fill="rgb(203,208,209)" stroke="rgb(203,208,209)" stroke-width="1" opacity="1" d="M 23.5 16 L 24.5 18 L 23.5 16 Z " /><path fill="rgb(203,208,209)" stroke="rgb(203,208,209)" stroke-width="1" opacity="1" d="M 21.5 18 L 20.5 20 L 21.5 18 Z " /><path fill="rgb(203,208,209)" stroke="rgb(203,208,209)" stroke-width="1" opacity="1" d="M 7.5 23 L 8 25.5 L 7 25.5 L 7.5 23 Z " /><path fill="rgb(203,208,209)" stroke="rgb(203,208,209)" stroke-width="1" opacity="1" d="M 10.5 30 L 11.5 32 L 10.5 30 Z " /><path fill="rgb(203,208,209)" stroke="rgb(203,208,209)" stroke-width="1" opacity="1" d="M 18 31 L 20 31.5 L 19.5 33 L 21 33.5 L 19.5 34 L 18 31 Z " /><path fill="rgb(203,208,209)" stroke="rgb(203,208,209)" stroke-width="1" opacity="1" d="M 7.5 34 L 6.5 36 L 7.5 34 Z " /><path fill="rgb(203,208,209)" stroke="rgb(203,208,209)" stroke-width="1" opacity="1" d="M 22.5 34 L 23 35.5 L 21.5 39 L 19.5 38 L 18 38.5 L 18.5 36 L 21.5 38 L 22 35.5 L 22.5 34 Z " /><path fill="rgb(203,208,209)" stroke="rgb(203,208,209)" stroke-width="1" opacity="1" d="M 1.5 40 L 2.5 42 L 1.5 40 Z " /><path fill="rgb(203,208,209)" stroke="rgb(203,208,209)" stroke-width="1" opacity="1" d="M 26.5 41 L 27.5 43 L 26.5 41 Z " /><path fill="rgb(203,208,209)" stroke="rgb(203,208,209)" stroke-width="1" opacity="1" d="M 13.5 42 L 16 43.5 L 14.5 44 L 13.5 42 Z " /><path fill="rgb(203,208,209)" stroke="rgb(203,208,209)" stroke-width="1" opacity="1" d="M 5.5 45 L 8 45.5 L 5.5 46 L 5.5 45 Z " /><path fill="rgb(75,63,70)" stroke="rgb(75,63,70)" stroke-width="1" opacity="1" d="M 23.5 4 L 27 6.5 L 23 7.5 L 23.5 4 Z " /><path fill="rgb(75,63,70)" stroke="rgb(75,63,70)" stroke-width="1" opacity="1" d="M 5.5 5 L 7 7.5 L 6 7.5 L 5.5 5 Z " /><path fill="rgb(75,63,70)" stroke="rgb(75,63,70)" stroke-width="1" opacity="1" d="M 3.5 6 L 4.5 8 L 2.5 9 L 3 7.5 L 3.5 6 Z " /><path fill="rgb(75,63,70)" stroke="rgb(75,63,70)" stroke-width="1" opacity="1" d="M 23.5 9 Q 26.2 10.3 24 11.5 L 25 13.5 Q 23.5 16.5 22 13.5 L 24 10.5 L 23.5 9 Z " /><path fill="rgb(75,63,70)" stroke="rgb(75,63,70)" stroke-width="1" opacity="1" d="M 10.5 16 L 11.5 18 L 10.5 16 Z " /><path fill="rgb(75,63,70)" stroke="rgb(75,63,70)" stroke-width="1" opacity="1" d="M 2.5 32 L 3.5 34 L 2.5 32 Z " /><path fill="rgb(75,63,70)" stroke="rgb(75,63,70)" stroke-width="1" opacity="1" d="M 10.5 39 L 9.5 41 L 10.5 39 Z " /><path fill="rgb(75,63,70)" stroke="rgb(75,63,70)" stroke-width="1" opacity="1" d="M 24.5 40 L 25 44.5 L 24 44.5 L 24.5 40 Z " /><path fill="rgb(75,63,70)" stroke="rgb(75,63,70)" stroke-width="1" opacity="1" d="M 20.5 43 L 21.5 45 L 20.5 43 Z " /><path fill="rgb(75,63,70)" stroke="rgb(75,63,70)" stroke-width="1" opacity="1" d="M 12.5 48 L 16 48.5 L 12.5 49 L 12.5 48 Z " /></svg>