<svg width="30" height="50" version="1.1" xmlns="http://www.w3.org/2000/svg" desc="Created with imagetracer.js version 1.2.6" ><path fill="rgb(142,149,80)" stroke="rgb(142,149,80)" stroke-width="1" opacity="1" d="M 3.5 2 L 2.5 4 L 3.5 2 Z " /><path fill="rgb(142,149,80)" stroke="rgb(142,149,80)" stroke-width="1" opacity="1" d="M 24.5 4 L 28 4.5 L 26.5 7 L 26 5 L 24.5 4 Z " /><path fill="rgb(142,149,80)" stroke="rgb(142,149,80)" stroke-width="1" opacity="1" d="M 8.5 6 L 9 9 L 6 8.5 L 8 8 L 8.5 6 Z " /><path fill="rgb(142,149,80)" stroke="rgb(142,149,80)" stroke-width="1" opacity="1" d="M 5.5 10 L 8 10.5 L 5.5 11 L 5.5 10 Z " /><path fill="rgb(142,149,80)" stroke="rgb(142,149,80)" stroke-width="1" opacity="1" d="M 4.5 12 L 7 12.5 L 4.5 13 L 4.5 12 Z " /><path fill="rgb(142,149,80)" stroke="rgb(142,149,80)" stroke-width="1" opacity="1" d="M 25.5 16 L 26 17.5 L 24 18.5 L 25.5 16 Z " /><path fill="rgb(142,149,80)" stroke="rgb(142,149,80)" stroke-width="1" opacity="1" d="M 3.5 17 L 6 17.5 L 5 19.5 L 6 21.5 L 3.5 23 L 3.5 22 Q 5.8 22.8 5 20.5 L 3 20.5 L 4 18.5 L 3.5 17 Z " /><path fill="rgb(142,149,80)" stroke="rgb(142,149,80)" stroke-width="1" opacity="1" d="M 24.5 21 L 26 23.5 L 24 22.5 L 24.5 21 Z " /><path fill="rgb(142,149,80)" stroke="rgb(142,149,80)" stroke-width="1" opacity="1" d="M 3.5 24 L 4.5 26 Q 1.7 26.7 3.5 24 Z " /><path fill="rgb(142,149,80)" stroke="rgb(142,149,80)" stroke-width="1" opacity="1" d="M 24.5 27 Q 26.8 26.3 26 28.5 L 24.5 27 Z " /><path fill="rgb(142,149,80)" stroke="rgb(142,149,80)" stroke-width="1" opacity="1" d="M 4.5 28 Q 6.8 27.3 6 29.5 L 4 30.5 L 4.5 28 Z " /><path fill="rgb(142,149,80)" stroke="rgb(142,149,80)" stroke-width="1" opacity="1" d="M 7.5 36 L 11 38.5 L 9.5 38 L 7.5 36 Z " /><path fill="rgb(142,149,80)" stroke="rgb(142,149,80)" stroke-width="1" opacity="1" d="M 20.5 37 L 22 37.5 L 20 38 L 19.5 40 L 19 38.5 L 20.5 37 Z " /><path fill="rgb(140,218,232)" stroke="rgb(140,218,232)" stroke-width="1" opacity="1" d="M 10.5 2 L 11.5 4 Q 8.7 4.7 10.5 2 Z " /><path fill="rgb(140,218,232)" stroke="rgb(140,218,232)" stroke-width="1" opacity="1" d="M 11.5 8 L 15 10.5 L 7.5 14 L 7 12 Q 10 13 9 10 L 11.5 10 L 11.5 8 Z " /><path fill="rgb(140,218,232)" stroke="rgb(140,218,232)" stroke-width="1" opacity="1" d="M 6 16 Q 9 15 8 18 L 10.5 18 L 10 19.5 L 9.5 21 L 9 19 Q 6 17.8 7 21.5 L 6 21.5 L 6 16 Z " /><path fill="rgb(140,218,232)" stroke="rgb(140,218,232)" stroke-width="1" opacity="1" d="M 9 24 L 12 24.5 L 12 26.5 L 14 29.5 L 9.5 36 L 8 33.5 L 8.5 32 Q 5.5 32.7 7 29 L 9 28.5 L 8 26.5 L 9 24 Z M 11 29 L 11 30 L 13 30 L 11 29 Z " /><path fill="rgb(251,251,250)" stroke="rgb(251,251,250)" stroke-width="1" opacity="1" d="M 0 0 L 30 0 L 30 50 L 0 50 L 0 0 Z M 2 1 L 2 49 L 28 49 L 28 1 L 2 1 Z " /><path fill="rgb(165,172,162)" stroke="rgb(165,172,162)" stroke-width="1" opacity="1" d="M 23.5 1 Q 28.9 -0.9 28 2.5 L 26 3.5 L 26.5 2 Q 22.5 2.7 23.5 1 Z " /><path fill="rgb(165,172,162)" stroke="rgb(165,172,162)" stroke-width="1" opacity="1" d="M 18.5 4 L 17.5 6 L 18.5 4 Z " /><path fill="rgb(165,172,162)" stroke="rgb(165,172,162)" stroke-width="1" opacity="1" d="M 25.5 7 L 27 10.5 L 26 10.5 L 25.5 7 Z " /><path fill="rgb(165,172,162)" stroke="rgb(165,172,162)" stroke-width="1" opacity="1" d="M 3 8 L 6 9.5 L 4 10 Q 5 13.8 2.5 15 L 2 13.5 L 3 8 Z " /><path fill="rgb(165,172,162)" stroke="rgb(165,172,162)" stroke-width="1" opacity="1" d="M 20.5 9 L 23 10.5 L 21.5 11 L 20.5 9 Z " /><path fill="rgb(165,172,162)" stroke="rgb(165,172,162)" stroke-width="1" opacity="1" d="M 25.5 12 L 26 15 L 23.5 16 L 23 14.5 L 25.5 12 Z " /><path fill="rgb(165,172,162)" stroke="rgb(165,172,162)" stroke-width="1" opacity="1" d="M 5.5 15 L 7 15.5 L 4.5 17 L 5.5 15 Z " /><path fill="rgb(165,172,162)" stroke="rgb(165,172,162)" stroke-width="1" opacity="1" d="M 11.5 18 L 12 19.5 L 9 21.5 L 11.5 18 Z " /><path fill="rgb(165,172,162)" stroke="rgb(165,172,162)" stroke-width="1" opacity="1" d="M 25.5 18 L 26.5 20 L 25.5 18 Z " /><path fill="rgb(165,172,162)" stroke="rgb(165,172,162)" stroke-width="1" opacity="1" d="M 19.5 19 L 21 21.5 L 19 20.5 L 19.5 19 Z " /><path fill="rgb(165,172,162)" stroke="rgb(165,172,162)" stroke-width="1" opacity="1" d="M 22.5 22 L 23.5 24 L 22.5 22 Z " /><path fill="rgb(165,172,162)" stroke="rgb(165,172,162)" stroke-width="1" opacity="1" d="M 14.5 28 L 15.5 30 L 14.5 28 Z " /><path fill="rgb(165,172,162)" stroke="rgb(165,172,162)" stroke-width="1" opacity="1" d="M 27.5 28 L 26.5 30 L 27.5 28 Z " /><path fill="rgb(165,172,162)" stroke="rgb(165,172,162)" stroke-width="1" opacity="1" d="M 21.5 29 L 22 31.5 L 21 31.5 L 21.5 29 Z " /><path fill="rgb(165,172,162)" stroke="rgb(165,172,162)" stroke-width="1" opacity="1" d="M 17.5 30 L 18 32.5 L 16 33.5 L 17.5 30 Z " /><path fill="rgb(165,172,162)" stroke="rgb(165,172,162)" stroke-width="1" opacity="1" d="M 3.5 33 Q 6.3 34.3 4 35.5 L 5 37.5 L 3 38 L 3.5 33 Z " /><path fill="rgb(165,172,162)" stroke="rgb(165,172,162)" stroke-width="1" opacity="1" d="M 19.5 41 L 19 42.5 L 18.5 44 L 17.5 42 L 19.5 41 Z " /><path fill="rgb(165,172,162)" stroke="rgb(165,172,162)" stroke-width="1" opacity="1" d="M 11.5 42 L 13 42.5 L 11 43 L 10.5 45 L 10 43.5 L 11.5 42 Z " /><path fill="rgb(165,172,162)" stroke="rgb(165,172,162)" stroke-width="1" opacity="1" d="M 14.5 44 L 17 44.5 L 14.5 45 L 14.5 44 Z " /><path fill="rgb(165,172,162)" stroke="rgb(165,172,162)" stroke-width="1" opacity="1" d="M 16 46 L 23 48 L 23.5 46 L 24 47.5 Q 23.3 49.8 19.5 49 Q 17.8 45.9 16 47.5 L 16 46 Z " /><path fill="rgb(165,172,162)" stroke="rgb(165,172,162)" stroke-width="1" opacity="1" d="M 26.5 47 L 27.5 49 L 25 48.5 L 26.5 47 Z " /><path fill="rgb(149,217,231)" stroke="rgb(149,217,231)" stroke-width="1" opacity="1" d="M 11.5 2 L 14 2.5 L 11.5 3 L 11.5 2 Z " /><path fill="rgb(149,217,231)" stroke="rgb(149,217,231)" stroke-width="1" opacity="1" d="M 17 2 Q 20 1 19 4 Q 16 5 17 2 Z " /><path fill="rgb(149,217,231)" stroke="rgb(149,217,231)" stroke-width="1" opacity="1" d="M 15.5 8 L 16.5 10 L 17 8 L 19 8.5 L 18.5 10 Q 21.8 8.9 21 11.5 L 23 14.5 L 24 22.5 L 23 22.5 Q 24.1 19.2 21.5 20 L 20 20.5 L 17 12.5 L 14 9.5 L 15.5 8 Z " /><path fill="rgb(149,217,231)" stroke="rgb(149,217,231)" stroke-width="1" opacity="1" d="M 9.5 9 L 12 9.5 L 9 10 L 8.5 12 L 8 10.5 L 9.5 9 Z " /><path fill="rgb(149,217,231)" stroke="rgb(149,217,231)" stroke-width="1" opacity="1" d="M 27.5 14 L 28 19.5 L 26 18.5 L 27.5 14 Z " /><path fill="rgb(149,217,231)" stroke="rgb(149,217,231)" stroke-width="1" opacity="1" d="M 19.5 23 L 22 24 L 23 32.5 L 19.5 38 L 13.5 39 L 13.5 38 L 16 37.5 L 15.5 36 L 19 37 Q 18.2 32.7 22 31.5 L 22 28.5 Q 17.8 27.2 19.5 23 Z " /><path fill="rgb(149,217,231)" stroke="rgb(149,217,231)" stroke-width="1" opacity="1" d="M 14.5 32 L 15.5 34 Q 12.7 34.7 14.5 32 Z " /><path fill="rgb(149,217,231)" stroke="rgb(149,217,231)" stroke-width="1" opacity="1" d="M 13.5 43 L 14 45 L 12 44.5 L 13.5 43 Z " /><path fill="rgb(136,138,138)" stroke="rgb(136,138,138)" stroke-width="1" opacity="1" d="M 16.5 12 L 19 18.5 L 18 18.5 L 16 14.5 L 16.5 12 Z " /><path fill="rgb(136,138,138)" stroke="rgb(136,138,138)" stroke-width="1" opacity="1" d="M 12.5 20 Q 14.8 19.3 14 21.5 L 12.5 20 Z " /><path fill="rgb(136,138,138)" stroke="rgb(136,138,138)" stroke-width="1" opacity="1" d="M 8.5 21 L 9.5 23 L 8.5 21 Z " /><path fill="rgb(136,138,138)" stroke="rgb(136,138,138)" stroke-width="1" opacity="1" d="M 13.5 23 L 14 25.5 L 13 25.5 L 13.5 23 Z " /><path fill="rgb(136,138,138)" stroke="rgb(136,138,138)" stroke-width="1" opacity="1" d="M 14.5 31 L 14 32.5 Q 14.7 35.1 12 34 Q 10.9 31.3 13.5 32 L 14.5 31 Z " /><path fill="rgb(136,138,138)" stroke="rgb(136,138,138)" stroke-width="1" opacity="1" d="M 18.5 32 L 21 32.5 Q 18.9 35.8 18.5 32 Z " /><path fill="rgb(136,138,138)" stroke="rgb(136,138,138)" stroke-width="1" opacity="1" d="M 13.5 36 L 12.5 38 L 13.5 36 Z " /><path fill="rgb(136,138,138)" stroke="rgb(136,138,138)" stroke-width="1" opacity="1" d="M 19.5 40 L 19.5 43 Q 16.5 41.5 19.5 40 Z " /><path fill="rgb(136,138,138)" stroke="rgb(136,138,138)" stroke-width="1" opacity="1" d="M 9.5 41 L 13 43.5 L 11.5 44 L 9.5 41 Z " /><path fill="rgb(136,138,138)" stroke="rgb(136,138,138)" stroke-width="1" opacity="1" d="M 8.5 43 L 7.5 45 L 8.5 43 Z " /><path fill="rgb(136,138,138)" stroke="rgb(136,138,138)" stroke-width="1" opacity="1" d="M 7 46 L 9 46.5 L 7 47.5 L 7 46 Z " /><path fill="rgb(136,138,138)" stroke="rgb(136,138,138)" stroke-width="1" opacity="1" d="M 20.5 46 L 21.5 48 L 20.5 46 Z " /><path fill="rgb(180,80,48)" stroke="rgb(180,80,48)" stroke-width="1" opacity="1" d="M 13.5 5 Q 17.3 4 16 7 L 13.5 5 Z " /><path fill="rgb(180,80,48)" stroke="rgb(180,80,48)" stroke-width="1" opacity="1" d="M 2.5 6 L 3.5 8 L 2.5 6 Z " /><path fill="rgb(180,80,48)" stroke="rgb(180,80,48)" stroke-width="1" opacity="1" d="M 13.5 13 L 16 13.5 Q 17 17.3 14 16 L 13.5 13 Z " /><path fill="rgb(180,80,48)" stroke="rgb(180,80,48)" stroke-width="1" opacity="1" d="M 12 18 Q 14.7 16.9 14 19.5 L 15 21.5 L 14 21.5 Q 14.7 18.9 12 20 L 12 18 Z " /><path fill="rgb(180,80,48)" stroke="rgb(180,80,48)" stroke-width="1" opacity="1" d="M 17.5 18 L 17 19.5 L 16.5 21 L 16 19.5 L 17.5 18 Z " /><path fill="rgb(180,80,48)" stroke="rgb(180,80,48)" stroke-width="1" opacity="1" d="M 18.5 20 L 19.5 22 Q 16.7 22.7 18.5 20 Z " /><path fill="rgb(180,80,48)" stroke="rgb(180,80,48)" stroke-width="1" opacity="1" d="M 16.5 25 L 19 26.5 L 16.5 28 L 14 27.5 L 16.5 25 Z " /><path fill="rgb(180,80,48)" stroke="rgb(180,80,48)" stroke-width="1" opacity="1" d="M 15.5 30 Q 17.8 29.3 17 31.5 L 15.5 30 Z " /><path fill="rgb(180,80,48)" stroke="rgb(180,80,48)" stroke-width="1" opacity="1" d="M 17.5 33 L 16.5 35 L 17.5 33 Z " /><path fill="rgb(180,80,48)" stroke="rgb(180,80,48)" stroke-width="1" opacity="1" d="M 26.5 35 L 27 36.5 L 22 39.5 L 23 43 L 20 42.5 L 22.5 36 L 24.5 37 L 26.5 35 Z " /><path fill="rgb(180,80,48)" stroke="rgb(180,80,48)" stroke-width="1" opacity="1" d="M 3.5 38 L 4.5 41 L 6 40.5 L 4.5 44 L 3.5 38 Z " /><path fill="rgb(180,80,48)" stroke="rgb(180,80,48)" stroke-width="1" opacity="1" d="M 13.5 39 L 18 41.5 L 15.5 42 L 13.5 39 Z " /><path fill="rgb(180,80,48)" stroke="rgb(180,80,48)" stroke-width="1" opacity="1" d="M 27.5 40 L 28 43 L 25 41.5 L 27 41.5 L 27.5 40 Z " /><path fill="rgb(68,78,72)" stroke="rgb(68,78,72)" stroke-width="1" opacity="1" d="M 26.5 20 L 27 22.5 L 26 22.5 L 26.5 20 Z " /><path fill="rgb(68,78,72)" stroke="rgb(68,78,72)" stroke-width="1" opacity="1" d="M 20.5 29 L 21 30.5 L 19 31.5 L 20.5 29 Z " /><path fill="rgb(68,78,72)" stroke="rgb(68,78,72)" stroke-width="1" opacity="1" d="M 12.5 35 L 13 37 L 15 37.5 L 13.5 38 L 12.5 35 Z " /><path fill="rgb(198,200,200)" stroke="rgb(198,200,200)" stroke-width="1" opacity="1" d="M 6.5 2 L 11 4.5 L 9 4.5 L 5.5 9 L 5 7 Q 8.3 8.3 7 3.5 L 6.5 2 Z " /><path fill="rgb(198,200,200)" stroke="rgb(198,200,200)" stroke-width="1" opacity="1" d="M 26.5 2 L 27.5 4 L 26.5 2 Z " /><path fill="rgb(198,200,200)" stroke="rgb(198,200,200)" stroke-width="1" opacity="1" d="M 19 3 L 21 3.5 L 19 4.5 L 19 3 Z " /><path fill="rgb(198,200,200)" stroke="rgb(198,200,200)" stroke-width="1" opacity="1" d="M 21.5 5 L 25 7.5 L 23 8.5 L 21.5 5 Z " /><path fill="rgb(198,200,200)" stroke="rgb(198,200,200)" stroke-width="1" opacity="1" d="M 27.5 6 L 28 8.5 L 27.5 11 L 26.5 9 L 25.5 11 L 25 9.5 L 27.5 6 Z " /><path fill="rgb(198,200,200)" stroke="rgb(198,200,200)" stroke-width="1" opacity="1" d="M 2.5 10 L 3 12.5 L 2 12.5 L 2.5 10 Z " /><path fill="rgb(198,200,200)" stroke="rgb(198,200,200)" stroke-width="1" opacity="1" d="M 26 12 L 28 12.5 L 26 13.5 L 26 12 Z " /><path fill="rgb(198,200,200)" stroke="rgb(198,200,200)" stroke-width="1" opacity="1" d="M 2.5 34 L 3 36.5 L 2 36.5 L 2.5 34 Z " /><path fill="rgb(198,200,200)" stroke="rgb(198,200,200)" stroke-width="1" opacity="1" d="M 7 41 L 9 41.5 L 8 44 L 6 43.5 L 7 41 Z " /><path fill="rgb(198,200,200)" stroke="rgb(198,200,200)" stroke-width="1" opacity="1" d="M 19.5 43 L 22.5 45 L 24.5 45 Q 29.3 43.3 28 47.5 Q 26.3 45.9 24.5 49 L 23 48.5 L 26 46.5 L 22.5 46 Q 20.5 50 18.5 46 L 14 46 Q 15.1 48.7 12.5 48 Q 11.8 45.3 7.5 46 Q 6.3 49 2 48 L 2.5 45 L 16.5 45 L 19.5 43 Z " /><path fill="rgb(139,208,220)" stroke="rgb(139,208,220)" stroke-width="1" opacity="1" d="M 16.5 2 L 17 4 L 12 3.5 L 16.5 2 Z " /><path fill="rgb(139,208,220)" stroke="rgb(139,208,220)" stroke-width="1" opacity="1" d="M 26.5 14 L 27 17.5 L 26 17.5 L 26.5 14 Z " /><path fill="rgb(139,208,220)" stroke="rgb(139,208,220)" stroke-width="1" opacity="1" d="M 7.5 19 L 9 22.5 L 7 23 L 7 28 L 8.5 28 L 8.5 29 Q 6.3 28.3 7 30.5 L 6 30.5 Q 4.8 22.8 7.5 19 Z " /><path fill="rgb(139,208,220)" stroke="rgb(139,208,220)" stroke-width="1" opacity="1" d="M 27.5 20 L 28 23.5 L 27 23.5 L 27.5 20 Z " /><path fill="rgb(139,208,220)" stroke="rgb(139,208,220)" stroke-width="1" opacity="1" d="M 2.5 21 L 3 23.5 L 2 23.5 L 2.5 21 Z " /><path fill="rgb(139,208,220)" stroke="rgb(139,208,220)" stroke-width="1" opacity="1" d="M 11.5 22 Q 14 23 13 27.5 L 12 27.5 L 11 25.5 L 12 23.5 L 11.5 22 Z " /><path fill="rgb(139,208,220)" stroke="rgb(139,208,220)" stroke-width="1" opacity="1" d="M 22.5 24 Q 25 25 24 29.5 L 23 29.5 L 22.5 24 Z " /><path fill="rgb(139,208,220)" stroke="rgb(139,208,220)" stroke-width="1" opacity="1" d="M 27.5 25 L 28 27.5 L 26.5 29 L 26 26.5 L 27.5 25 Z " /><path fill="rgb(139,208,220)" stroke="rgb(139,208,220)" stroke-width="1" opacity="1" d="M 2.5 26 L 4 32.5 L 3 32.5 L 2.5 26 Z " /><path fill="rgb(139,208,220)" stroke="rgb(139,208,220)" stroke-width="1" opacity="1" d="M 10.5 29 L 13.5 30 L 15 29.5 Q 13.8 32.3 12.5 30 Q 9.5 30.5 10.5 29 Z " /><path fill="rgb(139,208,220)" stroke="rgb(139,208,220)" stroke-width="1" opacity="1" d="M 7 32 L 9 32.5 L 7 33.5 L 7 32 Z " /><path fill="rgb(139,208,220)" stroke="rgb(139,208,220)" stroke-width="1" opacity="1" d="M 11.5 34 L 13 34.5 L 9.5 37 L 8.5 35 Q 10 37.5 11.5 34 Z " /><path fill="rgb(105,108,109)" stroke="rgb(105,108,109)" stroke-width="1" opacity="1" d="M 3.5 1 L 6 1.5 L 3.5 2 L 3.5 1 Z " /><path fill="rgb(105,108,109)" stroke="rgb(105,108,109)" stroke-width="1" opacity="1" d="M 14.5 1 Q 20 -0.5 21.5 2 L 23 1.5 L 19.5 3 L 14.5 2 L 14.5 1 Z " /><path fill="rgb(105,108,109)" stroke="rgb(105,108,109)" stroke-width="1" opacity="1" d="M 9.5 8 L 8.5 10 L 9.5 8 Z " /><path fill="rgb(105,108,109)" stroke="rgb(105,108,109)" stroke-width="1" opacity="1" d="M 16.5 22 L 17.5 24 Q 15.3 23.3 16 25.5 L 14 26.5 L 16.5 22 Z " /><path fill="rgb(105,108,109)" stroke="rgb(105,108,109)" stroke-width="1" opacity="1" d="M 24.5 29 L 23.5 31 L 24.5 29 Z " /><path fill="rgb(105,108,109)" stroke="rgb(105,108,109)" stroke-width="1" opacity="1" d="M 4.5 36 L 7 37.5 L 5.5 37 L 4.5 36 Z " /><path fill="rgb(105,108,109)" stroke="rgb(105,108,109)" stroke-width="1" opacity="1" d="M 10.5 41 L 9.5 43 L 10.5 41 Z " /><path fill="rgb(101,108,54)" stroke="rgb(101,108,54)" stroke-width="1" opacity="1" d="M 22.5 2 L 23.5 4 Q 20.7 4.7 22.5 2 Z " /><path fill="rgb(101,108,54)" stroke="rgb(101,108,54)" stroke-width="1" opacity="1" d="M 11.5 5 L 12 6.5 L 9 8 L 9.5 6 L 11 6.5 L 11.5 5 Z " /><path fill="rgb(101,108,54)" stroke="rgb(101,108,54)" stroke-width="1" opacity="1" d="M 18.5 5 L 20 7.5 L 18.5 7 L 17 6.5 L 18.5 5 Z " /><path fill="rgb(101,108,54)" stroke="rgb(101,108,54)" stroke-width="1" opacity="1" d="M 21.5 7 L 22.5 9 L 21.5 7 Z " /><path fill="rgb(101,108,54)" stroke="rgb(101,108,54)" stroke-width="1" opacity="1" d="M 4.5 13 Q 7.5 14.5 4.5 16 L 4.5 13 Z " /><path fill="rgb(101,108,54)" stroke="rgb(101,108,54)" stroke-width="1" opacity="1" d="M 3.5 19 L 6 19.5 L 4.5 22 L 3.5 19 Z " /><path fill="rgb(101,108,54)" stroke="rgb(101,108,54)" stroke-width="1" opacity="1" d="M 24.5 23 L 25.5 25 Q 22.7 25.7 24.5 23 Z " /><path fill="rgb(101,108,54)" stroke="rgb(101,108,54)" stroke-width="1" opacity="1" d="M 4.5 31 L 7 34.5 L 6 34.5 L 4.5 31 Z " /><path fill="rgb(101,108,54)" stroke="rgb(101,108,54)" stroke-width="1" opacity="1" d="M 6.5 36 L 7.5 38 L 6.5 36 Z " /><path fill="rgb(101,108,54)" stroke="rgb(101,108,54)" stroke-width="1" opacity="1" d="M 17.5 39 L 19 39.5 L 16.5 41 L 17.5 39 Z " /><path fill="rgb(95,79,77)" stroke="rgb(95,79,77)" stroke-width="1" opacity="1" d="M 12 14 Q 15 13 14 16 Q 11 17 12 14 Z " /><path fill="rgb(95,79,77)" stroke="rgb(95,79,77)" stroke-width="1" opacity="1" d="M 10.5 46 L 10.5 48 L 15.5 47 L 16 49 Q 10.6 50.5 9 47.5 L 10.5 46 Z " /><path fill="rgb(71,40,27)" stroke="rgb(71,40,27)" stroke-width="1" opacity="1" d="M 12.5 4 L 14.5 7 L 18 7.5 L 11.5 8 L 11.5 7 L 13 6.5 L 12.5 4 Z " /><path fill="rgb(71,40,27)" stroke="rgb(71,40,27)" stroke-width="1" opacity="1" d="M 13.5 12 L 16 12.5 L 13.5 13 L 13.5 12 Z " /><path fill="rgb(71,40,27)" stroke="rgb(71,40,27)" stroke-width="1" opacity="1" d="M 8.5 14 L 7.5 16 L 8.5 14 Z " /><path fill="rgb(71,40,27)" stroke="rgb(71,40,27)" stroke-width="1" opacity="1" d="M 3.5 26 L 4.5 28 Q 1.7 28.7 3.5 26 Z " /><path fill="rgb(71,40,27)" stroke="rgb(71,40,27)" stroke-width="1" opacity="1" d="M 19.5 30 Q 22.5 31.5 19.5 33 L 19.5 30 Z " /><path fill="rgb(71,40,27)" stroke="rgb(71,40,27)" stroke-width="1" opacity="1" d="M 14.5 34 L 15 36 L 13 35.5 L 14.5 34 Z " /><path fill="rgb(71,40,27)" stroke="rgb(71,40,27)" stroke-width="1" opacity="1" d="M 23 35 L 26 35.5 L 23 37 L 23 35 Z " /><path fill="rgb(71,40,27)" stroke="rgb(71,40,27)" stroke-width="1" opacity="1" d="M 27.5 35 L 28 38 L 26 37.5 L 27.5 35 Z " /><path fill="rgb(71,40,27)" stroke="rgb(71,40,27)" stroke-width="1" opacity="1" d="M 6.5 38 L 8 38.5 L 4.5 40 L 4.5 39 L 6.5 38 Z " /><path fill="rgb(71,40,27)" stroke="rgb(71,40,27)" stroke-width="1" opacity="1" d="M 12.5 39 L 14.5 39 L 17 39.5 Q 16.3 42.8 11.5 42 L 11.5 41 L 13 40.5 L 12.5 39 Z " /><path fill="rgb(71,40,27)" stroke="rgb(71,40,27)" stroke-width="1" opacity="1" d="M 2.5 41 L 4 43.5 L 2 42.5 L 2.5 41 Z " /><path fill="rgb(77,76,32)" stroke="rgb(77,76,32)" stroke-width="1" opacity="1" d="M 20.5 7 Q 24.5 7.5 24 12.5 L 23 12.5 L 20.5 7 Z " /><path fill="rgb(77,76,32)" stroke="rgb(77,76,32)" stroke-width="1" opacity="1" d="M 4.5 17 L 3.5 19 L 4.5 17 Z " /><path fill="rgb(77,76,32)" stroke="rgb(77,76,32)" stroke-width="1" opacity="1" d="M 25.5 19 L 26 21.5 L 25 21.5 L 25.5 19 Z " /><path fill="rgb(77,76,32)" stroke="rgb(77,76,32)" stroke-width="1" opacity="1" d="M 8.5 38 L 13 40.5 L 11.5 41 L 8 39.5 L 8.5 38 Z " /><path fill="rgb(227,136,76)" stroke="rgb(227,136,76)" stroke-width="1" opacity="1" d="M 4.5 2 L 5.5 5 Q 8.1 4.3 7 7 L 4.5 8 L 2 4.5 L 4.5 2 Z " /><path fill="rgb(227,136,76)" stroke="rgb(227,136,76)" stroke-width="1" opacity="1" d="M 23.5 2 L 26 3.5 L 24.5 4 L 23.5 2 Z " /><path fill="rgb(227,136,76)" stroke="rgb(227,136,76)" stroke-width="1" opacity="1" d="M 20 4 L 22 4.5 L 20 5.5 L 20 4 Z " /><path fill="rgb(227,136,76)" stroke="rgb(227,136,76)" stroke-width="1" opacity="1" d="M 13.5 16 Q 18.3 14.3 17 18.5 L 14.5 24 L 14 22.5 L 15 20.5 L 14 18 L 12 17.5 L 13.5 16 Z " /><path fill="rgb(227,136,76)" stroke="rgb(227,136,76)" stroke-width="1" opacity="1" d="M 11.5 20 L 12 21.5 L 9 23.5 L 11.5 20 Z " /><path fill="rgb(227,136,76)" stroke="rgb(227,136,76)" stroke-width="1" opacity="1" d="M 15.5 27 L 17.5 28 L 19 27.5 Q 20.3 31.3 16.5 30 L 15.5 27 Z " /><path fill="rgb(227,136,76)" stroke="rgb(227,136,76)" stroke-width="1" opacity="1" d="M 14.5 30 L 13.5 32 L 14.5 30 Z " /><path fill="rgb(227,136,76)" stroke="rgb(227,136,76)" stroke-width="1" opacity="1" d="M 24 38 L 28 38.5 L 26 39.5 L 27 41.5 L 26.5 43 L 28 43.5 L 25.5 44 L 22 39.5 L 24 39.5 L 24 38 Z " /><path fill="rgb(227,136,76)" stroke="rgb(227,136,76)" stroke-width="1" opacity="1" d="M 2.5 40 L 5 40.5 L 3.5 43 L 2.5 40 Z " /></svg>