<svg width="30" height="50" version="1.1" xmlns="http://www.w3.org/2000/svg" desc="Created with imagetracer.js version 1.2.6" ><path fill="rgb(243,240,242)" stroke="rgb(243,240,242)" stroke-width="1" opacity="1" d="M 7.5 1 L 10 1.5 L 7.5 2 L 7.5 1 Z " /><path fill="rgb(243,240,242)" stroke="rgb(243,240,242)" stroke-width="1" opacity="1" d="M 18.5 1 L 21 1.5 L 18.5 2 L 18.5 1 Z " /><path fill="rgb(243,240,242)" stroke="rgb(243,240,242)" stroke-width="1" opacity="1" d="M 2.5 5 L 4 12.5 L 2.5 15 L 2.5 5 Z " /><path fill="rgb(243,240,242)" stroke="rgb(243,240,242)" stroke-width="1" opacity="1" d="M 15.5 7 L 17 7.5 L 14.5 9 L 15.5 7 Z " /><path fill="rgb(243,240,242)" stroke="rgb(243,240,242)" stroke-width="1" opacity="1" d="M 24.5 15 L 25 16.5 L 23 17.5 L 24.5 15 Z " /><path fill="rgb(243,240,242)" stroke="rgb(243,240,242)" stroke-width="1" opacity="1" d="M 12.5 17 L 14 17.5 L 11.5 22 L 11 18.5 L 12.5 17 Z " /><path fill="rgb(243,240,242)" stroke="rgb(243,240,242)" stroke-width="1" opacity="1" d="M 25.5 20 L 24.5 22 L 25.5 20 Z " /><path fill="rgb(243,240,242)" stroke="rgb(243,240,242)" stroke-width="1" opacity="1" d="M 6.5 21 L 9 22.5 L 7.5 23 L 6.5 21 Z " /><path fill="rgb(243,240,242)" stroke="rgb(243,240,242)" stroke-width="1" opacity="1" d="M 21 21 L 23 21.5 L 21 22.5 L 21 21 Z " /><path fill="rgb(243,240,242)" stroke="rgb(243,240,242)" stroke-width="1" opacity="1" d="M 18.5 22 L 18 23.5 L 17.5 25 L 17 23.5 L 18.5 22 Z " /><path fill="rgb(243,240,242)" stroke="rgb(243,240,242)" stroke-width="1" opacity="1" d="M 26.5 22 L 27 24.5 L 26.5 27 L 25 23.5 L 26.5 22 Z " /><path fill="rgb(243,240,242)" stroke="rgb(243,240,242)" stroke-width="1" opacity="1" d="M 2.5 23 L 3 25.5 L 2 25.5 L 2.5 23 Z " /><path fill="rgb(243,240,242)" stroke="rgb(243,240,242)" stroke-width="1" opacity="1" d="M 8.5 24 L 7.5 26 L 8.5 24 Z " /><path fill="rgb(243,240,242)" stroke="rgb(243,240,242)" stroke-width="1" opacity="1" d="M 10.5 27 L 11 33.5 L 11 35.5 L 10.5 37 L 9 34.5 L 10.5 27 Z " /><path fill="rgb(243,240,242)" stroke="rgb(243,240,242)" stroke-width="1" opacity="1" d="M 25.5 28 L 26.5 30 Q 23.7 30.7 25.5 28 Z " /><path fill="rgb(243,240,242)" stroke="rgb(243,240,242)" stroke-width="1" opacity="1" d="M 2.5 30 L 3 36.5 L 5 38.5 L 2 39 L 2.5 30 Z " /><path fill="rgb(243,240,242)" stroke="rgb(243,240,242)" stroke-width="1" opacity="1" d="M 28.5 30 L 28 31.5 Q 28.8 33.8 26.5 33 L 28.5 30 Z " /><path fill="rgb(243,240,242)" stroke="rgb(243,240,242)" stroke-width="1" opacity="1" d="M 24.5 31 L 24.5 34 L 22.5 34 L 21 33.5 L 24.5 31 Z " /><path fill="rgb(243,240,242)" stroke="rgb(243,240,242)" stroke-width="1" opacity="1" d="M 20.5 38 L 22.5 39 L 24 38.5 L 21.5 40 L 20.5 38 Z " /><path fill="rgb(243,240,242)" stroke="rgb(243,240,242)" stroke-width="1" opacity="1" d="M 1.5 40 L 2 45 L 10 45.5 L 7.5 47 L 4 46 Q 5.1 48.7 2.5 48 L 1 48.5 L 1 44.5 L 1.5 40 Z " /><path fill="rgb(243,240,242)" stroke="rgb(243,240,242)" stroke-width="1" opacity="1" d="M 28.5 40 L 29 43.5 L 28 43.5 L 28.5 40 Z " /><path fill="rgb(194,196,194)" stroke="rgb(194,196,194)" stroke-width="1" opacity="1" d="M 11.5 2 L 12.5 4 L 11.5 2 Z " /><path fill="rgb(194,196,194)" stroke="rgb(194,196,194)" stroke-width="1" opacity="1" d="M 14.5 4 L 15.5 6 L 14.5 4 Z " /><path fill="rgb(194,196,194)" stroke="rgb(194,196,194)" stroke-width="1" opacity="1" d="M 11.5 5 L 13 7.5 L 11 6.5 L 11.5 5 Z " /><path fill="rgb(194,196,194)" stroke="rgb(194,196,194)" stroke-width="1" opacity="1" d="M 10.5 14 L 13 14.5 Q 10.9 17.8 10.5 14 Z " /><path fill="rgb(194,196,194)" stroke="rgb(194,196,194)" stroke-width="1" opacity="1" d="M 17.5 19 L 18 21.5 L 17 21.5 L 17.5 19 Z " /><path fill="rgb(194,196,194)" stroke="rgb(194,196,194)" stroke-width="1" opacity="1" d="M 20.5 21 L 20 22.5 L 19.5 24 L 19 22.5 L 20.5 21 Z " /><path fill="rgb(194,196,194)" stroke="rgb(194,196,194)" stroke-width="1" opacity="1" d="M 11 28 Q 13.7 26.9 13 29.5 L 11.5 32 L 11 28 Z " /><path fill="rgb(194,196,194)" stroke="rgb(194,196,194)" stroke-width="1" opacity="1" d="M 19.5 38 L 18.5 40 L 19.5 38 Z " /><path fill="rgb(194,196,194)" stroke="rgb(194,196,194)" stroke-width="1" opacity="1" d="M 12.5 46 L 14 46.5 L 11.5 48 L 12.5 46 Z " /><path fill="rgb(194,196,194)" stroke="rgb(194,196,194)" stroke-width="1" opacity="1" d="M 21.5 46 L 20.5 48 L 21.5 46 Z " /><path fill="rgb(130,135,135)" stroke="rgb(130,135,135)" stroke-width="1" opacity="1" d="M 16.5 9 L 19 10.5 L 16 11 L 16.5 9 Z " /><path fill="rgb(130,135,135)" stroke="rgb(130,135,135)" stroke-width="1" opacity="1" d="M 25.5 33 L 24.5 35 L 25.5 33 Z " /><path fill="rgb(253,252,253)" stroke="rgb(253,252,253)" stroke-width="1" opacity="1" d="M 0 0 L 30 0 L 30 50 L 0 50 L 0 0 Z M 7 1 L 3 2 Q 0 3 2 5 L 2 25 L 1 26 L 2 30 L 1 47 L 2 49 L 24 49 L 26 48 L 24 46 L 27 45 L 28 47 Q 30 44 29 39 L 24 38 Q 20 39 22 35 L 29 34 L 28 32 L 29 29 L 27 29 L 29 28 L 29 26 L 28 23 L 29 21 L 25 17 L 27 15 Q 30 16 29 13 L 25 14 L 22 18 L 20 10 Q 21 7 19 8 L 20 6 L 19 2 L 29 2 L 7 1 Z " /><path fill="rgb(253,252,253)" stroke="rgb(253,252,253)" stroke-width="1" opacity="1" d="M 13.5 2 L 17 2.5 L 13.5 3 L 13.5 2 Z " /><path fill="rgb(253,252,253)" stroke="rgb(253,252,253)" stroke-width="1" opacity="1" d="M 8.5 11 L 11 15.5 L 9 14.5 Q 9.8 12.3 7.5 13 L 8.5 11 Z " /><path fill="rgb(253,252,253)" stroke="rgb(253,252,253)" stroke-width="1" opacity="1" d="M 7.5 14 L 8 16.5 L 7.5 18 L 6 15.5 L 7.5 14 Z " /><path fill="rgb(253,252,253)" stroke="rgb(253,252,253)" stroke-width="1" opacity="1" d="M 8.5 20 Q 11.8 18.9 11 21.5 L 9.5 21 L 8.5 20 Z " /><path fill="rgb(253,252,253)" stroke="rgb(253,252,253)" stroke-width="1" opacity="1" d="M 23.5 23 L 24 24.5 L 21.5 26 L 21.5 25 Q 24 25.7 23.5 23 Z " /><path fill="rgb(253,252,253)" stroke="rgb(253,252,253)" stroke-width="1" opacity="1" d="M 6.5 25 L 9 26.5 L 8.5 28 Q 11.1 27.3 10 30 L 5 28.5 L 7 27.5 L 5 26.5 L 6.5 25 Z " /><path fill="rgb(253,252,253)" stroke="rgb(253,252,253)" stroke-width="1" opacity="1" d="M 15.5 26 L 19 26.5 L 15.5 27 L 15.5 26 Z " /><path fill="rgb(253,252,253)" stroke="rgb(253,252,253)" stroke-width="1" opacity="1" d="M 13.5 28 L 16 28.5 L 13 30 L 13.5 28 Z " /><path fill="rgb(253,252,253)" stroke="rgb(253,252,253)" stroke-width="1" opacity="1" d="M 15.5 31 L 16 32.5 L 16 34.5 Q 17.3 39.3 14 38 L 13 32 L 15.5 31 Z " /><path fill="rgb(253,252,253)" stroke="rgb(253,252,253)" stroke-width="1" opacity="1" d="M 9.5 32 L 10 33.5 L 10 35.5 L 8.5 38 L 8.5 36 Q 5.5 36.7 7 33 L 9.5 32 Z " /><path fill="rgb(251,249,251)" stroke="rgb(251,249,251)" stroke-width="1" opacity="1" d="M 11.5 1 L 12.5 3 L 11.5 1 Z " /><path fill="rgb(251,249,251)" stroke="rgb(251,249,251)" stroke-width="1" opacity="1" d="M 8.5 2 L 10 2 L 10 6 L 8 6.5 L 11 7.5 L 10 10.5 L 9 14.5 L 12 17.5 L 10.5 19 Q 4.4 20.3 5 17.5 L 6.5 18 Q 10.9 19.5 10 16.5 Q 8.3 18.1 6.5 15 L 5.5 16 L 3 15.5 L 6 14.5 L 4 11.5 L 6 10.5 L 5 8.5 L 7 5 L 5 4.5 L 8.5 2 Z M 9 11 L 7 13 L 9 13 L 9 11 Z " /><path fill="rgb(251,249,251)" stroke="rgb(251,249,251)" stroke-width="1" opacity="1" d="M 14.5 5 L 15.5 7 L 13 6.5 L 14.5 5 Z " /><path fill="rgb(251,249,251)" stroke="rgb(251,249,251)" stroke-width="1" opacity="1" d="M 18.5 6 L 17.5 8 L 18.5 6 Z " /><path fill="rgb(251,249,251)" stroke="rgb(251,249,251)" stroke-width="1" opacity="1" d="M 17.5 13 L 18 14.5 L 15.5 16 L 15.5 15 Q 18 15.7 17.5 13 Z " /><path fill="rgb(251,249,251)" stroke="rgb(251,249,251)" stroke-width="1" opacity="1" d="M 24 17 L 26 17.5 L 24 18.5 L 24 17 Z " /><path fill="rgb(251,249,251)" stroke="rgb(251,249,251)" stroke-width="1" opacity="1" d="M 7.5 20 L 8.5 22 L 7.5 20 Z " /><path fill="rgb(251,249,251)" stroke="rgb(251,249,251)" stroke-width="1" opacity="1" d="M 14.5 21 L 18 22.5 L 15.5 24 L 15.5 22 L 14.5 21 Z " /><path fill="rgb(251,249,251)" stroke="rgb(251,249,251)" stroke-width="1" opacity="1" d="M 21.5 24 L 24 25.5 L 21.5 27 L 21.5 26 L 23 25.5 L 21.5 24 Z " /><path fill="rgb(251,249,251)" stroke="rgb(251,249,251)" stroke-width="1" opacity="1" d="M 6.5 29 Q 9.3 30.3 7 31.5 Q 8.1 35.7 4 34 L 6.5 29 Z " /><path fill="rgb(251,249,251)" stroke="rgb(251,249,251)" stroke-width="1" opacity="1" d="M 5.5 35 L 10 37.5 L 7.5 38 L 6 37.5 L 6.5 36 L 5.5 35 Z " /><path fill="rgb(171,170,172)" stroke="rgb(171,170,172)" stroke-width="1" opacity="1" d="M 16.5 19 L 17 21.5 L 16 21.5 L 16.5 19 Z " /><path fill="rgb(171,170,172)" stroke="rgb(171,170,172)" stroke-width="1" opacity="1" d="M 18.5 19 L 19 21.5 L 18 21.5 L 18.5 19 Z " /><path fill="rgb(171,170,172)" stroke="rgb(171,170,172)" stroke-width="1" opacity="1" d="M 23.5 26 L 24.5 28 L 23.5 26 Z " /><path fill="rgb(171,170,172)" stroke="rgb(171,170,172)" stroke-width="1" opacity="1" d="M 11.5 32 L 13 36 L 11 35.5 L 11 33.5 L 11.5 32 Z " /><path fill="rgb(135,170,179)" stroke="rgb(135,170,179)" stroke-width="1" opacity="1" d="M 19.5 28 L 20 30.5 L 19 30.5 L 19.5 28 Z " /><path fill="rgb(135,170,179)" stroke="rgb(135,170,179)" stroke-width="1" opacity="1" d="M 17.5 32 L 20 33.5 L 19.5 36 L 19 33 L 17.5 32 Z " /><path fill="rgb(135,170,179)" stroke="rgb(135,170,179)" stroke-width="1" opacity="1" d="M 9.5 41 L 10.5 43 L 9.5 41 Z " /><path fill="rgb(135,170,179)" stroke="rgb(135,170,179)" stroke-width="1" opacity="1" d="M 7.5 42 L 6.5 44 L 7.5 42 Z " /><path fill="rgb(147,149,148)" stroke="rgb(147,149,148)" stroke-width="1" opacity="1" d="M 17.5 3 L 18 4.5 L 16 5.5 L 17.5 3 Z " /><path fill="rgb(147,149,148)" stroke="rgb(147,149,148)" stroke-width="1" opacity="1" d="M 13.5 7 L 12.5 9 L 13.5 7 Z " /><path fill="rgb(147,149,148)" stroke="rgb(147,149,148)" stroke-width="1" opacity="1" d="M 14.5 9 L 15.5 11 L 13 10.5 L 14.5 9 Z " /><path fill="rgb(147,149,148)" stroke="rgb(147,149,148)" stroke-width="1" opacity="1" d="M 19.5 27 L 20.5 29 L 19.5 27 Z " /><path fill="rgb(147,149,148)" stroke="rgb(147,149,148)" stroke-width="1" opacity="1" d="M 13.5 38 L 12.5 40 L 13.5 38 Z " /><path fill="rgb(249,247,250)" stroke="rgb(249,247,250)" stroke-width="1" opacity="1" d="M 6.5 1 Q 9.5 2.5 6.5 4 L 5 4.5 L 7 5 L 5 9.5 L 5.5 11 L 4 11.5 L 6 14.5 L 3 15.5 L 7 17.5 L 5 17.5 Q 4.2 20.1 7.5 19 L 7.5 20 L 5 20.5 L 5 28.5 L 5 30.5 L 4 34 L 7 34.5 L 5 35.5 L 7 36.5 L 6.5 38 L 10 39 L 10.5 37 L 11 38.5 L 7.5 40 L 3 36.5 Q 3.9 29.1 1 25.5 L 3 25.5 L 2 22.5 L 2 20.5 Q 1 14.5 4 12.5 L 2 2.5 L 4.5 2 L 6.5 1 Z " /><path fill="rgb(249,247,250)" stroke="rgb(249,247,250)" stroke-width="1" opacity="1" d="M 12.5 1 L 15 1.5 L 12.5 2 L 12.5 1 Z " /><path fill="rgb(249,247,250)" stroke="rgb(249,247,250)" stroke-width="1" opacity="1" d="M 9.5 21 L 10.5 23 L 9.5 21 Z " /><path fill="rgb(249,247,250)" stroke="rgb(249,247,250)" stroke-width="1" opacity="1" d="M 10 45 L 13 45.5 L 10 47 L 10 45 Z " /><path fill="rgb(249,247,250)" stroke="rgb(249,247,250)" stroke-width="1" opacity="1" d="M 20.5 48 L 23 48.5 L 20.5 49 L 20.5 48 Z " /><path fill="rgb(180,182,181)" stroke="rgb(180,182,181)" stroke-width="1" opacity="1" d="M 23.5 1 L 27 1.5 L 23.5 2 L 23.5 1 Z " /><path fill="rgb(180,182,181)" stroke="rgb(180,182,181)" stroke-width="1" opacity="1" d="M 17.5 2 L 19 4.5 L 18 4.5 L 17.5 2 Z " /><path fill="rgb(180,182,181)" stroke="rgb(180,182,181)" stroke-width="1" opacity="1" d="M 13.5 9 L 12.5 11 L 13.5 9 Z " /><path fill="rgb(180,182,181)" stroke="rgb(180,182,181)" stroke-width="1" opacity="1" d="M 10.5 25 L 13 26.5 L 11.5 26 L 10.5 25 Z " /><path fill="rgb(180,182,181)" stroke="rgb(180,182,181)" stroke-width="1" opacity="1" d="M 24.5 25 L 25.5 27 L 24.5 25 Z " /><path fill="rgb(180,182,181)" stroke="rgb(180,182,181)" stroke-width="1" opacity="1" d="M 12.5 30 L 13 32.5 L 12 32.5 L 12.5 30 Z " /><path fill="rgb(214,219,216)" stroke="rgb(214,219,216)" stroke-width="1" opacity="1" d="M 10.5 2 L 11 4.5 L 10 4.5 L 10.5 2 Z " /><path fill="rgb(214,219,216)" stroke="rgb(214,219,216)" stroke-width="1" opacity="1" d="M 20.5 10 L 21 13.5 L 20 13.5 L 20.5 10 Z " /><path fill="rgb(214,219,216)" stroke="rgb(214,219,216)" stroke-width="1" opacity="1" d="M 13.5 15 L 14.5 17 L 13.5 15 Z " /><path fill="rgb(214,219,216)" stroke="rgb(214,219,216)" stroke-width="1" opacity="1" d="M 17.5 15 L 16.5 17 L 17.5 15 Z " /><path fill="rgb(214,219,216)" stroke="rgb(214,219,216)" stroke-width="1" opacity="1" d="M 6.5 23 L 5.5 25 L 6.5 23 Z " /><path fill="rgb(214,219,216)" stroke="rgb(214,219,216)" stroke-width="1" opacity="1" d="M 18.5 25 L 20 26.5 Q 16.5 28 19 29.5 L 17 34 Q 19.7 32.9 19 35.5 L 20 35.5 L 20.5 33 L 21 35.5 Q 19.3 39.8 17.5 37 Q 15.3 37.8 16 35.5 L 16 33.5 L 17 28.5 L 16.5 27 Q 17.8 29.3 19 26.5 L 18.5 25 Z " /><path fill="rgb(214,219,216)" stroke="rgb(214,219,216)" stroke-width="1" opacity="1" d="M 9.5 26 L 8.5 28 L 9.5 26 Z " /><path fill="rgb(214,219,216)" stroke="rgb(214,219,216)" stroke-width="1" opacity="1" d="M 21.5 29 L 23.5 32 L 21.5 29 Z " /><path fill="rgb(214,219,216)" stroke="rgb(214,219,216)" stroke-width="1" opacity="1" d="M 14.5 38 L 18 39.5 L 16.5 40 L 14.5 38 Z " /><path fill="rgb(214,219,216)" stroke="rgb(214,219,216)" stroke-width="1" opacity="1" d="M 22.5 38 L 25 39.5 L 23.5 40 L 22.5 38 Z " /><path fill="rgb(214,219,216)" stroke="rgb(214,219,216)" stroke-width="1" opacity="1" d="M 23.5 45 Q 26.5 46.5 23.5 48 L 23.5 45 Z " /><path fill="rgb(161,160,152)" stroke="rgb(161,160,152)" stroke-width="1" opacity="1" d="M 13.5 13 L 16 14.5 L 14.5 15 L 13.5 13 Z " /><path fill="rgb(161,160,152)" stroke="rgb(161,160,152)" stroke-width="1" opacity="1" d="M 12.5 15 L 14.5 18 L 12.5 15 Z " /><path fill="rgb(161,160,152)" stroke="rgb(161,160,152)" stroke-width="1" opacity="1" d="M 14.5 23 L 15.5 25 L 14.5 23 Z " /><path fill="rgb(112,127,131)" stroke="rgb(112,127,131)" stroke-width="1" opacity="1" d="M 11.5 4 L 12.5 6 L 11.5 4 Z " /><path fill="rgb(112,127,131)" stroke="rgb(112,127,131)" stroke-width="1" opacity="1" d="M 18.5 8 L 19 10 L 17 9.5 L 18.5 8 Z " /><path fill="rgb(112,127,131)" stroke="rgb(112,127,131)" stroke-width="1" opacity="1" d="M 14.5 10 L 13.5 12 L 14.5 10 Z " /><path fill="rgb(50,60,59)" stroke="rgb(50,60,59)" stroke-width="1" opacity="1" d="M 16.5 11 L 19 11.5 L 16.5 12 L 16.5 11 Z " /><path fill="rgb(50,60,59)" stroke="rgb(50,60,59)" stroke-width="1" opacity="1" d="M 25.5 30 L 28 30.5 L 25.5 31 L 25.5 30 Z " /><path fill="rgb(50,60,59)" stroke="rgb(50,60,59)" stroke-width="1" opacity="1" d="M 10 40 L 14.5 41 L 17 40 Q 18.3 43.3 13.5 42 L 13.5 43 Q 16.1 42.3 15 45 L 12 45 L 12 42 Q 9 43 10 40 Z " /><path fill="rgb(50,60,59)" stroke="rgb(50,60,59)" stroke-width="1" opacity="1" d="M 20 40 Q 23 39 22 42 Q 19 43 20 40 Z " /><path fill="rgb(50,60,59)" stroke="rgb(50,60,59)" stroke-width="1" opacity="1" d="M 23.5 40 L 24 44.5 L 23 44.5 L 23.5 40 Z " /><path fill="rgb(50,60,59)" stroke="rgb(50,60,59)" stroke-width="1" opacity="1" d="M 3.5 41 L 2.5 43 L 3.5 41 Z " /><path fill="rgb(50,60,59)" stroke="rgb(50,60,59)" stroke-width="1" opacity="1" d="M 6 41 L 9 41.5 L 6.5 43 L 6 41 Z " /><path fill="rgb(50,60,59)" stroke="rgb(50,60,59)" stroke-width="1" opacity="1" d="M 27.5 41 L 28 43.5 L 26 43.5 L 25.5 45 L 25 43.5 L 27.5 41 Z " /><path fill="rgb(50,60,59)" stroke="rgb(50,60,59)" stroke-width="1" opacity="1" d="M 8.5 43 L 9 45 L 6 44.5 L 8.5 43 Z " /><path fill="rgb(50,60,59)" stroke="rgb(50,60,59)" stroke-width="1" opacity="1" d="M 16.5 43 L 20 43.5 L 16.5 44 L 16.5 43 Z " /><path fill="rgb(94,120,129)" stroke="rgb(94,120,129)" stroke-width="1" opacity="1" d="M 17 40 Q 20.7 38.5 20 41.5 L 17 41.5 L 17 40 Z " /><path fill="rgb(94,120,129)" stroke="rgb(94,120,129)" stroke-width="1" opacity="1" d="M 8.5 42 L 7.5 44 L 8.5 42 Z " /><path fill="rgb(92,100,98)" stroke="rgb(92,100,98)" stroke-width="1" opacity="1" d="M 19.5 14 L 20 19.5 L 19 19.5 L 19.5 14 Z " /><path fill="rgb(92,100,98)" stroke="rgb(92,100,98)" stroke-width="1" opacity="1" d="M 15.5 17 L 17 17.5 L 14.5 19 L 15.5 17 Z " /><path fill="rgb(92,100,98)" stroke="rgb(92,100,98)" stroke-width="1" opacity="1" d="M 3.5 40 L 6 41.5 L 5.5 43 Q 3.7 39.9 2 41.5 L 3.5 40 Z " /><path fill="rgb(92,100,98)" stroke="rgb(92,100,98)" stroke-width="1" opacity="1" d="M 27.5 40 L 26.5 42 L 24 41.5 L 27.5 40 Z " /><path fill="rgb(92,100,98)" stroke="rgb(92,100,98)" stroke-width="1" opacity="1" d="M 13.5 42 Q 16.8 40.9 16 43.5 L 16.5 45 L 13.5 43 L 13.5 42 Z " /><path fill="rgb(92,100,98)" stroke="rgb(92,100,98)" stroke-width="1" opacity="1" d="M 20.5 43 Q 23.8 41.9 23 44.5 L 20.5 45 L 18 44.5 L 20.5 43 Z " /><path fill="rgb(92,100,98)" stroke="rgb(92,100,98)" stroke-width="1" opacity="1" d="M 4.5 48 L 9 48.5 L 4.5 49 L 4.5 48 Z " /></svg>