<svg width="30" height="50" version="1.1" xmlns="http://www.w3.org/2000/svg" desc="Created with imagetracer.js version 1.2.6" ><path fill="rgb(211,240,248)" stroke="rgb(211,240,248)" stroke-width="1" opacity="1" d="M 2 2 L 13.5 2 Q 12.8 5 17 4 Q 15.6 0 22.5 2 L 23.5 4 Q 18.1 2.1 19 5.5 L 17.5 5 L 12.5 6 L 9.5 4 L 4 7.5 L 3 9.5 L 5.5 10 L 9.5 9 L 14 11.5 L 13 13.5 L 14 16.5 Q 14.9 19.5 10.5 18 L 11 19.5 Q 11.8 22.1 8.5 21 L 8.5 20 L 10 19.5 L 9 17.5 L 10 14.5 L 6.5 13 L 4 16.5 L 4 18.5 L 2.5 38 L 2 2 Z " /><path fill="rgb(211,240,248)" stroke="rgb(211,240,248)" stroke-width="1" opacity="1" d="M 21.5 9 L 23.5 12 L 18.5 13 L 18 11.5 L 21.5 9 Z " /><path fill="rgb(211,240,248)" stroke="rgb(211,240,248)" stroke-width="1" opacity="1" d="M 17.5 14 Q 19.8 13.3 19 15.5 Q 21.3 16.8 18.5 18 L 15.5 16 L 15.5 15 L 17.5 14 Z " /><path fill="rgb(211,240,248)" stroke="rgb(211,240,248)" stroke-width="1" opacity="1" d="M 15 23 L 17 23.5 L 16.5 27 Q 20.3 25.8 19 29.5 Q 16.5 31 20 32.5 Q 21.3 36.7 16.5 35 L 12.5 37 L 12 33 Q 8.5 34.1 10 26.5 Q 7.8 25.3 10.5 24 L 11.5 27 Q 17.2 28.6 15 23 Z " /><path fill="rgb(211,240,248)" stroke="rgb(211,240,248)" stroke-width="1" opacity="1" d="M 23 32 L 25.5 33 Q 26.8 30.7 28 33.5 Q 29.2 38.1 24 36 L 23 32 Z " /><path fill="rgb(148,166,173)" stroke="rgb(148,166,173)" stroke-width="1" opacity="1" d="M 13.5 13 L 15 16 L 13 15.5 L 13.5 13 Z " /><path fill="rgb(148,166,173)" stroke="rgb(148,166,173)" stroke-width="1" opacity="1" d="M 11.5 20 L 10.5 22 L 11.5 20 Z " /><path fill="rgb(148,166,173)" stroke="rgb(148,166,173)" stroke-width="1" opacity="1" d="M 11.5 34 L 12 35.5 L 10 36.5 L 11.5 34 Z " /><path fill="rgb(148,166,173)" stroke="rgb(148,166,173)" stroke-width="1" opacity="1" d="M 10.5 38 L 9.5 40 L 10.5 38 Z " /><path fill="rgb(176,170,158)" stroke="rgb(176,170,158)" stroke-width="1" opacity="1" d="M 13.5 5 L 12.5 7 L 13.5 5 Z " /><path fill="rgb(198,223,230)" stroke="rgb(198,223,230)" stroke-width="1" opacity="1" d="M 23.5 2 Q 30.7 -0.3 28 7.5 L 24.5 5 L 22 4.5 L 24 3.5 L 23.5 2 Z " /><path fill="rgb(198,223,230)" stroke="rgb(198,223,230)" stroke-width="1" opacity="1" d="M 22.5 9 Q 27.9 8.4 28 9.5 L 28 32.5 L 25 32.5 L 26 27.5 L 25 24.5 L 25 22.5 L 25 20 Q 28 21 27 18 L 24 16.5 L 25 13.5 L 23 12.5 Q 25.3 11.3 22.5 10 L 21 10.5 L 22.5 9 Z " /><path fill="rgb(198,223,230)" stroke="rgb(198,223,230)" stroke-width="1" opacity="1" d="M 17.5 11 L 19 13.5 L 17.5 13 L 16 12.5 L 17.5 11 Z " /><path fill="rgb(198,223,230)" stroke="rgb(198,223,230)" stroke-width="1" opacity="1" d="M 4.5 16 L 5.5 18 L 4.5 16 Z " /><path fill="rgb(198,223,230)" stroke="rgb(198,223,230)" stroke-width="1" opacity="1" d="M 3.5 22 L 4 37.5 L 3 37.5 L 3.5 22 Z " /><path fill="rgb(198,223,230)" stroke="rgb(198,223,230)" stroke-width="1" opacity="1" d="M 7.5 31 L 8 34.5 L 7 34.5 L 7.5 31 Z " /><path fill="rgb(70,71,75)" stroke="rgb(70,71,75)" stroke-width="1" opacity="1" d="M 16.5 1 L 15.5 3 L 16.5 1 Z " /><path fill="rgb(70,71,75)" stroke="rgb(70,71,75)" stroke-width="1" opacity="1" d="M 20.5 12 L 19.5 14 L 20.5 12 Z " /><path fill="rgb(70,71,75)" stroke="rgb(70,71,75)" stroke-width="1" opacity="1" d="M 8.5 21 L 10 23.5 L 8 22.5 L 8.5 21 Z " /><path fill="rgb(70,71,75)" stroke="rgb(70,71,75)" stroke-width="1" opacity="1" d="M 22.5 22 L 23.5 24 L 22.5 22 Z " /><path fill="rgb(70,71,75)" stroke="rgb(70,71,75)" stroke-width="1" opacity="1" d="M 4.5 24 L 5 26.5 L 4 26.5 L 4.5 24 Z " /><path fill="rgb(70,71,75)" stroke="rgb(70,71,75)" stroke-width="1" opacity="1" d="M 9.5 30 L 9 31.5 L 8.5 33 L 8 31.5 L 9.5 30 Z " /><path fill="rgb(70,71,75)" stroke="rgb(70,71,75)" stroke-width="1" opacity="1" d="M 5.5 33 L 7 36.5 L 4 36.5 L 5.5 33 Z " /><path fill="rgb(82,70,34)" stroke="rgb(82,70,34)" stroke-width="1" opacity="1" d="M 23.5 18 L 23 19.5 L 22.5 22 L 22 19.5 L 23.5 18 Z " /><path fill="rgb(82,70,34)" stroke="rgb(82,70,34)" stroke-width="1" opacity="1" d="M 12.5 20 L 13.5 22 L 12.5 20 Z " /><path fill="rgb(82,70,34)" stroke="rgb(82,70,34)" stroke-width="1" opacity="1" d="M 17.5 24 L 18.5 26 L 17.5 24 Z " /><path fill="rgb(82,70,34)" stroke="rgb(82,70,34)" stroke-width="1" opacity="1" d="M 23.5 26 L 22.5 28 L 23.5 26 Z " /><path fill="rgb(82,70,34)" stroke="rgb(82,70,34)" stroke-width="1" opacity="1" d="M 25.5 29 L 24.5 31 L 25.5 29 Z " /><path fill="rgb(82,70,34)" stroke="rgb(82,70,34)" stroke-width="1" opacity="1" d="M 22.5 39 L 23.5 41 L 22.5 39 Z " /><path fill="rgb(82,70,34)" stroke="rgb(82,70,34)" stroke-width="1" opacity="1" d="M 15.5 48 L 22 48.5 L 15.5 49 L 15.5 48 Z " /><path fill="rgb(149,68,43)" stroke="rgb(149,68,43)" stroke-width="1" opacity="1" d="M 22.5 5 L 25 6.5 L 24.5 9 Q 22.3 9.8 23 7.5 L 23.5 6 L 20.5 7 L 20.5 6 L 22.5 5 Z " /><path fill="rgb(149,68,43)" stroke="rgb(149,68,43)" stroke-width="1" opacity="1" d="M 10.5 6 L 12.5 7 L 17.5 6 L 19.5 9 Q 14 10.5 12.5 8 L 10.5 9 L 10.5 6 Z " /><path fill="rgb(149,68,43)" stroke="rgb(149,68,43)" stroke-width="1" opacity="1" d="M 5.5 7 L 8 7.5 Q 5.9 10.8 5.5 7 Z " /><path fill="rgb(149,68,43)" stroke="rgb(149,68,43)" stroke-width="1" opacity="1" d="M 15.5 10 L 18 10.5 L 15.5 11 L 15.5 10 Z " /><path fill="rgb(149,68,43)" stroke="rgb(149,68,43)" stroke-width="1" opacity="1" d="M 22.5 13 L 21.5 15 L 22.5 13 Z " /><path fill="rgb(149,68,43)" stroke="rgb(149,68,43)" stroke-width="1" opacity="1" d="M 17.5 22 L 18.5 24 L 17.5 22 Z " /><path fill="rgb(99,105,108)" stroke="rgb(99,105,108)" stroke-width="1" opacity="1" d="M 2.5 1 L 14 1.5 L 2.5 2 L 2.5 1 Z " /><path fill="rgb(99,105,108)" stroke="rgb(99,105,108)" stroke-width="1" opacity="1" d="M 17.5 1 L 27 1.5 L 17.5 2 L 17.5 1 Z " /><path fill="rgb(99,105,108)" stroke="rgb(99,105,108)" stroke-width="1" opacity="1" d="M 24.5 19 L 25 21 L 23 20.5 L 24.5 19 Z " /><path fill="rgb(99,105,108)" stroke="rgb(99,105,108)" stroke-width="1" opacity="1" d="M 21.5 22 L 22.5 24 L 21.5 22 Z " /><path fill="rgb(99,105,108)" stroke="rgb(99,105,108)" stroke-width="1" opacity="1" d="M 19.5 26 L 20 28.5 L 19 28.5 L 19.5 26 Z " /><path fill="rgb(99,105,108)" stroke="rgb(99,105,108)" stroke-width="1" opacity="1" d="M 9.5 40 Q 11.8 39.3 11 41.5 L 9.5 40 Z " /><path fill="rgb(183,195,198)" stroke="rgb(183,195,198)" stroke-width="1" opacity="1" d="M 5.5 14 L 4.5 16 L 5.5 14 Z " /><path fill="rgb(183,195,198)" stroke="rgb(183,195,198)" stroke-width="1" opacity="1" d="M 15.5 22 L 14.5 24 L 15.5 22 Z " /><path fill="rgb(183,195,198)" stroke="rgb(183,195,198)" stroke-width="1" opacity="1" d="M 7 23 Q 10 22 9 25 Q 6 26 7 23 Z " /><path fill="rgb(183,195,198)" stroke="rgb(183,195,198)" stroke-width="1" opacity="1" d="M 11.5 33 L 11 34.5 L 10.5 36 L 10 34.5 L 11.5 33 Z " /><path fill="rgb(252,252,251)" stroke="rgb(252,252,251)" stroke-width="1" opacity="1" d="M 0 0 L 30 0 L 30 50 L 0 50 L 0 0 Z M 2 1 L 2 49 L 28 49 L 28 1 L 2 1 Z " /><path fill="rgb(252,252,251)" stroke="rgb(252,252,251)" stroke-width="1" opacity="1" d="M 7.5 27 L 8 30.5 L 7 30.5 L 7.5 27 Z " /><path fill="rgb(252,252,251)" stroke="rgb(252,252,251)" stroke-width="1" opacity="1" d="M 7.5 37 L 8 41.5 L 7 41.5 L 7.5 37 Z " /><path fill="rgb(135,130,120)" stroke="rgb(135,130,120)" stroke-width="1" opacity="1" d="M 13.5 23 L 12.5 25 L 13.5 23 Z " /><path fill="rgb(135,130,120)" stroke="rgb(135,130,120)" stroke-width="1" opacity="1" d="M 18.5 30 L 19.5 32 L 18.5 30 Z " /><path fill="rgb(135,130,120)" stroke="rgb(135,130,120)" stroke-width="1" opacity="1" d="M 6.5 32 L 7 34.5 L 6 34.5 L 6.5 32 Z " /><path fill="rgb(135,130,120)" stroke="rgb(135,130,120)" stroke-width="1" opacity="1" d="M 6.5 41 L 5.5 43 L 6.5 41 Z " /><path fill="rgb(77,31,20)" stroke="rgb(77,31,20)" stroke-width="1" opacity="1" d="M 8.5 5 L 11 5.5 L 9.5 9 L 6.5 8 L 5 8.5 L 6 6 L 8.5 5 Z " /><path fill="rgb(77,31,20)" stroke="rgb(77,31,20)" stroke-width="1" opacity="1" d="M 14.5 5 L 17 5.5 L 14.5 6 L 14.5 5 Z " /><path fill="rgb(77,31,20)" stroke="rgb(77,31,20)" stroke-width="1" opacity="1" d="M 20.5 5 L 27 8.5 L 25.5 8 L 23.5 7 L 23 9 L 19 7.5 L 22 6.5 L 20.5 5 Z " /><path fill="rgb(77,31,20)" stroke="rgb(77,31,20)" stroke-width="1" opacity="1" d="M 12.5 8 L 19 9.5 L 14.5 11 L 12 10 L 12.5 8 Z " /><path fill="rgb(77,31,20)" stroke="rgb(77,31,20)" stroke-width="1" opacity="1" d="M 21.5 12 L 23 14.5 L 21.5 14 L 20 13.5 L 21.5 12 Z " /><path fill="rgb(77,31,20)" stroke="rgb(77,31,20)" stroke-width="1" opacity="1" d="M 6.5 14 L 9 14.5 L 6 15.5 L 5.5 17 L 5 15.5 L 6.5 14 Z " /><path fill="rgb(77,31,20)" stroke="rgb(77,31,20)" stroke-width="1" opacity="1" d="M 22.5 18 L 23.5 20 L 21 19.5 L 22.5 18 Z " /><path fill="rgb(77,31,20)" stroke="rgb(77,31,20)" stroke-width="1" opacity="1" d="M 5.5 19 L 6 33 Q 3.3 34.1 4 31.5 L 4 29.5 L 5 24.5 L 4 22.5 L 5.5 19 Z " /><path fill="rgb(77,31,20)" stroke="rgb(77,31,20)" stroke-width="1" opacity="1" d="M 19.5 20 L 20.5 22 L 19.5 20 Z " /><path fill="rgb(77,31,20)" stroke="rgb(77,31,20)" stroke-width="1" opacity="1" d="M 20.5 24 L 20.5 26 L 23.5 25 L 23.5 26 L 20.5 27 Q 17.5 25.5 20.5 24 Z " /><path fill="rgb(77,31,20)" stroke="rgb(77,31,20)" stroke-width="1" opacity="1" d="M 23.5 27 Q 26.1 26.2 25 29.5 L 23.5 29 L 20 30.5 L 23 31.5 L 20.5 32 Q 17.8 30.8 20 29.5 Q 19.2 26.9 22.5 28 L 23.5 27 Z " /><path fill="rgb(77,31,20)" stroke="rgb(77,31,20)" stroke-width="1" opacity="1" d="M 4.5 35 L 6 37.5 L 4.5 40 L 4 37.5 L 4.5 35 Z " /><path fill="rgb(77,31,20)" stroke="rgb(77,31,20)" stroke-width="1" opacity="1" d="M 24.5 38 L 23.5 40 L 24.5 38 Z " /><path fill="rgb(135,145,147)" stroke="rgb(135,145,147)" stroke-width="1" opacity="1" d="M 15.5 19 L 14.5 21 L 15.5 19 Z " /><path fill="rgb(135,145,147)" stroke="rgb(135,145,147)" stroke-width="1" opacity="1" d="M 9.5 33 L 10.5 37 L 12 36.5 L 9 38.5 L 8 36.5 L 9.5 33 Z " /><path fill="rgb(154,136,58)" stroke="rgb(154,136,58)" stroke-width="1" opacity="1" d="M 20.5 14 L 23 15 Q 21.9 17.7 24.5 17 L 24.5 18 L 21 17 L 20.5 14 Z " /><path fill="rgb(154,136,58)" stroke="rgb(154,136,58)" stroke-width="1" opacity="1" d="M 16.5 18 Q 18.8 17.3 18 19.5 L 16.5 18 Z " /><path fill="rgb(154,136,58)" stroke="rgb(154,136,58)" stroke-width="1" opacity="1" d="M 19.5 19 L 20.5 21 L 19.5 19 Z " /><path fill="rgb(154,136,58)" stroke="rgb(154,136,58)" stroke-width="1" opacity="1" d="M 17.5 21 L 18.5 23 L 17.5 21 Z " /><path fill="rgb(154,136,58)" stroke="rgb(154,136,58)" stroke-width="1" opacity="1" d="M 15 36 L 18.5 37 L 21 36 L 20.5 38 L 18.5 38 L 16.5 37 L 13 39 L 13.5 37 L 15 37.5 L 15 36 Z " /><path fill="rgb(154,136,58)" stroke="rgb(154,136,58)" stroke-width="1" opacity="1" d="M 12.5 40 L 17 40.5 L 12.5 41 L 12.5 40 Z " /><path fill="rgb(154,136,58)" stroke="rgb(154,136,58)" stroke-width="1" opacity="1" d="M 22.5 40 L 23.5 42 L 22.5 40 Z " /><path fill="rgb(154,136,58)" stroke="rgb(154,136,58)" stroke-width="1" opacity="1" d="M 5.5 48 L 13 48.5 L 5.5 49 L 5.5 48 Z " /><path fill="rgb(112,93,34)" stroke="rgb(112,93,34)" stroke-width="1" opacity="1" d="M 19.5 18 L 18 20.5 L 20 22.5 L 19.5 24 L 17 20.5 L 19.5 18 Z " /><path fill="rgb(112,93,34)" stroke="rgb(112,93,34)" stroke-width="1" opacity="1" d="M 13.5 20 L 14.5 22 L 13.5 20 Z " /><path fill="rgb(112,93,34)" stroke="rgb(112,93,34)" stroke-width="1" opacity="1" d="M 11.5 22 L 12.5 24 L 11.5 22 Z " /><path fill="rgb(227,193,79)" stroke="rgb(227,193,79)" stroke-width="1" opacity="1" d="M 8.5 15 L 9 16.5 L 6.5 18 L 8.5 15 Z " /><path fill="rgb(227,193,79)" stroke="rgb(227,193,79)" stroke-width="1" opacity="1" d="M 13.5 18 L 14 20 L 12 19.5 L 13.5 18 Z " /><path fill="rgb(227,193,79)" stroke="rgb(227,193,79)" stroke-width="1" opacity="1" d="M 21 32 Q 23.7 30.9 23 33.5 L 22.5 35 Q 24.8 34.3 24 36.5 L 23 39 Q 19.6 41.1 12 40 L 12.5 38 L 14.5 39 L 14.5 37 L 21 38 L 21 32 Z " /><path fill="rgb(227,193,79)" stroke="rgb(227,193,79)" stroke-width="1" opacity="1" d="M 3.5 38 L 5 44 Q 9.6 45.3 11 42.5 L 11.5 41 L 23 41 Q 24.3 44 20.5 43 L 20.5 44 Q 24.3 44.8 25 42.5 L 24 40.5 L 25 38 Q 29.1 36.7 28 40 L 25 40.5 L 28 41 L 28 47.5 L 27.5 48 L 5.5 48 L 2 49 L 2 39.5 L 3.5 38 Z M 27 44 L 25 46 L 27 46 L 27 44 Z " /></svg>