<svg width="30" height="50" version="1.1" xmlns="http://www.w3.org/2000/svg" desc="Created with imagetracer.js version 1.2.6" ><path fill="rgb(159,232,245)" stroke="rgb(159,232,245)" stroke-width="1" opacity="1" d="M 2 2 L 12.5 2 L 17 4.5 L 14.5 5 L 12 4.5 L 12.5 3 L 8 5.5 L 13 6 L 14 9.5 L 12 10.5 L 13 8.5 Q 11.8 5.8 10.5 8 L 8 8.5 L 9 12 L 5 13 L 6 24 L 4 24 Q 5.1 21.3 2.5 22 L 3.5 19 L 2 18.5 L 2 16.5 L 2 2 Z " /><path fill="rgb(159,232,245)" stroke="rgb(159,232,245)" stroke-width="1" opacity="1" d="M 27.5 2 L 28 23.5 L 27.5 26 L 25 24.5 L 27 22.5 L 26.5 18 Q 24.3 18.8 25 16.5 L 25 12.5 L 24.5 11 L 22.5 12 L 22.5 9 L 25 10 L 27.5 2 Z " /><path fill="rgb(159,232,245)" stroke="rgb(159,232,245)" stroke-width="1" opacity="1" d="M 17 10 Q 20 9 19 12 Q 16 13 17 10 Z " /><path fill="rgb(154,217,228)" stroke="rgb(154,217,228)" stroke-width="1" opacity="1" d="M 24.5 12 L 25.5 14 L 24.5 12 Z " /><path fill="rgb(154,217,228)" stroke="rgb(154,217,228)" stroke-width="1" opacity="1" d="M 5.5 13 L 7 19.5 L 5 20.5 L 5.5 13 Z " /><path fill="rgb(154,217,228)" stroke="rgb(154,217,228)" stroke-width="1" opacity="1" d="M 25.5 15 L 24.5 17 L 25.5 15 Z " /><path fill="rgb(154,217,228)" stroke="rgb(154,217,228)" stroke-width="1" opacity="1" d="M 25.5 18 L 26 21.5 L 24.5 25 L 24 22.5 L 25.5 18 Z " /><path fill="rgb(154,217,228)" stroke="rgb(154,217,228)" stroke-width="1" opacity="1" d="M 2 19 L 4 19.5 L 2 20.5 L 2 19 Z " /><path fill="rgb(154,217,228)" stroke="rgb(154,217,228)" stroke-width="1" opacity="1" d="M 2 22 L 6 24 L 6.5 22 L 7 24.5 L 4 30.5 L 6 30.5 L 6 34 Q 8.7 32.9 8 35.5 L 6.5 35 Q 2.1 33.5 3 36.5 L 2 36.5 L 2 22 Z " /><path fill="rgb(154,217,228)" stroke="rgb(154,217,228)" stroke-width="1" opacity="1" d="M 26.5 25 Q 28.8 25.8 28 29.5 L 25.5 34 L 25 32.5 Q 27.6 31.1 27 26.5 L 26.5 25 Z " /><path fill="rgb(251,251,250)" stroke="rgb(251,251,250)" stroke-width="1" opacity="1" d="M 0 0 L 30 0 L 30 50 L 0 50 L 0 0 Z M 2 2 L 2 48 L 6 49 L 28 49 L 28 2 L 2 2 Z " /><path fill="rgb(251,251,250)" stroke="rgb(251,251,250)" stroke-width="1" opacity="1" d="M 20 35 Q 22.7 33.9 22 36.5 L 23 38.5 L 21.5 38 Q 18.5 38.7 20 35 Z " /><path fill="rgb(157,234,248)" stroke="rgb(157,234,248)" stroke-width="1" opacity="1" d="M 17 2 L 27 2 L 27 5.5 Q 24.3 6.6 25 10 L 22.5 11 L 23 9.5 L 22.5 8 L 17 8 L 17 6.5 L 17 4.5 L 17 2 Z " /><path fill="rgb(157,234,248)" stroke="rgb(157,234,248)" stroke-width="1" opacity="1" d="M 11.5 3 L 14 4.5 L 14 6.5 L 13.5 8 L 13 6 L 8 5.5 L 11.5 3 Z " /><path fill="rgb(157,234,248)" stroke="rgb(157,234,248)" stroke-width="1" opacity="1" d="M 16 13 Q 19 12 18 15 Q 15 16 16 13 Z " /><path fill="rgb(157,234,248)" stroke="rgb(157,234,248)" stroke-width="1" opacity="1" d="M 25 22 L 27 22.5 L 25 23.5 L 25 22 Z " /><path fill="rgb(170,184,180)" stroke="rgb(170,184,180)" stroke-width="1" opacity="1" d="M 17.5 5 L 16.5 7 L 17.5 5 Z " /><path fill="rgb(170,184,180)" stroke="rgb(170,184,180)" stroke-width="1" opacity="1" d="M 14.5 6 L 15 9.5 L 11.5 12 L 11.5 11 L 14 9.5 L 14.5 6 Z " /><path fill="rgb(170,184,180)" stroke="rgb(170,184,180)" stroke-width="1" opacity="1" d="M 8.5 8 L 10 11.5 L 9 11.5 L 8.5 8 Z " /><path fill="rgb(170,184,180)" stroke="rgb(170,184,180)" stroke-width="1" opacity="1" d="M 22.5 8 L 22 9.5 L 21.5 12 L 21 9.5 L 22.5 8 Z " /><path fill="rgb(170,184,180)" stroke="rgb(170,184,180)" stroke-width="1" opacity="1" d="M 10.5 16 L 11 17.5 L 7 20.5 Q 6.2 23.1 9.5 22 L 9.5 23 L 6 21.5 L 7 18 Q 10.8 19.3 10.5 16 Z " /><path fill="rgb(170,184,180)" stroke="rgb(170,184,180)" stroke-width="1" opacity="1" d="M 7.5 24 Q 9.8 23.3 9 25.5 L 7.5 24 Z " /><path fill="rgb(170,184,180)" stroke="rgb(170,184,180)" stroke-width="1" opacity="1" d="M 7.5 29 Q 9.8 28.3 9 30.5 L 8.5 33 L 6 31.5 L 8 30.5 L 7.5 29 Z " /><path fill="rgb(170,184,180)" stroke="rgb(170,184,180)" stroke-width="1" opacity="1" d="M 20.5 34 L 23.5 35 L 25 34.5 L 22.5 36 L 20.5 35 L 19 35.5 L 20.5 34 Z " /><path fill="rgb(170,184,180)" stroke="rgb(170,184,180)" stroke-width="1" opacity="1" d="M 21.5 41 L 20.5 43 L 21.5 41 Z " /><path fill="rgb(170,184,180)" stroke="rgb(170,184,180)" stroke-width="1" opacity="1" d="M 6.5 48 L 18 48.5 L 6.5 49 L 6.5 48 Z " /><path fill="rgb(170,184,180)" stroke="rgb(170,184,180)" stroke-width="1" opacity="1" d="M 19.5 48 L 23 48.5 L 19.5 49 L 19.5 48 Z " /><path fill="rgb(192,47,31)" stroke="rgb(192,47,31)" stroke-width="1" opacity="1" d="M 17.5 18 L 20 19.5 L 18 20.5 L 19 25 L 14 25.5 L 18 26 L 16 31 L 13 31.5 L 15 32.5 L 14.5 34 L 17 34.5 L 12 36 L 13 32 L 11 31.5 L 15 29.5 L 11.5 28 L 10 28.5 L 11.5 26 Q 9.3 26.8 10 24.5 L 9.5 23 L 13.5 24 L 15.5 21 L 11.5 22 L 13.5 19 L 15.5 20 L 17.5 18 Z " /><path fill="rgb(192,47,31)" stroke="rgb(192,47,31)" stroke-width="1" opacity="1" d="M 12.5 37 L 11.5 39 L 12.5 37 Z " /><path fill="rgb(192,47,31)" stroke="rgb(192,47,31)" stroke-width="1" opacity="1" d="M 14.5 37 L 17 37.5 L 14.5 38 L 14.5 37 Z " /><path fill="rgb(230,191,88)" stroke="rgb(230,191,88)" stroke-width="1" opacity="1" d="M 10.5 8 L 12 10.5 L 10 9.5 L 10.5 8 Z " /><path fill="rgb(230,191,88)" stroke="rgb(230,191,88)" stroke-width="1" opacity="1" d="M 14.5 10 Q 17.1 9.2 16 12.5 L 14.5 12 L 13 11.5 L 14.5 10 Z " /><path fill="rgb(230,191,88)" stroke="rgb(230,191,88)" stroke-width="1" opacity="1" d="M 14.5 14 L 15.5 16 L 14.5 14 Z " /><path fill="rgb(230,191,88)" stroke="rgb(230,191,88)" stroke-width="1" opacity="1" d="M 21.5 18 Q 25.7 16.9 24 21 L 20 19.5 L 21.5 18 Z " /><path fill="rgb(230,191,88)" stroke="rgb(230,191,88)" stroke-width="1" opacity="1" d="M 23.5 22 L 25 26.5 L 24 29.5 Q 26.1 35.4 21.5 34 L 18 27.5 L 20 27 Q 17.9 21.8 22.5 23 L 23.5 22 Z " /><path fill="rgb(230,191,88)" stroke="rgb(230,191,88)" stroke-width="1" opacity="1" d="M 5.5 40 Q 7.5 42.8 12 42 Q 10.7 46.1 14 45 L 14.5 43 L 16.5 44 L 19 43 Q 17.9 40.3 20.5 41 L 20.5 43 L 25.5 41 L 27 41.5 L 27.5 40 L 28 47.5 L 27 47.5 Q 27.8 43.8 25.5 43 L 22 44.5 L 24 45.5 L 22.5 46 L 18.5 45 L 13 46.5 L 17 47.5 L 2 48 L 2.5 43 L 5.5 44 L 5 42.5 L 5.5 40 Z " /><path fill="rgb(230,191,88)" stroke="rgb(230,191,88)" stroke-width="1" opacity="1" d="M 18.5 47 L 21 47.5 L 18.5 48 L 18.5 47 Z " /><path fill="rgb(73,67,61)" stroke="rgb(73,67,61)" stroke-width="1" opacity="1" d="M 6.5 32 L 7.5 34 L 6.5 32 Z " /><path fill="rgb(73,67,61)" stroke="rgb(73,67,61)" stroke-width="1" opacity="1" d="M 6.5 35 L 8.5 38 Q 6.7 34.9 5 36.5 L 6.5 35 Z " /><path fill="rgb(128,133,131)" stroke="rgb(128,133,131)" stroke-width="1" opacity="1" d="M 16.5 7 L 17 9.5 L 16 9.5 L 16.5 7 Z " /><path fill="rgb(128,133,131)" stroke="rgb(128,133,131)" stroke-width="1" opacity="1" d="M 17.5 12 L 19 14.5 L 18 14.5 L 17.5 12 Z " /><path fill="rgb(128,133,131)" stroke="rgb(128,133,131)" stroke-width="1" opacity="1" d="M 6.5 13 L 7 16.5 L 6 16.5 L 6.5 13 Z " /><path fill="rgb(128,133,131)" stroke="rgb(128,133,131)" stroke-width="1" opacity="1" d="M 10.5 14 L 11 15.5 L 9 16.5 L 10.5 14 Z " /><path fill="rgb(128,133,131)" stroke="rgb(128,133,131)" stroke-width="1" opacity="1" d="M 9.5 19 L 10 21 L 7 20.5 L 9.5 19 Z " /><path fill="rgb(128,133,131)" stroke="rgb(128,133,131)" stroke-width="1" opacity="1" d="M 6.5 25 Q 8.8 24.3 8 26.5 L 6.5 25 Z " /><path fill="rgb(128,133,131)" stroke="rgb(128,133,131)" stroke-width="1" opacity="1" d="M 7.5 32 L 10 33.5 L 8 34.5 L 7.5 32 Z " /><path fill="rgb(128,133,131)" stroke="rgb(128,133,131)" stroke-width="1" opacity="1" d="M 24.5 33 L 24 36.5 L 23.5 39 L 23 36.5 L 24.5 33 Z " /><path fill="rgb(128,133,131)" stroke="rgb(128,133,131)" stroke-width="1" opacity="1" d="M 26.5 33 Q 28.8 32.3 28 34.5 L 26.5 33 Z " /><path fill="rgb(128,133,131)" stroke="rgb(128,133,131)" stroke-width="1" opacity="1" d="M 19.5 36 L 21 40.5 L 20 40.5 L 19.5 36 Z " /><path fill="rgb(128,133,131)" stroke="rgb(128,133,131)" stroke-width="1" opacity="1" d="M 23.5 48 L 28 48.5 L 23.5 49 L 23.5 48 Z " /><path fill="rgb(109,13,11)" stroke="rgb(109,13,11)" stroke-width="1" opacity="1" d="M 14.5 17 Q 16.8 16.3 16 18.5 L 14.5 17 Z " /><path fill="rgb(109,13,11)" stroke="rgb(109,13,11)" stroke-width="1" opacity="1" d="M 19.5 17 L 20 19 L 18 18.5 L 19.5 17 Z " /><path fill="rgb(109,13,11)" stroke="rgb(109,13,11)" stroke-width="1" opacity="1" d="M 11.5 20 L 11.5 23 Q 8.5 21.5 11.5 20 Z " /><path fill="rgb(109,13,11)" stroke="rgb(109,13,11)" stroke-width="1" opacity="1" d="M 9.5 25 L 12 28.5 L 10 28.5 L 11 30.5 L 9 29.5 L 10 26.5 L 9.5 25 Z " /><path fill="rgb(109,13,11)" stroke="rgb(109,13,11)" stroke-width="1" opacity="1" d="M 13.5 29 L 12.5 31 L 13.5 29 Z " /><path fill="rgb(109,13,11)" stroke="rgb(109,13,11)" stroke-width="1" opacity="1" d="M 11.5 35 L 12.5 37 Q 10.3 36.3 11 38.5 L 9.5 41 L 8 38.5 L 10 38.5 L 11.5 35 Z " /><path fill="rgb(109,13,11)" stroke="rgb(109,13,11)" stroke-width="1" opacity="1" d="M 13.5 38 L 12.5 40 L 13.5 38 Z " /><path fill="rgb(170,121,64)" stroke="rgb(170,121,64)" stroke-width="1" opacity="1" d="M 14.5 5 L 17 5.5 Q 14.9 8.8 14.5 5 Z " /><path fill="rgb(170,121,64)" stroke="rgb(170,121,64)" stroke-width="1" opacity="1" d="M 12.5 12 L 15 12.5 L 12.5 13 L 12.5 12 Z " /><path fill="rgb(170,121,64)" stroke="rgb(170,121,64)" stroke-width="1" opacity="1" d="M 19 12 L 21 12.5 L 20 14.5 L 23 15.5 L 22.5 18 L 21 17.5 L 20.5 19 L 20 17.5 Q 22.5 16 19 14.5 L 19 12 Z " /><path fill="rgb(170,121,64)" stroke="rgb(170,121,64)" stroke-width="1" opacity="1" d="M 8 13 Q 11 11.8 10 15.5 L 8.5 18 L 8 13 Z " /><path fill="rgb(170,121,64)" stroke="rgb(170,121,64)" stroke-width="1" opacity="1" d="M 22.5 19 L 22.5 21 L 24 21.5 L 21.5 23 L 20 20.5 L 22.5 19 Z " /><path fill="rgb(170,121,64)" stroke="rgb(170,121,64)" stroke-width="1" opacity="1" d="M 19.5 23 L 20 26.5 L 19 26.5 L 19.5 23 Z " /><path fill="rgb(170,121,64)" stroke="rgb(170,121,64)" stroke-width="1" opacity="1" d="M 18.5 28 L 20 32.5 L 18 31.5 L 18.5 28 Z " /><path fill="rgb(170,121,64)" stroke="rgb(170,121,64)" stroke-width="1" opacity="1" d="M 4.5 36 L 6 38.5 L 2 39.5 L 4.5 36 Z " /><path fill="rgb(170,121,64)" stroke="rgb(170,121,64)" stroke-width="1" opacity="1" d="M 25.5 39 L 28 39.5 L 26.5 42 L 25.5 39 Z " /><path fill="rgb(170,121,64)" stroke="rgb(170,121,64)" stroke-width="1" opacity="1" d="M 4.5 41 L 5 42.5 L 3 43.5 L 4.5 41 Z " /><path fill="rgb(170,121,64)" stroke="rgb(170,121,64)" stroke-width="1" opacity="1" d="M 23.5 41 L 24.5 45 Q 22.3 45.8 23 43.5 Q 20.8 42.3 23.5 41 Z " /><path fill="rgb(170,121,64)" stroke="rgb(170,121,64)" stroke-width="1" opacity="1" d="M 12.5 42 L 13 44.5 L 12 44.5 L 12.5 42 Z " /><path fill="rgb(170,121,64)" stroke="rgb(170,121,64)" stroke-width="1" opacity="1" d="M 15 42 Q 18 41 17 44 Q 14 45 15 42 Z " /><path fill="rgb(170,121,64)" stroke="rgb(170,121,64)" stroke-width="1" opacity="1" d="M 21.5 45 L 24 46 L 23.5 48 L 21.5 45 Z " /><path fill="rgb(170,121,64)" stroke="rgb(170,121,64)" stroke-width="1" opacity="1" d="M 26.5 45 L 27 47.5 L 25 46.5 L 26.5 45 Z " /><path fill="rgb(66,47,36)" stroke="rgb(66,47,36)" stroke-width="1" opacity="1" d="M 22 12 L 24 12.5 L 22 13.5 L 22 12 Z " /><path fill="rgb(66,47,36)" stroke="rgb(66,47,36)" stroke-width="1" opacity="1" d="M 12.5 15 L 13.5 17 L 12.5 15 Z " /><path fill="rgb(66,47,36)" stroke="rgb(66,47,36)" stroke-width="1" opacity="1" d="M 25.5 29 L 24.5 31 L 25.5 29 Z " /><path fill="rgb(66,47,36)" stroke="rgb(66,47,36)" stroke-width="1" opacity="1" d="M 25.5 36 L 26.5 38 L 24.5 39 L 25 37.5 L 25.5 36 Z " /><path fill="rgb(101,56,30)" stroke="rgb(101,56,30)" stroke-width="1" opacity="1" d="M 21.5 13 L 20.5 15 L 21.5 13 Z " /><path fill="rgb(101,56,30)" stroke="rgb(101,56,30)" stroke-width="1" opacity="1" d="M 12.5 14 L 13.5 16 L 12.5 14 Z " /><path fill="rgb(101,56,30)" stroke="rgb(101,56,30)" stroke-width="1" opacity="1" d="M 11.5 16 L 14 17.5 L 10.5 20 L 11.5 16 Z " /><path fill="rgb(101,56,30)" stroke="rgb(101,56,30)" stroke-width="1" opacity="1" d="M 5.5 37 L 6.5 39 L 5.5 37 Z " /><path fill="rgb(140,28,23)" stroke="rgb(140,28,23)" stroke-width="1" opacity="1" d="M 17.5 16 L 18 17.5 L 18 19.5 L 13.5 24 L 12 24.5 L 15 25.5 L 13.5 28 L 12.5 26 L 11 26.5 L 12 23.5 L 12.5 21 L 14.5 22 L 15.5 20 L 13.5 19 L 11.5 20 L 11.5 19 L 14.5 18 L 16 18.5 L 17.5 16 Z " /><path fill="rgb(140,28,23)" stroke="rgb(140,28,23)" stroke-width="1" opacity="1" d="M 16.5 25 L 19 26.5 L 17.5 26 L 16.5 25 Z " /><path fill="rgb(140,28,23)" stroke="rgb(140,28,23)" stroke-width="1" opacity="1" d="M 17.5 28 L 18 29.5 L 16.5 32 L 18 32.5 L 18 41.5 L 17 41.5 L 16.5 36 L 14 37.5 Q 16.8 38.6 16 42 L 12 40.5 L 13 39.5 L 11.5 37 L 13 37.5 L 14.5 35 L 17 34.5 L 14 33.5 L 14.5 32 L 13 31.5 L 16 31 L 17.5 28 Z " /><path fill="rgb(140,28,23)" stroke="rgb(140,28,23)" stroke-width="1" opacity="1" d="M 10.5 29 L 13 29.5 L 10 31.5 L 10.5 29 Z " /><path fill="rgb(140,28,23)" stroke="rgb(140,28,23)" stroke-width="1" opacity="1" d="M 11 33 L 13 33.5 L 11 34.5 L 11 33 Z " /><path fill="rgb(140,28,23)" stroke="rgb(140,28,23)" stroke-width="1" opacity="1" d="M 9.5 38 L 10.5 40 L 9.5 38 Z " /><path fill="rgb(140,28,23)" stroke="rgb(140,28,23)" stroke-width="1" opacity="1" d="M 8.5 40 L 9.5 42 L 8.5 40 Z " /><path fill="rgb(140,28,23)" stroke="rgb(140,28,23)" stroke-width="1" opacity="1" d="M 26.5 44 L 25.5 46 L 26.5 44 Z " /><path fill="rgb(60,21,13)" stroke="rgb(60,21,13)" stroke-width="1" opacity="1" d="M 14.5 16 L 17 16.5 L 14.5 17 L 14.5 16 Z " /><path fill="rgb(60,21,13)" stroke="rgb(60,21,13)" stroke-width="1" opacity="1" d="M 9.5 26 L 10 27.5 L 8 28.5 L 9.5 26 Z " /><path fill="rgb(60,21,13)" stroke="rgb(60,21,13)" stroke-width="1" opacity="1" d="M 2.5 37 L 5 43.5 L 3.5 43 L 2 42.5 L 3 39.5 L 2.5 37 Z " /><path fill="rgb(60,21,13)" stroke="rgb(60,21,13)" stroke-width="1" opacity="1" d="M 10.5 41 Q 14.3 40.3 15 42.5 L 13.5 42 Q 9.5 42.8 10.5 41 Z " /><path fill="rgb(103,96,78)" stroke="rgb(103,96,78)" stroke-width="1" opacity="1" d="M 20.5 10 L 19.5 12 L 20.5 10 Z " /><path fill="rgb(103,96,78)" stroke="rgb(103,96,78)" stroke-width="1" opacity="1" d="M 11.5 15 L 12.5 17 L 11.5 15 Z " /><path fill="rgb(103,96,78)" stroke="rgb(103,96,78)" stroke-width="1" opacity="1" d="M 25.5 30 L 26 31.5 L 24 32.5 L 25.5 30 Z " /><path fill="rgb(103,96,78)" stroke="rgb(103,96,78)" stroke-width="1" opacity="1" d="M 25.5 35 L 26.5 37 L 25.5 35 Z " /><path fill="rgb(103,96,78)" stroke="rgb(103,96,78)" stroke-width="1" opacity="1" d="M 18.5 45 L 19.5 47 Q 16.7 47.7 18.5 45 Z " /></svg>