<svg width="30" height="50" version="1.1" xmlns="http://www.w3.org/2000/svg" desc="Created with imagetracer.js version 1.2.6" ><path fill="rgb(190,250,253)" stroke="rgb(190,250,253)" stroke-width="1" opacity="1" d="M 5.5 4 L 7 7 L 9.5 6 L 13.5 6 L 16 6.5 L 16 28.5 L 14 29.5 L 15 21.5 Q 13.3 17.3 11.5 20 L 9.5 21 L 6 20 L 4 9.5 L 6 9.5 L 4 5.5 L 5.5 4 Z " /><path fill="rgb(190,250,253)" stroke="rgb(190,250,253)" stroke-width="1" opacity="1" d="M 26.5 10 Q 29.3 12.7 28 19.5 L 25.5 23 L 27 23.5 L 26.5 26 L 23 24.5 L 24 21 L 21 20.5 L 21 11.5 L 22 11.5 Q 20.9 15.7 25 14 L 26.5 10 Z " /><path fill="rgb(190,250,253)" stroke="rgb(190,250,253)" stroke-width="1" opacity="1" d="M 11.5 23 L 10.5 25 L 11.5 23 Z " /><path fill="rgb(190,250,253)" stroke="rgb(190,250,253)" stroke-width="1" opacity="1" d="M 5.5 27 L 11 29.5 L 8.5 30 L 5.5 27 Z " /><path fill="rgb(251,252,251)" stroke="rgb(251,252,251)" stroke-width="1" opacity="1" d="M 0 0 L 30 0 L 30 50 L 0 50 L 0 0 Z M 2 1 L 2 49 L 28 49 L 28 1 L 2 1 Z " /><path fill="rgb(188,177,83)" stroke="rgb(188,177,83)" stroke-width="1" opacity="1" d="M 21.5 3 L 21 4.5 L 23.5 8 L 21 7 L 20 4.5 L 21.5 3 Z " /><path fill="rgb(188,177,83)" stroke="rgb(188,177,83)" stroke-width="1" opacity="1" d="M 21.5 9 L 23.5 12 L 21.5 9 Z " /><path fill="rgb(188,177,83)" stroke="rgb(188,177,83)" stroke-width="1" opacity="1" d="M 17.5 10 Q 19.8 9.3 19 11.5 L 17.5 10 Z " /><path fill="rgb(188,177,83)" stroke="rgb(188,177,83)" stroke-width="1" opacity="1" d="M 20.5 23 L 21 25.5 L 20 25.5 L 20.5 23 Z " /><path fill="rgb(188,177,83)" stroke="rgb(188,177,83)" stroke-width="1" opacity="1" d="M 12.5 36 L 14 40 L 12 39.5 L 12 37.5 L 12.5 36 Z " /><path fill="rgb(188,177,83)" stroke="rgb(188,177,83)" stroke-width="1" opacity="1" d="M 21.5 43 L 20.5 45 L 19 44.5 L 21.5 43 Z " /><path fill="rgb(58,51,31)" stroke="rgb(58,51,31)" stroke-width="1" opacity="1" d="M 2.5 1 L 28 1.5 L 26 2.5 L 27 5 L 23.5 6 L 22.5 4 L 25 2.5 L 2.5 2 L 2.5 1 Z " /><path fill="rgb(58,51,31)" stroke="rgb(58,51,31)" stroke-width="1" opacity="1" d="M 7 3 L 9.5 4 L 11.5 3 L 11.5 4 L 7 5 L 7 3 Z " /><path fill="rgb(58,51,31)" stroke="rgb(58,51,31)" stroke-width="1" opacity="1" d="M 17 3 Q 21.1 1.7 20 5 L 16.5 6 L 17 4.5 L 17 3 Z " /><path fill="rgb(58,51,31)" stroke="rgb(58,51,31)" stroke-width="1" opacity="1" d="M 20.5 6 L 24 8.5 L 22.5 9 L 19 7.5 L 20.5 6 Z " /><path fill="rgb(58,51,31)" stroke="rgb(58,51,31)" stroke-width="1" opacity="1" d="M 25.5 7 L 27 9.5 L 25 8.5 L 25.5 7 Z " /><path fill="rgb(58,51,31)" stroke="rgb(58,51,31)" stroke-width="1" opacity="1" d="M 20 21 Q 23 20 22 23 Q 19 24 20 21 Z " /><path fill="rgb(58,51,31)" stroke="rgb(58,51,31)" stroke-width="1" opacity="1" d="M 11.5 26 L 13 29 L 11 28.5 L 11.5 26 Z " /><path fill="rgb(58,51,31)" stroke="rgb(58,51,31)" stroke-width="1" opacity="1" d="M 24.5 28 Q 27.1 27.2 26 30.5 L 22 31.5 L 24.5 28 Z " /><path fill="rgb(58,51,31)" stroke="rgb(58,51,31)" stroke-width="1" opacity="1" d="M 16.5 32 L 19 33.5 L 18 36 Q 23.2 38.1 22 33.5 L 23 33.5 L 24 36.5 L 21.5 37 Q 17.8 37.8 17 35.5 L 16.5 32 Z " /><path fill="rgb(58,51,31)" stroke="rgb(58,51,31)" stroke-width="1" opacity="1" d="M 9.5 35 L 12 35.5 L 8.5 37 L 9.5 35 Z " /><path fill="rgb(58,51,31)" stroke="rgb(58,51,31)" stroke-width="1" opacity="1" d="M 15.5 38 Q 19.3 37 18 40 L 15.5 38 Z " /><path fill="rgb(58,51,31)" stroke="rgb(58,51,31)" stroke-width="1" opacity="1" d="M 21.5 38 L 25 38.5 L 23 39.5 L 24.5 42 L 22 40.5 L 21.5 38 Z " /><path fill="rgb(58,51,31)" stroke="rgb(58,51,31)" stroke-width="1" opacity="1" d="M 4.5 42 L 6 44.5 L 2.5 46 L 4 43.5 L 4.5 42 Z " /><path fill="rgb(58,51,31)" stroke="rgb(58,51,31)" stroke-width="1" opacity="1" d="M 25.5 45 L 26 47.5 L 24 48.5 L 25.5 45 Z " /><path fill="rgb(58,51,31)" stroke="rgb(58,51,31)" stroke-width="1" opacity="1" d="M 17.5 47 L 20 48.5 L 3.5 49 L 3.5 48 L 16.5 48 L 17.5 47 Z " /><path fill="rgb(164,156,81)" stroke="rgb(164,156,81)" stroke-width="1" opacity="1" d="M 21.5 2 L 20.5 4 L 21.5 2 Z " /><path fill="rgb(164,156,81)" stroke="rgb(164,156,81)" stroke-width="1" opacity="1" d="M 17.5 13 Q 20.3 14.3 18 15.5 L 17.5 18 L 17.5 13 Z " /><path fill="rgb(164,156,81)" stroke="rgb(164,156,81)" stroke-width="1" opacity="1" d="M 17.5 26 L 18 29 L 20 29.5 L 18.5 30 Q 16 29 17.5 26 Z " /><path fill="rgb(164,156,81)" stroke="rgb(164,156,81)" stroke-width="1" opacity="1" d="M 7.5 36 L 8.5 38 L 7.5 36 Z " /><path fill="rgb(164,156,81)" stroke="rgb(164,156,81)" stroke-width="1" opacity="1" d="M 10.5 36 L 11.5 38 L 10.5 36 Z " /><path fill="rgb(164,156,81)" stroke="rgb(164,156,81)" stroke-width="1" opacity="1" d="M 7.5 42 L 8.5 44 Q 5.7 44.7 7.5 42 Z " /><path fill="rgb(164,156,81)" stroke="rgb(164,156,81)" stroke-width="1" opacity="1" d="M 8.5 46 L 7.5 48 L 8.5 46 Z " /><path fill="rgb(164,156,81)" stroke="rgb(164,156,81)" stroke-width="1" opacity="1" d="M 17.5 46 L 18.5 48 L 17.5 46 Z " /><path fill="rgb(121,151,151)" stroke="rgb(121,151,151)" stroke-width="1" opacity="1" d="M 13.5 2 L 16 3.5 L 14.5 4 L 12 3.5 L 13.5 2 Z " /><path fill="rgb(121,151,151)" stroke="rgb(121,151,151)" stroke-width="1" opacity="1" d="M 15.5 5 L 17 8.5 L 16 8.5 L 15.5 5 Z " /><path fill="rgb(121,151,151)" stroke="rgb(121,151,151)" stroke-width="1" opacity="1" d="M 16.5 12 L 17 19.5 L 16 19.5 L 16.5 12 Z " /><path fill="rgb(121,151,151)" stroke="rgb(121,151,151)" stroke-width="1" opacity="1" d="M 10 22 L 12 22.5 L 10 23.5 L 10 22 Z " /><path fill="rgb(121,151,151)" stroke="rgb(121,151,151)" stroke-width="1" opacity="1" d="M 10.5 26 L 11.5 28 L 10.5 26 Z " /><path fill="rgb(121,151,151)" stroke="rgb(121,151,151)" stroke-width="1" opacity="1" d="M 16.5 26 L 17 28.5 L 16 28.5 L 16.5 26 Z " /><path fill="rgb(121,151,151)" stroke="rgb(121,151,151)" stroke-width="1" opacity="1" d="M 14 35 L 16 35.5 L 15.5 38 L 14 35 Z " /><path fill="rgb(229,231,107)" stroke="rgb(229,231,107)" stroke-width="1" opacity="1" d="M 18.5 15 L 20 17.5 L 19 19.5 L 19 23.5 L 18.5 25 L 17 22.5 L 18.5 15 Z " /><path fill="rgb(229,231,107)" stroke="rgb(229,231,107)" stroke-width="1" opacity="1" d="M 5.5 22 L 8 25.5 L 5 23.5 L 5.5 22 Z " /><path fill="rgb(229,231,107)" stroke="rgb(229,231,107)" stroke-width="1" opacity="1" d="M 18.5 27 L 19.5 29 Q 16.7 29.7 18.5 27 Z " /><path fill="rgb(229,231,107)" stroke="rgb(229,231,107)" stroke-width="1" opacity="1" d="M 23.5 27 L 25 27.5 L 23 28 L 22.5 30 L 22 28.5 L 23.5 27 Z " /><path fill="rgb(229,231,107)" stroke="rgb(229,231,107)" stroke-width="1" opacity="1" d="M 25.5 34 Q 30.1 32.8 28 38 Q 25.3 39.1 26 36.5 L 26.5 35 L 25.5 34 Z " /><path fill="rgb(229,231,107)" stroke="rgb(229,231,107)" stroke-width="1" opacity="1" d="M 11.5 38 Q 14.8 40 14 45 L 10 44 L 12 40.5 L 11.5 38 Z " /><path fill="rgb(229,231,107)" stroke="rgb(229,231,107)" stroke-width="1" opacity="1" d="M 26.5 39 Q 29.5 40.5 26.5 42 Q 23.5 40.5 26.5 39 Z " /><path fill="rgb(229,231,107)" stroke="rgb(229,231,107)" stroke-width="1" opacity="1" d="M 17.5 41 L 21 42.5 Q 21.8 44.8 19.5 44 L 19.5 42 Q 16.5 42.5 17.5 41 Z " /><path fill="rgb(229,231,107)" stroke="rgb(229,231,107)" stroke-width="1" opacity="1" d="M 22 43 Q 26.5 41.5 25 46 Q 22.3 44.9 23 47.5 L 21.5 47 L 18 46.5 L 22 45 L 22 43 Z " /><path fill="rgb(181,249,253)" stroke="rgb(181,249,253)" stroke-width="1" opacity="1" d="M 2 2 L 6 2 L 6 3.5 L 4 6.5 L 6 9.5 Q 3.5 11 5 16.5 L 6 19.5 L 3 21 L 2.5 24 L 2 2 Z " /><path fill="rgb(181,249,253)" stroke="rgb(181,249,253)" stroke-width="1" opacity="1" d="M 13 4 Q 16 3 15 6 Q 12 7 13 4 Z " /><path fill="rgb(181,249,253)" stroke="rgb(181,249,253)" stroke-width="1" opacity="1" d="M 11.5 5 L 10.5 7 L 11.5 5 Z " /><path fill="rgb(181,249,253)" stroke="rgb(181,249,253)" stroke-width="1" opacity="1" d="M 27.5 20 L 28 33 L 26 32.5 L 27 28.5 L 25 25.5 L 26.5 23 L 25 22.5 L 27.5 20 Z " /><path fill="rgb(181,249,253)" stroke="rgb(181,249,253)" stroke-width="1" opacity="1" d="M 14.5 22 L 15 27.5 L 14 27.5 L 14.5 22 Z " /><path fill="rgb(181,249,253)" stroke="rgb(181,249,253)" stroke-width="1" opacity="1" d="M 2.5 25 L 5 26 Q 3.9 28.7 6.5 28 Q 8.8 31.7 15 31.5 L 10.5 35 L 7.5 34 L 5.5 37 L 2 36 L 2.5 25 Z " /><path fill="rgb(181,249,253)" stroke="rgb(181,249,253)" stroke-width="1" opacity="1" d="M 8 26 L 11 27.5 Q 9.5 30.5 8 27.5 L 8 26 Z " /><path fill="rgb(172,225,229)" stroke="rgb(172,225,229)" stroke-width="1" opacity="1" d="M 6.5 2 L 7 4.5 L 6 4.5 L 6.5 2 Z " /><path fill="rgb(172,225,229)" stroke="rgb(172,225,229)" stroke-width="1" opacity="1" d="M 13.5 3 L 12.5 5 L 11 4.5 L 13.5 3 Z " /><path fill="rgb(172,225,229)" stroke="rgb(172,225,229)" stroke-width="1" opacity="1" d="M 3.5 22 L 4 23.5 L 2 24.5 L 3.5 22 Z " /><path fill="rgb(172,225,229)" stroke="rgb(172,225,229)" stroke-width="1" opacity="1" d="M 26.5 28 L 27 31.5 L 25 32.5 L 26.5 28 Z " /><path fill="rgb(172,225,229)" stroke="rgb(172,225,229)" stroke-width="1" opacity="1" d="M 15.5 36 L 19.5 38 L 25.5 36 L 26 38 L 19.5 39 Q 15.5 38.5 15.5 36 Z " /><path fill="rgb(159,159,132)" stroke="rgb(159,159,132)" stroke-width="1" opacity="1" d="M 11.5 29 L 12.5 31 L 11.5 29 Z " /><path fill="rgb(117,88,45)" stroke="rgb(117,88,45)" stroke-width="1" opacity="1" d="M 22.5 3 L 24 3.5 L 22 4.5 L 22.5 6 Q 19.5 4.5 22.5 3 Z " /><path fill="rgb(117,88,45)" stroke="rgb(117,88,45)" stroke-width="1" opacity="1" d="M 17.5 6 Q 19.8 5.3 19 7.5 L 19.5 9 L 17.5 10 L 18 8.5 L 17.5 6 Z " /><path fill="rgb(117,88,45)" stroke="rgb(117,88,45)" stroke-width="1" opacity="1" d="M 21.5 10 L 22.5 12 L 21.5 10 Z " /><path fill="rgb(117,88,45)" stroke="rgb(117,88,45)" stroke-width="1" opacity="1" d="M 18.5 12 L 19.5 14 L 18.5 12 Z " /><path fill="rgb(117,88,45)" stroke="rgb(117,88,45)" stroke-width="1" opacity="1" d="M 21.5 23 L 23 26.5 Q 21.5 29.5 20 26.5 L 22 26.5 L 21.5 23 Z " /><path fill="rgb(117,88,45)" stroke="rgb(117,88,45)" stroke-width="1" opacity="1" d="M 20.5 32 L 22 34.5 L 21 34.5 L 20.5 32 Z " /><path fill="rgb(117,88,45)" stroke="rgb(117,88,45)" stroke-width="1" opacity="1" d="M 24.5 33 L 23.5 35 L 24.5 33 Z " /><path fill="rgb(117,88,45)" stroke="rgb(117,88,45)" stroke-width="1" opacity="1" d="M 15.5 34 Q 17.8 33.3 17 35.5 L 15.5 34 Z " /><path fill="rgb(117,88,45)" stroke="rgb(117,88,45)" stroke-width="1" opacity="1" d="M 8.5 35 L 9.5 37 L 8.5 35 Z " /><path fill="rgb(117,88,45)" stroke="rgb(117,88,45)" stroke-width="1" opacity="1" d="M 13.5 36 L 14.5 38 L 13.5 36 Z " /><path fill="rgb(117,88,45)" stroke="rgb(117,88,45)" stroke-width="1" opacity="1" d="M 20.5 39 L 23.5 43 L 20.5 39 Z " /><path fill="rgb(117,88,45)" stroke="rgb(117,88,45)" stroke-width="1" opacity="1" d="M 6.5 43 L 7 47.5 L 6 47.5 L 6.5 43 Z " /><path fill="rgb(117,88,45)" stroke="rgb(117,88,45)" stroke-width="1" opacity="1" d="M 19.5 47 Q 21.8 46.3 21 48.5 L 19.5 47 Z " /><path fill="rgb(164,35,25)" stroke="rgb(164,35,25)" stroke-width="1" opacity="1" d="M 21.5 26 L 20.5 28 L 21.5 26 Z " /><path fill="rgb(164,35,25)" stroke="rgb(164,35,25)" stroke-width="1" opacity="1" d="M 17.5 29 L 18.5 31 L 20.5 30 L 22.5 32 L 25 30.5 L 23.5 34 L 19.5 32 L 17 33 L 17.5 29 Z " /><path fill="rgb(131,122,63)" stroke="rgb(131,122,63)" stroke-width="1" opacity="1" d="M 8.5 2 L 9.5 4 L 8.5 2 Z " /><path fill="rgb(131,122,63)" stroke="rgb(131,122,63)" stroke-width="1" opacity="1" d="M 18.5 5 L 21 5.5 Q 18.9 8.8 18.5 5 Z " /><path fill="rgb(131,122,63)" stroke="rgb(131,122,63)" stroke-width="1" opacity="1" d="M 26.5 5 L 27.5 7 L 26.5 5 Z " /><path fill="rgb(131,122,63)" stroke="rgb(131,122,63)" stroke-width="1" opacity="1" d="M 22.5 7 L 19.5 11 L 19 9 L 22.5 7 Z " /><path fill="rgb(131,122,63)" stroke="rgb(131,122,63)" stroke-width="1" opacity="1" d="M 17.5 11 L 18.5 13 L 20 12.5 L 19.5 15 Q 15.9 13.9 17.5 11 Z " /><path fill="rgb(131,122,63)" stroke="rgb(131,122,63)" stroke-width="1" opacity="1" d="M 19.5 27 L 21 29.5 L 20 29.5 L 19.5 27 Z " /><path fill="rgb(131,122,63)" stroke="rgb(131,122,63)" stroke-width="1" opacity="1" d="M 12.5 29 L 13.5 31 L 12.5 29 Z " /><path fill="rgb(131,122,63)" stroke="rgb(131,122,63)" stroke-width="1" opacity="1" d="M 14.5 32 Q 16.8 31.3 16 33.5 L 12.5 36 L 12.5 35 L 14 34.5 Q 11.8 33.3 14.5 32 Z " /><path fill="rgb(131,122,63)" stroke="rgb(131,122,63)" stroke-width="1" opacity="1" d="M 15.5 42 L 17 44.5 L 16 44.5 L 15.5 42 Z " /><path fill="rgb(131,122,63)" stroke="rgb(131,122,63)" stroke-width="1" opacity="1" d="M 14.5 47 L 17 47.5 L 14.5 48 L 14.5 47 Z " /><path fill="rgb(131,122,63)" stroke="rgb(131,122,63)" stroke-width="1" opacity="1" d="M 27.5 47 L 28 49 L 26 48.5 L 27.5 47 Z " /><path fill="rgb(188,203,171)" stroke="rgb(188,203,171)" stroke-width="1" opacity="1" d="M 16.5 22 L 17 25.5 L 16 25.5 L 16.5 22 Z " /><path fill="rgb(188,203,171)" stroke="rgb(188,203,171)" stroke-width="1" opacity="1" d="M 12.5 33 L 11.5 35 L 12.5 33 Z " /><path fill="rgb(188,203,171)" stroke="rgb(188,203,171)" stroke-width="1" opacity="1" d="M 9.5 39 L 10.5 41 L 9.5 39 Z " /><path fill="rgb(188,203,171)" stroke="rgb(188,203,171)" stroke-width="1" opacity="1" d="M 15.5 44 L 16 46.5 L 15 46.5 L 15.5 44 Z " /><path fill="rgb(229,236,195)" stroke="rgb(229,236,195)" stroke-width="1" opacity="1" d="M 6 21 Q 9 20 8 23 Q 5 24 6 21 Z " /><path fill="rgb(229,236,195)" stroke="rgb(229,236,195)" stroke-width="1" opacity="1" d="M 13.5 22 L 12.5 24 L 13.5 22 Z " /><path fill="rgb(229,236,195)" stroke="rgb(229,236,195)" stroke-width="1" opacity="1" d="M 10.5 39 L 11.5 41 L 10 40.5 L 9.5 42 L 9 40.5 L 10.5 39 Z " /><path fill="rgb(229,236,195)" stroke="rgb(229,236,195)" stroke-width="1" opacity="1" d="M 15.5 40 L 20 40.5 L 16 41.5 L 19 42.5 L 16.5 43 L 14 41.5 L 15.5 40 Z " /><path fill="rgb(229,236,195)" stroke="rgb(229,236,195)" stroke-width="1" opacity="1" d="M 24.5 42 Q 26.8 41.3 26 43.5 L 24.5 42 Z " /><path fill="rgb(229,236,195)" stroke="rgb(229,236,195)" stroke-width="1" opacity="1" d="M 3 45 L 5 45.5 L 4.5 48 L 3 45 Z " /><path fill="rgb(206,204,94)" stroke="rgb(206,204,94)" stroke-width="1" opacity="1" d="M 22.5 2 L 25 2.5 L 22.5 3 L 22.5 2 Z " /><path fill="rgb(206,204,94)" stroke="rgb(206,204,94)" stroke-width="1" opacity="1" d="M 18.5 22 L 20 24.5 L 17 26 L 17.5 24 L 19 24.5 L 18.5 22 Z " /><path fill="rgb(206,204,94)" stroke="rgb(206,204,94)" stroke-width="1" opacity="1" d="M 3.5 24 L 6 24.5 Q 3.9 27.8 3.5 24 Z " /><path fill="rgb(206,204,94)" stroke="rgb(206,204,94)" stroke-width="1" opacity="1" d="M 20.5 33 L 19.5 35 L 20.5 33 Z " /><path fill="rgb(206,204,94)" stroke="rgb(206,204,94)" stroke-width="1" opacity="1" d="M 5.5 37 L 6 39 L 3 38.5 L 5.5 37 Z " /><path fill="rgb(206,204,94)" stroke="rgb(206,204,94)" stroke-width="1" opacity="1" d="M 26.5 38 L 27.5 40 L 26.5 38 Z " /><path fill="rgb(206,204,94)" stroke="rgb(206,204,94)" stroke-width="1" opacity="1" d="M 5.5 40 L 8 41.5 L 5 42 L 5.5 40 Z " /><path fill="rgb(206,204,94)" stroke="rgb(206,204,94)" stroke-width="1" opacity="1" d="M 3.5 41 L 2.5 43 L 3.5 41 Z " /><path fill="rgb(206,204,94)" stroke="rgb(206,204,94)" stroke-width="1" opacity="1" d="M 21.5 41 L 22.5 43 L 21.5 41 Z " /><path fill="rgb(206,204,94)" stroke="rgb(206,204,94)" stroke-width="1" opacity="1" d="M 19.5 42 L 18.5 44 L 17 43.5 L 19.5 42 Z " /><path fill="rgb(206,204,94)" stroke="rgb(206,204,94)" stroke-width="1" opacity="1" d="M 12.5 43 L 12 44.5 L 13 46.5 L 11 47 L 10 44.5 L 12.5 43 Z " /><path fill="rgb(206,204,94)" stroke="rgb(206,204,94)" stroke-width="1" opacity="1" d="M 16.5 45 L 19 45.5 L 16.5 46 L 16.5 45 Z " /><path fill="rgb(206,204,94)" stroke="rgb(206,204,94)" stroke-width="1" opacity="1" d="M 27.5 45 L 28 46.5 L 26 47.5 L 27.5 45 Z " /><path fill="rgb(206,204,94)" stroke="rgb(206,204,94)" stroke-width="1" opacity="1" d="M 23.5 46 L 24.5 48 L 23.5 46 Z " /></svg>