<svg width="30" height="50" version="1.1" xmlns="http://www.w3.org/2000/svg" desc="Created with imagetracer.js version 1.2.6" ><path fill="rgb(203,192,192)" stroke="rgb(203,192,192)" stroke-width="1" opacity="1" d="M 2.5 2 L 3.5 4 L 2.5 2 Z " /><path fill="rgb(203,192,192)" stroke="rgb(203,192,192)" stroke-width="1" opacity="1" d="M 5.5 2 L 7.5 2 L 10.5 3 L 12.5 2 L 16 6.5 L 14 6.5 L 15 8.5 L 13.5 9 L 11.5 8 L 10 8.5 L 9.5 6 L 8.5 9 L 6 8.5 L 6.5 6 L 8 6.5 Q 8.8 3.9 5.5 5 L 5.5 2 Z M 10 4 L 11 6 L 12 6 L 10 4 Z " /><path fill="rgb(203,192,192)" stroke="rgb(203,192,192)" stroke-width="1" opacity="1" d="M 2.5 7 L 5 8.5 L 5.5 11 L 7.5 10 L 7.5 11 L 5.5 12 L 4 8 L 2.5 7 Z " /><path fill="rgb(203,192,192)" stroke="rgb(203,192,192)" stroke-width="1" opacity="1" d="M 9.5 10 Q 12.3 11.3 10 12.5 Q 10.8 14.8 8.5 14 L 7 13.5 L 6.5 15 L 5.5 13 L 7.5 12 L 9 12.5 L 9.5 10 Z " /><path fill="rgb(203,192,192)" stroke="rgb(203,192,192)" stroke-width="1" opacity="1" d="M 5.5 16 L 8 17.5 L 6 20.5 L 7 23 L 4 23.5 L 4.5 25 Q 1.5 23.5 4.5 22 L 6 21.5 L 4 17.5 L 5.5 16 Z " /><path fill="rgb(203,192,192)" stroke="rgb(203,192,192)" stroke-width="1" opacity="1" d="M 10.5 20 L 9.5 22 L 10.5 20 Z " /><path fill="rgb(205,194,194)" stroke="rgb(205,194,194)" stroke-width="1" opacity="1" d="M 17.5 2 L 20 2.5 L 19 4.5 L 21 4.5 L 18.5 8 L 17.5 6 L 16 6.5 Q 14.9 3.2 17.5 4 L 17.5 2 Z " /><path fill="rgb(205,194,194)" stroke="rgb(205,194,194)" stroke-width="1" opacity="1" d="M 2.5 3 L 4 6.5 L 2 5.5 L 2.5 3 Z " /><path fill="rgb(205,194,194)" stroke="rgb(205,194,194)" stroke-width="1" opacity="1" d="M 7.5 8 L 11.5 8 L 14 9.5 L 12.5 12 L 14.5 11 L 15 14 L 12 15.5 L 10.5 18 L 9 18.5 L 13 19.5 L 12 25 L 8.5 26 L 6.5 25 L 7.5 27 L 9 27.5 L 6.5 29 L 5.5 27 L 4 27.5 L 5 23 Q 8.3 24.3 7 19.5 L 8 17.5 L 6.5 18 Q 4.3 17.3 5 19.5 L 3 20.5 L 5 17.5 L 3 16.5 L 5.5 15 L 5.5 17 Q 7.8 17.8 7 15.5 L 10 14.5 L 12 10.5 L 9.5 9 L 8.5 13 L 8 10 L 5 9.5 L 7.5 8 Z M 9 20 L 8 22 L 10 23 L 9 20 Z " /><path fill="rgb(205,194,194)" stroke="rgb(205,194,194)" stroke-width="1" opacity="1" d="M 4.5 11 L 3.5 13 L 4.5 11 Z " /><path fill="rgb(205,194,194)" stroke="rgb(205,194,194)" stroke-width="1" opacity="1" d="M 10 26 Q 13.3 24.9 12 29 Q 8.7 30.1 10 26 Z " /><path fill="rgb(208,198,197)" stroke="rgb(208,198,197)" stroke-width="1" opacity="1" d="M 16.5 3 L 18 3.5 L 15.5 5 L 16.5 3 Z " /><path fill="rgb(208,198,197)" stroke="rgb(208,198,197)" stroke-width="1" opacity="1" d="M 19 3 L 22 4.5 L 21 6.5 L 21.5 8 Q 20 5.5 18.5 9 L 16 10.5 L 17.5 11 L 20 10 L 21 12.5 L 18 13.5 L 19 16 L 15 13.5 Q 16.1 10.2 13.5 11 L 15 8.5 Q 14.3 6.3 16.5 7 L 18 6.5 L 18.5 8 L 20 5.5 L 19 3 Z " /><path fill="rgb(208,198,197)" stroke="rgb(208,198,197)" stroke-width="1" opacity="1" d="M 9.5 9 L 10.5 11 L 9.5 9 Z " /><path fill="rgb(208,198,197)" stroke="rgb(208,198,197)" stroke-width="1" opacity="1" d="M 2 10 Q 4.7 8.9 4 11.5 Q 1.5 13 5 14.5 L 3.5 16 L 2 10 Z " /><path fill="rgb(208,198,197)" stroke="rgb(208,198,197)" stroke-width="1" opacity="1" d="M 3.5 17 L 4 19.5 L 3 22.5 L 2.5 25 L 2 22.5 L 3 19.5 L 3.5 17 Z " /><path fill="rgb(208,198,197)" stroke="rgb(208,198,197)" stroke-width="1" opacity="1" d="M 11.5 17 L 12.5 19 L 9 18.5 L 11.5 17 Z " /><path fill="rgb(208,198,197)" stroke="rgb(208,198,197)" stroke-width="1" opacity="1" d="M 8.5 20 L 10 22.5 L 8 21.5 L 8.5 20 Z " /><path fill="rgb(208,198,197)" stroke="rgb(208,198,197)" stroke-width="1" opacity="1" d="M 4.5 25 L 4 26.5 L 4.5 28 L 6 27.5 L 2.5 30 L 2 28.5 L 4.5 25 Z " /><path fill="rgb(208,198,197)" stroke="rgb(208,198,197)" stroke-width="1" opacity="1" d="M 9.5 25 L 12 25.5 L 9 26.5 L 10.5 30 L 12 29.5 L 10.5 32 L 8.5 29 L 7 29.5 L 8.5 27 L 7 26.5 L 9.5 25 Z " /><path fill="rgb(211,202,201)" stroke="rgb(211,202,201)" stroke-width="1" opacity="1" d="M 20.5 2 L 27 2.5 L 27 4.5 L 27 13.5 L 24.5 16 L 21.5 15 L 20 16.5 L 24 17.5 L 23 21 Q 20 22.3 21 18.5 L 17 12.5 L 18.5 13 L 21 12.5 L 20 10 L 16.5 11 L 17.5 9 L 21 6.5 L 22 4.5 L 20.5 2 Z " /><path fill="rgb(211,202,201)" stroke="rgb(211,202,201)" stroke-width="1" opacity="1" d="M 2.5 13 L 3 19.5 L 2 19.5 L 2.5 13 Z " /><path fill="rgb(211,202,201)" stroke="rgb(211,202,201)" stroke-width="1" opacity="1" d="M 27.5 16 L 28 19.5 L 27 19.5 L 27.5 16 Z " /><path fill="rgb(211,202,201)" stroke="rgb(211,202,201)" stroke-width="1" opacity="1" d="M 2.5 25 L 3 27.5 L 2 27.5 L 2.5 25 Z " /><path fill="rgb(182,175,177)" stroke="rgb(182,175,177)" stroke-width="1" opacity="1" d="M 13.5 2 L 16 2.5 L 13.5 3 L 13.5 2 Z " /><path fill="rgb(182,175,177)" stroke="rgb(182,175,177)" stroke-width="1" opacity="1" d="M 27.5 9 L 28 13.5 L 27 13.5 L 27.5 9 Z " /><path fill="rgb(182,175,177)" stroke="rgb(182,175,177)" stroke-width="1" opacity="1" d="M 21.5 30 L 22 32 L 24 32.5 L 22.5 33 L 21.5 30 Z " /><path fill="rgb(201,190,190)" stroke="rgb(201,190,190)" stroke-width="1" opacity="1" d="M 3.5 2 L 5.5 3 L 7.5 3 L 10.5 2 L 10.5 3 L 9 3.5 L 12 5.5 L 10.5 6 L 6.5 3 L 5.5 5 L 8 5.5 L 6 6 L 5.5 9 L 3 4.5 L 3.5 2 Z " /><path fill="rgb(201,190,190)" stroke="rgb(201,190,190)" stroke-width="1" opacity="1" d="M 5.5 10 L 8 11.5 L 8 13.5 L 6.5 16 L 4 15.5 L 4 13.5 Q 3.3 11.3 5.5 12 L 5.5 10 Z M 6 13 L 7 15 Q 8 12 6 13 Z " /><path fill="rgb(201,190,190)" stroke="rgb(201,190,190)" stroke-width="1" opacity="1" d="M 4.5 20 L 7 20.5 L 4 22 L 4.5 20 Z " /><path fill="rgb(53,50,48)" stroke="rgb(53,50,48)" stroke-width="1" opacity="1" d="M 14.5 15 L 17 16.5 L 15.5 17 L 14.5 15 Z " /><path fill="rgb(53,50,48)" stroke="rgb(53,50,48)" stroke-width="1" opacity="1" d="M 17.5 19 L 20 20.5 L 19.5 22 L 17.5 19 Z " /><path fill="rgb(53,50,48)" stroke="rgb(53,50,48)" stroke-width="1" opacity="1" d="M 18.5 26 L 20 29.5 L 19 29.5 L 18.5 26 Z " /><path fill="rgb(53,50,48)" stroke="rgb(53,50,48)" stroke-width="1" opacity="1" d="M 11.5 32 L 10.5 34 L 9 33.5 L 11.5 32 Z " /><path fill="rgb(53,50,48)" stroke="rgb(53,50,48)" stroke-width="1" opacity="1" d="M 13 36 Q 16.3 34.9 15 39 Q 11.7 40.1 13 36 Z " /><path fill="rgb(53,50,48)" stroke="rgb(53,50,48)" stroke-width="1" opacity="1" d="M 20.5 40 L 21 42 L 19 41.5 L 20.5 40 Z " /><path fill="rgb(53,50,48)" stroke="rgb(53,50,48)" stroke-width="1" opacity="1" d="M 24.5 48 L 28 48.5 L 24.5 49 L 24.5 48 Z " /><path fill="rgb(219,211,209)" stroke="rgb(219,211,209)" stroke-width="1" opacity="1" d="M 26.5 14 Q 29.3 15.3 27 16.5 L 28 33 L 21.5 34 L 21.5 33 L 25 32.5 L 22 32 L 21 27.5 L 22 25.5 L 21 22.5 Q 20.3 19.9 23 21 L 23 18.5 L 23.5 17 L 20 16.5 L 21.5 15 L 24.5 16 L 26.5 14 Z " /><path fill="rgb(86,83,74)" stroke="rgb(86,83,74)" stroke-width="1" opacity="1" d="M 12.5 1 L 16 1.5 L 12.5 2 L 12.5 1 Z " /><path fill="rgb(86,83,74)" stroke="rgb(86,83,74)" stroke-width="1" opacity="1" d="M 17.5 1 L 26 1.5 L 17.5 2 L 17.5 1 Z " /><path fill="rgb(86,83,74)" stroke="rgb(86,83,74)" stroke-width="1" opacity="1" d="M 18.5 21 L 19.5 23 L 18.5 21 Z " /><path fill="rgb(86,83,74)" stroke="rgb(86,83,74)" stroke-width="1" opacity="1" d="M 18.5 27 L 19 29.5 L 18 29.5 L 18.5 27 Z " /><path fill="rgb(86,83,74)" stroke="rgb(86,83,74)" stroke-width="1" opacity="1" d="M 5.5 29 L 8.5 33 L 5.5 29 Z " /><path fill="rgb(86,83,74)" stroke="rgb(86,83,74)" stroke-width="1" opacity="1" d="M 12.5 32 L 11.5 34 L 12.5 32 Z " /><path fill="rgb(137,134,135)" stroke="rgb(137,134,135)" stroke-width="1" opacity="1" d="M 2.5 1 L 5 1.5 L 2.5 2 L 2.5 1 Z " /><path fill="rgb(137,134,135)" stroke="rgb(137,134,135)" stroke-width="1" opacity="1" d="M 26.5 1 Q 28.8 1.8 28 5.5 L 27 5.5 L 26.5 1 Z " /><path fill="rgb(137,134,135)" stroke="rgb(137,134,135)" stroke-width="1" opacity="1" d="M 15.5 14 L 17.5 17 L 15.5 14 Z " /><path fill="rgb(137,134,135)" stroke="rgb(137,134,135)" stroke-width="1" opacity="1" d="M 12.5 15 L 14 19.5 L 13 19.5 L 12.5 15 Z " /><path fill="rgb(137,134,135)" stroke="rgb(137,134,135)" stroke-width="1" opacity="1" d="M 19.5 17 Q 21.8 17.8 21 21.5 L 20 21.5 L 19.5 17 Z " /><path fill="rgb(137,134,135)" stroke="rgb(137,134,135)" stroke-width="1" opacity="1" d="M 12.5 21 L 13 31.5 L 12 31.5 L 12.5 21 Z " /><path fill="rgb(137,134,135)" stroke="rgb(137,134,135)" stroke-width="1" opacity="1" d="M 20.5 24 L 21 28.5 L 20 28.5 L 20.5 24 Z " /><path fill="rgb(137,134,135)" stroke="rgb(137,134,135)" stroke-width="1" opacity="1" d="M 21.5 32 L 21 33.5 L 21.5 36 L 23 35.5 L 20 37 Q 19 33.2 21.5 32 Z " /><path fill="rgb(137,134,135)" stroke="rgb(137,134,135)" stroke-width="1" opacity="1" d="M 5.5 36 Q 9.3 35 8 38 L 5.5 36 Z " /><path fill="rgb(28,24,20)" stroke="rgb(28,24,20)" stroke-width="1" opacity="1" d="M 13.5 22 L 14 24.5 L 13 24.5 L 13.5 22 Z " /><path fill="rgb(28,24,20)" stroke="rgb(28,24,20)" stroke-width="1" opacity="1" d="M 18.5 22 L 20 26.5 L 19 26.5 L 18.5 22 Z " /><path fill="rgb(28,24,20)" stroke="rgb(28,24,20)" stroke-width="1" opacity="1" d="M 13.5 28 L 15 32.5 L 14 34.5 L 14.5 36 L 12.5 37 L 12 34.5 L 13.5 28 Z " /><path fill="rgb(28,24,20)" stroke="rgb(28,24,20)" stroke-width="1" opacity="1" d="M 18.5 30 Q 21.8 28.9 21 31.5 L 20 36 Q 17.3 37.1 18 34.5 L 18.5 30 Z " /><path fill="rgb(28,24,20)" stroke="rgb(28,24,20)" stroke-width="1" opacity="1" d="M 2.5 31 L 5 31.5 L 4.5 34 L 2 33.5 L 2.5 31 Z " /><path fill="rgb(28,24,20)" stroke="rgb(28,24,20)" stroke-width="1" opacity="1" d="M 22.5 34 L 25 34.5 L 22.5 35 L 22.5 34 Z " /><path fill="rgb(28,24,20)" stroke="rgb(28,24,20)" stroke-width="1" opacity="1" d="M 20.5 39 L 19.5 41 L 20.5 39 Z " /><path fill="rgb(251,251,250)" stroke="rgb(251,251,250)" stroke-width="1" opacity="1" d="M 0 0 L 30 0 L 30 50 L 0 50 L 0 0 Z M 2 1 L 2 49 L 28 49 L 28 1 L 2 1 Z " /><path fill="rgb(216,189,31)" stroke="rgb(216,189,31)" stroke-width="1" opacity="1" d="M 5.5 31 L 6.5 33 L 5.5 31 Z " /><path fill="rgb(216,189,31)" stroke="rgb(216,189,31)" stroke-width="1" opacity="1" d="M 2.5 34 L 4.5 35 L 9.5 34 L 10.5 36 Q 4.4 35.3 2 37 L 2.5 34 Z " /><path fill="rgb(216,189,31)" stroke="rgb(216,189,31)" stroke-width="1" opacity="1" d="M 26.5 34 Q 29.5 33.2 28 37 L 24 35.5 L 26.5 34 Z " /><path fill="rgb(216,189,31)" stroke="rgb(216,189,31)" stroke-width="1" opacity="1" d="M 9.5 37 Q 13.7 35.7 12 40.5 L 10.5 40 L 7.5 39 L 6.5 41 L 5 38.5 L 7.5 38 L 9.5 37 Z " /><path fill="rgb(216,189,31)" stroke="rgb(216,189,31)" stroke-width="1" opacity="1" d="M 21.5 38 L 24 38.5 L 21.5 39 L 21.5 38 Z " /><path fill="rgb(216,189,31)" stroke="rgb(216,189,31)" stroke-width="1" opacity="1" d="M 25.5 38 L 28 38.5 L 28 48 L 23.5 48 L 21.5 48 Q 15.3 46.3 13.5 49 Q 10.8 47.8 12 42.5 L 14.5 44 Q 17.1 43.3 16 46 L 14 46.5 L 20 47 L 21 42 L 25 41 L 25.5 43 L 27 40 Q 23.8 41 25.5 38 Z M 24 43 L 23 45 L 26 47 L 26 45 L 24 43 Z " /><path fill="rgb(216,189,31)" stroke="rgb(216,189,31)" stroke-width="1" opacity="1" d="M 3.5 39 L 4 41 L 2 40.5 L 3.5 39 Z " /><path fill="rgb(216,189,31)" stroke="rgb(216,189,31)" stroke-width="1" opacity="1" d="M 5.5 44 L 11 44.5 L 5 46 L 6 48.5 L 3.5 49 L 2 48.5 L 5.5 44 Z " /><path fill="rgb(216,189,31)" stroke="rgb(216,189,31)" stroke-width="1" opacity="1" d="M 8 46 Q 11 45 10 48 Q 7 49 8 46 Z " /><path fill="rgb(138,120,28)" stroke="rgb(138,120,28)" stroke-width="1" opacity="1" d="M 23.5 36 L 22.5 38 L 23.5 36 Z " /><path fill="rgb(138,120,28)" stroke="rgb(138,120,28)" stroke-width="1" opacity="1" d="M 25.5 36 L 27 38.5 L 23 39.5 L 25.5 36 Z " /><path fill="rgb(138,120,28)" stroke="rgb(138,120,28)" stroke-width="1" opacity="1" d="M 12.5 37 L 13 40.5 L 12 40.5 L 12.5 37 Z " /><path fill="rgb(138,120,28)" stroke="rgb(138,120,28)" stroke-width="1" opacity="1" d="M 7.5 40 L 9 42.5 L 7 41.5 L 7.5 40 Z " /><path fill="rgb(138,120,28)" stroke="rgb(138,120,28)" stroke-width="1" opacity="1" d="M 13.5 42 L 14.5 44 L 13.5 42 Z " /><path fill="rgb(138,120,28)" stroke="rgb(138,120,28)" stroke-width="1" opacity="1" d="M 23.5 43 L 22.5 45 L 23.5 43 Z " /><path fill="rgb(138,120,28)" stroke="rgb(138,120,28)" stroke-width="1" opacity="1" d="M 16.5 44 L 18 47 Q 14.5 48.1 16.5 44 Z " /><path fill="rgb(138,120,28)" stroke="rgb(138,120,28)" stroke-width="1" opacity="1" d="M 19.5 44 L 20 46.5 L 19 46.5 L 19.5 44 Z " /><path fill="rgb(138,120,28)" stroke="rgb(138,120,28)" stroke-width="1" opacity="1" d="M 9.5 45 L 12 45.5 L 9.5 49 L 10 47.5 L 9.5 45 Z " /><path fill="rgb(138,120,28)" stroke="rgb(138,120,28)" stroke-width="1" opacity="1" d="M 7.5 46 L 8 48 L 6 47.5 L 7.5 46 Z " /><path fill="rgb(138,120,28)" stroke="rgb(138,120,28)" stroke-width="1" opacity="1" d="M 14.5 48 L 19 48.5 L 14.5 49 L 14.5 48 Z " /><path fill="rgb(4,2,3)" stroke="rgb(4,2,3)" stroke-width="1" opacity="1" d="M 16.5 17 L 20 18.5 L 17 19.5 L 19 25.5 L 18 26.5 L 18 36 Q 21.3 34.7 20 39.5 L 17.5 44 L 13 41.5 L 15 41 L 14 33.5 L 14 31.5 L 13 25.5 L 14 24.5 L 14 18 L 16.5 17 Z " /><path fill="rgb(4,2,3)" stroke="rgb(4,2,3)" stroke-width="1" opacity="1" d="M 2.5 41 L 5 41.5 L 2.5 42 L 2.5 41 Z " /><path fill="rgb(4,2,3)" stroke="rgb(4,2,3)" stroke-width="1" opacity="1" d="M 6.5 42 L 10 43.5 L 6 44 L 6.5 42 Z " /><path fill="rgb(82,59,12)" stroke="rgb(82,59,12)" stroke-width="1" opacity="1" d="M 22.5 36 L 25 36.5 Q 22.9 39.8 22.5 36 Z " /><path fill="rgb(82,59,12)" stroke="rgb(82,59,12)" stroke-width="1" opacity="1" d="M 7.5 39 Q 8.8 41.8 13 41.5 L 7.5 43 L 6.5 41 L 8 41.5 L 7.5 39 Z " /><path fill="rgb(82,59,12)" stroke="rgb(82,59,12)" stroke-width="1" opacity="1" d="M 22.5 39 L 23 41.5 L 22 41.5 L 22.5 39 Z " /><path fill="rgb(82,59,12)" stroke="rgb(82,59,12)" stroke-width="1" opacity="1" d="M 24.5 39 L 27 40 Q 28.1 42.7 25.5 42 L 24.5 39 Z " /><path fill="rgb(82,59,12)" stroke="rgb(82,59,12)" stroke-width="1" opacity="1" d="M 11.5 43 L 12 44.5 L 10 45.5 L 11.5 43 Z " /><path fill="rgb(82,59,12)" stroke="rgb(82,59,12)" stroke-width="1" opacity="1" d="M 2.5 44 L 4 47 Q 0.5 48.1 2.5 44 Z " /><path fill="rgb(82,59,12)" stroke="rgb(82,59,12)" stroke-width="1" opacity="1" d="M 17.5 44 L 19 46.5 L 18 46.5 L 17.5 44 Z " /><path fill="rgb(82,59,12)" stroke="rgb(82,59,12)" stroke-width="1" opacity="1" d="M 23.5 44 L 26 44.5 L 25.5 47 L 23.5 44 Z " /><path fill="rgb(82,59,12)" stroke="rgb(82,59,12)" stroke-width="1" opacity="1" d="M 6.5 46 L 5.5 48 L 6.5 46 Z " /></svg>