<svg width="30" height="50" version="1.1" xmlns="http://www.w3.org/2000/svg" desc="Created with imagetracer.js version 1.2.6" ><path fill="rgb(163,147,61)" stroke="rgb(163,147,61)" stroke-width="1" opacity="1" d="M 4.5 12 L 5.5 14 L 4.5 12 Z " /><path fill="rgb(163,147,61)" stroke="rgb(163,147,61)" stroke-width="1" opacity="1" d="M 9.5 17 L 10.5 19 L 9.5 17 Z " /><path fill="rgb(163,147,61)" stroke="rgb(163,147,61)" stroke-width="1" opacity="1" d="M 9.5 20 L 10 22 L 8 21.5 L 9.5 20 Z " /><path fill="rgb(163,147,61)" stroke="rgb(163,147,61)" stroke-width="1" opacity="1" d="M 24.5 22 L 22.5 25 L 24.5 22 Z " /><path fill="rgb(163,147,61)" stroke="rgb(163,147,61)" stroke-width="1" opacity="1" d="M 18.5 29 L 20 29.5 L 17.5 31 L 18.5 29 Z " /><path fill="rgb(163,147,61)" stroke="rgb(163,147,61)" stroke-width="1" opacity="1" d="M 18.5 34 L 21 37.5 L 19 38.5 L 20 36.5 L 18.5 34 Z " /><path fill="rgb(163,147,61)" stroke="rgb(163,147,61)" stroke-width="1" opacity="1" d="M 10.5 41 L 12.5 41 Q 14.8 40.3 14 42.5 L 11.5 43 L 10.5 41 Z " /><path fill="rgb(163,147,61)" stroke="rgb(163,147,61)" stroke-width="1" opacity="1" d="M 13.5 44 L 14 45.5 L 12 46.5 L 13.5 44 Z " /><path fill="rgb(218,238,244)" stroke="rgb(218,238,244)" stroke-width="1" opacity="1" d="M 3.5 2 Q 9.2 0.7 10.5 4 L 12 3.5 L 11.5 6 L 10 5.5 L 11 8.5 L 9.5 11 L 9 9 Q 4.4 8.4 2.5 12 L 2 3.5 L 3.5 2 Z " /><path fill="rgb(218,238,244)" stroke="rgb(218,238,244)" stroke-width="1" opacity="1" d="M 22.5 17 Q 25.5 18.5 22.5 20 Q 19.5 18.5 22.5 17 Z " /><path fill="rgb(218,238,244)" stroke="rgb(218,238,244)" stroke-width="1" opacity="1" d="M 17.5 18 L 20 19.5 L 18.5 20 L 17.5 18 Z " /><path fill="rgb(218,238,244)" stroke="rgb(218,238,244)" stroke-width="1" opacity="1" d="M 11.5 28 L 10.5 30 L 11.5 28 Z " /><path fill="rgb(218,238,244)" stroke="rgb(218,238,244)" stroke-width="1" opacity="1" d="M 18.5 48 L 22 48.5 L 18.5 49 L 18.5 48 Z " /><path fill="rgb(236,247,248)" stroke="rgb(236,247,248)" stroke-width="1" opacity="1" d="M 8.5 1 L 13 2 Q 11.9 4.7 14.5 4 L 18.5 1 L 21 2 L 19 6.5 L 21 6.5 L 19.5 12 Q 17.3 11.3 18 13.5 L 18.5 15 L 15.5 14 Q 13.3 13.3 14 15.5 L 12 16.5 L 13 14.5 L 11.5 11 Q 9.3 11.8 10 9.5 L 10 7.5 L 9 4.5 L 10 3.5 L 8.5 1 Z M 12 3 L 10 5 L 12 6 L 12 3 Z " /><path fill="rgb(236,247,248)" stroke="rgb(236,247,248)" stroke-width="1" opacity="1" d="M 28.5 13 L 27.5 15 L 28.5 13 Z " /><path fill="rgb(236,247,248)" stroke="rgb(236,247,248)" stroke-width="1" opacity="1" d="M 21.5 15 L 23.5 15 L 26 15 Q 25 18 28 17 L 28 21 L 24 19.5 L 22.5 17 L 19 17.5 L 21 18.5 L 18.5 19 L 17 16 L 21.5 15 Z M 26 18 Q 24 21 27 20 L 26 18 Z " /><path fill="rgb(236,247,248)" stroke="rgb(236,247,248)" stroke-width="1" opacity="1" d="M 1.5 28 L 2 30.5 L 1 30.5 L 1.5 28 Z " /><path fill="rgb(251,252,251)" stroke="rgb(251,252,251)" stroke-width="1" opacity="1" d="M 0 0 L 30 0 L 30 50 L 0 50 L 0 0 Z M 2 1 L 2 12 L 1 13 L 2 14 L 2 24 L 1 29 L 2 32 L 1 36 L 1 38 L 2 48 L 8 49 L 29 49 L 28 47 L 28 45 L 28 33 L 29 32 L 28 28 L 28 26 L 28 18 L 27 17 L 27 16 Q 29 17 28 15 L 29 13 Q 25 12 26 15 L 23 16 L 20 15 L 18 15 L 18 14 Q 17 11 20 12 Q 18 10 21 9 L 19 7 L 21 4 Q 20 1 28 2 L 28 1 L 19 1 L 18 2 L 2 1 Z " /><path fill="rgb(69,54,17)" stroke="rgb(69,54,17)" stroke-width="1" opacity="1" d="M 10.5 25 L 11 26.5 L 10 29 L 7 28.5 L 8.5 26 L 10 26.5 L 10.5 25 Z " /><path fill="rgb(69,54,17)" stroke="rgb(69,54,17)" stroke-width="1" opacity="1" d="M 19.5 30 L 20.5 32 Q 17.7 32.7 19.5 30 Z " /><path fill="rgb(69,54,17)" stroke="rgb(69,54,17)" stroke-width="1" opacity="1" d="M 14.5 39 L 13.5 41 L 14.5 39 Z " /><path fill="rgb(233,211,71)" stroke="rgb(233,211,71)" stroke-width="1" opacity="1" d="M 5.5 12 Q 10.3 11.3 12 13.5 L 12 15.5 Q 12.8 18.1 9.5 17 L 10.5 19 L 14.5 16 L 14 17.5 Q 13.3 19.8 15.5 19 L 15.5 20 L 12 22.5 L 10.5 25 L 8.5 26 L 8 24 Q 5.3 22.9 6 25.5 L 6.5 27 L 4.5 24 Q 3.3 26.2 2 23.5 L 4 20.5 L 2 20.5 L 3 15.5 L 2 13.5 L 3 13.5 L 3.5 15 L 6 13.5 L 5.5 12 Z M 8 18 L 4 20 L 6 23 L 6 21 L 9 22 L 11 22 L 10 20 L 8 18 Z " /><path fill="rgb(233,211,71)" stroke="rgb(233,211,71)" stroke-width="1" opacity="1" d="M 22.5 22 L 22 23.5 L 22.5 25 Q 23.8 21.3 28 22 Q 29 25 26 24 L 26 27 Q 29.7 25.8 28 31 L 25 29.5 L 24.5 26 L 22 27.5 Q 22.8 24.9 19.5 26 L 19.5 24 L 18 23.5 L 22.5 22 Z " /><path fill="rgb(233,211,71)" stroke="rgb(233,211,71)" stroke-width="1" opacity="1" d="M 20.5 27 L 19.5 29 L 17.5 30 L 16.5 28 L 20.5 27 Z " /><path fill="rgb(233,211,71)" stroke="rgb(233,211,71)" stroke-width="1" opacity="1" d="M 6.5 28 L 7.5 30 Q 4.7 30.7 6.5 28 Z " /><path fill="rgb(233,211,71)" stroke="rgb(233,211,71)" stroke-width="1" opacity="1" d="M 22.5 30 Q 25.1 29.2 24 32.5 L 23 32.5 L 22.5 30 Z " /><path fill="rgb(233,211,71)" stroke="rgb(233,211,71)" stroke-width="1" opacity="1" d="M 19.5 32 L 20 34 L 18 34.5 L 19 38.5 L 18 38.5 Q 18.7 35.5 15 37 L 15 34 L 19.5 32 Z " /><path fill="rgb(233,211,71)" stroke="rgb(233,211,71)" stroke-width="1" opacity="1" d="M 25 32 L 28 32 L 28 40 Q 24.7 41.3 26 36.5 L 25 32 Z " /><path fill="rgb(233,211,71)" stroke="rgb(233,211,71)" stroke-width="1" opacity="1" d="M 20.5 35 L 22.5 35 Q 25.5 34.2 24 38 L 20.5 35 Z " /><path fill="rgb(233,211,71)" stroke="rgb(233,211,71)" stroke-width="1" opacity="1" d="M 2 39 L 4 39.5 L 2.5 42 L 2 39 Z " /><path fill="rgb(233,211,71)" stroke="rgb(233,211,71)" stroke-width="1" opacity="1" d="M 7.5 41 L 7.5 43 L 10.5 42 L 11.5 44 L 9 43 Q 7.9 45.7 10.5 45 L 10.5 46 L 7 45.5 L 7.5 44 L 4.5 43 L 4 44.5 L 4 46.5 Q 4.7 49.1 2 48 Q 0.9 45.3 3.5 46 L 3.5 45 L 2 44.5 L 7.5 41 Z " /><path fill="rgb(233,211,71)" stroke="rgb(233,211,71)" stroke-width="1" opacity="1" d="M 14.5 41 L 17.5 43 L 19.5 42 Q 20.6 44.8 24 44 Q 22.8 41 26.5 42 L 28 41.5 Q 29.3 45.3 25.5 44 Q 22.8 49.8 12.5 48 L 14 45.5 L 13 43.5 L 14.5 41 Z M 16 44 L 17 45 L 16 47 L 20 47 L 20 45 L 16 44 Z " /><path fill="rgb(233,211,71)" stroke="rgb(233,211,71)" stroke-width="1" opacity="1" d="M 27.5 46 L 28 48 L 26 47.5 L 27.5 46 Z " /><path fill="rgb(61,66,67)" stroke="rgb(61,66,67)" stroke-width="1" opacity="1" d="M 7.5 30 L 11 30.5 L 8 32.5 L 8.5 31 L 7.5 30 Z " /><path fill="rgb(156,163,165)" stroke="rgb(156,163,165)" stroke-width="1" opacity="1" d="M 27.5 13 L 27 14.5 L 26.5 16 L 26 14.5 L 27.5 13 Z " /><path fill="rgb(156,163,165)" stroke="rgb(156,163,165)" stroke-width="1" opacity="1" d="M 16 15 L 19 15.5 L 17 16 L 16.5 18 L 16 15 Z " /><path fill="rgb(156,163,165)" stroke="rgb(156,163,165)" stroke-width="1" opacity="1" d="M 20.5 19 L 21 22 Q 18.3 23.1 19 20.5 L 20.5 19 Z " /><path fill="rgb(156,163,165)" stroke="rgb(156,163,165)" stroke-width="1" opacity="1" d="M 25.5 19 L 24.5 21 L 25.5 19 Z " /><path fill="rgb(156,163,165)" stroke="rgb(156,163,165)" stroke-width="1" opacity="1" d="M 17.5 24 L 18.5 26 Q 15.7 26.7 17.5 24 Z " /><path fill="rgb(156,163,165)" stroke="rgb(156,163,165)" stroke-width="1" opacity="1" d="M 11.5 27 Q 13.8 26.3 13 28.5 L 13.5 30 L 11 29.5 L 11.5 27 Z " /><path fill="rgb(156,163,165)" stroke="rgb(156,163,165)" stroke-width="1" opacity="1" d="M 2.5 29 L 5 29.5 L 4.5 32 L 2.5 29 Z " /><path fill="rgb(156,163,165)" stroke="rgb(156,163,165)" stroke-width="1" opacity="1" d="M 13.5 31 Q 16.5 32.5 13.5 34 L 11 32.5 L 12.5 33 L 14 32.5 L 13.5 31 Z " /><path fill="rgb(156,163,165)" stroke="rgb(156,163,165)" stroke-width="1" opacity="1" d="M 8.5 33 L 10 33.5 L 7.5 35 L 8.5 33 Z " /><path fill="rgb(156,163,165)" stroke="rgb(156,163,165)" stroke-width="1" opacity="1" d="M 4.5 36 L 5 38.5 L 4 38.5 L 4.5 36 Z " /><path fill="rgb(156,163,165)" stroke="rgb(156,163,165)" stroke-width="1" opacity="1" d="M 22.5 38 L 23.5 40 L 22.5 39 L 20 40.5 Q 19.3 38.3 21.5 39 L 22.5 38 Z " /><path fill="rgb(28,25,18)" stroke="rgb(28,25,18)" stroke-width="1" opacity="1" d="M 13.5 30 Q 15.8 29.3 15 31.5 L 13.5 30 Z " /><path fill="rgb(28,25,18)" stroke="rgb(28,25,18)" stroke-width="1" opacity="1" d="M 9.5 35 Q 11.8 34.3 11 36.5 L 9.5 35 Z " /><path fill="rgb(85,122,133)" stroke="rgb(85,122,133)" stroke-width="1" opacity="1" d="M 13.5 28 L 16 29.5 L 15.5 31 L 15 29 L 13.5 28 Z " /><path fill="rgb(85,122,133)" stroke="rgb(85,122,133)" stroke-width="1" opacity="1" d="M 11.5 30 L 13 30.5 L 11 31 L 12 34.5 L 10 35 L 9 32.5 L 11.5 30 Z " /><path fill="rgb(165,131,37)" stroke="rgb(165,131,37)" stroke-width="1" opacity="1" d="M 14.5 20 L 13.5 22 L 14.5 20 Z " /><path fill="rgb(165,131,37)" stroke="rgb(165,131,37)" stroke-width="1" opacity="1" d="M 19.5 22 L 22 22.5 L 19.5 23 L 19.5 22 Z " /><path fill="rgb(165,131,37)" stroke="rgb(165,131,37)" stroke-width="1" opacity="1" d="M 7.5 26 L 8 28 L 6 27.5 L 7.5 26 Z " /><path fill="rgb(165,131,37)" stroke="rgb(165,131,37)" stroke-width="1" opacity="1" d="M 20.5 26 Q 22.8 25.3 22 27.5 L 21.5 29 L 23 29.5 L 21 30.5 L 23 31.5 L 21.5 32 L 19 27.5 L 20.5 26 Z " /><path fill="rgb(165,131,37)" stroke="rgb(165,131,37)" stroke-width="1" opacity="1" d="M 17.5 31 L 19 31.5 L 17 32 L 16.5 34 L 16 32.5 L 17.5 31 Z " /><path fill="rgb(165,131,37)" stroke="rgb(165,131,37)" stroke-width="1" opacity="1" d="M 14.5 34 L 15 37.5 L 12 39.5 L 12.5 37 L 14 37.5 L 14.5 34 Z " /><path fill="rgb(165,131,37)" stroke="rgb(165,131,37)" stroke-width="1" opacity="1" d="M 16.5 37 L 17.5 39 Q 14.7 39.7 16.5 37 Z " /><path fill="rgb(165,131,37)" stroke="rgb(165,131,37)" stroke-width="1" opacity="1" d="M 14.5 40 L 15.5 42 L 14.5 40 Z " /><path fill="rgb(165,131,37)" stroke="rgb(165,131,37)" stroke-width="1" opacity="1" d="M 20.5 42 L 22.5 43 L 24 42.5 L 21.5 44 L 20.5 42 Z " /><path fill="rgb(165,131,37)" stroke="rgb(165,131,37)" stroke-width="1" opacity="1" d="M 10.5 43 L 13 43.5 L 11.5 46 L 10.5 43 Z " /><path fill="rgb(165,131,37)" stroke="rgb(165,131,37)" stroke-width="1" opacity="1" d="M 19.5 44 L 17.5 47 L 16 46.5 L 19.5 44 Z " /><path fill="rgb(165,131,37)" stroke="rgb(165,131,37)" stroke-width="1" opacity="1" d="M 27.5 44 L 28 46 Q 25.3 44.9 26 47.5 L 25 47.5 Q 23.9 44.2 26.5 45 L 27.5 44 Z " /><path fill="rgb(165,131,37)" stroke="rgb(165,131,37)" stroke-width="1" opacity="1" d="M 2.5 45 L 5.5 47 L 9.5 46 L 9.5 47 L 7.5 48 L 5.5 48 L 2.5 46 L 2.5 45 Z " /><path fill="rgb(188,28,12)" stroke="rgb(188,28,12)" stroke-width="1" opacity="1" d="M 15.5 20 L 18 21 L 16 28 L 11 27 L 15.5 20 Z " /><path fill="rgb(188,28,12)" stroke="rgb(188,28,12)" stroke-width="1" opacity="1" d="M 21.5 28 L 21.5 31 Q 18.5 29.5 21.5 28 Z " /><path fill="rgb(188,28,12)" stroke="rgb(188,28,12)" stroke-width="1" opacity="1" d="M 23 28 Q 26 26.8 25 30.5 L 23 29.5 L 23 28 Z " /><path fill="rgb(188,28,12)" stroke="rgb(188,28,12)" stroke-width="1" opacity="1" d="M 12.5 35 Q 15.1 34.2 14 37.5 L 13 37.5 L 12.5 35 Z " /><path fill="rgb(166,155,101)" stroke="rgb(166,155,101)" stroke-width="1" opacity="1" d="M 11 17 L 13 17.5 L 11 18.5 L 11 17 Z " /><path fill="rgb(166,155,101)" stroke="rgb(166,155,101)" stroke-width="1" opacity="1" d="M 17.5 20 L 18.5 22 L 17.5 20 Z " /><path fill="rgb(166,155,101)" stroke="rgb(166,155,101)" stroke-width="1" opacity="1" d="M 24.5 37 L 23.5 39 L 24.5 37 Z " /><path fill="rgb(100,89,47)" stroke="rgb(100,89,47)" stroke-width="1" opacity="1" d="M 2.5 24 L 5 25.5 L 3.5 26 L 2.5 24 Z " /><path fill="rgb(100,89,47)" stroke="rgb(100,89,47)" stroke-width="1" opacity="1" d="M 6.5 24 Q 8.8 23.3 8 25.5 L 6.5 24 Z " /><path fill="rgb(100,89,47)" stroke="rgb(100,89,47)" stroke-width="1" opacity="1" d="M 16.5 27 L 19 27.5 L 16.5 28 L 16.5 27 Z " /><path fill="rgb(100,89,47)" stroke="rgb(100,89,47)" stroke-width="1" opacity="1" d="M 4.5 32 L 6.5 33 L 8 32.5 L 5.5 36 L 4.5 33 L 3 33.5 L 4.5 32 Z " /><path fill="rgb(100,89,47)" stroke="rgb(100,89,47)" stroke-width="1" opacity="1" d="M 20.5 32 Q 22.2 35.1 24 33.5 Q 22.8 36.3 21.5 34 L 19.5 35 L 20 33.5 L 20.5 32 Z " /><path fill="rgb(100,89,47)" stroke="rgb(100,89,47)" stroke-width="1" opacity="1" d="M 11 36 L 13 36.5 L 11 37.5 L 11 36 Z " /><path fill="rgb(100,89,47)" stroke="rgb(100,89,47)" stroke-width="1" opacity="1" d="M 6.5 39 Q 9.5 40.5 6.5 42 Q 3.5 40.5 6.5 39 Z " /><path fill="rgb(100,89,47)" stroke="rgb(100,89,47)" stroke-width="1" opacity="1" d="M 13.5 39 L 12.5 41 L 13.5 39 Z " /><path fill="rgb(100,89,47)" stroke="rgb(100,89,47)" stroke-width="1" opacity="1" d="M 19.5 40 L 20.5 42 L 17 41.5 L 19.5 40 Z " /><path fill="rgb(100,89,47)" stroke="rgb(100,89,47)" stroke-width="1" opacity="1" d="M 4.5 43 L 5.5 45 Q 2.7 45.7 4.5 43 Z " /><path fill="rgb(100,89,47)" stroke="rgb(100,89,47)" stroke-width="1" opacity="1" d="M 18.5 44 L 17.5 46 L 18.5 44 Z " /><path fill="rgb(100,89,47)" stroke="rgb(100,89,47)" stroke-width="1" opacity="1" d="M 12.5 45 L 11.5 47 L 12.5 45 Z " /><path fill="rgb(123,118,113)" stroke="rgb(123,118,113)" stroke-width="1" opacity="1" d="M 7.5 9 L 6.5 11 L 5 10.5 L 7.5 9 Z " /><path fill="rgb(123,118,113)" stroke="rgb(123,118,113)" stroke-width="1" opacity="1" d="M 9.5 11 L 12 12.5 L 10.5 12 L 9.5 11 Z " /><path fill="rgb(123,118,113)" stroke="rgb(123,118,113)" stroke-width="1" opacity="1" d="M 4.5 34 L 5.5 36 L 9 35.5 L 8 37.5 L 8.5 39 L 6.5 36 L 4.5 40 L 5 38.5 L 4.5 34 Z " /><path fill="rgb(201,203,201)" stroke="rgb(201,203,201)" stroke-width="1" opacity="1" d="M 2.5 1 L 8 1.5 L 2.5 2 L 2.5 1 Z " /><path fill="rgb(201,203,201)" stroke="rgb(201,203,201)" stroke-width="1" opacity="1" d="M 19.5 1 L 22 1.5 L 19.5 2 L 19.5 1 Z " /><path fill="rgb(201,203,201)" stroke="rgb(201,203,201)" stroke-width="1" opacity="1" d="M 13.5 2 L 16 2.5 L 13.5 3 L 13.5 2 Z " /><path fill="rgb(201,203,201)" stroke="rgb(201,203,201)" stroke-width="1" opacity="1" d="M 4.5 10 L 3.5 12 L 4.5 10 Z " /><path fill="rgb(201,203,201)" stroke="rgb(201,203,201)" stroke-width="1" opacity="1" d="M 22.5 18 L 23.5 20 L 21 19.5 L 22.5 18 Z " /><path fill="rgb(201,203,201)" stroke="rgb(201,203,201)" stroke-width="1" opacity="1" d="M 3.5 32 L 2.5 34 L 3.5 32 Z " /><path fill="rgb(201,203,201)" stroke="rgb(201,203,201)" stroke-width="1" opacity="1" d="M 6.5 34 Q 9.3 35.3 7 36.5 L 8 38.5 L 6 39 L 7 35.5 L 6.5 34 Z " /><path fill="rgb(201,203,201)" stroke="rgb(201,203,201)" stroke-width="1" opacity="1" d="M 24.5 39 L 25.5 41 Q 22.7 41.7 24.5 39 Z " /><path fill="rgb(201,203,201)" stroke="rgb(201,203,201)" stroke-width="1" opacity="1" d="M 9.5 48 L 14 48.5 L 9.5 49 L 9.5 48 Z " /></svg>