<svg width="30" height="50" version="1.1" xmlns="http://www.w3.org/2000/svg" desc="Created with imagetracer.js version 1.2.6" ><path fill="rgb(198,194,125)" stroke="rgb(198,194,125)" stroke-width="1" opacity="1" d="M 24.5 5 L 23.5 7 L 24.5 5 Z " /><path fill="rgb(198,194,125)" stroke="rgb(198,194,125)" stroke-width="1" opacity="1" d="M 6.5 25 L 5.5 27 L 6.5 25 Z " /><path fill="rgb(164,146,135)" stroke="rgb(164,146,135)" stroke-width="1" opacity="1" d="M 16.5 7 L 19 8 L 18.5 10 L 16.5 7 Z " /><path fill="rgb(164,146,135)" stroke="rgb(164,146,135)" stroke-width="1" opacity="1" d="M 10.5 10 L 13 10.5 L 10.5 11 L 10.5 10 Z " /><path fill="rgb(164,146,135)" stroke="rgb(164,146,135)" stroke-width="1" opacity="1" d="M 20.5 11 L 19.5 13 L 20.5 11 Z " /><path fill="rgb(164,146,135)" stroke="rgb(164,146,135)" stroke-width="1" opacity="1" d="M 26.5 13 L 25.5 15 L 26.5 13 Z " /><path fill="rgb(164,146,135)" stroke="rgb(164,146,135)" stroke-width="1" opacity="1" d="M 16.5 14 L 15.5 16 L 16.5 14 Z " /><path fill="rgb(164,146,135)" stroke="rgb(164,146,135)" stroke-width="1" opacity="1" d="M 23.5 16 L 22.5 18 L 23.5 16 Z " /><path fill="rgb(164,146,135)" stroke="rgb(164,146,135)" stroke-width="1" opacity="1" d="M 16.5 18 L 18.5 18 L 20 18.5 L 15.5 21 L 16 19.5 L 16.5 18 Z " /><path fill="rgb(164,146,135)" stroke="rgb(164,146,135)" stroke-width="1" opacity="1" d="M 11.5 22 L 16 24.5 L 14.5 25 L 11 24 L 11.5 22 Z " /><path fill="rgb(164,146,135)" stroke="rgb(164,146,135)" stroke-width="1" opacity="1" d="M 4.5 25 L 7 26.5 L 5 27.5 L 5.5 26 L 4.5 25 Z " /><path fill="rgb(164,146,135)" stroke="rgb(164,146,135)" stroke-width="1" opacity="1" d="M 10.5 26 Q 12.8 25.3 12 27.5 L 10.5 26 Z " /><path fill="rgb(164,146,135)" stroke="rgb(164,146,135)" stroke-width="1" opacity="1" d="M 26.5 27 L 27.5 29 L 26.5 27 Z " /><path fill="rgb(164,146,135)" stroke="rgb(164,146,135)" stroke-width="1" opacity="1" d="M 25.5 31 Q 28.3 32.3 26 33.5 L 25.5 35 L 24 32.5 L 25.5 31 Z " /><path fill="rgb(164,146,135)" stroke="rgb(164,146,135)" stroke-width="1" opacity="1" d="M 13.5 34 L 16 35.5 L 14.5 35 L 13.5 34 Z " /><path fill="rgb(99,101,102)" stroke="rgb(99,101,102)" stroke-width="1" opacity="1" d="M 27.5 13 L 26.5 15 L 27.5 13 Z " /><path fill="rgb(99,101,102)" stroke="rgb(99,101,102)" stroke-width="1" opacity="1" d="M 8.5 30 L 11 30.5 Q 8.9 33.8 8.5 30 Z " /><path fill="rgb(99,101,102)" stroke="rgb(99,101,102)" stroke-width="1" opacity="1" d="M 11.5 40 L 12 45.5 L 11 45.5 L 11.5 40 Z " /><path fill="rgb(125,130,120)" stroke="rgb(125,130,120)" stroke-width="1" opacity="1" d="M 13.5 3 L 14.5 5 Q 11.7 5.7 13.5 3 Z " /><path fill="rgb(125,130,120)" stroke="rgb(125,130,120)" stroke-width="1" opacity="1" d="M 22.5 3 L 21.5 5 L 22.5 3 Z " /><path fill="rgb(125,130,120)" stroke="rgb(125,130,120)" stroke-width="1" opacity="1" d="M 8.5 12 L 9 14 L 7 13.5 L 8.5 12 Z " /><path fill="rgb(125,130,120)" stroke="rgb(125,130,120)" stroke-width="1" opacity="1" d="M 18.5 12 L 19.5 14 L 18.5 12 Z " /><path fill="rgb(125,130,120)" stroke="rgb(125,130,120)" stroke-width="1" opacity="1" d="M 5.5 22 L 6.5 24 L 5.5 22 Z " /><path fill="rgb(125,130,120)" stroke="rgb(125,130,120)" stroke-width="1" opacity="1" d="M 19.5 23 L 18.5 25 L 19.5 23 Z " /><path fill="rgb(125,130,120)" stroke="rgb(125,130,120)" stroke-width="1" opacity="1" d="M 21.5 24 L 22.5 26 L 21.5 24 Z " /><path fill="rgb(125,130,120)" stroke="rgb(125,130,120)" stroke-width="1" opacity="1" d="M 25.5 28 L 23.5 31 L 25.5 28 Z " /><path fill="rgb(125,130,120)" stroke="rgb(125,130,120)" stroke-width="1" opacity="1" d="M 4.5 30 L 5.5 32 L 4.5 30 Z " /><path fill="rgb(125,130,120)" stroke="rgb(125,130,120)" stroke-width="1" opacity="1" d="M 13.5 31 L 15 33.5 L 13 32.5 L 13.5 31 Z " /><path fill="rgb(125,130,120)" stroke="rgb(125,130,120)" stroke-width="1" opacity="1" d="M 19.5 33 L 20 34.5 L 19.5 36 L 21 36.5 L 18.5 38 Q 15.3 36.3 19 34.5 L 19.5 33 Z " /><path fill="rgb(125,130,120)" stroke="rgb(125,130,120)" stroke-width="1" opacity="1" d="M 23.5 36 L 25.5 36 L 27 36.5 L 24.5 38 L 23.5 36 Z " /><path fill="rgb(239,235,232)" stroke="rgb(239,235,232)" stroke-width="1" opacity="1" d="M 21.5 5 L 22.5 7 L 21.5 5 Z " /><path fill="rgb(239,235,232)" stroke="rgb(239,235,232)" stroke-width="1" opacity="1" d="M 22.5 15 L 21.5 17 L 22.5 15 Z " /><path fill="rgb(239,235,232)" stroke="rgb(239,235,232)" stroke-width="1" opacity="1" d="M 25.5 15 L 24.5 17 L 25.5 15 Z " /><path fill="rgb(239,235,232)" stroke="rgb(239,235,232)" stroke-width="1" opacity="1" d="M 11.5 16 L 14 19.5 L 11.5 21 L 12 19.5 L 11.5 16 Z " /><path fill="rgb(239,235,232)" stroke="rgb(239,235,232)" stroke-width="1" opacity="1" d="M 3.5 17 L 4 18.5 L 2.5 21 L 1 18.5 L 3 18.5 L 3.5 17 Z " /><path fill="rgb(239,235,232)" stroke="rgb(239,235,232)" stroke-width="1" opacity="1" d="M 5.5 19 Q 8.1 18.2 7 21.5 L 6 21.5 L 5.5 19 Z " /><path fill="rgb(239,235,232)" stroke="rgb(239,235,232)" stroke-width="1" opacity="1" d="M 8.5 21 Q 11.1 20.2 10 23.5 L 10.5 25 L 9 24.5 Q 9.8 26.8 7.5 26 L 9 23.5 L 8.5 21 Z " /><path fill="rgb(239,235,232)" stroke="rgb(239,235,232)" stroke-width="1" opacity="1" d="M 2.5 23 L 1.5 25 L 2.5 23 Z " /><path fill="rgb(239,235,232)" stroke="rgb(239,235,232)" stroke-width="1" opacity="1" d="M 27.5 23 L 28 25.5 L 27 25.5 L 27.5 23 Z " /><path fill="rgb(239,235,232)" stroke="rgb(239,235,232)" stroke-width="1" opacity="1" d="M 13.5 26 L 14 29 L 9 30 L 9.5 27 L 11.5 28 L 13.5 26 Z " /><path fill="rgb(239,235,232)" stroke="rgb(239,235,232)" stroke-width="1" opacity="1" d="M 24.5 27 L 25 28.5 L 23 29.5 L 24.5 27 Z " /><path fill="rgb(239,235,232)" stroke="rgb(239,235,232)" stroke-width="1" opacity="1" d="M 2.5 28 L 3.5 30 L 2.5 28 Z " /><path fill="rgb(239,235,232)" stroke="rgb(239,235,232)" stroke-width="1" opacity="1" d="M 17.5 32 L 18.5 34 L 17.5 32 Z " /><path fill="rgb(239,235,232)" stroke="rgb(239,235,232)" stroke-width="1" opacity="1" d="M 27.5 33 L 26.5 35 L 27.5 33 Z " /><path fill="rgb(252,251,251)" stroke="rgb(252,251,251)" stroke-width="1" opacity="1" d="M 0 0 L 30 0 L 30 50 L 0 50 L 0 0 Z M 2 2 L 2 18 L 2 20 L 1 25 L 3 30 L 2 31 L 2 48 L 28 48 L 28 36 L 24 36 L 28 34 L 27 31 L 28 29 L 27 27 L 28 24 L 28 22 L 28 2 L 2 2 Z " /><path fill="rgb(252,251,251)" stroke="rgb(252,251,251)" stroke-width="1" opacity="1" d="M 14.5 9 L 17 9.5 L 14.5 10 L 14.5 9 Z " /><path fill="rgb(252,251,251)" stroke="rgb(252,251,251)" stroke-width="1" opacity="1" d="M 21.5 13 Q 25 15 20.5 17 L 19 16.5 L 22 14.5 L 21.5 13 Z " /><path fill="rgb(252,251,251)" stroke="rgb(252,251,251)" stroke-width="1" opacity="1" d="M 18 21 Q 21 20 20 23 Q 17 24 18 21 Z " /><path fill="rgb(252,251,251)" stroke="rgb(252,251,251)" stroke-width="1" opacity="1" d="M 7 22 Q 10 21 9 24 Q 6 25 7 22 Z " /><path fill="rgb(252,251,251)" stroke="rgb(252,251,251)" stroke-width="1" opacity="1" d="M 16.5 27 L 17 29.5 L 14 31 Q 12.5 27.3 15.5 28 L 16.5 27 Z " /><path fill="rgb(252,251,251)" stroke="rgb(252,251,251)" stroke-width="1" opacity="1" d="M 20.5 28 Q 25.1 26.6 23 32.5 L 22 32.5 L 20.5 28 Z " /><path fill="rgb(252,251,251)" stroke="rgb(252,251,251)" stroke-width="1" opacity="1" d="M 17.5 34 L 18 36 L 16 35.5 L 17.5 34 Z " /><path fill="rgb(214,211,211)" stroke="rgb(214,211,211)" stroke-width="1" opacity="1" d="M 20.5 12 L 22 14.5 L 20 15.5 L 20 13.5 L 20.5 12 Z " /><path fill="rgb(214,211,211)" stroke="rgb(214,211,211)" stroke-width="1" opacity="1" d="M 2.5 13 L 3 15.5 L 2 15.5 L 2.5 13 Z " /><path fill="rgb(214,211,211)" stroke="rgb(214,211,211)" stroke-width="1" opacity="1" d="M 27.5 14 L 28 15.5 L 26 16.5 L 27.5 14 Z " /><path fill="rgb(214,211,211)" stroke="rgb(214,211,211)" stroke-width="1" opacity="1" d="M 4.5 15 L 5.5 17 L 4.5 15 Z " /><path fill="rgb(214,211,211)" stroke="rgb(214,211,211)" stroke-width="1" opacity="1" d="M 10.5 15 L 11 17.5 L 9 16.5 L 10.5 15 Z " /><path fill="rgb(214,211,211)" stroke="rgb(214,211,211)" stroke-width="1" opacity="1" d="M 18.5 16 L 19 18 L 16 17.5 L 18.5 16 Z " /><path fill="rgb(214,211,211)" stroke="rgb(214,211,211)" stroke-width="1" opacity="1" d="M 20 17 Q 23.3 15.9 22 20 Q 18.7 21.1 20 17 Z " /><path fill="rgb(214,211,211)" stroke="rgb(214,211,211)" stroke-width="1" opacity="1" d="M 7.5 19 L 8 21.5 L 7 21.5 L 7.5 19 Z " /><path fill="rgb(214,211,211)" stroke="rgb(214,211,211)" stroke-width="1" opacity="1" d="M 11.5 19 L 11 20.5 Q 11.8 24.3 9.5 25 L 10 23.5 L 9 20.5 L 11.5 19 Z " /><path fill="rgb(214,211,211)" stroke="rgb(214,211,211)" stroke-width="1" opacity="1" d="M 26.5 19 L 27.5 21 L 26.5 19 Z " /><path fill="rgb(214,211,211)" stroke="rgb(214,211,211)" stroke-width="1" opacity="1" d="M 20.5 29 L 22 31.5 L 20 32.5 L 20 30.5 L 20.5 29 Z " /><path fill="rgb(214,211,211)" stroke="rgb(214,211,211)" stroke-width="1" opacity="1" d="M 15 32 Q 18 30.8 17 34.5 L 15 33.5 L 15 32 Z " /><path fill="rgb(214,211,211)" stroke="rgb(214,211,211)" stroke-width="1" opacity="1" d="M 20.5 34 L 21.5 36 L 20.5 34 Z " /><path fill="rgb(214,211,211)" stroke="rgb(214,211,211)" stroke-width="1" opacity="1" d="M 24.5 36 L 25.5 38 L 24.5 36 Z " /><path fill="rgb(162,203,207)" stroke="rgb(162,203,207)" stroke-width="1" opacity="1" d="M 15.5 3 L 16.5 5 L 15.5 3 Z " /><path fill="rgb(162,203,207)" stroke="rgb(162,203,207)" stroke-width="1" opacity="1" d="M 20.5 5 Q 24 7 19.5 9 L 20.5 5 Z " /><path fill="rgb(162,203,207)" stroke="rgb(162,203,207)" stroke-width="1" opacity="1" d="M 6.5 6 L 8 9 L 6 8.5 L 6.5 6 Z " /><path fill="rgb(162,203,207)" stroke="rgb(162,203,207)" stroke-width="1" opacity="1" d="M 4.5 10 L 6 13.5 L 5 13.5 L 4.5 10 Z " /><path fill="rgb(162,203,207)" stroke="rgb(162,203,207)" stroke-width="1" opacity="1" d="M 23 23 L 25 23.5 L 23.5 26 L 23 23 Z " /><path fill="rgb(162,203,207)" stroke="rgb(162,203,207)" stroke-width="1" opacity="1" d="M 16.5 36 L 15.5 38 L 16.5 36 Z " /><path fill="rgb(162,203,207)" stroke="rgb(162,203,207)" stroke-width="1" opacity="1" d="M 4.5 38 L 5 47.5 L 4 47.5 L 4.5 38 Z " /><path fill="rgb(23,17,25)" stroke="rgb(23,17,25)" stroke-width="1" opacity="1" d="M 6.5 27 L 8 27 L 8 31 L 4 29.5 L 6.5 27 Z " /><path fill="rgb(23,17,25)" stroke="rgb(23,17,25)" stroke-width="1" opacity="1" d="M 5 32 L 10.5 32 L 11 33.5 L 17 40.5 L 14.5 41 L 11 40 L 11 46.5 L 12 47.5 L 5 48 L 6 41.5 L 4 34.5 L 5 32 Z " /><path fill="rgb(223,218,181)" stroke="rgb(223,218,181)" stroke-width="1" opacity="1" d="M 14.5 13 L 17 13.5 Q 14.9 16.8 14.5 13 Z " /><path fill="rgb(223,218,181)" stroke="rgb(223,218,181)" stroke-width="1" opacity="1" d="M 17.5 22 L 17.5 25 Q 15.3 25.8 16 23.5 L 17.5 22 Z " /><path fill="rgb(223,218,181)" stroke="rgb(223,218,181)" stroke-width="1" opacity="1" d="M 18.5 31 L 19 32.5 L 17 33.5 L 18.5 31 Z " /><path fill="rgb(180,176,172)" stroke="rgb(180,176,172)" stroke-width="1" opacity="1" d="M 17.5 6 L 18 7.5 L 15.5 9 L 14.5 7 L 17 8 L 17.5 6 Z " /><path fill="rgb(180,176,172)" stroke="rgb(180,176,172)" stroke-width="1" opacity="1" d="M 12.5 7 L 10.5 10 L 12.5 7 Z " /><path fill="rgb(180,176,172)" stroke="rgb(180,176,172)" stroke-width="1" opacity="1" d="M 19.5 14 L 21 14.5 L 16.5 17 L 16.5 16 L 19.5 14 Z " /><path fill="rgb(180,176,172)" stroke="rgb(180,176,172)" stroke-width="1" opacity="1" d="M 3.5 16 L 2.5 18 L 3.5 16 Z " /><path fill="rgb(180,176,172)" stroke="rgb(180,176,172)" stroke-width="1" opacity="1" d="M 13.5 16 L 15 18.5 L 13 19 L 13.5 16 Z " /><path fill="rgb(180,176,172)" stroke="rgb(180,176,172)" stroke-width="1" opacity="1" d="M 9.5 19 L 8.5 21 L 9.5 19 Z " /><path fill="rgb(180,176,172)" stroke="rgb(180,176,172)" stroke-width="1" opacity="1" d="M 21.5 20 L 22 23.5 L 19 25.5 Q 21.8 24.3 21.5 20 Z " /><path fill="rgb(180,176,172)" stroke="rgb(180,176,172)" stroke-width="1" opacity="1" d="M 14.5 23 L 13.5 25 L 14.5 23 Z " /><path fill="rgb(180,176,172)" stroke="rgb(180,176,172)" stroke-width="1" opacity="1" d="M 9.5 25 L 8.5 27 L 7 26.5 L 9.5 25 Z " /><path fill="rgb(180,176,172)" stroke="rgb(180,176,172)" stroke-width="1" opacity="1" d="M 15.5 25 L 18 25.5 L 15.5 26 L 15.5 25 Z " /><path fill="rgb(180,176,172)" stroke="rgb(180,176,172)" stroke-width="1" opacity="1" d="M 17 28 Q 20 26.8 19 30.5 L 16 32 L 17 28 Z " /><path fill="rgb(180,176,172)" stroke="rgb(180,176,172)" stroke-width="1" opacity="1" d="M 22 34 L 24 34.5 L 22 35.5 L 22 34 Z " /><path fill="rgb(180,176,172)" stroke="rgb(180,176,172)" stroke-width="1" opacity="1" d="M 26.5 37 L 28 37.5 L 25.5 39 L 26.5 37 Z " /><path fill="rgb(97,74,66)" stroke="rgb(97,74,66)" stroke-width="1" opacity="1" d="M 23.5 3 L 24 5 L 22 4.5 L 23.5 3 Z " /><path fill="rgb(97,74,66)" stroke="rgb(97,74,66)" stroke-width="1" opacity="1" d="M 13.5 6 L 14 7.5 L 13 10 L 11 9.5 L 13.5 6 Z " /><path fill="rgb(97,74,66)" stroke="rgb(97,74,66)" stroke-width="1" opacity="1" d="M 6.5 11 L 7 13.5 L 6 13.5 L 6.5 11 Z " /><path fill="rgb(97,74,66)" stroke="rgb(97,74,66)" stroke-width="1" opacity="1" d="M 14.5 11 L 17 11.5 L 14.5 12 L 14.5 11 Z " /><path fill="rgb(97,74,66)" stroke="rgb(97,74,66)" stroke-width="1" opacity="1" d="M 4.5 14 L 5.5 16 L 4.5 14 Z " /><path fill="rgb(97,74,66)" stroke="rgb(97,74,66)" stroke-width="1" opacity="1" d="M 25.5 19 L 28 19.5 Q 25.9 22.8 25.5 19 Z " /><path fill="rgb(97,74,66)" stroke="rgb(97,74,66)" stroke-width="1" opacity="1" d="M 16.5 20 L 15.5 22 L 13.5 23 L 14.5 21 L 16.5 20 Z " /><path fill="rgb(97,74,66)" stroke="rgb(97,74,66)" stroke-width="1" opacity="1" d="M 26.5 24 L 25.5 26 L 26.5 24 Z " /><path fill="rgb(40,33,36)" stroke="rgb(40,33,36)" stroke-width="1" opacity="1" d="M 2.5 24 L 4 26.5 L 3 26.5 L 2.5 24 Z " /><path fill="rgb(40,33,36)" stroke="rgb(40,33,36)" stroke-width="1" opacity="1" d="M 11.5 33 L 14 36.5 L 12 35.5 L 11.5 33 Z " /><path fill="rgb(40,33,36)" stroke="rgb(40,33,36)" stroke-width="1" opacity="1" d="M 15.5 38 L 18.5 39 L 20 38.5 L 16.5 40 L 15.5 38 Z " /><path fill="rgb(128,167,172)" stroke="rgb(128,167,172)" stroke-width="1" opacity="1" d="M 6.5 4 L 5 6.5 L 6 8.5 L 4 9.5 L 4 7.5 L 6.5 4 Z " /><path fill="rgb(128,167,172)" stroke="rgb(128,167,172)" stroke-width="1" opacity="1" d="M 27.5 6 L 28 11.5 L 27 11.5 L 27.5 6 Z " /><path fill="rgb(128,167,172)" stroke="rgb(128,167,172)" stroke-width="1" opacity="1" d="M 26.5 22 L 25.5 24 L 26.5 22 Z " /><path fill="rgb(180,247,251)" stroke="rgb(180,247,251)" stroke-width="1" opacity="1" d="M 2.5 2 L 7 2.5 L 3.5 4 L 2.5 2 Z " /><path fill="rgb(180,247,251)" stroke="rgb(180,247,251)" stroke-width="1" opacity="1" d="M 14.5 2 L 17.5 3 L 19.5 2 L 19 3.5 L 18.5 7 L 15.5 3 L 14.5 2 Z " /><path fill="rgb(180,247,251)" stroke="rgb(180,247,251)" stroke-width="1" opacity="1" d="M 22.5 2 L 27 2.5 L 22.5 3 L 22.5 2 Z " /><path fill="rgb(180,247,251)" stroke="rgb(180,247,251)" stroke-width="1" opacity="1" d="M 9.5 4 Q 11.3 7.1 13 5.5 L 10 7 L 9.5 4 Z " /><path fill="rgb(180,247,251)" stroke="rgb(180,247,251)" stroke-width="1" opacity="1" d="M 25 5 L 27 5 L 27 11 L 24 9.5 L 25 6.5 L 25 5 Z " /><path fill="rgb(180,247,251)" stroke="rgb(180,247,251)" stroke-width="1" opacity="1" d="M 20.5 6 L 22 9 L 20 8.5 L 20.5 6 Z " /><path fill="rgb(180,247,251)" stroke="rgb(180,247,251)" stroke-width="1" opacity="1" d="M 2.5 7 L 3.5 9 L 2.5 7 Z " /><path fill="rgb(180,247,251)" stroke="rgb(180,247,251)" stroke-width="1" opacity="1" d="M 3.5 11 L 5 11.5 L 2.5 13 L 3.5 11 Z " /><path fill="rgb(180,247,251)" stroke="rgb(180,247,251)" stroke-width="1" opacity="1" d="M 11.5 12 L 13 15 L 9.5 16 Q 6.5 14.5 9.5 13 L 11.5 12 Z " /><path fill="rgb(180,247,251)" stroke="rgb(180,247,251)" stroke-width="1" opacity="1" d="M 24 21 L 26 21.5 L 24 22.5 L 24 21 Z " /><path fill="rgb(180,247,251)" stroke="rgb(180,247,251)" stroke-width="1" opacity="1" d="M 15.5 36 L 18 37.5 L 16.5 38 L 15.5 36 Z " /><path fill="rgb(180,247,251)" stroke="rgb(180,247,251)" stroke-width="1" opacity="1" d="M 20.5 37 L 23.5 37 Q 22.7 40.3 28 39 L 28 42.5 L 25 43.5 L 26.5 47 L 28 47.5 L 13.5 48 L 15 45.5 L 16 43.5 L 14 43 Q 12.7 39.7 17.5 41 L 22 38.5 L 20.5 37 Z " /><path fill="rgb(167,244,250)" stroke="rgb(167,244,250)" stroke-width="1" opacity="1" d="M 7.5 2 L 14 2.5 L 11.5 6 Q 10.1 2.7 5 4 L 4 7.5 L 4 9.5 L 2.5 12 L 2 8.5 L 2 6.5 L 2.5 3 L 4.5 3 L 7.5 2 Z " /><path fill="rgb(167,244,250)" stroke="rgb(167,244,250)" stroke-width="1" opacity="1" d="M 4.5 21 L 5 23.5 L 3 24.5 L 4.5 21 Z " /><path fill="rgb(167,244,250)" stroke="rgb(167,244,250)" stroke-width="1" opacity="1" d="M 2 37 L 4 37.5 L 4 48 L 2 47.5 L 2 37 Z " /><path fill="rgb(167,244,250)" stroke="rgb(167,244,250)" stroke-width="1" opacity="1" d="M 12 41 L 14 41 Q 12.9 43.7 15.5 43 L 15 44.5 L 13.5 47 Q 10.8 45.6 12 41 Z " /><path fill="rgb(167,244,250)" stroke="rgb(167,244,250)" stroke-width="1" opacity="1" d="M 26.5 42 L 28 44.5 L 26.5 44 L 25 43.5 L 26.5 42 Z " /></svg>