<svg width="30" height="50" version="1.1" xmlns="http://www.w3.org/2000/svg" desc="Created with imagetracer.js version 1.2.6" ><path fill="rgb(250,251,249)" stroke="rgb(250,251,249)" stroke-width="1" opacity="1" d="M 0 0 L 30 0 L 30 50 L 0 50 L 0 0 Z M 2 1 L 2 49 L 28 48 L 28 1 L 2 1 Z " /><path fill="rgb(202,200,197)" stroke="rgb(202,200,197)" stroke-width="1" opacity="1" d="M 16.5 37 L 17.5 39 L 16.5 37 Z " /><path fill="rgb(137,193,203)" stroke="rgb(137,193,203)" stroke-width="1" opacity="1" d="M 2.5 2 L 4.5 2 L 16.5 2 L 17 3.5 L 18 3.5 L 18.5 2 L 27 2 L 27 14.5 L 24.5 15 L 22.5 15 Q 19.5 15.9 21 11.5 Q 19.5 8.5 18 11.5 L 19 14 L 17 13.5 L 17 11.5 L 20.5 8 L 23 6.5 L 20.5 5 L 17 6.5 Q 19.2 7.8 16.5 9 L 14 8.5 L 14.5 7 L 12 8.5 L 11.5 13 L 10 9.5 L 10.5 8 L 6.5 9 L 2 5.5 L 3 3.5 L 2.5 2 Z M 12 3 L 12 5 L 15 6 L 17 5 Q 16 2 12 3 Z M 24 11 L 23 13 Q 27 14 26 12 L 24 11 Z " /><path fill="rgb(137,193,203)" stroke="rgb(137,193,203)" stroke-width="1" opacity="1" d="M 4.5 11 L 6 14.5 L 4.5 14 Q 2.3 14.8 3 12.5 L 4.5 11 Z " /><path fill="rgb(137,193,203)" stroke="rgb(137,193,203)" stroke-width="1" opacity="1" d="M 22.5 16 L 20.5 19 L 22.5 16 Z " /><path fill="rgb(137,193,203)" stroke="rgb(137,193,203)" stroke-width="1" opacity="1" d="M 25.5 16 L 27 16.5 L 24.5 18 L 25.5 16 Z " /><path fill="rgb(130,170,177)" stroke="rgb(130,170,177)" stroke-width="1" opacity="1" d="M 27.5 4 L 28 8.5 L 27 8.5 L 27.5 4 Z " /><path fill="rgb(130,170,177)" stroke="rgb(130,170,177)" stroke-width="1" opacity="1" d="M 5.5 9 L 7 9.5 L 4.5 11 L 5.5 9 Z " /><path fill="rgb(130,170,177)" stroke="rgb(130,170,177)" stroke-width="1" opacity="1" d="M 5.5 13 L 6.5 15 L 5.5 13 Z " /><path fill="rgb(130,170,177)" stroke="rgb(130,170,177)" stroke-width="1" opacity="1" d="M 27.5 13 L 28 19.5 L 26 18.5 L 27.5 13 Z " /><path fill="rgb(130,170,177)" stroke="rgb(130,170,177)" stroke-width="1" opacity="1" d="M 11.5 35 L 12 37 L 10 36.5 L 11.5 35 Z " /><path fill="rgb(130,170,177)" stroke="rgb(130,170,177)" stroke-width="1" opacity="1" d="M 13 35 L 16 35.5 L 13.5 37 L 13 35 Z " /><path fill="rgb(130,170,177)" stroke="rgb(130,170,177)" stroke-width="1" opacity="1" d="M 17.5 37 Q 20.8 35.9 20 38.5 L 18.5 38 L 17.5 37 Z " /><path fill="rgb(130,170,177)" stroke="rgb(130,170,177)" stroke-width="1" opacity="1" d="M 3.5 38 L 3 39.5 L 2.5 41 L 2 39.5 L 3.5 38 Z " /><path fill="rgb(130,170,177)" stroke="rgb(130,170,177)" stroke-width="1" opacity="1" d="M 15.5 39 L 18 39.5 L 15.5 40 L 15.5 39 Z " /><path fill="rgb(130,170,177)" stroke="rgb(130,170,177)" stroke-width="1" opacity="1" d="M 24.5 39 L 27 40.5 L 25.5 40 L 24.5 39 Z " /><path fill="rgb(138,201,215)" stroke="rgb(138,201,215)" stroke-width="1" opacity="1" d="M 18.5 6 L 22 6.5 L 18.5 7 L 18.5 6 Z " /><path fill="rgb(138,201,215)" stroke="rgb(138,201,215)" stroke-width="1" opacity="1" d="M 3.5 14 L 3 15.5 L 4 20 Q 7.4 19.3 8.5 22 L 9 20.5 L 8.5 19 L 10 19.5 L 10.5 17 L 12 19.5 L 11.5 22 L 7.5 23 L 3.5 22 L 2 22.5 Q 0.2 15.7 3.5 14 Z " /><path fill="rgb(138,201,215)" stroke="rgb(138,201,215)" stroke-width="1" opacity="1" d="M 10.5 24 L 12.5 27 L 10 26 L 10.5 24 Z " /><path fill="rgb(138,201,215)" stroke="rgb(138,201,215)" stroke-width="1" opacity="1" d="M 16.5 32 L 15.5 34 L 16.5 32 Z " /><path fill="rgb(138,201,215)" stroke="rgb(138,201,215)" stroke-width="1" opacity="1" d="M 2.5 34 L 5 34.5 L 2.5 35 L 2.5 34 Z " /><path fill="rgb(136,196,208)" stroke="rgb(136,196,208)" stroke-width="1" opacity="1" d="M 3.5 2 L 3 3.5 L 2.5 5 L 2 3.5 L 3.5 2 Z " /><path fill="rgb(136,196,208)" stroke="rgb(136,196,208)" stroke-width="1" opacity="1" d="M 2.5 6 L 6 8.5 L 3 9.5 L 4 12 L 2 12 L 2.5 6 Z " /><path fill="rgb(136,196,208)" stroke="rgb(136,196,208)" stroke-width="1" opacity="1" d="M 17.5 6 L 21.5 7 L 23 6.5 L 19 9.5 Q 22 10.8 21 15 L 23.5 14 L 27 15.5 L 25 16.5 L 27 17.5 L 25.5 18 L 22.5 16 L 16.5 21 L 15 20.5 L 14 26 L 11.5 27 L 10.5 24 L 9.5 26 L 6 23.5 L 6.5 22 L 9.5 23 L 12 21.5 L 11 18.5 L 10.5 17 L 8.5 22 Q 7.4 19.3 4 20 L 2 13.5 L 3 13.5 L 3.5 15 L 5.5 15 Q 11 16 12 12.5 Q 11 8 13.5 7 L 15 7.5 L 14.5 9 L 18 7.5 L 17.5 6 Z M 19 12 L 17 14 L 19 14 L 19 12 Z " /><path fill="rgb(136,196,208)" stroke="rgb(136,196,208)" stroke-width="1" opacity="1" d="M 23.5 11 L 26 11.5 Q 26.7 14.5 23 13 L 23.5 11 Z " /><path fill="rgb(84,103,110)" stroke="rgb(84,103,110)" stroke-width="1" opacity="1" d="M 5.5 1 L 13 1.5 L 5.5 2 L 5.5 1 Z " /><path fill="rgb(84,103,110)" stroke="rgb(84,103,110)" stroke-width="1" opacity="1" d="M 23.5 1 L 26 1.5 L 23.5 2 L 23.5 1 Z " /><path fill="rgb(84,103,110)" stroke="rgb(84,103,110)" stroke-width="1" opacity="1" d="M 15.5 3 L 16.5 5 L 15.5 3 Z " /><path fill="rgb(84,103,110)" stroke="rgb(84,103,110)" stroke-width="1" opacity="1" d="M 27.5 9 L 28 12.5 L 27 12.5 L 27.5 9 Z " /><path fill="rgb(84,103,110)" stroke="rgb(84,103,110)" stroke-width="1" opacity="1" d="M 18.5 20 L 17.5 22 L 18.5 20 Z " /><path fill="rgb(84,103,110)" stroke="rgb(84,103,110)" stroke-width="1" opacity="1" d="M 14.5 25 L 13.5 27 L 14.5 25 Z " /><path fill="rgb(84,103,110)" stroke="rgb(84,103,110)" stroke-width="1" opacity="1" d="M 13 28 L 16 29.5 L 13 29.5 L 13 28 Z " /><path fill="rgb(84,103,110)" stroke="rgb(84,103,110)" stroke-width="1" opacity="1" d="M 15.5 31 L 18 32.5 L 16 33.5 L 16.5 32 Q 14.3 31.3 15 33.5 L 14 33.5 L 15.5 31 Z " /><path fill="rgb(84,103,110)" stroke="rgb(84,103,110)" stroke-width="1" opacity="1" d="M 14.5 36 L 16 38.5 L 15 38.5 L 14.5 36 Z " /><path fill="rgb(48,34,11)" stroke="rgb(48,34,11)" stroke-width="1" opacity="1" d="M 26.5 19 L 27 22.5 L 26 22.5 L 26.5 19 Z " /><path fill="rgb(48,34,11)" stroke="rgb(48,34,11)" stroke-width="1" opacity="1" d="M 18.5 21 L 19.5 23 Q 16.7 23.7 18.5 21 Z " /><path fill="rgb(48,34,11)" stroke="rgb(48,34,11)" stroke-width="1" opacity="1" d="M 4.5 24 L 4 25.5 L 3.5 27 L 3 25.5 L 4.5 24 Z " /><path fill="rgb(48,34,11)" stroke="rgb(48,34,11)" stroke-width="1" opacity="1" d="M 23.5 25 L 24 26.5 L 22.5 29 L 22 27.5 L 23.5 25 Z " /><path fill="rgb(48,34,11)" stroke="rgb(48,34,11)" stroke-width="1" opacity="1" d="M 11.5 29 L 12.5 31 L 11.5 29 Z " /><path fill="rgb(48,34,11)" stroke="rgb(48,34,11)" stroke-width="1" opacity="1" d="M 23.5 31 L 28 31.5 L 19.5 34 L 18.5 32 L 23.5 31 Z " /><path fill="rgb(48,34,11)" stroke="rgb(48,34,11)" stroke-width="1" opacity="1" d="M 9.5 40 L 10.5 42 L 4 41.5 L 9.5 40 Z " /><path fill="rgb(48,34,11)" stroke="rgb(48,34,11)" stroke-width="1" opacity="1" d="M 15.5 40 L 23 41.5 L 20.5 43 L 16.5 42 L 15 42.5 L 15.5 40 Z " /><path fill="rgb(125,108,30)" stroke="rgb(125,108,30)" stroke-width="1" opacity="1" d="M 11.5 32 L 13 35.5 L 11 34.5 L 11.5 32 Z " /><path fill="rgb(125,108,30)" stroke="rgb(125,108,30)" stroke-width="1" opacity="1" d="M 18 43 Q 21.8 41.5 21 44.5 L 18 44.5 L 18 43 Z " /><path fill="rgb(17,14,15)" stroke="rgb(17,14,15)" stroke-width="1" opacity="1" d="M 22.5 18 L 26 19.5 L 21 20.5 L 25 21 Q 24 24 27 23 L 27.5 20 L 28 27 L 23.5 28 L 24 26.5 L 25 24.5 L 20 22.5 L 20.5 21 L 19 20.5 L 22.5 18 Z " /><path fill="rgb(17,14,15)" stroke="rgb(17,14,15)" stroke-width="1" opacity="1" d="M 4.5 22 L 5 23.5 Q 2 24.5 3 29.5 L 4.5 33 L 6 32.5 L 3.5 34 L 2 30.5 L 2 24.5 Q 4.4 25.1 4.5 22 Z " /><path fill="rgb(17,14,15)" stroke="rgb(17,14,15)" stroke-width="1" opacity="1" d="M 17.5 22 L 17 23.5 L 16 28 L 12 28.5 L 13.5 31 L 6 26.5 L 8.5 26 L 13.5 27 L 17.5 22 Z " /><path fill="rgb(17,14,15)" stroke="rgb(17,14,15)" stroke-width="1" opacity="1" d="M 21 29 Q 24 28 23 31 Q 20 32 21 29 Z " /><path fill="rgb(17,14,15)" stroke="rgb(17,14,15)" stroke-width="1" opacity="1" d="M 9.5 33 Q 11.8 32.3 11 34.5 L 9.5 33 Z " /><path fill="rgb(17,14,15)" stroke="rgb(17,14,15)" stroke-width="1" opacity="1" d="M 2 36 L 7 37.5 L 2 38 L 2 36 Z " /><path fill="rgb(17,14,15)" stroke="rgb(17,14,15)" stroke-width="1" opacity="1" d="M 9 37 Q 12 36 11 39 Q 8 40 9 37 Z " /><path fill="rgb(17,14,15)" stroke="rgb(17,14,15)" stroke-width="1" opacity="1" d="M 5.5 39 L 3.5 42 L 2 41.5 L 5.5 39 Z " /><path fill="rgb(221,13,6)" stroke="rgb(221,13,6)" stroke-width="1" opacity="1" d="M 17 23 L 23 24 L 22 29 Q 19 28 20 31 L 16 31 L 17 23 Z " /><path fill="rgb(224,206,75)" stroke="rgb(224,206,75)" stroke-width="1" opacity="1" d="M 7.5 9 L 11 10 Q 11.8 13.8 8.5 15 L 5 12.5 L 7.5 9 Z " /><path fill="rgb(224,206,75)" stroke="rgb(224,206,75)" stroke-width="1" opacity="1" d="M 4.5 25 L 6 29 L 10 29.5 L 5.5 31 L 4.5 25 Z " /><path fill="rgb(224,206,75)" stroke="rgb(224,206,75)" stroke-width="1" opacity="1" d="M 24.5 30 L 28 30.5 L 24.5 31 L 24.5 30 Z " /><path fill="rgb(224,206,75)" stroke="rgb(224,206,75)" stroke-width="1" opacity="1" d="M 6.5 33 Q 9.1 32.2 8 35.5 L 7 35.5 L 6.5 33 Z " /><path fill="rgb(224,206,75)" stroke="rgb(224,206,75)" stroke-width="1" opacity="1" d="M 21.5 33 Q 24.5 34.5 21.5 36 Q 18.5 34.5 21.5 33 Z " /><path fill="rgb(224,206,75)" stroke="rgb(224,206,75)" stroke-width="1" opacity="1" d="M 7.5 38 L 8 40.5 L 7 40.5 L 7.5 38 Z " /><path fill="rgb(224,206,75)" stroke="rgb(224,206,75)" stroke-width="1" opacity="1" d="M 12.5 39 L 13.5 41 L 12.5 39 Z " /><path fill="rgb(224,206,75)" stroke="rgb(224,206,75)" stroke-width="1" opacity="1" d="M 23.5 41 L 26.5 42 L 28 41.5 L 28 44 L 23 44 L 23 45.5 Q 24.3 48.3 25.5 46 L 27.5 45 L 28 48 L 25.5 47 L 23.5 48 L 21 47.5 L 21.5 46 L 20 45.5 L 23.5 41 Z " /><path fill="rgb(224,206,75)" stroke="rgb(224,206,75)" stroke-width="1" opacity="1" d="M 2 42 L 5 42.5 L 4 46.5 L 4.5 48 L 2 48 L 2 42 Z " /><path fill="rgb(224,206,75)" stroke="rgb(224,206,75)" stroke-width="1" opacity="1" d="M 7 42 L 10 42.5 L 8 46 L 10 46.5 L 7.5 48 L 5 44.5 L 7 44 L 7 42 Z " /><path fill="rgb(224,206,75)" stroke="rgb(224,206,75)" stroke-width="1" opacity="1" d="M 12 42 L 14 42.5 L 13 46 L 17 44.5 Q 15.9 41.2 18.5 42 L 18 43.5 L 19 47.5 L 17.5 48 L 13.5 47 Q 12.3 49.3 11 46.5 L 12 42 Z " /><path fill="rgb(132,122,73)" stroke="rgb(132,122,73)" stroke-width="1" opacity="1" d="M 8.5 25 L 9.5 27 L 8.5 25 Z " /><path fill="rgb(132,122,73)" stroke="rgb(132,122,73)" stroke-width="1" opacity="1" d="M 24.5 32 L 25.5 34 Q 22.7 34.7 24.5 32 Z " /><path fill="rgb(132,122,73)" stroke="rgb(132,122,73)" stroke-width="1" opacity="1" d="M 17.5 34 L 19 34.5 L 16.5 36 L 17.5 34 Z " /><path fill="rgb(132,122,73)" stroke="rgb(132,122,73)" stroke-width="1" opacity="1" d="M 8.5 35 L 7.5 37 L 8.5 35 Z " /><path fill="rgb(165,151,69)" stroke="rgb(165,151,69)" stroke-width="1" opacity="1" d="M 8.5 27 L 9.5 29 L 8.5 27 Z " /><path fill="rgb(165,151,69)" stroke="rgb(165,151,69)" stroke-width="1" opacity="1" d="M 23.5 29 L 26 29.5 L 23.5 30 L 23.5 29 Z " /><path fill="rgb(165,151,69)" stroke="rgb(165,151,69)" stroke-width="1" opacity="1" d="M 22.5 33 L 28 34 Q 29.6 38.9 24 37 L 22.5 33 Z " /><path fill="rgb(165,151,69)" stroke="rgb(165,151,69)" stroke-width="1" opacity="1" d="M 18.5 35 L 20 35.5 L 16.5 37 L 16.5 36 L 18.5 35 Z " /><path fill="rgb(165,151,69)" stroke="rgb(165,151,69)" stroke-width="1" opacity="1" d="M 12.5 38 Q 15.5 39.5 12.5 41 L 11 40.5 L 13 39.5 L 12.5 38 Z " /><path fill="rgb(165,151,69)" stroke="rgb(165,151,69)" stroke-width="1" opacity="1" d="M 14.5 42 L 14 43.5 L 13.5 46 L 13 43.5 L 14.5 42 Z " /><path fill="rgb(165,151,69)" stroke="rgb(165,151,69)" stroke-width="1" opacity="1" d="M 9.5 43 L 12 43.5 L 10.5 47 L 9.5 44 L 8.5 46 L 8 44.5 L 9.5 43 Z " /><path fill="rgb(165,151,69)" stroke="rgb(165,151,69)" stroke-width="1" opacity="1" d="M 16.5 44 L 15.5 46 L 16.5 44 Z " /><path fill="rgb(165,151,69)" stroke="rgb(165,151,69)" stroke-width="1" opacity="1" d="M 19.5 45 L 20.5 47 L 22 46.5 L 19 48 L 19.5 45 Z " /><path fill="rgb(57,58,46)" stroke="rgb(57,58,46)" stroke-width="1" opacity="1" d="M 13.5 1 L 17 1.5 L 13.5 2 L 13.5 1 Z " /><path fill="rgb(57,58,46)" stroke="rgb(57,58,46)" stroke-width="1" opacity="1" d="M 18.5 1 L 23 1.5 L 18.5 2 L 18.5 1 Z " /><path fill="rgb(57,58,46)" stroke="rgb(57,58,46)" stroke-width="1" opacity="1" d="M 13 3 L 15 3.5 L 13 4.5 L 13 3 Z " /><path fill="rgb(57,58,46)" stroke="rgb(57,58,46)" stroke-width="1" opacity="1" d="M 5.5 22 L 8 25.5 L 6.5 25 Q 3.4 25.7 5.5 22 Z " /><path fill="rgb(57,58,46)" stroke="rgb(57,58,46)" stroke-width="1" opacity="1" d="M 4.5 31 L 6 33.5 L 4 32.5 L 4.5 31 Z " /><path fill="rgb(57,58,46)" stroke="rgb(57,58,46)" stroke-width="1" opacity="1" d="M 11.5 31 L 15 31.5 L 11.5 32 L 11.5 31 Z " /><path fill="rgb(57,58,46)" stroke="rgb(57,58,46)" stroke-width="1" opacity="1" d="M 20.5 31 L 23 31.5 L 20.5 32 L 20.5 31 Z " /><path fill="rgb(57,58,46)" stroke="rgb(57,58,46)" stroke-width="1" opacity="1" d="M 8.5 37 L 9 39 L 11.5 38 L 10.5 40 L 8 38.5 L 8.5 37 Z " /><path fill="rgb(57,58,46)" stroke="rgb(57,58,46)" stroke-width="1" opacity="1" d="M 5.5 38 Q 8.5 39.5 5.5 41 L 3 39.5 L 5.5 38 Z " /><path fill="rgb(57,58,46)" stroke="rgb(57,58,46)" stroke-width="1" opacity="1" d="M 7.5 48 L 11 48.5 L 7.5 49 L 7.5 48 Z " /><path fill="rgb(96,86,43)" stroke="rgb(96,86,43)" stroke-width="1" opacity="1" d="M 19.5 34 L 21 36.5 L 20 36.5 L 19.5 34 Z " /><path fill="rgb(96,86,43)" stroke="rgb(96,86,43)" stroke-width="1" opacity="1" d="M 22.5 35 L 24 39 L 22 38.5 L 22 36.5 L 22.5 35 Z " /><path fill="rgb(96,86,43)" stroke="rgb(96,86,43)" stroke-width="1" opacity="1" d="M 24.5 40 L 27 41.5 L 25.5 41 L 24.5 40 Z " /><path fill="rgb(96,86,43)" stroke="rgb(96,86,43)" stroke-width="1" opacity="1" d="M 12.5 41 L 15 41.5 L 11.5 43 L 12.5 41 Z " /><path fill="rgb(96,86,43)" stroke="rgb(96,86,43)" stroke-width="1" opacity="1" d="M 5.5 47 L 6.5 49 L 4 48.5 L 5.5 47 Z " /><path fill="rgb(96,86,43)" stroke="rgb(96,86,43)" stroke-width="1" opacity="1" d="M 9.5 47 L 13 48.5 L 11.5 49 L 9.5 47 Z " /><path fill="rgb(96,86,43)" stroke="rgb(96,86,43)" stroke-width="1" opacity="1" d="M 14 47 L 16 47.5 L 14 48.5 L 14 47 Z " /></svg>