<svg width="30" height="50" version="1.1" xmlns="http://www.w3.org/2000/svg" desc="Created with imagetracer.js version 1.2.6" ><path fill="rgb(241,219,59)" stroke="rgb(241,219,59)" stroke-width="1" opacity="1" d="M 12.5 6 L 15 7.5 L 13.5 7 L 11.5 8 L 12.5 6 Z " /><path fill="rgb(241,219,59)" stroke="rgb(241,219,59)" stroke-width="1" opacity="1" d="M 21.5 6 L 24 10.5 L 22 11.5 L 22 9.5 L 21.5 6 Z " /><path fill="rgb(241,219,59)" stroke="rgb(241,219,59)" stroke-width="1" opacity="1" d="M 26.5 6 L 28 8.5 L 26 7.5 L 26.5 6 Z " /><path fill="rgb(241,219,59)" stroke="rgb(241,219,59)" stroke-width="1" opacity="1" d="M 3.5 39 L 2.5 41 L 3.5 39 Z " /><path fill="rgb(212,109,47)" stroke="rgb(212,109,47)" stroke-width="1" opacity="1" d="M 3.5 16 Q 7.3 15 6 18 L 3.5 16 Z " /><path fill="rgb(212,109,47)" stroke="rgb(212,109,47)" stroke-width="1" opacity="1" d="M 8.5 20 L 11 21.5 Q 11.7 24.1 9 23 L 8.5 20 Z " /><path fill="rgb(212,109,47)" stroke="rgb(212,109,47)" stroke-width="1" opacity="1" d="M 4.5 21 Q 7.8 19.9 7 22.5 L 7.5 24 L 4.5 22 L 4.5 21 Z " /><path fill="rgb(253,232,37)" stroke="rgb(253,232,37)" stroke-width="1" opacity="1" d="M 2 2 L 26.5 2 L 28 3.5 L 27.5 7 L 24 6.5 L 23.5 9 L 21.5 6 L 17.5 14 L 17 10.5 Q 19.2 9.3 16.5 8 L 12.5 6 L 9.5 8 Q 8.3 5.8 7 8.5 L 8 11.5 L 6.5 11 L 3.5 12 Q 1 8.4 2 2 Z M 14 3 Q 13 6 16 5 Q 17 2 14 3 Z " /><path fill="rgb(138,115,43)" stroke="rgb(138,115,43)" stroke-width="1" opacity="1" d="M 9.5 10 L 12 11.5 L 10.5 11 L 9.5 10 Z " /><path fill="rgb(138,115,43)" stroke="rgb(138,115,43)" stroke-width="1" opacity="1" d="M 15.5 10 L 16 13 L 13.5 14 L 13.5 11 L 15 11.5 L 15.5 10 Z " /><path fill="rgb(138,115,43)" stroke="rgb(138,115,43)" stroke-width="1" opacity="1" d="M 20.5 11 L 19.5 13 L 20.5 11 Z " /><path fill="rgb(138,115,43)" stroke="rgb(138,115,43)" stroke-width="1" opacity="1" d="M 2 20 L 4 20.5 L 2 21.5 L 2 20 Z " /><path fill="rgb(138,115,43)" stroke="rgb(138,115,43)" stroke-width="1" opacity="1" d="M 4.5 22 L 4 23.5 Q 4.8 25.8 2.5 25 L 4.5 22 Z " /><path fill="rgb(138,115,43)" stroke="rgb(138,115,43)" stroke-width="1" opacity="1" d="M 5.5 39 L 4.5 41 L 5.5 39 Z " /><path fill="rgb(138,115,43)" stroke="rgb(138,115,43)" stroke-width="1" opacity="1" d="M 21.5 39 L 22.5 41 Q 19.7 41.7 21.5 39 Z " /><path fill="rgb(138,115,43)" stroke="rgb(138,115,43)" stroke-width="1" opacity="1" d="M 10.5 40 L 13 41 L 12.5 43 L 10.5 40 Z " /><path fill="rgb(138,115,43)" stroke="rgb(138,115,43)" stroke-width="1" opacity="1" d="M 15.5 40 L 19 41 L 18.5 43 L 16 42.5 L 15.5 40 Z " /><path fill="rgb(138,115,43)" stroke="rgb(138,115,43)" stroke-width="1" opacity="1" d="M 6.5 41 L 4.5 44 L 4 42 L 6.5 41 Z " /><path fill="rgb(138,115,43)" stroke="rgb(138,115,43)" stroke-width="1" opacity="1" d="M 25.5 42 L 28 42.5 L 25 44 L 25.5 42 Z " /><path fill="rgb(119,23,13)" stroke="rgb(119,23,13)" stroke-width="1" opacity="1" d="M 2.5 17 L 3.5 19 L 2.5 17 Z " /><path fill="rgb(119,23,13)" stroke="rgb(119,23,13)" stroke-width="1" opacity="1" d="M 5.5 20 Q 8.8 18.9 8 21.5 L 6.5 21 L 5.5 20 Z " /><path fill="rgb(119,23,13)" stroke="rgb(119,23,13)" stroke-width="1" opacity="1" d="M 4.5 26 L 5 29 Q 2.3 30.1 3 27.5 L 4.5 26 Z " /><path fill="rgb(119,23,13)" stroke="rgb(119,23,13)" stroke-width="1" opacity="1" d="M 6.5 27 L 12 29 L 13.5 32 L 16.5 34 L 15.5 36 L 11.5 37 L 11 34.5 Q 12 30 9.5 29 Q 5.7 29.5 6.5 27 Z " /><path fill="rgb(148,134,127)" stroke="rgb(148,134,127)" stroke-width="1" opacity="1" d="M 14.5 15 L 16 18 L 14 18.5 L 18 20.5 L 15.5 21 L 12.5 17 Q 13.8 19.2 15 16.5 L 14.5 15 Z " /><path fill="rgb(148,134,127)" stroke="rgb(148,134,127)" stroke-width="1" opacity="1" d="M 10.5 17 L 14 21.5 L 12 22.5 L 13 21.5 L 10 18.5 L 10.5 17 Z " /><path fill="rgb(148,134,127)" stroke="rgb(148,134,127)" stroke-width="1" opacity="1" d="M 19.5 22 Q 21.8 21.3 21 23.5 L 19.5 22 Z " /><path fill="rgb(148,134,127)" stroke="rgb(148,134,127)" stroke-width="1" opacity="1" d="M 11.5 24 Q 14.5 25.5 11.5 27 L 11.5 24 Z " /><path fill="rgb(148,134,127)" stroke="rgb(148,134,127)" stroke-width="1" opacity="1" d="M 15.5 24 L 17.5 24 L 19 24.5 L 14.5 26 L 15.5 24 Z " /><path fill="rgb(148,134,127)" stroke="rgb(148,134,127)" stroke-width="1" opacity="1" d="M 25.5 26 L 28 26.5 L 27 28.5 L 28 29.5 L 26.5 32 L 28 32.5 L 26.5 33 L 24 32.5 Q 26.8 31.8 26 27.5 L 25.5 26 Z " /><path fill="rgb(148,134,127)" stroke="rgb(148,134,127)" stroke-width="1" opacity="1" d="M 14.5 27 L 16.5 30 L 18 29.5 Q 18.8 31.8 16.5 31 L 14 30.5 L 14.5 27 Z " /><path fill="rgb(148,134,127)" stroke="rgb(148,134,127)" stroke-width="1" opacity="1" d="M 19 29 L 21 29.5 L 19 30.5 L 19 29 Z " /><path fill="rgb(148,134,127)" stroke="rgb(148,134,127)" stroke-width="1" opacity="1" d="M 22.5 30 L 21.5 32 L 22.5 30 Z " /><path fill="rgb(148,134,127)" stroke="rgb(148,134,127)" stroke-width="1" opacity="1" d="M 16.5 32 L 17.5 34 L 16.5 32 Z " /><path fill="rgb(148,134,127)" stroke="rgb(148,134,127)" stroke-width="1" opacity="1" d="M 20.5 35 L 22 38.5 L 19.5 41 L 19 39 L 21 38.5 L 20.5 35 Z " /><path fill="rgb(148,134,127)" stroke="rgb(148,134,127)" stroke-width="1" opacity="1" d="M 24.5 35 L 25 37 L 27 37.5 L 25.5 38 L 24.5 35 Z " /><path fill="rgb(148,134,127)" stroke="rgb(148,134,127)" stroke-width="1" opacity="1" d="M 10.5 38 L 12.5 39 L 15 38 L 14.5 40 L 12.5 40 L 10.5 38 Z " /><path fill="rgb(148,134,127)" stroke="rgb(148,134,127)" stroke-width="1" opacity="1" d="M 15 45 L 17 45.5 L 15 46.5 L 15 45 Z " /><path fill="rgb(85,77,74)" stroke="rgb(85,77,74)" stroke-width="1" opacity="1" d="M 18.5 16 L 20.5 19 Q 22.8 18.3 22 20.5 L 20 20.5 L 19 22.5 L 20 24.5 L 19 24.5 L 18 20 L 20 19.5 Q 17 18.5 18.5 16 Z " /><path fill="rgb(85,77,74)" stroke="rgb(85,77,74)" stroke-width="1" opacity="1" d="M 26.5 22 Q 28.8 21.3 28 23.5 L 26.5 22 Z " /><path fill="rgb(85,77,74)" stroke="rgb(85,77,74)" stroke-width="1" opacity="1" d="M 12.5 29 L 13.5 31 L 12.5 29 Z " /><path fill="rgb(85,77,74)" stroke="rgb(85,77,74)" stroke-width="1" opacity="1" d="M 5.5 30 L 4.5 32 L 5.5 30 Z " /><path fill="rgb(85,77,74)" stroke="rgb(85,77,74)" stroke-width="1" opacity="1" d="M 18.5 32 L 19.5 34 L 18.5 32 Z " /><path fill="rgb(85,77,74)" stroke="rgb(85,77,74)" stroke-width="1" opacity="1" d="M 25.5 32 L 28 33.5 L 24.5 34 L 25.5 32 Z " /><path fill="rgb(85,77,74)" stroke="rgb(85,77,74)" stroke-width="1" opacity="1" d="M 4.5 45 L 7 46.5 L 5.5 46 L 4.5 45 Z " /><path fill="rgb(118,108,84)" stroke="rgb(118,108,84)" stroke-width="1" opacity="1" d="M 13.5 15 L 17 16.5 L 13.5 16 L 12 17.5 L 11.5 19 L 11 17.5 L 13.5 15 Z " /><path fill="rgb(118,108,84)" stroke="rgb(118,108,84)" stroke-width="1" opacity="1" d="M 24.5 24 L 26.5 24 L 28 24.5 L 25.5 26 L 24.5 24 Z " /><path fill="rgb(56,45,25)" stroke="rgb(56,45,25)" stroke-width="1" opacity="1" d="M 26.5 9 L 27 13.5 L 27 15.5 Q 27.9 18.9 22.5 17 L 22.5 16 Q 25.1 16.8 24 13.5 L 23.5 12 L 26 10.5 L 26.5 9 Z " /><path fill="rgb(56,45,25)" stroke="rgb(56,45,25)" stroke-width="1" opacity="1" d="M 20.5 12 L 21.5 14 L 19 13.5 L 20.5 12 Z " /><path fill="rgb(56,45,25)" stroke="rgb(56,45,25)" stroke-width="1" opacity="1" d="M 2.5 13 L 7 14.5 L 2.5 16 L 2.5 13 Z " /><path fill="rgb(56,45,25)" stroke="rgb(56,45,25)" stroke-width="1" opacity="1" d="M 19.5 17 L 22 18.5 L 20.5 19 L 19.5 17 Z " /><path fill="rgb(56,45,25)" stroke="rgb(56,45,25)" stroke-width="1" opacity="1" d="M 24.5 18 Q 27.8 16.9 27 19.5 L 26 22.5 Q 28.3 23.7 25.5 25 L 24.5 19 L 23 19.5 L 24.5 18 Z " /><path fill="rgb(56,45,25)" stroke="rgb(56,45,25)" stroke-width="1" opacity="1" d="M 2.5 25 L 3 27.5 L 2 27.5 L 2.5 25 Z " /><path fill="rgb(56,45,25)" stroke="rgb(56,45,25)" stroke-width="1" opacity="1" d="M 3.5 29 Q 6.5 30.5 3.5 32 L 2 31.5 L 4 30.5 L 3.5 29 Z " /><path fill="rgb(56,45,25)" stroke="rgb(56,45,25)" stroke-width="1" opacity="1" d="M 6.5 30 L 7.5 32 L 6.5 30 Z " /><path fill="rgb(56,45,25)" stroke="rgb(56,45,25)" stroke-width="1" opacity="1" d="M 11.5 35 L 11.5 38 Q 9.3 38.8 10 36.5 L 11.5 35 Z " /><path fill="rgb(56,45,25)" stroke="rgb(56,45,25)" stroke-width="1" opacity="1" d="M 9.5 40 L 8.5 42 L 9.5 40 Z " /><path fill="rgb(56,45,25)" stroke="rgb(56,45,25)" stroke-width="1" opacity="1" d="M 13.5 44 L 16 44.5 L 13.5 45 L 13.5 44 Z " /><path fill="rgb(56,45,25)" stroke="rgb(56,45,25)" stroke-width="1" opacity="1" d="M 23.5 44 L 28 44.5 L 23.5 45 L 23.5 44 Z " /><path fill="rgb(182,49,25)" stroke="rgb(182,49,25)" stroke-width="1" opacity="1" d="M 2.5 16 L 7 19.5 L 4.5 21 L 2.5 16 Z " /><path fill="rgb(182,49,25)" stroke="rgb(182,49,25)" stroke-width="1" opacity="1" d="M 8.5 21 L 10 23.5 L 7 25.5 L 11 27 L 10.5 29 L 8.5 27 L 6 27.5 L 5.5 29 L 5 25 L 8 23.5 Q 5.8 22.3 8.5 21 Z " /><path fill="rgb(179,170,168)" stroke="rgb(179,170,168)" stroke-width="1" opacity="1" d="M 12.5 7 L 11.5 9 L 12.5 7 Z " /><path fill="rgb(179,170,168)" stroke="rgb(179,170,168)" stroke-width="1" opacity="1" d="M 15.5 19 L 17 19.5 L 15 20.5 L 17 21.5 L 14.5 22 L 13.5 20 L 15.5 19 Z " /><path fill="rgb(179,170,168)" stroke="rgb(179,170,168)" stroke-width="1" opacity="1" d="M 13 23 L 18 23.5 L 13 25 L 13 23 Z " /><path fill="rgb(179,170,168)" stroke="rgb(179,170,168)" stroke-width="1" opacity="1" d="M 11.5 25 L 14 26 L 13.5 28 L 11.5 25 Z " /><path fill="rgb(179,170,168)" stroke="rgb(179,170,168)" stroke-width="1" opacity="1" d="M 26 25 L 28 25.5 L 25.5 29 L 25 27.5 L 26 25 Z " /><path fill="rgb(179,170,168)" stroke="rgb(179,170,168)" stroke-width="1" opacity="1" d="M 16 26 L 18.5 26 L 22.5 29 L 24 28.5 L 23.5 30 L 25 30.5 L 24 33 L 21 34.5 L 24 36.5 L 25.5 39 L 27 39.5 L 22 40 L 21 37.5 Q 23.3 36.3 20.5 35 L 19 34.5 L 23 31.5 Q 23.8 29.3 21.5 30 L 20 30.5 L 20.5 29 Q 17.9 28.2 19 31.5 L 19.5 33 L 15 30.5 L 16 27.5 L 16 26 Z M 18 29 L 16 31 L 18 31 L 18 29 Z " /><path fill="rgb(179,170,168)" stroke="rgb(179,170,168)" stroke-width="1" opacity="1" d="M 8.5 29 L 11 33 L 9 32.5 L 9.5 31 Q 6.7 31.7 8.5 29 Z " /><path fill="rgb(179,170,168)" stroke="rgb(179,170,168)" stroke-width="1" opacity="1" d="M 6.5 31 L 8.5 35 L 10 34.5 L 9 37.5 L 9.5 39 L 7 37.5 L 9 36.5 L 7 36 L 6.5 34 L 5.5 37 L 3 32.5 L 4 32.5 Q 3.3 35.1 6 34 L 6.5 31 Z " /><path fill="rgb(179,170,168)" stroke="rgb(179,170,168)" stroke-width="1" opacity="1" d="M 27.5 34 L 28 37.5 L 27 37.5 L 26 35.5 L 27.5 34 Z " /><path fill="rgb(179,170,168)" stroke="rgb(179,170,168)" stroke-width="1" opacity="1" d="M 1.5 35 L 2 37.5 L 1 37.5 L 1.5 35 Z " /><path fill="rgb(179,170,168)" stroke="rgb(179,170,168)" stroke-width="1" opacity="1" d="M 17.5 37 L 20 37.5 L 17.5 38 L 17.5 37 Z " /><path fill="rgb(179,170,168)" stroke="rgb(179,170,168)" stroke-width="1" opacity="1" d="M 3.5 45 L 6.5 47 Q 8.3 43.3 10 46.5 L 6.5 48 L 4 47.5 L 3.5 45 Z " /><path fill="rgb(179,170,168)" stroke="rgb(179,170,168)" stroke-width="1" opacity="1" d="M 17.5 45 L 21.5 46 L 23 45.5 Q 21.8 48.3 20.5 46 L 16.5 47 L 17.5 45 Z " /><path fill="rgb(241,239,238)" stroke="rgb(241,239,238)" stroke-width="1" opacity="1" d="M 0 0 L 30 0 L 30 50 L 0 50 L 0 0 Z M 2 2 L 2 35 L 1 36 L 2 45 L 4 48 L 8 47 Q 11 48 10 46 L 11 46 Q 10 48 13 47 L 15 47 L 21 46 L 23 46 L 25 47 L 28 45 L 28 2 L 2 2 Z " /><path fill="rgb(241,239,238)" stroke="rgb(241,239,238)" stroke-width="1" opacity="1" d="M 23.5 25 Q 26.5 24.1 25 28.5 L 26 30.5 L 24 31.5 L 25 29.5 L 23.5 25 Z " /><path fill="rgb(241,239,238)" stroke="rgb(241,239,238)" stroke-width="1" opacity="1" d="M 21.5 30 L 21.5 33 L 19 31.5 L 21.5 30 Z " /><path fill="rgb(241,239,238)" stroke="rgb(241,239,238)" stroke-width="1" opacity="1" d="M 5.5 31 L 7 36 L 9 36.5 L 7.5 37 L 6 34 L 4 33.5 L 5.5 31 Z " /><path fill="rgb(241,239,238)" stroke="rgb(241,239,238)" stroke-width="1" opacity="1" d="M 18.5 34 L 19.5 36 Q 16.7 36.7 18.5 34 Z " /><path fill="rgb(205,179,64)" stroke="rgb(205,179,64)" stroke-width="1" opacity="1" d="M 13.5 7 L 14 9 L 11.5 10 L 13.5 7 Z " /><path fill="rgb(205,179,64)" stroke="rgb(205,179,64)" stroke-width="1" opacity="1" d="M 7.5 8 L 9 11 L 11 11.5 L 5.5 14 L 5.5 13 L 9 11.5 L 7.5 8 Z " /><path fill="rgb(205,179,64)" stroke="rgb(205,179,64)" stroke-width="1" opacity="1" d="M 25.5 8 L 26 10.5 L 25 10.5 L 25.5 8 Z " /><path fill="rgb(205,179,64)" stroke="rgb(205,179,64)" stroke-width="1" opacity="1" d="M 13.5 12 L 16 13.5 L 13.5 15 L 13.5 12 Z " /><path fill="rgb(205,179,64)" stroke="rgb(205,179,64)" stroke-width="1" opacity="1" d="M 17.5 14 L 18.5 16 L 17.5 14 Z " /><path fill="rgb(205,179,64)" stroke="rgb(205,179,64)" stroke-width="1" opacity="1" d="M 4.5 39 L 8 40.5 L 5.5 41 L 3 40.5 L 4.5 39 Z " /><path fill="rgb(96,76,27)" stroke="rgb(96,76,27)" stroke-width="1" opacity="1" d="M 8.5 8 L 9.5 10 L 8.5 8 Z " /><path fill="rgb(96,76,27)" stroke="rgb(96,76,27)" stroke-width="1" opacity="1" d="M 12.5 9 L 15 9.5 L 11.5 11 L 12.5 9 Z " /><path fill="rgb(96,76,27)" stroke="rgb(96,76,27)" stroke-width="1" opacity="1" d="M 23.5 13 L 24 16 Q 21.3 17.1 22 14.5 L 23.5 13 Z " /><path fill="rgb(96,76,27)" stroke="rgb(96,76,27)" stroke-width="1" opacity="1" d="M 2.5 14 L 3.5 16 L 2.5 14 Z " /><path fill="rgb(96,76,27)" stroke="rgb(96,76,27)" stroke-width="1" opacity="1" d="M 18.5 14 L 21 15.5 L 19 16.5 L 18.5 14 Z " /><path fill="rgb(96,76,27)" stroke="rgb(96,76,27)" stroke-width="1" opacity="1" d="M 4 23 L 6 23.5 L 4.5 26 L 4 23 Z " /><path fill="rgb(96,76,27)" stroke="rgb(96,76,27)" stroke-width="1" opacity="1" d="M 8.5 25 L 11 26.5 L 9.5 26 L 8.5 25 Z " /><path fill="rgb(96,76,27)" stroke="rgb(96,76,27)" stroke-width="1" opacity="1" d="M 4.5 38 L 7 38.5 L 4.5 39 L 4.5 38 Z " /><path fill="rgb(96,76,27)" stroke="rgb(96,76,27)" stroke-width="1" opacity="1" d="M 12.5 40 L 16 41.5 L 15.5 43 L 17.5 42 L 18 43.5 Q 16.8 46.3 15.5 44 L 12.5 45 L 12 43 Q 15 44 14 41 L 12.5 40 Z " /><path fill="rgb(96,76,27)" stroke="rgb(96,76,27)" stroke-width="1" opacity="1" d="M 27.5 40 L 28 41.5 L 27.5 44 L 26 41.5 L 27.5 40 Z " /><path fill="rgb(96,76,27)" stroke="rgb(96,76,27)" stroke-width="1" opacity="1" d="M 9.5 41 L 11 41.5 L 5.5 45 L 6 43.5 L 6.5 42 Q 8 44.5 9.5 41 Z " /><path fill="rgb(96,76,27)" stroke="rgb(96,76,27)" stroke-width="1" opacity="1" d="M 21.5 41 L 25 42.5 Q 25.8 44.8 23.5 44 L 22 44.5 L 23.5 42 L 19.5 43 L 19.5 42 L 21.5 41 Z " /><path fill="rgb(165,145,52)" stroke="rgb(165,145,52)" stroke-width="1" opacity="1" d="M 21.5 7 L 22 9 L 20 8.5 L 21.5 7 Z " /><path fill="rgb(165,145,52)" stroke="rgb(165,145,52)" stroke-width="1" opacity="1" d="M 25.5 7 L 26.5 9 L 25.5 7 Z " /><path fill="rgb(165,145,52)" stroke="rgb(165,145,52)" stroke-width="1" opacity="1" d="M 15.5 9 L 16.5 11 L 15.5 9 Z " /><path fill="rgb(165,145,52)" stroke="rgb(165,145,52)" stroke-width="1" opacity="1" d="M 12.5 10 L 13 15.5 L 12 15.5 L 12.5 10 Z " /><path fill="rgb(165,145,52)" stroke="rgb(165,145,52)" stroke-width="1" opacity="1" d="M 8 13 Q 11 12 10 15 Q 7 16 8 13 Z " /><path fill="rgb(165,145,52)" stroke="rgb(165,145,52)" stroke-width="1" opacity="1" d="M 22 17 L 24 17.5 L 22 18.5 L 22 17 Z " /><path fill="rgb(165,145,52)" stroke="rgb(165,145,52)" stroke-width="1" opacity="1" d="M 7.5 39 L 10 39.5 L 7.5 40 L 7.5 39 Z " /><path fill="rgb(165,145,52)" stroke="rgb(165,145,52)" stroke-width="1" opacity="1" d="M 10 42 Q 13 41 12 44 Q 9 45 10 42 Z " /><path fill="rgb(165,145,52)" stroke="rgb(165,145,52)" stroke-width="1" opacity="1" d="M 23.5 42 L 22.5 44 L 21 43.5 L 23.5 42 Z " /><path fill="rgb(120,92,85)" stroke="rgb(120,92,85)" stroke-width="1" opacity="1" d="M 7.5 15 L 10 16.5 L 8.5 17 L 7.5 15 Z " /><path fill="rgb(120,92,85)" stroke="rgb(120,92,85)" stroke-width="1" opacity="1" d="M 17.5 16 L 19 19.5 L 17 20 L 17.5 16 Z " /><path fill="rgb(120,92,85)" stroke="rgb(120,92,85)" stroke-width="1" opacity="1" d="M 12.5 21 L 10.5 24 L 12.5 21 Z " /><path fill="rgb(120,92,85)" stroke="rgb(120,92,85)" stroke-width="1" opacity="1" d="M 19 25 L 21 25.5 L 19 26.5 L 19 25 Z " /><path fill="rgb(120,92,85)" stroke="rgb(120,92,85)" stroke-width="1" opacity="1" d="M 12.5 27 L 13.5 29 L 12.5 27 Z " /><path fill="rgb(120,92,85)" stroke="rgb(120,92,85)" stroke-width="1" opacity="1" d="M 14.5 31 Q 16.8 30.3 16 32.5 L 14.5 31 Z " /><path fill="rgb(120,92,85)" stroke="rgb(120,92,85)" stroke-width="1" opacity="1" d="M 25.5 36 L 24.5 38 L 25.5 36 Z " /><path fill="rgb(120,92,85)" stroke="rgb(120,92,85)" stroke-width="1" opacity="1" d="M 24.5 40 L 25.5 42 L 24.5 40 Z " /></svg>