<svg width="30" height="50" version="1.1" xmlns="http://www.w3.org/2000/svg" desc="Created with imagetracer.js version 1.2.6" ><path fill="rgb(127,109,40)" stroke="rgb(127,109,40)" stroke-width="1" opacity="1" d="M 25.5 11 L 27 13.5 L 25 12.5 L 25.5 11 Z " /><path fill="rgb(127,109,40)" stroke="rgb(127,109,40)" stroke-width="1" opacity="1" d="M 4.5 14 L 6 14.5 L 3.5 16 L 4.5 14 Z " /><path fill="rgb(127,109,40)" stroke="rgb(127,109,40)" stroke-width="1" opacity="1" d="M 19.5 42 L 20.5 44 L 18 43.5 L 19.5 42 Z " /><path fill="rgb(127,109,40)" stroke="rgb(127,109,40)" stroke-width="1" opacity="1" d="M 25.5 43 L 26.5 45 L 25.5 43 Z " /><path fill="rgb(127,109,40)" stroke="rgb(127,109,40)" stroke-width="1" opacity="1" d="M 16.5 48 L 19 48.5 L 16.5 49 L 16.5 48 Z " /><path fill="rgb(127,109,40)" stroke="rgb(127,109,40)" stroke-width="1" opacity="1" d="M 23.5 48 L 26 48.5 L 23.5 49 L 23.5 48 Z " /><path fill="rgb(181,162,60)" stroke="rgb(181,162,60)" stroke-width="1" opacity="1" d="M 9.5 9 L 10.5 11 L 9.5 9 Z " /><path fill="rgb(181,162,60)" stroke="rgb(181,162,60)" stroke-width="1" opacity="1" d="M 14.5 10 Q 17.1 9.2 16 12.5 L 15 12.5 L 14.5 10 Z " /><path fill="rgb(181,162,60)" stroke="rgb(181,162,60)" stroke-width="1" opacity="1" d="M 17.5 10 L 19 13.5 L 18 16 L 16 15.5 L 18 11.5 L 17.5 10 Z " /><path fill="rgb(181,162,60)" stroke="rgb(181,162,60)" stroke-width="1" opacity="1" d="M 22.5 10 L 25 11 L 24.5 13 L 23 12.5 L 21.5 16 L 20 15.5 L 22 15 L 21 11.5 L 22.5 10 Z " /><path fill="rgb(181,162,60)" stroke="rgb(181,162,60)" stroke-width="1" opacity="1" d="M 4.5 11 L 5 13 L 3 12.5 L 4.5 11 Z " /><path fill="rgb(181,162,60)" stroke="rgb(181,162,60)" stroke-width="1" opacity="1" d="M 11.5 12 L 12 15.5 L 11 15.5 L 11.5 12 Z " /><path fill="rgb(181,162,60)" stroke="rgb(181,162,60)" stroke-width="1" opacity="1" d="M 7.5 14 Q 9.8 13.3 9 15.5 L 9.5 17 L 7.5 14 Z " /><path fill="rgb(181,162,60)" stroke="rgb(181,162,60)" stroke-width="1" opacity="1" d="M 26.5 14 L 27 16.5 L 26 16.5 L 26.5 14 Z " /><path fill="rgb(181,162,60)" stroke="rgb(181,162,60)" stroke-width="1" opacity="1" d="M 4.5 15 L 6.5 18 L 4 17.5 L 4.5 15 Z " /><path fill="rgb(181,162,60)" stroke="rgb(181,162,60)" stroke-width="1" opacity="1" d="M 24.5 15 L 23.5 17 L 24.5 15 Z " /><path fill="rgb(181,162,60)" stroke="rgb(181,162,60)" stroke-width="1" opacity="1" d="M 7.5 38 L 8 40.5 L 7 40.5 L 7.5 38 Z " /><path fill="rgb(181,162,60)" stroke="rgb(181,162,60)" stroke-width="1" opacity="1" d="M 14.5 41 L 17 41.5 L 14.5 42 L 14.5 41 Z " /><path fill="rgb(181,162,60)" stroke="rgb(181,162,60)" stroke-width="1" opacity="1" d="M 19.5 41 L 18.5 43 L 19.5 41 Z " /><path fill="rgb(181,162,60)" stroke="rgb(181,162,60)" stroke-width="1" opacity="1" d="M 10.5 42 L 11 44.5 L 10 44.5 L 10.5 42 Z " /><path fill="rgb(105,78,29)" stroke="rgb(105,78,29)" stroke-width="1" opacity="1" d="M 10.5 9 L 9.5 11 L 10.5 9 Z " /><path fill="rgb(105,78,29)" stroke="rgb(105,78,29)" stroke-width="1" opacity="1" d="M 17.5 9 Q 19.8 8.3 19 10.5 L 17.5 9 Z " /><path fill="rgb(105,78,29)" stroke="rgb(105,78,29)" stroke-width="1" opacity="1" d="M 6.5 10 L 6 11.5 L 5.5 13 L 5 11.5 L 6.5 10 Z " /><path fill="rgb(105,78,29)" stroke="rgb(105,78,29)" stroke-width="1" opacity="1" d="M 24.5 13 L 23.5 15 L 24.5 13 Z " /><path fill="rgb(105,78,29)" stroke="rgb(105,78,29)" stroke-width="1" opacity="1" d="M 12.5 15 L 15 15.5 L 12.5 16 L 12.5 15 Z " /><path fill="rgb(105,78,29)" stroke="rgb(105,78,29)" stroke-width="1" opacity="1" d="M 18.5 21 L 17.5 23 L 18.5 21 Z " /><path fill="rgb(105,78,29)" stroke="rgb(105,78,29)" stroke-width="1" opacity="1" d="M 8.5 41 L 12 42.5 L 10.5 42 Q 7.5 42.5 8.5 41 Z " /><path fill="rgb(249,246,114)" stroke="rgb(249,246,114)" stroke-width="1" opacity="1" d="M 14.5 2 L 17.5 3 Q 19.2 0.2 25.5 2 L 28 2.5 L 28 12.5 L 26 13 Q 27.1 10.3 24.5 11 L 14 8 L 14.5 5 L 17.5 6 L 15.5 3 L 14.5 2 Z " /><path fill="rgb(249,246,114)" stroke="rgb(249,246,114)" stroke-width="1" opacity="1" d="M 19 11 Q 22 10 21 13 Q 18 14 19 11 Z " /><path fill="rgb(249,246,114)" stroke="rgb(249,246,114)" stroke-width="1" opacity="1" d="M 16.5 12 L 17 14 L 13.5 15 L 14.5 13 L 16.5 12 Z " /><path fill="rgb(249,246,114)" stroke="rgb(249,246,114)" stroke-width="1" opacity="1" d="M 27.5 15 L 28 16.5 L 27 19 L 25 18.5 L 27.5 15 Z " /><path fill="rgb(249,246,114)" stroke="rgb(249,246,114)" stroke-width="1" opacity="1" d="M 21.5 37 L 24 37.5 L 21.5 38 L 21.5 37 Z " /><path fill="rgb(249,246,114)" stroke="rgb(249,246,114)" stroke-width="1" opacity="1" d="M 20 40 Q 23.3 38.7 22 43.5 Q 19.3 44.6 20 48 L 10.5 48 L 10 45 L 13 43.5 L 13 42 L 18 42 Q 16.8 45 20.5 44 L 20 42.5 L 20 40 Z " /><path fill="rgb(249,246,114)" stroke="rgb(249,246,114)" stroke-width="1" opacity="1" d="M 24.5 44 L 27 45.5 L 25.5 46 L 24.5 44 Z " /><path fill="rgb(21,29,37)" stroke="rgb(21,29,37)" stroke-width="1" opacity="1" d="M 2.5 15 L 3.5 17 L 2.5 15 Z " /><path fill="rgb(21,29,37)" stroke="rgb(21,29,37)" stroke-width="1" opacity="1" d="M 6.5 18 Q 11 20 7.5 22 L 5 21 L 6.5 18 Z " /><path fill="rgb(21,29,37)" stroke="rgb(21,29,37)" stroke-width="1" opacity="1" d="M 3.5 24 L 4 27.5 L 3 27.5 L 3.5 24 Z " /><path fill="rgb(21,29,37)" stroke="rgb(21,29,37)" stroke-width="1" opacity="1" d="M 13.5 26 L 12.5 28 L 13.5 26 Z " /><path fill="rgb(21,29,37)" stroke="rgb(21,29,37)" stroke-width="1" opacity="1" d="M 7.5 30 L 10 30.5 L 7.5 31 L 7.5 30 Z " /><path fill="rgb(199,38,14)" stroke="rgb(199,38,14)" stroke-width="1" opacity="1" d="M 12.5 20 L 17 20.5 L 15 21 L 14.5 23 L 14 21 L 12.5 20 Z " /><path fill="rgb(69,37,8)" stroke="rgb(69,37,8)" stroke-width="1" opacity="1" d="M 12.5 9 L 11.5 11 L 12.5 9 Z " /><path fill="rgb(69,37,8)" stroke="rgb(69,37,8)" stroke-width="1" opacity="1" d="M 7.5 10 L 7.5 13 Q 4.5 11.5 7.5 10 Z " /><path fill="rgb(69,37,8)" stroke="rgb(69,37,8)" stroke-width="1" opacity="1" d="M 25.5 13 L 26 15 L 24 14.5 L 25.5 13 Z " /><path fill="rgb(69,37,8)" stroke="rgb(69,37,8)" stroke-width="1" opacity="1" d="M 15.5 19 Q 19.9 17.5 19 20.5 L 15.5 22 L 15.5 21 L 17 20.5 L 15.5 19 Z " /><path fill="rgb(69,37,8)" stroke="rgb(69,37,8)" stroke-width="1" opacity="1" d="M 7.5 34 L 8 36.5 L 7 36.5 L 7.5 34 Z " /><path fill="rgb(51,75,87)" stroke="rgb(51,75,87)" stroke-width="1" opacity="1" d="M 24.5 20 L 26 22.5 L 24 21.5 L 24.5 20 Z " /><path fill="rgb(51,75,87)" stroke="rgb(51,75,87)" stroke-width="1" opacity="1" d="M 25.5 24 L 26 27 L 24 26.5 L 25.5 24 Z " /><path fill="rgb(51,75,87)" stroke="rgb(51,75,87)" stroke-width="1" opacity="1" d="M 7.5 25 L 9 28 Q 6.3 26.9 7 29.5 L 6 29.5 L 8 26.5 L 7.5 25 Z " /><path fill="rgb(51,75,87)" stroke="rgb(51,75,87)" stroke-width="1" opacity="1" d="M 22.5 32 L 21.5 34 L 22.5 32 Z " /><path fill="rgb(33,49,58)" stroke="rgb(33,49,58)" stroke-width="1" opacity="1" d="M 7.5 18 L 9 19.5 L 8 22.5 L 7.5 25 L 6 21.5 Q 9.1 19.8 7.5 18 Z " /><path fill="rgb(33,49,58)" stroke="rgb(33,49,58)" stroke-width="1" opacity="1" d="M 27.5 18 L 26.5 20 L 27.5 18 Z " /><path fill="rgb(33,49,58)" stroke="rgb(33,49,58)" stroke-width="1" opacity="1" d="M 26.5 21 L 28 23.5 L 27 23.5 L 26.5 21 Z " /><path fill="rgb(33,49,58)" stroke="rgb(33,49,58)" stroke-width="1" opacity="1" d="M 7.5 29 L 9 29.5 L 7 30.5 L 8 32.5 L 7 32.5 L 6 30.5 L 7.5 29 Z " /><path fill="rgb(33,49,58)" stroke="rgb(33,49,58)" stroke-width="1" opacity="1" d="M 5 34 L 7 34.5 L 5.5 37 L 5 34 Z " /><path fill="rgb(80,76,73)" stroke="rgb(80,76,73)" stroke-width="1" opacity="1" d="M 15.5 25 L 14.5 27 L 15.5 25 Z " /><path fill="rgb(80,76,73)" stroke="rgb(80,76,73)" stroke-width="1" opacity="1" d="M 13.5 29 L 15 29.5 L 11.5 32 L 13.5 29 Z " /><path fill="rgb(67,57,50)" stroke="rgb(67,57,50)" stroke-width="1" opacity="1" d="M 13.5 28 L 13.5 30 L 15 30.5 L 12.5 32 L 12 29.5 L 13.5 28 Z " /><path fill="rgb(67,57,50)" stroke="rgb(67,57,50)" stroke-width="1" opacity="1" d="M 17.5 32 L 18.5 34 Q 15.7 34.7 17.5 32 Z " /><path fill="rgb(67,57,50)" stroke="rgb(67,57,50)" stroke-width="1" opacity="1" d="M 19.5 35 L 20.5 37 L 19.5 35 Z " /><path fill="rgb(67,57,50)" stroke="rgb(67,57,50)" stroke-width="1" opacity="1" d="M 6.5 36 L 5.5 38 L 6.5 36 Z " /><path fill="rgb(141,168,174)" stroke="rgb(141,168,174)" stroke-width="1" opacity="1" d="M 14.5 1 L 18 1.5 L 14.5 2 L 14.5 1 Z " /><path fill="rgb(141,168,174)" stroke="rgb(141,168,174)" stroke-width="1" opacity="1" d="M 6.5 15 L 7 17 L 15.5 16 L 19 17.5 Q 17.8 20 14 19 Q 15.1 16.3 12.5 17 L 10 18.5 L 12 19 L 12 23 Q 14.7 21.9 14 24.5 L 11.5 25 L 9.5 26 L 9 22.5 L 10 20.5 L 6 16.5 L 6.5 15 Z " /><path fill="rgb(141,168,174)" stroke="rgb(141,168,174)" stroke-width="1" opacity="1" d="M 22.5 15 L 23 16.5 L 20.5 18 L 20.5 17 Q 23 17.7 22.5 15 Z " /><path fill="rgb(141,168,174)" stroke="rgb(141,168,174)" stroke-width="1" opacity="1" d="M 23.5 18 L 25 24.5 L 24 29 L 21 29.5 L 22 31.5 L 19.5 30 L 17 29.5 L 19 28.5 L 15.5 27 L 14 27.5 Q 17.1 25.8 15.5 24 L 19 26 L 19.5 28 Q 18.5 20 23.5 18 Z M 23 20 L 21 24 L 22 28 L 23 28 L 23 20 Z " /><path fill="rgb(141,168,174)" stroke="rgb(141,168,174)" stroke-width="1" opacity="1" d="M 2.5 19 L 5 20.5 L 3 24.5 L 2.5 30 L 2 21.5 L 4 21.5 Q 4.8 19.3 2.5 20 L 2.5 19 Z " /><path fill="rgb(141,168,174)" stroke="rgb(141,168,174)" stroke-width="1" opacity="1" d="M 18.5 22 L 18.5 25 Q 15.5 23.5 18.5 22 Z " /><path fill="rgb(141,168,174)" stroke="rgb(141,168,174)" stroke-width="1" opacity="1" d="M 26.5 22 L 28 25.5 L 26 24.5 L 26.5 22 Z " /><path fill="rgb(141,168,174)" stroke="rgb(141,168,174)" stroke-width="1" opacity="1" d="M 5.5 24 Q 8.3 25.3 6 26.5 Q 7.1 29.8 4.5 29 L 5 27.5 L 5.5 24 Z " /><path fill="rgb(141,168,174)" stroke="rgb(141,168,174)" stroke-width="1" opacity="1" d="M 27.5 27 L 28 29.5 L 27 29.5 L 27.5 27 Z " /><path fill="rgb(141,168,174)" stroke="rgb(141,168,174)" stroke-width="1" opacity="1" d="M 25.5 29 L 26.5 34 L 28 33.5 L 27.5 36 Q 25.3 35.3 26 37.5 L 25 37.5 L 25.5 29 Z " /><path fill="rgb(141,168,174)" stroke="rgb(141,168,174)" stroke-width="1" opacity="1" d="M 5.5 30 L 6.5 32 L 5.5 30 Z " /><path fill="rgb(141,168,174)" stroke="rgb(141,168,174)" stroke-width="1" opacity="1" d="M 23.5 30 L 24 36.5 L 23 36.5 Q 23.8 34.3 21.5 35 L 21.5 34 L 23 34 L 23.5 30 Z " /><path fill="rgb(141,168,174)" stroke="rgb(141,168,174)" stroke-width="1" opacity="1" d="M 9 31 L 12 32.5 L 10 36.5 L 9.5 38 L 9 34.5 L 9 32.5 L 9 31 Z " /><path fill="rgb(141,168,174)" stroke="rgb(141,168,174)" stroke-width="1" opacity="1" d="M 18.5 31 L 19.5 33 Q 16.7 33.7 18.5 31 Z " /><path fill="rgb(141,168,174)" stroke="rgb(141,168,174)" stroke-width="1" opacity="1" d="M 2.5 32 Q 5 33.2 4 37 Q -0.1 38.3 2.5 32 Z " /><path fill="rgb(141,168,174)" stroke="rgb(141,168,174)" stroke-width="1" opacity="1" d="M 13.5 32 Q 16.3 33.3 14 34.5 L 14.5 39 L 17 37.5 Q 18.7 42.3 14.5 41 L 12.5 40 L 11 40.5 L 12 37.5 L 14 33.5 L 13.5 32 Z " /><path fill="rgb(141,168,174)" stroke="rgb(141,168,174)" stroke-width="1" opacity="1" d="M 20.5 38 L 21.5 40 L 20.5 38 Z " /><path fill="rgb(247,235,53)" stroke="rgb(247,235,53)" stroke-width="1" opacity="1" d="M 2 2 L 14 2 L 14 7.5 L 12.5 9 L 3 11 L 2.5 13 L 2 2 Z " /><path fill="rgb(247,235,53)" stroke="rgb(247,235,53)" stroke-width="1" opacity="1" d="M 16.5 4 L 17.5 6 L 15 5.5 L 16.5 4 Z " /><path fill="rgb(247,235,53)" stroke="rgb(247,235,53)" stroke-width="1" opacity="1" d="M 13.5 10 L 14 11.5 L 13.5 14 Q 10.9 14.8 12 11.5 L 13.5 10 Z " /><path fill="rgb(247,235,53)" stroke="rgb(247,235,53)" stroke-width="1" opacity="1" d="M 9.5 11 L 11 14 Q 7.5 15.1 9.5 11 Z " /><path fill="rgb(247,235,53)" stroke="rgb(247,235,53)" stroke-width="1" opacity="1" d="M 4.5 13 Q 7.8 11.9 7 14.5 L 5.5 14 L 4.5 13 Z " /><path fill="rgb(247,235,53)" stroke="rgb(247,235,53)" stroke-width="1" opacity="1" d="M 6.5 37 L 8.5 42 Q 11.1 41.3 10 44 L 8 44.5 L 10 45 L 10 48 L 2 48 L 2 40.5 L 4.5 38 L 6.5 37 Z " /><path fill="rgb(99,113,118)" stroke="rgb(99,113,118)" stroke-width="1" opacity="1" d="M 18.5 1 L 22 1.5 L 18.5 2 L 18.5 1 Z " /><path fill="rgb(99,113,118)" stroke="rgb(99,113,118)" stroke-width="1" opacity="1" d="M 19.5 16 L 20 19 L 18 18.5 L 19.5 16 Z " /><path fill="rgb(99,113,118)" stroke="rgb(99,113,118)" stroke-width="1" opacity="1" d="M 12.5 17 L 14 17.5 L 10.5 19 L 10.5 18 L 12.5 17 Z " /><path fill="rgb(99,113,118)" stroke="rgb(99,113,118)" stroke-width="1" opacity="1" d="M 22.5 17 L 23 18.5 L 23 20.5 L 22 23.5 Q 24.3 24.8 21.5 26 L 21 23.5 L 22 20.5 L 22 18.5 L 22.5 17 Z " /><path fill="rgb(99,113,118)" stroke="rgb(99,113,118)" stroke-width="1" opacity="1" d="M 5.5 21 L 7 24.5 L 5.5 24 L 4 23.5 L 5.5 21 Z " /><path fill="rgb(99,113,118)" stroke="rgb(99,113,118)" stroke-width="1" opacity="1" d="M 8.5 23 L 9 25.5 L 8 25.5 L 8.5 23 Z " /><path fill="rgb(99,113,118)" stroke="rgb(99,113,118)" stroke-width="1" opacity="1" d="M 12.5 24 L 15 24.5 Q 15.8 26.8 13.5 26 L 13.5 28 L 12.5 27 L 10 28.5 Q 9.3 26.3 11.5 27 L 12.5 24 Z " /><path fill="rgb(99,113,118)" stroke="rgb(99,113,118)" stroke-width="1" opacity="1" d="M 26.5 26 L 27 28.5 L 25.5 28 L 24 27.5 L 26.5 26 Z " /><path fill="rgb(99,113,118)" stroke="rgb(99,113,118)" stroke-width="1" opacity="1" d="M 16.5 27 Q 18.8 26.3 18 28.5 L 16.5 27 Z " /><path fill="rgb(99,113,118)" stroke="rgb(99,113,118)" stroke-width="1" opacity="1" d="M 23.5 29 Q 25.8 28.3 25 30.5 L 23 30.5 L 22 32.5 L 22.5 34 Q 19.8 32.8 22 31.5 L 23.5 29 Z " /><path fill="rgb(99,113,118)" stroke="rgb(99,113,118)" stroke-width="1" opacity="1" d="M 4.5 31 L 7 32.5 L 6.5 34 L 6 32 L 4.5 31 Z " /><path fill="rgb(99,113,118)" stroke="rgb(99,113,118)" stroke-width="1" opacity="1" d="M 13.5 31 L 11.5 34 L 13.5 31 Z " /><path fill="rgb(99,113,118)" stroke="rgb(99,113,118)" stroke-width="1" opacity="1" d="M 15.5 32 L 16.5 34 L 15.5 32 Z " /><path fill="rgb(99,113,118)" stroke="rgb(99,113,118)" stroke-width="1" opacity="1" d="M 14.5 35 Q 16.8 34.3 16 36.5 L 14.5 35 Z " /><path fill="rgb(99,113,118)" stroke="rgb(99,113,118)" stroke-width="1" opacity="1" d="M 18.5 35 L 20 40.5 L 19 40.5 L 18.5 35 Z " /><path fill="rgb(99,113,118)" stroke="rgb(99,113,118)" stroke-width="1" opacity="1" d="M 5.5 48 L 8 48.5 L 5.5 49 L 5.5 48 Z " /><path fill="rgb(88,93,92)" stroke="rgb(88,93,92)" stroke-width="1" opacity="1" d="M 10.5 26 L 9.5 28 L 10.5 26 Z " /><path fill="rgb(88,93,92)" stroke="rgb(88,93,92)" stroke-width="1" opacity="1" d="M 3.5 29 L 4 32.5 L 2 31.5 L 3.5 29 Z " /><path fill="rgb(88,93,92)" stroke="rgb(88,93,92)" stroke-width="1" opacity="1" d="M 9.5 29 L 10.5 31 L 9.5 29 Z " /><path fill="rgb(88,93,92)" stroke="rgb(88,93,92)" stroke-width="1" opacity="1" d="M 19.5 48 L 23 48.5 L 19.5 49 L 19.5 48 Z " /><path fill="rgb(240,244,237)" stroke="rgb(240,244,237)" stroke-width="1" opacity="1" d="M 0 0 L 30 0 L 30 50 L 0 50 L 0 0 Z M 15 1 L 14 2 L 3 2 L 2 3 L 2 49 L 28 49 L 24 47 L 20 48 Q 19 45 22 44 L 22 40 L 22 38 Q 27 36 26 40 Q 29 41 28 38 L 28 34 L 26 33 L 28 28 L 28 26 L 28 1 L 15 1 Z M 26 43 L 24 45 L 25 47 L 27 46 Q 28 42 26 43 Z " /><path fill="rgb(240,244,237)" stroke="rgb(240,244,237)" stroke-width="1" opacity="1" d="M 18.5 23 L 18.5 26 L 16 24.5 L 18.5 23 Z " /><path fill="rgb(240,244,237)" stroke="rgb(240,244,237)" stroke-width="1" opacity="1" d="M 9.5 28 L 10.5 30 L 9.5 28 Z " /><path fill="rgb(240,244,237)" stroke="rgb(240,244,237)" stroke-width="1" opacity="1" d="M 19.5 31 Q 21.8 30.3 21 32.5 L 19.5 31 Z " /><path fill="rgb(240,244,237)" stroke="rgb(240,244,237)" stroke-width="1" opacity="1" d="M 14.5 32 L 15.5 34 L 14.5 32 Z " /><path fill="rgb(240,244,237)" stroke="rgb(240,244,237)" stroke-width="1" opacity="1" d="M 10.5 34 L 13 34.5 L 11 38.5 Q 13.3 39.8 10.5 41 L 10 36.5 L 10.5 34 Z " /><path fill="rgb(240,244,237)" stroke="rgb(240,244,237)" stroke-width="1" opacity="1" d="M 16 35 Q 19.7 33.6 18 39.5 L 17 39.5 L 16 35 Z " /></svg>