<svg width="30" height="50" version="1.1" xmlns="http://www.w3.org/2000/svg" desc="Created with imagetracer.js version 1.2.6" ><path fill="rgb(208,176,174)" stroke="rgb(208,176,174)" stroke-width="1" opacity="1" d="M 6.5 1 L 9 1.5 L 6.5 2 L 6.5 1 Z " /><path fill="rgb(208,176,174)" stroke="rgb(208,176,174)" stroke-width="1" opacity="1" d="M 17.5 1 L 24 1.5 L 17.5 2 L 17.5 1 Z " /><path fill="rgb(208,176,174)" stroke="rgb(208,176,174)" stroke-width="1" opacity="1" d="M 10.5 5 L 11.5 7 Q 8.7 7.7 10.5 5 Z " /><path fill="rgb(208,176,174)" stroke="rgb(208,176,174)" stroke-width="1" opacity="1" d="M 16.5 5 L 18.5 5 L 21 7.5 L 19.5 8 L 16.5 5 Z " /><path fill="rgb(208,176,174)" stroke="rgb(208,176,174)" stroke-width="1" opacity="1" d="M 6.5 7 L 8 10.5 L 6.5 11 L 5 8.5 L 6.5 7 Z " /><path fill="rgb(208,176,174)" stroke="rgb(208,176,174)" stroke-width="1" opacity="1" d="M 8.5 7 L 9.5 9 L 8.5 7 Z " /><path fill="rgb(208,176,174)" stroke="rgb(208,176,174)" stroke-width="1" opacity="1" d="M 22.5 8 L 23 9.5 L 21 10.5 L 22.5 8 Z " /><path fill="rgb(208,176,174)" stroke="rgb(208,176,174)" stroke-width="1" opacity="1" d="M 3.5 11 L 2.5 13 L 3.5 11 Z " /><path fill="rgb(208,176,174)" stroke="rgb(208,176,174)" stroke-width="1" opacity="1" d="M 24.5 11 L 26 11.5 L 23.5 13 L 24.5 11 Z " /><path fill="rgb(208,176,174)" stroke="rgb(208,176,174)" stroke-width="1" opacity="1" d="M 27.5 13 L 28 16.5 L 26 17.5 L 27.5 13 Z " /><path fill="rgb(208,176,174)" stroke="rgb(208,176,174)" stroke-width="1" opacity="1" d="M 12.5 48 L 18 48.5 L 12.5 49 L 12.5 48 Z " /><path fill="rgb(126,91,35)" stroke="rgb(126,91,35)" stroke-width="1" opacity="1" d="M 11 10 Q 13.7 8.9 13 11.5 L 13.5 13 L 11 12 L 11 10 Z " /><path fill="rgb(126,91,35)" stroke="rgb(126,91,35)" stroke-width="1" opacity="1" d="M 8.5 11 L 9.5 13 L 8.5 11 Z " /><path fill="rgb(126,91,35)" stroke="rgb(126,91,35)" stroke-width="1" opacity="1" d="M 6.5 13 Q 8.8 12.3 8 14.5 L 6.5 13 Z " /><path fill="rgb(126,91,35)" stroke="rgb(126,91,35)" stroke-width="1" opacity="1" d="M 4.5 15 Q 7.1 14.2 6 17.5 L 4 18.5 L 5 16.5 L 4.5 15 Z " /><path fill="rgb(126,91,35)" stroke="rgb(126,91,35)" stroke-width="1" opacity="1" d="M 8.5 31 L 12 32.5 L 9.5 37 L 8.5 31 Z " /><path fill="rgb(126,91,35)" stroke="rgb(126,91,35)" stroke-width="1" opacity="1" d="M 23.5 34 L 25 34.5 L 22.5 36 L 23.5 34 Z " /><path fill="rgb(126,91,35)" stroke="rgb(126,91,35)" stroke-width="1" opacity="1" d="M 10.5 41 L 9.5 43 L 10.5 41 Z " /><path fill="rgb(126,91,35)" stroke="rgb(126,91,35)" stroke-width="1" opacity="1" d="M 19 41 L 21 41.5 L 19 42.5 L 19 41 Z " /><path fill="rgb(126,91,35)" stroke="rgb(126,91,35)" stroke-width="1" opacity="1" d="M 26.5 44 L 27.5 46 L 26.5 44 Z " /><path fill="rgb(173,142,62)" stroke="rgb(173,142,62)" stroke-width="1" opacity="1" d="M 14 6 L 20 8.5 L 18.5 8 L 15.5 7 L 14 7.5 L 14 6 Z " /><path fill="rgb(173,142,62)" stroke="rgb(173,142,62)" stroke-width="1" opacity="1" d="M 9.5 7 Q 11.8 6.3 11 8.5 Q 13.3 9.8 10.5 11 L 9.5 8 L 8 8.5 L 9.5 7 Z " /><path fill="rgb(173,142,62)" stroke="rgb(173,142,62)" stroke-width="1" opacity="1" d="M 16.5 10 L 17 12 L 19 11.5 L 18.5 10 Q 20.8 9.3 20 11.5 L 19.5 14 L 13 11.5 L 14.5 12 Q 17 12.7 16.5 10 Z " /><path fill="rgb(173,142,62)" stroke="rgb(173,142,62)" stroke-width="1" opacity="1" d="M 8.5 12 Q 11.5 13.5 8.5 15 L 8.5 12 Z " /><path fill="rgb(173,142,62)" stroke="rgb(173,142,62)" stroke-width="1" opacity="1" d="M 18.5 31 L 17.5 33 L 18.5 31 Z " /><path fill="rgb(173,142,62)" stroke="rgb(173,142,62)" stroke-width="1" opacity="1" d="M 2.5 33 L 5 33.5 L 5 35.5 L 4.5 37 L 2.5 33 Z " /><path fill="rgb(173,142,62)" stroke="rgb(173,142,62)" stroke-width="1" opacity="1" d="M 19.5 34 L 21.5 35 Q 23.3 32.2 25 36.5 L 22 35.5 L 21.5 37 L 21 35 L 19.5 34 Z " /><path fill="rgb(173,142,62)" stroke="rgb(173,142,62)" stroke-width="1" opacity="1" d="M 19.5 36 L 20 38.5 L 19 38.5 L 19.5 36 Z " /><path fill="rgb(173,142,62)" stroke="rgb(173,142,62)" stroke-width="1" opacity="1" d="M 21.5 38 L 22 40.5 L 21 40.5 L 21.5 38 Z " /><path fill="rgb(173,142,62)" stroke="rgb(173,142,62)" stroke-width="1" opacity="1" d="M 11.5 40 L 12 43 L 10 42.5 L 11.5 40 Z " /><path fill="rgb(173,142,62)" stroke="rgb(173,142,62)" stroke-width="1" opacity="1" d="M 17.5 42 L 18.5 44 L 17.5 42 Z " /><path fill="rgb(173,142,62)" stroke="rgb(173,142,62)" stroke-width="1" opacity="1" d="M 25.5 44 L 26.5 46 Q 23.7 46.7 25.5 44 Z " /><path fill="rgb(223,211,77)" stroke="rgb(223,211,77)" stroke-width="1" opacity="1" d="M 9.5 11 L 13 12.5 L 10.5 13 L 9.5 11 Z " /><path fill="rgb(223,211,77)" stroke="rgb(223,211,77)" stroke-width="1" opacity="1" d="M 20.5 11 Q 22.8 10.3 22 12.5 L 21.5 15 L 20 13.5 L 20.5 11 Z " /><path fill="rgb(223,211,77)" stroke="rgb(223,211,77)" stroke-width="1" opacity="1" d="M 7.5 12 L 8.5 14 L 7.5 12 Z " /><path fill="rgb(223,211,77)" stroke="rgb(223,211,77)" stroke-width="1" opacity="1" d="M 5.5 13 L 7 15.5 L 5 14.5 L 5.5 13 Z " /><path fill="rgb(223,211,77)" stroke="rgb(223,211,77)" stroke-width="1" opacity="1" d="M 4.5 16 L 6 18.5 L 4 18.5 L 2.5 23 L 2 20.5 L 4.5 16 Z " /><path fill="rgb(223,211,77)" stroke="rgb(223,211,77)" stroke-width="1" opacity="1" d="M 4.5 34 Q 6.8 33.3 6 35.5 L 4.5 34 Z " /><path fill="rgb(223,211,77)" stroke="rgb(223,211,77)" stroke-width="1" opacity="1" d="M 25.5 34 L 26 36 L 28 36.5 L 26 37 L 26.5 39 L 28 38.5 Q 26.5 41.5 25 38.5 L 26 36.5 L 24 35.5 L 25.5 34 Z " /><path fill="rgb(223,211,77)" stroke="rgb(223,211,77)" stroke-width="1" opacity="1" d="M 2.5 35 L 3.5 37 Q 0.7 37.7 2.5 35 Z " /><path fill="rgb(223,211,77)" stroke="rgb(223,211,77)" stroke-width="1" opacity="1" d="M 15.5 36 Q 20.3 34.3 19 38.5 L 16 40 L 15.5 36 Z " /><path fill="rgb(223,211,77)" stroke="rgb(223,211,77)" stroke-width="1" opacity="1" d="M 6.5 38 Q 9.1 37.3 8 40 L 2 39.5 L 6.5 38 Z " /><path fill="rgb(202,227,230)" stroke="rgb(202,227,230)" stroke-width="1" opacity="1" d="M 2 2 L 10 4 Q 11.1 6.7 8.5 6 L 3 10.5 L 2.5 12 L 2 2 Z " /><path fill="rgb(202,227,230)" stroke="rgb(202,227,230)" stroke-width="1" opacity="1" d="M 22.5 6 L 23.5 8 L 22.5 6 Z " /><path fill="rgb(202,227,230)" stroke="rgb(202,227,230)" stroke-width="1" opacity="1" d="M 25.5 8 L 26 10.5 L 25 10.5 L 25.5 8 Z " /><path fill="rgb(202,227,230)" stroke="rgb(202,227,230)" stroke-width="1" opacity="1" d="M 12.5 13 L 15 13.5 L 12.5 14 L 12.5 13 Z " /><path fill="rgb(202,227,230)" stroke="rgb(202,227,230)" stroke-width="1" opacity="1" d="M 1.5 14 L 3 16.5 L 1 15.5 L 1.5 14 Z " /><path fill="rgb(202,227,230)" stroke="rgb(202,227,230)" stroke-width="1" opacity="1" d="M 26.5 20 L 25.5 22 L 26.5 20 Z " /><path fill="rgb(202,227,230)" stroke="rgb(202,227,230)" stroke-width="1" opacity="1" d="M 5.5 30 L 6 32.5 L 5 32.5 L 5.5 30 Z " /><path fill="rgb(202,227,230)" stroke="rgb(202,227,230)" stroke-width="1" opacity="1" d="M 2 37 L 4 37.5 L 2 38.5 L 2 37 Z " /><path fill="rgb(202,227,230)" stroke="rgb(202,227,230)" stroke-width="1" opacity="1" d="M 7.5 48 L 12 48.5 L 7.5 49 L 7.5 48 Z " /><path fill="rgb(202,227,230)" stroke="rgb(202,227,230)" stroke-width="1" opacity="1" d="M 18.5 48 L 23 48.5 L 18.5 49 L 18.5 48 Z " /><path fill="rgb(207,241,249)" stroke="rgb(207,241,249)" stroke-width="1" opacity="1" d="M 5.5 2 L 13 2 L 13 5 L 5.5 3 L 5.5 2 Z " /><path fill="rgb(207,241,249)" stroke="rgb(207,241,249)" stroke-width="1" opacity="1" d="M 10.5 14 L 11 15.5 L 11 17.5 L 10 19.5 L 11 22 L 8.5 21 L 8 23 L 13 25 L 13.5 27 L 15 26.5 L 14 29 L 11.5 30 L 8 27.5 L 7.5 30 L 4 27.5 L 5 30.5 L 3.5 30 Q 1.3 30.8 2 28.5 Q 5.5 27 3 25.5 L 2 23.5 L 4 23 L 8 15 L 10.5 14 Z " /><path fill="rgb(207,241,249)" stroke="rgb(207,241,249)" stroke-width="1" opacity="1" d="M 13 14 L 15 14.5 L 13 15.5 L 13 14 Z " /><path fill="rgb(211,247,253)" stroke="rgb(211,247,253)" stroke-width="1" opacity="1" d="M 24 2 L 27 2.5 L 26 5 L 24 5.5 L 24.5 7 L 18 4.5 L 24 4 L 24 2 Z " /><path fill="rgb(211,247,253)" stroke="rgb(211,247,253)" stroke-width="1" opacity="1" d="M 11 14 Q 13.7 12.9 13 15.5 L 14.5 15 L 19.5 14 L 19.5 15 L 15 16.5 L 19 17.5 L 17 18 L 17.5 20 L 20 19 Q 18.8 16 22.5 17 L 22 18.5 L 21 20.5 L 23.5 25 L 24.5 23 L 27 28 L 23 28.5 L 26 29.5 L 21.5 31 L 19.5 30 L 18 30.5 Q 19.1 27.2 16.5 28 L 14 29 Q 12.9 26.3 15.5 27 L 17 24 Q 19.7 22.9 19 25.5 L 20.5 25 Q 23.1 25.7 22 23 L 18 22.5 L 18.5 21 L 14 19.5 Q 16.3 18.3 13.5 17 Q 9.3 18.1 11 14 Z M 18 26 L 19 28 L 25 27 L 25 26 L 21 27 L 18 26 Z " /><path fill="rgb(211,247,253)" stroke="rgb(211,247,253)" stroke-width="1" opacity="1" d="M 11.5 20 L 16 23.5 L 15 26 L 11 24.5 L 13 23.5 L 8 22.5 L 11 22 L 11.5 20 Z " /><path fill="rgb(211,247,253)" stroke="rgb(211,247,253)" stroke-width="1" opacity="1" d="M 3.5 26 L 4.5 28 L 2 27.5 L 3.5 26 Z " /><path fill="rgb(252,252,250)" stroke="rgb(252,252,250)" stroke-width="1" opacity="1" d="M 0 0 L 30 0 L 30 50 L 0 50 L 0 0 Z M 2 1 L 2 14 L 1 15 L 2 17 L 2 48 L 5 49 L 23 49 L 24 48 L 28 49 L 28 25 L 26 22 L 28 22 L 28 8 L 27 7 L 28 5 L 28 1 L 2 1 Z " /><path fill="rgb(252,252,250)" stroke="rgb(252,252,250)" stroke-width="1" opacity="1" d="M 25.5 17 L 27 19.5 L 26 19.5 L 25.5 17 Z " /><path fill="rgb(113,38,25)" stroke="rgb(113,38,25)" stroke-width="1" opacity="1" d="M 6.5 30 Q 8.8 29.3 8 31.5 L 6.5 30 Z " /><path fill="rgb(113,38,25)" stroke="rgb(113,38,25)" stroke-width="1" opacity="1" d="M 8.5 33 L 9 37.5 L 8 37.5 L 8.5 33 Z " /><path fill="rgb(113,38,25)" stroke="rgb(113,38,25)" stroke-width="1" opacity="1" d="M 14.5 40 L 15 42 L 17 42.5 L 14.5 44 L 12.5 41 L 14.5 40 Z " /><path fill="rgb(103,98,94)" stroke="rgb(103,98,94)" stroke-width="1" opacity="1" d="M 13.5 1 L 16 1.5 L 13.5 2 L 13.5 1 Z " /><path fill="rgb(103,98,94)" stroke="rgb(103,98,94)" stroke-width="1" opacity="1" d="M 8.5 6 L 10 6.5 L 7.5 8 L 8.5 6 Z " /><path fill="rgb(103,98,94)" stroke="rgb(103,98,94)" stroke-width="1" opacity="1" d="M 20.5 6 L 23 7.5 L 21.5 8 L 20.5 6 Z " /><path fill="rgb(103,98,94)" stroke="rgb(103,98,94)" stroke-width="1" opacity="1" d="M 12.5 7 L 16 8 Q 17.1 10.7 14.5 10 L 12.5 7 Z " /><path fill="rgb(103,98,94)" stroke="rgb(103,98,94)" stroke-width="1" opacity="1" d="M 4.5 9 L 3.5 11 L 4.5 9 Z " /><path fill="rgb(103,98,94)" stroke="rgb(103,98,94)" stroke-width="1" opacity="1" d="M 10.5 29 L 9.5 31 L 8 30.5 L 10.5 29 Z " /><path fill="rgb(103,98,94)" stroke="rgb(103,98,94)" stroke-width="1" opacity="1" d="M 12.5 30 L 16 30.5 L 11.5 32 L 12.5 30 Z " /><path fill="rgb(103,98,94)" stroke="rgb(103,98,94)" stroke-width="1" opacity="1" d="M 14.5 32 L 18 33.5 L 15 34.5 L 14 36.5 L 15 38.5 L 10.5 41 L 11 39.5 L 11.5 35 L 12.5 38 L 14 35.5 L 14 33.5 L 14.5 32 Z " /><path fill="rgb(103,98,94)" stroke="rgb(103,98,94)" stroke-width="1" opacity="1" d="M 23.5 37 L 24.5 39 L 23.5 37 Z " /><path fill="rgb(206,245,252)" stroke="rgb(206,245,252)" stroke-width="1" opacity="1" d="M 10.5 16 L 12.5 19 L 13.5 17 L 15 20.5 Q 15.8 22.8 13.5 22 L 10 19.5 L 11 17.5 L 10.5 16 Z " /><path fill="rgb(206,245,252)" stroke="rgb(206,245,252)" stroke-width="1" opacity="1" d="M 19.5 18 L 20.5 20 L 19.5 18 Z " /><path fill="rgb(206,245,252)" stroke="rgb(206,245,252)" stroke-width="1" opacity="1" d="M 18.5 23 Q 23.3 21.7 22 25 L 19 26.5 L 20.5 27 L 24.5 26 L 24.5 27 L 18.5 28 L 17.5 26 Q 19.8 26.8 19 24.5 L 18.5 23 Z " /><path fill="rgb(218,248,253)" stroke="rgb(218,248,253)" stroke-width="1" opacity="1" d="M 16 2 L 23.5 2 L 24 4 L 17.5 5 L 15 4.5 L 16 2 Z " /><path fill="rgb(218,248,253)" stroke="rgb(218,248,253)" stroke-width="1" opacity="1" d="M 26.5 3 Q 29.3 4.3 27 5.5 L 28 10.5 L 26 9.5 Q 26.8 7.3 24.5 8 L 24.5 5 Q 27 5.7 26.5 3 Z " /><path fill="rgb(218,248,253)" stroke="rgb(218,248,253)" stroke-width="1" opacity="1" d="M 17.5 15 Q 21.3 14.3 22 16.5 L 17 20.5 L 19 21.5 L 17 26 Q 14.3 27.1 15 24.5 L 15 22.5 L 15 20 L 17 20 Q 15.9 17.3 18.5 18 L 18.5 17 L 15 16.5 L 17.5 15 Z " /><path fill="rgb(218,248,253)" stroke="rgb(218,248,253)" stroke-width="1" opacity="1" d="M 22 18 Q 24.7 16.9 24 19.5 L 26.5 24 L 28 24.5 L 28 32 L 25.5 31 L 23 32 L 22 29.5 L 23.5 30 L 26 29.5 L 25.5 28 Q 27.8 28.8 27 26.5 L 24.5 23 L 23.5 25 L 21 20.5 L 22 18 Z " /><path fill="rgb(218,248,253)" stroke="rgb(218,248,253)" stroke-width="1" opacity="1" d="M 2.5 24 L 3 26.5 L 2 26.5 L 2.5 24 Z " /><path fill="rgb(218,248,253)" stroke="rgb(218,248,253)" stroke-width="1" opacity="1" d="M 16.5 28 L 18 28.5 L 15.5 30 L 16.5 28 Z " /><path fill="rgb(246,224,134)" stroke="rgb(246,224,134)" stroke-width="1" opacity="1" d="M 20.5 14 L 25 16.5 L 22.5 17 L 20.5 14 Z " /><path fill="rgb(246,224,134)" stroke="rgb(246,224,134)" stroke-width="1" opacity="1" d="M 24 18 L 26 18.5 L 24 19.5 L 24 18 Z " /><path fill="rgb(246,224,134)" stroke="rgb(246,224,134)" stroke-width="1" opacity="1" d="M 27.5 21 L 26.5 23 L 27.5 21 Z " /><path fill="rgb(246,224,134)" stroke="rgb(246,224,134)" stroke-width="1" opacity="1" d="M 6.5 40 L 9 40.5 L 7 43.5 L 12 45.5 L 12.5 47 L 16.5 44 Q 21.8 45.3 23 42.5 L 23.5 41 L 24 43 L 26 43 Q 24.7 38.9 28 40 L 27.5 45 L 25 44 L 26.5 47 L 28 46.5 L 27.5 48 L 19.5 48 L 17.5 48 L 2 48 L 2 41 L 6.5 40 Z M 8 45 L 8 46 L 10 46 L 8 45 Z " /><path fill="rgb(246,224,134)" stroke="rgb(246,224,134)" stroke-width="1" opacity="1" d="M 16.5 41 L 19 42.5 L 17.5 42 L 16.5 41 Z " /><path fill="rgb(52,39,26)" stroke="rgb(52,39,26)" stroke-width="1" opacity="1" d="M 23.5 14 L 26 15.5 L 24.5 15 L 23.5 14 Z " /><path fill="rgb(52,39,26)" stroke="rgb(52,39,26)" stroke-width="1" opacity="1" d="M 2.5 32 L 4.5 32 L 8 35.5 L 4.5 33 L 2 34.5 L 2.5 32 Z " /><path fill="rgb(52,39,26)" stroke="rgb(52,39,26)" stroke-width="1" opacity="1" d="M 23.5 32 Q 26.8 30.9 26 33.5 L 23.5 34 L 18 33.5 L 23.5 32 Z " /><path fill="rgb(52,39,26)" stroke="rgb(52,39,26)" stroke-width="1" opacity="1" d="M 13.5 38 Q 16.5 39.5 13.5 41 L 12 40.5 L 14 39.5 L 13.5 38 Z " /><path fill="rgb(52,39,26)" stroke="rgb(52,39,26)" stroke-width="1" opacity="1" d="M 15.5 43 L 18 43.5 L 15.5 44 L 15.5 43 Z " /><path fill="rgb(239,218,115)" stroke="rgb(239,218,115)" stroke-width="1" opacity="1" d="M 25.5 16 L 24.5 18 L 23 17.5 L 25.5 16 Z " /><path fill="rgb(239,218,115)" stroke="rgb(239,218,115)" stroke-width="1" opacity="1" d="M 26 37 L 28 37.5 L 27.5 40 L 25 39.5 L 26 37 Z " /><path fill="rgb(239,218,115)" stroke="rgb(239,218,115)" stroke-width="1" opacity="1" d="M 2.5 40 Q 6.3 39.3 7 41.5 L 5.5 41 Q 1.5 41.8 2.5 40 Z " /><path fill="rgb(239,218,115)" stroke="rgb(239,218,115)" stroke-width="1" opacity="1" d="M 16.5 40 Q 19.8 38.9 19 41.5 L 17.5 41 L 16.5 40 Z " /><path fill="rgb(239,218,115)" stroke="rgb(239,218,115)" stroke-width="1" opacity="1" d="M 22.5 41 L 23 42.5 L 21 43.5 L 22.5 41 Z " /><path fill="rgb(239,218,115)" stroke="rgb(239,218,115)" stroke-width="1" opacity="1" d="M 8.5 42 L 7.5 45 L 10 45.5 L 7.5 46 Q 4 44 8.5 42 Z " /><path fill="rgb(239,218,115)" stroke="rgb(239,218,115)" stroke-width="1" opacity="1" d="M 11 43 L 16 44.5 L 12.5 47 L 11 43 Z " /><path fill="rgb(153,164,164)" stroke="rgb(153,164,164)" stroke-width="1" opacity="1" d="M 12.5 1 L 14 3.5 L 13 3.5 L 12.5 1 Z " /><path fill="rgb(153,164,164)" stroke="rgb(153,164,164)" stroke-width="1" opacity="1" d="M 16.5 1 L 16 2.5 L 15.5 4 L 15 2.5 L 16.5 1 Z " /><path fill="rgb(153,164,164)" stroke="rgb(153,164,164)" stroke-width="1" opacity="1" d="M 24.5 1 L 28 1.5 L 24.5 2 L 24.5 1 Z " /><path fill="rgb(153,164,164)" stroke="rgb(153,164,164)" stroke-width="1" opacity="1" d="M 16 8 L 19 9.5 L 16 9.5 L 16 8 Z " /><path fill="rgb(153,164,164)" stroke="rgb(153,164,164)" stroke-width="1" opacity="1" d="M 12.5 29 L 13.5 33 Q 11.3 33.8 12 31.5 Q 9.8 30.3 12.5 29 Z " /><path fill="rgb(153,164,164)" stroke="rgb(153,164,164)" stroke-width="1" opacity="1" d="M 16.5 30 L 17.5 32 L 16 31.5 L 17 33.5 L 15 34.5 L 15 32.5 L 16.5 30 Z " /><path fill="rgb(153,164,164)" stroke="rgb(153,164,164)" stroke-width="1" opacity="1" d="M 11.5 34 Q 14.5 33.1 13 37.5 L 12 37.5 L 11.5 34 Z " /><path fill="rgb(153,164,164)" stroke="rgb(153,164,164)" stroke-width="1" opacity="1" d="M 6.5 36 L 5.5 38 L 3.5 39 L 4.5 37 L 6.5 36 Z " /><path fill="rgb(153,164,164)" stroke="rgb(153,164,164)" stroke-width="1" opacity="1" d="M 10.5 38 L 11 39.5 L 9 40.5 L 10.5 38 Z " /><path fill="rgb(153,164,164)" stroke="rgb(153,164,164)" stroke-width="1" opacity="1" d="M 23.5 38 L 25 40.5 L 24 40.5 L 23.5 38 Z " /></svg>