<svg width="30" height="50" version="1.1" xmlns="http://www.w3.org/2000/svg" desc="Created with imagetracer.js version 1.2.6" ><path fill="rgb(234,226,226)" stroke="rgb(234,226,226)" stroke-width="1" opacity="1" d="M 2 2 L 6.5 3 L 8.5 2 L 8.5 3 L 7 3.5 L 9.5 5 L 12 4 Q 13.7 8.1 9.5 7 L 7 6 Q 8.3 3 4.5 4 L 5 5.5 Q 4.2 8.1 7.5 7 L 7.5 8 L 5 8.5 L 10 9.5 L 8 13 L 4 14.5 L 5 19.5 L 7 21.5 L 5 22 L 5.5 24 L 7.5 23 Q 9 25.5 10.5 22 Q 14.9 20.5 14 23.5 Q 10.2 24.3 11 29.5 L 12 31.5 L 11 36 L 2.5 36 L 2 35.5 L 2 7.5 L 3 5.5 L 2 2 Z " /><path fill="rgb(234,226,226)" stroke="rgb(234,226,226)" stroke-width="1" opacity="1" d="M 10.5 12 Q 13.3 13.3 11 14.5 L 9.5 18 L 9 15.5 L 10.5 12 Z " /><path fill="rgb(234,226,226)" stroke="rgb(234,226,226)" stroke-width="1" opacity="1" d="M 16.5 31 L 17 36 Q 14 37.3 15 33.5 L 16.5 31 Z " /><path fill="rgb(234,226,226)" stroke="rgb(234,226,226)" stroke-width="1" opacity="1" d="M 21.5 32 L 22 34 L 24.5 33 L 24 34.5 Q 24.8 37.1 21.5 36 L 21 33.5 L 21.5 32 Z " /><path fill="rgb(234,226,226)" stroke="rgb(234,226,226)" stroke-width="1" opacity="1" d="M 21.5 45 L 24.5 46 L 27 45 Q 28.7 49.1 24.5 48 L 21.5 45 Z " /><path fill="rgb(114,163,174)" stroke="rgb(114,163,174)" stroke-width="1" opacity="1" d="M 14.5 8 L 14 9.5 Q 14.8 11.8 12.5 11 L 11.5 9 L 14.5 8 Z " /><path fill="rgb(114,163,174)" stroke="rgb(114,163,174)" stroke-width="1" opacity="1" d="M 16.5 17 L 18 19.5 L 17.5 21 Q 20.1 20.2 19 23.5 L 18 23.5 L 16 20.5 L 17 18.5 L 16.5 17 Z " /><path fill="rgb(114,163,174)" stroke="rgb(114,163,174)" stroke-width="1" opacity="1" d="M 13.5 25 L 16 25.5 L 13.5 26 L 13.5 25 Z " /><path fill="rgb(114,163,174)" stroke="rgb(114,163,174)" stroke-width="1" opacity="1" d="M 18.5 26 L 16.5 29 L 15 28.5 L 18.5 26 Z " /><path fill="rgb(114,163,174)" stroke="rgb(114,163,174)" stroke-width="1" opacity="1" d="M 4.5 36 L 6.5 36 Q 11.9 34.1 11 37.5 L 9.5 40 L 9 38.5 L 9.5 37 L 5.5 38 L 4.5 36 Z " /><path fill="rgb(114,163,174)" stroke="rgb(114,163,174)" stroke-width="1" opacity="1" d="M 23.5 36 L 25.5 37 L 27.5 36 L 27.5 37 L 26 37.5 L 26.5 39 Q 25 36.5 23.5 40 Q 21.3 40.8 22 38.5 L 21.5 37 L 23.5 36 Z " /><path fill="rgb(114,163,174)" stroke="rgb(114,163,174)" stroke-width="1" opacity="1" d="M 15.5 37 L 16.5 39 L 15 38.5 Q 15.8 40.8 13.5 40 L 15.5 37 Z " /><path fill="rgb(67,60,60)" stroke="rgb(67,60,60)" stroke-width="1" opacity="1" d="M 2.5 1 L 7 1.5 L 2.5 2 L 2.5 1 Z " /><path fill="rgb(67,60,60)" stroke="rgb(67,60,60)" stroke-width="1" opacity="1" d="M 14.5 1 L 17 1.5 L 14.5 2 L 14.5 1 Z " /><path fill="rgb(67,60,60)" stroke="rgb(67,60,60)" stroke-width="1" opacity="1" d="M 18.5 9 L 19 10.5 L 17 11.5 L 18.5 9 Z " /><path fill="rgb(67,60,60)" stroke="rgb(67,60,60)" stroke-width="1" opacity="1" d="M 12 11 L 14 11.5 L 12 12.5 L 12 11 Z " /><path fill="rgb(67,60,60)" stroke="rgb(67,60,60)" stroke-width="1" opacity="1" d="M 7.5 13 L 10 14.5 L 8.5 15 L 7.5 13 Z " /><path fill="rgb(67,60,60)" stroke="rgb(67,60,60)" stroke-width="1" opacity="1" d="M 14.5 13 L 15 14.5 Q 12.8 15.8 15.5 17 L 17 16.5 L 16 18.5 L 16.5 20 L 14 18.5 Q 15.1 15.2 12.5 16 L 12.5 15 Q 15 15.7 14.5 13 Z " /><path fill="rgb(67,60,60)" stroke="rgb(67,60,60)" stroke-width="1" opacity="1" d="M 20.5 13 L 24 15.5 L 20 16.5 L 22 18.5 L 21 19.5 L 22.5 22 L 20 21.5 L 19 16.5 L 20.5 13 Z " /><path fill="rgb(67,60,60)" stroke="rgb(67,60,60)" stroke-width="1" opacity="1" d="M 15 22 L 18 22.5 L 17.5 24 L 21 24.5 L 16.5 26 L 16.5 24 Q 13.9 24.7 15 22 Z " /><path fill="rgb(67,60,60)" stroke="rgb(67,60,60)" stroke-width="1" opacity="1" d="M 13.5 26 Q 15.8 25.3 15 27.5 L 13.5 26 Z " /><path fill="rgb(67,60,60)" stroke="rgb(67,60,60)" stroke-width="1" opacity="1" d="M 18.5 28 Q 20.8 27.3 20 29.5 L 18.5 28 Z " /><path fill="rgb(67,60,60)" stroke="rgb(67,60,60)" stroke-width="1" opacity="1" d="M 12.5 29 L 15 29.5 L 12.5 30 L 12.5 29 Z " /><path fill="rgb(67,60,60)" stroke="rgb(67,60,60)" stroke-width="1" opacity="1" d="M 18 46 L 20 46.5 L 18 47.5 L 18 46 Z " /><path fill="rgb(220,218,217)" stroke="rgb(220,218,217)" stroke-width="1" opacity="1" d="M 27.5 2 L 28 9.5 L 26 8.5 Q 27.5 4.1 24.5 5 L 24.5 4 Q 28 5 27.5 2 Z " /><path fill="rgb(220,218,217)" stroke="rgb(220,218,217)" stroke-width="1" opacity="1" d="M 22.5 4 L 23 5.5 L 23 7.5 L 22.5 9 L 22 7 L 19 5.5 L 20.5 6 Q 23 6.7 22.5 4 Z " /><path fill="rgb(220,218,217)" stroke="rgb(220,218,217)" stroke-width="1" opacity="1" d="M 15.5 8 L 19 8.5 L 14.5 10 L 15.5 8 Z " /><path fill="rgb(220,218,217)" stroke="rgb(220,218,217)" stroke-width="1" opacity="1" d="M 19.5 11 L 21 11.5 L 18.5 13 L 19.5 11 Z " /><path fill="rgb(220,218,217)" stroke="rgb(220,218,217)" stroke-width="1" opacity="1" d="M 26 11 L 28 11.5 L 28 27 L 26 26.5 L 27 23.5 L 27 21.5 L 26 19.5 L 27 18.5 L 25.5 16 L 27 16.5 Q 27.8 14.3 25.5 15 L 25.5 14 L 27 13.5 L 26 11 Z " /><path fill="rgb(220,218,217)" stroke="rgb(220,218,217)" stroke-width="1" opacity="1" d="M 15.5 15 L 18 15.5 L 15.5 16 L 15.5 15 Z " /><path fill="rgb(220,218,217)" stroke="rgb(220,218,217)" stroke-width="1" opacity="1" d="M 27.5 32 L 28 34.5 L 25.5 36 L 25.5 35 Q 28.4 35.7 27.5 32 Z " /><path fill="rgb(220,218,217)" stroke="rgb(220,218,217)" stroke-width="1" opacity="1" d="M 2 37 L 4 37.5 L 3.5 40 Q 0.5 40.7 2 37 Z " /><path fill="rgb(220,218,217)" stroke="rgb(220,218,217)" stroke-width="1" opacity="1" d="M 9.5 37 L 8.5 39 L 5.5 40 L 5.5 39 L 9.5 37 Z " /><path fill="rgb(220,218,217)" stroke="rgb(220,218,217)" stroke-width="1" opacity="1" d="M 12.5 45 L 15 45.5 L 12.5 46 L 12.5 45 Z " /><path fill="rgb(220,218,217)" stroke="rgb(220,218,217)" stroke-width="1" opacity="1" d="M 10.5 46 L 9.5 48 L 8 47.5 L 10.5 46 Z " /><path fill="rgb(220,196,193)" stroke="rgb(220,196,193)" stroke-width="1" opacity="1" d="M 4.5 14 L 6 16.5 L 5 16.5 L 4.5 14 Z " /><path fill="rgb(220,196,193)" stroke="rgb(220,196,193)" stroke-width="1" opacity="1" d="M 25.5 17 Q 29 19 24.5 21 L 25.5 17 Z " /><path fill="rgb(220,196,193)" stroke="rgb(220,196,193)" stroke-width="1" opacity="1" d="M 5.5 46 L 5 47.5 L 4.5 49 L 4 47.5 L 5.5 46 Z " /><path fill="rgb(220,196,193)" stroke="rgb(220,196,193)" stroke-width="1" opacity="1" d="M 7.5 46 L 9 48.5 L 7 49 L 7.5 46 Z " /><path fill="rgb(132,62,47)" stroke="rgb(132,62,47)" stroke-width="1" opacity="1" d="M 12.5 16 Q 14.8 15.3 14 17.5 Q 12.5 20.5 11 17.5 L 12.5 16 Z " /><path fill="rgb(132,62,47)" stroke="rgb(132,62,47)" stroke-width="1" opacity="1" d="M 20.5 16 L 21.5 18 L 20.5 16 Z " /><path fill="rgb(132,62,47)" stroke="rgb(132,62,47)" stroke-width="1" opacity="1" d="M 25.5 18 L 23.5 21 L 23 19 L 25.5 18 Z " /><path fill="rgb(132,62,47)" stroke="rgb(132,62,47)" stroke-width="1" opacity="1" d="M 9.5 19 L 10.5 21 L 7 20.5 L 9.5 19 Z " /><path fill="rgb(132,62,47)" stroke="rgb(132,62,47)" stroke-width="1" opacity="1" d="M 12.5 20 L 13.5 22 Q 10.7 22.7 12.5 20 Z " /><path fill="rgb(132,62,47)" stroke="rgb(132,62,47)" stroke-width="1" opacity="1" d="M 21.5 21 L 22 22.5 L 19.5 24 L 19.5 23 Q 22 23.7 21.5 21 Z " /><path fill="rgb(132,62,47)" stroke="rgb(132,62,47)" stroke-width="1" opacity="1" d="M 19.5 36 L 20 38.5 L 19 38.5 L 19.5 36 Z " /><path fill="rgb(132,62,47)" stroke="rgb(132,62,47)" stroke-width="1" opacity="1" d="M 11.5 37 L 12.5 39 Q 9.7 39.7 11.5 37 Z " /><path fill="rgb(192,105,104)" stroke="rgb(192,105,104)" stroke-width="1" opacity="1" d="M 22 16 Q 24.7 14.9 24 17.5 L 24.5 19 Q 20.3 20.1 22 16 Z " /><path fill="rgb(192,105,104)" stroke="rgb(192,105,104)" stroke-width="1" opacity="1" d="M 12.5 17 L 15 20.5 L 13 21 L 12.5 17 Z " /><path fill="rgb(192,105,104)" stroke="rgb(192,105,104)" stroke-width="1" opacity="1" d="M 21.5 30 L 20 32.5 Q 20.7 35.1 18 34 Q 16.3 29.9 20.5 31 L 21.5 30 Z " /><path fill="rgb(192,105,104)" stroke="rgb(192,105,104)" stroke-width="1" opacity="1" d="M 13 31 L 15 31.5 L 13 34.5 L 13.5 36 Q 11.3 36.8 12 34.5 L 13 31 Z " /><path fill="rgb(192,105,104)" stroke="rgb(192,105,104)" stroke-width="1" opacity="1" d="M 18.5 35 L 19 37 L 17 36.5 L 18.5 35 Z " /><path fill="rgb(187,186,188)" stroke="rgb(187,186,188)" stroke-width="1" opacity="1" d="M 10.5 17 L 9.5 19 L 10.5 17 Z " /><path fill="rgb(187,186,188)" stroke="rgb(187,186,188)" stroke-width="1" opacity="1" d="M 18.5 18 L 20 20.5 L 18 19.5 L 18.5 18 Z " /><path fill="rgb(187,186,188)" stroke="rgb(187,186,188)" stroke-width="1" opacity="1" d="M 15.5 20 L 16.5 22 L 15.5 20 Z " /><path fill="rgb(187,186,188)" stroke="rgb(187,186,188)" stroke-width="1" opacity="1" d="M 25.5 36 L 28 37 Q 29.8 41.5 24.5 40 L 23.5 38 L 26.5 39 L 25.5 36 Z " /><path fill="rgb(187,186,188)" stroke="rgb(187,186,188)" stroke-width="1" opacity="1" d="M 4.5 37 L 4.5 40 Q 1.5 38.5 4.5 37 Z " /><path fill="rgb(187,186,188)" stroke="rgb(187,186,188)" stroke-width="1" opacity="1" d="M 14.5 46 L 16 46.5 L 12.5 49 L 10.5 48 L 9 48.5 L 11.5 47 Q 13 49.5 14.5 46 Z " /><path fill="rgb(187,186,188)" stroke="rgb(187,186,188)" stroke-width="1" opacity="1" d="M 17.5 46 L 18 47.5 L 16 48.5 L 17.5 46 Z " /><path fill="rgb(252,252,252)" stroke="rgb(252,252,252)" stroke-width="1" opacity="1" d="M 0 0 L 30 0 L 30 50 L 0 50 L 0 0 Z M 2 1 L 2 49 L 28 49 L 28 1 L 2 1 Z " /><path fill="rgb(169,156,154)" stroke="rgb(169,156,154)" stroke-width="1" opacity="1" d="M 21.5 1 L 27 1.5 L 21.5 2 L 21.5 1 Z " /><path fill="rgb(169,156,154)" stroke="rgb(169,156,154)" stroke-width="1" opacity="1" d="M 14.5 12 L 13.5 14 L 14.5 12 Z " /><path fill="rgb(169,156,154)" stroke="rgb(169,156,154)" stroke-width="1" opacity="1" d="M 12.5 26 L 13.5 28 L 12.5 26 Z " /><path fill="rgb(169,156,154)" stroke="rgb(169,156,154)" stroke-width="1" opacity="1" d="M 22.5 27 L 23 29.5 L 22 29.5 L 22.5 27 Z " /><path fill="rgb(169,156,154)" stroke="rgb(169,156,154)" stroke-width="1" opacity="1" d="M 11.5 28 L 13 30.5 L 11 29.5 L 11.5 28 Z " /><path fill="rgb(169,156,154)" stroke="rgb(169,156,154)" stroke-width="1" opacity="1" d="M 15.5 31 L 16 32.5 L 14.5 35 L 14 33.5 L 15.5 31 Z " /><path fill="rgb(169,156,154)" stroke="rgb(169,156,154)" stroke-width="1" opacity="1" d="M 3.5 45 L 10 45.5 Q 8.8 48.3 7.5 46 Q 2.5 47 3.5 45 Z " /><path fill="rgb(169,156,154)" stroke="rgb(169,156,154)" stroke-width="1" opacity="1" d="M 20.5 46 L 20 47.5 Q 20.8 50.1 17.5 49 L 17.5 48 L 20.5 46 Z " /><path fill="rgb(169,156,154)" stroke="rgb(169,156,154)" stroke-width="1" opacity="1" d="M 14.5 47 L 15.5 49 L 13 48.5 L 14.5 47 Z " /><path fill="rgb(169,156,154)" stroke="rgb(169,156,154)" stroke-width="1" opacity="1" d="M 23.5 48 L 26 48.5 L 23.5 49 L 23.5 48 Z " /><path fill="rgb(202,29,31)" stroke="rgb(202,29,31)" stroke-width="1" opacity="1" d="M 14.5 30 L 21 30.5 L 14.5 31 L 14.5 30 Z " /><path fill="rgb(230,221,220)" stroke="rgb(230,221,220)" stroke-width="1" opacity="1" d="M 4.5 2 L 8.5 3 L 13.5 2 L 15.5 3 L 16.5 2 L 27 2 Q 28.3 5 24.5 4 L 24.5 5 Q 27.5 4.1 26 8.5 L 27.5 11 Q 25.3 10.3 26 12.5 L 26.5 14 L 25 14.5 L 27 15 L 26.5 17 L 21 12.5 L 18.5 8 L 5.5 9 L 5.5 8 L 8 7.5 L 5 7 L 4 4.5 L 7 3.5 Q 3.7 3.6 4.5 2 Z M 7 4 L 7 6 L 10 7 Q 14 8 12 4 L 10 5 L 7 4 Z " /><path fill="rgb(230,221,220)" stroke="rgb(230,221,220)" stroke-width="1" opacity="1" d="M 9.5 10 L 10 12 L 8 11.5 L 9.5 10 Z " /><path fill="rgb(230,221,220)" stroke="rgb(230,221,220)" stroke-width="1" opacity="1" d="M 25.5 20 Q 27.8 19.3 27 21.5 L 27 23.5 L 26 26.5 L 28 27.5 L 27 29.5 L 28 31.5 L 27 34.5 L 27.5 36 L 25.5 35 L 24 35.5 Q 24.8 33.3 22.5 34 L 20 35.5 L 24 28.5 L 22 23.5 L 25.5 20 Z " /><path fill="rgb(230,221,220)" stroke="rgb(230,221,220)" stroke-width="1" opacity="1" d="M 5.5 23 L 4.5 25 L 5.5 23 Z " /><path fill="rgb(134,119,100)" stroke="rgb(134,119,100)" stroke-width="1" opacity="1" d="M 19.5 15 L 19 16.5 L 18.5 18 L 17.5 16 L 19.5 15 Z " /><path fill="rgb(134,119,100)" stroke="rgb(134,119,100)" stroke-width="1" opacity="1" d="M 14.5 21 L 15 24 L 17.5 23 L 16.5 25 Q 11.8 26.2 14.5 21 Z " /><path fill="rgb(134,119,100)" stroke="rgb(134,119,100)" stroke-width="1" opacity="1" d="M 15 26 L 17 26.5 L 14 28.5 L 15 26 Z " /><path fill="rgb(134,119,100)" stroke="rgb(134,119,100)" stroke-width="1" opacity="1" d="M 20.5 26 L 21 28 L 19 27.5 L 20.5 26 Z " /><path fill="rgb(134,119,100)" stroke="rgb(134,119,100)" stroke-width="1" opacity="1" d="M 17.5 28 L 18.5 30 L 16 29.5 L 17.5 28 Z " /><path fill="rgb(134,119,100)" stroke="rgb(134,119,100)" stroke-width="1" opacity="1" d="M 20.5 36 L 23 36.5 L 20.5 37 L 20.5 36 Z " /><path fill="rgb(134,119,100)" stroke="rgb(134,119,100)" stroke-width="1" opacity="1" d="M 16.5 37 L 17.5 39 L 15 38.5 L 16.5 37 Z " /><path fill="rgb(134,119,100)" stroke="rgb(134,119,100)" stroke-width="1" opacity="1" d="M 2.5 40 L 5 40.5 L 2.5 41 L 2.5 40 Z " /><path fill="rgb(134,119,100)" stroke="rgb(134,119,100)" stroke-width="1" opacity="1" d="M 6.5 46 L 5.5 48 L 6.5 46 Z " /><path fill="rgb(134,119,100)" stroke="rgb(134,119,100)" stroke-width="1" opacity="1" d="M 20.5 48 L 23 48.5 L 20.5 49 L 20.5 48 Z " /><path fill="rgb(168,111,51)" stroke="rgb(168,111,51)" stroke-width="1" opacity="1" d="M 11.5 18 L 12.5 20 Q 9.7 20.7 11.5 18 Z " /><path fill="rgb(168,111,51)" stroke="rgb(168,111,51)" stroke-width="1" opacity="1" d="M 13.5 36 L 14 38 L 12 37.5 L 13.5 36 Z " /><path fill="rgb(168,111,51)" stroke="rgb(168,111,51)" stroke-width="1" opacity="1" d="M 17.5 37 L 18.5 39 L 17.5 37 Z " /><path fill="rgb(168,111,51)" stroke="rgb(168,111,51)" stroke-width="1" opacity="1" d="M 19.5 40 L 24 40.5 L 19.5 41 L 19.5 40 Z " /><path fill="rgb(168,111,51)" stroke="rgb(168,111,51)" stroke-width="1" opacity="1" d="M 10.5 41 Q 13.8 39.9 13 42.5 L 11.5 42 L 10.5 41 Z " /><path fill="rgb(168,111,51)" stroke="rgb(168,111,51)" stroke-width="1" opacity="1" d="M 26.5 41 L 27 43 L 25 42.5 L 26.5 41 Z " /><path fill="rgb(248,217,75)" stroke="rgb(248,217,75)" stroke-width="1" opacity="1" d="M 7 15 L 9 15.5 L 7 16.5 L 7 15 Z " /><path fill="rgb(248,217,75)" stroke="rgb(248,217,75)" stroke-width="1" opacity="1" d="M 2 41 L 9 41.5 L 8.5 43 L 12.5 43 Q 11.7 39.7 17 41 L 18.5 44 L 21 43.5 L 19.5 41 L 24.5 41 Q 23.9 43.8 27 43 L 27.5 41 L 28 45 L 2.5 45 L 2 41 Z " /><path fill="rgb(206,168,74)" stroke="rgb(206,168,74)" stroke-width="1" opacity="1" d="M 15.5 10 L 17 13.5 L 15 12.5 L 15.5 10 Z " /><path fill="rgb(206,168,74)" stroke="rgb(206,168,74)" stroke-width="1" opacity="1" d="M 11.5 39 L 16.5 40 Q 17.8 37.8 19 40.5 L 21 43.5 L 18.5 44 L 17 42.5 Q 17.5 39.5 10.5 41 L 8 42.5 L 8.5 40 L 11.5 39 Z " /><path fill="rgb(206,168,74)" stroke="rgb(206,168,74)" stroke-width="1" opacity="1" d="M 24.5 40 L 28 40.5 L 25.5 42 L 24.5 40 Z " /></svg>