<svg width="30" height="50" version="1.1" xmlns="http://www.w3.org/2000/svg" desc="Created with imagetracer.js version 1.2.6" ><path fill="rgb(213,238,245)" stroke="rgb(213,238,245)" stroke-width="1" opacity="1" d="M 4.5 2 L 8.5 3 L 10 2.5 L 9 3.5 L 10.5 6 L 7.5 4 L 2.5 6 L 2 4.5 L 4.5 2 Z " /><path fill="rgb(213,238,245)" stroke="rgb(213,238,245)" stroke-width="1" opacity="1" d="M 2 7 L 8 7 L 8 10.5 L 7 13.5 L 8 19.5 Q 6.6 22.3 2 21 L 2 7 Z " /><path fill="rgb(213,238,245)" stroke="rgb(213,238,245)" stroke-width="1" opacity="1" d="M 7.5 32 L 9 32.5 L 7.5 35 L 10.5 34 L 12.5 37 L 11 37.5 L 12 39.5 L 10.5 39 Q 3.7 40.8 2 37.5 Q 0.9 34.2 3.5 35 L 7.5 32 Z " /><path fill="rgb(169,149,125)" stroke="rgb(169,149,125)" stroke-width="1" opacity="1" d="M 10.5 30 L 11 32.5 L 10 32.5 L 10.5 30 Z " /><path fill="rgb(169,149,125)" stroke="rgb(169,149,125)" stroke-width="1" opacity="1" d="M 9.5 40 L 12 41.5 L 10.5 42 L 9.5 40 Z " /><path fill="rgb(152,120,64)" stroke="rgb(152,120,64)" stroke-width="1" opacity="1" d="M 18.5 10 Q 21.1 9.2 20 12.5 L 19 12.5 L 18.5 10 Z " /><path fill="rgb(152,120,64)" stroke="rgb(152,120,64)" stroke-width="1" opacity="1" d="M 25.5 37 L 28 40.5 L 25 38.5 L 25.5 37 Z " /><path fill="rgb(152,120,64)" stroke="rgb(152,120,64)" stroke-width="1" opacity="1" d="M 19.5 39 L 20.5 41 L 19.5 39 Z " /><path fill="rgb(152,120,64)" stroke="rgb(152,120,64)" stroke-width="1" opacity="1" d="M 23.5 41 L 22.5 43 L 23.5 41 Z " /><path fill="rgb(152,120,64)" stroke="rgb(152,120,64)" stroke-width="1" opacity="1" d="M 10.5 42 L 13 42.5 L 10.5 43 L 10.5 42 Z " /><path fill="rgb(250,252,252)" stroke="rgb(250,252,252)" stroke-width="1" opacity="1" d="M 0 0 L 30 0 L 30 50 L 0 50 L 0 0 Z M 2 1 L 2 3 L 1 7 L 2 8 L 2 40 L 1 43 L 2 49 L 29 49 L 22 46 L 28 45 L 29 37 L 29 35 L 26 29 L 29 25 Q 30 21 28 22 L 28 21 L 24 18 L 22 18 L 23 16 L 25 17 L 24 15 L 25 13 L 25 11 L 28 9 L 28 7 L 26 6 L 28 2 L 2 1 Z " /><path fill="rgb(236,238,240)" stroke="rgb(236,238,240)" stroke-width="1" opacity="1" d="M 26.5 19 L 27.5 21 L 26.5 19 Z " /><path fill="rgb(236,238,240)" stroke="rgb(236,238,240)" stroke-width="1" opacity="1" d="M 28.5 22 L 29 24.5 L 27 25.5 L 28.5 22 Z " /><path fill="rgb(236,238,240)" stroke="rgb(236,238,240)" stroke-width="1" opacity="1" d="M 24.5 24 L 25 26.5 L 24 26.5 L 24.5 24 Z " /><path fill="rgb(236,238,240)" stroke="rgb(236,238,240)" stroke-width="1" opacity="1" d="M 15 27 L 18 28.5 Q 16.9 31.8 19.5 31 L 22 32 L 21.5 34 L 15 31.5 L 15 27 Z " /><path fill="rgb(236,238,240)" stroke="rgb(236,238,240)" stroke-width="1" opacity="1" d="M 14 36 Q 16.7 34.9 16 37.5 L 14 38.5 L 14 36 Z " /><path fill="rgb(236,238,240)" stroke="rgb(236,238,240)" stroke-width="1" opacity="1" d="M 19.5 36 L 20.5 38 L 18 37.5 L 19.5 36 Z " /><path fill="rgb(236,238,240)" stroke="rgb(236,238,240)" stroke-width="1" opacity="1" d="M 28.5 36 L 29 38.5 L 28 38.5 L 28.5 36 Z " /><path fill="rgb(236,238,240)" stroke="rgb(236,238,240)" stroke-width="1" opacity="1" d="M 11.5 45 L 20 45.5 L 11.5 46 L 11.5 45 Z " /><path fill="rgb(61,59,64)" stroke="rgb(61,59,64)" stroke-width="1" opacity="1" d="M 4.5 5 L 7 6.5 L 5.5 6 L 3.5 7 L 4.5 5 Z " /><path fill="rgb(61,59,64)" stroke="rgb(61,59,64)" stroke-width="1" opacity="1" d="M 10.5 16 L 11 19.5 L 9 18.5 L 10.5 16 Z " /><path fill="rgb(61,59,64)" stroke="rgb(61,59,64)" stroke-width="1" opacity="1" d="M 12.5 19 L 13.5 21 L 15 20.5 L 14 22.5 L 16 22.5 Q 16.8 24.8 14.5 24 Q 10.8 22.2 12.5 19 Z " /><path fill="rgb(61,59,64)" stroke="rgb(61,59,64)" stroke-width="1" opacity="1" d="M 18.5 21 Q 21.8 19.9 21 22.5 L 19.5 22 L 18.5 21 Z " /><path fill="rgb(61,59,64)" stroke="rgb(61,59,64)" stroke-width="1" opacity="1" d="M 11.5 23 L 13 26.5 L 10.5 25 L 9 24.5 L 11.5 23 Z " /><path fill="rgb(61,59,64)" stroke="rgb(61,59,64)" stroke-width="1" opacity="1" d="M 6.5 25 L 8 28.5 L 6 27.5 L 6.5 25 Z " /><path fill="rgb(61,59,64)" stroke="rgb(61,59,64)" stroke-width="1" opacity="1" d="M 16.5 25 L 19 26.5 L 16 27 L 16.5 25 Z " /><path fill="rgb(61,59,64)" stroke="rgb(61,59,64)" stroke-width="1" opacity="1" d="M 21.5 27 L 21 28.5 L 20.5 30 L 19.5 28 L 21.5 27 Z " /><path fill="rgb(61,59,64)" stroke="rgb(61,59,64)" stroke-width="1" opacity="1" d="M 9.5 29 Q 13.3 27.8 12 31.5 L 11 31.5 Q 11.8 29.3 9.5 30 L 9.5 29 Z " /><path fill="rgb(61,59,64)" stroke="rgb(61,59,64)" stroke-width="1" opacity="1" d="M 10.5 33 L 13 34.5 L 11.5 34 L 10.5 33 Z " /><path fill="rgb(61,59,64)" stroke="rgb(61,59,64)" stroke-width="1" opacity="1" d="M 26.5 33 L 25.5 35 L 26.5 33 Z " /><path fill="rgb(61,59,64)" stroke="rgb(61,59,64)" stroke-width="1" opacity="1" d="M 8.5 39 L 8 40.5 L 7.5 42 L 7 40.5 L 8.5 39 Z " /><path fill="rgb(61,59,64)" stroke="rgb(61,59,64)" stroke-width="1" opacity="1" d="M 11.5 46 L 10.5 48 L 9 47.5 L 11.5 46 Z " /><path fill="rgb(61,59,64)" stroke="rgb(61,59,64)" stroke-width="1" opacity="1" d="M 24.5 48 L 28 48.5 L 24.5 49 L 24.5 48 Z " /><path fill="rgb(126,129,133)" stroke="rgb(126,129,133)" stroke-width="1" opacity="1" d="M 7.5 1 L 12 1.5 L 7.5 2 L 7.5 1 Z " /><path fill="rgb(126,129,133)" stroke="rgb(126,129,133)" stroke-width="1" opacity="1" d="M 12.5 15 L 11.5 17 L 12.5 15 Z " /><path fill="rgb(126,129,133)" stroke="rgb(126,129,133)" stroke-width="1" opacity="1" d="M 13.5 18 L 14.5 20 Q 11.7 20.7 13.5 18 Z " /><path fill="rgb(126,129,133)" stroke="rgb(126,129,133)" stroke-width="1" opacity="1" d="M 17.5 20 L 20 20.5 L 17.5 21 L 17.5 20 Z " /><path fill="rgb(126,129,133)" stroke="rgb(126,129,133)" stroke-width="1" opacity="1" d="M 23.5 20 L 25.5 20 L 27 20.5 L 24.5 22 L 23.5 20 Z " /><path fill="rgb(126,129,133)" stroke="rgb(126,129,133)" stroke-width="1" opacity="1" d="M 14.5 22 L 15 24.5 L 16 26.5 Q 14.5 29.5 13 26.5 L 14 24.5 L 12 24.5 Q 11.3 22.3 13.5 23 L 14.5 22 Z " /><path fill="rgb(126,129,133)" stroke="rgb(126,129,133)" stroke-width="1" opacity="1" d="M 19.5 23 L 18.5 25 L 19.5 23 Z " /><path fill="rgb(126,129,133)" stroke="rgb(126,129,133)" stroke-width="1" opacity="1" d="M 22.5 27 L 21.5 29 L 22.5 27 Z " /><path fill="rgb(126,129,133)" stroke="rgb(126,129,133)" stroke-width="1" opacity="1" d="M 7.5 29 L 8 31.5 L 7 31.5 L 7.5 29 Z " /><path fill="rgb(126,129,133)" stroke="rgb(126,129,133)" stroke-width="1" opacity="1" d="M 14.5 30 L 15 33.5 L 14 33.5 L 13 31.5 L 14.5 30 Z " /><path fill="rgb(126,129,133)" stroke="rgb(126,129,133)" stroke-width="1" opacity="1" d="M 13.5 40 L 17 42.5 L 15.5 43 L 13.5 40 Z " /><path fill="rgb(126,129,133)" stroke="rgb(126,129,133)" stroke-width="1" opacity="1" d="M 21.5 46 L 21 47.5 Q 21.8 49.8 19.5 49 L 21.5 46 Z " /><path fill="rgb(126,129,133)" stroke="rgb(126,129,133)" stroke-width="1" opacity="1" d="M 6.5 47 L 7.5 49 L 6.5 47 Z " /><path fill="rgb(182,177,176)" stroke="rgb(182,177,176)" stroke-width="1" opacity="1" d="M 12.5 7 L 13.5 9 L 12.5 7 Z " /><path fill="rgb(182,177,176)" stroke="rgb(182,177,176)" stroke-width="1" opacity="1" d="M 6.5 22 L 7 24.5 L 6 24.5 L 6.5 22 Z " /><path fill="rgb(182,177,176)" stroke="rgb(182,177,176)" stroke-width="1" opacity="1" d="M 23.5 24 L 24 25.5 L 22 26.5 L 23.5 24 Z " /><path fill="rgb(182,177,176)" stroke="rgb(182,177,176)" stroke-width="1" opacity="1" d="M 13.5 28 L 15 28.5 L 12.5 30 L 13.5 28 Z " /><path fill="rgb(182,177,176)" stroke="rgb(182,177,176)" stroke-width="1" opacity="1" d="M 21.5 29 L 20.5 31 L 21.5 29 Z " /><path fill="rgb(195,199,199)" stroke="rgb(195,199,199)" stroke-width="1" opacity="1" d="M 9.5 6 L 11.5 7 L 13 6.5 L 10.5 8 L 9 7.5 L 8.5 9 L 8 7.5 L 9.5 6 Z " /><path fill="rgb(195,199,199)" stroke="rgb(195,199,199)" stroke-width="1" opacity="1" d="M 8.5 10 L 7.5 12 L 8.5 10 Z " /><path fill="rgb(195,199,199)" stroke="rgb(195,199,199)" stroke-width="1" opacity="1" d="M 20.5 15 L 21 16.5 L 19 17.5 L 20.5 15 Z " /><path fill="rgb(195,199,199)" stroke="rgb(195,199,199)" stroke-width="1" opacity="1" d="M 14.5 16 L 13.5 18 L 14.5 16 Z " /><path fill="rgb(195,199,199)" stroke="rgb(195,199,199)" stroke-width="1" opacity="1" d="M 5.5 25 L 6 27.5 L 5 27.5 L 5.5 25 Z " /><path fill="rgb(195,199,199)" stroke="rgb(195,199,199)" stroke-width="1" opacity="1" d="M 6.5 29 L 7 32.5 L 6 32.5 L 6.5 29 Z " /><path fill="rgb(195,199,199)" stroke="rgb(195,199,199)" stroke-width="1" opacity="1" d="M 9.5 32 L 7.5 35 L 9.5 32 Z " /><path fill="rgb(195,199,199)" stroke="rgb(195,199,199)" stroke-width="1" opacity="1" d="M 19.5 34 Q 21.3 37.1 23 35.5 L 21.5 37 L 19.5 34 Z " /><path fill="rgb(195,199,199)" stroke="rgb(195,199,199)" stroke-width="1" opacity="1" d="M 24.5 43 L 23.5 45 L 24.5 43 Z " /><path fill="rgb(195,199,199)" stroke="rgb(195,199,199)" stroke-width="1" opacity="1" d="M 4.5 46 L 3.5 48 L 4.5 46 Z " /><path fill="rgb(195,199,199)" stroke="rgb(195,199,199)" stroke-width="1" opacity="1" d="M 6.5 46 L 7.5 48 L 6.5 46 Z " /><path fill="rgb(195,199,199)" stroke="rgb(195,199,199)" stroke-width="1" opacity="1" d="M 22.5 46 L 21.5 48 L 22.5 46 Z " /><path fill="rgb(195,199,199)" stroke="rgb(195,199,199)" stroke-width="1" opacity="1" d="M 16.5 47 L 17.5 49 Q 14.7 49.7 16.5 47 Z " /><path fill="rgb(154,166,172)" stroke="rgb(154,166,172)" stroke-width="1" opacity="1" d="M 13.5 13 L 15 15.5 L 13 16.5 L 13 14.5 L 13.5 13 Z " /><path fill="rgb(154,166,172)" stroke="rgb(154,166,172)" stroke-width="1" opacity="1" d="M 14.5 29 L 13 31.5 L 12.5 33 L 12 30 L 14.5 29 Z " /><path fill="rgb(154,166,172)" stroke="rgb(154,166,172)" stroke-width="1" opacity="1" d="M 20.5 36 L 21.5 38 L 20.5 36 Z " /><path fill="rgb(154,166,172)" stroke="rgb(154,166,172)" stroke-width="1" opacity="1" d="M 19.5 42 L 22.5 44 Q 23.7 41.8 25 44.5 L 22.5 45 L 19.5 43 L 19.5 42 Z " /><path fill="rgb(227,221,210)" stroke="rgb(227,221,210)" stroke-width="1" opacity="1" d="M 2 21 L 6 22 L 5 27.5 L 6 32 L 2 34 L 2 21 Z " /><path fill="rgb(227,221,210)" stroke="rgb(227,221,210)" stroke-width="1" opacity="1" d="M 25.5 25 L 26 27.5 L 25 27.5 L 25.5 25 Z " /><path fill="rgb(227,221,210)" stroke="rgb(227,221,210)" stroke-width="1" opacity="1" d="M 23.5 27 L 23 28.5 L 24 30.5 L 22 29.5 L 23.5 27 Z " /><path fill="rgb(227,221,210)" stroke="rgb(227,221,210)" stroke-width="1" opacity="1" d="M 15.5 38 L 16.5 40 L 14 39.5 L 15.5 38 Z " /><path fill="rgb(227,221,210)" stroke="rgb(227,221,210)" stroke-width="1" opacity="1" d="M 2 45 L 11 45.5 L 3 46 L 2.5 48 L 2 45 Z " /><path fill="rgb(227,221,210)" stroke="rgb(227,221,210)" stroke-width="1" opacity="1" d="M 13.5 46 L 16 46.5 L 13.5 47 L 13.5 46 Z " /><path fill="rgb(231,251,253)" stroke="rgb(231,251,253)" stroke-width="1" opacity="1" d="M 2 2 L 4 2.5 L 2 3.5 L 2 2 Z " /><path fill="rgb(231,251,253)" stroke="rgb(231,251,253)" stroke-width="1" opacity="1" d="M 6.5 2 L 9.5 3 L 10.5 2 L 27 2 L 26 5.5 L 28 6.5 L 27.5 9 L 25 10.5 L 25 12.5 L 24 14.5 L 25 17 L 22.5 18 Q 20.3 17.3 21 13.5 L 22 10 Q 17.4 8.8 16 11.5 L 18 15.5 L 15 17 L 13 9.5 L 13 7.5 L 11.5 5 L 9.5 6 L 8.5 3 Q 5.5 3.5 6.5 2 Z " /><path fill="rgb(231,251,253)" stroke="rgb(231,251,253)" stroke-width="1" opacity="1" d="M 26.5 26 L 27 27.5 L 27 29.5 L 28 31.5 L 22 36.5 L 24 33.5 L 22 33 Q 20.9 30.3 23.5 31 L 26.5 26 Z " /><path fill="rgb(231,251,253)" stroke="rgb(231,251,253)" stroke-width="1" opacity="1" d="M 17 34 Q 20 32.8 19 36.5 L 16 38 L 17 34 Z " /><path fill="rgb(69,37,28)" stroke="rgb(69,37,28)" stroke-width="1" opacity="1" d="M 11.5 17 L 12 19.5 L 11 19.5 L 11.5 17 Z " /><path fill="rgb(69,37,28)" stroke="rgb(69,37,28)" stroke-width="1" opacity="1" d="M 13.5 20 L 17 22.5 L 15.5 22 L 13.5 20 Z " /><path fill="rgb(69,37,28)" stroke="rgb(69,37,28)" stroke-width="1" opacity="1" d="M 11.5 21 L 12.5 23 L 7.5 24 L 8.5 22 L 11.5 21 Z " /><path fill="rgb(69,37,28)" stroke="rgb(69,37,28)" stroke-width="1" opacity="1" d="M 16.5 24 L 19 25.5 L 17.5 26 L 15 25.5 L 16.5 24 Z " /><path fill="rgb(69,37,28)" stroke="rgb(69,37,28)" stroke-width="1" opacity="1" d="M 9 25 L 14 27.5 L 10.5 28 L 9 25 Z " /><path fill="rgb(69,37,28)" stroke="rgb(69,37,28)" stroke-width="1" opacity="1" d="M 18.5 27 L 21 27.5 L 18.5 28 L 18.5 27 Z " /><path fill="rgb(69,37,28)" stroke="rgb(69,37,28)" stroke-width="1" opacity="1" d="M 27.5 33 L 28 35 L 26 34.5 L 27.5 33 Z " /><path fill="rgb(69,37,28)" stroke="rgb(69,37,28)" stroke-width="1" opacity="1" d="M 27.5 36 L 28 38.5 L 27 38.5 L 27.5 36 Z " /><path fill="rgb(69,37,28)" stroke="rgb(69,37,28)" stroke-width="1" opacity="1" d="M 20.5 38 L 23 39.5 L 21.5 40 L 20.5 38 Z " /><path fill="rgb(69,37,28)" stroke="rgb(69,37,28)" stroke-width="1" opacity="1" d="M 7.5 39 L 6.5 41 L 5 40.5 L 7.5 39 Z " /><path fill="rgb(69,37,28)" stroke="rgb(69,37,28)" stroke-width="1" opacity="1" d="M 20.5 41 L 23 41.5 L 20.5 42 L 20.5 41 Z " /><path fill="rgb(100,94,93)" stroke="rgb(100,94,93)" stroke-width="1" opacity="1" d="M 11 8 L 13 8.5 L 11 9.5 L 11 8 Z " /><path fill="rgb(100,94,93)" stroke="rgb(100,94,93)" stroke-width="1" opacity="1" d="M 12.5 14 L 13.5 16 L 12.5 14 Z " /><path fill="rgb(100,94,93)" stroke="rgb(100,94,93)" stroke-width="1" opacity="1" d="M 19.5 18 L 23 19.5 L 22.5 21 L 27 23.5 L 26.5 26 L 24.5 23 Q 23.3 25.3 22 22.5 L 19.5 18 Z " /><path fill="rgb(100,94,93)" stroke="rgb(100,94,93)" stroke-width="1" opacity="1" d="M 11.5 20 L 12.5 22 L 10 21.5 L 11.5 20 Z " /><path fill="rgb(100,94,93)" stroke="rgb(100,94,93)" stroke-width="1" opacity="1" d="M 16.5 23 L 15.5 25 L 16.5 23 Z " /><path fill="rgb(100,94,93)" stroke="rgb(100,94,93)" stroke-width="1" opacity="1" d="M 21.5 24 L 22 26.5 L 21 26.5 L 21.5 24 Z " /><path fill="rgb(100,94,93)" stroke="rgb(100,94,93)" stroke-width="1" opacity="1" d="M 9.5 27 L 12 28.5 L 10.5 29 L 9.5 27 Z " /><path fill="rgb(100,94,93)" stroke="rgb(100,94,93)" stroke-width="1" opacity="1" d="M 17.5 27 L 18.5 29 L 17.5 27 Z " /><path fill="rgb(100,94,93)" stroke="rgb(100,94,93)" stroke-width="1" opacity="1" d="M 8.5 29 Q 11.5 30.5 8.5 32 L 8.5 29 Z " /><path fill="rgb(100,94,93)" stroke="rgb(100,94,93)" stroke-width="1" opacity="1" d="M 9.5 33 L 8.5 35 L 9.5 33 Z " /><path fill="rgb(100,94,93)" stroke="rgb(100,94,93)" stroke-width="1" opacity="1" d="M 19.5 38 L 20.5 40 L 18 39.5 L 19.5 38 Z " /><path fill="rgb(100,94,93)" stroke="rgb(100,94,93)" stroke-width="1" opacity="1" d="M 12.5 40 L 13.5 42 Q 10.7 42.7 12.5 40 Z " /><path fill="rgb(100,94,93)" stroke="rgb(100,94,93)" stroke-width="1" opacity="1" d="M 21.5 42 L 20.5 44 L 21.5 42 Z " /><path fill="rgb(100,94,93)" stroke="rgb(100,94,93)" stroke-width="1" opacity="1" d="M 3.5 46 L 7 48.5 L 4 49 L 3.5 46 Z " /><path fill="rgb(202,124,56)" stroke="rgb(202,124,56)" stroke-width="1" opacity="1" d="M 27.5 39 L 27 40.5 L 26.5 42 L 24 41.5 Q 23.2 38.9 26.5 40 L 27.5 39 Z " /><path fill="rgb(202,124,56)" stroke="rgb(202,124,56)" stroke-width="1" opacity="1" d="M 18.5 40 L 19.5 42 L 18.5 40 Z " /><path fill="rgb(222,191,87)" stroke="rgb(222,191,87)" stroke-width="1" opacity="1" d="M 18.5 12 L 20 14.5 L 19 14.5 L 18.5 12 Z " /><path fill="rgb(222,191,87)" stroke="rgb(222,191,87)" stroke-width="1" opacity="1" d="M 25.5 35 L 28 35.5 L 25 36 L 24 38.5 Q 26.2 39.8 23.5 41 L 21 40.5 L 24 39.5 L 22 39 L 22.5 37 L 24 37.5 L 25.5 35 Z " /><path fill="rgb(222,191,87)" stroke="rgb(222,191,87)" stroke-width="1" opacity="1" d="M 5.5 41 Q 7.8 43.8 13 43.5 Q 10.5 46.1 5 45 L 5.5 41 Z " /><path fill="rgb(222,191,87)" stroke="rgb(222,191,87)" stroke-width="1" opacity="1" d="M 25.5 41 L 28 42 Q 29 45 26 44 L 25.5 42 L 23.5 43 L 23.5 42 L 25.5 41 Z " /><path fill="rgb(222,191,87)" stroke="rgb(222,191,87)" stroke-width="1" opacity="1" d="M 14 43 L 16.5 44 L 20 43.5 Q 18.6 46.3 14 45 L 14 43 Z " /></svg>