<svg width="30" height="50" version="1.1" xmlns="http://www.w3.org/2000/svg" desc="Created with imagetracer.js version 1.2.6" ><path fill="rgb(173,247,252)" stroke="rgb(173,247,252)" stroke-width="1" opacity="1" d="M 2.5 4 L 3 6 L 7 6 L 7 7.5 L 7.5 9 L 6 8.5 L 5 12 L 9 13.5 L 7 14.5 Q 7.7 11.9 5 13 L 6 15.5 L 4 16.5 L 6 17.5 Q 3.5 19 7 20.5 Q 7.7 23.1 5 22 L 5 24.5 L 5.5 26 L 3 26.5 L 4 31 L 2 30.5 L 2 18.5 L 4 18.5 Q 4.8 16.3 2.5 17 L 2.5 16 L 4 15.5 L 2 15 L 3 10.5 Q 0.4 8.9 2.5 4 Z " /><path fill="rgb(183,249,253)" stroke="rgb(183,249,253)" stroke-width="1" opacity="1" d="M 2 2 L 27.5 2 Q 28.8 2.3 28 8.5 L 26.5 8 Q 24.2 5.3 18.5 6 L 15 7 L 14.5 10 L 13 9.5 Q 14.2 14.2 12 15.5 L 13 17.5 L 12 17.5 L 11 13 L 5.5 12 L 5.5 13 Q 7.8 12.3 7 14.5 L 10 15.5 Q 8.6 18.3 4 17 L 3.5 19 L 2.5 17 L 4 16.5 L 2 15.5 L 3.5 15 L 5.5 16 L 5 14.5 L 4.5 13 L 3 13.5 L 7 6 L 3 6 L 3 4.5 L 2 2 Z " /><path fill="rgb(183,249,253)" stroke="rgb(183,249,253)" stroke-width="1" opacity="1" d="M 5.5 18 L 8 19.5 L 6.5 20 L 5.5 18 Z " /><path fill="rgb(183,249,253)" stroke="rgb(183,249,253)" stroke-width="1" opacity="1" d="M 5 22 L 9 22 L 9 23.5 L 8 26 L 5 24.5 L 5 22 Z " /><path fill="rgb(183,249,253)" stroke="rgb(183,249,253)" stroke-width="1" opacity="1" d="M 12 22 L 14 22.5 L 12 23.5 L 12 22 Z " /><path fill="rgb(64,58,67)" stroke="rgb(64,58,67)" stroke-width="1" opacity="1" d="M 16.5 8 L 19 8.5 L 16.5 9 L 16.5 8 Z " /><path fill="rgb(64,58,67)" stroke="rgb(64,58,67)" stroke-width="1" opacity="1" d="M 18.5 10 L 19 11.5 L 17 12.5 L 18.5 10 Z " /><path fill="rgb(64,58,67)" stroke="rgb(64,58,67)" stroke-width="1" opacity="1" d="M 23.5 10 L 24 12 L 22 11.5 L 23.5 10 Z " /><path fill="rgb(64,58,67)" stroke="rgb(64,58,67)" stroke-width="1" opacity="1" d="M 14.5 11 Q 17.5 12.5 14.5 14 L 14.5 11 Z " /><path fill="rgb(64,58,67)" stroke="rgb(64,58,67)" stroke-width="1" opacity="1" d="M 26.5 11 L 28 13.5 L 27 13.5 L 26.5 11 Z " /><path fill="rgb(64,58,67)" stroke="rgb(64,58,67)" stroke-width="1" opacity="1" d="M 23.5 17 L 24 20 L 22 19.5 L 23.5 17 Z " /><path fill="rgb(64,58,67)" stroke="rgb(64,58,67)" stroke-width="1" opacity="1" d="M 25.5 19 L 27 22.5 L 25.5 26 L 25 22.5 L 25 20.5 L 25.5 19 Z " /><path fill="rgb(64,58,67)" stroke="rgb(64,58,67)" stroke-width="1" opacity="1" d="M 19.5 21 L 23 23.5 L 24 27.5 L 20 28.5 Q 23 27.3 22 23 L 19.5 21 Z " /><path fill="rgb(64,58,67)" stroke="rgb(64,58,67)" stroke-width="1" opacity="1" d="M 6.5 30 L 7 31.5 L 5 32.5 L 6.5 30 Z " /><path fill="rgb(64,58,67)" stroke="rgb(64,58,67)" stroke-width="1" opacity="1" d="M 3.5 33 L 4.5 35 L 3.5 33 Z " /><path fill="rgb(64,58,67)" stroke="rgb(64,58,67)" stroke-width="1" opacity="1" d="M 17.5 33 L 20 33.5 L 22 36.5 L 21 39 L 24 37.5 L 24.5 36 L 25 37.5 Q 24.5 40.5 20.5 40 L 18 38.5 L 20 38 Q 21.5 34.2 18.5 35 L 17.5 33 Z " /><path fill="rgb(64,58,67)" stroke="rgb(64,58,67)" stroke-width="1" opacity="1" d="M 24.5 33 L 23.5 35 L 24.5 33 Z " /><path fill="rgb(64,58,67)" stroke="rgb(64,58,67)" stroke-width="1" opacity="1" d="M 6.5 34 L 7.5 36 L 6.5 34 Z " /><path fill="rgb(64,58,67)" stroke="rgb(64,58,67)" stroke-width="1" opacity="1" d="M 3.5 36 L 7 37.5 Q 7.8 39.8 5.5 39 L 5.5 37 Q 2.5 37.5 3.5 36 Z " /><path fill="rgb(64,58,67)" stroke="rgb(64,58,67)" stroke-width="1" opacity="1" d="M 27.5 36 L 27 37.5 L 28 40.5 L 26 39.5 L 27.5 36 Z " /><path fill="rgb(64,58,67)" stroke="rgb(64,58,67)" stroke-width="1" opacity="1" d="M 11.5 37 L 10.5 39 L 11.5 37 Z " /><path fill="rgb(64,58,67)" stroke="rgb(64,58,67)" stroke-width="1" opacity="1" d="M 21.5 41 L 22.5 43 L 21.5 41 Z " /><path fill="rgb(183,182,185)" stroke="rgb(183,182,185)" stroke-width="1" opacity="1" d="M 23.5 9 L 24.5 11 L 23.5 9 Z " /><path fill="rgb(183,182,185)" stroke="rgb(183,182,185)" stroke-width="1" opacity="1" d="M 23.5 28 L 23.5 31 L 21 30.5 L 23.5 28 Z " /><path fill="rgb(183,182,185)" stroke="rgb(183,182,185)" stroke-width="1" opacity="1" d="M 19.5 31 L 20.5 33 L 18 32.5 L 19.5 31 Z " /><path fill="rgb(183,182,185)" stroke="rgb(183,182,185)" stroke-width="1" opacity="1" d="M 2 34 L 4 34.5 L 2 35.5 L 2 34 Z " /><path fill="rgb(183,182,185)" stroke="rgb(183,182,185)" stroke-width="1" opacity="1" d="M 8.5 45 L 9.5 47 L 8.5 45 Z " /><path fill="rgb(173,228,231)" stroke="rgb(173,228,231)" stroke-width="1" opacity="1" d="M 26.5 8 L 28 10.5 L 27 10.5 L 26.5 8 Z " /><path fill="rgb(173,228,231)" stroke="rgb(173,228,231)" stroke-width="1" opacity="1" d="M 27.5 14 L 28 18.5 L 27 18.5 L 27.5 14 Z " /><path fill="rgb(173,228,231)" stroke="rgb(173,228,231)" stroke-width="1" opacity="1" d="M 4.5 26 L 5 30.5 L 4 30.5 L 4.5 26 Z " /><path fill="rgb(126,148,154)" stroke="rgb(126,148,154)" stroke-width="1" opacity="1" d="M 16.5 7 L 15.5 9 L 16.5 7 Z " /><path fill="rgb(126,148,154)" stroke="rgb(126,148,154)" stroke-width="1" opacity="1" d="M 13.5 20 L 15 22.5 L 13 23.5 L 13 21.5 L 13.5 20 Z " /><path fill="rgb(126,148,154)" stroke="rgb(126,148,154)" stroke-width="1" opacity="1" d="M 17.5 31 L 15.5 34 L 17.5 31 Z " /><path fill="rgb(126,148,154)" stroke="rgb(126,148,154)" stroke-width="1" opacity="1" d="M 8.5 36 L 7.5 38 L 8.5 36 Z " /><path fill="rgb(126,148,154)" stroke="rgb(126,148,154)" stroke-width="1" opacity="1" d="M 11.5 36 L 12.5 38 L 11.5 36 Z " /><path fill="rgb(126,148,154)" stroke="rgb(126,148,154)" stroke-width="1" opacity="1" d="M 2 38 L 5 38.5 L 3 39 L 2.5 41 L 2 38 Z " /><path fill="rgb(126,148,154)" stroke="rgb(126,148,154)" stroke-width="1" opacity="1" d="M 15.5 39 L 18 39.5 Q 15.9 42.8 15.5 39 Z " /><path fill="rgb(126,148,154)" stroke="rgb(126,148,154)" stroke-width="1" opacity="1" d="M 3.5 42 L 3 43.5 L 2.5 45 L 2 43.5 L 3.5 42 Z " /><path fill="rgb(126,148,154)" stroke="rgb(126,148,154)" stroke-width="1" opacity="1" d="M 8.5 43 L 7.5 45 L 5 44.5 L 8.5 43 Z " /><path fill="rgb(172,199,202)" stroke="rgb(172,199,202)" stroke-width="1" opacity="1" d="M 12.5 15 L 11.5 17 L 12.5 15 Z " /><path fill="rgb(172,199,202)" stroke="rgb(172,199,202)" stroke-width="1" opacity="1" d="M 7.5 17 L 6.5 19 L 7.5 17 Z " /><path fill="rgb(172,199,202)" stroke="rgb(172,199,202)" stroke-width="1" opacity="1" d="M 8.5 19 L 9.5 21 L 8.5 19 Z " /><path fill="rgb(172,199,202)" stroke="rgb(172,199,202)" stroke-width="1" opacity="1" d="M 9.5 23 L 8.5 25 L 9.5 23 Z " /><path fill="rgb(172,199,202)" stroke="rgb(172,199,202)" stroke-width="1" opacity="1" d="M 3.5 43 L 6 43.5 L 3.5 44 L 3.5 43 Z " /><path fill="rgb(216,210,204)" stroke="rgb(216,210,204)" stroke-width="1" opacity="1" d="M 15 9 L 17 9.5 L 15 10.5 L 15 9 Z " /><path fill="rgb(216,210,204)" stroke="rgb(216,210,204)" stroke-width="1" opacity="1" d="M 24.5 16 L 25 27.5 L 24 27.5 L 24.5 16 Z " /><path fill="rgb(216,210,204)" stroke="rgb(216,210,204)" stroke-width="1" opacity="1" d="M 19.5 19 L 20.5 21 L 19.5 19 Z " /><path fill="rgb(216,210,204)" stroke="rgb(216,210,204)" stroke-width="1" opacity="1" d="M 9.5 40 L 10.5 42 Q 7.7 42.7 9.5 40 Z " /><path fill="rgb(216,210,204)" stroke="rgb(216,210,204)" stroke-width="1" opacity="1" d="M 11.5 45 L 12.5 47 L 11.5 45 Z " /><path fill="rgb(48,38,41)" stroke="rgb(48,38,41)" stroke-width="1" opacity="1" d="M 19 10 L 22 10.5 L 18.5 13 L 19 11.5 L 19 10 Z " /><path fill="rgb(48,38,41)" stroke="rgb(48,38,41)" stroke-width="1" opacity="1" d="M 20.5 14 L 23 14.5 L 20.5 15 L 20.5 14 Z " /><path fill="rgb(48,38,41)" stroke="rgb(48,38,41)" stroke-width="1" opacity="1" d="M 21.5 17 Q 23.8 16.3 23 18.5 L 21.5 17 Z " /><path fill="rgb(48,38,41)" stroke="rgb(48,38,41)" stroke-width="1" opacity="1" d="M 11.5 21 L 10.5 23 L 11.5 21 Z " /><path fill="rgb(48,38,41)" stroke="rgb(48,38,41)" stroke-width="1" opacity="1" d="M 22.5 22 Q 25.9 21.1 24 26.5 L 23 29 L 21 28.5 Q 23.8 27.8 23 23.5 L 22.5 22 Z " /><path fill="rgb(48,38,41)" stroke="rgb(48,38,41)" stroke-width="1" opacity="1" d="M 25.5 30 L 24.5 32 L 25.5 30 Z " /><path fill="rgb(48,38,41)" stroke="rgb(48,38,41)" stroke-width="1" opacity="1" d="M 2.5 32 L 5 32.5 L 2.5 33 L 2.5 32 Z " /><path fill="rgb(48,38,41)" stroke="rgb(48,38,41)" stroke-width="1" opacity="1" d="M 20 33 L 23 33.5 L 20.5 35 L 20 33 Z " /><path fill="rgb(48,38,41)" stroke="rgb(48,38,41)" stroke-width="1" opacity="1" d="M 25.5 34 L 24.5 36 L 25.5 34 Z " /><path fill="rgb(48,38,41)" stroke="rgb(48,38,41)" stroke-width="1" opacity="1" d="M 22.5 36 L 23 39 Q 20.3 40.1 21 37.5 L 22.5 36 Z " /><path fill="rgb(48,38,41)" stroke="rgb(48,38,41)" stroke-width="1" opacity="1" d="M 25.5 37 L 26 39 L 24 38.5 L 25.5 37 Z " /><path fill="rgb(48,38,41)" stroke="rgb(48,38,41)" stroke-width="1" opacity="1" d="M 13.5 38 L 12.5 40 L 13.5 38 Z " /><path fill="rgb(251,252,251)" stroke="rgb(251,252,251)" stroke-width="1" opacity="1" d="M 0 0 L 30 0 L 30 50 L 0 50 L 0 0 Z M 2 2 L 2 48 L 11 48 L 12 47 L 16 48 L 21 47 L 23 48 Q 25 47 23 46 L 28 45 L 28 2 L 2 2 Z " /><path fill="rgb(251,252,251)" stroke="rgb(251,252,251)" stroke-width="1" opacity="1" d="M 15 25 L 18 25.5 L 14.5 28 L 15 26.5 L 15 25 Z " /><path fill="rgb(251,252,251)" stroke="rgb(251,252,251)" stroke-width="1" opacity="1" d="M 14.5 29 L 16 29.5 L 12 32.5 L 12.5 34 L 11 31.5 L 14.5 29 Z " /><path fill="rgb(251,252,251)" stroke="rgb(251,252,251)" stroke-width="1" opacity="1" d="M 8.5 31 L 9 33.5 L 8 33.5 L 8.5 31 Z " /><path fill="rgb(251,252,251)" stroke="rgb(251,252,251)" stroke-width="1" opacity="1" d="M 4.5 45 L 5.5 47 L 4.5 45 Z " /><path fill="rgb(251,252,251)" stroke="rgb(251,252,251)" stroke-width="1" opacity="1" d="M 12.5 45 L 15 45.5 L 12.5 46 L 12.5 45 Z " /><path fill="rgb(251,252,251)" stroke="rgb(251,252,251)" stroke-width="1" opacity="1" d="M 17.5 45 L 18.5 47 L 16 46.5 L 17.5 45 Z " /><path fill="rgb(159,157,158)" stroke="rgb(159,157,158)" stroke-width="1" opacity="1" d="M 16.5 10 L 15.5 12 L 16.5 10 Z " /><path fill="rgb(159,157,158)" stroke="rgb(159,157,158)" stroke-width="1" opacity="1" d="M 25.5 11 Q 28.5 12.5 25.5 14 L 24 13.5 L 25.5 11 Z " /><path fill="rgb(159,157,158)" stroke="rgb(159,157,158)" stroke-width="1" opacity="1" d="M 15.5 17 L 16.5 19 L 15.5 17 Z " /><path fill="rgb(159,157,158)" stroke="rgb(159,157,158)" stroke-width="1" opacity="1" d="M 20.5 19 L 22 19.5 L 18.5 22 L 20.5 19 Z " /><path fill="rgb(159,157,158)" stroke="rgb(159,157,158)" stroke-width="1" opacity="1" d="M 14.5 23 L 18 23 Q 16.9 25.7 19.5 25 L 19.5 26 L 16.5 24 L 11.5 28 L 11.5 27 L 15 24.5 L 14.5 23 Z " /><path fill="rgb(159,157,158)" stroke="rgb(159,157,158)" stroke-width="1" opacity="1" d="M 15.5 28 L 16.5 30 L 15.5 28 Z " /><path fill="rgb(159,157,158)" stroke="rgb(159,157,158)" stroke-width="1" opacity="1" d="M 8.5 35 L 7.5 37 L 8.5 35 Z " /><path fill="rgb(159,157,158)" stroke="rgb(159,157,158)" stroke-width="1" opacity="1" d="M 5.5 41 L 4.5 43 L 5.5 41 Z " /><path fill="rgb(159,157,158)" stroke="rgb(159,157,158)" stroke-width="1" opacity="1" d="M 8.5 41 L 7.5 43 L 8.5 41 Z " /><path fill="rgb(159,157,158)" stroke="rgb(159,157,158)" stroke-width="1" opacity="1" d="M 15.5 45 L 16 47 L 14 46.5 L 15.5 45 Z " /><path fill="rgb(120,115,121)" stroke="rgb(120,115,121)" stroke-width="1" opacity="1" d="M 19.5 13 L 21 13.5 L 18.5 15 L 19.5 13 Z " /><path fill="rgb(120,115,121)" stroke="rgb(120,115,121)" stroke-width="1" opacity="1" d="M 14.5 15 L 15 18.5 L 14 18.5 L 14.5 15 Z " /><path fill="rgb(120,115,121)" stroke="rgb(120,115,121)" stroke-width="1" opacity="1" d="M 21.5 15 L 22.5 17 L 21.5 15 Z " /><path fill="rgb(120,115,121)" stroke="rgb(120,115,121)" stroke-width="1" opacity="1" d="M 11.5 22 L 10.5 24 L 11.5 22 Z " /><path fill="rgb(120,115,121)" stroke="rgb(120,115,121)" stroke-width="1" opacity="1" d="M 20 23 Q 23 22 22 25 Q 19 26 20 23 Z " /><path fill="rgb(120,115,121)" stroke="rgb(120,115,121)" stroke-width="1" opacity="1" d="M 13.5 28 L 12.5 30 L 13.5 28 Z " /><path fill="rgb(120,115,121)" stroke="rgb(120,115,121)" stroke-width="1" opacity="1" d="M 25.5 29 L 24.5 31 L 25.5 29 Z " /><path fill="rgb(120,115,121)" stroke="rgb(120,115,121)" stroke-width="1" opacity="1" d="M 9.5 30 L 11 32.5 L 10 32.5 L 9.5 30 Z " /><path fill="rgb(120,115,121)" stroke="rgb(120,115,121)" stroke-width="1" opacity="1" d="M 19.5 30 L 18.5 32 L 19.5 30 Z " /><path fill="rgb(120,115,121)" stroke="rgb(120,115,121)" stroke-width="1" opacity="1" d="M 25.5 32 L 26 33.5 L 24 34.5 L 25.5 32 Z " /><path fill="rgb(120,115,121)" stroke="rgb(120,115,121)" stroke-width="1" opacity="1" d="M 12.5 34 Q 14.2 37.1 16 35.5 L 14.5 40 L 13.5 36 Q 12.3 38.3 11 35.5 L 12.5 34 Z " /><path fill="rgb(120,115,121)" stroke="rgb(120,115,121)" stroke-width="1" opacity="1" d="M 9.5 36 L 11.5 39 Q 9.8 35.9 8 37.5 L 9.5 36 Z " /><path fill="rgb(120,115,121)" stroke="rgb(120,115,121)" stroke-width="1" opacity="1" d="M 17.5 36 L 20 36.5 L 17.5 37 L 17.5 36 Z " /><path fill="rgb(120,115,121)" stroke="rgb(120,115,121)" stroke-width="1" opacity="1" d="M 19.5 39 L 20.5 41 L 19.5 39 Z " /><path fill="rgb(120,115,121)" stroke="rgb(120,115,121)" stroke-width="1" opacity="1" d="M 8.5 44 L 11 45 L 10.5 47 L 8 45.5 L 7.5 47 L 7 45.5 L 8.5 44 Z " /><path fill="rgb(120,115,121)" stroke="rgb(120,115,121)" stroke-width="1" opacity="1" d="M 21.5 45 L 22 47 L 19 46.5 L 21.5 45 Z " /><path fill="rgb(203,195,122)" stroke="rgb(203,195,122)" stroke-width="1" opacity="1" d="M 17.5 13 L 16 15.5 L 16 17 Q 19.7 15.5 19 18.5 L 17.5 18 L 15 16.5 L 17.5 13 Z " /><path fill="rgb(203,195,122)" stroke="rgb(203,195,122)" stroke-width="1" opacity="1" d="M 9.5 18 Q 11.8 17.3 11 19.5 L 9.5 18 Z " /><path fill="rgb(203,195,122)" stroke="rgb(203,195,122)" stroke-width="1" opacity="1" d="M 27.5 20 L 28 22.5 L 27 22.5 L 27.5 20 Z " /><path fill="rgb(203,195,122)" stroke="rgb(203,195,122)" stroke-width="1" opacity="1" d="M 9.5 26 Q 11.8 25.3 11 27.5 L 9.5 26 Z " /><path fill="rgb(203,195,122)" stroke="rgb(203,195,122)" stroke-width="1" opacity="1" d="M 5.5 40 L 8 41.5 L 6.5 41 L 3.5 42 L 3.5 41 L 5.5 40 Z " /><path fill="rgb(152,132,86)" stroke="rgb(152,132,86)" stroke-width="1" opacity="1" d="M 15.5 13 L 16.5 15 Q 18.2 12.3 20 16.5 L 19.5 19 L 17.5 15 L 16.5 17 L 15.5 13 Z " /><path fill="rgb(152,132,86)" stroke="rgb(152,132,86)" stroke-width="1" opacity="1" d="M 9.5 19 L 12 19.5 Q 9.9 22.8 9.5 19 Z " /><path fill="rgb(152,132,86)" stroke="rgb(152,132,86)" stroke-width="1" opacity="1" d="M 11.5 24 L 14 25.5 L 11.5 27 L 11.5 24 Z " /><path fill="rgb(152,132,86)" stroke="rgb(152,132,86)" stroke-width="1" opacity="1" d="M 5.5 28 Q 8.5 29.5 5.5 31 L 5.5 28 Z " /><path fill="rgb(152,132,86)" stroke="rgb(152,132,86)" stroke-width="1" opacity="1" d="M 12.5 40 L 17 42.5 L 15.5 43 L 12.5 40 Z " /><path fill="rgb(152,132,86)" stroke="rgb(152,132,86)" stroke-width="1" opacity="1" d="M 25.5 41 Q 28.5 42.5 25.5 44 L 25.5 41 Z " /><path fill="rgb(94,87,91)" stroke="rgb(94,87,91)" stroke-width="1" opacity="1" d="M 19.5 8 Q 23.9 6.5 23 9.5 L 20.5 10 L 19.5 8 Z " /><path fill="rgb(94,87,91)" stroke="rgb(94,87,91)" stroke-width="1" opacity="1" d="M 21.5 11 L 22.5 13 L 24 12.5 L 24 14.5 L 23.5 17 L 21.5 13 L 20 12.5 L 21.5 11 Z " /><path fill="rgb(94,87,91)" stroke="rgb(94,87,91)" stroke-width="1" opacity="1" d="M 25.5 16 L 27 18.5 L 26 18.5 L 25.5 16 Z " /><path fill="rgb(94,87,91)" stroke="rgb(94,87,91)" stroke-width="1" opacity="1" d="M 20.5 17 L 21.5 19 L 20.5 17 Z " /><path fill="rgb(94,87,91)" stroke="rgb(94,87,91)" stroke-width="1" opacity="1" d="M 26.5 20 L 25.5 22 L 26.5 20 Z " /><path fill="rgb(94,87,91)" stroke="rgb(94,87,91)" stroke-width="1" opacity="1" d="M 20 25 L 22 25.5 L 20.5 28 L 20 25 Z " /><path fill="rgb(94,87,91)" stroke="rgb(94,87,91)" stroke-width="1" opacity="1" d="M 26.5 25 L 25.5 27 L 26.5 25 Z " /><path fill="rgb(94,87,91)" stroke="rgb(94,87,91)" stroke-width="1" opacity="1" d="M 18.5 28 L 19 29.5 L 17 30.5 L 18.5 28 Z " /><path fill="rgb(94,87,91)" stroke="rgb(94,87,91)" stroke-width="1" opacity="1" d="M 7.5 30 L 8 33.5 L 7 33.5 L 7.5 30 Z " /><path fill="rgb(94,87,91)" stroke="rgb(94,87,91)" stroke-width="1" opacity="1" d="M 23.5 31 Q 26.5 32.5 23.5 34 L 23.5 31 Z " /><path fill="rgb(94,87,91)" stroke="rgb(94,87,91)" stroke-width="1" opacity="1" d="M 26.5 31 L 28 34.5 L 26.5 37 L 26 35.5 L 26 33.5 L 26.5 31 Z " /><path fill="rgb(94,87,91)" stroke="rgb(94,87,91)" stroke-width="1" opacity="1" d="M 17.5 32 L 16.5 35 L 20 35.5 L 16.5 36 L 14 34.5 L 17.5 32 Z " /><path fill="rgb(94,87,91)" stroke="rgb(94,87,91)" stroke-width="1" opacity="1" d="M 5.5 34 L 4.5 36 L 3 35.5 L 5.5 34 Z " /><path fill="rgb(94,87,91)" stroke="rgb(94,87,91)" stroke-width="1" opacity="1" d="M 10.5 34 L 11 36.5 L 10 36.5 L 10.5 34 Z " /><path fill="rgb(94,87,91)" stroke="rgb(94,87,91)" stroke-width="1" opacity="1" d="M 18.5 37 L 20 37.5 L 15.5 41 L 18.5 37 Z " /><path fill="rgb(94,87,91)" stroke="rgb(94,87,91)" stroke-width="1" opacity="1" d="M 7.5 38 L 6.5 40 L 5 39.5 L 7.5 38 Z " /><path fill="rgb(94,87,91)" stroke="rgb(94,87,91)" stroke-width="1" opacity="1" d="M 18 40 L 20 40.5 L 18 41.5 L 18 40 Z " /><path fill="rgb(237,234,213)" stroke="rgb(237,234,213)" stroke-width="1" opacity="1" d="M 24.5 9 Q 26.8 8.3 26 10.5 L 24.5 9 Z " /><path fill="rgb(237,234,213)" stroke="rgb(237,234,213)" stroke-width="1" opacity="1" d="M 17.5 20 L 19 22.5 L 17 23 L 17.5 20 Z " /><path fill="rgb(237,234,213)" stroke="rgb(237,234,213)" stroke-width="1" opacity="1" d="M 27.5 24 L 28 31.5 L 27 31.5 L 27.5 24 Z " /><path fill="rgb(237,234,213)" stroke="rgb(237,234,213)" stroke-width="1" opacity="1" d="M 6 27 L 10 27 Q 8.5 30.8 11.5 30 L 11.5 31 L 9 29.5 Q 9.8 27.3 7.5 28 L 6 28.5 L 6 27 Z " /><path fill="rgb(237,234,213)" stroke="rgb(237,234,213)" stroke-width="1" opacity="1" d="M 24.5 28 L 21.5 32 L 20 31.5 L 24.5 28 Z " /><path fill="rgb(237,234,213)" stroke="rgb(237,234,213)" stroke-width="1" opacity="1" d="M 17.5 42 L 18 44 L 25 44.5 L 18.5 45 L 15 43.5 L 17.5 42 Z " /><path fill="rgb(237,234,213)" stroke="rgb(237,234,213)" stroke-width="1" opacity="1" d="M 2.5 45 Q 5.5 46.5 2.5 48 L 2.5 45 Z " /></svg>