<svg width="30" height="50" version="1.1" xmlns="http://www.w3.org/2000/svg" desc="Created with imagetracer.js version 1.2.6" ><path fill="rgb(245,242,242)" stroke="rgb(245,242,242)" stroke-width="1" opacity="1" d="M 0 0 L 30 0 L 30 50 L 0 50 L 0 0 Z M 2 1 L 2 4 L 4 3 L 4 5 L 5 6 L 2 5 L 3 15 L 5 17 L 4 20 L 5 23 Q 6 25 4 24 L 3 27 L 4 29 L 4 30 L 2 31 L 2 47 L 2 49 L 28 49 L 28 1 L 2 1 Z " /><path fill="rgb(140,129,124)" stroke="rgb(140,129,124)" stroke-width="1" opacity="1" d="M 3.5 1 L 6 1.5 L 3.5 2 L 3.5 1 Z " /><path fill="rgb(140,129,124)" stroke="rgb(140,129,124)" stroke-width="1" opacity="1" d="M 15.5 1 L 19 1.5 L 15.5 2 L 15.5 1 Z " /><path fill="rgb(140,129,124)" stroke="rgb(140,129,124)" stroke-width="1" opacity="1" d="M 13.5 13 L 12.5 15 L 13.5 13 Z " /><path fill="rgb(140,129,124)" stroke="rgb(140,129,124)" stroke-width="1" opacity="1" d="M 7.5 16 L 8.5 18 L 7.5 16 Z " /><path fill="rgb(140,129,124)" stroke="rgb(140,129,124)" stroke-width="1" opacity="1" d="M 25.5 29 L 26 31.5 L 24 30.5 L 25.5 29 Z " /><path fill="rgb(140,129,124)" stroke="rgb(140,129,124)" stroke-width="1" opacity="1" d="M 23.5 33 L 24 35.5 L 23 35.5 L 23.5 33 Z " /><path fill="rgb(140,129,124)" stroke="rgb(140,129,124)" stroke-width="1" opacity="1" d="M 12.5 42 L 15 42.5 L 12.5 43 L 12.5 42 Z " /><path fill="rgb(140,129,124)" stroke="rgb(140,129,124)" stroke-width="1" opacity="1" d="M 18.5 42 L 21 42.5 L 18.5 43 L 18.5 42 Z " /><path fill="rgb(132,156,164)" stroke="rgb(132,156,164)" stroke-width="1" opacity="1" d="M 27.5 37 L 28 39 L 26 38.5 L 27.5 37 Z " /><path fill="rgb(132,156,164)" stroke="rgb(132,156,164)" stroke-width="1" opacity="1" d="M 21.5 42 L 20.5 44 L 21.5 42 Z " /><path fill="rgb(132,156,164)" stroke="rgb(132,156,164)" stroke-width="1" opacity="1" d="M 10.5 43 Q 13.8 41.9 13 44.5 L 11.5 44 L 10.5 43 Z " /><path fill="rgb(132,156,164)" stroke="rgb(132,156,164)" stroke-width="1" opacity="1" d="M 17.5 43 L 18.5 45 L 17.5 43 Z " /><path fill="rgb(132,156,164)" stroke="rgb(132,156,164)" stroke-width="1" opacity="1" d="M 24.5 43 L 23.5 45 L 24.5 43 Z " /><path fill="rgb(214,217,218)" stroke="rgb(214,217,218)" stroke-width="1" opacity="1" d="M 2 2 L 28 2 L 28 27.5 L 27 27.5 L 26 19.5 L 26.5 18 L 23 17.5 L 25 17 L 26 14.5 Q 23.9 10.9 19 11 L 19 8 L 12.5 8 L 11.5 11 L 5 14.5 L 6.5 17 Q 8.8 16.3 8 18.5 L 6 22 L 4 21.5 L 4 19.5 L 5 16.5 L 3 14.5 L 2 5 Q 4.7 6.1 4 3.5 L 2 3.5 L 2 2 Z " /><path fill="rgb(214,217,218)" stroke="rgb(214,217,218)" stroke-width="1" opacity="1" d="M 3.5 24 L 5 24.5 L 3 25.5 L 5 26 Q 6 29 3 28 L 2 25.5 L 3.5 24 Z " /><path fill="rgb(214,217,218)" stroke="rgb(214,217,218)" stroke-width="1" opacity="1" d="M 4.5 29 L 5 31.5 L 2 31.5 Q 1.3 29.3 3.5 30 L 4.5 29 Z " /><path fill="rgb(214,217,218)" stroke="rgb(214,217,218)" stroke-width="1" opacity="1" d="M 3 43 L 5 43.5 L 4.5 45 L 27.5 45 L 28 48 L 21.5 47 L 19.5 47 L 15.5 46 L 15.5 48 Q 12.9 48.7 14 46 L 12 46 L 11.5 48 L 9.5 47 L 8 47.5 L 8.5 46 L 5.5 47 L 3.5 46 L 2 46.5 L 3 43 Z " /><path fill="rgb(204,195,194)" stroke="rgb(204,195,194)" stroke-width="1" opacity="1" d="M 10.5 11 L 14 12.5 Q 12.6 15.6 7.5 15 L 6 14.5 L 7 16.5 L 5 15.5 L 6.5 13 L 7.5 14 L 10.5 11 Z " /><path fill="rgb(204,195,194)" stroke="rgb(204,195,194)" stroke-width="1" opacity="1" d="M 18 11 L 20.5 12 L 22 11.5 L 22.5 13 Q 24.2 10.3 26 14.5 Q 24.3 12.9 22.5 16 L 19 14.5 L 18 11 Z " /><path fill="rgb(204,195,194)" stroke="rgb(204,195,194)" stroke-width="1" opacity="1" d="M 26.5 18 L 26 19.5 L 25.5 26 L 25 19.5 L 26.5 18 Z " /><path fill="rgb(204,195,194)" stroke="rgb(204,195,194)" stroke-width="1" opacity="1" d="M 6.5 20 L 7 21.5 L 4.5 26 L 5 24.5 L 6.5 20 Z " /><path fill="rgb(204,195,194)" stroke="rgb(204,195,194)" stroke-width="1" opacity="1" d="M 5.5 27 L 4.5 29 L 5.5 27 Z " /><path fill="rgb(204,195,194)" stroke="rgb(204,195,194)" stroke-width="1" opacity="1" d="M 24.5 27 L 27 28.5 L 25.5 28 L 24.5 27 Z " /><path fill="rgb(204,195,194)" stroke="rgb(204,195,194)" stroke-width="1" opacity="1" d="M 8.5 39 L 14 41.5 L 6.5 42 L 8.5 39 Z " /><path fill="rgb(204,195,194)" stroke="rgb(204,195,194)" stroke-width="1" opacity="1" d="M 24.5 39 L 27 40.5 Q 24.6 43.1 18.5 42 L 17.5 40 L 19.5 40 L 24.5 41 L 24.5 39 Z " /><path fill="rgb(204,195,194)" stroke="rgb(204,195,194)" stroke-width="1" opacity="1" d="M 21.5 43 L 24 43.5 L 21.5 44 L 21.5 43 Z " /><path fill="rgb(204,195,194)" stroke="rgb(204,195,194)" stroke-width="1" opacity="1" d="M 3.5 46 L 4 48 L 9 48.5 L 3 49 L 3.5 46 Z " /><path fill="rgb(204,195,194)" stroke="rgb(204,195,194)" stroke-width="1" opacity="1" d="M 15.5 46 L 18 47.5 L 16.5 47 L 15.5 46 Z " /><path fill="rgb(210,183,38)" stroke="rgb(210,183,38)" stroke-width="1" opacity="1" d="M 16.5 9 L 15.5 11 L 16.5 9 Z " /><path fill="rgb(210,183,38)" stroke="rgb(210,183,38)" stroke-width="1" opacity="1" d="M 15.5 12 L 16.5 14 L 15 14.5 L 18.5 16 L 20 16.5 L 17.5 18 L 14 15.5 L 15.5 12 Z " /><path fill="rgb(210,183,38)" stroke="rgb(210,183,38)" stroke-width="1" opacity="1" d="M 10.5 18 L 13 19.5 Q 13.8 22.1 10.5 21 L 7.5 23 L 7 21.5 L 10.5 18 Z " /><path fill="rgb(210,183,38)" stroke="rgb(210,183,38)" stroke-width="1" opacity="1" d="M 19.5 19 L 22 20.5 L 20.5 20 L 19.5 19 Z " /><path fill="rgb(210,183,38)" stroke="rgb(210,183,38)" stroke-width="1" opacity="1" d="M 7 26 Q 9.7 24.9 9 27.5 L 10 28.5 L 10 36.5 L 8 35.5 L 7.5 28 L 6 28.5 L 7 26 Z " /><path fill="rgb(210,183,38)" stroke="rgb(210,183,38)" stroke-width="1" opacity="1" d="M 6.5 33 L 7 34.5 L 7 36.5 L 6.5 38 L 5 34.5 L 6.5 33 Z " /><path fill="rgb(181,33,19)" stroke="rgb(181,33,19)" stroke-width="1" opacity="1" d="M 11 15 L 14 16.5 L 15 19.5 L 13.5 19 L 11 17.5 L 11 15 Z " /><path fill="rgb(181,33,19)" stroke="rgb(181,33,19)" stroke-width="1" opacity="1" d="M 19.5 17 Q 22.1 16.3 21 19 L 18 19.5 L 20 20.5 L 18.5 21 L 16.5 18 L 19.5 17 Z " /><path fill="rgb(181,33,19)" stroke="rgb(181,33,19)" stroke-width="1" opacity="1" d="M 26.5 30 L 28 32.5 L 26 33.5 L 26 31.5 L 26.5 30 Z " /><path fill="rgb(150,125,44)" stroke="rgb(150,125,44)" stroke-width="1" opacity="1" d="M 14.5 8 Q 16.3 11.1 18 9.5 L 16.5 11 L 14 10.5 L 14.5 8 Z " /><path fill="rgb(150,125,44)" stroke="rgb(150,125,44)" stroke-width="1" opacity="1" d="M 13.5 14 L 15.5 18 L 17 17.5 Q 15.5 20.5 14 17.5 L 13.5 14 Z " /><path fill="rgb(150,125,44)" stroke="rgb(150,125,44)" stroke-width="1" opacity="1" d="M 15.5 14 L 18 14.5 Q 15.9 17.8 15.5 14 Z " /><path fill="rgb(150,125,44)" stroke="rgb(150,125,44)" stroke-width="1" opacity="1" d="M 24.5 20 L 25 21.5 L 24.5 24 Q 21.7 22.8 24 21.5 L 24.5 20 Z " /><path fill="rgb(150,125,44)" stroke="rgb(150,125,44)" stroke-width="1" opacity="1" d="M 10.5 21 L 13 22.5 L 12.5 24 L 12 22 L 10.5 21 Z " /><path fill="rgb(150,125,44)" stroke="rgb(150,125,44)" stroke-width="1" opacity="1" d="M 7.5 23 L 6.5 25 L 7.5 23 Z " /><path fill="rgb(150,125,44)" stroke="rgb(150,125,44)" stroke-width="1" opacity="1" d="M 10.5 29 L 12 32.5 L 11 32.5 L 10.5 29 Z " /><path fill="rgb(150,125,44)" stroke="rgb(150,125,44)" stroke-width="1" opacity="1" d="M 6 31 Q 9.7 29.6 8 35.5 L 10.5 39 L 7 38 L 6 35.5 L 7 33.5 L 5 33.5 L 6 31 Z " /><path fill="rgb(150,125,44)" stroke="rgb(150,125,44)" stroke-width="1" opacity="1" d="M 10.5 34 L 11.5 36 L 10.5 34 Z " /><path fill="rgb(106,79,24)" stroke="rgb(106,79,24)" stroke-width="1" opacity="1" d="M 10.5 16 L 11 17.5 L 10.5 19 L 12 19.5 L 10.5 20 L 8 19.5 L 10.5 16 Z " /><path fill="rgb(106,79,24)" stroke="rgb(106,79,24)" stroke-width="1" opacity="1" d="M 13.5 20 L 15 23 L 12.5 22 L 12 25.5 Q 14.3 26.8 11.5 28 Q 8.7 26.8 11 25.5 L 10 23.5 L 13.5 20 Z " /><path fill="rgb(106,79,24)" stroke="rgb(106,79,24)" stroke-width="1" opacity="1" d="M 6.5 22 L 8 25.5 L 7 25.5 L 6.5 22 Z " /><path fill="rgb(106,79,24)" stroke="rgb(106,79,24)" stroke-width="1" opacity="1" d="M 23.5 24 L 24.5 26 L 23.5 24 Z " /><path fill="rgb(106,79,24)" stroke="rgb(106,79,24)" stroke-width="1" opacity="1" d="M 7.5 28 L 8 31 Q 5.3 32.1 6 29.5 L 7.5 28 Z " /><path fill="rgb(106,79,24)" stroke="rgb(106,79,24)" stroke-width="1" opacity="1" d="M 10.5 31 L 11 33.5 L 10 33.5 L 10.5 31 Z " /><path fill="rgb(106,79,24)" stroke="rgb(106,79,24)" stroke-width="1" opacity="1" d="M 10.5 35 L 11 37.5 L 10 37.5 L 10.5 35 Z " /><path fill="rgb(106,79,24)" stroke="rgb(106,79,24)" stroke-width="1" opacity="1" d="M 2.5 40 L 5 41.5 Q 3.5 44.5 2 41.5 L 2.5 40 Z " /><path fill="rgb(49,41,37)" stroke="rgb(49,41,37)" stroke-width="1" opacity="1" d="M 14.5 20 L 18 20.5 L 15.5 22 L 13 21.5 L 14.5 20 Z " /><path fill="rgb(49,41,37)" stroke="rgb(49,41,37)" stroke-width="1" opacity="1" d="M 13.5 23 L 16 23.5 L 13 24.5 L 14 26.5 L 12 25.5 L 13.5 23 Z " /><path fill="rgb(49,41,37)" stroke="rgb(49,41,37)" stroke-width="1" opacity="1" d="M 18.5 23 L 21.5 25 L 24 23.5 L 20.5 26 L 18.5 23 Z " /><path fill="rgb(49,41,37)" stroke="rgb(49,41,37)" stroke-width="1" opacity="1" d="M 10.5 27 L 13 30.5 L 11 31 L 10.5 27 Z " /><path fill="rgb(49,41,37)" stroke="rgb(49,41,37)" stroke-width="1" opacity="1" d="M 26.5 32 L 27.5 34 L 26.5 32 Z " /><path fill="rgb(49,41,37)" stroke="rgb(49,41,37)" stroke-width="1" opacity="1" d="M 26.5 36 L 26 37.5 Q 26.8 39.8 24.5 39 L 23.5 37 Q 25 39.5 26.5 36 Z " /><path fill="rgb(49,41,37)" stroke="rgb(49,41,37)" stroke-width="1" opacity="1" d="M 5.5 38 Q 7.8 37.3 7 39.5 L 5.5 38 Z " /><path fill="rgb(69,105,117)" stroke="rgb(69,105,117)" stroke-width="1" opacity="1" d="M 18.5 22 L 20 22.5 L 18 23.5 L 19.5 29 L 20.5 27 L 21 28.5 L 17 31.5 Q 20.5 30 18 28.5 L 17 23.5 L 18.5 22 Z " /><path fill="rgb(69,105,117)" stroke="rgb(69,105,117)" stroke-width="1" opacity="1" d="M 21.5 22 L 23 23.5 L 22.5 26 Q 20 25 21.5 22 Z " /><path fill="rgb(69,105,117)" stroke="rgb(69,105,117)" stroke-width="1" opacity="1" d="M 12.5 28 L 13.5 30 Q 10.7 30.7 12.5 28 Z " /><path fill="rgb(69,105,117)" stroke="rgb(69,105,117)" stroke-width="1" opacity="1" d="M 12.5 32 L 13.5 34 Q 10.7 34.7 12.5 32 Z " /><path fill="rgb(69,105,117)" stroke="rgb(69,105,117)" stroke-width="1" opacity="1" d="M 17.5 34 L 18.5 36 L 17.5 34 Z " /><path fill="rgb(69,105,117)" stroke="rgb(69,105,117)" stroke-width="1" opacity="1" d="M 12.5 38 L 11.5 40 L 12.5 38 Z " /><path fill="rgb(96,137,149)" stroke="rgb(96,137,149)" stroke-width="1" opacity="1" d="M 17.5 21 L 17 22.5 L 15.5 25 L 16 23.5 L 17.5 21 Z " /><path fill="rgb(96,137,149)" stroke="rgb(96,137,149)" stroke-width="1" opacity="1" d="M 21.5 26 L 22 28.5 L 21 28.5 L 21.5 26 Z " /><path fill="rgb(96,137,149)" stroke="rgb(96,137,149)" stroke-width="1" opacity="1" d="M 14 27 Q 16.7 25.9 16 28.5 L 14.5 33 L 14 27 Z " /><path fill="rgb(96,137,149)" stroke="rgb(96,137,149)" stroke-width="1" opacity="1" d="M 18.5 34 L 18.5 39 L 17 37.5 L 18.5 34 Z " /><path fill="rgb(96,137,149)" stroke="rgb(96,137,149)" stroke-width="1" opacity="1" d="M 12.5 35 L 13 37.5 L 12 37.5 L 12.5 35 Z " /><path fill="rgb(96,137,149)" stroke="rgb(96,137,149)" stroke-width="1" opacity="1" d="M 5.5 43 L 4.5 45 L 5.5 43 Z " /><path fill="rgb(108,106,106)" stroke="rgb(108,106,106)" stroke-width="1" opacity="1" d="M 19.5 1 L 23 1.5 L 19.5 2 L 19.5 1 Z " /><path fill="rgb(108,106,106)" stroke="rgb(108,106,106)" stroke-width="1" opacity="1" d="M 23.5 13 Q 26.5 14.5 23.5 16 L 23.5 13 Z " /><path fill="rgb(108,106,106)" stroke="rgb(108,106,106)" stroke-width="1" opacity="1" d="M 6.5 14 L 9 15.5 L 7.5 16 L 6.5 14 Z " /><path fill="rgb(108,106,106)" stroke="rgb(108,106,106)" stroke-width="1" opacity="1" d="M 24.5 24 L 24 25.5 L 23.5 27 L 23 25.5 L 24.5 24 Z " /><path fill="rgb(108,106,106)" stroke="rgb(108,106,106)" stroke-width="1" opacity="1" d="M 24.5 28 L 27 29.5 L 25.5 29 L 24.5 28 Z " /><path fill="rgb(108,106,106)" stroke="rgb(108,106,106)" stroke-width="1" opacity="1" d="M 23.5 36 L 24.5 38 L 23.5 36 Z " /><path fill="rgb(108,106,106)" stroke="rgb(108,106,106)" stroke-width="1" opacity="1" d="M 6.5 40 L 5.5 42 L 6.5 40 Z " /><path fill="rgb(108,106,106)" stroke="rgb(108,106,106)" stroke-width="1" opacity="1" d="M 13.5 40 Q 15.8 39.3 15 41.5 L 13.5 40 Z " /><path fill="rgb(108,106,106)" stroke="rgb(108,106,106)" stroke-width="1" opacity="1" d="M 25.5 42 L 28 43.5 L 26.5 44 L 25.5 42 Z " /><path fill="rgb(71,73,76)" stroke="rgb(71,73,76)" stroke-width="1" opacity="1" d="M 9.5 23 L 8.5 25 L 9.5 23 Z " /><path fill="rgb(71,73,76)" stroke="rgb(71,73,76)" stroke-width="1" opacity="1" d="M 13.5 24 L 15 26.5 L 14 26.5 L 13.5 24 Z " /><path fill="rgb(71,73,76)" stroke="rgb(71,73,76)" stroke-width="1" opacity="1" d="M 19.5 25 L 20.5 27 Q 17.7 27.7 19.5 25 Z " /><path fill="rgb(71,73,76)" stroke="rgb(71,73,76)" stroke-width="1" opacity="1" d="M 22.5 27 L 24 32.5 L 23 32.5 L 22 30.5 L 22 28.5 L 22.5 27 Z " /><path fill="rgb(71,73,76)" stroke="rgb(71,73,76)" stroke-width="1" opacity="1" d="M 13.5 30 L 14 32.5 L 12 31.5 L 13.5 30 Z " /><path fill="rgb(71,73,76)" stroke="rgb(71,73,76)" stroke-width="1" opacity="1" d="M 25.5 34 L 26 36.5 L 25 36.5 L 25.5 34 Z " /><path fill="rgb(71,73,76)" stroke="rgb(71,73,76)" stroke-width="1" opacity="1" d="M 25.5 41 L 28 42.5 L 26.5 42 L 25.5 41 Z " /><path fill="rgb(71,73,76)" stroke="rgb(71,73,76)" stroke-width="1" opacity="1" d="M 5.5 42 L 7.5 42 L 11 42.5 L 6.5 44 L 5.5 42 Z " /><path fill="rgb(71,73,76)" stroke="rgb(71,73,76)" stroke-width="1" opacity="1" d="M 15.5 42 L 18 42.5 L 15.5 43 L 15.5 42 Z " /><path fill="rgb(71,73,76)" stroke="rgb(71,73,76)" stroke-width="1" opacity="1" d="M 19.5 43 L 20.5 45 L 19.5 43 Z " /><path fill="rgb(71,73,76)" stroke="rgb(71,73,76)" stroke-width="1" opacity="1" d="M 19.5 48 L 27 48.5 L 19.5 49 L 19.5 48 Z " /><path fill="rgb(133,182,194)" stroke="rgb(133,182,194)" stroke-width="1" opacity="1" d="M 15.5 25 Q 18.8 23.9 18 26.5 L 17 29.5 L 17 31.5 L 18 33.5 L 15.5 39 Q 11.8 40 13 37 Q 15.7 38.1 15 35.5 L 14 33.5 L 16 26.5 L 15.5 25 Z " /><path fill="rgb(133,182,194)" stroke="rgb(133,182,194)" stroke-width="1" opacity="1" d="M 20 29 Q 23.3 27.7 22 32.5 L 22 34.5 L 20.5 40 Q 17.8 38.8 20 37.5 L 19 33.5 L 20 30.5 L 20 29 Z " /><path fill="rgb(181,169,164)" stroke="rgb(181,169,164)" stroke-width="1" opacity="1" d="M 17.5 12 L 19 14.5 L 18 14.5 L 17.5 12 Z " /><path fill="rgb(181,169,164)" stroke="rgb(181,169,164)" stroke-width="1" opacity="1" d="M 9.5 15 L 8.5 17 L 9.5 15 Z " /><path fill="rgb(181,169,164)" stroke="rgb(181,169,164)" stroke-width="1" opacity="1" d="M 21.5 16 L 23 19.5 L 22 19.5 L 21.5 16 Z " /><path fill="rgb(181,169,164)" stroke="rgb(181,169,164)" stroke-width="1" opacity="1" d="M 8.5 18 L 7.5 20 L 8.5 18 Z " /><path fill="rgb(181,169,164)" stroke="rgb(181,169,164)" stroke-width="1" opacity="1" d="M 24.5 26 L 28 28.5 L 25.5 27 L 23.5 28 L 24.5 26 Z " /><path fill="rgb(181,169,164)" stroke="rgb(181,169,164)" stroke-width="1" opacity="1" d="M 24.5 31 L 25 33.5 L 24 33.5 L 24.5 31 Z " /><path fill="rgb(181,169,164)" stroke="rgb(181,169,164)" stroke-width="1" opacity="1" d="M 23.5 39 L 24.5 41 L 23.5 39 Z " /><path fill="rgb(181,169,164)" stroke="rgb(181,169,164)" stroke-width="1" opacity="1" d="M 16.5 40 L 19 40.5 Q 16.9 43.8 16.5 40 Z " /><path fill="rgb(181,169,164)" stroke="rgb(181,169,164)" stroke-width="1" opacity="1" d="M 6.5 46 L 10.5 48 Q 12.8 48.8 12 46.5 L 13 46.5 L 14 48.5 L 11.5 49 Q 8.2 50.1 9 47.5 L 7.5 48 Q 4.7 48.7 6.5 46 Z " /></svg>