<svg width="30" height="50" version="1.1" xmlns="http://www.w3.org/2000/svg" desc="Created with imagetracer.js version 1.2.6" ><path fill="rgb(218,210,210)" stroke="rgb(218,210,210)" stroke-width="1" opacity="1" d="M 2.5 6 L 3 10.5 L 2 10.5 L 2.5 6 Z " /><path fill="rgb(218,210,210)" stroke="rgb(218,210,210)" stroke-width="1" opacity="1" d="M 2.5 15 Q 5.5 16.5 2.5 18 L 2.5 15 Z " /><path fill="rgb(218,210,210)" stroke="rgb(218,210,210)" stroke-width="1" opacity="1" d="M 6.5 16 L 5.5 18 L 6.5 16 Z " /><path fill="rgb(218,210,210)" stroke="rgb(218,210,210)" stroke-width="1" opacity="1" d="M 27.5 21 L 28 34.5 L 26 33.5 L 27 31.5 L 25 30.5 L 27 29.5 L 25 25.5 L 27.5 21 Z " /><path fill="rgb(218,210,210)" stroke="rgb(218,210,210)" stroke-width="1" opacity="1" d="M 7.5 25 L 11 27.5 L 10.5 29 L 10 27 L 7.5 25 Z " /><path fill="rgb(218,210,210)" stroke="rgb(218,210,210)" stroke-width="1" opacity="1" d="M 24.5 35 L 25.5 37 L 24.5 35 Z " /><path fill="rgb(218,210,210)" stroke="rgb(218,210,210)" stroke-width="1" opacity="1" d="M 2.5 45 L 5 48.5 L 2.5 49 L 2 46.5 L 2.5 45 Z " /><path fill="rgb(218,210,210)" stroke="rgb(218,210,210)" stroke-width="1" opacity="1" d="M 6.5 46 L 7.5 48 L 10 46.5 L 9.5 49 L 6 47.5 L 6.5 46 Z " /><path fill="rgb(218,210,210)" stroke="rgb(218,210,210)" stroke-width="1" opacity="1" d="M 22 46 L 24 46.5 L 22 47.5 L 22 46 Z " /><path fill="rgb(233,225,223)" stroke="rgb(233,225,223)" stroke-width="1" opacity="1" d="M 8 2 L 12 2.5 L 7.5 5 L 8 3.5 L 8 2 Z " /><path fill="rgb(233,225,223)" stroke="rgb(233,225,223)" stroke-width="1" opacity="1" d="M 17.5 3 L 21 4.5 L 18.5 6 L 17.5 3 Z " /><path fill="rgb(233,225,223)" stroke="rgb(233,225,223)" stroke-width="1" opacity="1" d="M 22 3 L 26.5 6 L 28 5.5 Q 28.8 7.8 26.5 7 L 22 5 L 22 3 Z " /><path fill="rgb(233,225,223)" stroke="rgb(233,225,223)" stroke-width="1" opacity="1" d="M 7.5 6 L 11 6.5 L 10 8.5 L 10.5 10 L 9 10.5 L 12.5 12 L 15 10.5 Q 13.3 14.8 11.5 12 L 7 11 L 6 7.5 L 7.5 6 Z " /><path fill="rgb(233,225,223)" stroke="rgb(233,225,223)" stroke-width="1" opacity="1" d="M 26.5 8 L 28 8.5 L 26.5 11 Q 23.5 9.5 26.5 8 Z " /><path fill="rgb(233,225,223)" stroke="rgb(233,225,223)" stroke-width="1" opacity="1" d="M 6.5 12 L 8.5 15 L 10 14.5 L 7 16.5 L 7.5 15 L 3 13.5 L 6.5 12 Z " /><path fill="rgb(233,225,223)" stroke="rgb(233,225,223)" stroke-width="1" opacity="1" d="M 25.5 12 L 27 16.5 L 26 16.5 L 25.5 12 Z " /><path fill="rgb(233,225,223)" stroke="rgb(233,225,223)" stroke-width="1" opacity="1" d="M 10.5 17 L 11 19 L 9 18.5 L 10.5 17 Z " /><path fill="rgb(233,225,223)" stroke="rgb(233,225,223)" stroke-width="1" opacity="1" d="M 8.5 20 L 7.5 22 L 8.5 20 Z " /><path fill="rgb(233,225,223)" stroke="rgb(233,225,223)" stroke-width="1" opacity="1" d="M 3.5 23 L 7 24.5 L 4.5 25 L 3.5 23 Z " /><path fill="rgb(233,225,223)" stroke="rgb(233,225,223)" stroke-width="1" opacity="1" d="M 12.5 27 L 14 30 L 11 29.5 L 12.5 27 Z " /><path fill="rgb(233,225,223)" stroke="rgb(233,225,223)" stroke-width="1" opacity="1" d="M 20.5 28 L 22 30.5 L 21 30.5 L 20.5 28 Z " /><path fill="rgb(233,225,223)" stroke="rgb(233,225,223)" stroke-width="1" opacity="1" d="M 4.5 31 L 5 33.5 L 4 33.5 L 4.5 31 Z " /><path fill="rgb(233,225,223)" stroke="rgb(233,225,223)" stroke-width="1" opacity="1" d="M 18.5 33 L 17.5 35 L 18.5 33 Z " /><path fill="rgb(233,225,223)" stroke="rgb(233,225,223)" stroke-width="1" opacity="1" d="M 4 35 L 6 35.5 Q 4 40 2 36.5 L 4 36.5 L 4 35 Z " /><path fill="rgb(185,180,44)" stroke="rgb(185,180,44)" stroke-width="1" opacity="1" d="M 17.5 10 L 16.5 12 L 15 11.5 L 17.5 10 Z " /><path fill="rgb(185,180,44)" stroke="rgb(185,180,44)" stroke-width="1" opacity="1" d="M 19.5 10 L 23 12.5 L 21.5 12 Q 17.5 13 19.5 10 Z " /><path fill="rgb(185,180,44)" stroke="rgb(185,180,44)" stroke-width="1" opacity="1" d="M 17.5 13 L 20 14.5 L 18.5 15 L 17.5 13 Z " /><path fill="rgb(185,180,44)" stroke="rgb(185,180,44)" stroke-width="1" opacity="1" d="M 13.5 14 L 14.5 16 L 12.5 17 L 13 15.5 L 13.5 14 Z " /><path fill="rgb(185,180,44)" stroke="rgb(185,180,44)" stroke-width="1" opacity="1" d="M 21.5 15 L 24 15.5 L 21 16 L 20.5 18 L 20 16.5 L 21.5 15 Z " /><path fill="rgb(185,180,44)" stroke="rgb(185,180,44)" stroke-width="1" opacity="1" d="M 16 16 Q 18.7 14.9 18 17.5 L 22 20.5 L 21.5 22 L 21 20 L 17 19 L 16.5 21 L 15.5 19 L 17 18.5 L 16 16 Z " /><path fill="rgb(185,180,44)" stroke="rgb(185,180,44)" stroke-width="1" opacity="1" d="M 3 42 L 5 42.5 L 3 43.5 L 3 42 Z " /><path fill="rgb(185,180,44)" stroke="rgb(185,180,44)" stroke-width="1" opacity="1" d="M 7.5 42 Q 10.1 41.2 9 44.5 L 7.5 44 L 6 43.5 L 7.5 42 Z " /><path fill="rgb(185,180,44)" stroke="rgb(185,180,44)" stroke-width="1" opacity="1" d="M 13.5 42 L 20 42.5 L 19.5 44 L 25 42 Q 26.1 44.7 23.5 44 L 22 43.5 Q 22.9 46.5 18.5 45 Q 17.3 42.7 12.5 44 L 11 44.5 Q 10.3 42.3 12.5 43 L 13.5 42 Z " /><path fill="rgb(236,228,225)" stroke="rgb(236,228,225)" stroke-width="1" opacity="1" d="M 22.5 1 L 25 1.5 L 21.5 3 L 22.5 1 Z " /><path fill="rgb(236,228,225)" stroke="rgb(236,228,225)" stroke-width="1" opacity="1" d="M 12 2 L 14.5 2 L 20 6.5 L 17 8.5 L 18.5 9 L 21.5 8 L 23.5 11 L 20.5 9 L 15.5 10 L 13.5 10 L 10.5 8 L 11 6.5 L 10 4.5 L 12 4 L 12 2 Z M 15 4 L 13 6 Q 12 8 15 7 L 15 4 Z " /><path fill="rgb(236,228,225)" stroke="rgb(236,228,225)" stroke-width="1" opacity="1" d="M 17.5 2 Q 21.3 1 20 4 L 17.5 2 Z " /><path fill="rgb(236,228,225)" stroke="rgb(236,228,225)" stroke-width="1" opacity="1" d="M 26.5 2 L 25.5 4 L 26.5 2 Z " /><path fill="rgb(236,228,225)" stroke="rgb(236,228,225)" stroke-width="1" opacity="1" d="M 23.5 6 L 26 7.5 L 25.5 9 L 23.5 6 Z " /><path fill="rgb(236,228,225)" stroke="rgb(236,228,225)" stroke-width="1" opacity="1" d="M 9.5 12 Q 12.8 10.9 12 13.5 L 10 14.5 L 9.5 12 Z " /><path fill="rgb(236,228,225)" stroke="rgb(236,228,225)" stroke-width="1" opacity="1" d="M 9 19 L 12 20.5 L 9 20.5 L 9 19 Z " /><path fill="rgb(236,228,225)" stroke="rgb(236,228,225)" stroke-width="1" opacity="1" d="M 25.5 19 L 27 21.5 L 26 21.5 L 25.5 19 Z " /><path fill="rgb(236,228,225)" stroke="rgb(236,228,225)" stroke-width="1" opacity="1" d="M 12.5 26 L 13.5 28 L 12.5 26 Z " /><path fill="rgb(236,228,225)" stroke="rgb(236,228,225)" stroke-width="1" opacity="1" d="M 19.5 26 Q 22.8 24.9 22 27.5 L 20.5 27 L 19.5 26 Z " /><path fill="rgb(236,228,225)" stroke="rgb(236,228,225)" stroke-width="1" opacity="1" d="M 15.5 27 L 20 29.5 L 20 31.5 Q 20.8 33.8 18.5 33 L 17 36 L 12 37 Q 13.3 34 9.5 35 Q 7.3 39.3 5 34.5 L 6 32 L 10.5 32 L 17 28.5 L 15.5 27 Z " /><path fill="rgb(229,221,220)" stroke="rgb(229,221,220)" stroke-width="1" opacity="1" d="M 2 2 L 5.5 3 L 8 2 L 9 4.5 L 7 4.5 L 6 8.5 L 7 11 L 9 11.5 L 5.5 13 L 5 11 Q 1.3 12.3 3 6.5 L 2 2 Z " /><path fill="rgb(229,221,220)" stroke="rgb(229,221,220)" stroke-width="1" opacity="1" d="M 27.5 10 L 28 20.5 L 27 20.5 L 26 11.5 L 27.5 10 Z " /><path fill="rgb(229,221,220)" stroke="rgb(229,221,220)" stroke-width="1" opacity="1" d="M 2.5 13 L 8 15.5 L 5 17.5 L 5.5 19 L 3 17.5 L 4 15 Q 0.8 16 2.5 13 Z " /><path fill="rgb(229,221,220)" stroke="rgb(229,221,220)" stroke-width="1" opacity="1" d="M 6.5 20 L 8 20.5 L 5 22.5 L 6.5 20 Z " /><path fill="rgb(229,221,220)" stroke="rgb(229,221,220)" stroke-width="1" opacity="1" d="M 8.5 25 L 7.5 27 L 8.5 25 Z " /><path fill="rgb(229,221,220)" stroke="rgb(229,221,220)" stroke-width="1" opacity="1" d="M 24.5 26 L 27 29.5 L 25 30.5 L 27 34.5 Q 25.3 37.8 23.5 34 L 22 33.5 L 22.5 32 L 20 31.5 L 22 31 L 21 28.5 L 24.5 26 Z " /><path fill="rgb(229,221,220)" stroke="rgb(229,221,220)" stroke-width="1" opacity="1" d="M 3.5 27 Q 5.8 26.3 5 28.5 L 7 28.5 L 5.5 30 L 3 28.5 L 4 30.5 L 2 29.5 L 3.5 27 Z " /><path fill="rgb(229,221,220)" stroke="rgb(229,221,220)" stroke-width="1" opacity="1" d="M 5.5 31 L 8 31.5 L 5.5 32 L 5.5 31 Z " /><path fill="rgb(229,221,220)" stroke="rgb(229,221,220)" stroke-width="1" opacity="1" d="M 21.5 36 L 20.5 38 L 21.5 36 Z " /><path fill="rgb(229,221,220)" stroke="rgb(229,221,220)" stroke-width="1" opacity="1" d="M 8 45 L 10 45.5 L 8 46.5 L 8 45 Z " /><path fill="rgb(222,226,231)" stroke="rgb(222,226,231)" stroke-width="1" opacity="1" d="M 21.5 37 L 22 40.5 L 20 39.5 L 21.5 37 Z " /><path fill="rgb(248,235,41)" stroke="rgb(248,235,41)" stroke-width="1" opacity="1" d="M 18.5 10 L 19 12 L 24 14.5 L 21 15.5 L 23 16 L 24 18.5 L 22 19.5 L 22.5 21 L 20.5 21 L 17 21 Q 18.1 18.3 15.5 19 L 13.5 20 L 13 17.5 Q 12.3 15.3 14.5 16 L 13 13.5 Q 12.1 10.5 16.5 12 L 18.5 10 Z M 18 13 L 19 15 L 20 15 L 18 13 Z M 16 16 L 16 18 L 19 19 L 18 18 Q 19 15 16 16 Z M 21 16 L 19 18 L 21 18 L 21 16 Z " /><path fill="rgb(248,235,41)" stroke="rgb(248,235,41)" stroke-width="1" opacity="1" d="M 20.5 42 L 22 42.5 L 19.5 44 L 20.5 42 Z " /><path fill="rgb(132,127,99)" stroke="rgb(132,127,99)" stroke-width="1" opacity="1" d="M 3.5 11 L 2.5 13 L 3.5 11 Z " /><path fill="rgb(132,127,99)" stroke="rgb(132,127,99)" stroke-width="1" opacity="1" d="M 12.5 25 L 14 25.5 L 11.5 27 L 12.5 25 Z " /><path fill="rgb(132,127,99)" stroke="rgb(132,127,99)" stroke-width="1" opacity="1" d="M 5.5 26 L 6.5 28 L 5.5 26 Z " /><path fill="rgb(132,127,99)" stroke="rgb(132,127,99)" stroke-width="1" opacity="1" d="M 9.5 29 Q 11.8 28.3 11 30.5 L 9.5 29 Z " /><path fill="rgb(132,127,99)" stroke="rgb(132,127,99)" stroke-width="1" opacity="1" d="M 18.5 34 L 18 35.5 L 16.5 38 L 14 36.5 L 15.5 36 L 17 36.5 L 18.5 34 Z " /><path fill="rgb(132,127,99)" stroke="rgb(132,127,99)" stroke-width="1" opacity="1" d="M 5.5 41 L 6.5 43 L 5.5 41 Z " /><path fill="rgb(132,127,99)" stroke="rgb(132,127,99)" stroke-width="1" opacity="1" d="M 4.5 43 L 6 45.5 L 4 44.5 L 4.5 43 Z " /><path fill="rgb(132,127,99)" stroke="rgb(132,127,99)" stroke-width="1" opacity="1" d="M 10.5 43 L 11 45 L 9 44.5 L 10.5 43 Z " /><path fill="rgb(132,127,99)" stroke="rgb(132,127,99)" stroke-width="1" opacity="1" d="M 12.5 44 L 18 44 L 18 46.5 L 18.5 48 L 14.5 47 L 13 47.5 Q 12.1 44.5 16.5 46 L 16.5 45 Q 11.5 46 12.5 44 Z " /><path fill="rgb(132,127,99)" stroke="rgb(132,127,99)" stroke-width="1" opacity="1" d="M 24.5 44 L 28 45.5 L 25.5 46 L 23 45.5 L 24.5 44 Z " /><path fill="rgb(132,127,99)" stroke="rgb(132,127,99)" stroke-width="1" opacity="1" d="M 3.5 46 L 2.5 48 L 3.5 46 Z " /><path fill="rgb(181,174,170)" stroke="rgb(181,174,170)" stroke-width="1" opacity="1" d="M 2.5 11 L 3.5 13 L 2.5 11 Z " /><path fill="rgb(181,174,170)" stroke="rgb(181,174,170)" stroke-width="1" opacity="1" d="M 12.5 14 L 11.5 16 L 12.5 14 Z " /><path fill="rgb(181,174,170)" stroke="rgb(181,174,170)" stroke-width="1" opacity="1" d="M 3.5 19 L 4 21.5 L 2.5 23 L 2 20.5 L 3.5 19 Z " /><path fill="rgb(181,174,170)" stroke="rgb(181,174,170)" stroke-width="1" opacity="1" d="M 8.5 21 L 8 22.5 L 7.5 24 L 7 22.5 L 8.5 21 Z " /><path fill="rgb(181,174,170)" stroke="rgb(181,174,170)" stroke-width="1" opacity="1" d="M 21.5 24 L 23 24.5 L 20.5 26 L 21.5 24 Z " /><path fill="rgb(181,174,170)" stroke="rgb(181,174,170)" stroke-width="1" opacity="1" d="M 5.5 25 Q 7.8 24.3 7 26.5 L 4 26.5 L 5.5 25 Z " /><path fill="rgb(181,174,170)" stroke="rgb(181,174,170)" stroke-width="1" opacity="1" d="M 11.5 25 L 12 27.5 L 11.5 29 L 10 26.5 L 11.5 25 Z " /><path fill="rgb(181,174,170)" stroke="rgb(181,174,170)" stroke-width="1" opacity="1" d="M 18.5 25 L 17.5 27 L 18.5 25 Z " /><path fill="rgb(181,174,170)" stroke="rgb(181,174,170)" stroke-width="1" opacity="1" d="M 7.5 29 L 10 30.5 Q 10.8 32.8 8.5 32 L 8.5 30 L 7.5 29 Z " /><path fill="rgb(181,174,170)" stroke="rgb(181,174,170)" stroke-width="1" opacity="1" d="M 6.5 45 L 8 47.5 L 7 47.5 L 6.5 45 Z " /><path fill="rgb(181,174,170)" stroke="rgb(181,174,170)" stroke-width="1" opacity="1" d="M 10.5 45 L 13 46 Q 14.1 48.7 11.5 48 L 9 47.5 L 10.5 45 Z " /><path fill="rgb(181,174,170)" stroke="rgb(181,174,170)" stroke-width="1" opacity="1" d="M 20.5 45 L 22 48 L 18.5 47 L 17 47.5 L 20.5 45 Z " /><path fill="rgb(181,174,170)" stroke="rgb(181,174,170)" stroke-width="1" opacity="1" d="M 24.5 46 L 27 47.5 L 25.5 47 L 23.5 48 L 24.5 46 Z " /><path fill="rgb(235,227,225)" stroke="rgb(235,227,225)" stroke-width="1" opacity="1" d="M 16.5 2 L 18 4.5 L 16 3.5 L 16.5 2 Z " /><path fill="rgb(235,227,225)" stroke="rgb(235,227,225)" stroke-width="1" opacity="1" d="M 22.5 2 Q 27.3 1.3 28 4.5 L 26.5 7 L 28 7.5 L 26.5 8 L 23.5 3 L 20.5 4 L 20.5 3 L 22.5 2 Z " /><path fill="rgb(235,227,225)" stroke="rgb(235,227,225)" stroke-width="1" opacity="1" d="M 9.5 4 L 10.5 6 L 7 5.5 L 9.5 4 Z " /><path fill="rgb(235,227,225)" stroke="rgb(235,227,225)" stroke-width="1" opacity="1" d="M 14.5 4 L 15 7 Q 12.3 8.1 13 5.5 L 14.5 4 Z " /><path fill="rgb(235,227,225)" stroke="rgb(235,227,225)" stroke-width="1" opacity="1" d="M 19.5 5 L 24 5.5 Q 21.5 7 25 8.5 L 26 11.5 Q 24.5 14.5 23 11.5 Q 25.7 9.8 21.5 8 L 17.5 9 L 18.5 7 L 22 6.5 Q 18.7 6.6 19.5 5 Z " /><path fill="rgb(235,227,225)" stroke="rgb(235,227,225)" stroke-width="1" opacity="1" d="M 10.5 8 L 13.5 10 L 15 9.5 Q 13.3 13.7 11.5 11 L 9 10.5 L 11 9.5 L 10.5 8 Z " /><path fill="rgb(235,227,225)" stroke="rgb(235,227,225)" stroke-width="1" opacity="1" d="M 7 12 L 9 12.5 L 8.5 15 L 7 12 Z " /><path fill="rgb(235,227,225)" stroke="rgb(235,227,225)" stroke-width="1" opacity="1" d="M 14 28 L 17 28.5 L 15 29.5 L 17 30.5 L 15.5 31 L 14 28 Z " /><path fill="rgb(235,227,225)" stroke="rgb(235,227,225)" stroke-width="1" opacity="1" d="M 19.5 28 L 21 31 L 19 30.5 L 19.5 28 Z " /><path fill="rgb(235,227,225)" stroke="rgb(235,227,225)" stroke-width="1" opacity="1" d="M 11.5 30 L 14 31.5 L 12.5 31 L 10.5 32 L 11.5 30 Z " /><path fill="rgb(235,227,225)" stroke="rgb(235,227,225)" stroke-width="1" opacity="1" d="M 3.5 31 L 4.5 34 L 5.5 32 L 6 33.5 L 3.5 37 L 2 32.5 L 3.5 31 Z " /><path fill="rgb(235,227,225)" stroke="rgb(235,227,225)" stroke-width="1" opacity="1" d="M 8.5 34 L 12 35.5 L 9.5 36 L 8.5 34 Z " /><path fill="rgb(251,250,250)" stroke="rgb(251,250,250)" stroke-width="1" opacity="1" d="M 0 0 L 30 0 L 30 50 L 0 50 L 0 0 Z M 3 1 L 2 49 L 28 48 L 29 42 L 28 41 L 28 2 L 25 1 Q 18 4 8 2 L 6 2 L 3 1 Z " /><path fill="rgb(251,250,250)" stroke="rgb(251,250,250)" stroke-width="1" opacity="1" d="M 11.5 19 L 13 19.5 L 10.5 21 L 11.5 19 Z " /><path fill="rgb(251,250,250)" stroke="rgb(251,250,250)" stroke-width="1" opacity="1" d="M 14.5 20 L 24 23.5 Q 17.8 24.3 14.5 28 L 13.5 25 Q 9.8 25.8 9 23.5 Q 8.2 20.9 11.5 22 L 14.5 20 Z M 16 23 L 16 24 L 20 24 L 16 23 Z " /><path fill="rgb(251,250,250)" stroke="rgb(251,250,250)" stroke-width="1" opacity="1" d="M 17.5 27 L 21 27.5 L 17.5 28 L 17.5 27 Z " /><path fill="rgb(229,219,207)" stroke="rgb(229,219,207)" stroke-width="1" opacity="1" d="M 22.5 11 L 23.5 13 L 22.5 11 Z " /><path fill="rgb(229,219,207)" stroke="rgb(229,219,207)" stroke-width="1" opacity="1" d="M 23.5 20 L 22.5 22 L 23.5 20 Z " /><path fill="rgb(229,219,207)" stroke="rgb(229,219,207)" stroke-width="1" opacity="1" d="M 7.5 37 L 10 37.5 L 7.5 38 L 7.5 37 Z " /><path fill="rgb(55,48,30)" stroke="rgb(55,48,30)" stroke-width="1" opacity="1" d="M 26.5 36 L 25.5 38 L 26.5 36 Z " /><path fill="rgb(55,48,30)" stroke="rgb(55,48,30)" stroke-width="1" opacity="1" d="M 13.5 38 Q 16.5 37.2 15 41 L 12.5 40 L 11 40.5 L 13.5 38 Z " /><path fill="rgb(55,48,30)" stroke="rgb(55,48,30)" stroke-width="1" opacity="1" d="M 16.5 39 L 19 40.5 L 17.5 40 L 16.5 39 Z " /><path fill="rgb(55,48,30)" stroke="rgb(55,48,30)" stroke-width="1" opacity="1" d="M 5.5 44 L 8 44.5 L 5.5 45 L 5.5 44 Z " /><path fill="rgb(42,31,20)" stroke="rgb(42,31,20)" stroke-width="1" opacity="1" d="M 18.5 35 L 19 36.5 L 17 37.5 L 18.5 35 Z " /><path fill="rgb(42,31,20)" stroke="rgb(42,31,20)" stroke-width="1" opacity="1" d="M 24.5 37 L 25.5 39 L 24.5 37 Z " /><path fill="rgb(42,31,20)" stroke="rgb(42,31,20)" stroke-width="1" opacity="1" d="M 4.5 38 L 7 38.5 Q 4.9 41.8 4.5 38 Z " /><path fill="rgb(42,31,20)" stroke="rgb(42,31,20)" stroke-width="1" opacity="1" d="M 11.5 39 L 14.5 41 L 16 40.5 L 13.5 42 L 11.5 39 Z " /><path fill="rgb(42,31,20)" stroke="rgb(42,31,20)" stroke-width="1" opacity="1" d="M 7.5 40 L 8.5 42 L 7.5 40 Z " /><path fill="rgb(89,83,48)" stroke="rgb(89,83,48)" stroke-width="1" opacity="1" d="M 23.5 35 L 23 36.5 L 22.5 40 L 22 36.5 L 23.5 35 Z " /><path fill="rgb(89,83,48)" stroke="rgb(89,83,48)" stroke-width="1" opacity="1" d="M 3.5 39 L 4 41 L 2 40.5 L 3.5 39 Z " /><path fill="rgb(89,83,48)" stroke="rgb(89,83,48)" stroke-width="1" opacity="1" d="M 10.5 40 L 11 42.5 L 9.5 44 L 9 41.5 L 10.5 40 Z " /><path fill="rgb(89,83,48)" stroke="rgb(89,83,48)" stroke-width="1" opacity="1" d="M 17.5 40 L 16.5 42 L 15 41.5 L 17.5 40 Z " /><path fill="rgb(89,83,48)" stroke="rgb(89,83,48)" stroke-width="1" opacity="1" d="M 27.5 40 L 27 41.5 L 28 44.5 L 25 44.5 Q 23.5 40.1 26.5 41 L 27.5 40 Z " /><path fill="rgb(89,83,48)" stroke="rgb(89,83,48)" stroke-width="1" opacity="1" d="M 6.5 41 L 6 42.5 L 5.5 44 L 5 42.5 L 6.5 41 Z " /><path fill="rgb(89,83,48)" stroke="rgb(89,83,48)" stroke-width="1" opacity="1" d="M 22.5 43 Q 25.5 44.5 22.5 46 L 22.5 43 Z " /><path fill="rgb(89,83,48)" stroke="rgb(89,83,48)" stroke-width="1" opacity="1" d="M 2.5 44 Q 4.8 43.3 4 45.5 L 4.5 47 L 2.5 44 Z " /><path fill="rgb(29,19,11)" stroke="rgb(29,19,11)" stroke-width="1" opacity="1" d="M 23.5 36 L 25.5 39 L 26 37 L 28 37.5 L 26.5 41 L 24 40.5 L 23.5 36 Z " /><path fill="rgb(29,19,11)" stroke="rgb(29,19,11)" stroke-width="1" opacity="1" d="M 15 38 L 19 38 L 19 39.5 L 17.5 39 L 16 39.5 L 16.5 41 L 15 38 Z " /><path fill="rgb(29,19,11)" stroke="rgb(29,19,11)" stroke-width="1" opacity="1" d="M 7.5 39 L 11 39.5 L 7.5 40 L 7.5 39 Z " /></svg>