<svg width="30" height="50" version="1.1" xmlns="http://www.w3.org/2000/svg" desc="Created with imagetracer.js version 1.2.6" ><path fill="rgb(177,225,236)" stroke="rgb(177,225,236)" stroke-width="1" opacity="1" d="M 2 2 Q 4.7 0.9 4 3.5 L 5.5 3 L 8 4.5 L 9 8.5 L 7 9.5 L 7.5 12 L 9 12.5 L 2.5 15 L 2 2 Z " /><path fill="rgb(177,225,236)" stroke="rgb(177,225,236)" stroke-width="1" opacity="1" d="M 7.5 18 Q 10.5 19.5 7.5 21 L 7.5 18 Z " /><path fill="rgb(177,225,236)" stroke="rgb(177,225,236)" stroke-width="1" opacity="1" d="M 2.5 20 L 8 27.5 L 5 28.5 L 6 31.5 Q 3.7 32.8 6.5 34 L 8 34.5 Q 4.9 36.3 6.5 38 L 2 40 L 2.5 20 Z " /><path fill="rgb(177,225,236)" stroke="rgb(177,225,236)" stroke-width="1" opacity="1" d="M 25.5 23 L 27 25.5 L 25 24.5 L 25.5 23 Z " /><path fill="rgb(177,225,236)" stroke="rgb(177,225,236)" stroke-width="1" opacity="1" d="M 21.5 33 L 22.5 35 L 21.5 33 Z " /><path fill="rgb(177,225,236)" stroke="rgb(177,225,236)" stroke-width="1" opacity="1" d="M 24.5 38 L 24 39.5 Q 24.8 42.1 21.5 41 L 22.5 39 L 24.5 38 Z " /><path fill="rgb(185,235,246)" stroke="rgb(185,235,246)" stroke-width="1" opacity="1" d="M 4 2 L 13.5 2 L 16 3.5 L 13.5 5 L 12 4.5 L 14 7.5 L 13 10.5 L 15 10.5 L 11 16 L 7 14.5 Q 6.3 12.3 8.5 13 L 8.5 12 L 7 11.5 L 7.5 9 L 9 8.5 L 6.5 3 L 4.5 4 L 4 2 Z " /><path fill="rgb(185,235,246)" stroke="rgb(185,235,246)" stroke-width="1" opacity="1" d="M 20.5 2 L 22.5 2 L 24 2.5 L 21.5 4 L 20.5 2 Z " /><path fill="rgb(185,235,246)" stroke="rgb(185,235,246)" stroke-width="1" opacity="1" d="M 8.5 27 Q 10.8 26.3 10 28.5 L 9 32.5 Q 12.6 34.4 12 39 L 9 37.5 L 8.5 36 L 7.5 38 L 6 36.5 L 7.5 34 L 5 32.5 L 6 29.5 L 5.5 28 L 8.5 27 Z " /><path fill="rgb(165,165,153)" stroke="rgb(165,165,153)" stroke-width="1" opacity="1" d="M 17.5 9 L 18.5 11 L 17.5 9 Z " /><path fill="rgb(165,165,153)" stroke="rgb(165,165,153)" stroke-width="1" opacity="1" d="M 16.5 15 L 17 16.5 L 15 17.5 L 16.5 15 Z " /><path fill="rgb(165,165,153)" stroke="rgb(165,165,153)" stroke-width="1" opacity="1" d="M 7.5 16 L 12 18.5 L 8.5 21 L 10 18.5 L 8.5 17 L 7.5 16 Z " /><path fill="rgb(165,165,153)" stroke="rgb(165,165,153)" stroke-width="1" opacity="1" d="M 25.5 27 L 23.5 30 L 21 29.5 L 25.5 27 Z " /><path fill="rgb(165,165,153)" stroke="rgb(165,165,153)" stroke-width="1" opacity="1" d="M 10.5 33 L 11.5 35 L 10.5 33 Z " /><path fill="rgb(165,165,153)" stroke="rgb(165,165,153)" stroke-width="1" opacity="1" d="M 7.5 41 L 10 41.5 L 7.5 42 L 7.5 41 Z " /><path fill="rgb(165,165,153)" stroke="rgb(165,165,153)" stroke-width="1" opacity="1" d="M 19.5 41 L 20.5 43 L 19.5 41 Z " /><path fill="rgb(165,165,153)" stroke="rgb(165,165,153)" stroke-width="1" opacity="1" d="M 26.5 43 L 27 45 L 25 44.5 L 26.5 43 Z " /><path fill="rgb(192,244,253)" stroke="rgb(192,244,253)" stroke-width="1" opacity="1" d="M 18.5 2 L 20.5 3 L 22.5 3 L 26.5 2 L 26 3.5 L 27 8.5 L 26.5 10 Q 28.8 9.3 28 11.5 L 25 15.5 L 25.5 17 L 23.5 17 L 15.5 19 L 15.5 18 Q 18.5 18.9 17 14.5 L 19 10.5 L 15.5 9 L 13 10.5 L 12 7.5 L 12 5.5 L 13.5 3 L 15.5 4 L 18.5 2 Z " /><path fill="rgb(192,244,253)" stroke="rgb(192,244,253)" stroke-width="1" opacity="1" d="M 20 20 L 22 20.5 L 20 21.5 L 20 20 Z " /><path fill="rgb(175,44,20)" stroke="rgb(175,44,20)" stroke-width="1" opacity="1" d="M 16.5 10 L 18 10.5 L 16 17 L 14 16.5 L 14.5 15 L 12.5 16 L 12 14 Q 14.7 15.1 14 12.5 L 16.5 10 Z " /><path fill="rgb(175,44,20)" stroke="rgb(175,44,20)" stroke-width="1" opacity="1" d="M 9.5 20 L 11 22.5 L 11 24.5 L 9.5 27 L 7 25.5 L 6 23.5 L 9 23 L 9.5 20 Z " /><path fill="rgb(175,44,20)" stroke="rgb(175,44,20)" stroke-width="1" opacity="1" d="M 17.5 23 L 20 28.5 L 18.5 28 L 16.5 27 L 12.5 28 L 12.5 27 Q 16.3 27.8 17 25.5 L 17.5 23 Z " /><path fill="rgb(175,44,20)" stroke="rgb(175,44,20)" stroke-width="1" opacity="1" d="M 18.5 31 L 21 37 Q 18.3 35.9 19 38.5 L 18 38.5 Q 19.9 33.1 16.5 34 L 16.5 33 Q 19 33.7 18.5 31 Z " /><path fill="rgb(175,44,20)" stroke="rgb(175,44,20)" stroke-width="1" opacity="1" d="M 11.5 33 Q 14.8 31.9 14 34.5 L 16 40 Q 13 41.3 14 37.5 L 11.5 33 Z " /><path fill="rgb(222,136,86)" stroke="rgb(222,136,86)" stroke-width="1" opacity="1" d="M 12.5 24 L 11.5 26 L 12.5 24 Z " /><path fill="rgb(222,136,86)" stroke="rgb(222,136,86)" stroke-width="1" opacity="1" d="M 18.5 24 L 19.5 26 L 18.5 24 Z " /><path fill="rgb(222,136,86)" stroke="rgb(222,136,86)" stroke-width="1" opacity="1" d="M 12 28 Q 15 27 14 30 Q 11 31 12 28 Z " /><path fill="rgb(222,136,86)" stroke="rgb(222,136,86)" stroke-width="1" opacity="1" d="M 17.5 35 L 18 39.5 L 17 39.5 L 17.5 35 Z " /><path fill="rgb(202,241,246)" stroke="rgb(202,241,246)" stroke-width="1" opacity="1" d="M 27.5 2 L 28 7.5 L 27 7.5 L 27.5 2 Z " /><path fill="rgb(202,241,246)" stroke="rgb(202,241,246)" stroke-width="1" opacity="1" d="M 26.5 26 L 27 28.5 L 26 28.5 L 26.5 26 Z " /><path fill="rgb(202,241,246)" stroke="rgb(202,241,246)" stroke-width="1" opacity="1" d="M 25.5 37 L 27.5 40 L 25.5 37 Z " /><path fill="rgb(206,248,253)" stroke="rgb(206,248,253)" stroke-width="1" opacity="1" d="M 27.5 8 L 28 10 L 25.5 11 L 24.5 9 Q 26 11.5 27.5 8 Z " /><path fill="rgb(206,248,253)" stroke="rgb(206,248,253)" stroke-width="1" opacity="1" d="M 26 13 L 28 13.5 L 28 38.5 L 25.5 37 Q 23.3 37.8 24 35.5 L 21 31 L 27 28.5 L 26 23 L 21 21.5 L 21.5 20 L 18 21 L 19.5 18 L 25 15.5 L 24.5 14 L 26 14.5 L 26 13 Z " /><path fill="rgb(223,219,216)" stroke="rgb(223,219,216)" stroke-width="1" opacity="1" d="M 18.5 1 L 21 1.5 L 18.5 2 L 18.5 1 Z " /><path fill="rgb(223,219,216)" stroke="rgb(223,219,216)" stroke-width="1" opacity="1" d="M 2 42 L 13.5 42 L 14 44 L 12 44.5 L 14.5 45 L 17 44 L 17.5 42 L 19 45 Q 15.3 43.5 16 46.5 L 17.5 46 L 19 46.5 L 12.5 49 L 9.5 48 L 7.5 48 L 5.5 49 L 2 48 L 2 42 Z " /><path fill="rgb(223,219,216)" stroke="rgb(223,219,216)" stroke-width="1" opacity="1" d="M 27 43 L 29 43.5 L 27.5 46 L 27 43 Z " /><path fill="rgb(231,201,110)" stroke="rgb(231,201,110)" stroke-width="1" opacity="1" d="M 3 15 L 6.5 16 L 8 15.5 L 5.5 20 L 3.5 21 Q 5.1 19.3 2 17.5 L 3 16.5 L 3 15 Z " /><path fill="rgb(231,201,110)" stroke="rgb(231,201,110)" stroke-width="1" opacity="1" d="M 15.5 19 Q 18.5 20.5 15.5 22 L 15.5 19 Z " /><path fill="rgb(231,201,110)" stroke="rgb(231,201,110)" stroke-width="1" opacity="1" d="M 17.5 22 L 22 22.5 L 17.5 23 L 17.5 22 Z " /><path fill="rgb(231,201,110)" stroke="rgb(231,201,110)" stroke-width="1" opacity="1" d="M 12.5 25 L 13.5 27 Q 10.7 27.7 12.5 25 Z " /><path fill="rgb(231,201,110)" stroke="rgb(231,201,110)" stroke-width="1" opacity="1" d="M 22.5 25 Q 25.5 26.5 22.5 28 L 22.5 25 Z " /><path fill="rgb(231,201,110)" stroke="rgb(231,201,110)" stroke-width="1" opacity="1" d="M 11.5 28 L 12 30 L 14 30 Q 12.9 27.3 15.5 28 Q 19.8 29.7 17 31.5 Q 17.8 34.1 14.5 33 L 11 30.5 L 11.5 28 Z " /><path fill="rgb(231,201,110)" stroke="rgb(231,201,110)" stroke-width="1" opacity="1" d="M 22.5 35 L 21.5 37 L 22.5 35 Z " /><path fill="rgb(173,128,78)" stroke="rgb(173,128,78)" stroke-width="1" opacity="1" d="M 12.5 17 L 15.5 22 L 17 22.5 L 16 24.5 L 16.5 26 L 14.5 27 L 12.5 23 L 11 23.5 L 11.5 21 L 13 20.5 L 12.5 17 Z M 15 23 L 14 26 L 15 26 L 15 23 Z " /><path fill="rgb(173,128,78)" stroke="rgb(173,128,78)" stroke-width="1" opacity="1" d="M 8.5 21 L 9 23 L 6 22.5 L 8.5 21 Z " /><path fill="rgb(173,128,78)" stroke="rgb(173,128,78)" stroke-width="1" opacity="1" d="M 16.5 28 L 19 29.5 L 18.5 31 L 18 29 L 16.5 28 Z " /><path fill="rgb(173,128,78)" stroke="rgb(173,128,78)" stroke-width="1" opacity="1" d="M 10.5 31 L 11.5 33 Q 8.7 33.7 10.5 31 Z " /><path fill="rgb(173,128,78)" stroke="rgb(173,128,78)" stroke-width="1" opacity="1" d="M 13.5 32 L 16 33.5 L 14.5 34 L 13.5 32 Z " /><path fill="rgb(173,128,78)" stroke="rgb(173,128,78)" stroke-width="1" opacity="1" d="M 18.5 39 L 18.5 42 Q 15.5 40.5 18.5 39 Z " /><path fill="rgb(173,128,78)" stroke="rgb(173,128,78)" stroke-width="1" opacity="1" d="M 15.5 40 L 14.5 42 L 15.5 40 Z " /><path fill="rgb(249,249,247)" stroke="rgb(249,249,247)" stroke-width="1" opacity="1" d="M 0 0 L 30 0 L 30 50 L 0 50 L 0 0 Z M 4 1 L 1 2 L 2 5 L 2 48 L 5 48 L 7 48 L 9 49 L 11 48 L 13 49 L 19 47 L 18 46 L 16 47 L 16 45 L 19 45 Q 18 42 21 43 L 22 44 L 22 42 L 28 42 L 28 42 L 28 1 L 15 1 L 14 2 L 4 1 Z M 27 43 L 25 45 Q 24 48 28 46 L 29 44 L 27 43 Z " /><path fill="rgb(249,249,247)" stroke="rgb(249,249,247)" stroke-width="1" opacity="1" d="M 23.5 24 L 25 26.5 L 23 25.5 L 23.5 24 Z " /><path fill="rgb(169,197,199)" stroke="rgb(169,197,199)" stroke-width="1" opacity="1" d="M 5.5 1 L 8 1.5 L 5.5 2 L 5.5 1 Z " /><path fill="rgb(169,197,199)" stroke="rgb(169,197,199)" stroke-width="1" opacity="1" d="M 10.5 16 L 11.5 18 L 10.5 16 Z " /><path fill="rgb(169,197,199)" stroke="rgb(169,197,199)" stroke-width="1" opacity="1" d="M 8.5 17 L 9.5 19 L 8.5 17 Z " /><path fill="rgb(169,197,199)" stroke="rgb(169,197,199)" stroke-width="1" opacity="1" d="M 5.5 22 L 7 25.5 L 5 24.5 L 5.5 22 Z " /><path fill="rgb(169,197,199)" stroke="rgb(169,197,199)" stroke-width="1" opacity="1" d="M 19.5 30 L 21 32.5 L 20 32.5 L 19.5 30 Z " /><path fill="rgb(169,197,199)" stroke="rgb(169,197,199)" stroke-width="1" opacity="1" d="M 20 38 L 22 38.5 L 20.5 41 L 20 38 Z " /><path fill="rgb(111,132,137)" stroke="rgb(111,132,137)" stroke-width="1" opacity="1" d="M 14.5 11 L 13.5 13 L 14.5 11 Z " /><path fill="rgb(111,132,137)" stroke="rgb(111,132,137)" stroke-width="1" opacity="1" d="M 24.5 37 L 27.5 41 L 24 39.5 L 24.5 37 Z " /><path fill="rgb(111,132,137)" stroke="rgb(111,132,137)" stroke-width="1" opacity="1" d="M 6.5 38 Q 9.1 37.3 8 40 L 5 39.5 L 6.5 38 Z " /><path fill="rgb(111,132,137)" stroke="rgb(111,132,137)" stroke-width="1" opacity="1" d="M 19.5 39 L 20 41 L 25 41.5 L 20.5 42 L 19.5 39 Z " /><path fill="rgb(111,132,137)" stroke="rgb(111,132,137)" stroke-width="1" opacity="1" d="M 2.5 40 L 5 41.5 L 2 42 L 2.5 40 Z " /><path fill="rgb(111,132,137)" stroke="rgb(111,132,137)" stroke-width="1" opacity="1" d="M 9.5 40 L 10.5 42 L 9.5 40 Z " /><path fill="rgb(103,94,67)" stroke="rgb(103,94,67)" stroke-width="1" opacity="1" d="M 5.5 14 L 6.5 16 L 5.5 14 Z " /><path fill="rgb(103,94,67)" stroke="rgb(103,94,67)" stroke-width="1" opacity="1" d="M 13.5 15 L 12.5 17 L 11 16.5 L 13.5 15 Z " /><path fill="rgb(103,94,67)" stroke="rgb(103,94,67)" stroke-width="1" opacity="1" d="M 11.5 22 L 11.5 25 Q 8.5 23.5 11.5 22 Z " /><path fill="rgb(103,94,67)" stroke="rgb(103,94,67)" stroke-width="1" opacity="1" d="M 14.5 23 L 17 27.5 L 14 25.5 L 14.5 23 Z " /><path fill="rgb(103,94,67)" stroke="rgb(103,94,67)" stroke-width="1" opacity="1" d="M 24.5 23 L 26 25.5 L 24 24.5 L 24.5 23 Z " /><path fill="rgb(103,94,67)" stroke="rgb(103,94,67)" stroke-width="1" opacity="1" d="M 10.5 26 L 11.5 28 L 10.5 26 Z " /><path fill="rgb(103,94,67)" stroke="rgb(103,94,67)" stroke-width="1" opacity="1" d="M 21.5 27 L 22 28.5 L 20 29.5 L 21.5 27 Z " /><path fill="rgb(103,94,67)" stroke="rgb(103,94,67)" stroke-width="1" opacity="1" d="M 22.5 36 L 23.5 38 L 21.5 38 L 20 37.5 L 22.5 36 Z " /><path fill="rgb(103,94,67)" stroke="rgb(103,94,67)" stroke-width="1" opacity="1" d="M 16.5 40 L 19 40.5 L 18.5 42 L 20 42.5 L 18.5 43 L 16 42 L 15.5 44 L 15 42.5 L 16.5 40 Z " /><path fill="rgb(103,94,67)" stroke="rgb(103,94,67)" stroke-width="1" opacity="1" d="M 11.5 41 L 14 41.5 L 11.5 42 L 11.5 41 Z " /><path fill="rgb(103,94,67)" stroke="rgb(103,94,67)" stroke-width="1" opacity="1" d="M 25.5 41 L 28 41.5 L 25.5 42 L 25.5 41 Z " /><path fill="rgb(120,177,189)" stroke="rgb(120,177,189)" stroke-width="1" opacity="1" d="M 5.5 38 L 5 39.5 L 4.5 41 L 4 39.5 L 5.5 38 Z " /><path fill="rgb(120,177,189)" stroke="rgb(120,177,189)" stroke-width="1" opacity="1" d="M 22.5 38 L 24 38.5 L 21.5 40 L 22.5 38 Z " /><path fill="rgb(120,177,189)" stroke="rgb(120,177,189)" stroke-width="1" opacity="1" d="M 8.5 39 L 10 39.5 L 7.5 41 L 8.5 39 Z " /><path fill="rgb(120,177,189)" stroke="rgb(120,177,189)" stroke-width="1" opacity="1" d="M 11.5 39 L 14 40.5 L 12.5 41 L 11.5 39 Z " /></svg>