<svg width="30" height="50" version="1.1" xmlns="http://www.w3.org/2000/svg" desc="Created with imagetracer.js version 1.2.6" ><path fill="rgb(60,50,55)" stroke="rgb(60,50,55)" stroke-width="1" opacity="1" d="M 20.5 8 L 21.5 10 L 20.5 8 Z " /><path fill="rgb(60,50,55)" stroke="rgb(60,50,55)" stroke-width="1" opacity="1" d="M 7.5 9 L 9 9.5 L 6.5 11 L 7.5 9 Z " /><path fill="rgb(60,50,55)" stroke="rgb(60,50,55)" stroke-width="1" opacity="1" d="M 24.5 12 L 24 13.5 L 27 17.5 L 24 17.5 Q 26.5 16 23 14.5 L 24.5 12 Z " /><path fill="rgb(60,50,55)" stroke="rgb(60,50,55)" stroke-width="1" opacity="1" d="M 2.5 20 L 3 22.5 L 2 22.5 L 2.5 20 Z " /><path fill="rgb(60,50,55)" stroke="rgb(60,50,55)" stroke-width="1" opacity="1" d="M 23.5 22 L 24.5 24 L 23.5 22 Z " /><path fill="rgb(60,50,55)" stroke="rgb(60,50,55)" stroke-width="1" opacity="1" d="M 8.5 23 L 9.5 25 L 8.5 23 Z " /><path fill="rgb(60,50,55)" stroke="rgb(60,50,55)" stroke-width="1" opacity="1" d="M 16.5 24 L 21 26.5 L 17 27 L 16.5 24 Z " /><path fill="rgb(60,50,55)" stroke="rgb(60,50,55)" stroke-width="1" opacity="1" d="M 4.5 25 L 7 28.5 L 4 26.5 L 4.5 25 Z " /><path fill="rgb(60,50,55)" stroke="rgb(60,50,55)" stroke-width="1" opacity="1" d="M 25.5 25 L 26 37.5 L 25 37.5 L 25.5 25 Z " /><path fill="rgb(60,50,55)" stroke="rgb(60,50,55)" stroke-width="1" opacity="1" d="M 13.5 28 L 14 31.5 L 13 31.5 L 13.5 28 Z " /><path fill="rgb(60,50,55)" stroke="rgb(60,50,55)" stroke-width="1" opacity="1" d="M 10.5 33 L 12 36.5 L 10 35.5 L 10.5 33 Z " /><path fill="rgb(60,50,55)" stroke="rgb(60,50,55)" stroke-width="1" opacity="1" d="M 4.5 35 L 4 36.5 L 3.5 38 L 3 36.5 L 4.5 35 Z " /><path fill="rgb(60,50,55)" stroke="rgb(60,50,55)" stroke-width="1" opacity="1" d="M 24.5 44 L 23.5 46 L 24.5 44 Z " /><path fill="rgb(60,50,55)" stroke="rgb(60,50,55)" stroke-width="1" opacity="1" d="M 17.5 48 L 22 48.5 L 17.5 49 L 17.5 48 Z " /><path fill="rgb(161,155,160)" stroke="rgb(161,155,160)" stroke-width="1" opacity="1" d="M 17.5 6 L 18 8.5 L 17 8.5 L 17.5 6 Z " /><path fill="rgb(161,155,160)" stroke="rgb(161,155,160)" stroke-width="1" opacity="1" d="M 5.5 7 L 4.5 9 L 5.5 7 Z " /><path fill="rgb(161,155,160)" stroke="rgb(161,155,160)" stroke-width="1" opacity="1" d="M 11.5 7 L 13 10.5 L 11 9.5 L 11.5 7 Z " /><path fill="rgb(161,155,160)" stroke="rgb(161,155,160)" stroke-width="1" opacity="1" d="M 20.5 12 L 23 13.5 L 21.5 14 L 20.5 12 Z " /><path fill="rgb(161,155,160)" stroke="rgb(161,155,160)" stroke-width="1" opacity="1" d="M 15.5 13 L 15.5 16 Q 12.5 14.5 15.5 13 Z " /><path fill="rgb(161,155,160)" stroke="rgb(161,155,160)" stroke-width="1" opacity="1" d="M 5 25 L 7 25.5 L 6.5 28 L 5 25 Z " /><path fill="rgb(161,155,160)" stroke="rgb(161,155,160)" stroke-width="1" opacity="1" d="M 14.5 29 L 16.5 30 L 18.5 29 L 18.5 30 L 15.5 32 L 14.5 29 Z " /><path fill="rgb(161,155,160)" stroke="rgb(161,155,160)" stroke-width="1" opacity="1" d="M 23.5 38 L 24.5 40 L 23.5 38 Z " /><path fill="rgb(161,155,160)" stroke="rgb(161,155,160)" stroke-width="1" opacity="1" d="M 15.5 39 L 18 44 L 15 42.5 L 15.5 39 Z " /><path fill="rgb(161,155,160)" stroke="rgb(161,155,160)" stroke-width="1" opacity="1" d="M 19.5 45 L 20 47.5 L 18 46.5 L 19.5 45 Z " /><path fill="rgb(161,155,160)" stroke="rgb(161,155,160)" stroke-width="1" opacity="1" d="M 10.5 48 L 13 48.5 L 10.5 49 L 10.5 48 Z " /><path fill="rgb(252,251,251)" stroke="rgb(252,251,251)" stroke-width="1" opacity="1" d="M 0 0 L 30 0 L 30 50 L 0 50 L 0 0 Z M 3 1 L 4 2 L 6 2 L 9 3 L 7 4 Q 0 2 2 9 L 2 11 Q 3 15 1 17 L 2 19 L 1 21 L 2 24 L 2 44 L 1 45 L 2 47 L 3 49 L 29 49 L 28 48 Q 27 43 29 42 L 29 23 L 28 22 L 29 19 L 28 17 L 28 7 L 25 7 L 27 6 L 23 5 L 26 4 L 24 3 L 28 2 L 3 1 Z " /><path fill="rgb(252,251,251)" stroke="rgb(252,251,251)" stroke-width="1" opacity="1" d="M 20.5 2 L 23 2.5 L 20.5 3 L 20.5 2 Z " /><path fill="rgb(252,251,251)" stroke="rgb(252,251,251)" stroke-width="1" opacity="1" d="M 17.5 3 L 16.5 5 L 17.5 3 Z " /><path fill="rgb(252,251,251)" stroke="rgb(252,251,251)" stroke-width="1" opacity="1" d="M 19.5 4 Q 21.8 3.3 21 5.5 L 27 12.5 L 26 12.5 L 21.5 7 L 19 6.5 L 19.5 4 Z " /><path fill="rgb(252,251,251)" stroke="rgb(252,251,251)" stroke-width="1" opacity="1" d="M 8.5 5 L 9.5 7 L 6.5 8 L 8.5 5 Z " /><path fill="rgb(214,207,209)" stroke="rgb(214,207,209)" stroke-width="1" opacity="1" d="M 2.5 1 L 7 1.5 L 2.5 2 L 2.5 1 Z " /><path fill="rgb(214,207,209)" stroke="rgb(214,207,209)" stroke-width="1" opacity="1" d="M 16.5 3 L 20 5.5 L 18 6.5 L 18.5 5 L 16.5 3 Z " /><path fill="rgb(214,207,209)" stroke="rgb(214,207,209)" stroke-width="1" opacity="1" d="M 22.5 4 L 23.5 6 Q 20.7 6.7 22.5 4 Z " /><path fill="rgb(214,207,209)" stroke="rgb(214,207,209)" stroke-width="1" opacity="1" d="M 11.5 6 L 10.5 10 L 8.5 7 Q 10 9.5 11.5 6 Z " /><path fill="rgb(214,207,209)" stroke="rgb(214,207,209)" stroke-width="1" opacity="1" d="M 13.5 8 L 12.5 10 L 13.5 8 Z " /><path fill="rgb(214,207,209)" stroke="rgb(214,207,209)" stroke-width="1" opacity="1" d="M 3.5 9 L 4.5 11 L 3.5 9 Z " /><path fill="rgb(214,207,209)" stroke="rgb(214,207,209)" stroke-width="1" opacity="1" d="M 14.5 15 Q 17.5 16.5 14.5 18 Q 11.5 16.5 14.5 15 Z " /><path fill="rgb(214,207,209)" stroke="rgb(214,207,209)" stroke-width="1" opacity="1" d="M 16.5 18 L 17.5 20 L 16.5 18 Z " /><path fill="rgb(214,207,209)" stroke="rgb(214,207,209)" stroke-width="1" opacity="1" d="M 15.5 21 L 16.5 23 L 15.5 21 Z " /><path fill="rgb(214,207,209)" stroke="rgb(214,207,209)" stroke-width="1" opacity="1" d="M 12.5 22 Q 14.8 21.3 14 23.5 L 12.5 22 Z " /><path fill="rgb(214,207,209)" stroke="rgb(214,207,209)" stroke-width="1" opacity="1" d="M 9.5 26 L 8.5 28 L 9.5 26 Z " /><path fill="rgb(214,207,209)" stroke="rgb(214,207,209)" stroke-width="1" opacity="1" d="M 24.5 27 L 23.5 29 L 24.5 27 Z " /><path fill="rgb(214,207,209)" stroke="rgb(214,207,209)" stroke-width="1" opacity="1" d="M 23.5 31 L 24.5 33 L 23.5 31 Z " /><path fill="rgb(214,207,209)" stroke="rgb(214,207,209)" stroke-width="1" opacity="1" d="M 24.5 34 L 23.5 36 L 24.5 34 Z " /><path fill="rgb(214,207,209)" stroke="rgb(214,207,209)" stroke-width="1" opacity="1" d="M 7.5 35 L 8 36.5 L 6.5 39 L 5 36.5 L 7 36.5 L 7.5 35 Z " /><path fill="rgb(214,207,209)" stroke="rgb(214,207,209)" stroke-width="1" opacity="1" d="M 23.5 37 L 25 37.5 L 23 38.5 L 23.5 40 Q 20.5 38.5 23.5 37 Z " /><path fill="rgb(214,207,209)" stroke="rgb(214,207,209)" stroke-width="1" opacity="1" d="M 23.5 41 L 24 43.5 L 22.5 45 L 22 42.5 L 23.5 41 Z " /><path fill="rgb(214,207,209)" stroke="rgb(214,207,209)" stroke-width="1" opacity="1" d="M 25.5 42 L 26 44.5 L 25.5 47 Q 22.7 45.8 25 44.5 L 25.5 42 Z " /><path fill="rgb(214,207,209)" stroke="rgb(214,207,209)" stroke-width="1" opacity="1" d="M 10.5 43 L 14 43.5 L 10.5 44 L 10.5 43 Z " /><path fill="rgb(214,207,209)" stroke="rgb(214,207,209)" stroke-width="1" opacity="1" d="M 4.5 46 L 4 47.5 Q 4.7 50.1 2 49 Q 0.9 46.3 3.5 47 L 4.5 46 Z " /><path fill="rgb(214,207,209)" stroke="rgb(214,207,209)" stroke-width="1" opacity="1" d="M 6.5 46 L 8 49 Q 4.5 50.1 6.5 46 Z " /><path fill="rgb(227,161,66)" stroke="rgb(227,161,66)" stroke-width="1" opacity="1" d="M 5.5 19 L 7.5 22 Q 3.1 23.1 5.5 19 Z " /><path fill="rgb(227,161,66)" stroke="rgb(227,161,66)" stroke-width="1" opacity="1" d="M 22.5 22 L 24 25 Q 20.5 26.1 22.5 22 Z " /><path fill="rgb(227,161,66)" stroke="rgb(227,161,66)" stroke-width="1" opacity="1" d="M 19.5 23 L 18.5 25 L 19.5 23 Z " /><path fill="rgb(227,161,66)" stroke="rgb(227,161,66)" stroke-width="1" opacity="1" d="M 22.5 26 L 23.5 28 Q 20.7 28.7 22.5 26 Z " /><path fill="rgb(227,161,66)" stroke="rgb(227,161,66)" stroke-width="1" opacity="1" d="M 20.5 28 L 24 30.5 L 23.5 33 L 21.5 33 L 20 33 L 20 37 L 23 36.5 L 22.5 35 Q 25.5 36.5 22.5 38 Q 20.3 37.3 21 39.5 L 20 39.5 L 19 33 L 17 32.5 L 19.5 31 L 21.5 32 L 22.5 30 L 19 29.5 L 20.5 28 Z " /><path fill="rgb(227,161,66)" stroke="rgb(227,161,66)" stroke-width="1" opacity="1" d="M 8.5 39 L 12 39.5 Q 10.8 42.3 9.5 40 L 8.5 39 Z " /><path fill="rgb(227,161,66)" stroke="rgb(227,161,66)" stroke-width="1" opacity="1" d="M 19.5 41 L 22 42.5 L 20.5 42 L 19.5 41 Z " /><path fill="rgb(237,233,234)" stroke="rgb(237,233,234)" stroke-width="1" opacity="1" d="M 23.5 2 L 22.5 4 L 23.5 2 Z " /><path fill="rgb(237,233,234)" stroke="rgb(237,233,234)" stroke-width="1" opacity="1" d="M 3.5 4 L 6 5.5 L 5 7.5 Q 7.5 9 4 10.5 Q 5 14.3 2 13 L 5 8.5 L 5 6.5 L 4.5 5 L 1.5 10 L 2 8.5 Q 1.3 4.8 3.5 4 Z " /><path fill="rgb(237,233,234)" stroke="rgb(237,233,234)" stroke-width="1" opacity="1" d="M 10.5 4 L 10.5 7 Q 7.5 5.5 10.5 4 Z " /><path fill="rgb(237,233,234)" stroke="rgb(237,233,234)" stroke-width="1" opacity="1" d="M 25.5 5 L 24.5 7 L 25.5 5 Z " /><path fill="rgb(237,233,234)" stroke="rgb(237,233,234)" stroke-width="1" opacity="1" d="M 26.5 10 L 25.5 12 L 26.5 10 Z " /><path fill="rgb(237,233,234)" stroke="rgb(237,233,234)" stroke-width="1" opacity="1" d="M 1.5 16 L 3 18.5 L 1 17.5 L 1.5 16 Z " /><path fill="rgb(237,233,234)" stroke="rgb(237,233,234)" stroke-width="1" opacity="1" d="M 11.5 16 L 13 16.5 L 10.5 18 L 11.5 16 Z " /><path fill="rgb(237,233,234)" stroke="rgb(237,233,234)" stroke-width="1" opacity="1" d="M 1.5 20 L 2 22.5 L 1 22.5 L 1.5 20 Z " /><path fill="rgb(237,233,234)" stroke="rgb(237,233,234)" stroke-width="1" opacity="1" d="M 12.5 20 L 13.5 22 Q 10.7 22.7 12.5 20 Z " /><path fill="rgb(237,233,234)" stroke="rgb(237,233,234)" stroke-width="1" opacity="1" d="M 28.5 22 L 29 41.5 L 28 41.5 L 28.5 22 Z " /><path fill="rgb(237,233,234)" stroke="rgb(237,233,234)" stroke-width="1" opacity="1" d="M 3.5 41 L 4 43 L 2 42.5 L 3.5 41 Z " /><path fill="rgb(237,233,234)" stroke="rgb(237,233,234)" stroke-width="1" opacity="1" d="M 14.5 42 L 15 46 L 12 46.5 L 18 47.5 L 8.5 48 L 7 45.5 Q 8.6 42.5 14 44 L 14.5 42 Z " /><path fill="rgb(237,233,234)" stroke="rgb(237,233,234)" stroke-width="1" opacity="1" d="M 27.5 46 L 29 48.5 L 27 47.5 L 27.5 46 Z " /><path fill="rgb(106,97,102)" stroke="rgb(106,97,102)" stroke-width="1" opacity="1" d="M 12.5 1 L 14 1.5 L 10.5 3 L 10.5 2 L 12.5 1 Z " /><path fill="rgb(106,97,102)" stroke="rgb(106,97,102)" stroke-width="1" opacity="1" d="M 19.5 1 L 21 1.5 L 18.5 3 L 19.5 1 Z " /><path fill="rgb(106,97,102)" stroke="rgb(106,97,102)" stroke-width="1" opacity="1" d="M 11.5 5 L 14 5.5 L 11.5 6 L 11.5 5 Z " /><path fill="rgb(106,97,102)" stroke="rgb(106,97,102)" stroke-width="1" opacity="1" d="M 13.5 7 L 12.5 9 L 13.5 7 Z " /><path fill="rgb(106,97,102)" stroke="rgb(106,97,102)" stroke-width="1" opacity="1" d="M 19.5 10 L 20.5 12 L 19.5 10 Z " /><path fill="rgb(106,97,102)" stroke="rgb(106,97,102)" stroke-width="1" opacity="1" d="M 9.5 13 L 11.5 16 L 9.5 16 L 7 15.5 L 9 15 L 9.5 13 Z " /><path fill="rgb(106,97,102)" stroke="rgb(106,97,102)" stroke-width="1" opacity="1" d="M 15.5 14 Q 17.8 13.3 17 15.5 L 15.5 14 Z " /><path fill="rgb(106,97,102)" stroke="rgb(106,97,102)" stroke-width="1" opacity="1" d="M 17.5 17 L 19 20.5 L 17 21.5 L 18 18.5 L 17.5 17 Z " /><path fill="rgb(106,97,102)" stroke="rgb(106,97,102)" stroke-width="1" opacity="1" d="M 10.5 20 L 13 23.5 L 11 22.5 L 10.5 20 Z " /><path fill="rgb(106,97,102)" stroke="rgb(106,97,102)" stroke-width="1" opacity="1" d="M 14.5 27 L 15.5 29 L 14.5 27 Z " /><path fill="rgb(106,97,102)" stroke="rgb(106,97,102)" stroke-width="1" opacity="1" d="M 11.5 28 L 10.5 32 L 9 29 L 11.5 28 Z " /><path fill="rgb(106,97,102)" stroke="rgb(106,97,102)" stroke-width="1" opacity="1" d="M 13.5 32 L 14.5 34 Q 11.7 34.7 13.5 32 Z " /><path fill="rgb(106,97,102)" stroke="rgb(106,97,102)" stroke-width="1" opacity="1" d="M 9.5 35 L 10 37.5 L 8 38.5 L 9.5 35 Z " /><path fill="rgb(106,97,102)" stroke="rgb(106,97,102)" stroke-width="1" opacity="1" d="M 18.5 42 L 19.5 44 L 18.5 42 Z " /><path fill="rgb(26,19,28)" stroke="rgb(26,19,28)" stroke-width="1" opacity="1" d="M 5.5 12 L 6 14.5 L 2.5 17 L 3 15.5 L 5.5 12 Z " /><path fill="rgb(26,19,28)" stroke="rgb(26,19,28)" stroke-width="1" opacity="1" d="M 24.5 14 Q 26.8 13.3 26 15.5 L 24.5 14 Z " /><path fill="rgb(26,19,28)" stroke="rgb(26,19,28)" stroke-width="1" opacity="1" d="M 5.5 17 L 9 19.5 L 7.5 19 L 4 18.5 L 5.5 17 Z " /><path fill="rgb(81,72,74)" stroke="rgb(81,72,74)" stroke-width="1" opacity="1" d="M 14 1 L 16 1.5 L 14.5 4 L 14 1 Z " /><path fill="rgb(81,72,74)" stroke="rgb(81,72,74)" stroke-width="1" opacity="1" d="M 18.5 1 L 17.5 3 L 18.5 1 Z " /><path fill="rgb(81,72,74)" stroke="rgb(81,72,74)" stroke-width="1" opacity="1" d="M 21.5 8 L 24.5 12 Q 22.8 8.9 21 10.5 L 21.5 8 Z " /><path fill="rgb(81,72,74)" stroke="rgb(81,72,74)" stroke-width="1" opacity="1" d="M 8.5 10 L 12 11.5 L 10 12.5 Q 10.8 10.3 8.5 11 L 7 11.5 L 8.5 10 Z " /><path fill="rgb(81,72,74)" stroke="rgb(81,72,74)" stroke-width="1" opacity="1" d="M 12.5 24 L 13.5 26 Q 10.7 26.7 12.5 24 Z " /><path fill="rgb(81,72,74)" stroke="rgb(81,72,74)" stroke-width="1" opacity="1" d="M 8.5 25 L 7.5 27 L 8.5 25 Z " /><path fill="rgb(81,72,74)" stroke="rgb(81,72,74)" stroke-width="1" opacity="1" d="M 11.5 27 L 14 27.5 L 10.5 29 L 11.5 27 Z " /><path fill="rgb(81,72,74)" stroke="rgb(81,72,74)" stroke-width="1" opacity="1" d="M 5.5 28 L 7 30.5 L 6 30.5 L 5.5 28 Z " /><path fill="rgb(81,72,74)" stroke="rgb(81,72,74)" stroke-width="1" opacity="1" d="M 3.5 29 L 5 31.5 L 4 31.5 L 3.5 30 L 2 30.5 L 3.5 29 Z " /><path fill="rgb(81,72,74)" stroke="rgb(81,72,74)" stroke-width="1" opacity="1" d="M 15.5 33 L 16.5 35 L 15.5 33 Z " /><path fill="rgb(81,72,74)" stroke="rgb(81,72,74)" stroke-width="1" opacity="1" d="M 2 35 L 5 36.5 L 2 36.5 L 2 35 Z " /><path fill="rgb(81,72,74)" stroke="rgb(81,72,74)" stroke-width="1" opacity="1" d="M 7.5 37 L 8 39.5 L 7 39.5 L 7.5 37 Z " /><path fill="rgb(81,72,74)" stroke="rgb(81,72,74)" stroke-width="1" opacity="1" d="M 3.5 38 L 4 40.5 L 2 41.5 L 3.5 38 Z " /><path fill="rgb(81,72,74)" stroke="rgb(81,72,74)" stroke-width="1" opacity="1" d="M 9.5 41 L 10.5 43 L 9.5 41 Z " /><path fill="rgb(81,72,74)" stroke="rgb(81,72,74)" stroke-width="1" opacity="1" d="M 2.5 43 L 4 45.5 L 2 46.5 L 3 44.5 L 2.5 43 Z " /><path fill="rgb(81,72,74)" stroke="rgb(81,72,74)" stroke-width="1" opacity="1" d="M 20.5 47 L 24 48.5 L 22.5 49 L 20.5 47 Z " /><path fill="rgb(36,28,36)" stroke="rgb(36,28,36)" stroke-width="1" opacity="1" d="M 3.5 16 L 2.5 18 L 3.5 16 Z " /><path fill="rgb(36,28,36)" stroke="rgb(36,28,36)" stroke-width="1" opacity="1" d="M 8.5 20 L 11 21.5 L 9.5 21 L 8.5 20 Z " /><path fill="rgb(36,28,36)" stroke="rgb(36,28,36)" stroke-width="1" opacity="1" d="M 25.5 20 L 27 22.5 L 25 21.5 L 25.5 20 Z " /><path fill="rgb(36,28,36)" stroke="rgb(36,28,36)" stroke-width="1" opacity="1" d="M 18 21 L 21 21.5 L 18 23.5 L 17.5 25 L 17 23.5 L 18 21 Z " /><path fill="rgb(36,28,36)" stroke="rgb(36,28,36)" stroke-width="1" opacity="1" d="M 8.5 22 L 12 23.5 L 9.5 24 L 8.5 22 Z " /><path fill="rgb(36,28,36)" stroke="rgb(36,28,36)" stroke-width="1" opacity="1" d="M 25.5 24 L 28 25 Q 29 28 26 27 L 25.5 24 Z " /><path fill="rgb(36,28,36)" stroke="rgb(36,28,36)" stroke-width="1" opacity="1" d="M 4.5 28 L 7 31.5 L 5 32 L 4.5 28 Z " /><path fill="rgb(36,28,36)" stroke="rgb(36,28,36)" stroke-width="1" opacity="1" d="M 11 31 L 13 31.5 L 13 33.5 Q 13.8 37.3 11.5 38 L 10 37.5 L 12 36.5 L 11 31 Z " /><path fill="rgb(36,28,36)" stroke="rgb(36,28,36)" stroke-width="1" opacity="1" d="M 26.5 36 L 27.5 38 L 25.5 39 L 26 37.5 L 26.5 36 Z " /><path fill="rgb(36,28,36)" stroke="rgb(36,28,36)" stroke-width="1" opacity="1" d="M 6 43 L 8 43.5 L 6 44.5 L 6 43 Z " /><path fill="rgb(146,131,128)" stroke="rgb(146,131,128)" stroke-width="1" opacity="1" d="M 16.5 2 L 15.5 4 L 16.5 2 Z " /><path fill="rgb(146,131,128)" stroke="rgb(146,131,128)" stroke-width="1" opacity="1" d="M 15 9 Q 18 8 17 11 Q 14 12 15 9 Z " /><path fill="rgb(146,131,128)" stroke="rgb(146,131,128)" stroke-width="1" opacity="1" d="M 19.5 11 L 18.5 13 L 19.5 11 Z " /><path fill="rgb(146,131,128)" stroke="rgb(146,131,128)" stroke-width="1" opacity="1" d="M 14.5 13 L 12.5 16 L 12 14 L 14.5 13 Z " /><path fill="rgb(146,131,128)" stroke="rgb(146,131,128)" stroke-width="1" opacity="1" d="M 17.5 15 L 19.5 18 L 17.5 15 Z " /><path fill="rgb(146,131,128)" stroke="rgb(146,131,128)" stroke-width="1" opacity="1" d="M 16.5 26 L 17.5 28 Q 14.7 28.7 16.5 26 Z " /><path fill="rgb(146,131,128)" stroke="rgb(146,131,128)" stroke-width="1" opacity="1" d="M 5.5 33 L 6.5 35 L 4 34.5 L 5.5 33 Z " /><path fill="rgb(194,184,188)" stroke="rgb(194,184,188)" stroke-width="1" opacity="1" d="M 10.5 3 L 11.5 5 L 10.5 3 Z " /><path fill="rgb(194,184,188)" stroke="rgb(194,184,188)" stroke-width="1" opacity="1" d="M 6.5 8 L 5.5 10 L 6.5 8 Z " /><path fill="rgb(194,184,188)" stroke="rgb(194,184,188)" stroke-width="1" opacity="1" d="M 14.5 8 L 16 8.5 L 13.5 10 L 14.5 8 Z " /><path fill="rgb(194,184,188)" stroke="rgb(194,184,188)" stroke-width="1" opacity="1" d="M 15.5 11 L 16.5 13 L 15.5 11 Z " /><path fill="rgb(194,184,188)" stroke="rgb(194,184,188)" stroke-width="1" opacity="1" d="M 20.5 13 L 21 15.5 Q 21.8 17.8 19.5 17 L 19 14.5 L 20.5 13 Z " /><path fill="rgb(194,184,188)" stroke="rgb(194,184,188)" stroke-width="1" opacity="1" d="M 13.5 15 L 15.5 18 L 13.5 15 Z " /><path fill="rgb(194,184,188)" stroke="rgb(194,184,188)" stroke-width="1" opacity="1" d="M 4.5 16 L 3.5 18 L 4.5 16 Z " /><path fill="rgb(194,184,188)" stroke="rgb(194,184,188)" stroke-width="1" opacity="1" d="M 14.5 19 L 18 20.5 L 16.5 22 L 14.5 19 Z " /><path fill="rgb(194,184,188)" stroke="rgb(194,184,188)" stroke-width="1" opacity="1" d="M 6.5 23 L 7.5 25 L 5 24.5 L 6.5 23 Z " /><path fill="rgb(194,184,188)" stroke="rgb(194,184,188)" stroke-width="1" opacity="1" d="M 9.5 27 L 10 29 L 8 28.5 L 9.5 27 Z " /><path fill="rgb(194,184,188)" stroke="rgb(194,184,188)" stroke-width="1" opacity="1" d="M 14.5 36 L 16 38.5 L 14.5 41 L 13 38.5 L 14.5 36 Z " /><path fill="rgb(194,184,188)" stroke="rgb(194,184,188)" stroke-width="1" opacity="1" d="M 8.5 41 L 7.5 43 L 8.5 41 Z " /><path fill="rgb(194,184,188)" stroke="rgb(194,184,188)" stroke-width="1" opacity="1" d="M 18.5 43 L 19.5 45 L 18.5 43 Z " /><path fill="rgb(194,184,188)" stroke="rgb(194,184,188)" stroke-width="1" opacity="1" d="M 3.5 46 L 6 46.5 L 5.5 49 Q 3.3 49.8 4 47.5 L 3.5 46 Z " /><path fill="rgb(127,121,126)" stroke="rgb(127,121,126)" stroke-width="1" opacity="1" d="M 11.5 1 L 14 2 L 15 4.5 L 11.5 1 Z " /><path fill="rgb(127,121,126)" stroke="rgb(127,121,126)" stroke-width="1" opacity="1" d="M 23.5 7 L 24.5 9 L 23.5 7 Z " /><path fill="rgb(127,121,126)" stroke="rgb(127,121,126)" stroke-width="1" opacity="1" d="M 20.5 10 L 21.5 12 L 20.5 10 Z " /><path fill="rgb(127,121,126)" stroke="rgb(127,121,126)" stroke-width="1" opacity="1" d="M 7.5 14 L 6.5 16 L 7.5 14 Z " /><path fill="rgb(127,121,126)" stroke="rgb(127,121,126)" stroke-width="1" opacity="1" d="M 17.5 22 L 16.5 24 L 17.5 22 Z " /><path fill="rgb(127,121,126)" stroke="rgb(127,121,126)" stroke-width="1" opacity="1" d="M 15.5 27 L 14.5 29 L 15.5 27 Z " /><path fill="rgb(127,121,126)" stroke="rgb(127,121,126)" stroke-width="1" opacity="1" d="M 11.5 29 L 12 31 L 10 30.5 L 11.5 29 Z " /><path fill="rgb(127,121,126)" stroke="rgb(127,121,126)" stroke-width="1" opacity="1" d="M 17.5 41 L 16.5 43 L 17.5 41 Z " /><path fill="rgb(127,121,126)" stroke="rgb(127,121,126)" stroke-width="1" opacity="1" d="M 13.5 48 L 16 48.5 L 13.5 49 L 13.5 48 Z " /><path fill="rgb(30,23,32)" stroke="rgb(30,23,32)" stroke-width="1" opacity="1" d="M 23.5 12 L 24.5 14 L 23.5 12 Z " /><path fill="rgb(30,23,32)" stroke="rgb(30,23,32)" stroke-width="1" opacity="1" d="M 21.5 17 Q 26.5 16.5 27 20.5 L 25 20.5 L 26.5 23 L 28 22.5 Q 29.1 25.8 26.5 25 L 23.5 21 L 21.5 22 L 19 20.5 L 21.5 17 Z " /><path fill="rgb(30,23,32)" stroke="rgb(30,23,32)" stroke-width="1" opacity="1" d="M 8.5 21 L 11 22.5 L 9.5 23 L 8.5 21 Z " /><path fill="rgb(30,23,32)" stroke="rgb(30,23,32)" stroke-width="1" opacity="1" d="M 26 27 L 28 27.5 L 28 36.5 L 26 35.5 L 27 33.5 L 26 27 Z " /><path fill="rgb(30,23,32)" stroke="rgb(30,23,32)" stroke-width="1" opacity="1" d="M 27.5 38 L 28 41 Q 25.3 42.1 26 39.5 L 27.5 38 Z " /><path fill="rgb(30,23,32)" stroke="rgb(30,23,32)" stroke-width="1" opacity="1" d="M 10.5 41 L 9.5 43 L 8 42.5 L 10.5 41 Z " /><path fill="rgb(234,195,114)" stroke="rgb(234,195,114)" stroke-width="1" opacity="1" d="M 19.5 24 Q 23.3 23 22 26 L 19.5 24 Z " /><path fill="rgb(234,195,114)" stroke="rgb(234,195,114)" stroke-width="1" opacity="1" d="M 21.5 27 Q 23.3 30.1 25 28.5 L 22 31.5 L 23 32.5 L 23.5 34 L 25 33.5 Q 24.3 35.8 20.5 35 L 20.5 34 Q 23.1 34.7 22 32 Q 19 33 20 30 L 23 29.5 L 21 29 L 21.5 27 Z " /><path fill="rgb(234,195,114)" stroke="rgb(234,195,114)" stroke-width="1" opacity="1" d="M 7.5 30 Q 10.1 29.2 9 32.5 L 8 32.5 L 7.5 30 Z " /><path fill="rgb(234,195,114)" stroke="rgb(234,195,114)" stroke-width="1" opacity="1" d="M 19.5 39 L 20.5 41 L 18 40.5 L 19.5 39 Z " /><path fill="rgb(234,195,114)" stroke="rgb(234,195,114)" stroke-width="1" opacity="1" d="M 20.5 42 L 21.5 44 L 20.5 42 Z " /><path fill="rgb(161,100,49)" stroke="rgb(161,100,49)" stroke-width="1" opacity="1" d="M 22.5 25 L 20.5 28 L 22.5 25 Z " /><path fill="rgb(161,100,49)" stroke="rgb(161,100,49)" stroke-width="1" opacity="1" d="M 16.5 32 L 18.5 33 L 20.5 33 L 22 33.5 L 20.5 34 L 19 33.5 L 18.5 36 L 16 35.5 L 16 33.5 L 16.5 32 Z " /><path fill="rgb(161,100,49)" stroke="rgb(161,100,49)" stroke-width="1" opacity="1" d="M 16.5 37 L 20 38.5 L 18.5 39 L 16.5 37 Z " /><path fill="rgb(161,100,49)" stroke="rgb(161,100,49)" stroke-width="1" opacity="1" d="M 21 39 L 23 39.5 L 21.5 42 L 21 39 Z " /><path fill="rgb(161,100,49)" stroke="rgb(161,100,49)" stroke-width="1" opacity="1" d="M 19.5 42 L 21.5 45 L 19.5 42 Z " /></svg>