<svg width="30" height="50" version="1.1" xmlns="http://www.w3.org/2000/svg" desc="Created with imagetracer.js version 1.2.6" ><path fill="rgb(233,224,224)" stroke="rgb(233,224,224)" stroke-width="1" opacity="1" d="M 2 2 Q 4.7 0.9 4 3.5 L 4 5.5 Q 3 9.3 6 8 L 7 3.5 L 6.5 2 Q 10.9 0.5 10 3.5 L 10 5.5 L 11.5 8 L 16.5 6 L 17 9.5 L 12.5 15 Q 9.5 14.1 11 18.5 L 11 20.5 L 9 24.5 L 8 34 L 4.5 33 L 2 34.5 L 2 25.5 L 3.5 25 L 7 23.5 L 3.5 22 L 2 22.5 Q 0.2 16.3 3 14.5 L 2 11 Q 4.7 9.9 4 12.5 L 6 11.5 L 5.5 9 L 3.5 10 L 2 2 Z M 9 3 L 9 6 Q 12 5 9 3 Z M 6 17 L 5 19 Q 3 20 6 21 L 8 20 L 6 19 L 6 17 Z M 4 26 Q 2 30 6 29 L 6 27 L 4 26 Z M 5 30 L 4 32 L 6 33 L 5 30 Z " /><path fill="rgb(233,224,224)" stroke="rgb(233,224,224)" stroke-width="1" opacity="1" d="M 2.5 44 L 4 48 Q 0.2 49.2 2.5 44 Z " /><path fill="rgb(233,224,224)" stroke="rgb(233,224,224)" stroke-width="1" opacity="1" d="M 25.5 46 L 28 47.5 L 25 48 L 25.5 46 Z " /><path fill="rgb(227,219,217)" stroke="rgb(227,219,217)" stroke-width="1" opacity="1" d="M 19.5 4 L 22 5 L 21.5 7 L 19 6.5 L 19.5 4 Z " /><path fill="rgb(227,219,217)" stroke="rgb(227,219,217)" stroke-width="1" opacity="1" d="M 18.5 9 L 21 9.5 Q 21.7 12.5 18 11 L 18.5 9 Z " /><path fill="rgb(227,219,217)" stroke="rgb(227,219,217)" stroke-width="1" opacity="1" d="M 19.5 13 L 20.5 15 L 18 14.5 L 19.5 13 Z " /><path fill="rgb(227,219,217)" stroke="rgb(227,219,217)" stroke-width="1" opacity="1" d="M 20.5 16 L 22 19.5 Q 23 23.3 20 22 L 21 19.5 L 20.5 16 Z " /><path fill="rgb(227,219,217)" stroke="rgb(227,219,217)" stroke-width="1" opacity="1" d="M 18.5 19 L 19 21.5 L 18 21.5 L 18.5 19 Z " /><path fill="rgb(227,219,217)" stroke="rgb(227,219,217)" stroke-width="1" opacity="1" d="M 23.5 21 L 24.5 23 Q 21.7 23.7 23.5 21 Z " /><path fill="rgb(227,219,217)" stroke="rgb(227,219,217)" stroke-width="1" opacity="1" d="M 22.5 29 Q 24.8 28.3 24 30.5 L 22.5 29 Z " /><path fill="rgb(227,219,217)" stroke="rgb(227,219,217)" stroke-width="1" opacity="1" d="M 26.5 29 L 27.5 31 L 25 30.5 L 26.5 29 Z " /><path fill="rgb(227,219,217)" stroke="rgb(227,219,217)" stroke-width="1" opacity="1" d="M 20.5 31 L 23 32.5 L 21.5 32 L 20.5 31 Z " /><path fill="rgb(227,219,217)" stroke="rgb(227,219,217)" stroke-width="1" opacity="1" d="M 23.5 42 L 25 45 L 20.5 46 L 19.5 44 L 24 43.5 L 23.5 42 Z " /><path fill="rgb(227,219,217)" stroke="rgb(227,219,217)" stroke-width="1" opacity="1" d="M 11.5 44 L 14 44.5 L 11.5 45 L 11.5 44 Z " /><path fill="rgb(227,219,217)" stroke="rgb(227,219,217)" stroke-width="1" opacity="1" d="M 9.5 46 L 8.5 48 L 9.5 46 Z " /><path fill="rgb(227,219,217)" stroke="rgb(227,219,217)" stroke-width="1" opacity="1" d="M 11.5 47 L 14 47.5 L 11.5 48 L 11.5 47 Z " /><path fill="rgb(206,197,195)" stroke="rgb(206,197,195)" stroke-width="1" opacity="1" d="M 8.5 31 L 9 34.5 L 8.5 37 Q 5.8 35.8 8 34.5 L 8.5 31 Z " /><path fill="rgb(206,197,195)" stroke="rgb(206,197,195)" stroke-width="1" opacity="1" d="M 23.5 32 L 24.5 34 L 23.5 32 Z " /><path fill="rgb(206,197,195)" stroke="rgb(206,197,195)" stroke-width="1" opacity="1" d="M 3.5 34 L 6 35 L 5.5 37 L 3 35.5 L 2.5 38 L 2 35.5 L 3.5 34 Z " /><path fill="rgb(206,197,195)" stroke="rgb(206,197,195)" stroke-width="1" opacity="1" d="M 13.5 39 Q 15.8 38.3 15 40.5 L 13.5 39 Z " /><path fill="rgb(206,197,195)" stroke="rgb(206,197,195)" stroke-width="1" opacity="1" d="M 27.5 44 L 26.5 46 L 25 45.5 L 27.5 44 Z " /><path fill="rgb(230,221,221)" stroke="rgb(230,221,221)" stroke-width="1" opacity="1" d="M 10 2 L 13 2.5 L 11 3.5 L 12.5 6 L 13 4 L 15.5 5 L 16.5 3 L 15 2.5 L 17.5 2 L 20 3.5 L 18 4.5 L 20 5.5 L 18 6 L 17.5 9 L 16.5 6 L 14.5 7 Q 13 4.5 11.5 8 L 10 6.5 L 9.5 5 L 8 5.5 L 8.5 3 L 10 3.5 L 10 2 Z " /><path fill="rgb(230,221,221)" stroke="rgb(230,221,221)" stroke-width="1" opacity="1" d="M 4.5 3 Q 7.8 1.9 7 4.5 L 6 8 Q 3 9.3 4 5.5 L 3 5.5 L 2.5 9 L 2 5.5 L 4.5 3 Z " /><path fill="rgb(230,221,221)" stroke="rgb(230,221,221)" stroke-width="1" opacity="1" d="M 4.5 9 L 6 9.5 L 4.5 13 L 4 11 L 2 10.5 L 4.5 9 Z " /><path fill="rgb(230,221,221)" stroke="rgb(230,221,221)" stroke-width="1" opacity="1" d="M 16.5 10 L 19 11 L 18 14.5 L 20 15.5 L 20 17.5 L 19.5 19 Q 15.8 17 17.5 15 L 14 13.5 L 16.5 10 Z " /><path fill="rgb(230,221,221)" stroke="rgb(230,221,221)" stroke-width="1" opacity="1" d="M 5.5 17 L 6 19 L 8 19.5 L 6.5 20 L 4 19.5 L 5.5 17 Z " /><path fill="rgb(230,221,221)" stroke="rgb(230,221,221)" stroke-width="1" opacity="1" d="M 10.5 19 L 9.5 21 L 10.5 19 Z " /><path fill="rgb(230,221,221)" stroke="rgb(230,221,221)" stroke-width="1" opacity="1" d="M 3.5 22 L 7 23.5 L 3.5 25 Q 1.3 25.8 2 23.5 L 3.5 22 Z " /><path fill="rgb(230,221,221)" stroke="rgb(230,221,221)" stroke-width="1" opacity="1" d="M 4 26 L 6 26.5 L 5.5 29 Q 2.5 29.7 4 26 Z " /><path fill="rgb(230,221,221)" stroke="rgb(230,221,221)" stroke-width="1" opacity="1" d="M 24 29 L 26 29.5 L 25 32 L 22 30.5 L 24 30.5 L 24 29 Z " /><path fill="rgb(230,221,221)" stroke="rgb(230,221,221)" stroke-width="1" opacity="1" d="M 4.5 30 L 6 32.5 L 3.5 36 L 4 34.5 L 3 32.5 L 4.5 30 Z " /><path fill="rgb(230,221,221)" stroke="rgb(230,221,221)" stroke-width="1" opacity="1" d="M 25.5 33 L 28 33.5 L 25.5 34 L 25.5 33 Z " /><path fill="rgb(230,221,221)" stroke="rgb(230,221,221)" stroke-width="1" opacity="1" d="M 3.5 42 L 4 45 L 9 45.5 L 7 46 L 6.5 48 L 3 45.5 L 2 43.5 L 3.5 42 Z " /><path fill="rgb(230,221,221)" stroke="rgb(230,221,221)" stroke-width="1" opacity="1" d="M 17.5 44 L 20.5 46 L 22.5 46 L 24.5 45 L 25 48 L 16.5 47 L 14.5 48 L 14.5 47 Q 16.8 47.8 16 45.5 L 17.5 44 Z " /><path fill="rgb(230,221,221)" stroke="rgb(230,221,221)" stroke-width="1" opacity="1" d="M 11.5 45 L 14 45.5 L 11.5 46 L 11.5 45 Z " /><path fill="rgb(147,133,126)" stroke="rgb(147,133,126)" stroke-width="1" opacity="1" d="M 10.5 23 L 10 24.5 L 9.5 31 L 9 24.5 L 10.5 23 Z " /><path fill="rgb(147,133,126)" stroke="rgb(147,133,126)" stroke-width="1" opacity="1" d="M 20.5 23 L 22 27.5 L 20 32.5 L 20.5 34 L 19 31.5 L 21 26.5 L 20.5 23 Z " /><path fill="rgb(147,133,126)" stroke="rgb(147,133,126)" stroke-width="1" opacity="1" d="M 9.5 34 L 10 37 L 14.5 38 L 16 37.5 L 9.5 41 L 10 39.5 L 8.5 36 L 7 36.5 L 9.5 34 Z " /><path fill="rgb(147,133,126)" stroke="rgb(147,133,126)" stroke-width="1" opacity="1" d="M 19 37 Q 21.7 35.9 21 38.5 L 20.5 41 L 19 41 L 19 37 Z " /><path fill="rgb(147,133,126)" stroke="rgb(147,133,126)" stroke-width="1" opacity="1" d="M 3.5 41 L 8 41.5 L 3.5 42 L 3.5 41 Z " /><path fill="rgb(226,217,215)" stroke="rgb(226,217,215)" stroke-width="1" opacity="1" d="M 22.5 2 L 26 2.5 L 24 3 Q 25.3 6.3 20.5 5 L 22.5 2 Z " /><path fill="rgb(226,217,215)" stroke="rgb(226,217,215)" stroke-width="1" opacity="1" d="M 20.5 6 L 23 6.5 L 21 11.5 L 22 16 L 24 16.5 L 22 17.5 Q 22.8 15.3 20.5 16 L 20 13.5 L 21 9.5 L 20.5 6 Z " /><path fill="rgb(226,217,215)" stroke="rgb(226,217,215)" stroke-width="1" opacity="1" d="M 22 19 L 27 20.5 L 24.5 22 L 24.5 20 Q 21.9 19.2 23 22.5 Q 21 26 19 21.5 L 20.5 22 Q 23.5 22.7 22 19 Z " /><path fill="rgb(226,217,215)" stroke="rgb(226,217,215)" stroke-width="1" opacity="1" d="M 24.5 24 L 25 25.5 Q 22.7 26.8 25.5 28 Q 28.8 26.9 28 29.5 L 26.5 29 Q 20.6 31.1 22 26.5 L 24.5 24 Z " /><path fill="rgb(221,212,211)" stroke="rgb(221,212,211)" stroke-width="1" opacity="1" d="M 26.5 2 Q 29.3 1.4 28 7.5 L 28 9.5 L 28 27.5 L 25.5 28 L 23 27.5 L 25 24.5 L 22.5 26 Q 20.3 26.8 21 24.5 L 25 23 Q 26.1 20.3 23.5 21 L 23.5 20 L 25 19.5 L 21 18.5 L 24 16.5 L 22 16 L 21 11.5 L 23 6.5 L 22.5 5 L 25.5 3 L 26.5 2 Z " /><path fill="rgb(252,252,252)" stroke="rgb(252,252,252)" stroke-width="1" opacity="1" d="M 0 0 L 30 0 L 30 50 L 0 50 L 0 0 Z M 28 1 L 27 2 L 2 2 L 2 48 L 28 48 L 28 41 L 29 40 L 28 39 L 28 1 Z " /><path fill="rgb(82,19,17)" stroke="rgb(82,19,17)" stroke-width="1" opacity="1" d="M 17.5 25 L 20 25.5 L 19.5 29 L 17.5 25 Z " /><path fill="rgb(82,19,17)" stroke="rgb(82,19,17)" stroke-width="1" opacity="1" d="M 10 27 L 12 27.5 L 10.5 30 L 10 27 Z " /><path fill="rgb(82,19,17)" stroke="rgb(82,19,17)" stroke-width="1" opacity="1" d="M 15.5 29 L 16 31 L 13 30.5 L 15.5 29 Z " /><path fill="rgb(82,19,17)" stroke="rgb(82,19,17)" stroke-width="1" opacity="1" d="M 12.5 32 Q 14.8 31.3 14 33.5 L 12.5 32 Z " /><path fill="rgb(82,19,17)" stroke="rgb(82,19,17)" stroke-width="1" opacity="1" d="M 10.5 34 L 11 36.5 L 10 36.5 L 10.5 34 Z " /><path fill="rgb(82,19,17)" stroke="rgb(82,19,17)" stroke-width="1" opacity="1" d="M 16.5 34 L 18.5 37 L 16.5 34 Z " /><path fill="rgb(25,12,15)" stroke="rgb(25,12,15)" stroke-width="1" opacity="1" d="M 16.5 22 L 20 23 L 19.5 25 L 15 23.5 L 16.5 22 Z " /><path fill="rgb(25,12,15)" stroke="rgb(25,12,15)" stroke-width="1" opacity="1" d="M 11.5 23 L 13 23.5 L 10.5 27 L 10 24.5 L 11.5 23 Z " /><path fill="rgb(25,12,15)" stroke="rgb(25,12,15)" stroke-width="1" opacity="1" d="M 19.5 29 L 20 30.5 L 19 32.5 L 21 36.5 L 19.5 37 Q 18.2 33.3 14 34 Q 15.3 30.3 9.5 32 L 10.5 30 L 17.5 31 L 19.5 29 Z " /><path fill="rgb(229,220,219)" stroke="rgb(229,220,219)" stroke-width="1" opacity="1" d="M 21.5 2 L 20.5 4 L 21.5 2 Z " /><path fill="rgb(229,220,219)" stroke="rgb(229,220,219)" stroke-width="1" opacity="1" d="M 11.5 3 L 12.5 5 L 11.5 3 Z " /><path fill="rgb(229,220,219)" stroke="rgb(229,220,219)" stroke-width="1" opacity="1" d="M 18.5 6 L 20 9.5 L 18 9.5 L 17.5 11 L 17 9.5 L 18.5 6 Z " /><path fill="rgb(229,220,219)" stroke="rgb(229,220,219)" stroke-width="1" opacity="1" d="M 17.5 17 L 21 19.5 L 19 20.5 L 18.5 19 L 17 19.5 L 17.5 17 Z " /><path fill="rgb(229,220,219)" stroke="rgb(229,220,219)" stroke-width="1" opacity="1" d="M 21.5 28 L 23 31.5 L 20.5 33 L 20.5 32 L 22 31.5 L 21.5 28 Z " /><path fill="rgb(229,220,219)" stroke="rgb(229,220,219)" stroke-width="1" opacity="1" d="M 25.5 31 L 28 31.5 Q 25.9 34.8 25.5 31 Z " /><path fill="rgb(229,220,219)" stroke="rgb(229,220,219)" stroke-width="1" opacity="1" d="M 4.5 42 Q 7.5 43.5 4.5 45 L 4.5 42 Z " /><path fill="rgb(229,220,219)" stroke="rgb(229,220,219)" stroke-width="1" opacity="1" d="M 14 44 L 17 44.5 L 16 46.5 L 16.5 48 L 11.5 47 L 9.5 48 L 7 47.5 Q 6.3 45.3 8.5 46 L 10.5 45 L 14 46 L 14 44 Z " /><path fill="rgb(135,105,39)" stroke="rgb(135,105,39)" stroke-width="1" opacity="1" d="M 13 15 L 16 15.5 L 13 17 L 13 15 Z " /><path fill="rgb(135,105,39)" stroke="rgb(135,105,39)" stroke-width="1" opacity="1" d="M 13.5 18 L 16 18.5 L 14.5 21 L 12 20.5 L 13.5 18 Z " /><path fill="rgb(135,105,39)" stroke="rgb(135,105,39)" stroke-width="1" opacity="1" d="M 15.5 22 L 13.5 25 L 12 24.5 L 15.5 22 Z " /><path fill="rgb(135,105,39)" stroke="rgb(135,105,39)" stroke-width="1" opacity="1" d="M 16.5 25 L 19 28.5 L 17 28.5 L 16.5 30 L 16 28.5 L 17 26.5 L 16.5 25 Z " /><path fill="rgb(135,105,39)" stroke="rgb(135,105,39)" stroke-width="1" opacity="1" d="M 21.5 36 L 23.5 39 L 21 38.5 L 21.5 36 Z " /><path fill="rgb(135,105,39)" stroke="rgb(135,105,39)" stroke-width="1" opacity="1" d="M 5.5 37 L 4.5 39 L 5.5 37 Z " /><path fill="rgb(135,105,39)" stroke="rgb(135,105,39)" stroke-width="1" opacity="1" d="M 12.5 39 L 9.5 43 L 8 42.5 L 8.5 40 L 10.5 41 L 12.5 39 Z " /><path fill="rgb(135,105,39)" stroke="rgb(135,105,39)" stroke-width="1" opacity="1" d="M 18.5 39 L 18.5 41 L 20 41.5 L 16.5 44 L 17 42.5 L 18.5 39 Z " /><path fill="rgb(135,105,39)" stroke="rgb(135,105,39)" stroke-width="1" opacity="1" d="M 2.5 40 L 7 40.5 L 2.5 41 L 2.5 40 Z " /><path fill="rgb(135,105,39)" stroke="rgb(135,105,39)" stroke-width="1" opacity="1" d="M 22.5 40 L 21.5 42 L 22.5 40 Z " /><path fill="rgb(185,31,33)" stroke="rgb(185,31,33)" stroke-width="1" opacity="1" d="M 16.5 24 Q 19.8 22.9 19 25.5 L 17.5 25 L 16.5 24 Z " /><path fill="rgb(185,31,33)" stroke="rgb(185,31,33)" stroke-width="1" opacity="1" d="M 11.5 28 L 15 29.5 L 11 30 L 11.5 28 Z " /><path fill="rgb(185,31,33)" stroke="rgb(185,31,33)" stroke-width="1" opacity="1" d="M 10 32 L 18 36.5 L 11 37 L 10 32 Z " /><path fill="rgb(185,31,33)" stroke="rgb(185,31,33)" stroke-width="1" opacity="1" d="M 12.5 40 L 11.5 42 L 12.5 40 Z " /><path fill="rgb(89,64,46)" stroke="rgb(89,64,46)" stroke-width="1" opacity="1" d="M 12.5 21 L 15 21.5 L 12.5 22 L 12.5 21 Z " /><path fill="rgb(89,64,46)" stroke="rgb(89,64,46)" stroke-width="1" opacity="1" d="M 11.5 25 L 16 26.5 L 11 27 L 11.5 25 Z " /><path fill="rgb(89,64,46)" stroke="rgb(89,64,46)" stroke-width="1" opacity="1" d="M 20.5 34 L 22.5 37 L 20.5 34 Z " /><path fill="rgb(89,64,46)" stroke="rgb(89,64,46)" stroke-width="1" opacity="1" d="M 6.5 35 L 8 39.5 L 6 40 L 6.5 35 Z " /><path fill="rgb(89,64,46)" stroke="rgb(89,64,46)" stroke-width="1" opacity="1" d="M 12.5 37 L 16 38.5 L 14.5 38 Q 11.5 38.5 12.5 37 Z " /><path fill="rgb(89,64,46)" stroke="rgb(89,64,46)" stroke-width="1" opacity="1" d="M 20.5 39 L 23 40.5 L 23.5 39 L 24 41 L 28 39 Q 29.8 44.3 22.5 42 L 20.5 39 Z " /><path fill="rgb(89,64,46)" stroke="rgb(89,64,46)" stroke-width="1" opacity="1" d="M 26.5 43 L 27 45 L 25 44.5 L 26.5 43 Z " /><path fill="rgb(206,182,95)" stroke="rgb(206,182,95)" stroke-width="1" opacity="1" d="M 12.5 15 L 13 17 L 15.5 16 L 16 17.5 Q 14.8 20.3 13.5 18 Q 10.4 18.7 12.5 15 Z " /><path fill="rgb(206,182,95)" stroke="rgb(206,182,95)" stroke-width="1" opacity="1" d="M 12.5 25 Q 16.3 24.3 17 26.5 L 18 29.5 L 17 29.5 L 16.5 28 L 13 29 L 13.5 27 Q 14.8 29.3 16 26.5 Q 11.6 26.9 12.5 25 Z " /><path fill="rgb(206,182,95)" stroke="rgb(206,182,95)" stroke-width="1" opacity="1" d="M 23 34 Q 27.5 32.3 26 37.5 L 26 39.5 Q 26.7 42.1 24 41 L 23.5 38 L 22 38.5 L 23 34 Z " /><path fill="rgb(206,182,95)" stroke="rgb(206,182,95)" stroke-width="1" opacity="1" d="M 3.5 38 L 4.5 40 L 2 39.5 L 3.5 38 Z " /><path fill="rgb(206,182,95)" stroke="rgb(206,182,95)" stroke-width="1" opacity="1" d="M 15.5 39 L 17 43 Q 20.7 44.5 20 41.5 L 21 41.5 L 19.5 44 L 13 42 L 13 44 L 7 44 L 8.5 41 L 8.5 43 L 15 41 L 15.5 39 Z " /></svg>