<svg width="30" height="50" version="1.1" xmlns="http://www.w3.org/2000/svg" desc="Created with imagetracer.js version 1.2.6" ><path fill="rgb(236,108,38)" stroke="rgb(236,108,38)" stroke-width="1" opacity="1" d="M 2 2 Q 4.4 3.7 10.5 3 Q 12 0.5 13.5 4 L 17.5 2 L 19 6 L 10.5 5 L 6.5 5 Q 3.9 4.2 5 7.5 L 7 13 L 3 15.5 L 3.5 17 L 5 16.5 L 4.5 19 L 2 18.5 L 2 6.5 L 3 5.5 L 2 2 Z " /><path fill="rgb(236,108,38)" stroke="rgb(236,108,38)" stroke-width="1" opacity="1" d="M 20.5 4 L 21.5 6 Q 18.7 6.7 20.5 4 Z " /><path fill="rgb(236,108,38)" stroke="rgb(236,108,38)" stroke-width="1" opacity="1" d="M 6.5 16 L 7 19.5 L 6 19.5 L 6.5 16 Z " /><path fill="rgb(87,74,69)" stroke="rgb(87,74,69)" stroke-width="1" opacity="1" d="M 9.5 8 L 12 8.5 L 9.5 9 L 9.5 8 Z " /><path fill="rgb(87,74,69)" stroke="rgb(87,74,69)" stroke-width="1" opacity="1" d="M 8.5 11 L 10 13.5 L 8 12.5 L 8.5 11 Z " /><path fill="rgb(87,74,69)" stroke="rgb(87,74,69)" stroke-width="1" opacity="1" d="M 7.5 20 L 8.5 22 L 10 21.5 L 9 22.5 L 10.5 25 Q 8.2 20.7 6 22.5 L 7.5 20 Z " /><path fill="rgb(87,74,69)" stroke="rgb(87,74,69)" stroke-width="1" opacity="1" d="M 3.5 21 L 4.5 23 L 3.5 21 Z " /><path fill="rgb(87,74,69)" stroke="rgb(87,74,69)" stroke-width="1" opacity="1" d="M 7.5 24 L 7 25.5 L 6.5 27 L 5.5 25 L 7.5 24 Z " /><path fill="rgb(87,74,69)" stroke="rgb(87,74,69)" stroke-width="1" opacity="1" d="M 5.5 28 L 10 30 Q 11 33 8 32 Q 9.1 29.3 6.5 30 L 5.5 28 Z " /><path fill="rgb(87,74,69)" stroke="rgb(87,74,69)" stroke-width="1" opacity="1" d="M 22 28 L 24 28.5 L 22 29.5 L 22 28 Z " /><path fill="rgb(87,74,69)" stroke="rgb(87,74,69)" stroke-width="1" opacity="1" d="M 4.5 30 L 5 32 L 3 31.5 L 4.5 30 Z " /><path fill="rgb(87,74,69)" stroke="rgb(87,74,69)" stroke-width="1" opacity="1" d="M 21.5 31 L 22.5 33 Q 20.3 32.3 21 34.5 L 19 35.5 L 21.5 31 Z " /><path fill="rgb(87,74,69)" stroke="rgb(87,74,69)" stroke-width="1" opacity="1" d="M 2 36 L 4 36.5 L 4 38.5 L 3.5 40 L 2 36 Z " /><path fill="rgb(87,74,69)" stroke="rgb(87,74,69)" stroke-width="1" opacity="1" d="M 12.5 36 L 14.5 37 L 16 36.5 L 13.5 38 L 12.5 36 Z " /><path fill="rgb(87,74,69)" stroke="rgb(87,74,69)" stroke-width="1" opacity="1" d="M 19.5 37 L 21 39.5 L 19 38.5 L 19.5 37 Z " /><path fill="rgb(87,74,69)" stroke="rgb(87,74,69)" stroke-width="1" opacity="1" d="M 22.5 38 L 23 40.5 L 22 40.5 L 22.5 38 Z " /><path fill="rgb(87,74,69)" stroke="rgb(87,74,69)" stroke-width="1" opacity="1" d="M 4.5 42 L 17 42.5 L 4.5 43 L 3.5 44 L 4.5 42 Z " /><path fill="rgb(87,74,69)" stroke="rgb(87,74,69)" stroke-width="1" opacity="1" d="M 20 42 L 28 42.5 Q 26.8 45.3 25.5 43 L 20.5 44 L 20 42 Z " /><path fill="rgb(189,182,183)" stroke="rgb(189,182,183)" stroke-width="1" opacity="1" d="M 11.5 10 L 12 11.5 L 11.5 14 Q 8.7 12.8 11 11.5 L 11.5 10 Z " /><path fill="rgb(189,182,183)" stroke="rgb(189,182,183)" stroke-width="1" opacity="1" d="M 21.5 29 L 20.5 31 L 21.5 29 Z " /><path fill="rgb(189,182,183)" stroke="rgb(189,182,183)" stroke-width="1" opacity="1" d="M 5.5 38 L 6.5 40 L 4 39.5 L 5.5 38 Z " /><path fill="rgb(189,182,183)" stroke="rgb(189,182,183)" stroke-width="1" opacity="1" d="M 14.5 39 L 16 39.5 L 14 40 L 13.5 42 L 13 40.5 L 14.5 39 Z " /><path fill="rgb(189,182,183)" stroke="rgb(189,182,183)" stroke-width="1" opacity="1" d="M 23.5 43 L 26 44.5 Q 24.5 47.5 23 44.5 L 23.5 43 Z " /><path fill="rgb(238,141,58)" stroke="rgb(238,141,58)" stroke-width="1" opacity="1" d="M 4.5 2 L 11 2.5 L 4.5 3 L 4.5 2 Z " /><path fill="rgb(238,141,58)" stroke="rgb(238,141,58)" stroke-width="1" opacity="1" d="M 12.5 2 L 17 2.5 L 13.5 4 L 12.5 2 Z " /><path fill="rgb(238,141,58)" stroke="rgb(238,141,58)" stroke-width="1" opacity="1" d="M 18.5 2 L 28 2 L 28 6.5 L 28 8.5 Q 29.8 15.3 26.5 17 L 25.5 15 L 24 15.5 L 25 12.5 L 23 11.5 L 24 9 L 26 8.5 L 25 6.5 L 25.5 5 L 20.5 4 L 19.5 6 L 18.5 2 Z " /><path fill="rgb(238,141,58)" stroke="rgb(238,141,58)" stroke-width="1" opacity="1" d="M 10.5 5 L 13 5.5 L 10.5 6 L 10.5 5 Z " /><path fill="rgb(238,141,58)" stroke="rgb(238,141,58)" stroke-width="1" opacity="1" d="M 26.5 18 L 28 20.5 L 27 20.5 L 26.5 18 Z " /><path fill="rgb(238,141,58)" stroke="rgb(238,141,58)" stroke-width="1" opacity="1" d="M 23.5 19 L 26 20 L 27 24.5 L 25 25.5 L 23.5 19 Z " /><path fill="rgb(146,105,45)" stroke="rgb(146,105,45)" stroke-width="1" opacity="1" d="M 13.5 9 Q 17.3 7.8 16 11.5 L 15 11.5 L 14.5 10 L 12.5 11 L 13.5 9 Z " /><path fill="rgb(146,105,45)" stroke="rgb(146,105,45)" stroke-width="1" opacity="1" d="M 24.5 16 L 26 16.5 L 24 17.5 L 24.5 19 Q 21.5 17.5 24.5 16 Z " /><path fill="rgb(146,105,45)" stroke="rgb(146,105,45)" stroke-width="1" opacity="1" d="M 3.5 18 Q 6.5 19.5 3.5 21 Q 0.5 19.5 3.5 18 Z " /><path fill="rgb(146,105,45)" stroke="rgb(146,105,45)" stroke-width="1" opacity="1" d="M 2 22 Q 5 20.8 4 24.5 L 2 23.5 L 2 22 Z " /><path fill="rgb(146,105,45)" stroke="rgb(146,105,45)" stroke-width="1" opacity="1" d="M 3.5 30 L 4 32.5 L 3.5 34 L 2 31.5 L 3.5 30 Z " /><path fill="rgb(146,105,45)" stroke="rgb(146,105,45)" stroke-width="1" opacity="1" d="M 27.5 36 L 28 37.5 L 26 38.5 L 27.5 36 Z " /><path fill="rgb(146,105,45)" stroke="rgb(146,105,45)" stroke-width="1" opacity="1" d="M 3.5 37 L 2.5 39 L 3.5 37 Z " /><path fill="rgb(72,25,28)" stroke="rgb(72,25,28)" stroke-width="1" opacity="1" d="M 10.5 14 L 13 15.5 L 14 19.5 L 13 22 Q 17.1 20.7 16 24 Q 11.5 23.2 9.5 26 L 9.5 25 Q 12.1 25.7 11 23 L 8.5 24 L 8.5 20 L 7 19.5 L 12 16.5 L 9 15.5 L 10.5 14 Z " /><path fill="rgb(72,25,28)" stroke="rgb(72,25,28)" stroke-width="1" opacity="1" d="M 17 14 L 19 14.5 L 18.5 16 L 20.5 15 L 22 20 Q 18.2 20.8 17 17.5 L 17 14 Z " /><path fill="rgb(72,25,28)" stroke="rgb(72,25,28)" stroke-width="1" opacity="1" d="M 16.5 20 L 22 21.5 L 18.5 22 L 16.5 20 Z " /><path fill="rgb(72,25,28)" stroke="rgb(72,25,28)" stroke-width="1" opacity="1" d="M 17 23 L 22 23 L 22 26.5 L 19.5 25 L 16.5 26 L 17 24.5 L 17 23 Z " /><path fill="rgb(72,25,28)" stroke="rgb(72,25,28)" stroke-width="1" opacity="1" d="M 9.5 32 L 10 35 L 14.5 34 L 13.5 36 L 12 36.5 L 13 39 L 9.5 40 L 9.5 32 Z " /><path fill="rgb(72,25,28)" stroke="rgb(72,25,28)" stroke-width="1" opacity="1" d="M 20 35 Q 23.7 33.6 22 39.5 L 20 38.5 L 20 35 Z " /><path fill="rgb(72,25,28)" stroke="rgb(72,25,28)" stroke-width="1" opacity="1" d="M 16.5 36 L 17 38 L 15 37.5 L 16.5 36 Z " /><path fill="rgb(148,29,29)" stroke="rgb(148,29,29)" stroke-width="1" opacity="1" d="M 8 16 L 12 16.5 L 8 18 L 8 16 Z " /><path fill="rgb(148,29,29)" stroke="rgb(148,29,29)" stroke-width="1" opacity="1" d="M 11.5 19 L 18 21 L 18.5 19 L 19 20.5 L 18.5 22 L 20 22.5 L 18.5 23 L 17 22.5 L 16 25.5 L 17.5 26 L 19.5 25 L 22 29 L 19.5 30 L 19 27 L 11.5 26 L 10 26.5 Q 11.3 23 16 24 L 15.5 21 L 13 22 Q 14.1 19.3 11.5 20 L 11.5 19 Z " /><path fill="rgb(148,29,29)" stroke="rgb(148,29,29)" stroke-width="1" opacity="1" d="M 22.5 19 L 22.5 21 L 24 21.5 L 21.5 23 L 21 20.5 L 22.5 19 Z " /><path fill="rgb(148,29,29)" stroke="rgb(148,29,29)" stroke-width="1" opacity="1" d="M 13.5 28 L 18 29.5 L 15.5 30 L 13.5 28 Z " /><path fill="rgb(148,29,29)" stroke="rgb(148,29,29)" stroke-width="1" opacity="1" d="M 13.5 30 L 14 33 L 17.5 31 L 18.5 33 Q 17.3 30.7 16 33.5 L 16.5 35 L 14.5 36 L 14.5 34 L 10.5 35 L 10 32 L 12.5 33 L 13.5 30 Z " /><path fill="rgb(148,29,29)" stroke="rgb(148,29,29)" stroke-width="1" opacity="1" d="M 27.5 33 L 28 35.5 L 27 35.5 L 27.5 33 Z " /><path fill="rgb(222,177,86)" stroke="rgb(222,177,86)" stroke-width="1" opacity="1" d="M 13.5 8 L 17 9.5 L 15.5 9 L 12.5 10 L 13.5 8 Z " /><path fill="rgb(222,177,86)" stroke="rgb(222,177,86)" stroke-width="1" opacity="1" d="M 14.5 10 L 15 12 L 13 11.5 L 14.5 10 Z " /><path fill="rgb(222,177,86)" stroke="rgb(222,177,86)" stroke-width="1" opacity="1" d="M 23 12 L 25 12.5 L 23.5 17 L 23 12 Z " /><path fill="rgb(222,177,86)" stroke="rgb(222,177,86)" stroke-width="1" opacity="1" d="M 4.5 14 L 7 15.5 L 6 22 Q 3.3 23.1 4 20.5 L 5 16.5 L 4.5 14 Z " /><path fill="rgb(222,177,86)" stroke="rgb(222,177,86)" stroke-width="1" opacity="1" d="M 27.5 16 L 28 18.5 L 26 18.5 L 27 23.5 L 26 23.5 Q 27.5 19.1 24.5 20 L 23.5 18 L 24.5 19 L 27.5 16 Z " /><path fill="rgb(222,177,86)" stroke="rgb(222,177,86)" stroke-width="1" opacity="1" d="M 4 23 Q 6.7 21.9 6 24.5 L 4 27.5 L 5 30 Q 0.9 31.7 2 27.5 L 4 23 Z " /><path fill="rgb(222,177,86)" stroke="rgb(222,177,86)" stroke-width="1" opacity="1" d="M 22 23 L 25 23.5 L 22.5 25 L 22 23 Z " /><path fill="rgb(222,177,86)" stroke="rgb(222,177,86)" stroke-width="1" opacity="1" d="M 27.5 27 L 28 29.5 L 26.5 32 L 26 28.5 L 27.5 27 Z " /><path fill="rgb(222,177,86)" stroke="rgb(222,177,86)" stroke-width="1" opacity="1" d="M 4.5 33 L 5 38.5 L 4 38.5 L 4.5 33 Z " /><path fill="rgb(222,177,86)" stroke="rgb(222,177,86)" stroke-width="1" opacity="1" d="M 26.5 33 L 27 36.5 L 26 36.5 L 26.5 33 Z " /><path fill="rgb(222,177,86)" stroke="rgb(222,177,86)" stroke-width="1" opacity="1" d="M 3.5 40 L 5 40.5 L 2.5 42 L 3.5 40 Z " /><path fill="rgb(125,117,119)" stroke="rgb(125,117,119)" stroke-width="1" opacity="1" d="M 19.5 8 L 20.5 10 L 19.5 8 Z " /><path fill="rgb(125,117,119)" stroke="rgb(125,117,119)" stroke-width="1" opacity="1" d="M 9.5 9 L 10 11.5 L 9 11.5 L 9.5 9 Z " /><path fill="rgb(125,117,119)" stroke="rgb(125,117,119)" stroke-width="1" opacity="1" d="M 9.5 14 L 8.5 16 L 9.5 14 Z " /><path fill="rgb(125,117,119)" stroke="rgb(125,117,119)" stroke-width="1" opacity="1" d="M 14.5 14 L 14 15.5 L 15 18.5 L 13 17.5 L 14.5 14 Z " /><path fill="rgb(125,117,119)" stroke="rgb(125,117,119)" stroke-width="1" opacity="1" d="M 7.5 22 L 9 24.5 L 7 25.5 L 7.5 24 L 6 23.5 L 7.5 22 Z " /><path fill="rgb(125,117,119)" stroke="rgb(125,117,119)" stroke-width="1" opacity="1" d="M 23 26 L 25 26.5 L 23 27.5 L 23 26 Z " /><path fill="rgb(125,117,119)" stroke="rgb(125,117,119)" stroke-width="1" opacity="1" d="M 20.5 29 L 23 30.5 L 21.5 31 L 20.5 29 Z " /><path fill="rgb(125,117,119)" stroke="rgb(125,117,119)" stroke-width="1" opacity="1" d="M 5 30 L 7 30.5 L 5 31.5 L 5 30 Z " /><path fill="rgb(125,117,119)" stroke="rgb(125,117,119)" stroke-width="1" opacity="1" d="M 8.5 34 L 9 39.5 L 8 39.5 L 8.5 34 Z " /><path fill="rgb(125,117,119)" stroke="rgb(125,117,119)" stroke-width="1" opacity="1" d="M 17.5 42 Q 21.3 40.8 20 44.5 L 19 44.5 Q 19.8 42.3 17.5 43 L 17.5 42 Z " /><path fill="rgb(125,117,119)" stroke="rgb(125,117,119)" stroke-width="1" opacity="1" d="M 6.5 43 L 9 43.5 L 6.5 44 L 6.5 43 Z " /><path fill="rgb(192,34,22)" stroke="rgb(192,34,22)" stroke-width="1" opacity="1" d="M 17.5 18 L 18 20 L 16 19.5 L 17.5 18 Z " /><path fill="rgb(192,34,22)" stroke="rgb(192,34,22)" stroke-width="1" opacity="1" d="M 11.5 26 L 13.5 26 L 16 26.5 L 13 28.5 L 15 29 Q 13.9 31.7 16.5 31 L 18 34 L 14 32.5 Q 16.3 31.3 13.5 30 L 12.5 33 L 10 31.5 L 10 27.5 L 11.5 26 Z " /><path fill="rgb(192,34,22)" stroke="rgb(192,34,22)" stroke-width="1" opacity="1" d="M 17.5 27 Q 20.1 26.2 19 29.5 L 17.5 29 L 16 28.5 L 17.5 27 Z " /><path fill="rgb(238,59,22)" stroke="rgb(238,59,22)" stroke-width="1" opacity="1" d="M 12.5 26 L 11.5 28 L 12.5 26 Z " /><path fill="rgb(238,59,22)" stroke="rgb(238,59,22)" stroke-width="1" opacity="1" d="M 14.5 27 L 17 27.5 L 14.5 28 L 14.5 27 Z " /><path fill="rgb(238,59,22)" stroke="rgb(238,59,22)" stroke-width="1" opacity="1" d="M 15.5 30 L 19 30.5 L 15.5 31 L 15.5 30 Z " /><path fill="rgb(211,202,202)" stroke="rgb(211,202,202)" stroke-width="1" opacity="1" d="M 9.5 6 Q 12.1 5.3 11 8 Q 7.3 6.5 8 9.5 L 7 9.5 L 9.5 6 Z " /><path fill="rgb(211,202,202)" stroke="rgb(211,202,202)" stroke-width="1" opacity="1" d="M 25.5 26 L 24.5 28 L 25.5 26 Z " /><path fill="rgb(211,202,202)" stroke="rgb(211,202,202)" stroke-width="1" opacity="1" d="M 6.5 32 Q 9.3 33.3 7 34.5 L 6.5 37 L 6.5 32 Z " /><path fill="rgb(211,202,202)" stroke="rgb(211,202,202)" stroke-width="1" opacity="1" d="M 6.5 40 Q 9.1 39.3 8 42 L 5 41.5 L 6.5 40 Z " /><path fill="rgb(211,202,202)" stroke="rgb(211,202,202)" stroke-width="1" opacity="1" d="M 13.5 43 L 15.5 44 L 17 43.5 L 13.5 46 Q 10.5 44.5 13.5 43 Z " /><path fill="rgb(211,202,202)" stroke="rgb(211,202,202)" stroke-width="1" opacity="1" d="M 6.5 45 L 6.5 48 Q 3.5 46.5 6.5 45 Z " /><path fill="rgb(223,215,214)" stroke="rgb(223,215,214)" stroke-width="1" opacity="1" d="M 11 6 L 19.5 7 L 23 6 L 23.5 8 L 25 7.5 L 22 10.5 L 22 12.5 L 21.5 15 L 18 14 L 19 10.5 L 17 9.5 L 19.5 9 L 22 10 L 22 8 L 11.5 8 L 11 6 Z " /><path fill="rgb(223,215,214)" stroke="rgb(223,215,214)" stroke-width="1" opacity="1" d="M 10.5 11 Q 13.5 12.5 10.5 14 L 10.5 11 Z " /><path fill="rgb(223,215,214)" stroke="rgb(223,215,214)" stroke-width="1" opacity="1" d="M 24.5 31 L 26 34.5 Q 23.8 35.8 25 40.5 L 25.5 42 L 22 41.5 L 24 41 L 23 36.5 L 23 34.5 L 24.5 31 Z " /><path fill="rgb(223,215,214)" stroke="rgb(223,215,214)" stroke-width="1" opacity="1" d="M 11.5 39 L 13 41.5 L 8.5 42 L 9.5 40 L 11.5 39 Z " /><path fill="rgb(223,215,214)" stroke="rgb(223,215,214)" stroke-width="1" opacity="1" d="M 16.5 39 L 18.5 42 Q 14.1 43.1 16.5 39 Z " /><path fill="rgb(223,215,214)" stroke="rgb(223,215,214)" stroke-width="1" opacity="1" d="M 2.5 45 L 4 47.5 L 2 48 L 2.5 45 Z " /><path fill="rgb(223,215,214)" stroke="rgb(223,215,214)" stroke-width="1" opacity="1" d="M 9 45 L 11 45.5 L 10.5 48 Q 7.5 48.7 9 45 Z " /><path fill="rgb(223,215,214)" stroke="rgb(223,215,214)" stroke-width="1" opacity="1" d="M 25.5 45 L 27 47.5 L 25 48 L 25.5 45 Z " /><path fill="rgb(223,215,214)" stroke="rgb(223,215,214)" stroke-width="1" opacity="1" d="M 16.5 47 L 21 47.5 L 16.5 48 L 16.5 47 Z " /><path fill="rgb(205,195,195)" stroke="rgb(205,195,195)" stroke-width="1" opacity="1" d="M 5.5 27 L 8 27.5 L 5.5 28 L 5.5 27 Z " /><path fill="rgb(205,195,195)" stroke="rgb(205,195,195)" stroke-width="1" opacity="1" d="M 7.5 34 L 9 40.5 L 7 39.5 L 7.5 34 Z " /><path fill="rgb(205,195,195)" stroke="rgb(205,195,195)" stroke-width="1" opacity="1" d="M 20.5 40 L 21.5 42 L 19 41.5 L 20.5 40 Z " /><path fill="rgb(205,195,195)" stroke="rgb(205,195,195)" stroke-width="1" opacity="1" d="M 10.5 43 L 11.5 45 L 8.5 46 L 10.5 43 Z " /><path fill="rgb(205,195,195)" stroke="rgb(205,195,195)" stroke-width="1" opacity="1" d="M 17.5 43 L 18 44.5 L 16 45.5 L 17.5 43 Z " /><path fill="rgb(165,158,157)" stroke="rgb(165,158,157)" stroke-width="1" opacity="1" d="M 8.5 8 L 9 10.5 L 8 10.5 L 8.5 8 Z " /><path fill="rgb(165,158,157)" stroke="rgb(165,158,157)" stroke-width="1" opacity="1" d="M 16.5 11 L 18 13.5 L 17 13.5 L 16.5 11 Z " /><path fill="rgb(165,158,157)" stroke="rgb(165,158,157)" stroke-width="1" opacity="1" d="M 14.5 12 L 15.5 14 Q 12.7 14.7 14.5 12 Z " /><path fill="rgb(165,158,157)" stroke="rgb(165,158,157)" stroke-width="1" opacity="1" d="M 21.5 16 L 22.5 18 L 21.5 16 Z " /><path fill="rgb(165,158,157)" stroke="rgb(165,158,157)" stroke-width="1" opacity="1" d="M 9.5 24 L 7.5 27 L 9.5 24 Z " /><path fill="rgb(165,158,157)" stroke="rgb(165,158,157)" stroke-width="1" opacity="1" d="M 24.5 28 L 24 29.5 L 23.5 31 L 23 29.5 L 24.5 28 Z " /><path fill="rgb(165,158,157)" stroke="rgb(165,158,157)" stroke-width="1" opacity="1" d="M 7.5 30 L 5.5 33 L 4 32.5 L 7.5 30 Z " /><path fill="rgb(165,158,157)" stroke="rgb(165,158,157)" stroke-width="1" opacity="1" d="M 19.5 30 Q 22.5 31.5 19.5 33 L 19.5 30 Z " /><path fill="rgb(165,158,157)" stroke="rgb(165,158,157)" stroke-width="1" opacity="1" d="M 17.5 37 Q 19.8 36.3 19 38.5 L 21 41.5 L 19 40.5 L 18.5 39 L 17 39.5 L 17.5 37 Z " /><path fill="rgb(165,158,157)" stroke="rgb(165,158,157)" stroke-width="1" opacity="1" d="M 5.5 40 L 4.5 42 L 3 41.5 L 5.5 40 Z " /><path fill="rgb(165,158,157)" stroke="rgb(165,158,157)" stroke-width="1" opacity="1" d="M 14.5 40 Q 16.8 39.3 16 41.5 L 14.5 40 Z " /><path fill="rgb(165,158,157)" stroke="rgb(165,158,157)" stroke-width="1" opacity="1" d="M 2.5 44 Q 4.8 43.3 4 45.5 L 2.5 44 Z " /><path fill="rgb(165,158,157)" stroke="rgb(165,158,157)" stroke-width="1" opacity="1" d="M 12.5 45 L 13 47.5 L 11 46.5 L 12.5 45 Z " /><path fill="rgb(165,158,157)" stroke="rgb(165,158,157)" stroke-width="1" opacity="1" d="M 15.5 45 L 16.5 47 L 15.5 45 Z " /><path fill="rgb(251,249,248)" stroke="rgb(251,249,248)" stroke-width="1" opacity="1" d="M 0 0 L 30 0 L 30 50 L 0 50 L 0 0 Z M 2 2 L 2 48 L 21 48 L 23 48 L 24 45 L 24 47 L 27 48 L 26 47 Q 25 44 28 45 L 28 2 L 2 2 Z " /><path fill="rgb(251,249,248)" stroke="rgb(251,249,248)" stroke-width="1" opacity="1" d="M 22.5 12 L 23 14.5 L 22 14.5 L 22.5 12 Z " /></svg>