<svg width="30" height="50" version="1.1" xmlns="http://www.w3.org/2000/svg" desc="Created with imagetracer.js version 1.2.6" ><path fill="rgb(48,37,39)" stroke="rgb(48,37,39)" stroke-width="1" opacity="1" d="M 24.5 4 L 25 6.5 L 24 6.5 L 24.5 4 Z " /><path fill="rgb(48,37,39)" stroke="rgb(48,37,39)" stroke-width="1" opacity="1" d="M 26.5 4 L 27.5 6 L 26.5 4 Z " /><path fill="rgb(48,37,39)" stroke="rgb(48,37,39)" stroke-width="1" opacity="1" d="M 4.5 8 L 5 11 L 2 9.5 L 4 9.5 L 4.5 8 Z " /><path fill="rgb(48,37,39)" stroke="rgb(48,37,39)" stroke-width="1" opacity="1" d="M 12.5 8 L 16 8.5 L 12.5 9 L 12.5 8 Z " /><path fill="rgb(48,37,39)" stroke="rgb(48,37,39)" stroke-width="1" opacity="1" d="M 6.5 9 L 7 11.5 L 6 11.5 L 6.5 9 Z " /><path fill="rgb(48,37,39)" stroke="rgb(48,37,39)" stroke-width="1" opacity="1" d="M 24.5 9 L 27 10.5 L 25 11.5 L 25.5 10 L 24.5 9 Z " /><path fill="rgb(48,37,39)" stroke="rgb(48,37,39)" stroke-width="1" opacity="1" d="M 3.5 12 L 2.5 14 L 3.5 12 Z " /><path fill="rgb(48,37,39)" stroke="rgb(48,37,39)" stroke-width="1" opacity="1" d="M 5.5 13 L 6.5 15 Q 3.7 15.7 5.5 13 Z " /><path fill="rgb(48,37,39)" stroke="rgb(48,37,39)" stroke-width="1" opacity="1" d="M 26.5 15 L 26.5 17 L 28 17.5 L 24.5 20 L 25 18.5 L 26.5 15 Z " /><path fill="rgb(48,37,39)" stroke="rgb(48,37,39)" stroke-width="1" opacity="1" d="M 4.5 16 L 4.5 19 Q 1.5 17.5 4.5 16 Z " /><path fill="rgb(48,37,39)" stroke="rgb(48,37,39)" stroke-width="1" opacity="1" d="M 26.5 22 L 27 25.5 L 24 23.5 L 26 23.5 L 26.5 22 Z " /><path fill="rgb(48,37,39)" stroke="rgb(48,37,39)" stroke-width="1" opacity="1" d="M 25.5 28 L 28 29.5 L 25.5 34 L 24 31.5 L 26 31 L 25.5 28 Z " /><path fill="rgb(48,37,39)" stroke="rgb(48,37,39)" stroke-width="1" opacity="1" d="M 3.5 29 Q 6.5 30.5 3.5 32 L 3.5 29 Z " /><path fill="rgb(48,37,39)" stroke="rgb(48,37,39)" stroke-width="1" opacity="1" d="M 14.5 31 L 16 31.5 L 13.5 33 L 14.5 31 Z " /><path fill="rgb(48,37,39)" stroke="rgb(48,37,39)" stroke-width="1" opacity="1" d="M 27.5 34 L 28 38.5 L 26 37.5 L 27.5 34 Z " /><path fill="rgb(48,37,39)" stroke="rgb(48,37,39)" stroke-width="1" opacity="1" d="M 22.5 35 L 25 36 L 24.5 38 L 22 37 L 22.5 35 Z " /><path fill="rgb(152,147,51)" stroke="rgb(152,147,51)" stroke-width="1" opacity="1" d="M 12.5 2 L 14.5 3 L 16 2.5 L 13 4.5 L 12.5 2 Z " /><path fill="rgb(152,147,51)" stroke="rgb(152,147,51)" stroke-width="1" opacity="1" d="M 15 6 Q 18 5 17 8 Q 14 9 15 6 Z " /><path fill="rgb(152,147,51)" stroke="rgb(152,147,51)" stroke-width="1" opacity="1" d="M 13.5 9 L 14 10.5 Q 12.5 13.5 11 10.5 L 13.5 9 Z " /><path fill="rgb(152,147,51)" stroke="rgb(152,147,51)" stroke-width="1" opacity="1" d="M 15.5 9 L 17.5 10 L 19 9.5 L 19 11 L 17 11 Q 18.1 13.7 15.5 13 L 16 11.5 L 15.5 9 Z " /><path fill="rgb(152,147,51)" stroke="rgb(152,147,51)" stroke-width="1" opacity="1" d="M 16.5 17 L 18.5 18 L 20 17.5 Q 18.8 20.3 17.5 18 L 15.5 19 L 16.5 17 Z " /><path fill="rgb(152,147,51)" stroke="rgb(152,147,51)" stroke-width="1" opacity="1" d="M 18.5 38 L 20 38.5 L 17.5 40 L 18.5 38 Z " /><path fill="rgb(202,154,79)" stroke="rgb(202,154,79)" stroke-width="1" opacity="1" d="M 20.5 29 L 23 29.5 Q 23.9 32.5 19.5 31 L 20.5 29 Z " /><path fill="rgb(202,154,79)" stroke="rgb(202,154,79)" stroke-width="1" opacity="1" d="M 17.5 31 L 18.5 33 L 22 32.5 Q 20 36.2 18 34.5 L 16.5 37 L 17 35.5 L 17.5 31 Z " /><path fill="rgb(202,154,79)" stroke="rgb(202,154,79)" stroke-width="1" opacity="1" d="M 6.5 36 L 7 39.5 L 6 39.5 L 6.5 36 Z " /><path fill="rgb(107,103,105)" stroke="rgb(107,103,105)" stroke-width="1" opacity="1" d="M 10.5 3 L 11.5 5 Q 8.7 5.7 10.5 3 Z " /><path fill="rgb(107,103,105)" stroke="rgb(107,103,105)" stroke-width="1" opacity="1" d="M 23.5 5 L 24 7 L 26 7.5 L 23 8.5 L 25 11.5 L 24 11.5 L 22 8.5 L 23.5 5 Z " /><path fill="rgb(107,103,105)" stroke="rgb(107,103,105)" stroke-width="1" opacity="1" d="M 7.5 6 L 9 6.5 L 6.5 8 L 7.5 6 Z " /><path fill="rgb(107,103,105)" stroke="rgb(107,103,105)" stroke-width="1" opacity="1" d="M 20.5 13 L 21 15 L 19 14.5 L 20.5 13 Z " /><path fill="rgb(107,103,105)" stroke="rgb(107,103,105)" stroke-width="1" opacity="1" d="M 23.5 13 L 25 13.5 L 23.5 16 Q 20.5 14.5 23.5 13 Z " /><path fill="rgb(107,103,105)" stroke="rgb(107,103,105)" stroke-width="1" opacity="1" d="M 20.5 17 L 24 19.5 L 23.5 22 L 21.5 19 L 20 19.5 L 20.5 17 Z " /><path fill="rgb(107,103,105)" stroke="rgb(107,103,105)" stroke-width="1" opacity="1" d="M 8.5 19 L 9 20.5 L 7.5 24 L 7 21.5 L 8.5 19 Z " /><path fill="rgb(107,103,105)" stroke="rgb(107,103,105)" stroke-width="1" opacity="1" d="M 4.5 20 L 3.5 22 L 4.5 20 Z " /><path fill="rgb(107,103,105)" stroke="rgb(107,103,105)" stroke-width="1" opacity="1" d="M 13.5 22 L 21 22.5 L 13.5 23 L 13.5 22 Z " /><path fill="rgb(107,103,105)" stroke="rgb(107,103,105)" stroke-width="1" opacity="1" d="M 5.5 24 L 6.5 26 L 5.5 24 Z " /><path fill="rgb(107,103,105)" stroke="rgb(107,103,105)" stroke-width="1" opacity="1" d="M 9.5 26 L 12 26.5 L 9 27 L 8.5 29 L 8 27.5 L 9.5 26 Z " /><path fill="rgb(107,103,105)" stroke="rgb(107,103,105)" stroke-width="1" opacity="1" d="M 24 26 L 28 27.5 L 26.5 28 L 24 27.5 L 24 26 Z " /><path fill="rgb(107,103,105)" stroke="rgb(107,103,105)" stroke-width="1" opacity="1" d="M 12.5 29 L 12.5 32 L 10 31.5 L 12.5 29 Z " /><path fill="rgb(107,103,105)" stroke="rgb(107,103,105)" stroke-width="1" opacity="1" d="M 11.5 33 L 14 33.5 L 11.5 34 L 11.5 33 Z " /><path fill="rgb(107,103,105)" stroke="rgb(107,103,105)" stroke-width="1" opacity="1" d="M 22.5 34 L 21.5 36 L 22.5 34 Z " /><path fill="rgb(107,103,105)" stroke="rgb(107,103,105)" stroke-width="1" opacity="1" d="M 8.5 35 L 9 37 L 7 36.5 L 8.5 35 Z " /><path fill="rgb(107,103,105)" stroke="rgb(107,103,105)" stroke-width="1" opacity="1" d="M 17.5 36 L 18.5 38 L 17.5 36 Z " /><path fill="rgb(107,103,105)" stroke="rgb(107,103,105)" stroke-width="1" opacity="1" d="M 4.5 37 L 6 40.5 L 4 39.5 L 4.5 37 Z " /><path fill="rgb(107,103,105)" stroke="rgb(107,103,105)" stroke-width="1" opacity="1" d="M 9.5 38 L 11 41.5 L 10 41.5 L 9.5 38 Z " /><path fill="rgb(107,103,105)" stroke="rgb(107,103,105)" stroke-width="1" opacity="1" d="M 18.5 43 L 19 45 L 17 44.5 L 18.5 43 Z " /><path fill="rgb(82,69,53)" stroke="rgb(82,69,53)" stroke-width="1" opacity="1" d="M 18.5 5 L 21 5.5 Q 21.8 7.8 19.5 7 L 18.5 5 Z " /><path fill="rgb(82,69,53)" stroke="rgb(82,69,53)" stroke-width="1" opacity="1" d="M 8 10 L 10 10.5 L 8 11.5 L 8 10 Z " /><path fill="rgb(82,69,53)" stroke="rgb(82,69,53)" stroke-width="1" opacity="1" d="M 20.5 11 L 21 13 L 17 12.5 L 20.5 11 Z " /><path fill="rgb(82,69,53)" stroke="rgb(82,69,53)" stroke-width="1" opacity="1" d="M 25.5 13 L 28 13.5 L 25.5 14 L 25.5 13 Z " /><path fill="rgb(82,69,53)" stroke="rgb(82,69,53)" stroke-width="1" opacity="1" d="M 4.5 15 L 3.5 17 L 4.5 15 Z " /><path fill="rgb(82,69,53)" stroke="rgb(82,69,53)" stroke-width="1" opacity="1" d="M 10.5 15 L 11.5 17 L 10.5 15 Z " /><path fill="rgb(82,69,53)" stroke="rgb(82,69,53)" stroke-width="1" opacity="1" d="M 14.5 17 L 15 19 L 17.5 18 L 18 20 L 14.5 19 L 13 19.5 L 14.5 17 Z " /><path fill="rgb(82,69,53)" stroke="rgb(82,69,53)" stroke-width="1" opacity="1" d="M 2.5 23 L 3.5 25 L 2.5 23 Z " /><path fill="rgb(82,69,53)" stroke="rgb(82,69,53)" stroke-width="1" opacity="1" d="M 12.5 26 L 13.5 28 L 12.5 26 Z " /><path fill="rgb(82,69,53)" stroke="rgb(82,69,53)" stroke-width="1" opacity="1" d="M 9.5 28 L 12 29.5 L 9 30 L 9.5 28 Z " /><path fill="rgb(82,69,53)" stroke="rgb(82,69,53)" stroke-width="1" opacity="1" d="M 22.5 31 L 23.5 33 L 22.5 31 Z " /><path fill="rgb(82,69,53)" stroke="rgb(82,69,53)" stroke-width="1" opacity="1" d="M 5.5 34 Q 8.5 35.5 5.5 37 L 5.5 34 Z " /><path fill="rgb(82,69,53)" stroke="rgb(82,69,53)" stroke-width="1" opacity="1" d="M 10.5 35 Q 12.8 34.3 12 36.5 L 10.5 35 Z " /><path fill="rgb(82,69,53)" stroke="rgb(82,69,53)" stroke-width="1" opacity="1" d="M 15.5 35 L 15.5 38 Q 12.5 36.5 15.5 35 Z " /><path fill="rgb(82,69,53)" stroke="rgb(82,69,53)" stroke-width="1" opacity="1" d="M 14.5 40 L 16 42.5 L 14 41.5 L 14.5 40 Z " /><path fill="rgb(82,69,53)" stroke="rgb(82,69,53)" stroke-width="1" opacity="1" d="M 8.5 42 L 9.5 44 L 8.5 42 Z " /><path fill="rgb(30,19,18)" stroke="rgb(30,19,18)" stroke-width="1" opacity="1" d="M 3.5 3 Q 6.8 1.9 6 4.5 L 6 8.5 L 5.5 11 L 3 5 L 5 4.5 L 3.5 3 Z " /><path fill="rgb(30,19,18)" stroke="rgb(30,19,18)" stroke-width="1" opacity="1" d="M 2 11 L 4 11.5 L 2 12.5 L 2 11 Z " /><path fill="rgb(30,19,18)" stroke="rgb(30,19,18)" stroke-width="1" opacity="1" d="M 9 11 Q 12 10 11 13 Q 8 14 9 11 Z " /><path fill="rgb(30,19,18)" stroke="rgb(30,19,18)" stroke-width="1" opacity="1" d="M 14.5 19 L 20 20.5 L 15.5 21 L 14.5 19 Z " /><path fill="rgb(30,19,18)" stroke="rgb(30,19,18)" stroke-width="1" opacity="1" d="M 9.5 20 L 13 20.5 L 9.5 21 L 9.5 20 Z " /><path fill="rgb(30,19,18)" stroke="rgb(30,19,18)" stroke-width="1" opacity="1" d="M 16.5 40 L 17.5 42 L 16.5 40 Z " /><path fill="rgb(32,25,32)" stroke="rgb(32,25,32)" stroke-width="1" opacity="1" d="M 4.5 4 L 5.5 6 L 4.5 4 Z " /><path fill="rgb(32,25,32)" stroke="rgb(32,25,32)" stroke-width="1" opacity="1" d="M 27.5 4 L 25.5 7 L 25 5 L 27.5 4 Z " /><path fill="rgb(32,25,32)" stroke="rgb(32,25,32)" stroke-width="1" opacity="1" d="M 25.5 8 Q 29.3 6.8 28 10.5 Q 26.5 13.5 25 10.5 L 27 10.5 Q 27.8 8.3 25.5 9 L 25.5 8 Z " /><path fill="rgb(32,25,32)" stroke="rgb(32,25,32)" stroke-width="1" opacity="1" d="M 3 13 Q 5.7 11.9 5 14.5 Q 8.8 16.3 5.5 18 L 4 17.5 L 6 16.5 L 3 15 L 2.5 18 L 2 15.5 L 3 13 Z " /><path fill="rgb(32,25,32)" stroke="rgb(32,25,32)" stroke-width="1" opacity="1" d="M 12.5 25 L 16.5 26 L 18.5 25 L 18.5 26 L 16 27.5 L 17 30 L 14.5 31 L 13 28.5 L 15 28 Q 16.3 25 12.5 26 L 12.5 25 Z " /><path fill="rgb(32,25,32)" stroke="rgb(32,25,32)" stroke-width="1" opacity="1" d="M 3.5 26 L 4 28 L 8 29.5 L 6.5 30 L 2 27.5 L 3.5 26 Z " /><path fill="rgb(32,25,32)" stroke="rgb(32,25,32)" stroke-width="1" opacity="1" d="M 4.5 31 L 5 33.5 Q 3.5 36.5 2 33.5 L 4.5 31 Z " /><path fill="rgb(32,25,32)" stroke="rgb(32,25,32)" stroke-width="1" opacity="1" d="M 12.5 34 L 15 35.5 L 12 36 L 12.5 34 Z " /><path fill="rgb(32,25,32)" stroke="rgb(32,25,32)" stroke-width="1" opacity="1" d="M 3.5 40 L 2.5 42 L 3.5 40 Z " /><path fill="rgb(59,48,44)" stroke="rgb(59,48,44)" stroke-width="1" opacity="1" d="M 20.5 10 L 19.5 12 L 20.5 10 Z " /><path fill="rgb(59,48,44)" stroke="rgb(59,48,44)" stroke-width="1" opacity="1" d="M 11.5 12 L 12.5 14 L 11.5 12 Z " /><path fill="rgb(59,48,44)" stroke="rgb(59,48,44)" stroke-width="1" opacity="1" d="M 4.5 19 Q 6.8 18.3 6 20.5 L 6.5 22 Q 4.3 22.8 5 20.5 L 4.5 19 Z " /><path fill="rgb(59,48,44)" stroke="rgb(59,48,44)" stroke-width="1" opacity="1" d="M 25.5 20 L 28 21.5 L 25 22 L 25.5 20 Z " /><path fill="rgb(59,48,44)" stroke="rgb(59,48,44)" stroke-width="1" opacity="1" d="M 23.5 24 L 23.5 27 Q 21.3 27.8 22 25.5 L 23.5 24 Z " /><path fill="rgb(59,48,44)" stroke="rgb(59,48,44)" stroke-width="1" opacity="1" d="M 13.5 26 L 14.5 28 L 13.5 26 Z " /><path fill="rgb(59,48,44)" stroke="rgb(59,48,44)" stroke-width="1" opacity="1" d="M 25.5 27 L 24.5 29 L 23 28.5 L 25.5 27 Z " /><path fill="rgb(59,48,44)" stroke="rgb(59,48,44)" stroke-width="1" opacity="1" d="M 23.5 31 L 25 33.5 L 24 33.5 L 23.5 31 Z " /><path fill="rgb(59,48,44)" stroke="rgb(59,48,44)" stroke-width="1" opacity="1" d="M 5.5 33 L 6.5 35 L 5.5 33 Z " /><path fill="rgb(59,48,44)" stroke="rgb(59,48,44)" stroke-width="1" opacity="1" d="M 16.5 42 L 19 42.5 Q 16.9 45.8 16.5 42 Z " /><path fill="rgb(146,142,144)" stroke="rgb(146,142,144)" stroke-width="1" opacity="1" d="M 9 2 L 11 2.5 L 9 3.5 L 9 2 Z " /><path fill="rgb(146,142,144)" stroke="rgb(146,142,144)" stroke-width="1" opacity="1" d="M 17.5 2 L 19 4.5 L 17 3.5 L 17.5 2 Z " /><path fill="rgb(146,142,144)" stroke="rgb(146,142,144)" stroke-width="1" opacity="1" d="M 21 2 Q 23.7 0.9 23 3.5 L 23 5.5 L 24 8.5 L 24 10.5 L 25 12.5 L 22 14.5 L 24 17.5 L 22.5 18 Q 18.2 16.3 21 14.5 L 21 2 Z " /><path fill="rgb(146,142,144)" stroke="rgb(146,142,144)" stroke-width="1" opacity="1" d="M 7.5 3 L 8 5.5 L 7 5.5 L 7.5 3 Z " /><path fill="rgb(146,142,144)" stroke="rgb(146,142,144)" stroke-width="1" opacity="1" d="M 7.5 8 L 9 16 L 7 15.5 L 8 13.5 Q 5.6 12.2 7.5 8 Z " /><path fill="rgb(146,142,144)" stroke="rgb(146,142,144)" stroke-width="1" opacity="1" d="M 7.5 17 Q 9.8 16.3 9 18.5 L 7.5 17 Z " /><path fill="rgb(146,142,144)" stroke="rgb(146,142,144)" stroke-width="1" opacity="1" d="M 20.5 18 Q 23.3 19.4 22 24 L 19.5 25 L 16.5 24 L 15 24.5 Q 14.4 21.8 20.5 23 L 21 20.5 L 20.5 18 Z " /><path fill="rgb(146,142,144)" stroke="rgb(146,142,144)" stroke-width="1" opacity="1" d="M 8 21 L 13 22.5 L 9 23 L 8.5 25 L 8 21 Z " /><path fill="rgb(146,142,144)" stroke="rgb(146,142,144)" stroke-width="1" opacity="1" d="M 5.5 30 L 8 30.5 L 5.5 31 L 5.5 30 Z " /><path fill="rgb(146,142,144)" stroke="rgb(146,142,144)" stroke-width="1" opacity="1" d="M 11.5 32 L 11 33.5 L 10.5 35 L 10 33.5 L 11.5 32 Z " /><path fill="rgb(146,142,144)" stroke="rgb(146,142,144)" stroke-width="1" opacity="1" d="M 9 36 Q 12 35 11 38 Q 8 39 9 36 Z " /><path fill="rgb(146,142,144)" stroke="rgb(146,142,144)" stroke-width="1" opacity="1" d="M 10.5 42 L 12 45.5 L 10 44.5 L 10.5 42 Z " /><path fill="rgb(170,185,190)" stroke="rgb(170,185,190)" stroke-width="1" opacity="1" d="M 9.5 33 L 10 35 L 8 34.5 L 9.5 33 Z " /><path fill="rgb(170,185,190)" stroke="rgb(170,185,190)" stroke-width="1" opacity="1" d="M 7.5 37 Q 9.8 36.3 9 38.5 L 11 38.5 L 7.5 41 L 8 39.5 L 7.5 37 Z " /><path fill="rgb(170,185,190)" stroke="rgb(170,185,190)" stroke-width="1" opacity="1" d="M 13.5 39 L 14 41.5 L 13 41.5 L 13.5 39 Z " /><path fill="rgb(234,205,90)" stroke="rgb(234,205,90)" stroke-width="1" opacity="1" d="M 12.5 6 L 11.5 8 L 12.5 6 Z " /><path fill="rgb(234,205,90)" stroke="rgb(234,205,90)" stroke-width="1" opacity="1" d="M 11.5 14 L 14 15.5 L 12.5 16 L 11.5 14 Z " /><path fill="rgb(234,205,90)" stroke="rgb(234,205,90)" stroke-width="1" opacity="1" d="M 16 14 L 19 15.5 L 16 16 L 16 14 Z " /><path fill="rgb(234,205,90)" stroke="rgb(234,205,90)" stroke-width="1" opacity="1" d="M 19.5 26 L 20 28.5 L 19 30.5 Q 21.3 31.7 18.5 33 L 17 30.5 L 19.5 26 Z " /><path fill="rgb(234,205,90)" stroke="rgb(234,205,90)" stroke-width="1" opacity="1" d="M 6 31 Q 9 30 8 33 Q 5 34 6 31 Z " /><path fill="rgb(62,58,64)" stroke="rgb(62,58,64)" stroke-width="1" opacity="1" d="M 24.5 2 L 26 4.5 L 24 3.5 L 24.5 2 Z " /><path fill="rgb(62,58,64)" stroke="rgb(62,58,64)" stroke-width="1" opacity="1" d="M 8 8 L 10 8.5 L 8 9.5 L 8 8 Z " /><path fill="rgb(62,58,64)" stroke="rgb(62,58,64)" stroke-width="1" opacity="1" d="M 6.5 18 L 7 20.5 L 6 20.5 L 6.5 18 Z " /><path fill="rgb(62,58,64)" stroke="rgb(62,58,64)" stroke-width="1" opacity="1" d="M 4.5 21 L 4.5 24 L 2 22.5 L 4.5 21 Z " /><path fill="rgb(62,58,64)" stroke="rgb(62,58,64)" stroke-width="1" opacity="1" d="M 6.5 24 L 8 24.5 L 6 25.5 L 9 26.5 L 6 28 L 5 25.5 L 6.5 24 Z " /><path fill="rgb(62,58,64)" stroke="rgb(62,58,64)" stroke-width="1" opacity="1" d="M 27.5 25 L 26.5 27 L 27.5 25 Z " /><path fill="rgb(62,58,64)" stroke="rgb(62,58,64)" stroke-width="1" opacity="1" d="M 25.5 29 L 24.5 31 L 25.5 29 Z " /><path fill="rgb(62,58,64)" stroke="rgb(62,58,64)" stroke-width="1" opacity="1" d="M 22.5 33 L 26 34.5 L 24 35.5 Q 24.8 33.3 22.5 34 L 22.5 33 Z " /><path fill="rgb(62,58,64)" stroke="rgb(62,58,64)" stroke-width="1" opacity="1" d="M 13.5 36 L 14.5 38 L 13.5 36 Z " /><path fill="rgb(62,58,64)" stroke="rgb(62,58,64)" stroke-width="1" opacity="1" d="M 19.5 36 L 24 37.5 L 22.5 38 L 19.5 37 L 19.5 36 Z " /><path fill="rgb(166,106,71)" stroke="rgb(166,106,71)" stroke-width="1" opacity="1" d="M 19 2 L 21 2.5 L 19 3.5 L 19 2 Z " /><path fill="rgb(166,106,71)" stroke="rgb(166,106,71)" stroke-width="1" opacity="1" d="M 22.5 23 L 24 23.5 L 22 24 L 22 29 L 20.5 29 L 19 29.5 L 21 26 Q 18.3 24.9 19 27.5 L 16.5 31 L 17 29.5 L 20.5 24 L 22.5 23 Z " /><path fill="rgb(166,106,71)" stroke="rgb(166,106,71)" stroke-width="1" opacity="1" d="M 20.5 31 L 21 32.5 L 20.5 35 Q 17.8 33.8 20 32.5 L 20.5 31 Z " /><path fill="rgb(166,106,71)" stroke="rgb(166,106,71)" stroke-width="1" opacity="1" d="M 16.5 34 L 17 35.5 L 15 36.5 L 16.5 34 Z " /><path fill="rgb(208,194,181)" stroke="rgb(208,194,181)" stroke-width="1" opacity="1" d="M 12.5 21 L 16 21.5 L 12.5 22 L 12.5 21 Z " /><path fill="rgb(208,194,181)" stroke="rgb(208,194,181)" stroke-width="1" opacity="1" d="M 17.5 21 L 20 21.5 L 17.5 22 L 17.5 21 Z " /><path fill="rgb(208,194,181)" stroke="rgb(208,194,181)" stroke-width="1" opacity="1" d="M 13 23 Q 16 22 15 25 Q 12 26 13 23 Z " /><path fill="rgb(208,194,181)" stroke="rgb(208,194,181)" stroke-width="1" opacity="1" d="M 11 38 L 13 38.5 L 13 40.5 Q 13.7 43.1 11 42 L 11 38 Z " /><path fill="rgb(208,194,181)" stroke="rgb(208,194,181)" stroke-width="1" opacity="1" d="M 20.5 39 L 20 40.5 L 19.5 42 L 19 40.5 L 20.5 39 Z " /><path fill="rgb(208,194,181)" stroke="rgb(208,194,181)" stroke-width="1" opacity="1" d="M 4.5 43 L 6 46.5 L 4 45.5 L 4.5 43 Z " /><path fill="rgb(208,194,181)" stroke="rgb(208,194,181)" stroke-width="1" opacity="1" d="M 12.5 43 Q 17.3 41.7 16 45 L 13.5 44 L 11.5 45 L 12.5 43 Z " /><path fill="rgb(208,194,181)" stroke="rgb(208,194,181)" stroke-width="1" opacity="1" d="M 26.5 44 L 27.5 46 L 26.5 44 Z " /><path fill="rgb(208,194,181)" stroke="rgb(208,194,181)" stroke-width="1" opacity="1" d="M 13.5 46 L 12.5 48 L 13.5 46 Z " /><path fill="rgb(112,100,46)" stroke="rgb(112,100,46)" stroke-width="1" opacity="1" d="M 14.5 2 L 17 2.5 Q 14.9 5.8 14.5 2 Z " /><path fill="rgb(112,100,46)" stroke="rgb(112,100,46)" stroke-width="1" opacity="1" d="M 16.5 5 L 19 6.5 L 17 7.5 L 16.5 5 Z " /><path fill="rgb(112,100,46)" stroke="rgb(112,100,46)" stroke-width="1" opacity="1" d="M 9.5 7 Q 12.5 6.1 11 10.5 L 15 12.5 L 12.5 13 Q 9 11 9.5 7 Z " /><path fill="rgb(112,100,46)" stroke="rgb(112,100,46)" stroke-width="1" opacity="1" d="M 13 16 L 16 16.5 L 13.5 18 L 13 16 Z " /><path fill="rgb(112,100,46)" stroke="rgb(112,100,46)" stroke-width="1" opacity="1" d="M 19.5 16 L 18.5 18 L 19.5 16 Z " /><path fill="rgb(112,100,46)" stroke="rgb(112,100,46)" stroke-width="1" opacity="1" d="M 10.5 17 Q 12.8 16.3 12 18.5 L 12.5 20 L 10 19.5 L 10.5 17 Z " /><path fill="rgb(112,100,46)" stroke="rgb(112,100,46)" stroke-width="1" opacity="1" d="M 16.5 37 Q 19.5 37.5 19 41.5 L 18 41.5 L 17.5 39 L 14.5 40 L 14.5 39 L 17 38.5 L 16.5 37 Z " /><path fill="rgb(250,250,250)" stroke="rgb(250,250,250)" stroke-width="1" opacity="1" d="M 0 0 L 30 0 L 30 50 L 0 50 L 0 0 Z M 2 2 L 2 38 L 4 38 Q 5 40 2 39 L 2 43 L 5 42 L 4 45 Q 2 46 5 47 Q 7 48 6 45 L 8 45 L 7 44 L 7 43 L 9 45 Q 8 47 11 46 L 11 48 L 14 47 L 13 46 L 14 44 L 16 45 L 17 45 Q 16 47 19 46 Q 21 45 19 44 L 20 41 L 25 38 L 28 39 L 28 2 L 2 2 Z M 27 44 Q 24 46 27 47 Q 30 46 27 44 Z " /></svg>