<svg width="30" height="50" version="1.1" xmlns="http://www.w3.org/2000/svg" desc="Created with imagetracer.js version 1.2.6" ><path fill="rgb(248,243,243)" stroke="rgb(248,243,243)" stroke-width="1" opacity="1" d="M 2 2 L 5.5 3 L 7 2.5 Q 5.8 5 2 4 L 2 2 Z " /><path fill="rgb(248,243,243)" stroke="rgb(248,243,243)" stroke-width="1" opacity="1" d="M 23.5 5 L 27 6.5 L 24.5 7 L 23.5 5 Z " /><path fill="rgb(248,243,243)" stroke="rgb(248,243,243)" stroke-width="1" opacity="1" d="M 2 9 L 7 10.5 L 2.5 12 L 2 9 Z " /><path fill="rgb(248,243,243)" stroke="rgb(248,243,243)" stroke-width="1" opacity="1" d="M 25.5 12 L 28 13.5 L 26.5 14 L 25.5 12 Z " /><path fill="rgb(248,243,243)" stroke="rgb(248,243,243)" stroke-width="1" opacity="1" d="M 2 16 L 5 17.5 L 2.5 19 L 2 16 Z " /><path fill="rgb(248,243,243)" stroke="rgb(248,243,243)" stroke-width="1" opacity="1" d="M 2 24 L 6 24 L 6 25.5 L 5.5 28 L 3 29.5 L 2.5 32 L 2 24 Z " /><path fill="rgb(248,243,243)" stroke="rgb(248,243,243)" stroke-width="1" opacity="1" d="M 28.5 32 L 29 35.5 L 28 35.5 L 28.5 32 Z " /><path fill="rgb(248,243,243)" stroke="rgb(248,243,243)" stroke-width="1" opacity="1" d="M 1.5 45 L 2 47.5 L 1 47.5 L 1.5 45 Z " /><path fill="rgb(248,243,243)" stroke="rgb(248,243,243)" stroke-width="1" opacity="1" d="M 15 45 L 17.5 46 L 19.5 45 L 21 48 L 15 48 L 15 45 Z " /><path fill="rgb(253,252,252)" stroke="rgb(253,252,252)" stroke-width="1" opacity="1" d="M 2.5 1 L 2 2.5 L 1.5 5 L 1 2.5 L 2.5 1 Z " /><path fill="rgb(253,252,252)" stroke="rgb(253,252,252)" stroke-width="1" opacity="1" d="M 12.5 1 L 12.5 4 L 10 2.5 L 12.5 1 Z " /><path fill="rgb(253,252,252)" stroke="rgb(253,252,252)" stroke-width="1" opacity="1" d="M 20.5 1 L 23 1.5 L 20.5 2 L 20.5 1 Z " /><path fill="rgb(253,252,252)" stroke="rgb(253,252,252)" stroke-width="1" opacity="1" d="M 21.5 5 L 22.5 7 L 21.5 5 Z " /><path fill="rgb(253,252,252)" stroke="rgb(253,252,252)" stroke-width="1" opacity="1" d="M 1.5 6 L 2 9.5 L 1 9.5 L 1.5 6 Z " /><path fill="rgb(253,252,252)" stroke="rgb(253,252,252)" stroke-width="1" opacity="1" d="M 11 6 Q 14 5 13 8 Q 10 9 11 6 Z " /><path fill="rgb(253,252,252)" stroke="rgb(253,252,252)" stroke-width="1" opacity="1" d="M 1.5 11 L 2 14.5 L 1 14.5 L 1.5 11 Z " /><path fill="rgb(253,252,252)" stroke="rgb(253,252,252)" stroke-width="1" opacity="1" d="M 27.5 11 Q 29.8 11.8 29 15.5 L 28 15.5 L 27.5 11 Z " /><path fill="rgb(253,252,252)" stroke="rgb(253,252,252)" stroke-width="1" opacity="1" d="M 24.5 15 L 26 15.5 L 23.5 17 L 24.5 15 Z " /><path fill="rgb(253,252,252)" stroke="rgb(253,252,252)" stroke-width="1" opacity="1" d="M 1.5 20 L 2 24.5 L 1 24.5 L 1.5 20 Z " /><path fill="rgb(253,252,252)" stroke="rgb(253,252,252)" stroke-width="1" opacity="1" d="M 1.5 27 L 2 29.5 L 1 29.5 L 1.5 27 Z " /><path fill="rgb(253,252,252)" stroke="rgb(253,252,252)" stroke-width="1" opacity="1" d="M 1.5 36 L 1 37.5 L 2 40.5 L 1.5 43 L 0 39.5 L 1.5 36 Z " /><path fill="rgb(253,252,252)" stroke="rgb(253,252,252)" stroke-width="1" opacity="1" d="M 12.5 48 L 14 48.5 L 11.5 50 L 12.5 48 Z " /><path fill="rgb(253,253,254)" stroke="rgb(253,253,254)" stroke-width="1" opacity="1" d="M 0 0 L 30 0 L 30 50 L 12.5 50 L 11.5 49 L 6.5 50 L 4.5 49 L 0 50 L 0.5 42 L 1.5 49 L 2.5 48 L 11.5 48 L 13.5 49 L 14.5 48 L 29 48 L 28 37.5 L 29 32.5 L 26 30.5 L 26.5 29 Q 23.9 29.7 25 27 L 29 26.5 L 27 23.5 L 28 21 Q 24.7 22.1 26 18 L 22.5 18 L 18 16 L 18 12 L 12 12 L 11 16 Q 13.7 14.9 13 17.5 L 9 23.5 L 9.5 25 Q 6.9 25.8 8 22.5 L 8 20.5 L 7 16.5 L 9 13.5 Q 5.5 12 8 10.5 L 9 3.5 Q 7.3 -0.8 5.5 2 L 2.5 1 Q -0.7 2.8 1 9.5 L 1 11.5 L 2 15.5 L 2 17.5 L 1 24.5 L 2 26.5 L 1 29.5 L 2 32.5 L 0.5 37 L 0 0 Z M 13 1 L 10 3 L 13 5 L 11 8 Q 13 11 18 10 L 17 2 L 16 2 L 13 1 Z M 21 1 L 21 2 L 23 2 L 21 1 Z M 24 4 L 22 5 L 23 8 L 22 9 Q 23 11 29 10 L 28 9 Q 30 2 24 4 Z M 22 11 Q 21 16 24 17 L 27 16 Q 31 17 29 13 Q 27 10 22 11 Z " /><path fill="rgb(253,253,254)" stroke="rgb(253,253,254)" stroke-width="1" opacity="1" d="M 9.5 31 L 11 33.5 L 10 33.5 L 9.5 31 Z " /><path fill="rgb(252,250,251)" stroke="rgb(252,250,251)" stroke-width="1" opacity="1" d="M 5.5 2 L 9 3.5 L 8.5 5 L 5.5 2 Z " /><path fill="rgb(252,250,251)" stroke="rgb(252,250,251)" stroke-width="1" opacity="1" d="M 4.5 22 L 8 23 L 9 26.5 L 6.5 28 Q 3.7 26.8 6 25.5 Q 7.1 22.2 4.5 23 L 4.5 22 Z " /><path fill="rgb(252,250,251)" stroke="rgb(252,250,251)" stroke-width="1" opacity="1" d="M 26.5 23 L 28 25.5 L 26 26 L 26.5 23 Z " /><path fill="rgb(252,250,251)" stroke="rgb(252,250,251)" stroke-width="1" opacity="1" d="M 9.5 30 L 10.5 32 L 8 31.5 L 9.5 30 Z " /><path fill="rgb(237,229,197)" stroke="rgb(237,229,197)" stroke-width="1" opacity="1" d="M 3.5 4 Q 5.3 7.1 7 5.5 L 4.5 9 L 5 7.5 L 3.5 4 Z " /><path fill="rgb(237,229,197)" stroke="rgb(237,229,197)" stroke-width="1" opacity="1" d="M 3.5 11 L 4.5 13 L 3.5 11 Z " /><path fill="rgb(237,229,197)" stroke="rgb(237,229,197)" stroke-width="1" opacity="1" d="M 2.5 13 L 3.5 15 L 2.5 13 Z " /><path fill="rgb(237,229,197)" stroke="rgb(237,229,197)" stroke-width="1" opacity="1" d="M 13.5 16 L 14.5 18 L 13.5 16 Z " /><path fill="rgb(237,229,197)" stroke="rgb(237,229,197)" stroke-width="1" opacity="1" d="M 4.5 19 L 7 20.5 L 5.5 21 L 4.5 19 Z " /><path fill="rgb(177,168,162)" stroke="rgb(177,168,162)" stroke-width="1" opacity="1" d="M 15.5 3 Q 18.5 4.5 15.5 6 L 13 4.5 L 15.5 3 Z " /><path fill="rgb(177,168,162)" stroke="rgb(177,168,162)" stroke-width="1" opacity="1" d="M 14.5 7 L 17 8.5 L 14.5 10 L 12 8.5 L 14.5 7 Z " /><path fill="rgb(177,168,162)" stroke="rgb(177,168,162)" stroke-width="1" opacity="1" d="M 6.5 11 L 7.5 13 L 6.5 11 Z " /><path fill="rgb(177,168,162)" stroke="rgb(177,168,162)" stroke-width="1" opacity="1" d="M 17.5 13 L 19 16.5 L 17 15.5 L 17.5 13 Z " /><path fill="rgb(177,168,162)" stroke="rgb(177,168,162)" stroke-width="1" opacity="1" d="M 3.5 15 L 4.5 17 L 3.5 15 Z " /><path fill="rgb(177,168,162)" stroke="rgb(177,168,162)" stroke-width="1" opacity="1" d="M 6.5 18 L 5.5 20 L 6.5 18 Z " /><path fill="rgb(177,168,162)" stroke="rgb(177,168,162)" stroke-width="1" opacity="1" d="M 13.5 18 L 14.5 20 L 13 19.5 L 12.5 21 L 12 19.5 L 13.5 18 Z " /><path fill="rgb(177,168,162)" stroke="rgb(177,168,162)" stroke-width="1" opacity="1" d="M 15.5 22 L 17 22.5 L 15 23.5 L 15.5 25 Q 12.5 23.5 15.5 22 Z " /><path fill="rgb(177,168,162)" stroke="rgb(177,168,162)" stroke-width="1" opacity="1" d="M 21.5 22 L 24 22.5 Q 21.9 25.8 21.5 22 Z " /><path fill="rgb(177,168,162)" stroke="rgb(177,168,162)" stroke-width="1" opacity="1" d="M 15.5 30 L 16 32.5 L 15 32.5 L 15.5 30 Z " /><path fill="rgb(177,168,162)" stroke="rgb(177,168,162)" stroke-width="1" opacity="1" d="M 21.5 34 L 21 35.5 L 20.5 37 L 20 35.5 L 21.5 34 Z " /><path fill="rgb(177,168,162)" stroke="rgb(177,168,162)" stroke-width="1" opacity="1" d="M 17.5 40 L 18 44.5 L 17 44.5 L 17.5 40 Z " /><path fill="rgb(177,168,162)" stroke="rgb(177,168,162)" stroke-width="1" opacity="1" d="M 14.5 43 L 15.5 45 L 14.5 43 Z " /><path fill="rgb(177,168,162)" stroke="rgb(177,168,162)" stroke-width="1" opacity="1" d="M 20.5 45 L 21.5 47 L 20.5 45 Z " /><path fill="rgb(227,49,40)" stroke="rgb(227,49,40)" stroke-width="1" opacity="1" d="M 19 18 Q 22 16.8 21 20.5 Q 18.3 22.8 18.5 28 L 17 24.5 L 17 22.5 L 17 20 Q 20 21 19 18 Z " /><path fill="rgb(227,49,40)" stroke="rgb(227,49,40)" stroke-width="1" opacity="1" d="M 21.5 27 L 22 28.5 L 21 33 Q 18.3 31.9 19 34.5 L 19.5 36 Q 16.1 36.9 18 31.5 L 19 29 Q 21.8 30 21.5 27 Z " /><path fill="rgb(203,202,198)" stroke="rgb(203,202,198)" stroke-width="1" opacity="1" d="M 13.5 2 L 14.5 4 L 13.5 2 Z " /><path fill="rgb(203,202,198)" stroke="rgb(203,202,198)" stroke-width="1" opacity="1" d="M 6.5 8 L 5.5 10 L 6.5 8 Z " /><path fill="rgb(203,202,198)" stroke="rgb(203,202,198)" stroke-width="1" opacity="1" d="M 24.5 21 Q 27.2 22.3 25 23.5 L 24.5 27 L 24 23.5 L 24.5 21 Z " /><path fill="rgb(203,202,198)" stroke="rgb(203,202,198)" stroke-width="1" opacity="1" d="M 11.5 31 L 12 33.5 L 11 33.5 L 11.5 31 Z " /><path fill="rgb(203,202,198)" stroke="rgb(203,202,198)" stroke-width="1" opacity="1" d="M 12.5 36 L 11.5 38 L 12.5 36 Z " /><path fill="rgb(195,158,88)" stroke="rgb(195,158,88)" stroke-width="1" opacity="1" d="M 3.5 13 L 7 14.5 L 4.5 15 L 3.5 13 Z " /><path fill="rgb(195,158,88)" stroke="rgb(195,158,88)" stroke-width="1" opacity="1" d="M 14.5 16 L 15.5 18 L 14.5 16 Z " /><path fill="rgb(195,158,88)" stroke="rgb(195,158,88)" stroke-width="1" opacity="1" d="M 5.5 29 L 8 30.5 L 6.5 31 L 5.5 29 Z " /><path fill="rgb(195,158,88)" stroke="rgb(195,158,88)" stroke-width="1" opacity="1" d="M 22.5 29 L 24.5 32 L 23.5 31 L 21 32.5 L 22.5 29 Z " /><path fill="rgb(195,158,88)" stroke="rgb(195,158,88)" stroke-width="1" opacity="1" d="M 8.5 35 L 7.5 37 L 8.5 35 Z " /><path fill="rgb(195,158,88)" stroke="rgb(195,158,88)" stroke-width="1" opacity="1" d="M 17 37 L 20 37.5 L 18 38 L 15.5 44 L 16 42.5 L 17 37 Z " /><path fill="rgb(195,158,88)" stroke="rgb(195,158,88)" stroke-width="1" opacity="1" d="M 8.5 40 L 9.5 42 L 8.5 40 Z " /><path fill="rgb(102,50,43)" stroke="rgb(102,50,43)" stroke-width="1" opacity="1" d="M 14.5 13 Q 18.3 11.8 17 15.5 L 20 17.5 L 18 18 Q 19.1 20.7 16.5 20 L 14 18.5 L 17 17.5 L 13 16 L 14.5 13 Z " /><path fill="rgb(102,50,43)" stroke="rgb(102,50,43)" stroke-width="1" opacity="1" d="M 12.5 23 Q 14.8 22.3 14 24.5 Q 16.3 25.8 15 30.5 L 14 30.5 L 12 26.5 L 13 24.5 L 12.5 23 Z " /><path fill="rgb(102,50,43)" stroke="rgb(102,50,43)" stroke-width="1" opacity="1" d="M 20.5 23 L 22.5 26 L 23.5 23 L 24 27 L 20 26 L 20.5 23 Z " /><path fill="rgb(102,50,43)" stroke="rgb(102,50,43)" stroke-width="1" opacity="1" d="M 16 28 Q 19 26.8 18 30.5 L 16 29.5 L 16 28 Z " /><path fill="rgb(102,50,43)" stroke="rgb(102,50,43)" stroke-width="1" opacity="1" d="M 4.5 30 Q 6.3 33.1 8 31.5 Q 6.8 34.3 5.5 32 Q 2.7 32.7 4.5 30 Z " /><path fill="rgb(102,50,43)" stroke="rgb(102,50,43)" stroke-width="1" opacity="1" d="M 11.5 30 L 12.5 32 L 11.5 30 Z " /><path fill="rgb(102,50,43)" stroke="rgb(102,50,43)" stroke-width="1" opacity="1" d="M 26 32 L 28 32.5 L 26.5 35 L 26 32 Z " /><path fill="rgb(102,50,43)" stroke="rgb(102,50,43)" stroke-width="1" opacity="1" d="M 15.5 35 L 18 36.5 L 16.5 36 L 15.5 35 Z " /><path fill="rgb(102,50,43)" stroke="rgb(102,50,43)" stroke-width="1" opacity="1" d="M 8.5 43 L 8 44.5 L 7.5 46 L 7 44.5 L 8.5 43 Z " /><path fill="rgb(175,43,35)" stroke="rgb(175,43,35)" stroke-width="1" opacity="1" d="M 15.5 16 L 16.5 18 L 15.5 16 Z " /><path fill="rgb(175,43,35)" stroke="rgb(175,43,35)" stroke-width="1" opacity="1" d="M 13.5 19 L 14 22.5 L 13 22.5 L 13.5 19 Z " /><path fill="rgb(175,43,35)" stroke="rgb(175,43,35)" stroke-width="1" opacity="1" d="M 21.5 19 L 22 20.5 L 20 25.5 L 21.5 29 L 22.5 27 L 23 28.5 Q 21.8 31.3 20.5 29 Q 18.3 28.3 19 30.5 L 18 36 L 20 36.5 L 18.5 37 L 17 36.5 Q 17.8 39.1 14.5 38 L 14.5 37 L 17 35.5 L 18 28.5 L 17 25.5 L 18 25.5 L 18.5 28 Q 18.5 22 21.5 19 Z " /><path fill="rgb(175,43,35)" stroke="rgb(175,43,35)" stroke-width="1" opacity="1" d="M 12.5 27 L 14 28.5 Q 12.5 34 15 35.5 L 13.5 36 L 12 34.5 L 13 31.5 L 11 29.5 L 12.5 27 Z " /><path fill="rgb(175,43,35)" stroke="rgb(175,43,35)" stroke-width="1" opacity="1" d="M 5.5 30 L 6.5 32 L 5.5 30 Z " /><path fill="rgb(175,43,35)" stroke="rgb(175,43,35)" stroke-width="1" opacity="1" d="M 19 33 L 21 33.5 L 19 34.5 L 19 33 Z " /><path fill="rgb(226,210,129)" stroke="rgb(226,210,129)" stroke-width="1" opacity="1" d="M 23.5 29 Q 26.5 30.5 23.5 32 L 23.5 29 Z " /><path fill="rgb(226,210,129)" stroke="rgb(226,210,129)" stroke-width="1" opacity="1" d="M 5.5 32 L 7 35.5 L 6 35.5 L 5.5 32 Z " /><path fill="rgb(226,210,129)" stroke="rgb(226,210,129)" stroke-width="1" opacity="1" d="M 7.5 40 L 9.5 43 L 7.5 40 Z " /><path fill="rgb(226,210,129)" stroke="rgb(226,210,129)" stroke-width="1" opacity="1" d="M 7.5 43 L 7 44.5 L 6.5 46 L 6 44.5 L 7.5 43 Z " /><path fill="rgb(251,239,120)" stroke="rgb(251,239,120)" stroke-width="1" opacity="1" d="M 3.5 5 L 4 7.5 L 3 7.5 L 3.5 5 Z " /><path fill="rgb(251,239,120)" stroke="rgb(251,239,120)" stroke-width="1" opacity="1" d="M 4.5 32 L 8 39.5 L 7 40.5 L 8.5 43 L 6 44.5 Q 6.8 47.1 3.5 46 Q 0.8 44.8 2 39.5 L 2 37.5 L 4.5 32 Z " /><path fill="rgb(239,232,231)" stroke="rgb(239,232,231)" stroke-width="1" opacity="1" d="M 2.5 4 L 3 8.5 L 2 8.5 L 2.5 4 Z " /><path fill="rgb(239,232,231)" stroke="rgb(239,232,231)" stroke-width="1" opacity="1" d="M 12.5 5 L 15 6.5 L 13.5 6 L 12.5 5 Z " /><path fill="rgb(239,232,231)" stroke="rgb(239,232,231)" stroke-width="1" opacity="1" d="M 26.5 7 L 27.5 9 L 26.5 7 Z " /><path fill="rgb(239,232,231)" stroke="rgb(239,232,231)" stroke-width="1" opacity="1" d="M 23.5 12 L 24.5 14 L 23.5 12 Z " /><path fill="rgb(239,232,231)" stroke="rgb(239,232,231)" stroke-width="1" opacity="1" d="M 26.5 14 L 27.5 16 L 26.5 14 Z " /><path fill="rgb(239,232,231)" stroke="rgb(239,232,231)" stroke-width="1" opacity="1" d="M 3.5 18 L 3 19.5 L 2.5 21 L 2 19.5 L 3.5 18 Z " /><path fill="rgb(239,232,231)" stroke="rgb(239,232,231)" stroke-width="1" opacity="1" d="M 2.5 22 L 3.5 24 Q 0.7 24.7 2.5 22 Z " /><path fill="rgb(239,232,231)" stroke="rgb(239,232,231)" stroke-width="1" opacity="1" d="M 9 39 L 14 39 L 14 41.5 Q 16.3 42.8 13.5 44 L 12 44.5 L 15 45 L 14.5 48 L 2.5 48 L 2.5 47 Q 8 47.5 10 44.5 L 9 39 Z " /><path fill="rgb(130,120,110)" stroke="rgb(130,120,110)" stroke-width="1" opacity="1" d="M 4.5 11 L 6 12.5 L 5.5 15 L 4 13.5 L 4.5 11 Z " /><path fill="rgb(130,120,110)" stroke="rgb(130,120,110)" stroke-width="1" opacity="1" d="M 23.5 11 L 22.5 13 L 23.5 11 Z " /><path fill="rgb(130,120,110)" stroke="rgb(130,120,110)" stroke-width="1" opacity="1" d="M 14.5 12 L 13.5 14 L 14.5 12 Z " /><path fill="rgb(130,120,110)" stroke="rgb(130,120,110)" stroke-width="1" opacity="1" d="M 25.5 14 L 26.5 16 L 25.5 14 Z " /><path fill="rgb(130,120,110)" stroke="rgb(130,120,110)" stroke-width="1" opacity="1" d="M 23.5 19 L 24.5 23 Q 20 21 23.5 19 Z " /><path fill="rgb(130,120,110)" stroke="rgb(130,120,110)" stroke-width="1" opacity="1" d="M 15 20 Q 18 19 17 22 L 14.5 23 L 15 21.5 L 15 20 Z " /><path fill="rgb(130,120,110)" stroke="rgb(130,120,110)" stroke-width="1" opacity="1" d="M 11.5 23 L 13 26 Q 9.5 27.1 11.5 23 Z " /><path fill="rgb(130,120,110)" stroke="rgb(130,120,110)" stroke-width="1" opacity="1" d="M 16.5 23 L 17 27.5 L 16 27.5 L 14 24.5 L 16 24.5 L 16.5 23 Z " /><path fill="rgb(130,120,110)" stroke="rgb(130,120,110)" stroke-width="1" opacity="1" d="M 21.5 23 L 22.5 25 L 21.5 23 Z " /><path fill="rgb(130,120,110)" stroke="rgb(130,120,110)" stroke-width="1" opacity="1" d="M 10.5 27 L 12 27.5 L 9.5 29 L 10.5 27 Z " /><path fill="rgb(130,120,110)" stroke="rgb(130,120,110)" stroke-width="1" opacity="1" d="M 5.5 28 L 4.5 30 L 5.5 28 Z " /><path fill="rgb(130,120,110)" stroke="rgb(130,120,110)" stroke-width="1" opacity="1" d="M 15.5 29 Q 18 30 17 34.5 L 16 34.5 L 15.5 29 Z " /><path fill="rgb(130,120,110)" stroke="rgb(130,120,110)" stroke-width="1" opacity="1" d="M 7.5 32 L 8.5 34 Q 5.7 34.7 7.5 32 Z " /><path fill="rgb(130,120,110)" stroke="rgb(130,120,110)" stroke-width="1" opacity="1" d="M 27.5 33 L 28 36 L 26 35.5 L 27.5 33 Z " /><path fill="rgb(130,120,110)" stroke="rgb(130,120,110)" stroke-width="1" opacity="1" d="M 11.5 35 L 12.5 37 L 14 36.5 L 15 39.5 L 11 38.5 L 11 36.5 L 11.5 35 Z " /><path fill="rgb(130,120,110)" stroke="rgb(130,120,110)" stroke-width="1" opacity="1" d="M 21.5 36 L 19.5 39 L 18 38.5 L 21.5 36 Z " /><path fill="rgb(130,120,110)" stroke="rgb(130,120,110)" stroke-width="1" opacity="1" d="M 8.5 37 Q 10.8 36.3 10 38.5 L 8.5 37 Z " /><path fill="rgb(130,120,110)" stroke="rgb(130,120,110)" stroke-width="1" opacity="1" d="M 22.5 47 L 26 47.5 L 22.5 48 L 22.5 47 Z " /><path fill="rgb(163,235,248)" stroke="rgb(163,235,248)" stroke-width="1" opacity="1" d="M 22 33 L 26 34.5 L 26 36 L 28 36.5 L 28 43.5 L 26 43.5 Q 25.3 46.1 28 45 L 28 47.5 L 26.5 47 L 19 45 L 18 41 L 20 40.5 Q 17.8 39.3 20.5 38 Q 22.8 38.8 22 36.5 L 22 34.5 L 22 33 Z " /></svg>