<svg width="30" height="50" version="1.1" xmlns="http://www.w3.org/2000/svg" desc="Created with imagetracer.js version 1.2.6" ><path fill="rgb(222,214,213)" stroke="rgb(222,214,213)" stroke-width="1" opacity="1" d="M 15.5 1 L 27.5 1 L 28 3.5 L 25 8.5 L 23.5 11 L 21.5 11 L 15.5 10 L 13 11 L 14 15.5 L 12 21.5 L 15 23 L 16 26.5 L 14.5 30 L 12 27.5 L 13 26.5 L 10 21.5 Q 10.7 18.9 8 20 L 8 16 L 6 16 L 6 13 Q 9 14 8 11 L 5 12.5 L 3.5 17 L 2 13.5 L 3 9.5 L 2 8.5 L 2 2 L 10.5 2 Q 9.7 5.5 16 4 L 15.5 1 Z M 6 4 Q 3 8 7 7 L 6 4 Z " /><path fill="rgb(222,214,213)" stroke="rgb(222,214,213)" stroke-width="1" opacity="1" d="M 25.5 21 L 28 22.5 L 28 37.5 L 26.5 38 L 24 37 L 26 29.5 L 23 23.5 L 25.5 21 Z " /><path fill="rgb(222,214,213)" stroke="rgb(222,214,213)" stroke-width="1" opacity="1" d="M 13.5 31 L 14.5 33 L 13.5 31 Z " /><path fill="rgb(222,214,213)" stroke="rgb(222,214,213)" stroke-width="1" opacity="1" d="M 19 34 Q 22.3 32.9 21 37 Q 17.7 38.1 19 34 Z " /><path fill="rgb(252,251,251)" stroke="rgb(252,251,251)" stroke-width="1" opacity="1" d="M 0 0 L 30 0 L 30 50 L 0 50 L 0 0 Z M 2 1 L 2 49 L 28 49 L 28 1 L 2 1 Z " /><path fill="rgb(216,207,206)" stroke="rgb(216,207,206)" stroke-width="1" opacity="1" d="M 12.5 1 L 15 1.5 L 11.5 3 L 12.5 1 Z " /><path fill="rgb(216,207,206)" stroke="rgb(216,207,206)" stroke-width="1" opacity="1" d="M 5.5 4 L 7 7 Q 3.5 8.1 5.5 4 Z " /><path fill="rgb(216,207,206)" stroke="rgb(216,207,206)" stroke-width="1" opacity="1" d="M 27.5 4 L 28 21.5 L 26 20.5 L 25 15 L 23 14.5 L 23.5 13 Q 19.8 13.8 19 11.5 L 22.5 10 Q 23.7 12.3 25 9.5 L 27 6.5 Q 24.8 5.3 27.5 4 Z " /><path fill="rgb(216,207,206)" stroke="rgb(216,207,206)" stroke-width="1" opacity="1" d="M 4.5 8 L 7.5 9 L 9 8.5 L 6 10.5 L 8 11 Q 9 14 6 13 L 6 16 L 4.5 16 L 5 14.5 L 6 11.5 L 4 10.5 L 6 9.5 L 4.5 8 Z " /><path fill="rgb(216,207,206)" stroke="rgb(216,207,206)" stroke-width="1" opacity="1" d="M 24.5 21 L 23.5 23 L 24.5 21 Z " /><path fill="rgb(173,187,181)" stroke="rgb(173,187,181)" stroke-width="1" opacity="1" d="M 2.5 1 L 5 1.5 L 2.5 2 L 2.5 1 Z " /><path fill="rgb(173,187,181)" stroke="rgb(173,187,181)" stroke-width="1" opacity="1" d="M 14.5 2 L 16 2.5 L 13.5 4 L 14.5 2 Z " /><path fill="rgb(173,187,181)" stroke="rgb(173,187,181)" stroke-width="1" opacity="1" d="M 24.5 15 L 26 20.5 L 25 20.5 L 24.5 15 Z " /><path fill="rgb(173,187,181)" stroke="rgb(173,187,181)" stroke-width="1" opacity="1" d="M 4.5 16 L 3 18.5 L 2.5 20 L 2 17 L 4.5 16 Z " /><path fill="rgb(173,187,181)" stroke="rgb(173,187,181)" stroke-width="1" opacity="1" d="M 23.5 19 L 23 22.5 L 22.5 24 L 22 22.5 L 23.5 19 Z " /><path fill="rgb(173,187,181)" stroke="rgb(173,187,181)" stroke-width="1" opacity="1" d="M 23.5 25 L 25 27.5 L 24 27.5 L 23.5 25 Z " /><path fill="rgb(173,187,181)" stroke="rgb(173,187,181)" stroke-width="1" opacity="1" d="M 25.5 29 L 26 30.5 Q 22.8 33.3 23.5 40 L 21 37.5 L 21 35.5 Q 20.3 33.3 22.5 34 L 25.5 29 Z " /><path fill="rgb(173,187,181)" stroke="rgb(173,187,181)" stroke-width="1" opacity="1" d="M 14.5 31 L 13.5 33 L 14.5 31 Z " /><path fill="rgb(173,187,181)" stroke="rgb(173,187,181)" stroke-width="1" opacity="1" d="M 15.5 33 Q 18.1 32.2 17 35.5 L 16 35.5 L 15.5 33 Z " /><path fill="rgb(173,187,181)" stroke="rgb(173,187,181)" stroke-width="1" opacity="1" d="M 15.5 37 Q 17.8 36.3 17 38.5 L 15.5 37 Z " /><path fill="rgb(173,187,181)" stroke="rgb(173,187,181)" stroke-width="1" opacity="1" d="M 21.5 41 L 22.5 43 L 21.5 41 Z " /><path fill="rgb(173,187,181)" stroke="rgb(173,187,181)" stroke-width="1" opacity="1" d="M 26.5 43 Q 28.8 42.3 28 44.5 L 26.5 43 Z " /><path fill="rgb(228,218,50)" stroke="rgb(228,218,50)" stroke-width="1" opacity="1" d="M 4.5 19 L 8 20.5 Q 8.8 22.8 6.5 22 L 5 22.5 L 6 20 Q 3 18.8 4 22.5 L 3 22.5 L 4.5 19 Z " /><path fill="rgb(228,218,50)" stroke="rgb(228,218,50)" stroke-width="1" opacity="1" d="M 9.5 26 L 12 27.5 L 10.5 28 L 9.5 26 Z " /><path fill="rgb(228,218,50)" stroke="rgb(228,218,50)" stroke-width="1" opacity="1" d="M 7.5 27 L 8 30 L 11.5 29 L 10.5 31 L 6 30 L 7.5 27 Z " /><path fill="rgb(228,218,50)" stroke="rgb(228,218,50)" stroke-width="1" opacity="1" d="M 4.5 32 L 8 33.5 L 7.5 35 L 6 34.5 L 5.5 36 L 4.5 34 L 3.5 36 L 3 33.5 L 4.5 32 Z " /><path fill="rgb(228,218,50)" stroke="rgb(228,218,50)" stroke-width="1" opacity="1" d="M 10.5 33 L 15 33.5 L 11.5 35 L 10.5 33 Z " /><path fill="rgb(228,218,50)" stroke="rgb(228,218,50)" stroke-width="1" opacity="1" d="M 11.5 36 L 14 36.5 L 12.5 39 Q 15.1 38.2 14 41.5 L 13 41.5 L 12.5 40 L 9 40.5 L 10.5 38 L 12 37.5 L 11.5 36 Z " /><path fill="rgb(228,218,50)" stroke="rgb(228,218,50)" stroke-width="1" opacity="1" d="M 3.5 42 L 6 42.5 L 3 43.5 Q 4.3 46.3 5.5 44 Q 8.1 43.3 7 46 L 4.5 47 L 2 43.5 L 3.5 42 Z " /><path fill="rgb(228,218,50)" stroke="rgb(228,218,50)" stroke-width="1" opacity="1" d="M 22.5 44 L 23 45.5 L 20.5 47 L 18 45.5 L 19.5 45 L 22 46 L 22.5 44 Z " /><path fill="rgb(144,138,130)" stroke="rgb(144,138,130)" stroke-width="1" opacity="1" d="M 5.5 1 L 8 1.5 L 5.5 2 L 5.5 1 Z " /><path fill="rgb(144,138,130)" stroke="rgb(144,138,130)" stroke-width="1" opacity="1" d="M 17.5 10 L 19.5 13 L 17.5 10 Z " /><path fill="rgb(144,138,130)" stroke="rgb(144,138,130)" stroke-width="1" opacity="1" d="M 13.5 12 L 15 14.5 L 13 13.5 L 13.5 12 Z " /><path fill="rgb(144,138,130)" stroke="rgb(144,138,130)" stroke-width="1" opacity="1" d="M 13.5 17 L 14 18.5 L 13 21.5 L 15 21.5 Q 13.5 24.5 12 21.5 L 13.5 17 Z " /><path fill="rgb(144,138,130)" stroke="rgb(144,138,130)" stroke-width="1" opacity="1" d="M 15.5 23 L 16.5 25 L 15.5 23 Z " /><path fill="rgb(144,138,130)" stroke="rgb(144,138,130)" stroke-width="1" opacity="1" d="M 15.5 28 L 16 29.5 L 14 30.5 L 15.5 28 Z " /><path fill="rgb(144,138,130)" stroke="rgb(144,138,130)" stroke-width="1" opacity="1" d="M 11.5 31 L 12.5 33 L 11.5 31 Z " /><path fill="rgb(144,138,130)" stroke="rgb(144,138,130)" stroke-width="1" opacity="1" d="M 18.5 34 L 20 37.5 L 17.5 38 L 15.5 35 Q 17 37.5 18.5 34 Z " /><path fill="rgb(144,138,130)" stroke="rgb(144,138,130)" stroke-width="1" opacity="1" d="M 21.5 36 L 22.5 38 L 21.5 36 Z " /><path fill="rgb(144,138,130)" stroke="rgb(144,138,130)" stroke-width="1" opacity="1" d="M 26.5 38 L 26 39.5 L 25.5 42 L 25 39.5 L 26.5 38 Z " /><path fill="rgb(144,138,130)" stroke="rgb(144,138,130)" stroke-width="1" opacity="1" d="M 22.5 39 L 22.5 42 L 20 41.5 L 22.5 39 Z " /><path fill="rgb(161,83,17)" stroke="rgb(161,83,17)" stroke-width="1" opacity="1" d="M 15.5 13 Q 17.8 12.3 17 14.5 L 16.5 16 L 19.5 15 L 18.5 17 L 14.5 18 L 14.5 17 L 16 16.5 L 15.5 13 Z " /><path fill="rgb(161,83,17)" stroke="rgb(161,83,17)" stroke-width="1" opacity="1" d="M 18.5 19 L 19 23.5 L 18 23.5 L 18.5 19 Z " /><path fill="rgb(161,83,17)" stroke="rgb(161,83,17)" stroke-width="1" opacity="1" d="M 21.5 22 L 23 27 Q 18.9 28.2 21.5 22 Z " /><path fill="rgb(161,83,17)" stroke="rgb(161,83,17)" stroke-width="1" opacity="1" d="M 18 26 L 20 26.5 L 18 27.5 L 18 26 Z " /><path fill="rgb(161,83,17)" stroke="rgb(161,83,17)" stroke-width="1" opacity="1" d="M 18.5 29 L 19.5 31 L 21 30.5 L 20 32.5 L 20.5 34 Q 19 30.5 17.5 33 L 16 32.5 L 18.5 29 Z " /><path fill="rgb(53,62,66)" stroke="rgb(53,62,66)" stroke-width="1" opacity="1" d="M 24.5 18 L 25 20.5 L 24 20.5 L 24.5 18 Z " /><path fill="rgb(53,62,66)" stroke="rgb(53,62,66)" stroke-width="1" opacity="1" d="M 13.5 20 L 16 20.5 L 13.5 21 L 13.5 20 Z " /><path fill="rgb(75,65,27)" stroke="rgb(75,65,27)" stroke-width="1" opacity="1" d="M 7 24 L 10 25.5 L 7 25.5 L 7 24 Z " /><path fill="rgb(75,65,27)" stroke="rgb(75,65,27)" stroke-width="1" opacity="1" d="M 2.5 29 L 4 32.5 L 3 32.5 L 2.5 29 Z " /><path fill="rgb(75,65,27)" stroke="rgb(75,65,27)" stroke-width="1" opacity="1" d="M 10.5 37 L 8.5 40 L 10.5 37 Z " /><path fill="rgb(75,65,27)" stroke="rgb(75,65,27)" stroke-width="1" opacity="1" d="M 18.5 38 L 16.5 41 L 18.5 38 Z " /><path fill="rgb(75,65,27)" stroke="rgb(75,65,27)" stroke-width="1" opacity="1" d="M 11.5 43 L 13 45.5 L 11 44.5 L 11.5 43 Z " /><path fill="rgb(75,65,27)" stroke="rgb(75,65,27)" stroke-width="1" opacity="1" d="M 15.5 44 L 14.5 46 L 15.5 44 Z " /><path fill="rgb(75,65,27)" stroke="rgb(75,65,27)" stroke-width="1" opacity="1" d="M 2.5 45 L 3.5 47 L 2.5 45 Z " /><path fill="rgb(75,65,27)" stroke="rgb(75,65,27)" stroke-width="1" opacity="1" d="M 22.5 46 L 23.5 48 L 22.5 46 Z " /><path fill="rgb(96,94,96)" stroke="rgb(96,94,96)" stroke-width="1" opacity="1" d="M 20.5 37 L 21.5 39 L 19 38.5 L 20.5 37 Z " /><path fill="rgb(96,94,96)" stroke="rgb(96,94,96)" stroke-width="1" opacity="1" d="M 17.5 38 L 16.5 40 L 17.5 38 Z " /><path fill="rgb(96,94,96)" stroke="rgb(96,94,96)" stroke-width="1" opacity="1" d="M 24 38 L 28 39.5 L 26.5 40 L 24 39.5 L 24 38 Z " /><path fill="rgb(96,94,96)" stroke="rgb(96,94,96)" stroke-width="1" opacity="1" d="M 19 40 L 21 40.5 L 19.5 43 L 19 40 Z " /><path fill="rgb(96,94,96)" stroke="rgb(96,94,96)" stroke-width="1" opacity="1" d="M 25.5 42 L 28 42.5 L 25.5 43 L 25.5 42 Z " /><path fill="rgb(234,131,17)" stroke="rgb(234,131,17)" stroke-width="1" opacity="1" d="M 17.5 13 L 18.5 15 Q 15.7 15.7 17.5 13 Z " /><path fill="rgb(234,131,17)" stroke="rgb(234,131,17)" stroke-width="1" opacity="1" d="M 20 14 Q 23.7 12.5 23 15.5 Q 21.5 18.5 20 15.5 L 20 14 Z " /><path fill="rgb(234,131,17)" stroke="rgb(234,131,17)" stroke-width="1" opacity="1" d="M 19.5 19 L 20 21 L 22 21.5 L 19.5 26 L 19.5 19 Z " /><path fill="rgb(234,131,17)" stroke="rgb(234,131,17)" stroke-width="1" opacity="1" d="M 19 27 Q 22.8 26 24 28.5 Q 25.1 31.8 22.5 31 L 22.5 33 L 20 32.5 L 21 30.5 L 19 30.5 L 19 27 Z " /><path fill="rgb(234,131,17)" stroke="rgb(234,131,17)" stroke-width="1" opacity="1" d="M 16.5 28 L 17 31.5 L 16 31.5 L 16.5 28 Z " /><path fill="rgb(234,131,17)" stroke="rgb(234,131,17)" stroke-width="1" opacity="1" d="M 24.5 42 L 26 44.5 L 24 45 L 24.5 42 Z " /><path fill="rgb(99,48,15)" stroke="rgb(99,48,15)" stroke-width="1" opacity="1" d="M 14.5 13 L 15.5 15 L 14.5 13 Z " /><path fill="rgb(99,48,15)" stroke="rgb(99,48,15)" stroke-width="1" opacity="1" d="M 17.5 17 L 20 18.5 L 18.5 19 L 16 18.5 L 17.5 17 Z " /><path fill="rgb(99,48,15)" stroke="rgb(99,48,15)" stroke-width="1" opacity="1" d="M 17.5 22 L 19 25.5 L 17 24.5 L 17.5 22 Z " /><path fill="rgb(99,48,15)" stroke="rgb(99,48,15)" stroke-width="1" opacity="1" d="M 17.5 27 Q 20.5 28.5 17.5 30 L 17.5 27 Z " /><path fill="rgb(99,48,15)" stroke="rgb(99,48,15)" stroke-width="1" opacity="1" d="M 8 28 L 10 28.5 L 7 30.5 L 8 28 Z " /><path fill="rgb(99,48,15)" stroke="rgb(99,48,15)" stroke-width="1" opacity="1" d="M 18.5 32 L 19.5 34 L 18.5 32 Z " /><path fill="rgb(99,48,15)" stroke="rgb(99,48,15)" stroke-width="1" opacity="1" d="M 21.5 47 L 20.5 49 L 21.5 47 Z " /><path fill="rgb(113,101,39)" stroke="rgb(113,101,39)" stroke-width="1" opacity="1" d="M 6.5 24 L 7.5 26 L 10 24.5 L 9 26.5 L 9.5 28 L 6 25.5 L 6.5 24 Z " /><path fill="rgb(113,101,39)" stroke="rgb(113,101,39)" stroke-width="1" opacity="1" d="M 4.5 26 L 5.5 28 L 4.5 26 Z " /><path fill="rgb(113,101,39)" stroke="rgb(113,101,39)" stroke-width="1" opacity="1" d="M 8.5 34 L 11 34.5 L 10 35.5 L 11.5 38 Q 9.8 34.9 8 36.5 L 8.5 34 Z " /><path fill="rgb(113,101,39)" stroke="rgb(113,101,39)" stroke-width="1" opacity="1" d="M 14.5 37 L 15 39 L 13 38.5 L 14.5 37 Z " /><path fill="rgb(113,101,39)" stroke="rgb(113,101,39)" stroke-width="1" opacity="1" d="M 7.5 39 L 7.5 41 L 10 42.5 L 8.5 43 Q 4 41 7.5 39 Z " /><path fill="rgb(113,101,39)" stroke="rgb(113,101,39)" stroke-width="1" opacity="1" d="M 14.5 40 L 15 41.5 L 14 43.5 Q 16.8 45.3 12.5 47 L 11.5 45 L 13 45.5 L 12 43.5 L 14.5 40 Z " /><path fill="rgb(113,101,39)" stroke="rgb(113,101,39)" stroke-width="1" opacity="1" d="M 3.5 43 L 4.5 45 L 3.5 43 Z " /><path fill="rgb(113,101,39)" stroke="rgb(113,101,39)" stroke-width="1" opacity="1" d="M 16.5 43 L 19 43.5 L 16.5 44 L 16.5 43 Z " /><path fill="rgb(113,101,39)" stroke="rgb(113,101,39)" stroke-width="1" opacity="1" d="M 8.5 44 L 9.5 46 L 8.5 44 Z " /><path fill="rgb(113,101,39)" stroke="rgb(113,101,39)" stroke-width="1" opacity="1" d="M 18.5 46 L 18.5 49 Q 16.3 49.8 17 47.5 L 18.5 46 Z " /><path fill="rgb(168,166,67)" stroke="rgb(168,166,67)" stroke-width="1" opacity="1" d="M 3.5 19 L 4.5 21 L 3.5 19 Z " /><path fill="rgb(168,166,67)" stroke="rgb(168,166,67)" stroke-width="1" opacity="1" d="M 4.5 22 L 7.5 23 L 9 23.5 L 7.5 24 L 6 23.5 L 5.5 26 Q 4.3 23.7 3 26.5 L 3.5 29 Q 4.8 26.8 6 29.5 L 5.5 31 L 4.5 30 L 2 31.5 L 3 29.5 L 2 25.5 L 2.5 23 L 4.5 22 Z " /><path fill="rgb(168,166,67)" stroke="rgb(168,166,67)" stroke-width="1" opacity="1" d="M 9.5 32 L 10 34 L 8 33.5 L 9.5 32 Z " /><path fill="rgb(168,166,67)" stroke="rgb(168,166,67)" stroke-width="1" opacity="1" d="M 12.5 34 L 15 35 L 12.5 39 L 14 36.5 L 12.5 35 L 10.5 36 L 10.5 35 L 12.5 34 Z " /><path fill="rgb(168,166,67)" stroke="rgb(168,166,67)" stroke-width="1" opacity="1" d="M 7 35 L 9 35.5 L 8.5 37 L 10 37.5 L 7 39.5 L 10 41.5 L 8.5 41 L 7 41.5 L 7.5 43 L 3.5 42 L 2 42.5 L 2.5 40 L 4 40.5 Q 4.8 38.3 2.5 39 L 3.5 37 L 4.5 39 L 5.5 36 L 6.5 38 L 7 35 Z " /><path fill="rgb(168,166,67)" stroke="rgb(168,166,67)" stroke-width="1" opacity="1" d="M 21.5 43 L 22 45 L 18 44.5 L 21.5 43 Z " /><path fill="rgb(168,166,67)" stroke="rgb(168,166,67)" stroke-width="1" opacity="1" d="M 7.5 44 L 8 46 L 10 46.5 L 7 48 L 7.5 44 Z " /><path fill="rgb(168,166,67)" stroke="rgb(168,166,67)" stroke-width="1" opacity="1" d="M 2.5 46 L 6 47.5 L 3.5 49 L 2.5 46 Z " /><path fill="rgb(168,166,67)" stroke="rgb(168,166,67)" stroke-width="1" opacity="1" d="M 17.5 46 L 20 46.5 Q 17.9 49.8 17.5 46 Z " /><path fill="rgb(168,166,67)" stroke="rgb(168,166,67)" stroke-width="1" opacity="1" d="M 23.5 46 L 24.5 48 L 23.5 46 Z " /><path fill="rgb(31,22,12)" stroke="rgb(31,22,12)" stroke-width="1" opacity="1" d="M 15.5 11 L 19 12.5 L 14.5 13 L 15.5 11 Z " /><path fill="rgb(31,22,12)" stroke="rgb(31,22,12)" stroke-width="1" opacity="1" d="M 23.5 16 L 24 18 L 20.5 19 L 21.5 17 L 23.5 16 Z " /><path fill="rgb(31,22,12)" stroke="rgb(31,22,12)" stroke-width="1" opacity="1" d="M 15.5 21 L 18 21.5 L 14.5 23 L 15.5 21 Z " /><path fill="rgb(31,22,12)" stroke="rgb(31,22,12)" stroke-width="1" opacity="1" d="M 7.5 22 L 6.5 24 L 7.5 22 Z " /><path fill="rgb(31,22,12)" stroke="rgb(31,22,12)" stroke-width="1" opacity="1" d="M 4.5 25 L 7 26.5 L 5.5 27 L 3 26.5 L 4.5 25 Z " /><path fill="rgb(31,22,12)" stroke="rgb(31,22,12)" stroke-width="1" opacity="1" d="M 8.5 31 L 10 31.5 L 7.5 33 L 8.5 31 Z " /><path fill="rgb(31,22,12)" stroke="rgb(31,22,12)" stroke-width="1" opacity="1" d="M 2 36 L 4 36.5 L 2 37.5 L 2 36 Z " /><path fill="rgb(31,22,12)" stroke="rgb(31,22,12)" stroke-width="1" opacity="1" d="M 4.5 43 L 9 43.5 L 4.5 44 L 4.5 43 Z " /><path fill="rgb(191,109,87)" stroke="rgb(191,109,87)" stroke-width="1" opacity="1" d="M 20.5 16 L 19.5 18 L 20.5 16 Z " /><path fill="rgb(191,109,87)" stroke="rgb(191,109,87)" stroke-width="1" opacity="1" d="M 22.5 40 L 25 40.5 L 23.5 43 L 22.5 40 Z " /><path fill="rgb(191,109,87)" stroke="rgb(191,109,87)" stroke-width="1" opacity="1" d="M 13.5 46 Q 16.8 44.9 16 47.5 Q 14.4 50.5 9 49 Q 7.7 45.7 12.5 47 L 13.5 46 Z " /><path fill="rgb(191,109,87)" stroke="rgb(191,109,87)" stroke-width="1" opacity="1" d="M 22.5 47 L 27 48.5 L 21.5 49 L 22.5 47 Z " /><path fill="rgb(191,109,87)" stroke="rgb(191,109,87)" stroke-width="1" opacity="1" d="M 4.5 48 L 8 48.5 L 4.5 49 L 4.5 48 Z " /></svg>