<svg width="30" height="50" version="1.1" xmlns="http://www.w3.org/2000/svg" desc="Created with imagetracer.js version 1.2.6" ><path fill="rgb(221,212,209)" stroke="rgb(221,212,209)" stroke-width="1" opacity="1" d="M 2.5 4 L 4 7 Q 6.7 5.9 6 8.5 L 5.5 12 L 7 12.5 L 6.5 14 L 8 14.5 L 5 15 L 6 17.5 L 4 18.5 Q 7.6 19.9 7 25.5 Q 4.5 27 8 28.5 L 6 33.5 Q 8.3 34.8 5.5 36 L 3.5 37 L 2 34.5 L 2 15.5 L 3 10.5 L 2 7.5 L 2.5 4 Z " /><path fill="rgb(230,222,220)" stroke="rgb(230,222,220)" stroke-width="1" opacity="1" d="M 5.5 2 L 11 3.5 L 10.5 5 L 12 5.5 L 10 6 L 9.5 8 L 9 6 Q 6.3 7.1 7 4.5 L 5.5 2 Z " /><path fill="rgb(230,222,220)" stroke="rgb(230,222,220)" stroke-width="1" opacity="1" d="M 8.5 9 L 11 10 L 12 13.5 L 10 14.5 L 12 18.5 L 11 23 L 13 23.5 L 12 26 L 10 25.5 Q 12.3 24.3 9.5 23 L 8 22.5 L 10 19 L 8 18.5 L 10 17.5 L 8 13.5 L 9 10.5 L 8.5 9 Z " /><path fill="rgb(235,227,224)" stroke="rgb(235,227,224)" stroke-width="1" opacity="1" d="M 21.5 2 L 20.5 4 L 21.5 2 Z " /><path fill="rgb(235,227,224)" stroke="rgb(235,227,224)" stroke-width="1" opacity="1" d="M 11.5 4 Q 16.3 3.3 18 5.5 L 16.5 6 L 14 5 L 15 10.5 L 13 12.5 Q 16.5 14 14 15.5 L 13 19 Q 16 17.8 15 21.5 L 16 24 L 14 24 Q 15.5 20.3 12.5 21 L 12 18.5 L 11 16.5 L 13 13.5 L 10 9.5 L 12 9.5 L 11 6.5 L 13 5.5 L 11.5 4 Z " /><path fill="rgb(235,227,224)" stroke="rgb(235,227,224)" stroke-width="1" opacity="1" d="M 15.5 7 L 19 9.5 L 16 10 L 15.5 7 Z " /><path fill="rgb(235,227,224)" stroke="rgb(235,227,224)" stroke-width="1" opacity="1" d="M 20.5 7 L 22 9.5 L 20 10.5 L 20.5 7 Z " /><path fill="rgb(235,227,224)" stroke="rgb(235,227,224)" stroke-width="1" opacity="1" d="M 17.5 13 L 18 14.5 L 16 15.5 L 17.5 13 Z " /><path fill="rgb(235,227,224)" stroke="rgb(235,227,224)" stroke-width="1" opacity="1" d="M 17.5 24 L 18.5 26 L 17.5 24 Z " /><path fill="rgb(245,226,86)" stroke="rgb(245,226,86)" stroke-width="1" opacity="1" d="M 21.5 3 L 25 3.5 L 21.5 4 L 21.5 3 Z " /><path fill="rgb(245,226,86)" stroke="rgb(245,226,86)" stroke-width="1" opacity="1" d="M 22.5 5 L 25 5.5 Q 25.9 8.5 21.5 7 L 22.5 5 Z " /><path fill="rgb(245,226,86)" stroke="rgb(245,226,86)" stroke-width="1" opacity="1" d="M 21.5 11 Q 23 14.5 24.5 12 Q 27.1 11.3 26 14 L 21 13 L 21.5 11 Z " /><path fill="rgb(245,226,86)" stroke="rgb(245,226,86)" stroke-width="1" opacity="1" d="M 23.5 32 Q 26.1 31.2 25 34.5 L 27 34.5 L 24 36 L 23.5 32 Z " /><path fill="rgb(245,226,86)" stroke="rgb(245,226,86)" stroke-width="1" opacity="1" d="M 25.5 40 L 27 43.5 L 24 45.5 L 25 48 L 20 47.5 L 24 44.5 L 22 43.5 Q 22.8 45.8 20.5 45 L 18.5 42 L 23.5 43 L 25.5 40 Z " /><path fill="rgb(245,226,86)" stroke="rgb(245,226,86)" stroke-width="1" opacity="1" d="M 11.5 42 L 11 43.5 L 10.5 45 L 10 43.5 L 11.5 42 Z " /><path fill="rgb(245,226,86)" stroke="rgb(245,226,86)" stroke-width="1" opacity="1" d="M 12.5 45 Q 17.9 43.1 17 46.5 L 17.5 48 Q 12.8 48.8 11 46.5 L 12.5 45 Z " /><path fill="rgb(225,217,215)" stroke="rgb(225,217,215)" stroke-width="1" opacity="1" d="M 2 2 Q 5.8 1.3 7 4.5 Q 6.3 7.1 9 6 L 9 8.5 L 9 10.5 L 10 12.5 L 8 12.5 L 9 14.5 L 8 15.5 L 9.5 18 L 8 18.5 L 10 19 L 8 22.5 L 11 24.5 L 10.5 26 L 12.5 25 L 11.5 27 L 8.5 29 Q 4.3 27.3 7 25.5 Q 7.6 19.9 4 18.5 L 6 17.5 L 5 15 L 8 14.5 L 6 13.5 L 6.5 12 L 5 11.5 L 6 8.5 L 4 5.5 L 2 2 Z " /><path fill="rgb(225,217,215)" stroke="rgb(225,217,215)" stroke-width="1" opacity="1" d="M 3.5 21 L 5 23.5 L 4 23.5 L 3.5 21 Z " /><path fill="rgb(233,225,223)" stroke="rgb(233,225,223)" stroke-width="1" opacity="1" d="M 10.5 2 Q 13.5 3.5 10.5 5 L 10.5 2 Z " /><path fill="rgb(233,225,223)" stroke="rgb(233,225,223)" stroke-width="1" opacity="1" d="M 10.5 6 L 12 9 L 9.5 10 L 9 8.5 L 10.5 6 Z " /><path fill="rgb(233,225,223)" stroke="rgb(233,225,223)" stroke-width="1" opacity="1" d="M 12.5 10 L 14 10.5 L 12 11 L 13 14.5 L 10.5 19 L 10.5 14 L 12 13.5 L 11 11.5 L 12.5 10 Z " /><path fill="rgb(233,225,223)" stroke="rgb(233,225,223)" stroke-width="1" opacity="1" d="M 12.5 19 L 12.5 21 Q 15.5 20.2 14 24 L 16.5 24 L 17.5 26 L 12 24.5 L 12.5 23 Q 9.9 23.8 11 20.5 L 12.5 19 Z " /><path fill="rgb(252,251,245)" stroke="rgb(252,251,245)" stroke-width="1" opacity="1" d="M 0 0 L 30 0 L 30 50 L 0 50 L 0 0 Z M 2 1 L 2 49 L 28 49 Q 29 49 28 45 L 28 43 L 28 1 L 2 1 Z " /><path fill="rgb(156,151,124)" stroke="rgb(156,151,124)" stroke-width="1" opacity="1" d="M 19.5 1 L 23 1.5 L 19.5 2 L 19.5 1 Z " /><path fill="rgb(156,151,124)" stroke="rgb(156,151,124)" stroke-width="1" opacity="1" d="M 23.5 22 L 24.5 24 L 22 23.5 L 23.5 22 Z " /><path fill="rgb(156,151,124)" stroke="rgb(156,151,124)" stroke-width="1" opacity="1" d="M 13.5 25 L 13 26.5 L 12.5 28 L 12 26.5 L 13.5 25 Z " /><path fill="rgb(156,151,124)" stroke="rgb(156,151,124)" stroke-width="1" opacity="1" d="M 16.5 25 L 18 27.5 L 17.5 32 Q 12.8 29.8 17 27.5 L 16.5 25 Z " /><path fill="rgb(156,151,124)" stroke="rgb(156,151,124)" stroke-width="1" opacity="1" d="M 10.5 28 L 9.5 30 L 10.5 28 Z " /><path fill="rgb(156,151,124)" stroke="rgb(156,151,124)" stroke-width="1" opacity="1" d="M 6.5 33 L 7.5 35 L 6.5 33 Z " /><path fill="rgb(156,151,124)" stroke="rgb(156,151,124)" stroke-width="1" opacity="1" d="M 16.5 33 L 17.5 35 L 15.5 35 L 14 34.5 L 16.5 33 Z " /><path fill="rgb(156,151,124)" stroke="rgb(156,151,124)" stroke-width="1" opacity="1" d="M 12.5 34 L 13 35.5 Q 11.5 38.5 10 35.5 L 12 35.5 L 12.5 34 Z " /><path fill="rgb(156,151,124)" stroke="rgb(156,151,124)" stroke-width="1" opacity="1" d="M 2.5 37 L 3.5 39 Q 0.7 39.7 2.5 37 Z " /><path fill="rgb(156,151,124)" stroke="rgb(156,151,124)" stroke-width="1" opacity="1" d="M 8.5 38 L 8.5 41 L 6 39.5 L 8.5 38 Z " /><path fill="rgb(156,151,124)" stroke="rgb(156,151,124)" stroke-width="1" opacity="1" d="M 15.5 48 L 18 48.5 L 15.5 49 L 15.5 48 Z " /><path fill="rgb(204,202,202)" stroke="rgb(204,202,202)" stroke-width="1" opacity="1" d="M 2.5 10 L 3 14.5 L 2 14.5 L 2.5 10 Z " /><path fill="rgb(204,202,202)" stroke="rgb(204,202,202)" stroke-width="1" opacity="1" d="M 8.5 29 L 8 30.5 L 7.5 33 L 7 30.5 L 8.5 29 Z " /><path fill="rgb(204,202,202)" stroke="rgb(204,202,202)" stroke-width="1" opacity="1" d="M 10.5 31 Q 12.8 30.3 12 32.5 L 10.5 31 Z " /><path fill="rgb(204,202,202)" stroke="rgb(204,202,202)" stroke-width="1" opacity="1" d="M 3.5 34 L 3 35.5 L 3.5 37 Q 4.8 34.8 6 37.5 Q 6.8 39.8 4.5 39 L 2 35.5 L 3.5 34 Z " /><path fill="rgb(97,99,94)" stroke="rgb(97,99,94)" stroke-width="1" opacity="1" d="M 11.5 1 L 19 1.5 L 13.5 3 L 11.5 1 Z " /><path fill="rgb(97,99,94)" stroke="rgb(97,99,94)" stroke-width="1" opacity="1" d="M 23.5 8 L 21.5 11 L 23.5 8 Z " /><path fill="rgb(97,99,94)" stroke="rgb(97,99,94)" stroke-width="1" opacity="1" d="M 26.5 13 L 25.5 15 L 26.5 13 Z " /><path fill="rgb(97,99,94)" stroke="rgb(97,99,94)" stroke-width="1" opacity="1" d="M 23.5 15 L 24.5 17 Q 21.7 17.7 23.5 15 Z " /><path fill="rgb(97,99,94)" stroke="rgb(97,99,94)" stroke-width="1" opacity="1" d="M 21.5 20 L 22.5 22 L 21.5 20 Z " /><path fill="rgb(97,99,94)" stroke="rgb(97,99,94)" stroke-width="1" opacity="1" d="M 21.5 25 L 24 28.5 L 21 26.5 L 21.5 25 Z " /><path fill="rgb(97,99,94)" stroke="rgb(97,99,94)" stroke-width="1" opacity="1" d="M 12.5 29 L 17 31.5 L 15.5 32 L 13 31 L 11.5 34 L 12 32.5 L 12.5 29 Z " /><path fill="rgb(97,99,94)" stroke="rgb(97,99,94)" stroke-width="1" opacity="1" d="M 8.5 30 L 11 30.5 Q 7.9 32.3 9.5 34 L 8 32.5 L 8.5 30 Z " /><path fill="rgb(97,99,94)" stroke="rgb(97,99,94)" stroke-width="1" opacity="1" d="M 23.5 30 L 22.5 32 L 23.5 30 Z " /><path fill="rgb(97,99,94)" stroke="rgb(97,99,94)" stroke-width="1" opacity="1" d="M 7.5 35 L 10 35.5 L 7.5 36 L 7.5 35 Z " /><path fill="rgb(97,99,94)" stroke="rgb(97,99,94)" stroke-width="1" opacity="1" d="M 11.5 35 L 12.5 37 L 11.5 35 Z " /><path fill="rgb(97,99,94)" stroke="rgb(97,99,94)" stroke-width="1" opacity="1" d="M 22.5 35 L 24 37.5 L 23 37.5 L 22.5 35 Z " /><path fill="rgb(97,99,94)" stroke="rgb(97,99,94)" stroke-width="1" opacity="1" d="M 7.5 37 L 10 38.5 L 7.5 39 L 5.5 40 L 7.5 37 Z " /><path fill="rgb(97,99,94)" stroke="rgb(97,99,94)" stroke-width="1" opacity="1" d="M 14.5 38 L 17 38.5 L 14.5 39 L 14.5 38 Z " /><path fill="rgb(238,230,227)" stroke="rgb(238,230,227)" stroke-width="1" opacity="1" d="M 18.5 2 L 21 2.5 Q 18.3 4.3 20 10.5 L 23 15.5 Q 19.5 17 22 18.5 L 21 20.5 L 23 22.5 L 22.5 25 L 21 24.5 L 23 30.5 L 21 33.5 L 23 34.5 L 21.5 35 L 18 33.5 L 18 31.5 L 19 29.5 L 18 26.5 Q 20.3 25.3 17.5 24 Q 15.3 24.8 16 22.5 L 15 19 Q 12.3 20.1 13 17.5 L 15 14.5 L 13 12.5 Q 16.5 11 14 9.5 Q 13.3 6.9 16 8 Q 14.8 11 18.5 10 L 16.5 7 Q 12.8 8 14 5 L 18.5 2 Z " /><path fill="rgb(69,37,23)" stroke="rgb(69,37,23)" stroke-width="1" opacity="1" d="M 4.5 1 L 8 1.5 L 4.5 2 L 4.5 1 Z " /><path fill="rgb(69,37,23)" stroke="rgb(69,37,23)" stroke-width="1" opacity="1" d="M 23 1 L 25 1.5 L 23 2.5 L 23 1 Z " /><path fill="rgb(69,37,23)" stroke="rgb(69,37,23)" stroke-width="1" opacity="1" d="M 14.5 2 Q 16.8 1.3 16 3.5 L 14.5 2 Z " /><path fill="rgb(69,37,23)" stroke="rgb(69,37,23)" stroke-width="1" opacity="1" d="M 22.5 7 L 25 7.5 L 22.5 8 L 22.5 7 Z " /><path fill="rgb(69,37,23)" stroke="rgb(69,37,23)" stroke-width="1" opacity="1" d="M 26 9 Q 29 8 28 11 L 25.5 12 L 26 10.5 L 26 9 Z " /><path fill="rgb(69,37,23)" stroke="rgb(69,37,23)" stroke-width="1" opacity="1" d="M 25.5 16 L 28 17.5 L 26.5 18 L 25.5 16 Z " /><path fill="rgb(69,37,23)" stroke="rgb(69,37,23)" stroke-width="1" opacity="1" d="M 24.5 22 L 28 24.5 L 26.5 27 L 27 25.5 L 24.5 22 Z " /><path fill="rgb(69,37,23)" stroke="rgb(69,37,23)" stroke-width="1" opacity="1" d="M 14.5 25 L 17 26.5 L 16.5 28 L 13 26.5 L 14.5 25 Z " /><path fill="rgb(69,37,23)" stroke="rgb(69,37,23)" stroke-width="1" opacity="1" d="M 11.5 28 L 13 28.5 L 9.5 31 L 11.5 28 Z " /><path fill="rgb(69,37,23)" stroke="rgb(69,37,23)" stroke-width="1" opacity="1" d="M 13 31 Q 15.7 29.9 15 32.5 L 12.5 34 L 13 32.5 L 13 31 Z " /><path fill="rgb(69,37,23)" stroke="rgb(69,37,23)" stroke-width="1" opacity="1" d="M 9.5 32 L 9.5 35 L 7 33.5 L 9.5 32 Z " /><path fill="rgb(69,37,23)" stroke="rgb(69,37,23)" stroke-width="1" opacity="1" d="M 14.5 35 L 18 36.5 L 17.5 38 L 19 38.5 L 17.5 39 L 12.5 38 L 10.5 39 L 7 36.5 L 10.5 36 L 12.5 37 L 14.5 35 Z " /><path fill="rgb(69,37,23)" stroke="rgb(69,37,23)" stroke-width="1" opacity="1" d="M 27.5 38 L 28 40.5 L 27 40.5 L 27.5 38 Z " /><path fill="rgb(69,37,23)" stroke="rgb(69,37,23)" stroke-width="1" opacity="1" d="M 4.5 39 L 6.5 42 Q 9.1 41.3 8 44 L 5 42.5 L 4.5 39 Z " /><path fill="rgb(69,37,23)" stroke="rgb(69,37,23)" stroke-width="1" opacity="1" d="M 11.5 40 L 14 41.5 L 12.5 42 L 11.5 40 Z " /><path fill="rgb(69,37,23)" stroke="rgb(69,37,23)" stroke-width="1" opacity="1" d="M 23.5 40 L 22.5 42 L 23.5 40 Z " /><path fill="rgb(69,37,23)" stroke="rgb(69,37,23)" stroke-width="1" opacity="1" d="M 17.5 41 L 20 41.5 L 17.5 42 L 17.5 41 Z " /><path fill="rgb(69,37,23)" stroke="rgb(69,37,23)" stroke-width="1" opacity="1" d="M 14.5 43 L 15.5 45 L 14.5 43 Z " /><path fill="rgb(156,97,42)" stroke="rgb(156,97,42)" stroke-width="1" opacity="1" d="M 24.5 2 Q 28.3 1 27 4 L 21.5 5 L 21.5 4 L 25 3.5 L 24.5 2 Z " /><path fill="rgb(156,97,42)" stroke="rgb(156,97,42)" stroke-width="1" opacity="1" d="M 26.5 5 L 28 9 L 25.5 10 Q 22.3 8.3 26 6.5 L 26.5 5 Z " /><path fill="rgb(156,97,42)" stroke="rgb(156,97,42)" stroke-width="1" opacity="1" d="M 26 11 Q 29 9.8 28 13.5 L 24.5 16 L 24.5 15 L 27 13.5 L 26 11 Z " /><path fill="rgb(156,97,42)" stroke="rgb(156,97,42)" stroke-width="1" opacity="1" d="M 27.5 20 L 28 22.5 L 27.5 24 L 25 23 Q 23.9 20.3 26.5 21 L 27.5 20 Z " /><path fill="rgb(156,97,42)" stroke="rgb(156,97,42)" stroke-width="1" opacity="1" d="M 26.5 25 Q 29 26 28 30.5 L 26.5 32 L 24 31.5 L 24.5 30 L 23 29.5 L 27 26.5 L 26.5 25 Z M 26 29 L 27 31 Q 28 28 26 29 Z " /><path fill="rgb(156,97,42)" stroke="rgb(156,97,42)" stroke-width="1" opacity="1" d="M 15.5 32 L 17 32.5 L 14.5 34 L 15.5 32 Z " /><path fill="rgb(156,97,42)" stroke="rgb(156,97,42)" stroke-width="1" opacity="1" d="M 17.5 35 Q 22.1 33.6 20 39.5 L 19 39.5 L 17.5 35 Z " /><path fill="rgb(156,97,42)" stroke="rgb(156,97,42)" stroke-width="1" opacity="1" d="M 24.5 36 Q 27.8 34.9 27 37.5 L 24.5 39 L 24.5 36 Z " /><path fill="rgb(156,97,42)" stroke="rgb(156,97,42)" stroke-width="1" opacity="1" d="M 21.5 37 L 23 39.5 L 22 39.5 L 21.5 37 Z " /><path fill="rgb(156,97,42)" stroke="rgb(156,97,42)" stroke-width="1" opacity="1" d="M 3.5 40 L 6 40.5 Q 3.9 43.8 3.5 40 Z " /><path fill="rgb(156,97,42)" stroke="rgb(156,97,42)" stroke-width="1" opacity="1" d="M 7.5 40 L 12 41.5 L 7 42 L 7.5 40 Z " /><path fill="rgb(156,97,42)" stroke="rgb(156,97,42)" stroke-width="1" opacity="1" d="M 24.5 41 Q 27.5 42.5 24.5 44 Q 21.5 42.5 24.5 41 Z " /><path fill="rgb(156,97,42)" stroke="rgb(156,97,42)" stroke-width="1" opacity="1" d="M 12.5 44 L 15 44.5 L 11 46.5 L 13 47.5 L 11.5 48 Q 8 46 12.5 44 Z " /><path fill="rgb(156,97,42)" stroke="rgb(156,97,42)" stroke-width="1" opacity="1" d="M 7.5 45 L 9 47.5 L 8 47.5 L 7.5 45 Z " /><path fill="rgb(156,97,42)" stroke="rgb(156,97,42)" stroke-width="1" opacity="1" d="M 18.5 48 L 27 48.5 L 18.5 49 L 18.5 48 Z " /><path fill="rgb(220,25,17)" stroke="rgb(220,25,17)" stroke-width="1" opacity="1" d="M 13.5 39 L 17 40.5 Q 16.3 44.3 18.5 45 L 22 45.5 L 18 47 Q 19.1 44.3 16.5 45 Q 14.8 41.9 13 43.5 L 14 41.5 L 12 40.5 L 13.5 39 Z " /><path fill="rgb(211,144,56)" stroke="rgb(211,144,56)" stroke-width="1" opacity="1" d="M 27.5 2 L 28 4.5 L 27 4.5 L 27.5 2 Z " /><path fill="rgb(211,144,56)" stroke="rgb(211,144,56)" stroke-width="1" opacity="1" d="M 22.5 13 L 25 14.5 L 23.5 15 L 22.5 13 Z " /><path fill="rgb(211,144,56)" stroke="rgb(211,144,56)" stroke-width="1" opacity="1" d="M 14 27 L 16 27.5 L 14 28.5 L 14 27 Z " /><path fill="rgb(211,144,56)" stroke="rgb(211,144,56)" stroke-width="1" opacity="1" d="M 25.5 29 Q 27.8 28.3 27 30.5 L 25.5 29 Z " /><path fill="rgb(211,144,56)" stroke="rgb(211,144,56)" stroke-width="1" opacity="1" d="M 24.5 37 L 24.5 39 L 26.5 38 L 27 40 L 17.5 41 L 16.5 39 L 20 39.5 Q 19.3 36.9 22 38 L 22.5 40 L 24.5 37 Z " /><path fill="rgb(211,144,56)" stroke="rgb(211,144,56)" stroke-width="1" opacity="1" d="M 4.5 42 L 5 45.5 L 3 46.5 L 4.5 42 Z " /><path fill="rgb(211,144,56)" stroke="rgb(211,144,56)" stroke-width="1" opacity="1" d="M 12.5 42 L 11.5 44 L 12.5 42 Z " /><path fill="rgb(211,144,56)" stroke="rgb(211,144,56)" stroke-width="1" opacity="1" d="M 6 44 L 8 44.5 L 6.5 48 L 6 44 Z " /><path fill="rgb(211,144,56)" stroke="rgb(211,144,56)" stroke-width="1" opacity="1" d="M 18.5 44 L 17.5 46 L 18.5 44 Z " /><path fill="rgb(211,144,56)" stroke="rgb(211,144,56)" stroke-width="1" opacity="1" d="M 26.5 46 L 27 48 L 25 47.5 L 26.5 46 Z " /><path fill="rgb(216,197,85)" stroke="rgb(216,197,85)" stroke-width="1" opacity="1" d="M 26.5 4 L 25.5 6 L 26.5 4 Z " /><path fill="rgb(216,197,85)" stroke="rgb(216,197,85)" stroke-width="1" opacity="1" d="M 23.5 9 L 25 9.5 L 22.5 11 L 23.5 9 Z " /><path fill="rgb(216,197,85)" stroke="rgb(216,197,85)" stroke-width="1" opacity="1" d="M 23 20 L 25 20.5 L 23 21.5 L 23 20 Z " /><path fill="rgb(216,197,85)" stroke="rgb(216,197,85)" stroke-width="1" opacity="1" d="M 24.5 24 L 25.5 28 L 22 26.5 Q 21.3 24.3 23.5 25 L 24.5 24 Z " /><path fill="rgb(216,197,85)" stroke="rgb(216,197,85)" stroke-width="1" opacity="1" d="M 25.5 32 L 26 34.5 L 25 34.5 L 25.5 32 Z " /><path fill="rgb(216,197,85)" stroke="rgb(216,197,85)" stroke-width="1" opacity="1" d="M 24.5 40 L 23.5 42 L 24.5 40 Z " /><path fill="rgb(216,197,85)" stroke="rgb(216,197,85)" stroke-width="1" opacity="1" d="M 2 42 Q 5.3 40.7 4 45.5 L 3.5 47 L 8.5 48 L 10.5 47 L 15 48.5 L 2 49 L 2 42 Z " /><path fill="rgb(216,197,85)" stroke="rgb(216,197,85)" stroke-width="1" opacity="1" d="M 8 42 L 11 42.5 L 10 46 L 7.5 47 L 8 45.5 L 8 42 Z " /><path fill="rgb(216,197,85)" stroke="rgb(216,197,85)" stroke-width="1" opacity="1" d="M 18.5 43 L 19.5 45 L 18.5 43 Z " /><path fill="rgb(216,197,85)" stroke="rgb(216,197,85)" stroke-width="1" opacity="1" d="M 22.5 43 Q 25.5 44.5 22.5 46 L 22.5 43 Z " /></svg>