<svg width="30" height="50" version="1.1" xmlns="http://www.w3.org/2000/svg" desc="Created with imagetracer.js version 1.2.6" ><path fill="rgb(248,244,214)" stroke="rgb(248,244,214)" stroke-width="1" opacity="1" d="M 3.5 2 Q 6.1 1.2 5 4.5 L 5 6.5 L 4.5 8 L 4 6.5 L 4 4.5 L 3.5 2 Z " /><path fill="rgb(248,244,214)" stroke="rgb(248,244,214)" stroke-width="1" opacity="1" d="M 20.5 9 L 21.5 11 L 19 10.5 L 20.5 9 Z " /><path fill="rgb(248,244,214)" stroke="rgb(248,244,214)" stroke-width="1" opacity="1" d="M 5.5 10 L 6.5 12 L 5.5 10 Z " /><path fill="rgb(248,244,214)" stroke="rgb(248,244,214)" stroke-width="1" opacity="1" d="M 21.5 12 L 22.5 14 L 21.5 12 Z " /><path fill="rgb(248,244,214)" stroke="rgb(248,244,214)" stroke-width="1" opacity="1" d="M 15.5 18 L 14.5 20 L 15.5 18 Z " /><path fill="rgb(248,244,214)" stroke="rgb(248,244,214)" stroke-width="1" opacity="1" d="M 13.5 23 L 14 25 Q 17 23.8 16 27.5 Q 14 31 12 26.5 L 14 25.5 L 13.5 23 Z " /><path fill="rgb(248,244,214)" stroke="rgb(248,244,214)" stroke-width="1" opacity="1" d="M 11.5 31 L 14 32 Q 15.3 36.6 12.5 38 L 12 36.5 L 13 34.5 L 11.5 31 Z " /><path fill="rgb(248,244,214)" stroke="rgb(248,244,214)" stroke-width="1" opacity="1" d="M 8.5 33 L 8 34.5 L 7.5 36 L 7 34.5 L 8.5 33 Z " /><path fill="rgb(248,244,214)" stroke="rgb(248,244,214)" stroke-width="1" opacity="1" d="M 2.5 34 L 3.5 36 L 2.5 34 Z " /><path fill="rgb(248,244,214)" stroke="rgb(248,244,214)" stroke-width="1" opacity="1" d="M 15.5 37 L 17 38.5 Q 13.2 40.3 16.5 42 L 18 42.5 L 16.5 43 Q 14.8 39.9 13 41.5 L 14 39 L 16 38.5 L 15.5 37 Z " /><path fill="rgb(248,244,214)" stroke="rgb(248,244,214)" stroke-width="1" opacity="1" d="M 11.5 44 L 15 44.5 L 11.5 45 L 11.5 44 Z " /><path fill="rgb(254,253,253)" stroke="rgb(254,253,253)" stroke-width="1" opacity="1" d="M 0 0 L 30 0 L 30 31.5 L 29 31.5 L 29 12.5 L 26.5 9 L 24 10.5 L 23 12.5 L 23.5 14 Q 21 12.8 22 9 L 17.5 11 L 13.5 10 L 10.5 17 L 6.5 18 L 7 16.5 L 8 11.5 Q 5.8 10.3 7 5.5 L 7 3.5 L 7.5 2 L 13 2 Q 11.8 5 15.5 4 L 17.5 2 L 27 2 L 27.5 8 L 29 4.5 L 28 2.5 L 28.5 1 L 1.5 1 L 1 3.5 L 0 3.5 L 0 0 Z " /><path fill="rgb(254,253,253)" stroke="rgb(254,253,253)" stroke-width="1" opacity="1" d="M 0.5 6 L 1 32.5 L 0 32.5 L 0.5 6 Z " /><path fill="rgb(254,253,253)" stroke="rgb(254,253,253)" stroke-width="1" opacity="1" d="M 15.5 21 L 16 23 L 14 22.5 L 15.5 21 Z " /><path fill="rgb(254,253,253)" stroke="rgb(254,253,253)" stroke-width="1" opacity="1" d="M 29.5 33 L 30 40.5 L 29 40.5 L 29.5 33 Z " /><path fill="rgb(254,253,253)" stroke="rgb(254,253,253)" stroke-width="1" opacity="1" d="M 0.5 34 L 1 49 L 30 49.5 L 0 50 L 0.5 34 Z " /><path fill="rgb(254,253,253)" stroke="rgb(254,253,253)" stroke-width="1" opacity="1" d="M 29.5 42 L 30 46.5 L 29 46.5 L 29.5 42 Z " /><path fill="rgb(253,252,248)" stroke="rgb(253,252,248)" stroke-width="1" opacity="1" d="M 5.5 1 L 8 4.5 L 6 3.5 L 5.5 1 Z " /><path fill="rgb(253,252,248)" stroke="rgb(253,252,248)" stroke-width="1" opacity="1" d="M 27.5 2 L 29 6.5 L 27 7.5 L 27.5 2 Z " /><path fill="rgb(253,252,248)" stroke="rgb(253,252,248)" stroke-width="1" opacity="1" d="M 1.5 3 L 1 4.5 L 2 9.5 L 1 9.5 L 0 4.5 L 1.5 3 Z " /><path fill="rgb(253,252,248)" stroke="rgb(253,252,248)" stroke-width="1" opacity="1" d="M 1.5 12 L 2 14.5 L 1 14.5 L 1.5 12 Z " /><path fill="rgb(253,252,248)" stroke="rgb(253,252,248)" stroke-width="1" opacity="1" d="M 28.5 12 L 29 14.5 L 28 14.5 L 28.5 12 Z " /><path fill="rgb(253,252,248)" stroke="rgb(253,252,248)" stroke-width="1" opacity="1" d="M 6.5 16 L 5.5 18 L 6.5 16 Z " /><path fill="rgb(253,252,248)" stroke="rgb(253,252,248)" stroke-width="1" opacity="1" d="M 0.5 33 L 2 35.5 L 1 35.5 L 0.5 33 Z " /><path fill="rgb(253,252,248)" stroke="rgb(253,252,248)" stroke-width="1" opacity="1" d="M 1.5 45 L 2 47.5 L 1 47.5 L 1.5 45 Z " /><path fill="rgb(253,252,248)" stroke="rgb(253,252,248)" stroke-width="1" opacity="1" d="M 29.5 47 L 30 49 L 28 48.5 L 29.5 47 Z " /><path fill="rgb(245,243,240)" stroke="rgb(245,243,240)" stroke-width="1" opacity="1" d="M 1.5 18 L 2 21.5 L 1 21.5 L 1.5 18 Z " /><path fill="rgb(245,243,240)" stroke="rgb(245,243,240)" stroke-width="1" opacity="1" d="M 28.5 21 L 29 26.5 L 28 26.5 L 28.5 21 Z " /><path fill="rgb(245,243,240)" stroke="rgb(245,243,240)" stroke-width="1" opacity="1" d="M 28.5 33 L 29 44.5 L 28 44.5 L 28.5 33 Z " /><path fill="rgb(245,243,240)" stroke="rgb(245,243,240)" stroke-width="1" opacity="1" d="M 1.5 36 L 2 40.5 L 1 40.5 L 1.5 36 Z " /><path fill="rgb(85,76,47)" stroke="rgb(85,76,47)" stroke-width="1" opacity="1" d="M 19.5 1 L 28 1.5 L 19.5 2 L 19.5 1 Z " /><path fill="rgb(85,76,47)" stroke="rgb(85,76,47)" stroke-width="1" opacity="1" d="M 21.5 14 Q 23.8 13.3 23 15.5 L 21.5 14 Z " /><path fill="rgb(85,76,47)" stroke="rgb(85,76,47)" stroke-width="1" opacity="1" d="M 3 17 L 5 17.5 L 3 18.5 L 3 17 Z " /><path fill="rgb(85,76,47)" stroke="rgb(85,76,47)" stroke-width="1" opacity="1" d="M 9.5 19 L 10 21.5 L 9.5 23 L 8 20.5 L 9.5 19 Z " /><path fill="rgb(85,76,47)" stroke="rgb(85,76,47)" stroke-width="1" opacity="1" d="M 23.5 19 Q 26.5 20.5 23.5 22 L 23.5 19 Z " /><path fill="rgb(85,76,47)" stroke="rgb(85,76,47)" stroke-width="1" opacity="1" d="M 10.5 24 L 11 26.5 Q 12.1 29.8 9.5 29 L 7.5 26 L 9.5 27 L 10.5 24 Z " /><path fill="rgb(85,76,47)" stroke="rgb(85,76,47)" stroke-width="1" opacity="1" d="M 24.5 24 L 26 26.5 L 25 26.5 L 24.5 24 Z " /><path fill="rgb(85,76,47)" stroke="rgb(85,76,47)" stroke-width="1" opacity="1" d="M 23.5 26 L 23.5 28 L 25 28.5 L 23 29.5 L 22.5 28 L 20.5 29 L 20.5 28 L 23.5 26 Z " /><path fill="rgb(85,76,47)" stroke="rgb(85,76,47)" stroke-width="1" opacity="1" d="M 4.5 30 L 7 33.5 L 4 31.5 L 4.5 30 Z " /><path fill="rgb(85,76,47)" stroke="rgb(85,76,47)" stroke-width="1" opacity="1" d="M 25.5 30 L 28 31.5 L 26.5 31 L 25.5 30 Z " /><path fill="rgb(85,76,47)" stroke="rgb(85,76,47)" stroke-width="1" opacity="1" d="M 19.5 31 Q 21.8 30.3 21 32.5 L 19.5 31 Z " /><path fill="rgb(85,76,47)" stroke="rgb(85,76,47)" stroke-width="1" opacity="1" d="M 24.5 32 L 25.5 34 L 24.5 32 Z " /><path fill="rgb(85,76,47)" stroke="rgb(85,76,47)" stroke-width="1" opacity="1" d="M 22.5 34 L 23.5 38 Q 19 36 22.5 34 Z " /><path fill="rgb(85,76,47)" stroke="rgb(85,76,47)" stroke-width="1" opacity="1" d="M 8.5 36 L 10 38.5 L 8 39 L 8.5 36 Z " /><path fill="rgb(85,76,47)" stroke="rgb(85,76,47)" stroke-width="1" opacity="1" d="M 22.5 39 L 23 41.5 L 21 40.5 L 22.5 39 Z " /><path fill="rgb(85,76,47)" stroke="rgb(85,76,47)" stroke-width="1" opacity="1" d="M 10.5 48 L 14 48.5 L 10.5 49 L 10.5 48 Z " /><path fill="rgb(85,76,47)" stroke="rgb(85,76,47)" stroke-width="1" opacity="1" d="M 16.5 48 L 19 48.5 L 16.5 49 L 16.5 48 Z " /><path fill="rgb(85,76,47)" stroke="rgb(85,76,47)" stroke-width="1" opacity="1" d="M 20.5 48 L 24 48.5 L 20.5 49 L 20.5 48 Z " /><path fill="rgb(250,243,145)" stroke="rgb(250,243,145)" stroke-width="1" opacity="1" d="M 2.5 2 L 5 5.5 L 4 7.5 L 5 10 Q 2.3 8.9 3 11.5 L 2 11.5 L 2.5 2 Z " /><path fill="rgb(250,243,145)" stroke="rgb(250,243,145)" stroke-width="1" opacity="1" d="M 13.5 29 L 15 31.5 L 13 32 L 13.5 29 Z " /><path fill="rgb(250,243,145)" stroke="rgb(250,243,145)" stroke-width="1" opacity="1" d="M 2.5 42 L 5 43.5 L 3.5 44 L 2.5 42 Z " /><path fill="rgb(250,243,145)" stroke="rgb(250,243,145)" stroke-width="1" opacity="1" d="M 7.5 45 L 8 47 L 4 46.5 L 7.5 45 Z " /><path fill="rgb(250,243,145)" stroke="rgb(250,243,145)" stroke-width="1" opacity="1" d="M 16.5 45 L 23.5 46 Q 24.8 43.8 26 46.5 L 25.5 48 L 9 48 Q 7.9 44.5 15.5 46 L 16.5 45 Z " /><path fill="rgb(148,47,44)" stroke="rgb(148,47,44)" stroke-width="1" opacity="1" d="M 14.5 10 L 14.5 13 Q 11.5 11.5 14.5 10 Z " /><path fill="rgb(148,47,44)" stroke="rgb(148,47,44)" stroke-width="1" opacity="1" d="M 15 16 L 18 16.5 L 15.5 18 L 15 16 Z " /><path fill="rgb(148,47,44)" stroke="rgb(148,47,44)" stroke-width="1" opacity="1" d="M 11.5 17 L 14 18.5 L 12.5 19 L 11.5 17 Z " /><path fill="rgb(148,47,44)" stroke="rgb(148,47,44)" stroke-width="1" opacity="1" d="M 19.5 22 L 20 28 L 18 27.5 L 19.5 22 Z " /><path fill="rgb(55,33,22)" stroke="rgb(55,33,22)" stroke-width="1" opacity="1" d="M 14.5 11 L 17 11.5 L 13.5 13 L 14.5 11 Z " /><path fill="rgb(55,33,22)" stroke="rgb(55,33,22)" stroke-width="1" opacity="1" d="M 26.5 13 L 25.5 15 L 26.5 13 Z " /><path fill="rgb(55,33,22)" stroke="rgb(55,33,22)" stroke-width="1" opacity="1" d="M 4 15 L 6 15.5 L 4 16.5 L 4 15 Z " /><path fill="rgb(55,33,22)" stroke="rgb(55,33,22)" stroke-width="1" opacity="1" d="M 25.5 17 L 26.5 19 L 25.5 17 Z " /><path fill="rgb(55,33,22)" stroke="rgb(55,33,22)" stroke-width="1" opacity="1" d="M 6.5 19 L 9 19.5 L 6.5 20 L 6.5 19 Z " /><path fill="rgb(55,33,22)" stroke="rgb(55,33,22)" stroke-width="1" opacity="1" d="M 2.5 21 L 9 25.5 L 6.5 27 Q 4.3 22.8 2 24.5 L 3 22.5 L 2.5 21 Z " /><path fill="rgb(55,33,22)" stroke="rgb(55,33,22)" stroke-width="1" opacity="1" d="M 26 21 L 28 21.5 L 27 23.5 L 28 25.5 L 26.5 25 L 23 23.5 L 26 23 L 26 21 Z " /><path fill="rgb(55,33,22)" stroke="rgb(55,33,22)" stroke-width="1" opacity="1" d="M 20 25 L 23 25.5 L 21 26.5 L 21.5 28 Q 18.5 28.7 20 25 Z " /><path fill="rgb(55,33,22)" stroke="rgb(55,33,22)" stroke-width="1" opacity="1" d="M 3.5 26 L 5 30 L 2 29.5 L 4 28.5 L 3.5 26 Z " /><path fill="rgb(55,33,22)" stroke="rgb(55,33,22)" stroke-width="1" opacity="1" d="M 24.5 26 L 27 27 L 26.5 30 L 26 28 L 23 27.5 L 24.5 26 Z " /><path fill="rgb(55,33,22)" stroke="rgb(55,33,22)" stroke-width="1" opacity="1" d="M 20.5 30 L 24 31.5 L 22 32.5 L 24 33.5 L 21 34 Q 22.1 36.7 19.5 36 L 21 33.5 L 20.5 30 Z " /><path fill="rgb(55,33,22)" stroke="rgb(55,33,22)" stroke-width="1" opacity="1" d="M 8.5 31 Q 10.8 30.3 10 32.5 L 8.5 31 Z " /><path fill="rgb(55,33,22)" stroke="rgb(55,33,22)" stroke-width="1" opacity="1" d="M 26.5 31 Q 24.9 32.8 28 34.5 Q 29.3 39.3 26 38 L 27 34.5 Q 23.3 32.7 26.5 31 Z " /><path fill="rgb(55,33,22)" stroke="rgb(55,33,22)" stroke-width="1" opacity="1" d="M 2.5 36 L 4 39.5 L 2 40.5 L 2.5 36 Z " /><path fill="rgb(55,33,22)" stroke="rgb(55,33,22)" stroke-width="1" opacity="1" d="M 22.5 38 L 24 38.5 L 20.5 40 L 20.5 39 L 22.5 38 Z " /><path fill="rgb(55,33,22)" stroke="rgb(55,33,22)" stroke-width="1" opacity="1" d="M 5.5 40 L 8 41.5 L 6.5 42 L 5.5 40 Z " /><path fill="rgb(131,110,68)" stroke="rgb(131,110,68)" stroke-width="1" opacity="1" d="M 17.5 11 L 16.5 13 L 17.5 11 Z " /><path fill="rgb(131,110,68)" stroke="rgb(131,110,68)" stroke-width="1" opacity="1" d="M 20 13 L 22 13.5 L 20.5 16 L 20 13 Z " /><path fill="rgb(131,110,68)" stroke="rgb(131,110,68)" stroke-width="1" opacity="1" d="M 12.5 16 L 13.5 18 L 12.5 16 Z " /><path fill="rgb(131,110,68)" stroke="rgb(131,110,68)" stroke-width="1" opacity="1" d="M 24.5 17 Q 27.5 18.5 24.5 20 Q 21.5 18.5 24.5 17 Z " /><path fill="rgb(131,110,68)" stroke="rgb(131,110,68)" stroke-width="1" opacity="1" d="M 3.5 19 L 6 20.5 L 4.5 21 L 2 20.5 L 3.5 19 Z " /><path fill="rgb(131,110,68)" stroke="rgb(131,110,68)" stroke-width="1" opacity="1" d="M 7.5 20 L 10 20.5 L 7 22.5 L 7.5 20 Z " /><path fill="rgb(131,110,68)" stroke="rgb(131,110,68)" stroke-width="1" opacity="1" d="M 22.5 23 L 23.5 25 L 21.5 25 L 20 24.5 L 22.5 23 Z " /><path fill="rgb(131,110,68)" stroke="rgb(131,110,68)" stroke-width="1" opacity="1" d="M 9.5 24 L 10.5 26 L 9.5 24 Z " /><path fill="rgb(131,110,68)" stroke="rgb(131,110,68)" stroke-width="1" opacity="1" d="M 18.5 26 L 17.5 28 L 18.5 26 Z " /><path fill="rgb(131,110,68)" stroke="rgb(131,110,68)" stroke-width="1" opacity="1" d="M 11.5 27 L 12 28.5 L 6.5 31 L 5.5 29 L 9.5 29 Q 12 29.7 11.5 27 Z " /><path fill="rgb(131,110,68)" stroke="rgb(131,110,68)" stroke-width="1" opacity="1" d="M 18.5 29 L 19.5 31 L 17 30.5 L 18.5 29 Z " /><path fill="rgb(131,110,68)" stroke="rgb(131,110,68)" stroke-width="1" opacity="1" d="M 10.5 31 L 11 35.5 L 10 35.5 L 10.5 31 Z " /><path fill="rgb(131,110,68)" stroke="rgb(131,110,68)" stroke-width="1" opacity="1" d="M 10.5 37 L 11 38.5 L 9 39.5 L 10.5 37 Z " /><path fill="rgb(131,110,68)" stroke="rgb(131,110,68)" stroke-width="1" opacity="1" d="M 19.5 39 L 20.5 41 L 19.5 39 Z " /><path fill="rgb(131,110,68)" stroke="rgb(131,110,68)" stroke-width="1" opacity="1" d="M 25.5 41 L 24.5 43 L 25.5 41 Z " /><path fill="rgb(131,110,68)" stroke="rgb(131,110,68)" stroke-width="1" opacity="1" d="M 2.5 44 L 5 45.5 L 3.5 45 L 2.5 44 Z " /><path fill="rgb(131,110,68)" stroke="rgb(131,110,68)" stroke-width="1" opacity="1" d="M 20.5 44 L 21.5 46 L 20.5 44 Z " /><path fill="rgb(131,110,68)" stroke="rgb(131,110,68)" stroke-width="1" opacity="1" d="M 3.5 47 L 4 49 L 2 48.5 L 3.5 47 Z " /><path fill="rgb(131,110,68)" stroke="rgb(131,110,68)" stroke-width="1" opacity="1" d="M 6.5 48 L 10 48.5 L 6.5 49 L 6.5 48 Z " /><path fill="rgb(203,185,138)" stroke="rgb(203,185,138)" stroke-width="1" opacity="1" d="M 9.5 1 L 12 1.5 L 9.5 2 L 9.5 1 Z " /><path fill="rgb(203,185,138)" stroke="rgb(203,185,138)" stroke-width="1" opacity="1" d="M 13.5 10 L 12.5 12 L 13.5 10 Z " /><path fill="rgb(203,185,138)" stroke="rgb(203,185,138)" stroke-width="1" opacity="1" d="M 26.5 14 L 26 15.5 L 25.5 17 L 25 15.5 L 26.5 14 Z " /><path fill="rgb(203,185,138)" stroke="rgb(203,185,138)" stroke-width="1" opacity="1" d="M 16.5 18 L 18 18.5 L 15.5 20 L 16.5 18 Z " /><path fill="rgb(203,185,138)" stroke="rgb(203,185,138)" stroke-width="1" opacity="1" d="M 11.5 19 L 10.5 21 L 11.5 19 Z " /><path fill="rgb(203,185,138)" stroke="rgb(203,185,138)" stroke-width="1" opacity="1" d="M 14 23 L 17.5 24 L 19 23.5 L 17.5 27 L 15.5 24 L 14 24.5 L 14 23 Z " /><path fill="rgb(203,185,138)" stroke="rgb(203,185,138)" stroke-width="1" opacity="1" d="M 12.5 28 L 12.5 31 Q 9.5 29.5 12.5 28 Z " /><path fill="rgb(203,185,138)" stroke="rgb(203,185,138)" stroke-width="1" opacity="1" d="M 22.5 28 L 21.5 30 L 22.5 28 Z " /><path fill="rgb(203,185,138)" stroke="rgb(203,185,138)" stroke-width="1" opacity="1" d="M 8.5 32 L 10 35.5 L 8 34.5 L 8.5 32 Z " /><path fill="rgb(203,185,138)" stroke="rgb(203,185,138)" stroke-width="1" opacity="1" d="M 15.5 32 L 17 34.5 L 15 33.5 L 15.5 32 Z " /><path fill="rgb(203,185,138)" stroke="rgb(203,185,138)" stroke-width="1" opacity="1" d="M 22.5 35 Q 25.5 36.5 22.5 38 L 22.5 35 Z " /><path fill="rgb(203,185,138)" stroke="rgb(203,185,138)" stroke-width="1" opacity="1" d="M 14.5 37 L 14 38.5 L 13.5 40 Q 12.3 37.8 11 40.5 L 11.5 42 Q 8 40 12.5 38 L 14.5 37 Z " /><path fill="rgb(203,185,138)" stroke="rgb(203,185,138)" stroke-width="1" opacity="1" d="M 18.5 41 L 21 41.5 L 18.5 42 L 18.5 41 Z " /><path fill="rgb(193,172,112)" stroke="rgb(193,172,112)" stroke-width="1" opacity="1" d="M 4.5 11 L 5.5 13 Q 2.7 13.7 4.5 11 Z " /><path fill="rgb(193,172,112)" stroke="rgb(193,172,112)" stroke-width="1" opacity="1" d="M 25.5 11 L 27 11.5 L 25.5 14 Q 22.5 12.5 25.5 11 Z " /><path fill="rgb(193,172,112)" stroke="rgb(193,172,112)" stroke-width="1" opacity="1" d="M 3 14 L 6 14.5 L 3.5 16 L 3 14 Z " /><path fill="rgb(193,172,112)" stroke="rgb(193,172,112)" stroke-width="1" opacity="1" d="M 14.5 14 Q 17.5 15.5 14.5 17 L 14.5 14 Z " /><path fill="rgb(193,172,112)" stroke="rgb(193,172,112)" stroke-width="1" opacity="1" d="M 26.5 19 L 25.5 21 L 26.5 19 Z " /><path fill="rgb(193,172,112)" stroke="rgb(193,172,112)" stroke-width="1" opacity="1" d="M 4.5 21 L 7 22.5 L 6.5 24 L 6 22 L 4.5 21 Z " /><path fill="rgb(193,172,112)" stroke="rgb(193,172,112)" stroke-width="1" opacity="1" d="M 11.5 22 Q 13.8 21.3 13 23.5 L 11.5 22 Z " /><path fill="rgb(193,172,112)" stroke="rgb(193,172,112)" stroke-width="1" opacity="1" d="M 4 26 L 6 26.5 L 3 28.5 L 4 26 Z " /><path fill="rgb(193,172,112)" stroke="rgb(193,172,112)" stroke-width="1" opacity="1" d="M 16.5 28 L 17.5 31 L 19 30.5 L 20 32.5 L 18.5 32 L 14 29.5 L 16.5 28 Z " /><path fill="rgb(193,172,112)" stroke="rgb(193,172,112)" stroke-width="1" opacity="1" d="M 3.5 30 L 2.5 32 L 3.5 30 Z " /><path fill="rgb(193,172,112)" stroke="rgb(193,172,112)" stroke-width="1" opacity="1" d="M 6.5 43 L 7 45.5 L 5.5 45 L 4 44.5 L 6.5 43 Z " /><path fill="rgb(193,172,112)" stroke="rgb(193,172,112)" stroke-width="1" opacity="1" d="M 21.5 44 Q 27.6 42.8 27 45.5 L 25.5 45 Q 20.5 46 21.5 44 Z " /><path fill="rgb(219,209,133)" stroke="rgb(219,209,133)" stroke-width="1" opacity="1" d="M 21.5 21 Q 24.5 22.5 21.5 24 L 21.5 21 Z " /><path fill="rgb(219,209,133)" stroke="rgb(219,209,133)" stroke-width="1" opacity="1" d="M 17.5 40 L 18 42 L 16 41.5 L 17.5 40 Z " /><path fill="rgb(219,209,133)" stroke="rgb(219,209,133)" stroke-width="1" opacity="1" d="M 10.5 41 L 11 42.5 L 9 43.5 L 10.5 41 Z " /><path fill="rgb(163,138,102)" stroke="rgb(163,138,102)" stroke-width="1" opacity="1" d="M 15.5 1 L 18 1.5 L 15.5 2 L 15.5 1 Z " /><path fill="rgb(163,138,102)" stroke="rgb(163,138,102)" stroke-width="1" opacity="1" d="M 15.5 12 L 16 14 L 14 13.5 L 15.5 12 Z " /><path fill="rgb(163,138,102)" stroke="rgb(163,138,102)" stroke-width="1" opacity="1" d="M 6.5 15 L 5.5 17 L 6.5 15 Z " /><path fill="rgb(163,138,102)" stroke="rgb(163,138,102)" stroke-width="1" opacity="1" d="M 14.5 17 L 15 18.5 L 12.5 20 L 12.5 19 Q 15 19.7 14.5 17 Z " /><path fill="rgb(163,138,102)" stroke="rgb(163,138,102)" stroke-width="1" opacity="1" d="M 5.5 18 L 9 18.5 L 5.5 19 L 5.5 18 Z " /><path fill="rgb(163,138,102)" stroke="rgb(163,138,102)" stroke-width="1" opacity="1" d="M 24.5 18 L 26.5 21 L 24.5 18 Z " /><path fill="rgb(163,138,102)" stroke="rgb(163,138,102)" stroke-width="1" opacity="1" d="M 18.5 19 L 19 21.5 L 18.5 23 L 17.5 21 L 16.5 23 L 16 21.5 L 18.5 19 Z " /><path fill="rgb(163,138,102)" stroke="rgb(163,138,102)" stroke-width="1" opacity="1" d="M 22 20 L 24 20.5 L 23.5 22 L 25 22.5 L 23.5 23 L 22 20 Z " /><path fill="rgb(163,138,102)" stroke="rgb(163,138,102)" stroke-width="1" opacity="1" d="M 8.5 23 L 7.5 25 L 8.5 23 Z " /><path fill="rgb(163,138,102)" stroke="rgb(163,138,102)" stroke-width="1" opacity="1" d="M 11.5 23 L 12 26.5 L 11 26.5 L 11.5 23 Z " /><path fill="rgb(163,138,102)" stroke="rgb(163,138,102)" stroke-width="1" opacity="1" d="M 16.5 27 L 17.5 29 L 16.5 27 Z " /><path fill="rgb(163,138,102)" stroke="rgb(163,138,102)" stroke-width="1" opacity="1" d="M 16.5 31 L 17.5 33 Q 14.7 33.7 16.5 31 Z " /><path fill="rgb(163,138,102)" stroke="rgb(163,138,102)" stroke-width="1" opacity="1" d="M 20.5 33 L 21.5 35 L 20.5 33 Z " /><path fill="rgb(163,138,102)" stroke="rgb(163,138,102)" stroke-width="1" opacity="1" d="M 11.5 38 L 11.5 41 Q 8.5 39.5 11.5 38 Z " /><path fill="rgb(163,138,102)" stroke="rgb(163,138,102)" stroke-width="1" opacity="1" d="M 24.5 39 L 25.5 41 L 24.5 39 Z " /><path fill="rgb(163,138,102)" stroke="rgb(163,138,102)" stroke-width="1" opacity="1" d="M 17.5 43 L 20 44.5 L 18.5 44 L 17.5 43 Z " /><path fill="rgb(163,138,102)" stroke="rgb(163,138,102)" stroke-width="1" opacity="1" d="M 27.5 47 L 28 49 L 25 48.5 L 27.5 47 Z " /><path fill="rgb(253,251,239)" stroke="rgb(253,251,239)" stroke-width="1" opacity="1" d="M 4.5 1 Q 7.6 2.4 7 7.5 L 7 9.5 L 6.5 11 Q 4.3 10.3 5 6.5 L 5 4.5 L 4.5 1 Z " /><path fill="rgb(253,251,239)" stroke="rgb(253,251,239)" stroke-width="1" opacity="1" d="M 25.5 9 L 24.5 11 L 25.5 9 Z " /><path fill="rgb(253,251,239)" stroke="rgb(253,251,239)" stroke-width="1" opacity="1" d="M 12 40 L 15 41.5 L 12 41.5 L 12 40 Z " /><path fill="rgb(242,219,124)" stroke="rgb(242,219,124)" stroke-width="1" opacity="1" d="M 3.5 10 L 4 11.5 L 2.5 14 L 2 12.5 L 3.5 10 Z " /><path fill="rgb(242,219,124)" stroke="rgb(242,219,124)" stroke-width="1" opacity="1" d="M 17.5 17 L 18.5 19 L 17.5 17 Z " /><path fill="rgb(242,219,124)" stroke="rgb(242,219,124)" stroke-width="1" opacity="1" d="M 12.5 21 L 13.5 23 L 12.5 21 Z " /><path fill="rgb(242,219,124)" stroke="rgb(242,219,124)" stroke-width="1" opacity="1" d="M 16.5 36 L 18 38.5 L 17 38.5 L 16.5 36 Z " /><path fill="rgb(242,219,124)" stroke="rgb(242,219,124)" stroke-width="1" opacity="1" d="M 9.5 44 L 12 45.5 L 9 46 L 8.5 48 L 8 45.5 L 9.5 44 Z " /><path fill="rgb(242,219,124)" stroke="rgb(242,219,124)" stroke-width="1" opacity="1" d="M 3.5 45 L 5 47.5 L 2 47.5 L 3.5 45 Z " /><path fill="rgb(219,210,189)" stroke="rgb(219,210,189)" stroke-width="1" opacity="1" d="M 6.5 1 L 9 1.5 L 6.5 2 L 6.5 1 Z " /><path fill="rgb(219,210,189)" stroke="rgb(219,210,189)" stroke-width="1" opacity="1" d="M 12.5 1 Q 14.8 0.3 14 2.5 L 12.5 1 Z " /><path fill="rgb(219,210,189)" stroke="rgb(219,210,189)" stroke-width="1" opacity="1" d="M 18.5 11 L 19.5 13 L 18.5 11 Z " /><path fill="rgb(219,210,189)" stroke="rgb(219,210,189)" stroke-width="1" opacity="1" d="M 23.5 14 L 24 16.5 L 23 16.5 L 23.5 14 Z " /><path fill="rgb(219,210,189)" stroke="rgb(219,210,189)" stroke-width="1" opacity="1" d="M 19.5 15 L 20.5 18 L 22 17.5 L 21 19.5 L 21.5 21 L 18 16.5 L 19.5 15 Z " /><path fill="rgb(219,210,189)" stroke="rgb(219,210,189)" stroke-width="1" opacity="1" d="M 11.5 16 L 10.5 18 L 11.5 16 Z " /><path fill="rgb(219,210,189)" stroke="rgb(219,210,189)" stroke-width="1" opacity="1" d="M 4.5 32 L 5.5 34 L 4.5 32 Z " /><path fill="rgb(219,210,189)" stroke="rgb(219,210,189)" stroke-width="1" opacity="1" d="M 24.5 33 L 25 35 L 23 34.5 L 24.5 33 Z " /><path fill="rgb(219,210,189)" stroke="rgb(219,210,189)" stroke-width="1" opacity="1" d="M 18.5 36 L 19.5 38 L 18.5 36 Z " /><path fill="rgb(219,210,189)" stroke="rgb(219,210,189)" stroke-width="1" opacity="1" d="M 7.5 38 L 6.5 40 L 7.5 38 Z " /><path fill="rgb(219,210,189)" stroke="rgb(219,210,189)" stroke-width="1" opacity="1" d="M 24.5 38 Q 27.5 39.5 24.5 41 L 23 40.5 L 25 39.5 L 24.5 38 Z " /><path fill="rgb(219,210,189)" stroke="rgb(219,210,189)" stroke-width="1" opacity="1" d="M 14.5 43 L 17 44.5 L 15.5 44 L 14.5 43 Z " /><path fill="rgb(219,210,189)" stroke="rgb(219,210,189)" stroke-width="1" opacity="1" d="M 19.5 43 L 18.5 45 L 19.5 43 Z " /></svg>