<svg width="30" height="50" version="1.1" xmlns="http://www.w3.org/2000/svg" desc="Created with imagetracer.js version 1.2.6" ><path fill="rgb(231,221,82)" stroke="rgb(231,221,82)" stroke-width="1" opacity="1" d="M 14.5 6 L 17 7.5 L 15.5 11 L 14 10.5 L 16 10 Q 17.5 6.2 14.5 7 L 14.5 9 Q 11.5 7.5 14.5 6 Z " /><path fill="rgb(231,221,82)" stroke="rgb(231,221,82)" stroke-width="1" opacity="1" d="M 4.5 9 L 8 11.5 Q 8.8 13.8 6.5 13 L 3 14 L 3.5 12 L 5.5 13 Q 8.5 11.5 5.5 10 L 3.5 11 L 4.5 9 Z " /><path fill="rgb(231,221,82)" stroke="rgb(231,221,82)" stroke-width="1" opacity="1" d="M 24.5 9 Q 27.8 7.9 27 10.5 L 27 12.5 Q 27.8 15.1 24.5 14 L 23.5 12 L 25.5 13 L 24.5 11 L 23 10.5 L 24.5 9 Z " /><path fill="rgb(231,221,82)" stroke="rgb(231,221,82)" stroke-width="1" opacity="1" d="M 4.5 15 L 8 17.5 Q 8.8 19.8 6.5 19 L 4.5 20 L 3.5 18 L 5.5 19 L 4.5 17 L 3 16.5 L 4.5 15 Z " /><path fill="rgb(231,221,82)" stroke="rgb(231,221,82)" stroke-width="1" opacity="1" d="M 25.5 15 L 28 18.5 L 27 18.5 L 25.5 16 L 23.5 17 L 23.5 16 L 25.5 15 Z " /><path fill="rgb(231,221,82)" stroke="rgb(231,221,82)" stroke-width="1" opacity="1" d="M 14.5 17 L 17 18.5 Q 17.8 21.1 14.5 20 L 14.5 21 L 16 21.5 L 14.5 22 L 13 18.5 L 14.5 17 Z " /><path fill="rgb(231,221,82)" stroke="rgb(231,221,82)" stroke-width="1" opacity="1" d="M 25.5 28 L 28 32 L 23 33 Q 21.9 30.3 24.5 31 L 24.5 30 L 23 29.5 L 25.5 28 Z " /><path fill="rgb(231,221,82)" stroke="rgb(231,221,82)" stroke-width="1" opacity="1" d="M 3.5 31 L 4.5 33 L 5 31 L 8 31.5 L 6 32 Q 7.1 34.7 4.5 34 L 3.5 31 Z " /><path fill="rgb(231,221,82)" stroke="rgb(231,221,82)" stroke-width="1" opacity="1" d="M 13.5 42 L 17 42.5 L 13.5 43 L 13.5 42 Z " /><path fill="rgb(231,221,82)" stroke="rgb(231,221,82)" stroke-width="1" opacity="1" d="M 13.5 44 Q 15.8 43.3 15 45.5 L 13.5 44 Z " /><path fill="rgb(231,221,82)" stroke="rgb(231,221,82)" stroke-width="1" opacity="1" d="M 11.5 46 L 10.5 48 L 11.5 46 Z " /><path fill="rgb(129,121,66)" stroke="rgb(129,121,66)" stroke-width="1" opacity="1" d="M 17.5 9 L 16.5 11 L 17.5 9 Z " /><path fill="rgb(129,121,66)" stroke="rgb(129,121,66)" stroke-width="1" opacity="1" d="M 19.5 20 L 20 22 L 18 21.5 L 19.5 20 Z " /><path fill="rgb(129,121,66)" stroke="rgb(129,121,66)" stroke-width="1" opacity="1" d="M 26.5 22 L 27.5 24 L 25 23.5 L 26.5 22 Z " /><path fill="rgb(129,121,66)" stroke="rgb(129,121,66)" stroke-width="1" opacity="1" d="M 5.5 30 L 4.5 32 L 5.5 30 Z " /><path fill="rgb(129,121,66)" stroke="rgb(129,121,66)" stroke-width="1" opacity="1" d="M 11.5 34 L 13 36.5 L 12 36.5 L 11.5 34 Z " /><path fill="rgb(129,121,66)" stroke="rgb(129,121,66)" stroke-width="1" opacity="1" d="M 13 38 L 15.5 39 L 17 38.5 L 15.5 40 L 13 39.5 L 13 38 Z " /><path fill="rgb(129,121,66)" stroke="rgb(129,121,66)" stroke-width="1" opacity="1" d="M 18.5 41 L 19 42.5 L 18.5 45 Q 15.8 43.8 18 42.5 L 18.5 41 Z " /><path fill="rgb(129,121,66)" stroke="rgb(129,121,66)" stroke-width="1" opacity="1" d="M 8.5 43 Q 11.8 41.9 11 44.5 L 9.5 44 L 8.5 43 Z " /><path fill="rgb(129,121,66)" stroke="rgb(129,121,66)" stroke-width="1" opacity="1" d="M 27.5 43 L 28 46 L 25 44.5 L 27.5 43 Z " /><path fill="rgb(129,121,66)" stroke="rgb(129,121,66)" stroke-width="1" opacity="1" d="M 4.5 45 L 6 47.5 L 4 46.5 L 4.5 45 Z " /><path fill="rgb(124,205,220)" stroke="rgb(124,205,220)" stroke-width="1" opacity="1" d="M 21.5 9 Q 23.8 8.3 23 10.5 L 22.5 13 L 18 13.5 L 19 16.5 L 18.5 19 Q 17.8 16.2 13.5 17 L 12 17.5 Q 10.5 13.1 13.5 14 L 21.5 9 Z " /><path fill="rgb(124,205,220)" stroke="rgb(124,205,220)" stroke-width="1" opacity="1" d="M 27.5 13 L 28 15.5 L 26.5 15 L 22.5 17 L 22 14 L 27.5 13 Z " /><path fill="rgb(124,205,220)" stroke="rgb(124,205,220)" stroke-width="1" opacity="1" d="M 22.5 19 L 26 21.5 L 22 22 L 22.5 19 Z " /><path fill="rgb(247,245,244)" stroke="rgb(247,245,244)" stroke-width="1" opacity="1" d="M 0 0 L 30 0 L 30 50 L 0 50 L 0 0 Z M 18 1 L 18 4 L 19 5 L 16 4 L 16 2 L 11 6 L 9 6 L 2 5 L 2 3 L 1 12 L 1 14 L 2 15 L 2 49 L 20 49 L 21 48 Q 22 51 28 49 L 29 47 L 29 45 L 28 43 L 29 41 L 29 32 L 28 31 L 28 1 L 18 1 Z " /><path fill="rgb(247,245,244)" stroke="rgb(247,245,244)" stroke-width="1" opacity="1" d="M 23 45 L 26 46.5 L 23 47 L 23 45 Z " /><path fill="rgb(133,134,135)" stroke="rgb(133,134,135)" stroke-width="1" opacity="1" d="M 21.5 1 L 24 1.5 L 21.5 2 L 21.5 1 Z " /><path fill="rgb(133,134,135)" stroke="rgb(133,134,135)" stroke-width="1" opacity="1" d="M 6.5 6 L 7 8 Q 9.7 9.1 9 6.5 L 10 6.5 L 8.5 9 Q 4.1 10.1 6.5 6 Z " /><path fill="rgb(133,134,135)" stroke="rgb(133,134,135)" stroke-width="1" opacity="1" d="M 8.5 11 Q 10.8 10.3 10 12.5 L 8.5 11 Z " /><path fill="rgb(133,134,135)" stroke="rgb(133,134,135)" stroke-width="1" opacity="1" d="M 12.5 11 L 13.5 13 L 15 12.5 Q 13.8 15.3 12.5 13 L 11 12.5 L 12.5 11 Z " /><path fill="rgb(133,134,135)" stroke="rgb(133,134,135)" stroke-width="1" opacity="1" d="M 3.5 15 L 2.5 17 L 3.5 15 Z " /><path fill="rgb(133,134,135)" stroke="rgb(133,134,135)" stroke-width="1" opacity="1" d="M 6.5 20 L 9 20.5 L 6.5 21 L 6.5 20 Z " /><path fill="rgb(133,134,135)" stroke="rgb(133,134,135)" stroke-width="1" opacity="1" d="M 10.5 26 L 9.5 28 L 10.5 26 Z " /><path fill="rgb(133,134,135)" stroke="rgb(133,134,135)" stroke-width="1" opacity="1" d="M 14.5 28 L 15.5 30 Q 12.7 30.7 14.5 28 Z " /><path fill="rgb(133,134,135)" stroke="rgb(133,134,135)" stroke-width="1" opacity="1" d="M 17.5 34 L 18.5 36 L 17.5 34 Z " /><path fill="rgb(133,134,135)" stroke="rgb(133,134,135)" stroke-width="1" opacity="1" d="M 24.5 44 L 26.5 47 L 24.5 44 Z " /><path fill="rgb(133,134,135)" stroke="rgb(133,134,135)" stroke-width="1" opacity="1" d="M 8.5 47 L 9.5 49 L 5 48.5 L 8.5 47 Z " /><path fill="rgb(152,105,40)" stroke="rgb(152,105,40)" stroke-width="1" opacity="1" d="M 25.5 10 L 25.5 13 Q 22.5 11.5 25.5 10 Z " /><path fill="rgb(152,105,40)" stroke="rgb(152,105,40)" stroke-width="1" opacity="1" d="M 20.5 13 Q 23.8 14.8 22 21.5 L 21 21.5 Q 21.6 14.8 20.5 13 Z " /><path fill="rgb(152,105,40)" stroke="rgb(152,105,40)" stroke-width="1" opacity="1" d="M 25.5 16 L 24.5 18 L 25.5 16 Z " /><path fill="rgb(152,105,40)" stroke="rgb(152,105,40)" stroke-width="1" opacity="1" d="M 15.5 20 L 18 21.5 L 16.5 22 L 15.5 20 Z " /><path fill="rgb(152,105,40)" stroke="rgb(152,105,40)" stroke-width="1" opacity="1" d="M 10.5 22 L 12 24.5 L 10 23.5 L 10.5 22 Z " /><path fill="rgb(152,105,40)" stroke="rgb(152,105,40)" stroke-width="1" opacity="1" d="M 19.5 22 L 20 24 L 22 24.5 L 20.5 25 L 19.5 22 Z " /><path fill="rgb(152,105,40)" stroke="rgb(152,105,40)" stroke-width="1" opacity="1" d="M 14.5 24 L 14 25.5 L 13.5 27 L 13 25.5 L 14.5 24 Z " /><path fill="rgb(152,105,40)" stroke="rgb(152,105,40)" stroke-width="1" opacity="1" d="M 20.5 26 L 20 27.5 L 19.5 31 L 17.5 28 L 16 27.5 L 20.5 26 Z " /><path fill="rgb(152,105,40)" stroke="rgb(152,105,40)" stroke-width="1" opacity="1" d="M 15.5 35 L 16 36.5 L 13.5 38 L 13.5 37 Q 16 37.7 15.5 35 Z " /><path fill="rgb(152,105,40)" stroke="rgb(152,105,40)" stroke-width="1" opacity="1" d="M 11.5 41 L 12 43 L 10 42.5 L 11.5 41 Z " /><path fill="rgb(152,105,40)" stroke="rgb(152,105,40)" stroke-width="1" opacity="1" d="M 16.5 43 L 15.5 45 L 16.5 43 Z " /><path fill="rgb(76,65,56)" stroke="rgb(76,65,56)" stroke-width="1" opacity="1" d="M 22.5 6 L 23 8.5 L 22 8.5 L 22.5 6 Z " /><path fill="rgb(76,65,56)" stroke="rgb(76,65,56)" stroke-width="1" opacity="1" d="M 19 8 L 21 8.5 L 19 9.5 L 19 8 Z " /><path fill="rgb(76,65,56)" stroke="rgb(76,65,56)" stroke-width="1" opacity="1" d="M 8.5 9 L 9.5 11 L 8.5 9 Z " /><path fill="rgb(76,65,56)" stroke="rgb(76,65,56)" stroke-width="1" opacity="1" d="M 8.5 14 L 9.5 16 L 8.5 14 Z " /><path fill="rgb(76,65,56)" stroke="rgb(76,65,56)" stroke-width="1" opacity="1" d="M 8 17 Q 11 16 10 19 L 7.5 20 L 8 18.5 L 8 17 Z " /><path fill="rgb(76,65,56)" stroke="rgb(76,65,56)" stroke-width="1" opacity="1" d="M 8.5 24 Q 10.8 23.3 10 25.5 L 8.5 24 Z " /><path fill="rgb(76,65,56)" stroke="rgb(76,65,56)" stroke-width="1" opacity="1" d="M 14.5 26 L 16 26.5 L 13 28.5 L 14.5 31 Q 9.5 28.5 14.5 26 Z " /><path fill="rgb(76,65,56)" stroke="rgb(76,65,56)" stroke-width="1" opacity="1" d="M 21.5 35 L 23 37.5 L 21 36.5 L 21.5 35 Z " /><path fill="rgb(76,65,56)" stroke="rgb(76,65,56)" stroke-width="1" opacity="1" d="M 21.5 41 L 23.5 44 L 21.5 41 Z " /><path fill="rgb(86,89,91)" stroke="rgb(86,89,91)" stroke-width="1" opacity="1" d="M 2.5 6 L 3 9.5 L 2 9.5 L 2.5 6 Z " /><path fill="rgb(86,89,91)" stroke="rgb(86,89,91)" stroke-width="1" opacity="1" d="M 10.5 6 L 12 8.5 L 9 8.5 L 10.5 6 Z " /><path fill="rgb(86,89,91)" stroke="rgb(86,89,91)" stroke-width="1" opacity="1" d="M 18 6 Q 23.2 3.9 22 8.5 L 21 8.5 L 20.5 7 L 18.5 10 L 18 6 Z " /><path fill="rgb(86,89,91)" stroke="rgb(86,89,91)" stroke-width="1" opacity="1" d="M 24.5 6 L 27 6.5 L 24.5 7 L 24.5 6 Z " /><path fill="rgb(86,89,91)" stroke="rgb(86,89,91)" stroke-width="1" opacity="1" d="M 10 10 Q 12.7 8.9 12 11.5 L 10.5 14 L 10 10 Z " /><path fill="rgb(86,89,91)" stroke="rgb(86,89,91)" stroke-width="1" opacity="1" d="M 10.5 15 L 11.5 17 L 10.5 15 Z " /><path fill="rgb(86,89,91)" stroke="rgb(86,89,91)" stroke-width="1" opacity="1" d="M 8.5 19 L 10 21.5 L 9 21.5 L 8.5 19 Z " /><path fill="rgb(86,89,91)" stroke="rgb(86,89,91)" stroke-width="1" opacity="1" d="M 5.5 25 L 6.5 27 Q 3.7 27.7 5.5 25 Z " /><path fill="rgb(86,89,91)" stroke="rgb(86,89,91)" stroke-width="1" opacity="1" d="M 2.5 27 L 5 28.5 L 3.5 29 L 2.5 27 Z " /><path fill="rgb(86,89,91)" stroke="rgb(86,89,91)" stroke-width="1" opacity="1" d="M 14.5 27 Q 16.8 26.3 16 28.5 L 14.5 27 Z " /><path fill="rgb(86,89,91)" stroke="rgb(86,89,91)" stroke-width="1" opacity="1" d="M 15.5 30 L 18 31.5 Q 18.8 34.1 15.5 33 L 13 34 L 15.5 30 Z " /><path fill="rgb(86,89,91)" stroke="rgb(86,89,91)" stroke-width="1" opacity="1" d="M 2.5 32 L 3.5 34 L 2.5 32 Z " /><path fill="rgb(86,89,91)" stroke="rgb(86,89,91)" stroke-width="1" opacity="1" d="M 19.5 32 L 20 33.5 L 18 34.5 L 19.5 32 Z " /><path fill="rgb(86,89,91)" stroke="rgb(86,89,91)" stroke-width="1" opacity="1" d="M 17.5 38 L 19.5 39 L 21 38.5 L 18.5 40 L 17.5 38 Z " /><path fill="rgb(179,165,79)" stroke="rgb(179,165,79)" stroke-width="1" opacity="1" d="M 13.5 6 L 16 7 L 15.5 9 L 14 8.5 L 13.5 11 L 12 9.5 L 13.5 6 Z " /><path fill="rgb(179,165,79)" stroke="rgb(179,165,79)" stroke-width="1" opacity="1" d="M 23.5 11 L 24.5 13 L 23.5 11 Z " /><path fill="rgb(179,165,79)" stroke="rgb(179,165,79)" stroke-width="1" opacity="1" d="M 19.5 14 L 20 16.5 L 19 16.5 L 19.5 14 Z " /><path fill="rgb(179,165,79)" stroke="rgb(179,165,79)" stroke-width="1" opacity="1" d="M 6.5 15 L 7.5 17 L 6.5 15 Z " /><path fill="rgb(179,165,79)" stroke="rgb(179,165,79)" stroke-width="1" opacity="1" d="M 17.5 19 L 16.5 21 L 17.5 19 Z " /><path fill="rgb(179,165,79)" stroke="rgb(179,165,79)" stroke-width="1" opacity="1" d="M 26.5 21 L 27.5 23 L 26.5 21 Z " /><path fill="rgb(179,165,79)" stroke="rgb(179,165,79)" stroke-width="1" opacity="1" d="M 20.5 22 L 21.5 24 L 20.5 22 Z " /><path fill="rgb(179,165,79)" stroke="rgb(179,165,79)" stroke-width="1" opacity="1" d="M 25.5 24 Q 30.1 22.6 28 28.5 L 26.5 28 L 25 28.5 L 25.5 30 Q 22.7 28.8 25 27.5 L 24.5 26 Q 23.3 28.3 22 25.5 Q 23.8 27.1 25.5 24 Z " /><path fill="rgb(179,165,79)" stroke="rgb(179,165,79)" stroke-width="1" opacity="1" d="M 10.5 25 L 13 26.5 L 11.5 26 L 10.5 25 Z " /><path fill="rgb(179,165,79)" stroke="rgb(179,165,79)" stroke-width="1" opacity="1" d="M 5.5 29 L 8 30.5 L 6.5 31 L 5.5 29 Z " /><path fill="rgb(179,165,79)" stroke="rgb(179,165,79)" stroke-width="1" opacity="1" d="M 14.5 34 L 16 34.5 L 13.5 36 L 14.5 34 Z " /><path fill="rgb(179,165,79)" stroke="rgb(179,165,79)" stroke-width="1" opacity="1" d="M 16.5 36 L 17 38 L 15 37.5 L 16.5 36 Z " /><path fill="rgb(179,165,79)" stroke="rgb(179,165,79)" stroke-width="1" opacity="1" d="M 10.5 40 L 11 42 L 9 41.5 L 10.5 40 Z " /><path fill="rgb(179,165,79)" stroke="rgb(179,165,79)" stroke-width="1" opacity="1" d="M 25.5 40 L 24.5 42 L 25.5 40 Z " /><path fill="rgb(179,165,79)" stroke="rgb(179,165,79)" stroke-width="1" opacity="1" d="M 5.5 44 L 7 47.5 L 5 46.5 L 5.5 44 Z " /><path fill="rgb(179,165,79)" stroke="rgb(179,165,79)" stroke-width="1" opacity="1" d="M 16.5 44 Q 18.8 43.3 18 45.5 L 19.5 45 L 21 45.5 L 18.5 47 L 15 45.5 L 16.5 44 Z " /><path fill="rgb(47,43,38)" stroke="rgb(47,43,38)" stroke-width="1" opacity="1" d="M 5.5 8 L 9 10.5 L 7.5 10 L 5.5 8 Z " /><path fill="rgb(47,43,38)" stroke="rgb(47,43,38)" stroke-width="1" opacity="1" d="M 5.5 14 Q 9.3 13 8 16 L 10.5 16 L 10.5 17 Q 4.8 16.5 5.5 14 Z " /><path fill="rgb(47,43,38)" stroke="rgb(47,43,38)" stroke-width="1" opacity="1" d="M 26.5 15 L 27.5 17 L 26.5 15 Z " /><path fill="rgb(47,43,38)" stroke="rgb(47,43,38)" stroke-width="1" opacity="1" d="M 4.5 20 L 3.5 22 L 2 21.5 L 4.5 20 Z " /><path fill="rgb(47,43,38)" stroke="rgb(47,43,38)" stroke-width="1" opacity="1" d="M 5.5 22 L 8 22.5 Q 8.8 24.8 6.5 24 L 6.5 26 L 5 24.5 L 5.5 22 Z " /><path fill="rgb(47,43,38)" stroke="rgb(47,43,38)" stroke-width="1" opacity="1" d="M 12 30 L 14 30.5 L 12.5 33 L 12 30 Z " /><path fill="rgb(47,43,38)" stroke="rgb(47,43,38)" stroke-width="1" opacity="1" d="M 10.5 35 L 13 39.5 L 10 37.5 L 10.5 35 Z " /><path fill="rgb(47,43,38)" stroke="rgb(47,43,38)" stroke-width="1" opacity="1" d="M 3.5 37 Q 5.8 36.3 5 38.5 L 3.5 37 Z " /><path fill="rgb(47,43,38)" stroke="rgb(47,43,38)" stroke-width="1" opacity="1" d="M 26.5 41 L 26.5 44 L 24 43.5 L 26.5 41 Z " /><path fill="rgb(47,43,38)" stroke="rgb(47,43,38)" stroke-width="1" opacity="1" d="M 3.5 42 L 6 43.5 L 4 44.5 L 3.5 43 L 2 43.5 L 3.5 42 Z " /><path fill="rgb(228,120,49)" stroke="rgb(228,120,49)" stroke-width="1" opacity="1" d="M 20.5 15 L 21 21.5 L 20 21.5 L 20.5 15 Z " /><path fill="rgb(228,120,49)" stroke="rgb(228,120,49)" stroke-width="1" opacity="1" d="M 11.5 18 Q 14.1 17.3 13 20 L 10 19.5 L 11.5 18 Z " /><path fill="rgb(228,120,49)" stroke="rgb(228,120,49)" stroke-width="1" opacity="1" d="M 11.5 21 L 16 22 L 15.5 25 L 11 24 L 11.5 21 Z " /><path fill="rgb(228,120,49)" stroke="rgb(228,120,49)" stroke-width="1" opacity="1" d="M 17.5 26 L 20 26.5 L 17.5 27 L 17.5 26 Z " /><path fill="rgb(95,78,25)" stroke="rgb(95,78,25)" stroke-width="1" opacity="1" d="M 5.5 10 L 4.5 12 L 3 11.5 L 5.5 10 Z " /><path fill="rgb(95,78,25)" stroke="rgb(95,78,25)" stroke-width="1" opacity="1" d="M 25.5 17 L 27 17.5 L 24.5 19 L 25.5 17 Z " /><path fill="rgb(95,78,25)" stroke="rgb(95,78,25)" stroke-width="1" opacity="1" d="M 26.5 19 L 25.5 21 L 26.5 19 Z " /><path fill="rgb(95,78,25)" stroke="rgb(95,78,25)" stroke-width="1" opacity="1" d="M 22.5 23 L 25 24.5 L 23 25.5 L 22.5 23 Z " /><path fill="rgb(95,78,25)" stroke="rgb(95,78,25)" stroke-width="1" opacity="1" d="M 26.5 28 L 27.5 30 L 26.5 28 Z " /><path fill="rgb(95,78,25)" stroke="rgb(95,78,25)" stroke-width="1" opacity="1" d="M 6.5 32 L 7.5 34 L 6.5 32 Z " /><path fill="rgb(95,78,25)" stroke="rgb(95,78,25)" stroke-width="1" opacity="1" d="M 18.5 45 L 17.5 47 L 18.5 45 Z " /><path fill="rgb(131,31,23)" stroke="rgb(131,31,23)" stroke-width="1" opacity="1" d="M 21.5 13 L 20.5 15 L 21.5 13 Z " /><path fill="rgb(131,31,23)" stroke="rgb(131,31,23)" stroke-width="1" opacity="1" d="M 16.5 22 L 17 24.5 L 16 24.5 L 16.5 22 Z " /><path fill="rgb(131,31,23)" stroke="rgb(131,31,23)" stroke-width="1" opacity="1" d="M 21.5 26 L 23.5 29 L 21 27.5 L 21.5 26 Z " /><path fill="rgb(131,31,23)" stroke="rgb(131,31,23)" stroke-width="1" opacity="1" d="M 22.5 32 L 23 34 L 25 34.5 L 22.5 36 L 22 33.5 L 22.5 32 Z " /><path fill="rgb(131,31,23)" stroke="rgb(131,31,23)" stroke-width="1" opacity="1" d="M 6 39 L 8 39.5 L 6 40.5 L 6 39 Z " /><path fill="rgb(33,19,13)" stroke="rgb(33,19,13)" stroke-width="1" opacity="1" d="M 4.5 22 L 8 24 L 7.5 26 Q 5.8 22.9 4 24.5 L 4.5 22 Z " /><path fill="rgb(33,19,13)" stroke="rgb(33,19,13)" stroke-width="1" opacity="1" d="M 17 22 Q 19.7 20.9 19 23.5 L 15.5 26 L 15.5 25 Q 18.5 25.7 17 22 Z " /><path fill="rgb(33,19,13)" stroke="rgb(33,19,13)" stroke-width="1" opacity="1" d="M 21.5 30 L 22.5 32 L 21.5 30 Z " /><path fill="rgb(33,19,13)" stroke="rgb(33,19,13)" stroke-width="1" opacity="1" d="M 9.5 32 L 13 34.5 L 11 35.5 L 11.5 34 Q 7.5 35 9.5 32 Z " /><path fill="rgb(33,19,13)" stroke="rgb(33,19,13)" stroke-width="1" opacity="1" d="M 3.5 34 L 5 36.5 L 3 35.5 L 3.5 34 Z " /><path fill="rgb(33,19,13)" stroke="rgb(33,19,13)" stroke-width="1" opacity="1" d="M 7.5 35 L 10 36.5 Q 10.8 38.8 8.5 38 L 5.5 39 L 6.5 37 L 9 36.5 L 7.5 35 Z " /><path fill="rgb(33,19,13)" stroke="rgb(33,19,13)" stroke-width="1" opacity="1" d="M 2.5 37 L 3 39.5 L 2 39.5 L 2.5 37 Z " /><path fill="rgb(33,19,13)" stroke="rgb(33,19,13)" stroke-width="1" opacity="1" d="M 4.5 40 L 7 41.5 L 8 46 L 10 46.5 L 6 47 Q 7 43.2 4.5 42 L 2 41.5 L 4.5 40 Z " /><path fill="rgb(33,19,13)" stroke="rgb(33,19,13)" stroke-width="1" opacity="1" d="M 11.5 40 L 17 40.5 L 12.5 42 L 11.5 40 Z " /><path fill="rgb(33,19,13)" stroke="rgb(33,19,13)" stroke-width="1" opacity="1" d="M 22 40 Q 24.7 38.9 24 41.5 L 24.5 43 L 22 42 L 22 40 Z " /><path fill="rgb(33,19,13)" stroke="rgb(33,19,13)" stroke-width="1" opacity="1" d="M 3.5 43 L 5 47.5 L 3.5 48 L 2 44.5 L 3.5 43 Z " /><path fill="rgb(33,19,13)" stroke="rgb(33,19,13)" stroke-width="1" opacity="1" d="M 11.5 43 L 13 45.5 L 11 46 L 11.5 43 Z " /><path fill="rgb(33,19,13)" stroke="rgb(33,19,13)" stroke-width="1" opacity="1" d="M 14.5 46 Q 17.8 44.9 17 47.5 L 15.5 47 L 14.5 46 Z " /><path fill="rgb(79,19,13)" stroke="rgb(79,19,13)" stroke-width="1" opacity="1" d="M 24.5 26 L 23.5 28 L 24.5 26 Z " /><path fill="rgb(79,19,13)" stroke="rgb(79,19,13)" stroke-width="1" opacity="1" d="M 20.5 27 L 23 30.5 L 22 33.5 L 23.5 33 Q 28.1 31.6 26 37.5 L 25 37.5 L 24.5 36 L 23.5 38 L 23 35 Q 20 36.3 21 32.5 Q 18.6 31.2 20.5 27 Z " /><path fill="rgb(79,19,13)" stroke="rgb(79,19,13)" stroke-width="1" opacity="1" d="M 6.5 33 L 10 34 L 8.5 37 L 5 35.5 L 6.5 33 Z M 7 35 L 7 36 L 9 36 L 7 35 Z " /><path fill="rgb(209,204,203)" stroke="rgb(209,204,203)" stroke-width="1" opacity="1" d="M 17.5 1 L 26 2 L 26.5 4 L 28 3.5 L 27.5 6 L 12.5 6 L 13.5 4 Q 18.9 5.9 18 2.5 L 17.5 1 Z " /><path fill="rgb(209,204,203)" stroke="rgb(209,204,203)" stroke-width="1" opacity="1" d="M 1.5 3 L 2 5 L 8.5 6 L 10 5.5 Q 8.8 8.3 7.5 6 Q 0.2 3.4 2 9.5 Q 4.3 10.8 1.5 12 L 1.5 3 Z " /><path fill="rgb(209,204,203)" stroke="rgb(209,204,203)" stroke-width="1" opacity="1" d="M 16.5 17 L 17.5 19 L 16.5 17 Z " /><path fill="rgb(209,204,203)" stroke="rgb(209,204,203)" stroke-width="1" opacity="1" d="M 7.5 26 L 8.5 28 L 6 27.5 L 7.5 26 Z " /><path fill="rgb(209,204,203)" stroke="rgb(209,204,203)" stroke-width="1" opacity="1" d="M 28.5 31 L 29 40.5 L 27 39.5 L 28.5 31 Z " /><path fill="rgb(209,204,203)" stroke="rgb(209,204,203)" stroke-width="1" opacity="1" d="M 19.5 35 Q 21.8 34.3 21 36.5 L 26 39.5 L 24 40.5 L 23.5 39 L 20.5 40 Q 17.8 38.8 20 37.5 L 19.5 35 Z " /><path fill="rgb(209,204,203)" stroke="rgb(209,204,203)" stroke-width="1" opacity="1" d="M 19 41 L 22 42.5 Q 21.3 44.8 23.5 44 L 23 45.5 Q 22.3 48.1 25 47 L 25 49 L 21 48.5 L 23 47.5 L 19 41 Z " /><path fill="rgb(209,204,203)" stroke="rgb(209,204,203)" stroke-width="1" opacity="1" d="M 27.5 42 L 29 44.5 L 28 44.5 L 27.5 42 Z " /><path fill="rgb(209,204,203)" stroke="rgb(209,204,203)" stroke-width="1" opacity="1" d="M 27.5 46 Q 29.8 45.3 29 47.5 L 27.5 46 Z " /><path fill="rgb(209,204,203)" stroke="rgb(209,204,203)" stroke-width="1" opacity="1" d="M 10.5 48 L 20 48.5 L 10.5 49 L 10.5 48 Z " /></svg>