<svg width="30" height="50" version="1.1" xmlns="http://www.w3.org/2000/svg" desc="Created with imagetracer.js version 1.2.6" ><path fill="rgb(253,235,40)" stroke="rgb(253,235,40)" stroke-width="1" opacity="1" d="M 2 2 L 9 2.5 L 8.5 6 L 10 6.5 L 7 7 Q 5.5 10.7 8.5 10 Q 11.5 11.5 8.5 13 L 6 13.5 L 8 14 L 7 20.5 L 9 21.5 L 6 22.5 L 10 23.5 L 7 29.5 L 7.5 32 L 9 32.5 L 6.5 33 Q 5 30.5 3.5 34 Q 1.3 34.8 2 32.5 L 2.5 30 L 4 29.5 L 2 29 L 2 2 Z M 5 23 L 6 25 L 8 25 L 5 23 Z " /><path fill="rgb(193,131,72)" stroke="rgb(193,131,72)" stroke-width="1" opacity="1" d="M 14.5 10 L 13.5 12 L 14.5 10 Z " /><path fill="rgb(193,131,72)" stroke="rgb(193,131,72)" stroke-width="1" opacity="1" d="M 19.5 11 L 20.5 13 L 18.5 14 L 19 12.5 L 19.5 11 Z " /><path fill="rgb(193,131,72)" stroke="rgb(193,131,72)" stroke-width="1" opacity="1" d="M 14 16 L 17 16.5 L 14 18 L 14 16 Z " /><path fill="rgb(193,131,72)" stroke="rgb(193,131,72)" stroke-width="1" opacity="1" d="M 18.5 16 L 19 19.5 L 18 19.5 L 18.5 16 Z " /><path fill="rgb(193,131,72)" stroke="rgb(193,131,72)" stroke-width="1" opacity="1" d="M 13.5 31 L 15 34 L 10.5 36 L 11 34.5 L 11.5 33 L 13 33.5 L 13.5 31 Z " /><path fill="rgb(193,131,72)" stroke="rgb(193,131,72)" stroke-width="1" opacity="1" d="M 14.5 38 L 16 41.5 L 14 40.5 L 14.5 38 Z " /><path fill="rgb(193,131,72)" stroke="rgb(193,131,72)" stroke-width="1" opacity="1" d="M 9.5 40 L 8.5 42 L 9.5 40 Z " /><path fill="rgb(193,131,72)" stroke="rgb(193,131,72)" stroke-width="1" opacity="1" d="M 27.5 40 L 26.5 42 L 27.5 40 Z " /><path fill="rgb(251,241,89)" stroke="rgb(251,241,89)" stroke-width="1" opacity="1" d="M 12.5 2 L 13 5 L 15.5 6 L 18 5 L 17 7.5 Q 20.8 9.3 17.5 11 Q 19.3 8.5 14.5 6 L 10 3.5 L 12.5 2 Z " /><path fill="rgb(251,241,89)" stroke="rgb(251,241,89)" stroke-width="1" opacity="1" d="M 23.5 5 L 26 6 L 26.5 8 L 27.5 6 L 28 10.5 L 25 11.5 L 24 13.5 Q 27.8 15.3 24.5 17 L 23 13.5 L 24 11.5 L 21 10 L 22.5 7 L 24 6.5 L 23.5 5 Z " /><path fill="rgb(239,211,79)" stroke="rgb(239,211,79)" stroke-width="1" opacity="1" d="M 22.5 10 L 23 11.5 L 19.5 16 L 20 14.5 L 22.5 10 Z " /><path fill="rgb(239,211,79)" stroke="rgb(239,211,79)" stroke-width="1" opacity="1" d="M 12.5 31 L 13 34 L 15 34 Q 13.7 29.9 17 31 Q 18.5 36.4 15.5 38 L 13 37.5 L 16 36.5 L 10.5 35 L 9 35.5 Q 10.3 32.8 11.5 35 L 13 34.5 L 12.5 31 Z " /><path fill="rgb(223,194,41)" stroke="rgb(223,194,41)" stroke-width="1" opacity="1" d="M 7.5 7 L 8 9.5 L 7 9.5 L 7.5 7 Z " /><path fill="rgb(223,194,41)" stroke="rgb(223,194,41)" stroke-width="1" opacity="1" d="M 15.5 7 L 16.5 9 L 15.5 7 Z " /><path fill="rgb(223,194,41)" stroke="rgb(223,194,41)" stroke-width="1" opacity="1" d="M 8.5 14 L 9 19.5 L 8 19.5 L 8.5 14 Z " /><path fill="rgb(223,194,41)" stroke="rgb(223,194,41)" stroke-width="1" opacity="1" d="M 9.5 21 L 11 23.5 L 9.5 26 L 9 24.5 L 9 22.5 L 9.5 21 Z " /><path fill="rgb(223,194,41)" stroke="rgb(223,194,41)" stroke-width="1" opacity="1" d="M 8.5 27 L 10 29.5 L 8 28.5 L 8.5 27 Z " /><path fill="rgb(223,194,41)" stroke="rgb(223,194,41)" stroke-width="1" opacity="1" d="M 10.5 31 L 11 33.5 L 10 33.5 L 10.5 31 Z " /><path fill="rgb(114,128,103)" stroke="rgb(114,128,103)" stroke-width="1" opacity="1" d="M 15.5 14 L 14.5 16 L 15.5 14 Z " /><path fill="rgb(114,128,103)" stroke="rgb(114,128,103)" stroke-width="1" opacity="1" d="M 12 19 L 14 19.5 L 12 20.5 L 12 19 Z " /><path fill="rgb(114,128,103)" stroke="rgb(114,128,103)" stroke-width="1" opacity="1" d="M 14.5 26 L 13.5 28 L 12 27.5 L 14.5 26 Z " /><path fill="rgb(114,128,103)" stroke="rgb(114,128,103)" stroke-width="1" opacity="1" d="M 16.5 26 L 18 28.5 L 16 29.5 L 16.5 31 L 14 29.5 L 16 29 L 16.5 26 Z " /><path fill="rgb(114,128,103)" stroke="rgb(114,128,103)" stroke-width="1" opacity="1" d="M 20.5 37 L 19.5 39 L 20.5 37 Z " /><path fill="rgb(114,128,103)" stroke="rgb(114,128,103)" stroke-width="1" opacity="1" d="M 24.5 37 L 27 38.5 L 24.5 40 L 24.5 37 Z " /><path fill="rgb(114,128,103)" stroke="rgb(114,128,103)" stroke-width="1" opacity="1" d="M 21.5 45 L 24.5 46 L 27.5 45 L 27.5 46 L 23.5 48 L 21.5 45 Z " /><path fill="rgb(114,128,103)" stroke="rgb(114,128,103)" stroke-width="1" opacity="1" d="M 14.5 46 L 17 46.5 Q 14.9 49.8 14.5 46 Z " /><path fill="rgb(253,250,142)" stroke="rgb(253,250,142)" stroke-width="1" opacity="1" d="M 18.5 2 L 20.5 2 Q 27.5 0.5 27 3.5 Q 25.8 6.3 24.5 4 L 21.5 5 L 20.5 3 Q 18.7 5.5 18.5 2 Z " /><path fill="rgb(253,250,142)" stroke="rgb(253,250,142)" stroke-width="1" opacity="1" d="M 20.5 17 Q 23.9 16.1 22 21.5 L 22.5 23 L 20 23 Q 21.1 20.3 18.5 21 L 18.5 20 L 21 18.5 L 20.5 17 Z " /><path fill="rgb(253,250,142)" stroke="rgb(253,250,142)" stroke-width="1" opacity="1" d="M 26.5 20 L 28 22.5 L 25 23 L 26.5 20 Z " /><path fill="rgb(253,250,142)" stroke="rgb(253,250,142)" stroke-width="1" opacity="1" d="M 19 24 L 22 24.5 L 21.5 26 L 23 26.5 L 22 28.5 L 24 27.5 L 24 26 L 28 26 L 27.5 33 L 26.5 31 L 24 35 L 26.5 36 L 27.5 34 L 28 37 L 22.5 35 Q 21.4 37.8 18 37 L 19 34.5 L 18.5 31 L 20 30.5 Q 17.5 29 21 27.5 L 19 25.5 L 19 24 Z " /><path fill="rgb(253,250,105)" stroke="rgb(253,250,105)" stroke-width="1" opacity="1" d="M 13 2 L 15 2 Q 13.9 4.7 16.5 4 L 16.5 2 Q 19.1 1.3 18 4 L 21 4 L 21 6 L 16.5 5 L 14.5 5 Q 11.5 5.7 13 2 Z " /><path fill="rgb(253,250,105)" stroke="rgb(253,250,105)" stroke-width="1" opacity="1" d="M 23.5 4 L 28 5.5 L 26.5 8 L 26 6 L 22.5 7 L 22.5 6 L 24 5.5 L 23.5 4 Z " /><path fill="rgb(253,250,105)" stroke="rgb(253,250,105)" stroke-width="1" opacity="1" d="M 18.5 10 L 21 10.5 L 18.5 11 L 18.5 10 Z " /><path fill="rgb(253,250,105)" stroke="rgb(253,250,105)" stroke-width="1" opacity="1" d="M 23.5 11 L 24.5 13 L 25.5 11 L 28 11.5 Q 28.8 13.8 26.5 13 L 27 14.5 L 28 16.5 L 26 16.5 L 25 18.5 L 25 20.5 L 26.5 24 L 28 23.5 L 27.5 26 L 25 24.5 Q 25.8 27.1 22.5 26 L 23 22.5 L 24 20.5 L 22.5 16 L 20.5 17 L 20.5 16 Q 23.5 16.9 22 12.5 L 23.5 11 Z M 24 13 L 25 17 Q 28 15 24 13 Z " /><path fill="rgb(253,250,105)" stroke="rgb(253,250,105)" stroke-width="1" opacity="1" d="M 18.5 23 L 19 26.5 L 18 26.5 L 18.5 23 Z " /><path fill="rgb(249,235,53)" stroke="rgb(249,235,53)" stroke-width="1" opacity="1" d="M 9.5 2 L 12 2.5 L 10 3.5 L 13 5.5 L 8.5 6 L 8 3.5 L 9.5 2 Z " /><path fill="rgb(249,235,53)" stroke="rgb(249,235,53)" stroke-width="1" opacity="1" d="M 10.5 11 L 8.5 14 L 6 13.5 L 10.5 11 Z " /><path fill="rgb(249,235,53)" stroke="rgb(249,235,53)" stroke-width="1" opacity="1" d="M 5.5 21 L 9 22.5 L 6 23.5 L 8 24.5 L 4.5 26 L 4.5 23 L 6 22.5 L 5.5 21 Z " /><path fill="rgb(249,235,53)" stroke="rgb(249,235,53)" stroke-width="1" opacity="1" d="M 6.5 28 L 10 30.5 L 9 33.5 L 9.5 35 L 5 32.5 L 6.5 33 L 9 32.5 L 7 31.5 L 8 30.5 L 6.5 28 Z " /><path fill="rgb(142,165,116)" stroke="rgb(142,165,116)" stroke-width="1" opacity="1" d="M 12.5 24 L 12 25.5 Q 10.9 28.8 13.5 28 L 13.5 29 Q 9.8 30.3 11 26.5 L 10.5 25 L 12.5 24 Z " /><path fill="rgb(142,165,116)" stroke="rgb(142,165,116)" stroke-width="1" opacity="1" d="M 15 25 L 17 25.5 L 15 26.5 L 15 25 Z " /><path fill="rgb(142,165,116)" stroke="rgb(142,165,116)" stroke-width="1" opacity="1" d="M 7.5 35 Q 9.8 34.3 9 36.5 L 7.5 35 Z " /><path fill="rgb(142,165,116)" stroke="rgb(142,165,116)" stroke-width="1" opacity="1" d="M 21.5 37 L 25 38.5 L 22.5 39 L 21.5 37 Z " /><path fill="rgb(142,165,116)" stroke="rgb(142,165,116)" stroke-width="1" opacity="1" d="M 26.5 37 L 27.5 39 L 26.5 37 Z " /><path fill="rgb(142,165,116)" stroke="rgb(142,165,116)" stroke-width="1" opacity="1" d="M 5.5 38 L 6 40.5 L 4.5 44 L 3.5 42 Q 5.8 42.8 5 40.5 Q 2.8 39.3 5.5 38 Z " /><path fill="rgb(142,165,116)" stroke="rgb(142,165,116)" stroke-width="1" opacity="1" d="M 10.5 42 L 9.5 44 L 10.5 42 Z " /><path fill="rgb(142,165,116)" stroke="rgb(142,165,116)" stroke-width="1" opacity="1" d="M 12.5 46 L 13.5 48 L 12.5 46 Z " /><path fill="rgb(142,165,116)" stroke="rgb(142,165,116)" stroke-width="1" opacity="1" d="M 17 46 L 19 46.5 L 17 47.5 L 17 46 Z " /><path fill="rgb(142,165,116)" stroke="rgb(142,165,116)" stroke-width="1" opacity="1" d="M 22.5 48 L 27 48.5 L 22.5 49 L 22.5 48 Z " /><path fill="rgb(251,246,118)" stroke="rgb(251,246,118)" stroke-width="1" opacity="1" d="M 15.5 2 L 16.5 4 Q 13.7 4.7 15.5 2 Z " /><path fill="rgb(251,246,118)" stroke="rgb(251,246,118)" stroke-width="1" opacity="1" d="M 19.5 2 L 20.5 4 L 18 3.5 L 19.5 2 Z " /><path fill="rgb(251,246,118)" stroke="rgb(251,246,118)" stroke-width="1" opacity="1" d="M 25.5 3 L 28 3.5 Q 28.8 5.8 26.5 5 L 25.5 3 Z " /><path fill="rgb(251,246,118)" stroke="rgb(251,246,118)" stroke-width="1" opacity="1" d="M 22.5 4 L 23 6 L 21 5.5 L 22.5 4 Z " /><path fill="rgb(251,246,118)" stroke="rgb(251,246,118)" stroke-width="1" opacity="1" d="M 17 12 L 19 12.5 L 17 13.5 L 17 12 Z " /><path fill="rgb(251,246,118)" stroke="rgb(251,246,118)" stroke-width="1" opacity="1" d="M 21.5 13 L 22 14.5 L 20 15.5 L 21.5 13 Z " /><path fill="rgb(251,246,118)" stroke="rgb(251,246,118)" stroke-width="1" opacity="1" d="M 26.5 13 Q 28.8 12.3 28 14.5 L 26.5 13 Z " /><path fill="rgb(251,246,118)" stroke="rgb(251,246,118)" stroke-width="1" opacity="1" d="M 22.5 16 L 24 20.5 L 22 21.5 L 22.5 16 Z " /><path fill="rgb(251,246,118)" stroke="rgb(251,246,118)" stroke-width="1" opacity="1" d="M 26.5 16 Q 28.8 16.8 28 20.5 L 25 20.5 L 25.5 18 L 27 18.5 L 26.5 16 Z " /><path fill="rgb(251,246,118)" stroke="rgb(251,246,118)" stroke-width="1" opacity="1" d="M 20.5 18 L 19.5 20 L 20.5 18 Z " /><path fill="rgb(251,246,118)" stroke="rgb(251,246,118)" stroke-width="1" opacity="1" d="M 17.5 20 L 20 21 Q 18.9 23.7 21.5 23 Q 24.5 24.5 21.5 26 L 21.5 24 Q 17.5 24.5 17 21.5 L 17.5 20 Z " /><path fill="rgb(251,246,118)" stroke="rgb(251,246,118)" stroke-width="1" opacity="1" d="M 26.5 23 L 26.5 26 Q 24.3 26.8 25 24.5 L 26.5 23 Z " /><path fill="rgb(251,246,118)" stroke="rgb(251,246,118)" stroke-width="1" opacity="1" d="M 19.5 26 L 21 27.5 Q 17.9 29.3 19.5 31 Q 17.3 31.8 18 29.5 L 19.5 26 Z " /><path fill="rgb(251,246,118)" stroke="rgb(251,246,118)" stroke-width="1" opacity="1" d="M 23.5 26 L 24 27.5 L 22 28.5 L 23.5 26 Z " /><path fill="rgb(251,246,118)" stroke="rgb(251,246,118)" stroke-width="1" opacity="1" d="M 18.5 32 L 18.5 35 Q 16.3 35.8 17 33.5 L 18.5 32 Z " /><path fill="rgb(249,249,243)" stroke="rgb(249,249,243)" stroke-width="1" opacity="1" d="M 0 0 L 30 0 L 30 50 L 0 50 L 0 0 Z M 2 1 L 2 48 L 4 48 L 6 48 L 10 49 L 18 48 Q 19 45 21 49 L 28 49 L 28 39 L 28 37 L 28 34 L 27 36 L 24 35 L 27 31 L 27 33 L 28 33 L 28 1 L 2 1 Z " /><path fill="rgb(249,249,243)" stroke="rgb(249,249,243)" stroke-width="1" opacity="1" d="M 22.5 36 L 23 37.5 L 21 38.5 L 22.5 36 Z " /><path fill="rgb(106,91,51)" stroke="rgb(106,91,51)" stroke-width="1" opacity="1" d="M 14.5 1 L 18 1.5 L 14.5 2 L 14.5 1 Z " /><path fill="rgb(106,91,51)" stroke="rgb(106,91,51)" stroke-width="1" opacity="1" d="M 12.5 11 L 11.5 13 L 12.5 11 Z " /><path fill="rgb(106,91,51)" stroke="rgb(106,91,51)" stroke-width="1" opacity="1" d="M 19.5 13 L 20 14.5 L 17.5 16 L 19.5 13 Z " /><path fill="rgb(106,91,51)" stroke="rgb(106,91,51)" stroke-width="1" opacity="1" d="M 13.5 21 L 13.5 24 Q 10.5 22.5 13.5 21 Z " /><path fill="rgb(106,91,51)" stroke="rgb(106,91,51)" stroke-width="1" opacity="1" d="M 9 27 L 11 27.5 L 10.5 30 L 9 27 Z " /><path fill="rgb(106,91,51)" stroke="rgb(106,91,51)" stroke-width="1" opacity="1" d="M 4.5 35 L 7 36.5 L 5.5 36 L 4.5 35 Z " /><path fill="rgb(106,91,51)" stroke="rgb(106,91,51)" stroke-width="1" opacity="1" d="M 9.5 36 Q 12.1 35.2 11 38.5 Q 9.5 41.5 8 38.5 L 9.5 36 Z " /><path fill="rgb(106,91,51)" stroke="rgb(106,91,51)" stroke-width="1" opacity="1" d="M 18 37 L 20 37.5 L 19.5 39 L 21 39.5 L 19 40.5 L 18.5 39 Q 17.3 41.3 16 38.5 L 18 38.5 L 18 37 Z " /><path fill="rgb(106,91,51)" stroke="rgb(106,91,51)" stroke-width="1" opacity="1" d="M 9.5 41 L 10 43 L 8 42.5 L 9.5 41 Z " /><path fill="rgb(106,91,51)" stroke="rgb(106,91,51)" stroke-width="1" opacity="1" d="M 16.5 41 L 18 44.5 L 15.5 43 L 12.5 45 L 11 42.5 L 12.5 43 L 16.5 41 Z " /><path fill="rgb(106,91,51)" stroke="rgb(106,91,51)" stroke-width="1" opacity="1" d="M 21.5 41 L 24 42 L 23.5 44 L 21.5 41 Z " /><path fill="rgb(106,91,51)" stroke="rgb(106,91,51)" stroke-width="1" opacity="1" d="M 25.5 42 L 28 43.5 L 26.5 43 L 25.5 42 Z " /><path fill="rgb(106,91,51)" stroke="rgb(106,91,51)" stroke-width="1" opacity="1" d="M 19 45 L 22 46.5 Q 20.5 49.5 19 46.5 L 19 45 Z " /><path fill="rgb(106,91,51)" stroke="rgb(106,91,51)" stroke-width="1" opacity="1" d="M 5.5 46 L 8 47.5 L 6.5 47 L 5.5 46 Z " /><path fill="rgb(182,193,124)" stroke="rgb(182,193,124)" stroke-width="1" opacity="1" d="M 16.5 13 L 17 14.5 L 15 15.5 L 16.5 13 Z " /><path fill="rgb(182,193,124)" stroke="rgb(182,193,124)" stroke-width="1" opacity="1" d="M 10 14 Q 13 13 12 16 Q 9 17 10 14 Z " /><path fill="rgb(182,193,124)" stroke="rgb(182,193,124)" stroke-width="1" opacity="1" d="M 13.5 16 L 12.5 18 L 11 17.5 L 13.5 16 Z " /><path fill="rgb(182,193,124)" stroke="rgb(182,193,124)" stroke-width="1" opacity="1" d="M 14 19 Q 18.1 17.3 17 21.5 L 15.5 21 Q 12.9 21.7 14 19 Z " /><path fill="rgb(182,193,124)" stroke="rgb(182,193,124)" stroke-width="1" opacity="1" d="M 14.5 23 L 14.5 26 L 12.5 27 L 12 25.5 L 14.5 23 Z " /><path fill="rgb(182,193,124)" stroke="rgb(182,193,124)" stroke-width="1" opacity="1" d="M 10.5 28 L 14 29 L 13.5 31 L 10.5 28 Z " /><path fill="rgb(182,193,124)" stroke="rgb(182,193,124)" stroke-width="1" opacity="1" d="M 6.5 35 L 7.5 37 L 6.5 35 Z " /><path fill="rgb(182,193,124)" stroke="rgb(182,193,124)" stroke-width="1" opacity="1" d="M 4.5 38 L 9 40.5 L 7.5 41 L 5 40 Q 6.3 43 2.5 42 L 2.5 41 L 5 39.5 L 4.5 38 Z " /><path fill="rgb(182,193,124)" stroke="rgb(182,193,124)" stroke-width="1" opacity="1" d="M 11 39 Q 15.5 37.5 14 42 L 10 41.5 L 11 39 Z " /><path fill="rgb(182,193,124)" stroke="rgb(182,193,124)" stroke-width="1" opacity="1" d="M 15.5 39 L 19 41.5 L 17.5 41 Q 13.5 42 15.5 39 Z " /><path fill="rgb(182,193,124)" stroke="rgb(182,193,124)" stroke-width="1" opacity="1" d="M 25.5 39 L 28 39.5 L 25.5 40 L 25.5 39 Z " /><path fill="rgb(182,193,124)" stroke="rgb(182,193,124)" stroke-width="1" opacity="1" d="M 20 42 L 22 42.5 L 21.5 44 Q 24.8 45.1 24 42.5 L 26 43.5 Q 23.9 45.9 18.5 45 L 18.5 44 Q 21.1 44.7 20 42 Z " /><path fill="rgb(182,193,124)" stroke="rgb(182,193,124)" stroke-width="1" opacity="1" d="M 9.5 46 L 13 47.5 L 9.5 49 Q 6.5 47.5 9.5 46 Z " /><path fill="rgb(182,193,124)" stroke="rgb(182,193,124)" stroke-width="1" opacity="1" d="M 20.5 46 L 20.5 48 L 22.5 47 L 21.5 49 L 19 47.5 L 20.5 46 Z " /><path fill="rgb(182,193,124)" stroke="rgb(182,193,124)" stroke-width="1" opacity="1" d="M 27.5 46 L 28 48.5 L 26 47.5 L 27.5 46 Z " /><path fill="rgb(163,142,59)" stroke="rgb(163,142,59)" stroke-width="1" opacity="1" d="M 19.5 6 L 22 10.5 L 20.5 10 L 17 7.5 L 19 7.5 L 19.5 6 Z " /><path fill="rgb(163,142,59)" stroke="rgb(163,142,59)" stroke-width="1" opacity="1" d="M 11.5 11 L 11.5 14 L 9.5 15 L 10 13.5 L 11.5 11 Z " /><path fill="rgb(163,142,59)" stroke="rgb(163,142,59)" stroke-width="1" opacity="1" d="M 11.5 21 L 12 23 L 10 22.5 L 11.5 21 Z " /><path fill="rgb(163,142,59)" stroke="rgb(163,142,59)" stroke-width="1" opacity="1" d="M 11.5 30 L 12 32.5 L 11 32.5 L 11.5 30 Z " /><path fill="rgb(163,142,59)" stroke="rgb(163,142,59)" stroke-width="1" opacity="1" d="M 11.5 36 L 12.5 38 L 11.5 36 Z " /><path fill="rgb(73,40,22)" stroke="rgb(73,40,22)" stroke-width="1" opacity="1" d="M 5.5 1 L 9 1.5 L 5.5 2 L 5.5 1 Z " /><path fill="rgb(73,40,22)" stroke="rgb(73,40,22)" stroke-width="1" opacity="1" d="M 10.5 1 L 14 1.5 L 10.5 2 L 10.5 1 Z " /><path fill="rgb(73,40,22)" stroke="rgb(73,40,22)" stroke-width="1" opacity="1" d="M 12.5 6 L 16 8.5 Q 16.8 14.3 13.5 16 L 13.5 14 L 12 13.5 L 14 13 L 15 8 Q 10.9 6.3 12 10.5 L 10.5 10 L 8 9.5 L 8.5 7 L 12.5 6 Z " /><path fill="rgb(73,40,22)" stroke="rgb(73,40,22)" stroke-width="1" opacity="1" d="M 9.5 17 L 11 19.5 L 9 20 L 9.5 17 Z " /><path fill="rgb(73,40,22)" stroke="rgb(73,40,22)" stroke-width="1" opacity="1" d="M 14.5 21 L 17 22.5 L 15.5 23 L 14.5 21 Z " /><path fill="rgb(73,40,22)" stroke="rgb(73,40,22)" stroke-width="1" opacity="1" d="M 3.5 35 L 8 37 Q 9.1 39.7 6.5 39 L 3.5 38 L 3.5 40 Q 0.7 38.8 3 37.5 L 3.5 35 Z " /><path fill="rgb(73,40,22)" stroke="rgb(73,40,22)" stroke-width="1" opacity="1" d="M 17.5 38 L 18.5 40 L 17.5 38 Z " /><path fill="rgb(73,40,22)" stroke="rgb(73,40,22)" stroke-width="1" opacity="1" d="M 20.5 40 L 26 40.5 L 22.5 42 L 20.5 40 Z " /><path fill="rgb(73,40,22)" stroke="rgb(73,40,22)" stroke-width="1" opacity="1" d="M 6 41 L 8 41.5 L 6 42.5 L 6 41 Z " /><path fill="rgb(73,40,22)" stroke="rgb(73,40,22)" stroke-width="1" opacity="1" d="M 2 43 L 6.5 45 L 9.5 44 L 12.5 45 L 15.5 43 L 19 45.5 L 5 46.5 L 7 47.5 L 5.5 48 L 3.5 48 L 2 48 L 2 43 Z " /><path fill="rgb(73,40,22)" stroke="rgb(73,40,22)" stroke-width="1" opacity="1" d="M 26.5 43 L 27 45 L 25 45.5 L 27 46.5 L 25 47.5 L 24 45.5 L 26.5 43 Z " /></svg>