<svg width="30" height="50" version="1.1" xmlns="http://www.w3.org/2000/svg" desc="Created with imagetracer.js version 1.2.6" ><path fill="rgb(98,96,92)" stroke="rgb(98,96,92)" stroke-width="1" opacity="1" d="M 9.5 7 L 8.5 9 L 9.5 7 Z " /><path fill="rgb(98,96,92)" stroke="rgb(98,96,92)" stroke-width="1" opacity="1" d="M 10.5 9 Q 13.3 10.3 11 11.5 L 10.5 13 L 10 11.5 L 10.5 9 Z " /><path fill="rgb(98,96,92)" stroke="rgb(98,96,92)" stroke-width="1" opacity="1" d="M 24.5 16 L 25.5 18 L 24.5 16 Z " /><path fill="rgb(98,96,92)" stroke="rgb(98,96,92)" stroke-width="1" opacity="1" d="M 13.5 17 L 14.5 19 Q 11.7 19.7 13.5 17 Z " /><path fill="rgb(98,96,92)" stroke="rgb(98,96,92)" stroke-width="1" opacity="1" d="M 14.5 36 L 15.5 38 L 14.5 36 Z " /><path fill="rgb(98,96,92)" stroke="rgb(98,96,92)" stroke-width="1" opacity="1" d="M 11.5 42 L 12.5 44 L 11.5 42 Z " /><path fill="rgb(98,96,92)" stroke="rgb(98,96,92)" stroke-width="1" opacity="1" d="M 4.5 43 L 5.5 45 L 4.5 43 Z " /><path fill="rgb(98,96,92)" stroke="rgb(98,96,92)" stroke-width="1" opacity="1" d="M 25.5 45 L 28 45.5 L 25 46 L 23.5 49 L 21 48.5 L 24 48 L 25.5 45 Z " /><path fill="rgb(98,96,92)" stroke="rgb(98,96,92)" stroke-width="1" opacity="1" d="M 6.5 46 Q 8.8 45.3 8 47.5 L 6.5 46 Z " /><path fill="rgb(135,51,42)" stroke="rgb(135,51,42)" stroke-width="1" opacity="1" d="M 18.5 15 L 19.5 17 Q 16.7 17.7 18.5 15 Z " /><path fill="rgb(135,51,42)" stroke="rgb(135,51,42)" stroke-width="1" opacity="1" d="M 23.5 21 L 26 22.5 L 24.5 23 L 23.5 21 Z " /><path fill="rgb(135,51,42)" stroke="rgb(135,51,42)" stroke-width="1" opacity="1" d="M 19.5 23 L 22 23.5 L 19.5 24 L 19.5 23 Z " /><path fill="rgb(135,51,42)" stroke="rgb(135,51,42)" stroke-width="1" opacity="1" d="M 5.5 25 L 6 27.5 L 5.5 30 Q 2.8 28.8 5 27.5 L 5.5 25 Z " /><path fill="rgb(227,225,212)" stroke="rgb(227,225,212)" stroke-width="1" opacity="1" d="M 3.5 1 L 6 1.5 L 3.5 2 L 3.5 1 Z " /><path fill="rgb(227,225,212)" stroke="rgb(227,225,212)" stroke-width="1" opacity="1" d="M 22.5 1 L 27 1.5 L 22.5 2 L 22.5 1 Z " /><path fill="rgb(227,225,212)" stroke="rgb(227,225,212)" stroke-width="1" opacity="1" d="M 6.5 7 L 6 8.5 L 5.5 11 L 5 8.5 L 6.5 7 Z " /><path fill="rgb(227,225,212)" stroke="rgb(227,225,212)" stroke-width="1" opacity="1" d="M 10 7 L 14 8.5 L 11.5 10 L 10 7 Z " /><path fill="rgb(227,225,212)" stroke="rgb(227,225,212)" stroke-width="1" opacity="1" d="M 8.5 10 L 9 11.5 L 8 14.5 L 7.5 18 L 7 14.5 L 8 11.5 L 8.5 10 Z " /><path fill="rgb(227,225,212)" stroke="rgb(227,225,212)" stroke-width="1" opacity="1" d="M 20.5 11 L 24 15.5 L 22 16 L 20.5 11 Z " /><path fill="rgb(227,225,212)" stroke="rgb(227,225,212)" stroke-width="1" opacity="1" d="M 25.5 15 L 27 17.5 L 25 18.5 L 25 16.5 L 25.5 15 Z " /><path fill="rgb(227,225,212)" stroke="rgb(227,225,212)" stroke-width="1" opacity="1" d="M 25.5 20 L 27 24.5 L 26 24.5 L 25.5 20 Z " /><path fill="rgb(227,225,212)" stroke="rgb(227,225,212)" stroke-width="1" opacity="1" d="M 6.5 31 L 8 34.5 L 7 34.5 L 6.5 31 Z " /><path fill="rgb(227,225,212)" stroke="rgb(227,225,212)" stroke-width="1" opacity="1" d="M 12.5 38 L 15 39.5 L 13.5 39 L 12.5 38 Z " /><path fill="rgb(227,225,212)" stroke="rgb(227,225,212)" stroke-width="1" opacity="1" d="M 23.5 42 L 24 44.5 Q 22.3 42.9 20.5 46 L 18 45.5 L 23.5 42 Z " /><path fill="rgb(227,225,212)" stroke="rgb(227,225,212)" stroke-width="1" opacity="1" d="M 9.5 43 L 13 44.5 L 6.5 45 L 6.5 44 L 9.5 43 Z " /><path fill="rgb(227,225,212)" stroke="rgb(227,225,212)" stroke-width="1" opacity="1" d="M 8.5 46 Q 10.8 45.3 10 47.5 L 8.5 46 Z " /><path fill="rgb(227,225,212)" stroke="rgb(227,225,212)" stroke-width="1" opacity="1" d="M 25.5 46 L 28 47.5 L 26.5 48 L 25.5 46 Z " /><path fill="rgb(227,225,212)" stroke="rgb(227,225,212)" stroke-width="1" opacity="1" d="M 15.5 47 L 16 49 L 14 48.5 L 15.5 47 Z " /><path fill="rgb(253,253,243)" stroke="rgb(253,253,243)" stroke-width="1" opacity="1" d="M 2.5 2 L 6 7.5 L 4 12.5 L 6 21.5 L 2 22 L 1 17.5 L 2 14.5 L 2 12.5 L 1 8.5 L 2.5 2 Z " /><path fill="rgb(253,253,243)" stroke="rgb(253,253,243)" stroke-width="1" opacity="1" d="M 17.5 12 L 21 12.5 L 17.5 13 L 17.5 12 Z " /><path fill="rgb(253,253,243)" stroke="rgb(253,253,243)" stroke-width="1" opacity="1" d="M 3.5 34 L 4 36.5 Q 5.3 40.3 1.5 39 L 2 37.5 L 3.5 34 Z " /><path fill="rgb(246,247,246)" stroke="rgb(246,247,246)" stroke-width="1" opacity="1" d="M 1.5 22 L 2 34.5 L 1 34.5 L 1.5 22 Z " /><path fill="rgb(246,247,246)" stroke="rgb(246,247,246)" stroke-width="1" opacity="1" d="M 13.5 22 Q 15.8 21.3 15 23.5 L 13.5 22 Z " /><path fill="rgb(246,247,246)" stroke="rgb(246,247,246)" stroke-width="1" opacity="1" d="M 28.5 37 L 29 41.5 L 28.5 46 L 24 45 L 24.5 42 L 25 44 L 28 43.5 L 28 41.5 L 28.5 37 Z " /><path fill="rgb(246,247,246)" stroke="rgb(246,247,246)" stroke-width="1" opacity="1" d="M 1.5 39 L 2 45 L 8 45.5 L 2 46 L 1.5 49 L 1 46.5 L 1 44.5 L 1.5 39 Z " /><path fill="rgb(246,247,246)" stroke="rgb(246,247,246)" stroke-width="1" opacity="1" d="M 10 46 L 12 46.5 L 10 47.5 L 10 46 Z " /><path fill="rgb(110,24,25)" stroke="rgb(110,24,25)" stroke-width="1" opacity="1" d="M 10.5 20 L 13 20.5 L 10 21.5 L 11 23.5 L 10 23.5 L 9 21.5 L 10.5 20 Z " /><path fill="rgb(110,24,25)" stroke="rgb(110,24,25)" stroke-width="1" opacity="1" d="M 5.5 28 L 8 28.5 L 5.5 29 L 5.5 28 Z " /><path fill="rgb(110,24,25)" stroke="rgb(110,24,25)" stroke-width="1" opacity="1" d="M 4.5 41 L 3.5 43 L 2 42.5 L 4.5 41 Z " /><path fill="rgb(110,24,25)" stroke="rgb(110,24,25)" stroke-width="1" opacity="1" d="M 7.5 41 L 10 41.5 L 6.5 43 L 7.5 41 Z " /><path fill="rgb(29,20,27)" stroke="rgb(29,20,27)" stroke-width="1" opacity="1" d="M 17.5 19 L 23 21.5 L 19.5 22 L 17 21 L 17.5 19 Z " /><path fill="rgb(29,20,27)" stroke="rgb(29,20,27)" stroke-width="1" opacity="1" d="M 3.5 23 L 4.5 25 L 3.5 23 Z " /><path fill="rgb(29,20,27)" stroke="rgb(29,20,27)" stroke-width="1" opacity="1" d="M 17.5 23 L 20 24.5 L 18.5 25 L 17.5 23 Z " /><path fill="rgb(29,20,27)" stroke="rgb(29,20,27)" stroke-width="1" opacity="1" d="M 24.5 23 L 23.5 25 L 24.5 23 Z " /><path fill="rgb(29,20,27)" stroke="rgb(29,20,27)" stroke-width="1" opacity="1" d="M 18.5 26 L 21 26.5 L 18 28 L 18.5 26 Z " /><path fill="rgb(29,20,27)" stroke="rgb(29,20,27)" stroke-width="1" opacity="1" d="M 19 29 L 21 29.5 L 19.5 32 L 19 29 Z " /><path fill="rgb(29,20,27)" stroke="rgb(29,20,27)" stroke-width="1" opacity="1" d="M 2.5 30 L 3.5 32 Q 0.7 32.7 2.5 30 Z " /><path fill="rgb(29,20,27)" stroke="rgb(29,20,27)" stroke-width="1" opacity="1" d="M 14.5 42 L 18 43.5 L 15.5 44 L 14.5 42 Z " /><path fill="rgb(56,44,47)" stroke="rgb(56,44,47)" stroke-width="1" opacity="1" d="M 9.5 14 L 11 15.5 L 10.5 18 Q 8 17 9.5 14 Z " /><path fill="rgb(56,44,47)" stroke="rgb(56,44,47)" stroke-width="1" opacity="1" d="M 18.5 17 L 21 17.5 L 20.5 20 Q 18.8 16.3 17 19.5 Q 18 23.3 15 22 L 18.5 17 Z " /><path fill="rgb(56,44,47)" stroke="rgb(56,44,47)" stroke-width="1" opacity="1" d="M 5.5 22 L 7.5 25 L 5.5 22 Z " /><path fill="rgb(56,44,47)" stroke="rgb(56,44,47)" stroke-width="1" opacity="1" d="M 22.5 22 Q 24.3 25.1 26 23.5 L 24.5 25 L 22.5 22 Z " /><path fill="rgb(56,44,47)" stroke="rgb(56,44,47)" stroke-width="1" opacity="1" d="M 9.5 24 L 12 24.5 L 10.5 29 L 9.5 24 Z " /><path fill="rgb(56,44,47)" stroke="rgb(56,44,47)" stroke-width="1" opacity="1" d="M 13.5 24 L 14.5 26 L 13.5 24 Z " /><path fill="rgb(56,44,47)" stroke="rgb(56,44,47)" stroke-width="1" opacity="1" d="M 3.5 26 Q 5.8 25.3 5 27.5 L 3.5 26 Z " /><path fill="rgb(56,44,47)" stroke="rgb(56,44,47)" stroke-width="1" opacity="1" d="M 10.5 31 L 12 33.5 L 11 33.5 L 10.5 31 Z " /><path fill="rgb(56,44,47)" stroke="rgb(56,44,47)" stroke-width="1" opacity="1" d="M 16 32 L 19 33.5 L 16 34 L 16 32 Z " /><path fill="rgb(56,44,47)" stroke="rgb(56,44,47)" stroke-width="1" opacity="1" d="M 15.5 36 L 18 37 Q 19 40 16 39 L 15.5 36 Z " /><path fill="rgb(56,44,47)" stroke="rgb(56,44,47)" stroke-width="1" opacity="1" d="M 26.5 38 L 25.5 40 L 26.5 38 Z " /><path fill="rgb(56,44,47)" stroke="rgb(56,44,47)" stroke-width="1" opacity="1" d="M 15.5 41 L 19 42.5 L 17.5 42 Q 14.5 42.5 15.5 41 Z " /><path fill="rgb(40,28,34)" stroke="rgb(40,28,34)" stroke-width="1" opacity="1" d="M 22 16 L 25 17.5 L 22 18.5 L 21.5 20 L 20.5 18 Q 23.1 18.7 22 16 Z " /><path fill="rgb(40,28,34)" stroke="rgb(40,28,34)" stroke-width="1" opacity="1" d="M 10 18 L 12 18.5 L 10 19.5 L 10 18 Z " /><path fill="rgb(40,28,34)" stroke="rgb(40,28,34)" stroke-width="1" opacity="1" d="M 3.5 22 L 3 23.5 Q 2.3 26.1 5 25 L 5.5 23 Q 8.8 24.2 8 28 Q 5.3 29.1 6 26.5 L 6.5 25 L 2.5 27 L 2 24.5 L 3.5 22 Z " /><path fill="rgb(40,28,34)" stroke="rgb(40,28,34)" stroke-width="1" opacity="1" d="M 16 22 L 18 22.5 L 17.5 25 L 16 22 Z " /><path fill="rgb(40,28,34)" stroke="rgb(40,28,34)" stroke-width="1" opacity="1" d="M 20.5 25 L 21.5 29 Q 17 27 20.5 25 Z " /><path fill="rgb(40,28,34)" stroke="rgb(40,28,34)" stroke-width="1" opacity="1" d="M 9.5 27 L 11 30.5 L 8.5 32 L 6 31 L 6 29 Q 9.8 30.3 9.5 27 Z " /><path fill="rgb(40,28,34)" stroke="rgb(40,28,34)" stroke-width="1" opacity="1" d="M 2.5 29 Q 6.3 27.8 5 31.5 L 2.5 33 L 2.5 32 L 4 31.5 L 2.5 29 Z " /><path fill="rgb(40,28,34)" stroke="rgb(40,28,34)" stroke-width="1" opacity="1" d="M 14.5 31 Q 17.1 30.3 16 33 Q 12.3 31.5 13 34.5 L 12 34.5 Q 10.9 31.2 13.5 32 L 14.5 31 Z " /><path fill="rgb(40,28,34)" stroke="rgb(40,28,34)" stroke-width="1" opacity="1" d="M 15.5 34 L 19 34.5 L 18 37 Q 15.3 38.1 16 35.5 L 15.5 34 Z " /><path fill="rgb(40,28,34)" stroke="rgb(40,28,34)" stroke-width="1" opacity="1" d="M 25.5 37 L 28 37.5 L 25.5 38 L 25.5 37 Z " /><path fill="rgb(40,28,34)" stroke="rgb(40,28,34)" stroke-width="1" opacity="1" d="M 16.5 39 Q 19.1 38.3 18 41 L 14 40.5 L 16.5 39 Z " /><path fill="rgb(40,28,34)" stroke="rgb(40,28,34)" stroke-width="1" opacity="1" d="M 15.5 42 L 19 43.5 L 17.5 43 L 13.5 44 L 13.5 43 L 15.5 42 Z " /><path fill="rgb(145,95,61)" stroke="rgb(145,95,61)" stroke-width="1" opacity="1" d="M 12.5 30 L 15 30.5 L 11.5 32 L 12.5 30 Z " /><path fill="rgb(145,95,61)" stroke="rgb(145,95,61)" stroke-width="1" opacity="1" d="M 13.5 35 L 13.5 38 Q 10.5 36.5 13.5 35 Z " /><path fill="rgb(75,71,71)" stroke="rgb(75,71,71)" stroke-width="1" opacity="1" d="M 8.5 9 L 11 10.5 L 9.5 11 L 8.5 9 Z " /><path fill="rgb(75,71,71)" stroke="rgb(75,71,71)" stroke-width="1" opacity="1" d="M 18.5 13 Q 20.8 12.3 20 14.5 L 18.5 13 Z " /><path fill="rgb(75,71,71)" stroke="rgb(75,71,71)" stroke-width="1" opacity="1" d="M 14.5 46 L 13.5 48 L 14.5 46 Z " /><path fill="rgb(75,71,71)" stroke="rgb(75,71,71)" stroke-width="1" opacity="1" d="M 24.5 48 L 27 48.5 L 24.5 49 L 24.5 48 Z " /><path fill="rgb(253,254,253)" stroke="rgb(253,254,253)" stroke-width="1" opacity="1" d="M 0 0 L 30 0 L 30 50 L 0 50 L 0 0 Z M 2 1 L 2 3 Q 3 7 1 9 L 2 12 L 1 14 L 2 17 L 2 19 L 1 23 L 1 35 L 2 36 L 1 45 L 1 47 L 2 49 L 29 49 L 27 47 L 29 46 L 28 43 L 29 37 L 26 36 Q 23 35 24 38 L 20 39 L 20 38 Q 18 32 22 33 L 21 32 L 23 27 L 27 25 L 26 22 Q 25 17 28 17 L 26 15 Q 21 16 23 12 L 19 11 Q 16 12 16 16 L 13 14 L 15 10 L 9 6 L 5 7 L 3 3 L 27 2 L 28 3 L 28 1 L 2 1 Z " /><path fill="rgb(253,254,253)" stroke="rgb(253,254,253)" stroke-width="1" opacity="1" d="M 5.5 11 L 8 11.5 L 7 14.5 L 8 21 L 5 21 L 5 13.5 Q 2.8 12.3 5.5 11 Z " /><path fill="rgb(253,254,253)" stroke="rgb(253,254,253)" stroke-width="1" opacity="1" d="M 6.5 32 L 7 36 L 9.5 35 L 11 39 L 14 39.5 L 7.5 40 L 4 39 L 3 35.5 L 4 33 L 6.5 32 Z " /><path fill="rgb(253,254,253)" stroke="rgb(253,254,253)" stroke-width="1" opacity="1" d="M 8.5 45 L 16 45.5 L 8.5 46 L 8.5 45 Z " /><path fill="rgb(62,24,23)" stroke="rgb(62,24,23)" stroke-width="1" opacity="1" d="M 9.5 13 L 12 13.5 L 9 14 L 8.5 17 L 8 14.5 L 9.5 13 Z " /><path fill="rgb(62,24,23)" stroke="rgb(62,24,23)" stroke-width="1" opacity="1" d="M 9.5 20 Q 12.3 21.3 10 22.5 L 9.5 24 L 9 22.5 L 9.5 20 Z " /><path fill="rgb(62,24,23)" stroke="rgb(62,24,23)" stroke-width="1" opacity="1" d="M 13.5 20 L 14.5 22 Q 11.7 22.7 13.5 20 Z " /><path fill="rgb(62,24,23)" stroke="rgb(62,24,23)" stroke-width="1" opacity="1" d="M 18.5 22 L 21 22.5 L 18.5 23 L 18.5 22 Z " /><path fill="rgb(62,24,23)" stroke="rgb(62,24,23)" stroke-width="1" opacity="1" d="M 20.5 24 L 23 24.5 L 20.5 25 L 20.5 24 Z " /><path fill="rgb(164,161,154)" stroke="rgb(164,161,154)" stroke-width="1" opacity="1" d="M 6.5 1 L 14 1.5 L 6.5 2 L 6.5 1 Z " /><path fill="rgb(164,161,154)" stroke="rgb(164,161,154)" stroke-width="1" opacity="1" d="M 15.5 1 L 22 1.5 L 15.5 2 L 15.5 1 Z " /><path fill="rgb(164,161,154)" stroke="rgb(164,161,154)" stroke-width="1" opacity="1" d="M 11.5 8 L 13.5 11 L 11.5 8 Z " /><path fill="rgb(164,161,154)" stroke="rgb(164,161,154)" stroke-width="1" opacity="1" d="M 9.5 11 L 8.5 13 L 9.5 11 Z " /><path fill="rgb(164,161,154)" stroke="rgb(164,161,154)" stroke-width="1" opacity="1" d="M 13.5 14 L 14 17 L 11 16.5 L 13.5 14 Z " /><path fill="rgb(164,161,154)" stroke="rgb(164,161,154)" stroke-width="1" opacity="1" d="M 18.5 14 L 20.5 14 L 22 14.5 L 19.5 16 L 18.5 14 Z " /><path fill="rgb(164,161,154)" stroke="rgb(164,161,154)" stroke-width="1" opacity="1" d="M 12.5 22 L 13.5 24 L 12.5 22 Z " /><path fill="rgb(164,161,154)" stroke="rgb(164,161,154)" stroke-width="1" opacity="1" d="M 15.5 22 L 16 26.5 L 15 26.5 L 15.5 22 Z " /><path fill="rgb(164,161,154)" stroke="rgb(164,161,154)" stroke-width="1" opacity="1" d="M 16.5 28 L 16.5 30 L 18 30.5 L 16.5 31 Q 13.5 29.5 16.5 28 Z " /><path fill="rgb(164,161,154)" stroke="rgb(164,161,154)" stroke-width="1" opacity="1" d="M 21.5 29 L 22 30.5 L 19.5 35 L 18 32.5 L 21 30.5 L 21.5 29 Z " /><path fill="rgb(164,161,154)" stroke="rgb(164,161,154)" stroke-width="1" opacity="1" d="M 10.5 32 L 12 37.5 L 11 37.5 L 10.5 32 Z " /><path fill="rgb(164,161,154)" stroke="rgb(164,161,154)" stroke-width="1" opacity="1" d="M 18.5 38 L 19.5 40 Q 16.7 40.7 18.5 38 Z " /><path fill="rgb(164,161,154)" stroke="rgb(164,161,154)" stroke-width="1" opacity="1" d="M 21.5 41 L 23 42.5 L 21.5 45 L 24 45.5 L 21.5 46 L 20 43 L 22 42.5 L 21.5 41 Z " /><path fill="rgb(164,161,154)" stroke="rgb(164,161,154)" stroke-width="1" opacity="1" d="M 5.5 43 L 8 43.5 L 5.5 44 L 5.5 43 Z " /><path fill="rgb(164,161,154)" stroke="rgb(164,161,154)" stroke-width="1" opacity="1" d="M 19.5 46 L 20.5 48 L 19.5 46 Z " /><path fill="rgb(164,161,154)" stroke="rgb(164,161,154)" stroke-width="1" opacity="1" d="M 3.5 47 L 6 48.5 L 3 49 L 3.5 47 Z " /><path fill="rgb(164,161,154)" stroke="rgb(164,161,154)" stroke-width="1" opacity="1" d="M 8.5 47 L 10.5 48 L 12 47.5 Q 11.3 49.8 7.5 49 L 8.5 47 Z " /><path fill="rgb(164,161,154)" stroke="rgb(164,161,154)" stroke-width="1" opacity="1" d="M 14.5 47 L 13.5 49 L 14.5 47 Z " /><path fill="rgb(164,161,154)" stroke="rgb(164,161,154)" stroke-width="1" opacity="1" d="M 16.5 48 L 19 48.5 L 16.5 49 L 16.5 48 Z " /><path fill="rgb(139,113,107)" stroke="rgb(139,113,107)" stroke-width="1" opacity="1" d="M 7.5 7 L 10 8.5 L 8.5 8 L 7.5 7 Z " /><path fill="rgb(139,113,107)" stroke="rgb(139,113,107)" stroke-width="1" opacity="1" d="M 11.5 11 L 14 11.5 L 11.5 16 L 12 14.5 L 11.5 11 Z " /><path fill="rgb(139,113,107)" stroke="rgb(139,113,107)" stroke-width="1" opacity="1" d="M 21.5 15 L 20.5 17 L 21.5 15 Z " /><path fill="rgb(139,113,107)" stroke="rgb(139,113,107)" stroke-width="1" opacity="1" d="M 16.5 18 L 15.5 20 L 14 19.5 L 16.5 18 Z " /><path fill="rgb(139,113,107)" stroke="rgb(139,113,107)" stroke-width="1" opacity="1" d="M 14.5 24 L 14 25.5 Q 13.2 28.1 16.5 27 L 18 26.5 L 18 28.5 L 17.5 30 L 17 28 Q 14.3 26.9 15 29.5 L 14 29.5 L 13.5 27 L 12.5 30 L 12 27.5 L 12.5 25 L 14.5 24 Z " /><path fill="rgb(139,113,107)" stroke="rgb(139,113,107)" stroke-width="1" opacity="1" d="M 13.5 36 L 16 39.5 L 15 39.5 L 13.5 36 Z " /><path fill="rgb(139,113,107)" stroke="rgb(139,113,107)" stroke-width="1" opacity="1" d="M 23.5 38 L 24 39.5 L 23.5 41 L 27.5 40 L 27.5 41 L 26 41.5 L 27 44 L 25 43.5 L 25.5 42 Q 21.5 42.5 21 39.5 L 23 39.5 L 23.5 38 Z " /><path fill="rgb(139,113,107)" stroke="rgb(139,113,107)" stroke-width="1" opacity="1" d="M 24.5 45 L 23.5 47 L 24.5 45 Z " /><path fill="rgb(139,113,107)" stroke="rgb(139,113,107)" stroke-width="1" opacity="1" d="M 18.5 46 L 19 48 L 21.5 47 L 20.5 49 L 18 47.5 L 18.5 46 Z " /><path fill="rgb(139,113,107)" stroke="rgb(139,113,107)" stroke-width="1" opacity="1" d="M 5.5 47 Q 7.8 46.3 7 48.5 L 5.5 47 Z " /><path fill="rgb(122,60,70)" stroke="rgb(122,60,70)" stroke-width="1" opacity="1" d="M 25.5 38 L 25 39.5 Q 25.8 41.8 23.5 41 L 21 42.5 L 21.5 41 L 19 40.5 L 20.5 39 L 23.5 40 L 25.5 38 Z " /><path fill="rgb(122,60,70)" stroke="rgb(122,60,70)" stroke-width="1" opacity="1" d="M 3.5 40 L 5 40.5 L 2.5 42 L 3.5 40 Z " /></svg>