<svg width="30" height="50" version="1.1" xmlns="http://www.w3.org/2000/svg" desc="Created with imagetracer.js version 1.2.6" ><path fill="rgb(248,244,76)" stroke="rgb(248,244,76)" stroke-width="1" opacity="1" d="M 25.5 2 L 26.5 4 L 24 3.5 L 25.5 2 Z " /><path fill="rgb(248,244,76)" stroke="rgb(248,244,76)" stroke-width="1" opacity="1" d="M 6.5 4 L 11 6 L 11.5 4 L 18.5 6 L 23.5 6 L 25 7.5 L 21.5 8 L 17.5 7 L 13.5 9 L 11.5 8 L 10 11.5 L 11 16.5 L 9 19.5 L 12 20 L 11.5 22 L 9 21 L 8.5 24 L 3.5 22 L 2 22.5 L 3 11.5 L 4 10.5 L 2 9.5 L 8 6.5 L 6.5 4 Z " /><path fill="rgb(248,244,76)" stroke="rgb(248,244,76)" stroke-width="1" opacity="1" d="M 26.5 20 L 27 22.5 L 26 22.5 L 26.5 20 Z " /><path fill="rgb(248,244,76)" stroke="rgb(248,244,76)" stroke-width="1" opacity="1" d="M 11.5 23 L 13 23.5 L 10.5 25 L 11.5 23 Z " /><path fill="rgb(141,129,51)" stroke="rgb(141,129,51)" stroke-width="1" opacity="1" d="M 15.5 2 L 15.5 4 L 17 4.5 L 15.5 5 L 13 4.5 Q 12.3 2.3 14.5 3 L 15.5 2 Z " /><path fill="rgb(141,129,51)" stroke="rgb(141,129,51)" stroke-width="1" opacity="1" d="M 26.5 2 L 27.5 4 L 26.5 2 Z " /><path fill="rgb(141,129,51)" stroke="rgb(141,129,51)" stroke-width="1" opacity="1" d="M 22.5 3 L 21.5 5 L 22.5 3 Z " /><path fill="rgb(141,129,51)" stroke="rgb(141,129,51)" stroke-width="1" opacity="1" d="M 10.5 4 L 11 6 L 9 5.5 L 10.5 4 Z " /><path fill="rgb(141,129,51)" stroke="rgb(141,129,51)" stroke-width="1" opacity="1" d="M 12.5 10 L 13.5 12 L 12.5 10 Z " /><path fill="rgb(141,129,51)" stroke="rgb(141,129,51)" stroke-width="1" opacity="1" d="M 10.5 23 L 9.5 25 L 10.5 23 Z " /><path fill="rgb(141,129,51)" stroke="rgb(141,129,51)" stroke-width="1" opacity="1" d="M 24.5 35 L 27 36.5 L 25.5 36 L 24.5 35 Z " /><path fill="rgb(141,129,51)" stroke="rgb(141,129,51)" stroke-width="1" opacity="1" d="M 22 42 L 24 42.5 L 22 43.5 L 22 42 Z " /><path fill="rgb(141,129,51)" stroke="rgb(141,129,51)" stroke-width="1" opacity="1" d="M 19.5 43 L 20.5 45 L 19.5 43 Z " /><path fill="rgb(140,132,131)" stroke="rgb(140,132,131)" stroke-width="1" opacity="1" d="M 18.5 8 L 19 10.5 L 18 10.5 L 18.5 8 Z " /><path fill="rgb(140,132,131)" stroke="rgb(140,132,131)" stroke-width="1" opacity="1" d="M 21.5 13 L 24 13.5 Q 21.9 16.8 21.5 13 Z " /><path fill="rgb(140,132,131)" stroke="rgb(140,132,131)" stroke-width="1" opacity="1" d="M 15.5 15 L 14.5 17 L 15.5 15 Z " /><path fill="rgb(140,132,131)" stroke="rgb(140,132,131)" stroke-width="1" opacity="1" d="M 18.5 18 L 20 20.5 L 17.5 24 L 18 22.5 L 19 20.5 L 18.5 18 Z " /><path fill="rgb(140,132,131)" stroke="rgb(140,132,131)" stroke-width="1" opacity="1" d="M 20.5 26 L 21.5 28 L 20.5 26 Z " /><path fill="rgb(140,132,131)" stroke="rgb(140,132,131)" stroke-width="1" opacity="1" d="M 15.5 28 L 17.5 29 L 19 28.5 Q 19.8 31.1 16.5 30 L 15.5 33 L 14 31.5 Q 17.1 29.8 15.5 28 Z " /><path fill="rgb(140,132,131)" stroke="rgb(140,132,131)" stroke-width="1" opacity="1" d="M 4.5 47 L 7 48.5 L 2.5 49 L 2.5 48 L 4.5 47 Z " /><path fill="rgb(140,132,131)" stroke="rgb(140,132,131)" stroke-width="1" opacity="1" d="M 12.5 47 Q 16.3 46 15 49 L 10 48.5 L 12.5 47 Z " /><path fill="rgb(41,27,15)" stroke="rgb(41,27,15)" stroke-width="1" opacity="1" d="M 25.5 4 L 27.5 7 L 25.5 4 Z " /><path fill="rgb(41,27,15)" stroke="rgb(41,27,15)" stroke-width="1" opacity="1" d="M 3.5 5 L 5 7.5 L 4 7.5 L 3.5 6 L 2 6.5 L 3.5 5 Z " /><path fill="rgb(41,27,15)" stroke="rgb(41,27,15)" stroke-width="1" opacity="1" d="M 2.5 10 L 3 12.5 L 2 12.5 L 2.5 10 Z " /><path fill="rgb(41,27,15)" stroke="rgb(41,27,15)" stroke-width="1" opacity="1" d="M 14.5 10 L 16 12.5 L 14 11.5 L 14.5 10 Z " /><path fill="rgb(41,27,15)" stroke="rgb(41,27,15)" stroke-width="1" opacity="1" d="M 24.5 10 L 25 14 L 27 14.5 L 25 15.5 L 26 18.5 Q 26.8 20.8 24.5 20 L 24 17.5 L 24.5 10 Z " /><path fill="rgb(41,27,15)" stroke="rgb(41,27,15)" stroke-width="1" opacity="1" d="M 26.5 10 L 28 12.5 L 26 11.5 L 26.5 10 Z " /><path fill="rgb(41,27,15)" stroke="rgb(41,27,15)" stroke-width="1" opacity="1" d="M 12.5 14 L 13.5 16 L 12.5 14 Z " /><path fill="rgb(41,27,15)" stroke="rgb(41,27,15)" stroke-width="1" opacity="1" d="M 22.5 21 L 23 23 L 21 22.5 L 22.5 21 Z " /><path fill="rgb(41,27,15)" stroke="rgb(41,27,15)" stroke-width="1" opacity="1" d="M 20.5 24 L 21.5 26 Q 18.7 26.7 20.5 24 Z " /><path fill="rgb(41,27,15)" stroke="rgb(41,27,15)" stroke-width="1" opacity="1" d="M 24.5 24 Q 24.3 29.3 27 31.5 L 24 32.5 L 25 34.5 L 24 34.5 L 23 31 L 20 30.5 L 23 28.5 L 22.5 30 L 24.5 31 L 25 29.5 Q 22.6 28.1 24.5 24 Z " /><path fill="rgb(41,27,15)" stroke="rgb(41,27,15)" stroke-width="1" opacity="1" d="M 27.5 26 L 28 28.5 L 27 28.5 L 27.5 26 Z " /><path fill="rgb(41,27,15)" stroke="rgb(41,27,15)" stroke-width="1" opacity="1" d="M 5.5 32 L 5 33.5 Q 5.8 35.8 3.5 35 L 5.5 32 Z " /><path fill="rgb(41,27,15)" stroke="rgb(41,27,15)" stroke-width="1" opacity="1" d="M 20.5 35 L 21.5 37 Q 18.7 37.7 20.5 35 Z " /><path fill="rgb(41,27,15)" stroke="rgb(41,27,15)" stroke-width="1" opacity="1" d="M 4.5 43 L 5.5 45 L 4.5 43 Z " /><path fill="rgb(248,247,245)" stroke="rgb(248,247,245)" stroke-width="1" opacity="1" d="M 0 0 L 30 0 L 30 50 L 0 50 L 0 0 Z M 15 1 L 14 2 L 2 2 L 2 45 L 26 45 L 26 46 L 3 46 L 2 49 L 28 49 L 28 2 L 19 2 L 17 1 L 15 1 Z " /><path fill="rgb(211,175,68)" stroke="rgb(211,175,68)" stroke-width="1" opacity="1" d="M 14.5 2 L 15.5 4 L 14.5 2 Z " /><path fill="rgb(211,175,68)" stroke="rgb(211,175,68)" stroke-width="1" opacity="1" d="M 20.5 2 Q 24.9 0.5 24 3.5 L 22.5 3 Q 19.5 3.5 20.5 2 Z " /><path fill="rgb(211,175,68)" stroke="rgb(211,175,68)" stroke-width="1" opacity="1" d="M 6.5 5 L 7.5 7 Q 4.7 7.7 6.5 5 Z " /><path fill="rgb(211,175,68)" stroke="rgb(211,175,68)" stroke-width="1" opacity="1" d="M 11.5 8 L 12.5 12 L 11 11.5 L 10.5 13 L 10 11.5 L 11.5 8 Z " /><path fill="rgb(211,175,68)" stroke="rgb(211,175,68)" stroke-width="1" opacity="1" d="M 11.5 16 L 11 17.5 L 9 20.5 Q 12.7 22.2 9.5 24 L 8 20.5 L 11.5 16 Z " /><path fill="rgb(211,175,68)" stroke="rgb(211,175,68)" stroke-width="1" opacity="1" d="M 27.5 18 L 26 20.5 L 25.5 23 L 25 20.5 L 27.5 18 Z " /><path fill="rgb(211,175,68)" stroke="rgb(211,175,68)" stroke-width="1" opacity="1" d="M 26.5 33 L 25.5 35 L 26.5 33 Z " /><path fill="rgb(211,175,68)" stroke="rgb(211,175,68)" stroke-width="1" opacity="1" d="M 23.5 37 L 24.5 39 L 23.5 37 Z " /><path fill="rgb(211,175,68)" stroke="rgb(211,175,68)" stroke-width="1" opacity="1" d="M 2 41 L 5 42.5 L 2 43 L 2 41 Z " /><path fill="rgb(211,175,68)" stroke="rgb(211,175,68)" stroke-width="1" opacity="1" d="M 14.5 42 L 16 42.5 L 11.5 45 L 9.5 44 Q 8.3 46.3 7 43.5 L 9.5 43 L 14.5 42 Z " /><path fill="rgb(211,175,68)" stroke="rgb(211,175,68)" stroke-width="1" opacity="1" d="M 16.5 44 L 20 44.5 L 16.5 45 L 16.5 44 Z " /><path fill="rgb(178,189,192)" stroke="rgb(178,189,192)" stroke-width="1" opacity="1" d="M 19.5 8 L 21.5 11 L 19 9.5 L 19.5 8 Z " /><path fill="rgb(178,189,192)" stroke="rgb(178,189,192)" stroke-width="1" opacity="1" d="M 17.5 22 L 16.5 24 L 17.5 22 Z " /><path fill="rgb(178,189,192)" stroke="rgb(178,189,192)" stroke-width="1" opacity="1" d="M 3.5 23 L 8 24.5 L 2.5 25 L 3.5 23 Z " /><path fill="rgb(178,189,192)" stroke="rgb(178,189,192)" stroke-width="1" opacity="1" d="M 16.5 30 L 15.5 32 L 16.5 30 Z " /><path fill="rgb(178,189,192)" stroke="rgb(178,189,192)" stroke-width="1" opacity="1" d="M 26.5 45 Q 28.8 44.3 28 46.5 L 26.5 45 Z " /><path fill="rgb(178,189,192)" stroke="rgb(178,189,192)" stroke-width="1" opacity="1" d="M 5.5 46 Q 7.8 45.3 7 47.5 L 5.5 46 Z " /><path fill="rgb(178,189,192)" stroke="rgb(178,189,192)" stroke-width="1" opacity="1" d="M 15.5 47 L 18.5 48 L 28 48.5 L 15 49 L 15.5 47 Z " /><path fill="rgb(53,45,34)" stroke="rgb(53,45,34)" stroke-width="1" opacity="1" d="M 7.5 2 L 6.5 4 L 7.5 2 Z " /><path fill="rgb(53,45,34)" stroke="rgb(53,45,34)" stroke-width="1" opacity="1" d="M 21.5 3 L 20.5 5 L 21.5 3 Z " /><path fill="rgb(53,45,34)" stroke="rgb(53,45,34)" stroke-width="1" opacity="1" d="M 25.5 7 L 26 8.5 Q 25.3 12.8 19.5 12 L 19.5 11 Q 22.8 12.1 22 9.5 L 25 8.5 L 25.5 7 Z " /><path fill="rgb(53,45,34)" stroke="rgb(53,45,34)" stroke-width="1" opacity="1" d="M 15.5 11 L 18.5 13 L 18.5 14 L 15.5 11 Z " /><path fill="rgb(53,45,34)" stroke="rgb(53,45,34)" stroke-width="1" opacity="1" d="M 12.5 13 L 13.5 15 L 12.5 13 Z " /><path fill="rgb(53,45,34)" stroke="rgb(53,45,34)" stroke-width="1" opacity="1" d="M 21.5 14 L 21 15.5 L 20.5 17 L 20 15.5 L 21.5 14 Z " /><path fill="rgb(53,45,34)" stroke="rgb(53,45,34)" stroke-width="1" opacity="1" d="M 23.5 22 L 26.5 26 L 27.5 24 L 28 25.5 Q 26.5 28.5 25 25.5 L 23.5 23 L 22.5 25 L 22 23.5 L 23.5 22 Z " /><path fill="rgb(53,45,34)" stroke="rgb(53,45,34)" stroke-width="1" opacity="1" d="M 21.5 28 L 19.5 31 L 21.5 28 Z " /><path fill="rgb(53,45,34)" stroke="rgb(53,45,34)" stroke-width="1" opacity="1" d="M 22.5 32 L 24 35 L 22 34.5 L 22.5 32 Z " /><path fill="rgb(53,45,34)" stroke="rgb(53,45,34)" stroke-width="1" opacity="1" d="M 7.5 46 L 8.5 48 L 7.5 46 Z " /><path fill="rgb(53,45,34)" stroke="rgb(53,45,34)" stroke-width="1" opacity="1" d="M 21 46 Q 24 45 23 48 Q 20 49 21 46 Z " /><path fill="rgb(131,81,35)" stroke="rgb(131,81,35)" stroke-width="1" opacity="1" d="M 17 3 L 20 4.5 L 17 4.5 L 17 3 Z " /><path fill="rgb(131,81,35)" stroke="rgb(131,81,35)" stroke-width="1" opacity="1" d="M 11.5 11 L 12.5 13 Q 9.7 13.7 11.5 11 Z " /><path fill="rgb(131,81,35)" stroke="rgb(131,81,35)" stroke-width="1" opacity="1" d="M 13.5 16 L 14.5 18 L 13.5 16 Z " /><path fill="rgb(131,81,35)" stroke="rgb(131,81,35)" stroke-width="1" opacity="1" d="M 25.5 32 L 28 32.5 L 25.5 33 L 25.5 32 Z " /><path fill="rgb(131,81,35)" stroke="rgb(131,81,35)" stroke-width="1" opacity="1" d="M 7.5 36 L 7.5 38 L 10.5 37 L 11.5 39 L 13 38.5 L 10 39.5 Q 9.2 42.1 12.5 41 L 12.5 42 Q 8.8 42.8 8 40.5 L 8.5 39 L 6.5 38 L 5 38.5 L 7.5 36 Z " /><path fill="rgb(131,81,35)" stroke="rgb(131,81,35)" stroke-width="1" opacity="1" d="M 3.5 37 L 2.5 39 L 3.5 37 Z " /><path fill="rgb(131,81,35)" stroke="rgb(131,81,35)" stroke-width="1" opacity="1" d="M 5.5 43 L 8 44.5 L 6.5 44 L 5.5 43 Z " /><path fill="rgb(111,27,15)" stroke="rgb(111,27,15)" stroke-width="1" opacity="1" d="M 15.5 17 L 18 18.5 L 16.5 21 L 15.5 19 L 14.5 22 L 13 19.5 L 15.5 17 Z " /><path fill="rgb(111,27,15)" stroke="rgb(111,27,15)" stroke-width="1" opacity="1" d="M 19.5 24 L 18.5 26 L 19.5 24 Z " /><path fill="rgb(111,27,15)" stroke="rgb(111,27,15)" stroke-width="1" opacity="1" d="M 6.5 27 L 10 28.5 L 7.5 30 L 7.5 28 L 6.5 27 Z " /><path fill="rgb(111,27,15)" stroke="rgb(111,27,15)" stroke-width="1" opacity="1" d="M 13.5 28 L 13 29.5 L 14 34.5 L 12.5 38 L 11 33.5 L 13.5 28 Z " /><path fill="rgb(111,27,15)" stroke="rgb(111,27,15)" stroke-width="1" opacity="1" d="M 9.5 30 L 10 32.5 L 9 32.5 L 9.5 30 Z " /><path fill="rgb(111,27,15)" stroke="rgb(111,27,15)" stroke-width="1" opacity="1" d="M 7.5 33 L 10 36.5 L 9 36.5 L 8.5 35 L 7 35.5 L 7.5 33 Z " /><path fill="rgb(111,27,15)" stroke="rgb(111,27,15)" stroke-width="1" opacity="1" d="M 24.5 39 L 25.5 41 Q 22.7 41.7 24.5 39 Z " /><path fill="rgb(97,91,82)" stroke="rgb(97,91,82)" stroke-width="1" opacity="1" d="M 22.5 8 L 21.5 10 L 22.5 8 Z " /><path fill="rgb(97,91,82)" stroke="rgb(97,91,82)" stroke-width="1" opacity="1" d="M 14.5 9 L 17 9.5 Q 14.9 12.8 14.5 9 Z " /><path fill="rgb(97,91,82)" stroke="rgb(97,91,82)" stroke-width="1" opacity="1" d="M 17.5 12 L 16.5 14 L 17.5 12 Z " /><path fill="rgb(97,91,82)" stroke="rgb(97,91,82)" stroke-width="1" opacity="1" d="M 16.5 15 L 15.5 17 L 16.5 15 Z " /><path fill="rgb(97,91,82)" stroke="rgb(97,91,82)" stroke-width="1" opacity="1" d="M 22.5 16 Q 25.5 17.5 22.5 19 L 22.5 16 Z " /><path fill="rgb(97,91,82)" stroke="rgb(97,91,82)" stroke-width="1" opacity="1" d="M 17.5 20 L 18 22 L 16 21.5 L 17.5 20 Z " /><path fill="rgb(97,91,82)" stroke="rgb(97,91,82)" stroke-width="1" opacity="1" d="M 14.5 23 L 15.5 25 L 14.5 23 Z " /><path fill="rgb(97,91,82)" stroke="rgb(97,91,82)" stroke-width="1" opacity="1" d="M 23.5 24 L 24 25.5 L 21.5 27 L 23.5 24 Z " /><path fill="rgb(97,91,82)" stroke="rgb(97,91,82)" stroke-width="1" opacity="1" d="M 3.5 25 L 4 28.5 L 3 28.5 L 3.5 25 Z " /><path fill="rgb(97,91,82)" stroke="rgb(97,91,82)" stroke-width="1" opacity="1" d="M 17.5 27 L 20 27.5 L 16.5 29 L 17.5 27 Z " /><path fill="rgb(97,91,82)" stroke="rgb(97,91,82)" stroke-width="1" opacity="1" d="M 14.5 28 L 15 30.5 L 13 29.5 L 14.5 28 Z " /><path fill="rgb(97,91,82)" stroke="rgb(97,91,82)" stroke-width="1" opacity="1" d="M 19.5 29 L 19.5 31 L 21 31.5 L 19.5 32 L 18 31.5 L 17.5 34 Q 14.7 32.8 17 31.5 Q 16.3 29.3 18.5 30 L 19.5 29 Z " /><path fill="rgb(97,91,82)" stroke="rgb(97,91,82)" stroke-width="1" opacity="1" d="M 14.5 32 L 16 36 L 19 34.5 Q 18.3 32.3 20.5 33 L 18.5 38 L 16.5 37 L 14 38.5 L 14 34.5 L 14.5 32 Z " /><path fill="rgb(97,91,82)" stroke="rgb(97,91,82)" stroke-width="1" opacity="1" d="M 4.5 46 L 5.5 48 L 4.5 46 Z " /><path fill="rgb(97,91,82)" stroke="rgb(97,91,82)" stroke-width="1" opacity="1" d="M 8.5 46 L 8.5 48 L 10 48.5 L 7 49 L 8.5 46 Z " /><path fill="rgb(97,91,82)" stroke="rgb(97,91,82)" stroke-width="1" opacity="1" d="M 15.5 46 L 18 46.5 Q 15.9 49.8 15.5 46 Z " /><path fill="rgb(97,91,82)" stroke="rgb(97,91,82)" stroke-width="1" opacity="1" d="M 19 46 Q 22 45 21 48 Q 18 49 19 46 Z " /><path fill="rgb(47,11,7)" stroke="rgb(47,11,7)" stroke-width="1" opacity="1" d="M 16.5 16 L 20 17.5 L 17.5 18 L 16.5 16 Z " /><path fill="rgb(47,11,7)" stroke="rgb(47,11,7)" stroke-width="1" opacity="1" d="M 12.5 17 L 13.5 19 Q 10.7 19.7 12.5 17 Z " /><path fill="rgb(47,11,7)" stroke="rgb(47,11,7)" stroke-width="1" opacity="1" d="M 15.5 21 L 14.5 23 L 15.5 21 Z " /><path fill="rgb(47,11,7)" stroke="rgb(47,11,7)" stroke-width="1" opacity="1" d="M 5.5 27 L 8 28.5 L 6.5 29 L 5.5 27 Z " /><path fill="rgb(47,11,7)" stroke="rgb(47,11,7)" stroke-width="1" opacity="1" d="M 23.5 28 L 25 30.5 L 23.5 30 L 22 29.5 L 23.5 28 Z " /><path fill="rgb(47,11,7)" stroke="rgb(47,11,7)" stroke-width="1" opacity="1" d="M 7.5 30 Q 10.5 29.1 9 33.5 L 7 32.5 L 7.5 30 Z " /><path fill="rgb(47,11,7)" stroke="rgb(47,11,7)" stroke-width="1" opacity="1" d="M 21.5 35 L 24 36.5 L 22.5 37 L 21.5 35 Z " /><path fill="rgb(47,11,7)" stroke="rgb(47,11,7)" stroke-width="1" opacity="1" d="M 27.5 39 L 28 41.5 L 26 42.5 L 27.5 39 Z " /><path fill="rgb(47,11,7)" stroke="rgb(47,11,7)" stroke-width="1" opacity="1" d="M 2.5 44 L 5 44.5 L 2.5 45 L 2.5 44 Z " /><path fill="rgb(186,97,47)" stroke="rgb(186,97,47)" stroke-width="1" opacity="1" d="M 13.5 13 Q 15.8 12.3 15 14.5 L 13.5 13 Z " /><path fill="rgb(186,97,47)" stroke="rgb(186,97,47)" stroke-width="1" opacity="1" d="M 5.5 30 L 4.5 32 L 5.5 30 Z " /><path fill="rgb(186,97,47)" stroke="rgb(186,97,47)" stroke-width="1" opacity="1" d="M 24.5 36 L 27 37.5 L 25.5 37 L 24.5 36 Z " /><path fill="rgb(186,97,47)" stroke="rgb(186,97,47)" stroke-width="1" opacity="1" d="M 4.5 37 L 9 39.5 L 8 42 L 10 42.5 L 8.5 43 L 6.5 43 L 5 42.5 L 6 40.5 L 5.5 38 L 4.5 37 Z " /><path fill="rgb(186,97,47)" stroke="rgb(186,97,47)" stroke-width="1" opacity="1" d="M 21.5 37 L 24 38.5 L 21.5 40 L 21.5 37 Z " /><path fill="rgb(186,97,47)" stroke="rgb(186,97,47)" stroke-width="1" opacity="1" d="M 25.5 39 L 26.5 41 L 25.5 39 Z " /><path fill="rgb(186,97,47)" stroke="rgb(186,97,47)" stroke-width="1" opacity="1" d="M 16.5 41 L 20.5 42 L 25 41 L 24.5 43 L 21.5 42 L 15.5 44 L 16 42.5 L 16.5 41 Z " /><path fill="rgb(169,158,88)" stroke="rgb(169,158,88)" stroke-width="1" opacity="1" d="M 11.5 2 L 12.5 4 L 11.5 2 Z " /><path fill="rgb(169,158,88)" stroke="rgb(169,158,88)" stroke-width="1" opacity="1" d="M 17.5 2 L 20 2.5 L 16.5 4 L 17.5 2 Z " /><path fill="rgb(169,158,88)" stroke="rgb(169,158,88)" stroke-width="1" opacity="1" d="M 24.5 2 L 25.5 4 L 24.5 2 Z " /><path fill="rgb(169,158,88)" stroke="rgb(169,158,88)" stroke-width="1" opacity="1" d="M 11.5 13 L 12 15.5 L 11 15.5 L 11.5 13 Z " /><path fill="rgb(169,158,88)" stroke="rgb(169,158,88)" stroke-width="1" opacity="1" d="M 4.5 39 L 5.5 41 L 4.5 39 Z " /><path fill="rgb(79,64,34)" stroke="rgb(79,64,34)" stroke-width="1" opacity="1" d="M 8 2 L 10 2.5 L 8 3.5 L 8 2 Z " /><path fill="rgb(79,64,34)" stroke="rgb(79,64,34)" stroke-width="1" opacity="1" d="M 22.5 4 L 23 6 L 21 5.5 L 22.5 4 Z " /><path fill="rgb(79,64,34)" stroke="rgb(79,64,34)" stroke-width="1" opacity="1" d="M 26.5 4 L 27.5 6 L 26.5 4 Z " /><path fill="rgb(79,64,34)" stroke="rgb(79,64,34)" stroke-width="1" opacity="1" d="M 18.5 7 L 20 7.5 L 17.5 9 L 18.5 7 Z " /><path fill="rgb(79,64,34)" stroke="rgb(79,64,34)" stroke-width="1" opacity="1" d="M 17.5 11 Q 19.8 10.3 19 12.5 L 17.5 11 Z " /><path fill="rgb(79,64,34)" stroke="rgb(79,64,34)" stroke-width="1" opacity="1" d="M 20.5 12 L 21 14.5 L 19.5 17 L 18 14.5 L 20 14.5 L 20.5 12 Z " /><path fill="rgb(79,64,34)" stroke="rgb(79,64,34)" stroke-width="1" opacity="1" d="M 21.5 21 L 22 23.5 L 21.5 25 L 19 24 Q 17.9 21.3 20.5 22 L 21.5 21 Z " /><path fill="rgb(79,64,34)" stroke="rgb(79,64,34)" stroke-width="1" opacity="1" d="M 23.5 26 L 24 28 L 22 27.5 L 23.5 26 Z " /><path fill="rgb(79,64,34)" stroke="rgb(79,64,34)" stroke-width="1" opacity="1" d="M 21.5 32 L 22 33.5 L 20 34.5 L 21.5 32 Z " /><path fill="rgb(79,64,34)" stroke="rgb(79,64,34)" stroke-width="1" opacity="1" d="M 5 34 L 7 34.5 L 5 35.5 L 5 34 Z " /><path fill="rgb(79,64,34)" stroke="rgb(79,64,34)" stroke-width="1" opacity="1" d="M 17.5 34 L 18 36 L 16 35.5 L 17.5 34 Z " /><path fill="rgb(79,64,34)" stroke="rgb(79,64,34)" stroke-width="1" opacity="1" d="M 17.5 37 L 20 37.5 L 19 40 L 21 40.5 L 14.5 41 L 12.5 43 L 14.5 40 Q 18.5 41.1 17.5 37 Z " /><path fill="rgb(79,64,34)" stroke="rgb(79,64,34)" stroke-width="1" opacity="1" d="M 25.5 43 L 24.5 45 L 25.5 43 Z " /><path fill="rgb(79,64,34)" stroke="rgb(79,64,34)" stroke-width="1" opacity="1" d="M 10.5 46 L 11.5 48 L 9 47.5 L 10.5 46 Z " /><path fill="rgb(174,26,17)" stroke="rgb(174,26,17)" stroke-width="1" opacity="1" d="M 17.5 24 L 19 24.5 L 18.5 27 L 16.5 28 L 14.5 27 L 12 29.5 L 11 33.5 L 12 37 L 8.5 38 L 8.5 37 Q 10.8 37.8 10 35.5 L 8 35.5 L 10 30 L 8 29.5 L 10 28.5 L 8 28 Q 6.6 24 13.5 26 L 17.5 24 Z " /></svg>