<svg width="30" height="50" version="1.1" xmlns="http://www.w3.org/2000/svg" desc="Created with imagetracer.js version 1.2.6" ><path fill="rgb(245,242,74)" stroke="rgb(245,242,74)" stroke-width="1" opacity="1" d="M 2 2 L 21.5 2 L 22 3.5 L 22 5.5 L 24 8.5 L 25 12.5 L 23.5 16 L 23 13.5 L 24 9.5 Q 22.8 6.8 21.5 9 L 17.5 10 L 14.5 9 L 9.5 10 L 6 9 L 5 14.5 L 7 15 L 6.5 18 L 4.5 15 L 2 16.5 L 2 2 Z " /><path fill="rgb(245,242,74)" stroke="rgb(245,242,74)" stroke-width="1" opacity="1" d="M 20.5 22 L 21.5 24 L 18 23.5 L 20.5 22 Z " /><path fill="rgb(245,242,74)" stroke="rgb(245,242,74)" stroke-width="1" opacity="1" d="M 21.5 25 L 20.5 27 L 19 26.5 L 21.5 25 Z " /><path fill="rgb(146,100,48)" stroke="rgb(146,100,48)" stroke-width="1" opacity="1" d="M 12.5 10 L 13.5 12 L 12.5 10 Z " /><path fill="rgb(146,100,48)" stroke="rgb(146,100,48)" stroke-width="1" opacity="1" d="M 13.5 13 L 16.5 14 L 19.5 13 L 19.5 14 L 15.5 16 L 15 14 L 13.5 13 Z " /><path fill="rgb(146,100,48)" stroke="rgb(146,100,48)" stroke-width="1" opacity="1" d="M 24.5 14 L 25 16.5 L 24 16.5 L 24.5 14 Z " /><path fill="rgb(146,100,48)" stroke="rgb(146,100,48)" stroke-width="1" opacity="1" d="M 13.5 15 L 14 16.5 L 12 17.5 L 13.5 15 Z " /><path fill="rgb(146,100,48)" stroke="rgb(146,100,48)" stroke-width="1" opacity="1" d="M 18.5 19 L 20 19.5 L 17.5 21 L 18.5 19 Z " /><path fill="rgb(146,100,48)" stroke="rgb(146,100,48)" stroke-width="1" opacity="1" d="M 5.5 41 L 4.5 43 L 5.5 41 Z " /><path fill="rgb(93,44,24)" stroke="rgb(93,44,24)" stroke-width="1" opacity="1" d="M 9.5 10 L 10 12.5 L 9 12.5 L 9.5 10 Z " /><path fill="rgb(93,44,24)" stroke="rgb(93,44,24)" stroke-width="1" opacity="1" d="M 18.5 10 L 20 10.5 L 15 13 L 15.5 11 Q 17 13.5 18.5 10 Z " /><path fill="rgb(93,44,24)" stroke="rgb(93,44,24)" stroke-width="1" opacity="1" d="M 13.5 14 Q 15.8 13.3 15 15.5 L 18 14.5 Q 19.6 20.2 14 18 L 13.5 14 Z " /><path fill="rgb(93,44,24)" stroke="rgb(93,44,24)" stroke-width="1" opacity="1" d="M 25.5 38 L 26.5 40 L 24 39.5 L 25.5 38 Z " /><path fill="rgb(251,251,222)" stroke="rgb(251,251,222)" stroke-width="1" opacity="1" d="M 0 0 L 30 0 L 30 50 L 0 50 L 0 0 Z M 2 2 L 2 48 L 17 48 L 17 47 L 20 48 L 21 47 Q 26 49 25 46 L 28 45 L 28 20 L 26 19 Q 25 16 28 17 L 28 15 Q 29 10 25 12 L 24 9 L 22 6 L 22 4 L 22 2 L 2 2 Z " /><path fill="rgb(72,72,65)" stroke="rgb(72,72,65)" stroke-width="1" opacity="1" d="M 7.5 13 L 10 13.5 Q 10.8 15.8 8.5 15 L 7.5 13 Z " /><path fill="rgb(72,72,65)" stroke="rgb(72,72,65)" stroke-width="1" opacity="1" d="M 12.5 15 L 13 16.5 L 11 17.5 L 12.5 15 Z " /><path fill="rgb(72,72,65)" stroke="rgb(72,72,65)" stroke-width="1" opacity="1" d="M 20.5 16 L 22 18.5 L 20 17.5 L 20.5 16 Z " /><path fill="rgb(72,72,65)" stroke="rgb(72,72,65)" stroke-width="1" opacity="1" d="M 7.5 19 L 6 21.5 L 7 24.5 L 5 25 Q 4 20.3 7.5 19 Z " /><path fill="rgb(72,72,65)" stroke="rgb(72,72,65)" stroke-width="1" opacity="1" d="M 12.5 21 L 14 25 L 16 24.5 L 15.5 23 Q 17.8 22.3 17 24.5 L 16.5 27 Q 13.2 28.1 14 25.5 L 11.5 27 L 10 26.5 L 13 24.5 L 12.5 21 Z " /><path fill="rgb(72,72,65)" stroke="rgb(72,72,65)" stroke-width="1" opacity="1" d="M 7.5 22 L 11 23.5 L 8.5 24 L 7.5 22 Z " /><path fill="rgb(72,72,65)" stroke="rgb(72,72,65)" stroke-width="1" opacity="1" d="M 23.5 25 L 23.5 28 L 22 27.5 L 21 29.5 L 23 30.5 L 22.5 33 L 19 31.5 L 21 31.5 L 20 29.5 L 23.5 25 Z " /><path fill="rgb(72,72,65)" stroke="rgb(72,72,65)" stroke-width="1" opacity="1" d="M 3.5 27 L 6 27.5 L 3.5 31 L 3 29.5 L 3.5 27 Z " /><path fill="rgb(72,72,65)" stroke="rgb(72,72,65)" stroke-width="1" opacity="1" d="M 13.5 29 L 16 29.5 Q 16.8 31.8 14.5 31 L 13.5 29 Z " /><path fill="rgb(72,72,65)" stroke="rgb(72,72,65)" stroke-width="1" opacity="1" d="M 8.5 32 L 10 34.5 L 8 33.5 L 8.5 32 Z " /><path fill="rgb(72,72,65)" stroke="rgb(72,72,65)" stroke-width="1" opacity="1" d="M 17.5 33 L 20 34.5 Q 20.8 36.8 18.5 36 L 18.5 34 L 17.5 33 Z " /><path fill="rgb(72,72,65)" stroke="rgb(72,72,65)" stroke-width="1" opacity="1" d="M 24.5 33 L 26 35.5 L 22.5 38 L 21 34.5 L 22 34.5 L 22.5 36 L 24.5 33 Z " /><path fill="rgb(72,72,65)" stroke="rgb(72,72,65)" stroke-width="1" opacity="1" d="M 6 35 L 8 35.5 L 6 36.5 L 6 35 Z " /><path fill="rgb(72,72,65)" stroke="rgb(72,72,65)" stroke-width="1" opacity="1" d="M 10.5 37 L 10 38.5 L 11 40.5 L 9 39.5 L 10.5 37 Z " /><path fill="rgb(72,72,65)" stroke="rgb(72,72,65)" stroke-width="1" opacity="1" d="M 20.5 38 L 22 41.5 L 18.5 43 L 16.5 43 L 13.5 44 L 12.5 42 L 17.5 41 Q 18.8 43.3 20 40.5 L 20.5 38 Z " /><path fill="rgb(72,72,65)" stroke="rgb(72,72,65)" stroke-width="1" opacity="1" d="M 6.5 41 L 9 41.5 L 7.5 44 L 6.5 41 Z " /><path fill="rgb(72,72,65)" stroke="rgb(72,72,65)" stroke-width="1" opacity="1" d="M 12.5 45 L 16 45.5 L 12.5 46 L 12.5 45 Z " /><path fill="rgb(231,145,72)" stroke="rgb(231,145,72)" stroke-width="1" opacity="1" d="M 12.5 20 L 17 20.5 L 12.5 21 L 12.5 20 Z " /><path fill="rgb(147,148,99)" stroke="rgb(147,148,99)" stroke-width="1" opacity="1" d="M 18.5 22 L 17.5 24 L 18.5 22 Z " /><path fill="rgb(147,148,99)" stroke="rgb(147,148,99)" stroke-width="1" opacity="1" d="M 22.5 24 L 23 25.5 L 21 26.5 L 22.5 24 Z " /><path fill="rgb(147,148,99)" stroke="rgb(147,148,99)" stroke-width="1" opacity="1" d="M 17.5 25 L 18.5 27 L 17.5 25 Z " /><path fill="rgb(147,148,99)" stroke="rgb(147,148,99)" stroke-width="1" opacity="1" d="M 12.5 39 L 11.5 41 L 12.5 39 Z " /><path fill="rgb(147,148,99)" stroke="rgb(147,148,99)" stroke-width="1" opacity="1" d="M 14.5 40 L 17 40.5 L 14.5 41 L 14.5 40 Z " /><path fill="rgb(195,197,198)" stroke="rgb(195,197,198)" stroke-width="1" opacity="1" d="M 24.5 20 L 25 22.5 L 24 22.5 L 24.5 20 Z " /><path fill="rgb(195,197,198)" stroke="rgb(195,197,198)" stroke-width="1" opacity="1" d="M 4.5 22 L 5 25.5 L 4 25.5 L 3.5 24 L 2.5 27 L 2 24.5 L 4.5 22 Z " /><path fill="rgb(195,197,198)" stroke="rgb(195,197,198)" stroke-width="1" opacity="1" d="M 9.5 43 L 12 43.5 L 9.5 44 L 9.5 43 Z " /><path fill="rgb(195,197,198)" stroke="rgb(195,197,198)" stroke-width="1" opacity="1" d="M 4.5 45 L 6 45.5 L 3.5 47 L 4.5 45 Z " /><path fill="rgb(195,197,198)" stroke="rgb(195,197,198)" stroke-width="1" opacity="1" d="M 7 45 Q 11.7 44 13 47.5 L 11.5 48 L 9.5 47 Q 8.3 49.3 7 46.5 L 7 45 Z " /><path fill="rgb(195,197,198)" stroke="rgb(195,197,198)" stroke-width="1" opacity="1" d="M 23 45 Q 26 44 25 47 Q 22 48 23 45 Z " /><path fill="rgb(195,197,198)" stroke="rgb(195,197,198)" stroke-width="1" opacity="1" d="M 14.5 46 L 17 46.5 Q 17.8 48.8 15.5 48 L 14.5 46 Z " /><path fill="rgb(24,11,14)" stroke="rgb(24,11,14)" stroke-width="1" opacity="1" d="M 10.5 14 L 13 14.5 L 8 18.5 Q 6.5 14.1 9.5 15 L 10.5 14 Z " /><path fill="rgb(24,11,14)" stroke="rgb(24,11,14)" stroke-width="1" opacity="1" d="M 18.5 17 L 18 18.5 L 17.5 20 L 17 18.5 L 18.5 17 Z " /><path fill="rgb(24,11,14)" stroke="rgb(24,11,14)" stroke-width="1" opacity="1" d="M 14 18 L 16 18.5 L 14 19.5 L 14 18 Z " /><path fill="rgb(24,11,14)" stroke="rgb(24,11,14)" stroke-width="1" opacity="1" d="M 13.5 22 L 14.5 24 L 13.5 22 Z " /><path fill="rgb(24,11,14)" stroke="rgb(24,11,14)" stroke-width="1" opacity="1" d="M 17.5 26 L 20 27.5 L 16.5 28 L 17.5 26 Z " /><path fill="rgb(24,11,14)" stroke="rgb(24,11,14)" stroke-width="1" opacity="1" d="M 4.5 29 L 11 29.5 L 6.5 31 L 4.5 29 Z " /><path fill="rgb(24,11,14)" stroke="rgb(24,11,14)" stroke-width="1" opacity="1" d="M 11.5 33 L 12 35.5 L 11 35.5 L 11.5 33 Z " /><path fill="rgb(24,11,14)" stroke="rgb(24,11,14)" stroke-width="1" opacity="1" d="M 7.5 36 L 8.5 38 L 6 37.5 L 7.5 36 Z " /><path fill="rgb(24,11,14)" stroke="rgb(24,11,14)" stroke-width="1" opacity="1" d="M 3.5 37 L 5 37.5 L 3 38 L 2.5 40 L 2 38.5 L 3.5 37 Z " /><path fill="rgb(24,11,14)" stroke="rgb(24,11,14)" stroke-width="1" opacity="1" d="M 11.5 37 L 14 37.5 Q 11.9 40.8 11.5 37 Z " /><path fill="rgb(24,11,14)" stroke="rgb(24,11,14)" stroke-width="1" opacity="1" d="M 16.5 37 L 17 39.5 L 16 39.5 L 16.5 37 Z " /><path fill="rgb(24,11,14)" stroke="rgb(24,11,14)" stroke-width="1" opacity="1" d="M 5.5 44 L 8 44.5 L 5.5 45 L 5.5 44 Z " /><path fill="rgb(187,192,85)" stroke="rgb(187,192,85)" stroke-width="1" opacity="1" d="M 6.5 9 L 7 13.5 L 5 16.5 L 7 17.5 L 7.5 16 L 8 17.5 L 6.5 19 L 4 18.5 L 4 16.5 Q 6.8 14.3 6.5 9 Z " /><path fill="rgb(187,192,85)" stroke="rgb(187,192,85)" stroke-width="1" opacity="1" d="M 21.5 9 Q 25.7 7.7 24 12.5 L 23 12.5 Q 24.1 9.2 21.5 10 L 21.5 9 Z " /><path fill="rgb(187,192,85)" stroke="rgb(187,192,85)" stroke-width="1" opacity="1" d="M 15.5 10 L 14.5 12 L 15.5 10 Z " /><path fill="rgb(187,192,85)" stroke="rgb(187,192,85)" stroke-width="1" opacity="1" d="M 22.5 14 L 24 16.5 L 22.5 19 L 22.5 14 Z " /><path fill="rgb(187,192,85)" stroke="rgb(187,192,85)" stroke-width="1" opacity="1" d="M 8.5 19 Q 11.5 20.5 8.5 22 L 8.5 19 Z " /><path fill="rgb(187,192,85)" stroke="rgb(187,192,85)" stroke-width="1" opacity="1" d="M 2.5 21 Q 4.8 20.3 4 22.5 L 2.5 21 Z " /><path fill="rgb(187,192,85)" stroke="rgb(187,192,85)" stroke-width="1" opacity="1" d="M 17.5 24 L 20.5 25 L 22 24.5 L 18.5 26 L 17.5 24 Z " /><path fill="rgb(187,192,85)" stroke="rgb(187,192,85)" stroke-width="1" opacity="1" d="M 3.5 34 L 4.5 36 L 3.5 34 Z " /><path fill="rgb(187,192,85)" stroke="rgb(187,192,85)" stroke-width="1" opacity="1" d="M 25.5 37 Q 27.8 36.3 27 38.5 L 25.5 37 Z " /><path fill="rgb(99,98,83)" stroke="rgb(99,98,83)" stroke-width="1" opacity="1" d="M 22 19 L 24 19.5 L 23.5 22 L 22 19 Z " /><path fill="rgb(99,98,83)" stroke="rgb(99,98,83)" stroke-width="1" opacity="1" d="M 25.5 22 L 28 22.5 Q 25.9 25.8 25.5 22 Z " /><path fill="rgb(99,98,83)" stroke="rgb(99,98,83)" stroke-width="1" opacity="1" d="M 12.5 23 L 11.5 25 L 12.5 23 Z " /><path fill="rgb(99,98,83)" stroke="rgb(99,98,83)" stroke-width="1" opacity="1" d="M 8.5 24 L 6.5 27 L 8.5 24 Z " /><path fill="rgb(99,98,83)" stroke="rgb(99,98,83)" stroke-width="1" opacity="1" d="M 20.5 27 L 21 28.5 L 19 31.5 L 19.5 33 L 18 30.5 L 18.5 28 L 20 28.5 L 20.5 27 Z " /><path fill="rgb(99,98,83)" stroke="rgb(99,98,83)" stroke-width="1" opacity="1" d="M 3.5 28 L 3 29.5 L 2.5 31 L 2 29.5 L 3.5 28 Z " /><path fill="rgb(99,98,83)" stroke="rgb(99,98,83)" stroke-width="1" opacity="1" d="M 4.5 34 L 5.5 36 L 4.5 34 Z " /><path fill="rgb(99,98,83)" stroke="rgb(99,98,83)" stroke-width="1" opacity="1" d="M 18.5 37 L 19.5 39 L 18.5 37 Z " /><path fill="rgb(99,98,83)" stroke="rgb(99,98,83)" stroke-width="1" opacity="1" d="M 17.5 40 L 18.5 44 Q 14 42 17.5 40 Z " /><path fill="rgb(99,98,83)" stroke="rgb(99,98,83)" stroke-width="1" opacity="1" d="M 7.5 41 L 9 43.5 L 8 43.5 L 7.5 41 Z " /><path fill="rgb(29,20,24)" stroke="rgb(29,20,24)" stroke-width="1" opacity="1" d="M 6.5 25 L 4.5 28 L 6.5 25 Z " /><path fill="rgb(29,20,24)" stroke="rgb(29,20,24)" stroke-width="1" opacity="1" d="M 8.5 26 L 9.5 28 Q 6.7 28.7 8.5 26 Z " /><path fill="rgb(29,20,24)" stroke="rgb(29,20,24)" stroke-width="1" opacity="1" d="M 12.5 27 L 16 28.5 L 14.5 28 Q 11.5 28.5 12.5 27 Z " /><path fill="rgb(29,20,24)" stroke="rgb(29,20,24)" stroke-width="1" opacity="1" d="M 24.5 27 L 27 31.5 L 25.5 31 Q 23.3 31.8 24 29.5 Q 21.7 28.3 24.5 27 Z " /><path fill="rgb(29,20,24)" stroke="rgb(29,20,24)" stroke-width="1" opacity="1" d="M 11.5 31 L 10.5 33 L 11.5 31 Z " /><path fill="rgb(29,20,24)" stroke="rgb(29,20,24)" stroke-width="1" opacity="1" d="M 21.5 32 L 22.5 34 L 19 33.5 L 21.5 32 Z " /><path fill="rgb(29,20,24)" stroke="rgb(29,20,24)" stroke-width="1" opacity="1" d="M 19.5 43 L 22.5 44 L 25.5 43 L 28 43.5 Q 28.9 46.9 23.5 45 L 21.5 45 L 11 44.5 L 19.5 43 Z " /><path fill="rgb(47,39,16)" stroke="rgb(47,39,16)" stroke-width="1" opacity="1" d="M 7 10 L 9 10.5 L 7.5 13 L 7 10 Z " /><path fill="rgb(47,39,16)" stroke="rgb(47,39,16)" stroke-width="1" opacity="1" d="M 17.5 10 L 17.5 13 Q 14.5 11.5 17.5 10 Z " /><path fill="rgb(47,39,16)" stroke="rgb(47,39,16)" stroke-width="1" opacity="1" d="M 22.5 10 L 22.5 13 L 20.5 12 L 19 12.5 Q 18.2 9.9 21.5 11 L 22.5 10 Z " /><path fill="rgb(47,39,16)" stroke="rgb(47,39,16)" stroke-width="1" opacity="1" d="M 11.5 11 L 11 12.5 L 10.5 14 L 10 12.5 L 11.5 11 Z " /><path fill="rgb(47,39,16)" stroke="rgb(47,39,16)" stroke-width="1" opacity="1" d="M 13.5 12 L 12.5 14 L 13.5 12 Z " /><path fill="rgb(47,39,16)" stroke="rgb(47,39,16)" stroke-width="1" opacity="1" d="M 4.5 19 L 7 19.5 L 4.5 20 L 4.5 19 Z " /><path fill="rgb(47,39,16)" stroke="rgb(47,39,16)" stroke-width="1" opacity="1" d="M 2.5 34 L 4 36.5 L 3 36.5 L 2.5 34 Z " /><path fill="rgb(47,39,16)" stroke="rgb(47,39,16)" stroke-width="1" opacity="1" d="M 9.5 37 L 9 38.5 Q 10.3 42.7 5.5 41 L 5.5 40 L 7 39.5 L 6.5 38 Q 8 40.5 9.5 37 Z " /><path fill="rgb(123,125,100)" stroke="rgb(123,125,100)" stroke-width="1" opacity="1" d="M 13.5 17 L 12.5 19 L 13.5 17 Z " /><path fill="rgb(123,125,100)" stroke="rgb(123,125,100)" stroke-width="1" opacity="1" d="M 26.5 19 L 27.5 21 L 26.5 19 Z " /><path fill="rgb(123,125,100)" stroke="rgb(123,125,100)" stroke-width="1" opacity="1" d="M 5.5 28 L 9 28.5 L 5.5 29 L 5.5 28 Z " /><path fill="rgb(123,125,100)" stroke="rgb(123,125,100)" stroke-width="1" opacity="1" d="M 8.5 31 L 9.5 33 L 8.5 31 Z " /><path fill="rgb(123,125,100)" stroke="rgb(123,125,100)" stroke-width="1" opacity="1" d="M 16.5 32 L 15.5 34 L 14 33.5 L 16.5 32 Z " /><path fill="rgb(123,125,100)" stroke="rgb(123,125,100)" stroke-width="1" opacity="1" d="M 16.5 35 L 17.5 37 L 16.5 35 Z " /><path fill="rgb(123,125,100)" stroke="rgb(123,125,100)" stroke-width="1" opacity="1" d="M 26.5 35 L 28 37.5 L 27 37.5 L 26.5 35 Z " /><path fill="rgb(123,125,100)" stroke="rgb(123,125,100)" stroke-width="1" opacity="1" d="M 4.5 41 L 7 42.5 L 5.5 43 L 4.5 41 Z " /><path fill="rgb(42,39,42)" stroke="rgb(42,39,42)" stroke-width="1" opacity="1" d="M 11.5 16 L 10.5 18 L 11.5 16 Z " /><path fill="rgb(42,39,42)" stroke="rgb(42,39,42)" stroke-width="1" opacity="1" d="M 24.5 19 L 26 21.5 L 25 21.5 L 24.5 19 Z " /><path fill="rgb(42,39,42)" stroke="rgb(42,39,42)" stroke-width="1" opacity="1" d="M 11.5 21 L 12 23.5 L 11 23.5 L 11.5 21 Z " /><path fill="rgb(42,39,42)" stroke="rgb(42,39,42)" stroke-width="1" opacity="1" d="M 6.5 22 L 9 22.5 Q 6.9 25.8 6.5 22 Z " /><path fill="rgb(42,39,42)" stroke="rgb(42,39,42)" stroke-width="1" opacity="1" d="M 23.5 22 L 26 23.5 L 24.5 24 L 23.5 22 Z " /><path fill="rgb(42,39,42)" stroke="rgb(42,39,42)" stroke-width="1" opacity="1" d="M 24.5 25 L 28 26.5 L 26.5 26 Q 23.5 26.5 24.5 25 Z " /><path fill="rgb(42,39,42)" stroke="rgb(42,39,42)" stroke-width="1" opacity="1" d="M 15.5 27 L 18 28.5 L 16.5 29 L 15.5 27 Z " /><path fill="rgb(42,39,42)" stroke="rgb(42,39,42)" stroke-width="1" opacity="1" d="M 11.5 28 L 12.5 30 L 11.5 28 Z " /><path fill="rgb(42,39,42)" stroke="rgb(42,39,42)" stroke-width="1" opacity="1" d="M 22.5 28 L 23.5 30 Q 22.3 27.8 21 30.5 L 20.5 32 L 20 30.5 L 22.5 28 Z " /><path fill="rgb(42,39,42)" stroke="rgb(42,39,42)" stroke-width="1" opacity="1" d="M 7.5 31 L 8.5 34 L 10.5 33 L 10.5 34 L 9 34.5 L 10 36.5 L 8 35.5 L 7.5 34 L 6 34.5 L 7.5 31 Z " /><path fill="rgb(42,39,42)" stroke="rgb(42,39,42)" stroke-width="1" opacity="1" d="M 12.5 31 L 15 31.5 L 12.5 32 L 12.5 31 Z " /><path fill="rgb(42,39,42)" stroke="rgb(42,39,42)" stroke-width="1" opacity="1" d="M 22.5 31 L 23.5 33 L 22.5 31 Z " /><path fill="rgb(42,39,42)" stroke="rgb(42,39,42)" stroke-width="1" opacity="1" d="M 21 39 L 24 40.5 L 23.5 42 L 22.5 40 L 21 40.5 L 21 39 Z " /><path fill="rgb(42,39,42)" stroke="rgb(42,39,42)" stroke-width="1" opacity="1" d="M 25.5 42 L 26.5 44 L 24.5 44 L 23 43.5 L 25.5 42 Z " /><path fill="rgb(158,160,154)" stroke="rgb(158,160,154)" stroke-width="1" opacity="1" d="M 6.5 31 L 7 33 L 4 32.5 L 6.5 31 Z " /><path fill="rgb(158,160,154)" stroke="rgb(158,160,154)" stroke-width="1" opacity="1" d="M 15.5 46 L 14.5 48 L 15.5 46 Z " /></svg>