<svg width="30" height="50" version="1.1" xmlns="http://www.w3.org/2000/svg" desc="Created with imagetracer.js version 1.2.6" ><path fill="rgb(160,147,148)" stroke="rgb(160,147,148)" stroke-width="1" opacity="1" d="M 6 2 L 10 2 L 10 3.5 L 8 3.5 Q 8.7 6.1 6 5 L 6 2 Z " /><path fill="rgb(160,147,148)" stroke="rgb(160,147,148)" stroke-width="1" opacity="1" d="M 22.5 2 Q 25.5 3.5 22.5 5 L 20 4.5 Q 19.3 2.3 21.5 3 L 22.5 2 Z " /><path fill="rgb(160,147,148)" stroke="rgb(160,147,148)" stroke-width="1" opacity="1" d="M 25.5 2 Q 29.7 0.9 28 5 Q 25.3 6.1 26 3.5 L 25.5 2 Z " /><path fill="rgb(160,147,148)" stroke="rgb(160,147,148)" stroke-width="1" opacity="1" d="M 3.5 3 L 2.5 5 L 3.5 3 Z " /><path fill="rgb(160,147,148)" stroke="rgb(160,147,148)" stroke-width="1" opacity="1" d="M 6.5 7 L 5.5 9 L 6.5 7 Z " /><path fill="rgb(160,147,148)" stroke="rgb(160,147,148)" stroke-width="1" opacity="1" d="M 2.5 9 Q 5.5 10.5 2.5 12 L 2.5 9 Z " /><path fill="rgb(160,147,148)" stroke="rgb(160,147,148)" stroke-width="1" opacity="1" d="M 11.5 10 L 10.5 12 L 11.5 10 Z " /><path fill="rgb(160,147,148)" stroke="rgb(160,147,148)" stroke-width="1" opacity="1" d="M 12.5 12 L 13 13.5 L 11 14.5 L 12.5 12 Z " /><path fill="rgb(160,147,148)" stroke="rgb(160,147,148)" stroke-width="1" opacity="1" d="M 4.5 13 L 6.5 13 Q 8.8 12.3 8 14.5 L 6 14.5 L 5.5 16 L 4.5 13 Z " /><path fill="rgb(160,147,148)" stroke="rgb(160,147,148)" stroke-width="1" opacity="1" d="M 17.5 13 L 20 14.5 L 17.5 15 L 14 14.5 L 17.5 13 Z " /><path fill="rgb(160,147,148)" stroke="rgb(160,147,148)" stroke-width="1" opacity="1" d="M 23.5 17 L 23 18.5 Q 23.8 20.8 21.5 20 L 23.5 17 Z " /><path fill="rgb(160,147,148)" stroke="rgb(160,147,148)" stroke-width="1" opacity="1" d="M 6.5 19 L 6 20.5 L 5.5 22 L 5 20.5 L 6.5 19 Z " /><path fill="rgb(160,147,148)" stroke="rgb(160,147,148)" stroke-width="1" opacity="1" d="M 15.5 22 L 16 27.5 L 15 27.5 L 15.5 22 Z " /><path fill="rgb(160,147,148)" stroke="rgb(160,147,148)" stroke-width="1" opacity="1" d="M 23.5 22 L 22.5 24 L 23.5 22 Z " /><path fill="rgb(160,147,148)" stroke="rgb(160,147,148)" stroke-width="1" opacity="1" d="M 6.5 24 L 6 25.5 L 5.5 30 L 4 27.5 L 6.5 24 Z " /><path fill="rgb(160,147,148)" stroke="rgb(160,147,148)" stroke-width="1" opacity="1" d="M 2.5 25 L 3 28.5 L 2 28.5 L 2.5 25 Z " /><path fill="rgb(160,147,148)" stroke="rgb(160,147,148)" stroke-width="1" opacity="1" d="M 23.5 25 L 25 25.5 L 23 26.5 L 23.5 28 L 21 26.5 L 23.5 25 Z " /><path fill="rgb(160,147,148)" stroke="rgb(160,147,148)" stroke-width="1" opacity="1" d="M 7 31 L 9 31.5 L 8.5 34 L 6 33.5 L 7 31 Z " /><path fill="rgb(160,147,148)" stroke="rgb(160,147,148)" stroke-width="1" opacity="1" d="M 26.5 37 L 28 39.5 L 26 38.5 L 26.5 37 Z " /><path fill="rgb(160,147,148)" stroke="rgb(160,147,148)" stroke-width="1" opacity="1" d="M 6 41 L 8 41.5 L 6.5 45 L 6 41 Z " /><path fill="rgb(160,147,148)" stroke="rgb(160,147,148)" stroke-width="1" opacity="1" d="M 13.5 45 Q 17.3 44 16 47 L 11.5 48 L 10.5 46 L 13.5 47 L 13.5 45 Z " /><path fill="rgb(160,147,148)" stroke="rgb(160,147,148)" stroke-width="1" opacity="1" d="M 20.5 45 L 22 45.5 L 19.5 47 L 20.5 45 Z " /><path fill="rgb(182,130,91)" stroke="rgb(182,130,91)" stroke-width="1" opacity="1" d="M 16.5 8 L 15.5 11 L 17.5 10 L 18 12 Q 15.3 10.9 16 13.5 L 13 13.5 L 16.5 8 Z " /><path fill="rgb(182,130,91)" stroke="rgb(182,130,91)" stroke-width="1" opacity="1" d="M 12.5 9 L 13 11.5 L 12 11.5 L 12.5 9 Z " /><path fill="rgb(182,130,91)" stroke="rgb(182,130,91)" stroke-width="1" opacity="1" d="M 18.5 16 L 17.5 18 L 18.5 16 Z " /><path fill="rgb(182,130,91)" stroke="rgb(182,130,91)" stroke-width="1" opacity="1" d="M 15.5 19 L 16 21 L 14 20.5 L 15.5 19 Z " /><path fill="rgb(182,130,91)" stroke="rgb(182,130,91)" stroke-width="1" opacity="1" d="M 15.5 33 L 16.5 35 L 15.5 33 Z " /><path fill="rgb(182,130,91)" stroke="rgb(182,130,91)" stroke-width="1" opacity="1" d="M 6.5 39 L 5.5 41 L 6.5 39 Z " /><path fill="rgb(77,59,59)" stroke="rgb(77,59,59)" stroke-width="1" opacity="1" d="M 2 6 Q 4.7 4.9 4 7.5 L 4.5 9 L 2 8 L 2 6 Z " /><path fill="rgb(77,59,59)" stroke="rgb(77,59,59)" stroke-width="1" opacity="1" d="M 26.5 6 L 28 6.5 L 26 7.5 L 26.5 9 L 24 7.5 L 26.5 6 Z " /><path fill="rgb(77,59,59)" stroke="rgb(77,59,59)" stroke-width="1" opacity="1" d="M 6.5 11 L 5.5 13 L 4 12.5 L 6.5 11 Z " /><path fill="rgb(77,59,59)" stroke="rgb(77,59,59)" stroke-width="1" opacity="1" d="M 21.5 23 L 22 25.5 L 21 25.5 L 21.5 23 Z " /><path fill="rgb(77,59,59)" stroke="rgb(77,59,59)" stroke-width="1" opacity="1" d="M 22.5 34 L 25.5 36 L 27 35.5 L 27 37 L 23 37 L 22.5 34 Z " /><path fill="rgb(77,59,59)" stroke="rgb(77,59,59)" stroke-width="1" opacity="1" d="M 6.5 35 L 7 37 L 4 36.5 L 6.5 35 Z " /><path fill="rgb(77,59,59)" stroke="rgb(77,59,59)" stroke-width="1" opacity="1" d="M 9.5 36 L 10.5 39 L 12 39.5 L 10 40.5 L 9.5 39 L 8 39.5 Q 11.1 37.8 9.5 36 Z " /><path fill="rgb(77,59,59)" stroke="rgb(77,59,59)" stroke-width="1" opacity="1" d="M 21.5 38 L 24 39.5 L 20.5 41 L 21 39.5 L 21.5 38 Z " /><path fill="rgb(77,59,59)" stroke="rgb(77,59,59)" stroke-width="1" opacity="1" d="M 3.5 43 L 4 45 L 2 44.5 L 3.5 43 Z " /><path fill="rgb(205,194,194)" stroke="rgb(205,194,194)" stroke-width="1" opacity="1" d="M 25.5 3 L 26 5 L 28 5.5 L 21 8 L 22 11.5 L 21 14.5 L 22 16.5 L 20 17 L 19.5 14 L 18 14.5 L 21 10.5 Q 19 12.2 17 8.5 L 20 9.5 L 19 5 L 21.5 4 L 25 5 L 25.5 3 Z " /><path fill="rgb(205,194,194)" stroke="rgb(205,194,194)" stroke-width="1" opacity="1" d="M 2.5 5 L 10 5 L 10 8 L 6 10 L 8 6 L 5.5 7 L 2.5 6 L 2.5 5 Z " /><path fill="rgb(205,194,194)" stroke="rgb(205,194,194)" stroke-width="1" opacity="1" d="M 13.5 6 L 13 7.5 L 12.5 9 L 12 7.5 L 13.5 6 Z " /><path fill="rgb(205,194,194)" stroke="rgb(205,194,194)" stroke-width="1" opacity="1" d="M 26.5 7 L 28 10 L 26 10.5 L 27 13.5 Q 24.2 15.5 25 20 Q 22.3 21.1 23 18.5 L 25 12.5 L 24 10 L 27 8.5 L 26.5 7 Z " /><path fill="rgb(205,194,194)" stroke="rgb(205,194,194)" stroke-width="1" opacity="1" d="M 10.5 9 L 11 10.5 L 9 14 L 11 14.5 L 8 16 Q 9 19 6 18 L 6.5 14 L 7.5 16 L 8 11 Q 10.8 12 10.5 9 Z " /><path fill="rgb(205,194,194)" stroke="rgb(205,194,194)" stroke-width="1" opacity="1" d="M 2.5 10 L 5 11.5 L 3.5 12 L 2.5 10 Z " /><path fill="rgb(205,194,194)" stroke="rgb(205,194,194)" stroke-width="1" opacity="1" d="M 3.5 13 L 5 14.5 L 6 24.5 L 4 27.5 L 5 31.5 L 3.5 35 L 2 31.5 Q 4.8 29.7 3 23.5 L 2 21.5 L 3.5 13 Z " /><path fill="rgb(205,194,194)" stroke="rgb(205,194,194)" stroke-width="1" opacity="1" d="M 26.5 19 L 28 21.5 L 28 23.5 L 27.5 28 Q 28.1 23.4 25.5 22 L 25 23.5 L 27 33.5 L 24 33.5 L 25 29.5 L 23 26.5 L 25 25.5 L 23 25 L 24 22.5 L 23.5 21 L 27 21.5 L 26.5 19 Z " /><path fill="rgb(205,194,194)" stroke="rgb(205,194,194)" stroke-width="1" opacity="1" d="M 8.5 32 L 8.5 35 Q 5.5 33.5 8.5 32 Z " /><path fill="rgb(205,194,194)" stroke="rgb(205,194,194)" stroke-width="1" opacity="1" d="M 2.5 36 L 5 37.5 L 3.5 37 L 2.5 36 Z " /><path fill="rgb(205,194,194)" stroke="rgb(205,194,194)" stroke-width="1" opacity="1" d="M 4 45 L 6 45.5 L 5.5 47 L 8 47.5 L 5.5 48 L 4 45 Z " /><path fill="rgb(205,194,194)" stroke="rgb(205,194,194)" stroke-width="1" opacity="1" d="M 8.5 45 L 11 45.5 L 10.5 48 L 8.5 45 Z " /><path fill="rgb(205,194,194)" stroke="rgb(205,194,194)" stroke-width="1" opacity="1" d="M 16 45 L 20 45.5 L 14.5 48 L 14.5 47 Q 17.1 47.7 16 45 Z " /><path fill="rgb(205,194,194)" stroke="rgb(205,194,194)" stroke-width="1" opacity="1" d="M 22 45 L 24 45.5 L 23.5 48 L 18 47.5 L 22 47 L 22 45 Z " /><path fill="rgb(131,23,18)" stroke="rgb(131,23,18)" stroke-width="1" opacity="1" d="M 9.5 16 L 9.5 18 L 11 18.5 L 9.5 19 Q 6.5 17.5 9.5 16 Z " /><path fill="rgb(131,23,18)" stroke="rgb(131,23,18)" stroke-width="1" opacity="1" d="M 20.5 17 L 21 20 L 19 19.5 L 20.5 17 Z " /><path fill="rgb(131,23,18)" stroke="rgb(131,23,18)" stroke-width="1" opacity="1" d="M 7 20 L 9 20 L 9 25 L 10.5 25 L 10.5 26 L 8 24.5 L 7.5 22 L 6 22.5 L 7 20 Z " /><path fill="rgb(131,23,18)" stroke="rgb(131,23,18)" stroke-width="1" opacity="1" d="M 10.5 27 L 11 28.5 L 9 29.5 L 10.5 27 Z " /><path fill="rgb(131,23,18)" stroke="rgb(131,23,18)" stroke-width="1" opacity="1" d="M 9.5 31 L 11 37 L 13 37.5 L 11.5 38 L 9 35.5 L 9 33.5 L 9.5 31 Z " /><path fill="rgb(131,23,18)" stroke="rgb(131,23,18)" stroke-width="1" opacity="1" d="M 17.5 33 L 18 34.5 L 16 35.5 L 17.5 33 Z " /><path fill="rgb(131,23,18)" stroke="rgb(131,23,18)" stroke-width="1" opacity="1" d="M 11.5 40 L 12 41.5 L 10 42.5 L 11.5 40 Z " /><path fill="rgb(131,23,18)" stroke="rgb(131,23,18)" stroke-width="1" opacity="1" d="M 19.5 40 L 20 41.5 L 18.5 44 L 18 42.5 L 19.5 40 Z " /><path fill="rgb(221,46,36)" stroke="rgb(221,46,36)" stroke-width="1" opacity="1" d="M 19.5 20 L 20.5 22 Q 17.7 22.7 19.5 20 Z " /><path fill="rgb(221,46,36)" stroke="rgb(221,46,36)" stroke-width="1" opacity="1" d="M 10.5 21 L 11.5 23 L 9.5 24 L 10 22.5 L 10.5 21 Z " /><path fill="rgb(221,46,36)" stroke="rgb(221,46,36)" stroke-width="1" opacity="1" d="M 19.5 23 L 19.5 26 Q 16.5 24.5 19.5 23 Z " /><path fill="rgb(221,46,36)" stroke="rgb(221,46,36)" stroke-width="1" opacity="1" d="M 11.5 25 L 14 26.5 L 12.5 27 L 11.5 25 Z " /><path fill="rgb(221,46,36)" stroke="rgb(221,46,36)" stroke-width="1" opacity="1" d="M 12.5 43 L 13.5 45 L 11 44.5 L 12.5 43 Z " /><path fill="rgb(245,43,28)" stroke="rgb(245,43,28)" stroke-width="1" opacity="1" d="M 12.5 20 Q 14.8 19.3 14 21.5 L 12.5 20 Z " /><path fill="rgb(245,43,28)" stroke="rgb(245,43,28)" stroke-width="1" opacity="1" d="M 16.5 20 L 19 20.5 L 16.5 21 L 16.5 20 Z " /><path fill="rgb(245,43,28)" stroke="rgb(245,43,28)" stroke-width="1" opacity="1" d="M 18.5 22 L 19 23.5 L 17 24.5 L 18.5 22 Z " /><path fill="rgb(245,43,28)" stroke="rgb(245,43,28)" stroke-width="1" opacity="1" d="M 12.5 23 Q 15.1 22.2 14 25.5 L 12.5 25 L 11 24.5 L 12.5 23 Z " /><path fill="rgb(245,43,28)" stroke="rgb(245,43,28)" stroke-width="1" opacity="1" d="M 12 27 Q 15 25.8 14 29.5 L 12 28.5 L 12 27 Z " /><path fill="rgb(245,43,28)" stroke="rgb(245,43,28)" stroke-width="1" opacity="1" d="M 19.5 27 Q 22.5 28.5 21 34.5 L 18.5 36 L 19 34.5 L 20 28.5 L 19.5 27 Z " /><path fill="rgb(245,43,28)" stroke="rgb(245,43,28)" stroke-width="1" opacity="1" d="M 17.5 29 L 18 31.5 L 17 31.5 L 17.5 29 Z " /><path fill="rgb(245,43,28)" stroke="rgb(245,43,28)" stroke-width="1" opacity="1" d="M 12.5 31 L 13.5 33 Q 10.7 33.7 12.5 31 Z " /><path fill="rgb(245,43,28)" stroke="rgb(245,43,28)" stroke-width="1" opacity="1" d="M 14.5 35 L 17 36.5 L 14.5 38 L 14.5 35 Z " /><path fill="rgb(246,243,242)" stroke="rgb(246,243,242)" stroke-width="1" opacity="1" d="M 0 0 L 30 0 L 30 50 L 0 50 L 0 0 Z M 2 2 L 2 47 L 6 48 Q 9 49 8 47 L 11 48 Q 15 49 17 47 L 19 48 Q 25 49 28 46 L 25 41 L 27 41 L 28 41 L 28 33 L 26 34 L 26 33 Q 27 26 25 23 L 22 22 Q 21 18 25 20 L 25 17 L 28 16 L 28 2 L 20 2 L 19 6 L 21 12 Q 23 13 21 14 L 21 13 L 18 8 Q 15 9 16 6 L 14 6 L 12 9 L 10 9 L 10 2 L 2 2 Z M 28 17 L 26 20 L 27 22 L 28 22 L 28 17 Z M 28 23 L 27 28 L 28 28 L 28 23 Z " /><path fill="rgb(246,243,242)" stroke="rgb(246,243,242)" stroke-width="1" opacity="1" d="M 13.5 18 L 17 18.5 L 13.5 19 L 13.5 18 Z " /><path fill="rgb(97,85,87)" stroke="rgb(97,85,87)" stroke-width="1" opacity="1" d="M 8.5 9 L 7.5 11 L 8.5 9 Z " /><path fill="rgb(97,85,87)" stroke="rgb(97,85,87)" stroke-width="1" opacity="1" d="M 9.5 12 L 12 12.5 L 9.5 13 L 9.5 12 Z " /><path fill="rgb(97,85,87)" stroke="rgb(97,85,87)" stroke-width="1" opacity="1" d="M 12.5 14 Q 14.8 13.3 14 15.5 L 12.5 14 Z " /><path fill="rgb(97,85,87)" stroke="rgb(97,85,87)" stroke-width="1" opacity="1" d="M 2.5 15 L 3 18.5 L 2 18.5 L 2.5 15 Z " /><path fill="rgb(97,85,87)" stroke="rgb(97,85,87)" stroke-width="1" opacity="1" d="M 6.5 29 L 7 30.5 L 5.5 33 L 5 31.5 L 6.5 29 Z " /><path fill="rgb(97,85,87)" stroke="rgb(97,85,87)" stroke-width="1" opacity="1" d="M 23.5 29 L 25 32 Q 21.3 33.5 22 30.5 L 23.5 29 Z " /><path fill="rgb(97,85,87)" stroke="rgb(97,85,87)" stroke-width="1" opacity="1" d="M 7.5 34 L 8 37.5 L 7 37.5 L 7.5 34 Z " /><path fill="rgb(97,85,87)" stroke="rgb(97,85,87)" stroke-width="1" opacity="1" d="M 20.5 36 L 23 37.5 L 21.5 38 L 19 37.5 L 20.5 36 Z " /><path fill="rgb(97,85,87)" stroke="rgb(97,85,87)" stroke-width="1" opacity="1" d="M 15.5 38 L 18 38.5 L 15.5 39 L 15.5 38 Z " /><path fill="rgb(97,85,87)" stroke="rgb(97,85,87)" stroke-width="1" opacity="1" d="M 20.5 39 L 24 41 L 23.5 43 L 21.5 42 L 20 42.5 L 21 40.5 L 20.5 39 Z " /><path fill="rgb(97,85,87)" stroke="rgb(97,85,87)" stroke-width="1" opacity="1" d="M 8.5 40 L 9.5 42 L 8.5 40 Z " /><path fill="rgb(97,85,87)" stroke="rgb(97,85,87)" stroke-width="1" opacity="1" d="M 21.5 44 L 24 44.5 L 21.5 45 L 21.5 44 Z " /><path fill="rgb(247,37,23)" stroke="rgb(247,37,23)" stroke-width="1" opacity="1" d="M 10 29 L 14 30.5 L 12 31 Q 10.9 33.7 13.5 33 L 14.5 37 L 11 34.5 L 10 29 Z " /><path fill="rgb(194,34,25)" stroke="rgb(194,34,25)" stroke-width="1" opacity="1" d="M 9 19 Q 11.7 17.9 11 20.5 L 9 21.5 L 9 19 Z " /><path fill="rgb(194,34,25)" stroke="rgb(194,34,25)" stroke-width="1" opacity="1" d="M 12.5 21 L 13.5 23 L 8.5 26 L 10.5 23 Q 13 23.7 12.5 21 Z " /><path fill="rgb(194,34,25)" stroke="rgb(194,34,25)" stroke-width="1" opacity="1" d="M 18.5 25 L 20.5 28 L 19 27.5 L 20 29.5 L 19.5 32 L 18.5 29 L 17 28.5 L 18.5 25 Z " /><path fill="rgb(194,34,25)" stroke="rgb(194,34,25)" stroke-width="1" opacity="1" d="M 10.5 26 Q 13.1 25.2 12 28.5 L 11 28.5 L 10.5 27 L 9 27.5 L 10.5 26 Z " /><path fill="rgb(194,34,25)" stroke="rgb(194,34,25)" stroke-width="1" opacity="1" d="M 14.5 28 L 15 30.5 L 14 30.5 L 14.5 28 Z " /><path fill="rgb(194,34,25)" stroke="rgb(194,34,25)" stroke-width="1" opacity="1" d="M 14.5 32 L 16 35.5 L 14.5 35 L 13 34.5 L 14.5 32 Z " /><path fill="rgb(194,34,25)" stroke="rgb(194,34,25)" stroke-width="1" opacity="1" d="M 18.5 33 L 19 34.5 L 18.5 37 Q 15.8 35.8 18 34.5 L 18.5 33 Z " /><path fill="rgb(194,34,25)" stroke="rgb(194,34,25)" stroke-width="1" opacity="1" d="M 11.5 36 L 14 37.5 L 12.5 37 L 11.5 36 Z " /><path fill="rgb(118,108,107)" stroke="rgb(118,108,107)" stroke-width="1" opacity="1" d="M 3.5 2 Q 6.8 0.9 6 3.5 L 3.5 5 L 3.5 2 Z " /><path fill="rgb(118,108,107)" stroke="rgb(118,108,107)" stroke-width="1" opacity="1" d="M 24.5 2 L 25 5 L 23 4.5 L 24.5 2 Z " /><path fill="rgb(118,108,107)" stroke="rgb(118,108,107)" stroke-width="1" opacity="1" d="M 4.5 6 L 5.5 8 Q 3.3 7.3 4 9.5 L 3 9.5 L 4.5 6 Z " /><path fill="rgb(118,108,107)" stroke="rgb(118,108,107)" stroke-width="1" opacity="1" d="M 23.5 7 L 23 8.5 L 22.5 10 L 22 8.5 L 23.5 7 Z " /><path fill="rgb(118,108,107)" stroke="rgb(118,108,107)" stroke-width="1" opacity="1" d="M 3.5 12 L 3 13.5 L 2.5 15 L 2 13.5 L 3.5 12 Z " /><path fill="rgb(118,108,107)" stroke="rgb(118,108,107)" stroke-width="1" opacity="1" d="M 16.5 12 L 20 12.5 L 16.5 13 L 16.5 12 Z " /><path fill="rgb(118,108,107)" stroke="rgb(118,108,107)" stroke-width="1" opacity="1" d="M 22 12 Q 25 11 24 14 Q 21.3 12.9 22 15.5 L 21 15.5 L 22 12 Z " /><path fill="rgb(118,108,107)" stroke="rgb(118,108,107)" stroke-width="1" opacity="1" d="M 23.5 16 L 21.5 19 L 23.5 16 Z " /><path fill="rgb(118,108,107)" stroke="rgb(118,108,107)" stroke-width="1" opacity="1" d="M 6.5 25 Q 9 26 8 30.5 L 6.5 33 L 5 30.5 L 7 30.5 L 6 28.5 L 7 26.5 L 6.5 25 Z " /><path fill="rgb(118,108,107)" stroke="rgb(118,108,107)" stroke-width="1" opacity="1" d="M 22.5 27 L 23.5 29 Q 20.7 29.7 22.5 27 Z " /><path fill="rgb(118,108,107)" stroke="rgb(118,108,107)" stroke-width="1" opacity="1" d="M 27.5 33 L 27.5 36 Q 24.5 34.5 27.5 33 Z " /><path fill="rgb(118,108,107)" stroke="rgb(118,108,107)" stroke-width="1" opacity="1" d="M 5.5 37 L 7 37.5 L 4.5 39 L 5.5 37 Z " /><path fill="rgb(118,108,107)" stroke="rgb(118,108,107)" stroke-width="1" opacity="1" d="M 20.5 37 L 21 39 L 19 38.5 L 20.5 37 Z " /><path fill="rgb(118,108,107)" stroke="rgb(118,108,107)" stroke-width="1" opacity="1" d="M 9.5 40 L 10.5 42 L 9.5 40 Z " /><path fill="rgb(118,108,107)" stroke="rgb(118,108,107)" stroke-width="1" opacity="1" d="M 7.5 42 L 8.5 44 L 10 43.5 L 8 46.5 L 5 44.5 L 6.5 45 L 8 44.5 L 7.5 42 Z " /><path fill="rgb(118,108,107)" stroke="rgb(118,108,107)" stroke-width="1" opacity="1" d="M 24 42 L 26 42.5 L 25 43.5 L 26.5 46 L 24 42 Z " /><path fill="rgb(118,108,107)" stroke="rgb(118,108,107)" stroke-width="1" opacity="1" d="M 11.5 45 L 14 46.5 L 12.5 46 L 11.5 45 Z " /><path fill="rgb(220,176,74)" stroke="rgb(220,176,74)" stroke-width="1" opacity="1" d="M 14.5 7 L 17 10.5 L 16 10.5 L 15.5 9 L 13.5 12 L 13 9.5 L 14.5 7 Z " /><path fill="rgb(220,176,74)" stroke="rgb(220,176,74)" stroke-width="1" opacity="1" d="M 4.5 34 Q 6.8 33.3 6 35.5 L 4.5 34 Z " /><path fill="rgb(220,176,74)" stroke="rgb(220,176,74)" stroke-width="1" opacity="1" d="M 24 34 Q 27 33 26 36 Q 23 37 24 34 Z " /><path fill="rgb(220,176,74)" stroke="rgb(220,176,74)" stroke-width="1" opacity="1" d="M 7.5 39 L 5 42.5 L 4.5 45 L 3 40.5 L 4.5 41 L 7.5 39 Z " /><path fill="rgb(146,41,38)" stroke="rgb(146,41,38)" stroke-width="1" opacity="1" d="M 16.5 25 L 17 27.5 L 16 27.5 L 16.5 25 Z " /><path fill="rgb(146,41,38)" stroke="rgb(146,41,38)" stroke-width="1" opacity="1" d="M 12 39 L 15 39.5 L 12.5 41 L 12 39 Z " /><path fill="rgb(146,41,38)" stroke="rgb(146,41,38)" stroke-width="1" opacity="1" d="M 15.5 41 L 16 43 L 13 42.5 L 15.5 41 Z " /><path fill="rgb(146,41,38)" stroke="rgb(146,41,38)" stroke-width="1" opacity="1" d="M 18.5 41 L 19.5 43 L 18.5 41 Z " /><path fill="rgb(164,79,57)" stroke="rgb(164,79,57)" stroke-width="1" opacity="1" d="M 13.5 12 L 14.5 14 L 13.5 12 Z " /><path fill="rgb(164,79,57)" stroke="rgb(164,79,57)" stroke-width="1" opacity="1" d="M 17.5 15 L 16.5 17 L 17.5 15 Z " /><path fill="rgb(164,79,57)" stroke="rgb(164,79,57)" stroke-width="1" opacity="1" d="M 11.5 17 L 13 19.5 L 11 20 L 11.5 17 Z " /><path fill="rgb(164,79,57)" stroke="rgb(164,79,57)" stroke-width="1" opacity="1" d="M 8.5 37 L 10 37.5 L 7.5 39 L 8.5 37 Z " /><path fill="rgb(164,79,57)" stroke="rgb(164,79,57)" stroke-width="1" opacity="1" d="M 17.5 39 Q 20.5 40.5 17.5 42 L 16 41.5 L 17.5 39 Z " /><path fill="rgb(164,79,57)" stroke="rgb(164,79,57)" stroke-width="1" opacity="1" d="M 13.5 43 Q 18.3 41.7 17 45 Q 13.2 45.8 13.5 43 Z " /><path fill="rgb(230,177,132)" stroke="rgb(230,177,132)" stroke-width="1" opacity="1" d="M 22.5 10 L 23.5 12 Q 20.7 12.7 22.5 10 Z " /><path fill="rgb(230,177,132)" stroke="rgb(230,177,132)" stroke-width="1" opacity="1" d="M 14 21 L 16 21.5 L 14.5 26 L 14 21 Z " /><path fill="rgb(230,177,132)" stroke="rgb(230,177,132)" stroke-width="1" opacity="1" d="M 16.5 29 L 17 33.5 L 15 34.5 L 16 32.5 L 16 30.5 L 16.5 29 Z " /><path fill="rgb(230,177,132)" stroke="rgb(230,177,132)" stroke-width="1" opacity="1" d="M 24.5 39 L 27 42.5 L 24 40.5 L 24.5 39 Z " /></svg>