<svg width="30" height="50" version="1.1" xmlns="http://www.w3.org/2000/svg" desc="Created with imagetracer.js version 1.2.6" ><path fill="rgb(226,218,217)" stroke="rgb(226,218,217)" stroke-width="1" opacity="1" d="M 4.5 2 Q 10 0.5 11.5 3 L 14.5 2 L 14.5 3 L 9 4 L 8 10.5 L 10 10.5 L 9 13.5 L 8 16.5 L 11 23.5 L 9 22.5 L 6.5 17 L 2.5 19 L 3 15.5 L 2 4.5 L 4.5 2 Z " /><path fill="rgb(226,218,217)" stroke="rgb(226,218,217)" stroke-width="1" opacity="1" d="M 16.5 14 L 17 18.5 L 16 18.5 L 16.5 14 Z " /><path fill="rgb(226,218,217)" stroke="rgb(226,218,217)" stroke-width="1" opacity="1" d="M 9 25 Q 12 24 11 27 Q 8 28 9 25 Z " /><path fill="rgb(226,218,217)" stroke="rgb(226,218,217)" stroke-width="1" opacity="1" d="M 18.5 29 L 19.5 31 L 18.5 29 Z " /><path fill="rgb(226,218,217)" stroke="rgb(226,218,217)" stroke-width="1" opacity="1" d="M 2 38 L 9.5 38 L 10 39.5 L 11 41.5 L 10 41.5 L 9.5 40 Q 7.3 43 2 42 L 2 38 Z " /><path fill="rgb(226,218,217)" stroke="rgb(226,218,217)" stroke-width="1" opacity="1" d="M 9 45 L 14 45.5 Q 12.8 48.3 11.5 46 L 9.5 47 L 9 45 Z " /><path fill="rgb(226,218,217)" stroke="rgb(226,218,217)" stroke-width="1" opacity="1" d="M 26.5 45 L 27.5 47 L 26.5 45 Z " /><path fill="rgb(202,200,184)" stroke="rgb(202,200,184)" stroke-width="1" opacity="1" d="M 4.5 17 L 6 21 Q 2.2 22.2 4.5 17 Z " /><path fill="rgb(202,200,184)" stroke="rgb(202,200,184)" stroke-width="1" opacity="1" d="M 16 21 L 18 21.5 L 16 22.5 L 16 21 Z " /><path fill="rgb(202,200,184)" stroke="rgb(202,200,184)" stroke-width="1" opacity="1" d="M 3.5 22 L 3 23.5 L 1.5 27 L 2 25.5 L 3.5 22 Z " /><path fill="rgb(202,200,184)" stroke="rgb(202,200,184)" stroke-width="1" opacity="1" d="M 5.5 27 L 6.5 29 L 5.5 27 Z " /><path fill="rgb(202,200,184)" stroke="rgb(202,200,184)" stroke-width="1" opacity="1" d="M 1.5 34 L 2.5 36 L 1.5 34 Z " /><path fill="rgb(202,200,184)" stroke="rgb(202,200,184)" stroke-width="1" opacity="1" d="M 4.5 46 L 3.5 48 L 4.5 46 Z " /><path fill="rgb(202,200,184)" stroke="rgb(202,200,184)" stroke-width="1" opacity="1" d="M 22.5 46 L 21.5 48 L 22.5 46 Z " /><path fill="rgb(202,200,184)" stroke="rgb(202,200,184)" stroke-width="1" opacity="1" d="M 25.5 46 L 24.5 48 L 25.5 46 Z " /><path fill="rgb(242,229,79)" stroke="rgb(242,229,79)" stroke-width="1" opacity="1" d="M 16.5 3 L 18 6 L 12 5.5 L 14.5 4 L 16 4.5 L 16.5 3 Z " /><path fill="rgb(251,246,248)" stroke="rgb(251,246,248)" stroke-width="1" opacity="1" d="M 25.5 5 L 26 7.5 L 25.5 9 L 27 9.5 L 24 10.5 L 26 11.5 L 23.5 13 L 23 10.5 L 25 6.5 L 25.5 5 Z " /><path fill="rgb(251,246,248)" stroke="rgb(251,246,248)" stroke-width="1" opacity="1" d="M 23.5 15 L 23.5 17 L 25.5 16 L 25.5 18 L 27 18.5 L 27 20.5 L 25 25.5 Q 27.8 26.3 27 30.5 L 25 29.5 L 26 27.5 L 23 27 L 24 22.5 L 22 18.5 L 23.5 15 Z " /><path fill="rgb(251,246,248)" stroke="rgb(251,246,248)" stroke-width="1" opacity="1" d="M 20.5 30 L 22.5 31 L 24 30.5 L 21.5 32 L 20.5 30 Z " /><path fill="rgb(251,246,248)" stroke="rgb(251,246,248)" stroke-width="1" opacity="1" d="M 22.5 33 L 23.5 36 L 25 35.5 Q 23.5 38.5 22 35.5 L 22.5 33 Z " /><path fill="rgb(251,246,248)" stroke="rgb(251,246,248)" stroke-width="1" opacity="1" d="M 26.5 36 L 27 38.5 L 26.5 41 L 24 39.5 L 24.5 38 L 26 38.5 L 26.5 36 Z " /><path fill="rgb(141,130,130)" stroke="rgb(141,130,130)" stroke-width="1" opacity="1" d="M 18.5 5 L 19 6.5 L 17.5 9 L 16 6.5 L 18 6.5 L 18.5 5 Z " /><path fill="rgb(141,130,130)" stroke="rgb(141,130,130)" stroke-width="1" opacity="1" d="M 20 5 L 22 5.5 L 20 6.5 L 20 5 Z " /><path fill="rgb(141,130,130)" stroke="rgb(141,130,130)" stroke-width="1" opacity="1" d="M 11.5 6 Q 14.5 5.1 13 9.5 L 12 9.5 L 11.5 7 Q 8.7 8.3 11 9.5 L 10.5 11 L 9 7 L 11.5 6 Z " /><path fill="rgb(141,130,130)" stroke="rgb(141,130,130)" stroke-width="1" opacity="1" d="M 10.5 12 L 11.5 14 L 10.5 12 Z " /><path fill="rgb(141,130,130)" stroke="rgb(141,130,130)" stroke-width="1" opacity="1" d="M 20.5 14 Q 23.3 15.3 21 16.5 Q 22.1 19.8 19.5 19 L 20 17.5 L 20.5 14 Z " /><path fill="rgb(141,130,130)" stroke="rgb(141,130,130)" stroke-width="1" opacity="1" d="M 11.5 15 L 10.5 17 L 11.5 15 Z " /><path fill="rgb(141,130,130)" stroke="rgb(141,130,130)" stroke-width="1" opacity="1" d="M 6.5 17 L 7.5 19 L 6.5 17 Z " /><path fill="rgb(141,130,130)" stroke="rgb(141,130,130)" stroke-width="1" opacity="1" d="M 7.5 20 L 8.5 22 Q 5.7 22.7 7.5 20 Z " /><path fill="rgb(141,130,130)" stroke="rgb(141,130,130)" stroke-width="1" opacity="1" d="M 4.5 22 Q 7.5 23.5 4.5 25 L 4.5 22 Z " /><path fill="rgb(141,130,130)" stroke="rgb(141,130,130)" stroke-width="1" opacity="1" d="M 7.5 23 L 8 26 L 6 25.5 L 7.5 23 Z " /><path fill="rgb(141,130,130)" stroke="rgb(141,130,130)" stroke-width="1" opacity="1" d="M 15.5 23 L 15.5 25 L 17 25.5 L 15 26 Q 16 29 13 28 L 15.5 23 Z " /><path fill="rgb(141,130,130)" stroke="rgb(141,130,130)" stroke-width="1" opacity="1" d="M 3.5 26 L 3 27.5 L 2.5 29 L 2 27.5 L 3.5 26 Z " /><path fill="rgb(141,130,130)" stroke="rgb(141,130,130)" stroke-width="1" opacity="1" d="M 7.5 27 L 11 29.5 L 9.5 32 L 9 30.5 Q 11.3 29.3 8.5 28 L 7.5 27 Z " /><path fill="rgb(141,130,130)" stroke="rgb(141,130,130)" stroke-width="1" opacity="1" d="M 4.5 28 L 5.5 30 L 4.5 28 Z " /><path fill="rgb(141,130,130)" stroke="rgb(141,130,130)" stroke-width="1" opacity="1" d="M 2.5 33 L 3.5 35 L 7 34.5 L 8.5 37 L 13.5 36 L 14.5 38 L 10.5 37 L 8.5 38 L 5 36 Q 6.1 38.7 3.5 38 Q 5.1 36.3 2 34.5 L 2.5 33 Z " /><path fill="rgb(141,130,130)" stroke="rgb(141,130,130)" stroke-width="1" opacity="1" d="M 16 33 L 19 33.5 L 16.5 35 L 16 33 Z " /><path fill="rgb(141,130,130)" stroke="rgb(141,130,130)" stroke-width="1" opacity="1" d="M 9.5 41 L 12 42.5 L 11.5 44 L 16.5 43 L 18.5 43 L 25.5 44 L 25.5 43 L 21 42.5 L 24.5 41 Q 26.3 44.1 28 42.5 L 25.5 45 L 9 45 L 10 42.5 L 9.5 41 Z " /><path fill="rgb(141,130,130)" stroke="rgb(141,130,130)" stroke-width="1" opacity="1" d="M 4.5 42 L 6.5 45 Q 4.3 45.8 5 43.5 L 3 43.5 L 4.5 42 Z " /><path fill="rgb(141,130,130)" stroke="rgb(141,130,130)" stroke-width="1" opacity="1" d="M 11.5 46 L 13.5 46 L 16.5 47 L 19 46 L 18.5 48 L 16.5 48 L 13.5 47 L 10 47.5 L 11.5 46 Z " /><path fill="rgb(141,130,130)" stroke="rgb(141,130,130)" stroke-width="1" opacity="1" d="M 21.5 46 L 22.5 48 L 20 47.5 L 21.5 46 Z " /><path fill="rgb(174,221,232)" stroke="rgb(174,221,232)" stroke-width="1" opacity="1" d="M 15.5 6 L 16 19.5 L 14 20.5 L 14 8.5 L 15.5 6 Z " /><path fill="rgb(174,221,232)" stroke="rgb(174,221,232)" stroke-width="1" opacity="1" d="M 15.5 27 L 19 28.5 L 16.5 29 L 15.5 27 Z " /><path fill="rgb(174,221,232)" stroke="rgb(174,221,232)" stroke-width="1" opacity="1" d="M 11.5 28 L 14 28.5 L 11.5 29 L 11.5 28 Z " /><path fill="rgb(242,235,234)" stroke="rgb(242,235,234)" stroke-width="1" opacity="1" d="M 17 11 Q 20 9.8 19 13.5 L 18 15.5 L 20 15.5 L 19 18.5 L 21 21.5 L 20.5 23 L 23 24.5 L 18.5 27 L 19.5 25 L 22 24.5 L 17 22.5 L 20 21.5 L 17 20.5 L 17 18.5 L 17 11 Z " /><path fill="rgb(242,235,234)" stroke="rgb(242,235,234)" stroke-width="1" opacity="1" d="M 1.5 21 L 2 23.5 L 1 23.5 L 1.5 21 Z " /><path fill="rgb(242,235,234)" stroke="rgb(242,235,234)" stroke-width="1" opacity="1" d="M 17.5 37 Q 21.3 36.3 22 38.5 L 20 39.5 Q 22.3 40.8 19.5 42 L 19.5 38 Q 16.5 38.5 17.5 37 Z " /><path fill="rgb(249,244,245)" stroke="rgb(249,244,245)" stroke-width="1" opacity="1" d="M 25.5 2 L 25.5 4 Q 27.8 3.3 27 5.5 L 25 5.5 L 22.5 10 L 22 8.5 L 25.5 2 Z " /><path fill="rgb(249,244,245)" stroke="rgb(249,244,245)" stroke-width="1" opacity="1" d="M 26.5 7 L 27.5 9 Q 24.7 9.7 26.5 7 Z " /><path fill="rgb(249,244,245)" stroke="rgb(249,244,245)" stroke-width="1" opacity="1" d="M 25.5 10 L 28 11 Q 29 14 26 13 L 25.5 10 Z " /><path fill="rgb(249,244,245)" stroke="rgb(249,244,245)" stroke-width="1" opacity="1" d="M 27.5 14 L 28 16 L 26 15.5 L 27.5 14 Z " /><path fill="rgb(249,244,245)" stroke="rgb(249,244,245)" stroke-width="1" opacity="1" d="M 27.5 18 L 25.5 21 L 27.5 18 Z " /><path fill="rgb(249,244,245)" stroke="rgb(249,244,245)" stroke-width="1" opacity="1" d="M 21.5 19 L 24 23.5 L 22 22.5 L 21.5 19 Z " /><path fill="rgb(249,244,245)" stroke="rgb(249,244,245)" stroke-width="1" opacity="1" d="M 27.5 21 L 27 22.5 L 26.5 27 L 26 22.5 L 27.5 21 Z " /><path fill="rgb(249,244,245)" stroke="rgb(249,244,245)" stroke-width="1" opacity="1" d="M 22.5 25 L 23 27 Q 26.3 25.9 25 30 L 22.5 31 L 22.5 25 Z " /><path fill="rgb(249,244,245)" stroke="rgb(249,244,245)" stroke-width="1" opacity="1" d="M 27.5 28 L 28 30.5 L 27 30.5 L 27.5 28 Z " /><path fill="rgb(249,244,245)" stroke="rgb(249,244,245)" stroke-width="1" opacity="1" d="M 20.5 34 Q 22.8 33.3 22 35.5 L 25 40.5 L 23 41 L 22 38.5 Q 24.8 36.8 20.5 35 L 18.5 36 L 18.5 35 L 20.5 34 Z " /><path fill="rgb(249,244,245)" stroke="rgb(249,244,245)" stroke-width="1" opacity="1" d="M 27.5 34 L 28 37.5 L 27 37.5 L 27.5 34 Z " /><path fill="rgb(249,244,245)" stroke="rgb(249,244,245)" stroke-width="1" opacity="1" d="M 26.5 39 Q 28.8 38.3 28 40.5 L 26 41.5 L 26.5 39 Z " /><path fill="rgb(65,55,55)" stroke="rgb(65,55,55)" stroke-width="1" opacity="1" d="M 4.5 1 L 28 1.5 L 4.5 2 L 4.5 1 Z " /><path fill="rgb(65,55,55)" stroke="rgb(65,55,55)" stroke-width="1" opacity="1" d="M 18.5 3 L 21 4.5 L 19 5.5 L 18.5 3 Z " /><path fill="rgb(65,55,55)" stroke="rgb(65,55,55)" stroke-width="1" opacity="1" d="M 11.5 4 L 13 4.5 Q 9.5 6 12 7.5 L 11.5 13 L 10 8.5 L 10.5 7 L 9 6.5 L 11.5 4 Z " /><path fill="rgb(65,55,55)" stroke="rgb(65,55,55)" stroke-width="1" opacity="1" d="M 20.5 8 L 21 10.5 L 20 10.5 L 20.5 8 Z " /><path fill="rgb(65,55,55)" stroke="rgb(65,55,55)" stroke-width="1" opacity="1" d="M 20.5 12 L 22 14.5 L 20 13.5 L 20.5 12 Z " /><path fill="rgb(65,55,55)" stroke="rgb(65,55,55)" stroke-width="1" opacity="1" d="M 10 14 L 12 14.5 L 10 15.5 L 10 14 Z " /><path fill="rgb(65,55,55)" stroke="rgb(65,55,55)" stroke-width="1" opacity="1" d="M 3.5 20 L 7 21 Q 8.1 23.7 5.5 23 L 2 21.5 L 3.5 20 Z " /><path fill="rgb(65,55,55)" stroke="rgb(65,55,55)" stroke-width="1" opacity="1" d="M 5.5 24 L 4.5 26 L 5.5 24 Z " /><path fill="rgb(65,55,55)" stroke="rgb(65,55,55)" stroke-width="1" opacity="1" d="M 8.5 24 L 9 27 Q 11.7 25.9 11 28.5 L 9 32 L 6.5 31 L 4 32.5 L 2 29.5 L 4.5 31 L 6.5 30 L 8 30.5 Q 7.3 28.3 9.5 29 L 8.5 27 L 7 26.5 L 8.5 24 Z " /><path fill="rgb(65,55,55)" stroke="rgb(65,55,55)" stroke-width="1" opacity="1" d="M 6.5 33 L 5.5 35 L 6.5 33 Z " /><path fill="rgb(65,55,55)" stroke="rgb(65,55,55)" stroke-width="1" opacity="1" d="M 6.5 36 L 7 38 L 5 37.5 L 6.5 36 Z " /><path fill="rgb(65,55,55)" stroke="rgb(65,55,55)" stroke-width="1" opacity="1" d="M 3.5 42 L 3.5 44 L 5 44.5 L 3.5 45 Q 0.5 43.5 3.5 42 Z " /><path fill="rgb(65,55,55)" stroke="rgb(65,55,55)" stroke-width="1" opacity="1" d="M 6.5 42 L 8.5 42 L 10 42.5 L 9 45 L 6 43.5 L 6.5 42 Z " /><path fill="rgb(65,55,55)" stroke="rgb(65,55,55)" stroke-width="1" opacity="1" d="M 26.5 42 L 28 45 L 26 44.5 L 26.5 42 Z " /><path fill="rgb(65,55,55)" stroke="rgb(65,55,55)" stroke-width="1" opacity="1" d="M 11.5 43 L 14 43.5 L 11.5 44 L 11.5 43 Z " /><path fill="rgb(65,55,55)" stroke="rgb(65,55,55)" stroke-width="1" opacity="1" d="M 22.5 43 L 25 43.5 L 22.5 44 L 22.5 43 Z " /><path fill="rgb(65,55,55)" stroke="rgb(65,55,55)" stroke-width="1" opacity="1" d="M 7.5 46 L 8 48 L 13.5 47 L 18.5 48 L 20.5 48 L 24.5 46 L 24.5 48 Q 26.8 48.8 26 46.5 L 27 46.5 L 28 48.5 L 2 49 L 2.5 47 L 4.5 47 L 7.5 46 Z " /><path fill="rgb(253,252,253)" stroke="rgb(253,252,253)" stroke-width="1" opacity="1" d="M 0 0 L 30 0 L 30 50 L 0 50 L 0 0 Z M 2 1 L 2 6 L 1 9 L 2 11 L 2 15 L 1 19 L 1 49 L 29 49 L 28 47 L 29 45 L 28 34 L 28 32 L 28 6 L 29 4 L 29 2 L 2 1 Z " /><path fill="rgb(253,252,253)" stroke="rgb(253,252,253)" stroke-width="1" opacity="1" d="M 24.5 12 L 26 15 L 23 13.5 L 24.5 12 Z " /><path fill="rgb(253,252,253)" stroke="rgb(253,252,253)" stroke-width="1" opacity="1" d="M 12.5 30 L 18 30.5 L 16 31.5 L 19 32.5 L 16.5 33 L 15 32.5 L 12.5 36 L 7 34.5 L 8 32 Q 11.4 32.8 12.5 30 Z " /><path fill="rgb(253,252,253)" stroke="rgb(253,252,253)" stroke-width="1" opacity="1" d="M 25.5 30 Q 28.3 31.4 27 36 Q 23.7 37.3 25 32.5 Q 22.7 31.3 25.5 30 Z " /><path fill="rgb(253,252,253)" stroke="rgb(253,252,253)" stroke-width="1" opacity="1" d="M 20 32 L 22 32.5 L 20 33.5 L 20 32 Z " /><path fill="rgb(181,178,171)" stroke="rgb(181,178,171)" stroke-width="1" opacity="1" d="M 13.5 3 L 16 4.5 L 14.5 4 L 13.5 3 Z " /><path fill="rgb(181,178,171)" stroke="rgb(181,178,171)" stroke-width="1" opacity="1" d="M 19.5 6 L 22 7.5 L 19 8.5 L 20 10.5 L 19 10.5 L 18 8.5 L 19.5 6 Z " /><path fill="rgb(181,178,171)" stroke="rgb(181,178,171)" stroke-width="1" opacity="1" d="M 10.5 13 L 10 14.5 L 9.5 17 L 9 14.5 L 10.5 13 Z " /><path fill="rgb(181,178,171)" stroke="rgb(181,178,171)" stroke-width="1" opacity="1" d="M 3.5 18 L 3 19.5 L 2.5 21 L 2 19.5 L 3.5 18 Z " /><path fill="rgb(181,178,171)" stroke="rgb(181,178,171)" stroke-width="1" opacity="1" d="M 6.5 18 Q 9.5 19.5 6.5 21 L 6.5 18 Z " /><path fill="rgb(181,178,171)" stroke="rgb(181,178,171)" stroke-width="1" opacity="1" d="M 15.5 20 L 17 24.5 L 16 24.5 L 15.5 23 L 13.5 26 L 13 24.5 L 15.5 20 Z " /><path fill="rgb(181,178,171)" stroke="rgb(181,178,171)" stroke-width="1" opacity="1" d="M 2.5 22 L 4.5 26 L 7.5 22 L 10 23.5 L 8.5 24 L 7 23.5 L 6 25.5 L 7 28 L 9 28.5 L 7 29.5 Q 9.3 30.8 6.5 32 L 4 31 L 3.5 34 L 3 31.5 L 4 29.5 L 3.5 28 Q 4.8 30.3 6 27.5 L 3.5 26 L 2 26.5 L 3 23.5 L 2.5 22 Z " /><path fill="rgb(181,178,171)" stroke="rgb(181,178,171)" stroke-width="1" opacity="1" d="M 20.5 27 L 21 29.5 L 19 28.5 L 20.5 27 Z " /><path fill="rgb(181,178,171)" stroke="rgb(181,178,171)" stroke-width="1" opacity="1" d="M 15.5 34 Q 18.5 35.5 15.5 37 L 15.5 34 Z " /><path fill="rgb(181,178,171)" stroke="rgb(181,178,171)" stroke-width="1" opacity="1" d="M 5.5 42 L 4.5 44 L 5.5 42 Z " /><path fill="rgb(181,178,171)" stroke="rgb(181,178,171)" stroke-width="1" opacity="1" d="M 20.5 42 L 21.5 44 Q 18.7 44.7 20.5 42 Z " /><path fill="rgb(181,178,171)" stroke="rgb(181,178,171)" stroke-width="1" opacity="1" d="M 8.5 46 L 11 46.5 Q 8.9 49.8 8.5 46 Z " /><path fill="rgb(252,249,251)" stroke="rgb(252,249,251)" stroke-width="1" opacity="1" d="M 23.5 9 L 24.5 11 L 23.5 9 Z " /><path fill="rgb(252,249,251)" stroke="rgb(252,249,251)" stroke-width="1" opacity="1" d="M 23.5 14 L 26 15.5 L 23.5 17 L 23.5 14 Z " /><path fill="rgb(252,249,251)" stroke="rgb(252,249,251)" stroke-width="1" opacity="1" d="M 24.5 30 L 24 31.5 L 25 34.5 L 24.5 36 L 26 36.5 L 25.5 39 L 22.5 33 L 21 33.5 L 24.5 30 Z " /><path fill="rgb(252,249,251)" stroke="rgb(252,249,251)" stroke-width="1" opacity="1" d="M 17.5 35 L 18.5 37 L 17.5 35 Z " /><path fill="rgb(220,212,201)" stroke="rgb(220,212,201)" stroke-width="1" opacity="1" d="M 10.5 20 Q 12.8 19.3 12 21.5 L 10.5 20 Z " /><path fill="rgb(220,212,201)" stroke="rgb(220,212,201)" stroke-width="1" opacity="1" d="M 11.5 23 L 14 23.5 L 11 25 L 11.5 23 Z " /><path fill="rgb(220,212,201)" stroke="rgb(220,212,201)" stroke-width="1" opacity="1" d="M 2.5 31 L 1.5 33 L 2.5 31 Z " /><path fill="rgb(220,212,201)" stroke="rgb(220,212,201)" stroke-width="1" opacity="1" d="M 3.5 45 L 9 45.5 L 2.5 47 L 3.5 45 Z " /><path fill="rgb(231,223,222)" stroke="rgb(231,223,222)" stroke-width="1" opacity="1" d="M 2 2 L 4 2.5 L 2 3.5 L 2 2 Z " /><path fill="rgb(231,223,222)" stroke="rgb(231,223,222)" stroke-width="1" opacity="1" d="M 13.5 9 L 14 21 L 9 18.5 L 8 16.5 L 10.5 18 Q 13.9 18.9 12 13.5 L 13.5 9 Z " /><path fill="rgb(231,223,222)" stroke="rgb(231,223,222)" stroke-width="1" opacity="1" d="M 8.5 10 L 9.5 12 L 8.5 10 Z " /><path fill="rgb(231,223,222)" stroke="rgb(231,223,222)" stroke-width="1" opacity="1" d="M 2.5 13 L 4 16.5 L 2 17.5 L 2 15.5 L 2.5 13 Z " /><path fill="rgb(231,223,222)" stroke="rgb(231,223,222)" stroke-width="1" opacity="1" d="M 11 25 Q 14 24 13 27 Q 10 28 11 25 Z " /><path fill="rgb(231,223,222)" stroke="rgb(231,223,222)" stroke-width="1" opacity="1" d="M 10.5 39 Q 14.3 38.3 15 40.5 L 14.5 42 L 17 42.5 L 13.5 43 L 11 42 L 10.5 40 L 9 40.5 L 10.5 39 Z " /><path fill="rgb(231,223,222)" stroke="rgb(231,223,222)" stroke-width="1" opacity="1" d="M 14.5 45 L 17 45.5 L 14.5 46 L 14.5 45 Z " /><path fill="rgb(238,231,229)" stroke="rgb(238,231,229)" stroke-width="1" opacity="1" d="M 16.5 2 L 19 2.5 L 16.5 3 L 16.5 2 Z " /><path fill="rgb(238,231,229)" stroke="rgb(238,231,229)" stroke-width="1" opacity="1" d="M 16.5 8 L 17 10 L 19 10.5 L 16.5 12 L 16.5 8 Z " /><path fill="rgb(238,231,229)" stroke="rgb(238,231,229)" stroke-width="1" opacity="1" d="M 17 25 L 19 25.5 L 18.5 28 L 17 25 Z " /><path fill="rgb(238,231,229)" stroke="rgb(238,231,229)" stroke-width="1" opacity="1" d="M 12.5 37 L 15.5 39 L 19.5 38 L 19.5 43 L 14 41.5 Q 16.3 40.3 13.5 39 Q 10.7 39.7 12.5 37 Z " /><path fill="rgb(247,240,240)" stroke="rgb(247,240,240)" stroke-width="1" opacity="1" d="M 28.5 1 L 28 2.5 L 27.5 8 Q 24.8 6.8 27 5.5 L 26 2 L 28.5 1 Z " /><path fill="rgb(247,240,240)" stroke="rgb(247,240,240)" stroke-width="1" opacity="1" d="M 21.5 2 L 25 2.5 L 23.5 5 L 21.5 2 Z " /><path fill="rgb(247,240,240)" stroke="rgb(247,240,240)" stroke-width="1" opacity="1" d="M 27.5 9 L 28 11 L 26 10.5 L 27.5 9 Z " /><path fill="rgb(247,240,240)" stroke="rgb(247,240,240)" stroke-width="1" opacity="1" d="M 18.5 14 L 20 16.5 L 18 15.5 L 18.5 14 Z " /><path fill="rgb(247,240,240)" stroke="rgb(247,240,240)" stroke-width="1" opacity="1" d="M 26 16 Q 29 15 28 18 Q 25 19 26 16 Z " /><path fill="rgb(247,240,240)" stroke="rgb(247,240,240)" stroke-width="1" opacity="1" d="M 20.5 20 L 23 23.5 L 21.5 23 L 20 22.5 L 20.5 20 Z " /><path fill="rgb(247,240,240)" stroke="rgb(247,240,240)" stroke-width="1" opacity="1" d="M 27.5 22 L 28 27.5 L 27 27.5 L 27.5 22 Z " /><path fill="rgb(247,240,240)" stroke="rgb(247,240,240)" stroke-width="1" opacity="1" d="M 20.5 26 Q 22.8 25.3 22 27.5 L 20.5 26 Z " /><path fill="rgb(247,240,240)" stroke="rgb(247,240,240)" stroke-width="1" opacity="1" d="M 20.5 35 L 22.5 38 L 19 36.5 L 20.5 35 Z " /><path fill="rgb(247,240,240)" stroke="rgb(247,240,240)" stroke-width="1" opacity="1" d="M 20.5 39 Q 23.8 37.9 23 40.5 L 20.5 42 L 20.5 39 Z " /></svg>