<svg width="30" height="50" version="1.1" xmlns="http://www.w3.org/2000/svg" desc="Created with imagetracer.js version 1.2.6" ><path fill="rgb(161,230,244)" stroke="rgb(161,230,244)" stroke-width="1" opacity="1" d="M 6.5 2 Q 9.1 1.3 8 4 L 6 4.5 L 7 7 L 4 6.5 L 4 4.5 Q 3.3 2.3 5.5 3 L 6.5 2 Z " /><path fill="rgb(161,230,244)" stroke="rgb(161,230,244)" stroke-width="1" opacity="1" d="M 4.5 8 L 7 9.5 L 6.5 11 L 4.5 8 Z " /><path fill="rgb(161,230,244)" stroke="rgb(161,230,244)" stroke-width="1" opacity="1" d="M 3.5 11 L 4 13 L 6 13.5 L 3 14 L 3.5 11 Z " /><path fill="rgb(161,230,244)" stroke="rgb(161,230,244)" stroke-width="1" opacity="1" d="M 8.5 14 L 9.5 16 L 8.5 14 Z " /><path fill="rgb(161,230,244)" stroke="rgb(161,230,244)" stroke-width="1" opacity="1" d="M 3 15 L 6 15.5 L 5.5 18 Q 1.3 19.1 3 15 Z " /><path fill="rgb(161,230,244)" stroke="rgb(161,230,244)" stroke-width="1" opacity="1" d="M 4.5 19 L 4.5 21 Q 7.1 20.2 6 23.5 L 4 24.5 L 3 20.5 L 4.5 19 Z " /><path fill="rgb(161,230,244)" stroke="rgb(161,230,244)" stroke-width="1" opacity="1" d="M 9.5 19 L 10 21 L 8 20.5 L 9.5 19 Z " /><path fill="rgb(161,230,244)" stroke="rgb(161,230,244)" stroke-width="1" opacity="1" d="M 8.5 22 Q 11.8 20.9 11 23.5 L 9.5 23 L 7.5 24 L 8.5 22 Z " /><path fill="rgb(161,230,244)" stroke="rgb(161,230,244)" stroke-width="1" opacity="1" d="M 6.5 30 L 6 31.5 L 5.5 33 L 5 31.5 L 6.5 30 Z " /><path fill="rgb(145,230,248)" stroke="rgb(145,230,248)" stroke-width="1" opacity="1" d="M 3.5 2 L 6 2.5 L 3.5 3 L 3.5 2 Z " /><path fill="rgb(145,230,248)" stroke="rgb(145,230,248)" stroke-width="1" opacity="1" d="M 11 2 Q 16.4 0.5 18 3.5 L 14.5 5 L 14.5 4 L 17 3.5 L 12.5 3 L 12.5 6 Q 15.1 5.2 14 8.5 L 12.5 11 L 12 9 L 10 8.5 L 10 6.5 L 11 2 Z " /><path fill="rgb(145,230,248)" stroke="rgb(145,230,248)" stroke-width="1" opacity="1" d="M 26.5 7 L 27.5 9 L 26.5 7 Z " /><path fill="rgb(145,230,248)" stroke="rgb(145,230,248)" stroke-width="1" opacity="1" d="M 10.5 15 L 13 15.5 Q 10.9 18.8 10.5 15 Z " /><path fill="rgb(145,230,248)" stroke="rgb(145,230,248)" stroke-width="1" opacity="1" d="M 27.5 18 L 28 23.5 L 26 22.5 L 27.5 18 Z " /><path fill="rgb(145,230,248)" stroke="rgb(145,230,248)" stroke-width="1" opacity="1" d="M 27.5 25 L 26.5 27 L 27.5 25 Z " /><path fill="rgb(152,236,252)" stroke="rgb(152,236,252)" stroke-width="1" opacity="1" d="M 17.5 2 L 20 2.5 L 20 6.5 L 21 8.5 Q 18.8 9.8 21.5 11 L 24 9.5 L 23.5 12 Q 19.8 10.8 21 14.5 L 19 18 L 12 17 L 11.5 19 L 10 16.5 L 13 15.5 L 9 13.5 Q 10.3 8.8 8 7.5 L 10.5 7 L 10.5 9 Q 12.8 8.3 12 10.5 L 13 10.5 L 14 6 L 12 5.5 L 18 5 L 17.5 3 L 16 3.5 L 17.5 2 Z " /><path fill="rgb(152,236,252)" stroke="rgb(152,236,252)" stroke-width="1" opacity="1" d="M 9 3 L 11 3.5 L 9.5 6 L 9 3 Z " /><path fill="rgb(152,236,252)" stroke="rgb(152,236,252)" stroke-width="1" opacity="1" d="M 24.5 14 L 23.5 19 L 25 19.5 L 22 21.5 L 23.5 24 Q 19.5 24.5 19 21.5 L 24.5 14 Z " /><path fill="rgb(152,236,252)" stroke="rgb(152,236,252)" stroke-width="1" opacity="1" d="M 23.5 28 Q 26.5 29.5 23.5 31 L 19 29.5 L 23.5 28 Z " /><path fill="rgb(152,236,252)" stroke="rgb(152,236,252)" stroke-width="1" opacity="1" d="M 25.5 31 L 26.5 33 L 28 32.5 Q 26.7 36 22 35 Q 20.9 32.3 23.5 33 L 25.5 31 Z " /><path fill="rgb(156,190,200)" stroke="rgb(156,190,200)" stroke-width="1" opacity="1" d="M 5.5 11 Q 7.8 11.8 7 15.5 L 6 15.5 L 5.5 11 Z " /><path fill="rgb(156,190,200)" stroke="rgb(156,190,200)" stroke-width="1" opacity="1" d="M 21.5 14 L 22.5 16 L 21.5 14 Z " /><path fill="rgb(156,190,200)" stroke="rgb(156,190,200)" stroke-width="1" opacity="1" d="M 20.5 17 L 21 19.5 L 20 19.5 L 20.5 17 Z " /><path fill="rgb(156,190,200)" stroke="rgb(156,190,200)" stroke-width="1" opacity="1" d="M 9.5 25 L 9.5 28 Q 6.5 26.5 9.5 25 Z " /><path fill="rgb(156,190,200)" stroke="rgb(156,190,200)" stroke-width="1" opacity="1" d="M 18.5 26 L 20 28.5 L 18 29.5 L 18.5 28 L 17 27.5 L 18.5 26 Z " /><path fill="rgb(156,190,200)" stroke="rgb(156,190,200)" stroke-width="1" opacity="1" d="M 11.5 27 L 12.5 29 L 11.5 27 Z " /><path fill="rgb(156,190,200)" stroke="rgb(156,190,200)" stroke-width="1" opacity="1" d="M 11 31 L 15 32.5 L 13.5 33 L 11 32.5 L 11 31 Z " /><path fill="rgb(156,190,200)" stroke="rgb(156,190,200)" stroke-width="1" opacity="1" d="M 27.5 33 L 26.5 35 L 27.5 33 Z " /><path fill="rgb(156,190,200)" stroke="rgb(156,190,200)" stroke-width="1" opacity="1" d="M 8.5 34 L 12 35.5 L 9.5 36 L 8.5 34 Z " /><path fill="rgb(156,190,200)" stroke="rgb(156,190,200)" stroke-width="1" opacity="1" d="M 13.5 35 L 17 35.5 L 13.5 36 L 13.5 35 Z " /><path fill="rgb(156,190,200)" stroke="rgb(156,190,200)" stroke-width="1" opacity="1" d="M 27.5 45 L 28 47.5 L 27 47.5 L 27.5 45 Z " /><path fill="rgb(167,236,250)" stroke="rgb(167,236,250)" stroke-width="1" opacity="1" d="M 8.5 2 L 9 6.5 L 9 8.5 Q 7.8 13.2 10 14.5 L 6 11.5 L 7 9.5 L 6 7.5 L 7 5.5 L 6.5 4 Q 9 4.7 8.5 2 Z " /><path fill="rgb(167,236,250)" stroke="rgb(167,236,250)" stroke-width="1" opacity="1" d="M 20.5 15 L 19.5 17 L 20.5 15 Z " /><path fill="rgb(167,236,250)" stroke="rgb(167,236,250)" stroke-width="1" opacity="1" d="M 5.5 16 L 8 17.5 L 9 19.5 L 9 21.5 L 6.5 24 L 6 21 L 3 19.5 Q 2.2 16.9 5.5 18 L 5.5 16 Z " /><path fill="rgb(167,236,250)" stroke="rgb(167,236,250)" stroke-width="1" opacity="1" d="M 6 31 L 10 32.5 L 6 33 L 6 31 Z " /><path fill="rgb(167,236,250)" stroke="rgb(167,236,250)" stroke-width="1" opacity="1" d="M 20.5 31 L 24 32.5 L 20 33 L 20.5 31 Z " /><path fill="rgb(48,50,48)" stroke="rgb(48,50,48)" stroke-width="1" opacity="1" d="M 14.5 17 Q 17.5 16.1 16 20.5 L 15 20.5 L 14.5 19 L 11.5 21 L 11.5 20 Q 13.8 20.8 13 18.5 L 14.5 17 Z " /><path fill="rgb(48,50,48)" stroke="rgb(48,50,48)" stroke-width="1" opacity="1" d="M 20.5 27 L 25 27.5 L 20.5 28 L 20.5 27 Z " /><path fill="rgb(48,50,48)" stroke="rgb(48,50,48)" stroke-width="1" opacity="1" d="M 2 28 L 8.5 29 L 10 28.5 Q 10.6 31.3 4.5 30 L 2 29.5 L 2 28 Z " /><path fill="rgb(48,50,48)" stroke="rgb(48,50,48)" stroke-width="1" opacity="1" d="M 3.5 33 L 8 35.5 L 4 36.5 L 9 37.5 L 2 38 Q 1 34.2 3.5 33 Z " /><path fill="rgb(48,50,48)" stroke="rgb(48,50,48)" stroke-width="1" opacity="1" d="M 23.5 35 L 28 35.5 L 23.5 36 L 23.5 35 Z " /><path fill="rgb(48,50,48)" stroke="rgb(48,50,48)" stroke-width="1" opacity="1" d="M 21.5 37 L 27 37.5 L 21.5 38 L 21.5 37 Z " /><path fill="rgb(153,165,169)" stroke="rgb(153,165,169)" stroke-width="1" opacity="1" d="M 27.5 6 L 28 7.5 L 26 8.5 L 27.5 6 Z " /><path fill="rgb(153,165,169)" stroke="rgb(153,165,169)" stroke-width="1" opacity="1" d="M 19.5 17 L 19 18.5 Q 20.1 21.8 17.5 21 L 18 19.5 L 19.5 17 Z " /><path fill="rgb(153,165,169)" stroke="rgb(153,165,169)" stroke-width="1" opacity="1" d="M 17.5 23 L 19 25.5 L 15.5 27 L 15.5 26 L 18 25.5 L 17.5 23 Z " /><path fill="rgb(153,165,169)" stroke="rgb(153,165,169)" stroke-width="1" opacity="1" d="M 3.5 32 L 2.5 34 L 3.5 32 Z " /><path fill="rgb(153,165,169)" stroke="rgb(153,165,169)" stroke-width="1" opacity="1" d="M 18.5 32 L 19 34.5 L 18 34.5 L 18.5 32 Z " /><path fill="rgb(153,165,169)" stroke="rgb(153,165,169)" stroke-width="1" opacity="1" d="M 10.5 33 Q 12.8 32.3 12 34.5 L 10.5 33 Z " /><path fill="rgb(153,165,169)" stroke="rgb(153,165,169)" stroke-width="1" opacity="1" d="M 11.5 36 L 13 39.5 L 10 39.5 L 11.5 36 Z " /><path fill="rgb(153,165,169)" stroke="rgb(153,165,169)" stroke-width="1" opacity="1" d="M 18.5 39 L 18.5 42 L 16.5 41 L 13.5 42 L 13.5 41 L 18.5 39 Z " /><path fill="rgb(153,165,169)" stroke="rgb(153,165,169)" stroke-width="1" opacity="1" d="M 25.5 44 L 26.5 46 L 25.5 44 Z " /><path fill="rgb(142,235,252)" stroke="rgb(142,235,252)" stroke-width="1" opacity="1" d="M 20.5 2 Q 27.5 0.5 27 3.5 L 28 5.5 L 23.5 11 L 21 10.5 L 23 7.5 L 19 3.5 L 20.5 2 Z " /><path fill="rgb(142,235,252)" stroke="rgb(142,235,252)" stroke-width="1" opacity="1" d="M 26 11 L 28 11.5 L 27 13.5 L 28 17.5 L 26 22.5 L 26.5 24 L 22 21.5 L 25 19.5 L 23 18.5 L 25 14.5 L 26 11 Z " /><path fill="rgb(142,235,252)" stroke="rgb(142,235,252)" stroke-width="1" opacity="1" d="M 21 12 L 23 12.5 L 21 13.5 L 21 12 Z " /><path fill="rgb(142,235,252)" stroke="rgb(142,235,252)" stroke-width="1" opacity="1" d="M 24.5 28 L 27 29.5 L 25 30.5 L 24.5 28 Z " /><path fill="rgb(174,219,229)" stroke="rgb(174,219,229)" stroke-width="1" opacity="1" d="M 4.5 32 L 7 33.5 L 5.5 34 L 4.5 32 Z " /><path fill="rgb(222,218,219)" stroke="rgb(222,218,219)" stroke-width="1" opacity="1" d="M 12.5 25 L 15 26.5 L 13.5 27 L 12.5 25 Z " /><path fill="rgb(222,218,219)" stroke="rgb(222,218,219)" stroke-width="1" opacity="1" d="M 13.5 29 L 12.5 31 L 13.5 29 Z " /><path fill="rgb(222,218,219)" stroke="rgb(222,218,219)" stroke-width="1" opacity="1" d="M 3.5 38 L 3 41.5 L 2.5 43 L 2 39.5 L 3.5 38 Z " /><path fill="rgb(222,218,219)" stroke="rgb(222,218,219)" stroke-width="1" opacity="1" d="M 6.5 38 L 9 38.5 L 6.5 39 L 6.5 38 Z " /><path fill="rgb(222,218,219)" stroke="rgb(222,218,219)" stroke-width="1" opacity="1" d="M 18.5 38 L 21 38.5 L 20.5 41 L 18.5 38 Z " /><path fill="rgb(96,140,152)" stroke="rgb(96,140,152)" stroke-width="1" opacity="1" d="M 9.5 16 L 10 18.5 L 9 18.5 L 9.5 16 Z " /><path fill="rgb(96,140,152)" stroke="rgb(96,140,152)" stroke-width="1" opacity="1" d="M 16.5 17 L 17 20.5 L 16 20.5 L 16.5 17 Z " /><path fill="rgb(96,140,152)" stroke="rgb(96,140,152)" stroke-width="1" opacity="1" d="M 26.5 25 L 25.5 27 L 26.5 25 Z " /><path fill="rgb(96,140,152)" stroke="rgb(96,140,152)" stroke-width="1" opacity="1" d="M 7 33 L 10 33.5 L 7.5 35 L 7 33 Z " /><path fill="rgb(148,219,233)" stroke="rgb(148,219,233)" stroke-width="1" opacity="1" d="M 2.5 2 L 5 7.5 L 3 8 L 2.5 2 Z " /><path fill="rgb(148,219,233)" stroke="rgb(148,219,233)" stroke-width="1" opacity="1" d="M 2.5 9 Q 4.3 12.1 6 10.5 L 4.5 13 L 3.5 11 L 3 13.5 L 3 15.5 L 4 28 L 2 27.5 L 3 25.5 L 2 24.5 L 2.5 9 Z " /><path fill="rgb(148,219,233)" stroke="rgb(148,219,233)" stroke-width="1" opacity="1" d="M 24.5 13 L 23.5 15 L 24.5 13 Z " /><path fill="rgb(148,219,233)" stroke="rgb(148,219,233)" stroke-width="1" opacity="1" d="M 19.5 22 L 20.5 24 Q 17.7 24.7 19.5 22 Z " /><path fill="rgb(148,219,233)" stroke="rgb(148,219,233)" stroke-width="1" opacity="1" d="M 7.5 25 L 9 27.5 L 7 26.5 L 7.5 25 Z " /><path fill="rgb(148,219,233)" stroke="rgb(148,219,233)" stroke-width="1" opacity="1" d="M 11.5 28 L 12 30 L 10 29.5 L 11.5 28 Z " /><path fill="rgb(148,219,233)" stroke="rgb(148,219,233)" stroke-width="1" opacity="1" d="M 27.5 29 L 26.5 31 L 27.5 29 Z " /><path fill="rgb(148,219,233)" stroke="rgb(148,219,233)" stroke-width="1" opacity="1" d="M 2 30 L 5 30.5 L 2.5 32 L 2 30 Z " /><path fill="rgb(243,238,241)" stroke="rgb(243,238,241)" stroke-width="1" opacity="1" d="M 13.5 27 L 15 29.5 L 13 28.5 L 13.5 27 Z " /><path fill="rgb(243,238,241)" stroke="rgb(243,238,241)" stroke-width="1" opacity="1" d="M 13.5 31 L 16 31.5 L 13.5 32 L 13.5 31 Z " /><path fill="rgb(243,238,241)" stroke="rgb(243,238,241)" stroke-width="1" opacity="1" d="M 14.5 33 L 13.5 35 L 14.5 33 Z " /><path fill="rgb(243,238,241)" stroke="rgb(243,238,241)" stroke-width="1" opacity="1" d="M 1.5 34 L 2 37.5 L 1 37.5 L 1.5 34 Z " /><path fill="rgb(243,238,241)" stroke="rgb(243,238,241)" stroke-width="1" opacity="1" d="M 17.5 36 L 19.5 39 L 17 38 L 17.5 36 Z " /><path fill="rgb(243,238,241)" stroke="rgb(243,238,241)" stroke-width="1" opacity="1" d="M 26.5 38 L 28 38 L 28 43 L 25 44.5 Q 27.8 45.6 27 49 L 24.5 48 L 20.5 49 L 20.5 48 Q 22.8 48.8 22 46.5 L 21 44 L 23 43.5 L 22 41 L 26.5 38 Z " /><path fill="rgb(243,238,241)" stroke="rgb(243,238,241)" stroke-width="1" opacity="1" d="M 3.5 39 L 7.5 40 L 9.5 39 L 9.5 41 L 12.5 43 L 18 42 L 19 48.5 L 17.5 48 L 13.5 47 L 6.5 49 L 4.5 48 L 3 48.5 L 2 46.5 L 3 44.5 L 3 42.5 L 4 40.5 L 3.5 39 Z " /><path fill="rgb(117,104,86)" stroke="rgb(117,104,86)" stroke-width="1" opacity="1" d="M 14.5 19 L 14 20.5 L 13.5 22 L 13 20.5 L 14.5 19 Z " /><path fill="rgb(117,104,86)" stroke="rgb(117,104,86)" stroke-width="1" opacity="1" d="M 16.5 22 L 17 24.5 L 15.5 24 L 14 23.5 L 16.5 22 Z " /><path fill="rgb(117,104,86)" stroke="rgb(117,104,86)" stroke-width="1" opacity="1" d="M 8.5 24 L 11 24.5 L 8.5 25 L 8.5 24 Z " /><path fill="rgb(117,104,86)" stroke="rgb(117,104,86)" stroke-width="1" opacity="1" d="M 10.5 38 L 12.5 41 L 10.5 38 Z " /><path fill="rgb(194,150,81)" stroke="rgb(194,150,81)" stroke-width="1" opacity="1" d="M 14.5 20 L 16 23 L 11.5 25 L 14 21.5 L 14.5 20 Z " /><path fill="rgb(194,150,81)" stroke="rgb(194,150,81)" stroke-width="1" opacity="1" d="M 19.5 24 L 27 24.5 L 19.5 25 L 19.5 24 Z " /><path fill="rgb(252,251,252)" stroke="rgb(252,251,252)" stroke-width="1" opacity="1" d="M 0 0 L 30 0 L 30 50 L 0 50 L 0 0 Z M 2 2 L 2 7 L 2 9 L 2 28 L 1 29 L 2 32 L 1 35 L 2 48 L 4 49 L 14 47 L 19 49 Q 23 50 25 48 L 27 49 L 28 48 L 28 37 L 29 36 L 28 35 L 28 26 L 28 24 L 28 2 L 2 2 Z " /><path fill="rgb(252,251,252)" stroke="rgb(252,251,252)" stroke-width="1" opacity="1" d="M 13.5 25 L 12.5 27 L 13.5 25 Z " /><path fill="rgb(252,251,252)" stroke="rgb(252,251,252)" stroke-width="1" opacity="1" d="M 14 27 L 17 28.5 Q 15.5 31.5 14 28.5 L 14 27 Z " /><path fill="rgb(252,251,252)" stroke="rgb(252,251,252)" stroke-width="1" opacity="1" d="M 16.5 31 Q 19.9 30.1 18 35.5 L 15 33.5 L 16.5 31 Z " /><path fill="rgb(252,251,252)" stroke="rgb(252,251,252)" stroke-width="1" opacity="1" d="M 12.5 34 L 13 36 L 18 38.5 Q 18.8 41.1 15.5 40 Q 14.3 42.3 13 39.5 L 16 38.5 L 12 36.5 L 12.5 34 Z " /><path fill="rgb(252,251,252)" stroke="rgb(252,251,252)" stroke-width="1" opacity="1" d="M 20.5 39 L 25 39.5 L 24.5 42 L 22 41 L 23 43.5 L 21 44 L 22 48 Q 18.2 49.5 19 46.5 L 18 42 L 21 40.5 L 20.5 39 Z " /><path fill="rgb(252,251,252)" stroke="rgb(252,251,252)" stroke-width="1" opacity="1" d="M 12.5 42 L 15 43.5 L 13.5 44 L 12.5 42 Z " /></svg>