<svg width="30" height="50" version="1.1" xmlns="http://www.w3.org/2000/svg" desc="Created with imagetracer.js version 1.2.6" ><path fill="rgb(171,161,163)" stroke="rgb(171,161,163)" stroke-width="1" opacity="1" d="M 25.5 11 L 24.5 13 L 25.5 11 Z " /><path fill="rgb(171,161,163)" stroke="rgb(171,161,163)" stroke-width="1" opacity="1" d="M 21.5 13 L 23 15.5 L 22 15.5 L 21.5 13 Z " /><path fill="rgb(171,161,163)" stroke="rgb(171,161,163)" stroke-width="1" opacity="1" d="M 17.5 14 L 18 16.5 L 16 17.5 L 17.5 14 Z " /><path fill="rgb(171,161,163)" stroke="rgb(171,161,163)" stroke-width="1" opacity="1" d="M 8.5 18 L 7.5 20 L 8.5 18 Z " /><path fill="rgb(171,161,163)" stroke="rgb(171,161,163)" stroke-width="1" opacity="1" d="M 22.5 20 L 24 25.5 L 22 25.5 L 20.5 28 L 21 26.5 L 22.5 20 Z " /><path fill="rgb(171,161,163)" stroke="rgb(171,161,163)" stroke-width="1" opacity="1" d="M 6.5 22 L 9 28 L 7 27.5 L 7 25.5 L 6.5 22 Z " /><path fill="rgb(171,161,163)" stroke="rgb(171,161,163)" stroke-width="1" opacity="1" d="M 10.5 32 L 11.5 34 L 10.5 32 Z " /><path fill="rgb(171,161,163)" stroke="rgb(171,161,163)" stroke-width="1" opacity="1" d="M 11.5 35 L 10.5 37 L 11.5 35 Z " /><path fill="rgb(168,203,212)" stroke="rgb(168,203,212)" stroke-width="1" opacity="1" d="M 14 33 L 16 33.5 L 16 41 L 14 40.5 L 14 33 Z " /><path fill="rgb(252,252,252)" stroke="rgb(252,252,252)" stroke-width="1" opacity="1" d="M 0 0 L 30 0 L 30 50 L 0 50 L 0 0 Z M 2 1 L 2 48 L 2 49 L 20 49 L 21 48 L 28 48 L 28 1 L 2 1 Z " /><path fill="rgb(234,226,226)" stroke="rgb(234,226,226)" stroke-width="1" opacity="1" d="M 2 2 L 12.5 2 Q 11.7 5.3 17 4 L 17.5 2 L 28 2 L 28 8.5 L 27 9.5 L 28 10.5 L 28 19.5 L 25.5 21 L 23 16.5 L 27 14.5 L 25.5 11 L 23.5 12 L 22.5 9 L 22 11 L 19 11.5 L 20 14 L 15 12.5 L 18 11 Q 19.3 8 15.5 9 L 14.5 6 L 13 6.5 Q 15.5 8 12 9.5 L 11.5 11 L 9.5 10 L 8.5 11 L 6 9.5 L 7 11.5 L 6 13.5 L 7.5 16 L 3.5 18 L 2 16.5 L 2 2 Z " /><path fill="rgb(234,226,226)" stroke="rgb(234,226,226)" stroke-width="1" opacity="1" d="M 10.5 12 L 11.5 14 L 9.5 15 L 10 13.5 L 10.5 12 Z " /><path fill="rgb(214,205,205)" stroke="rgb(214,205,205)" stroke-width="1" opacity="1" d="M 6.5 20 L 5.5 22 L 6.5 20 Z " /><path fill="rgb(214,205,205)" stroke="rgb(214,205,205)" stroke-width="1" opacity="1" d="M 23.5 22 L 24.5 24 Q 21.7 24.7 23.5 22 Z " /><path fill="rgb(214,205,205)" stroke="rgb(214,205,205)" stroke-width="1" opacity="1" d="M 27.5 25 L 28 27 L 25 26.5 L 27.5 25 Z " /><path fill="rgb(214,205,205)" stroke="rgb(214,205,205)" stroke-width="1" opacity="1" d="M 22.5 26 L 24 26.5 L 21.5 28 L 22.5 26 Z " /><path fill="rgb(214,205,205)" stroke="rgb(214,205,205)" stroke-width="1" opacity="1" d="M 3.5 28 L 5 28.5 L 3 29.5 L 5 30 L 4 33.5 L 5.5 33 L 7 33.5 L 5 34 Q 6.5 37.8 3.5 37 L 2 37.5 L 3 30.5 Q 0.7 29.3 3.5 28 Z " /><path fill="rgb(214,205,205)" stroke="rgb(214,205,205)" stroke-width="1" opacity="1" d="M 26 28 Q 28.7 26.9 28 29.5 L 27.5 32 L 25 30.5 L 26 28 Z " /><path fill="rgb(214,205,205)" stroke="rgb(214,205,205)" stroke-width="1" opacity="1" d="M 21.5 29 L 21 30.5 Q 21.8 32.8 19.5 32 L 21.5 29 Z " /><path fill="rgb(214,205,205)" stroke="rgb(214,205,205)" stroke-width="1" opacity="1" d="M 10.5 30 L 11 32 L 9 31.5 L 10.5 30 Z " /><path fill="rgb(214,205,205)" stroke="rgb(214,205,205)" stroke-width="1" opacity="1" d="M 22.5 32 L 23 34 Q 25.7 35.1 25 32.5 L 27 33.5 Q 23.9 35.3 25.5 37 Q 23.3 36.3 24 38.5 Q 21.3 39.8 21.5 44 L 20.5 42 L 19.5 44 L 18.5 42 Q 20.8 42.8 20 40.5 L 18 40.5 L 18 38.5 L 18.5 36 L 21.5 40 L 23 37.5 L 22.5 36 L 24 36.5 Q 24.7 33.9 22 35 L 22.5 32 Z " /><path fill="rgb(214,205,205)" stroke="rgb(214,205,205)" stroke-width="1" opacity="1" d="M 6.5 37 L 9 38.5 L 9 40.5 L 10 42.5 L 7 43.5 L 7.5 45 Q 5.3 45.8 6 43.5 L 8 40.5 L 7.5 38 L 6.5 37 Z " /><path fill="rgb(214,205,205)" stroke="rgb(214,205,205)" stroke-width="1" opacity="1" d="M 2.5 42 L 3 46.5 L 2 46.5 L 2.5 42 Z " /><path fill="rgb(214,205,205)" stroke="rgb(214,205,205)" stroke-width="1" opacity="1" d="M 17.5 44 L 21 46.5 L 19.5 48 L 17 47.5 L 18 45.5 L 17.5 44 Z " /><path fill="rgb(214,205,205)" stroke="rgb(214,205,205)" stroke-width="1" opacity="1" d="M 23.5 45 L 25.5 46 L 27 45.5 Q 26.3 47.8 22.5 47 L 23.5 45 Z " /><path fill="rgb(214,205,205)" stroke="rgb(214,205,205)" stroke-width="1" opacity="1" d="M 7.5 46 L 10 46.5 L 7.5 47 L 7.5 46 Z " /><path fill="rgb(131,110,115)" stroke="rgb(131,110,115)" stroke-width="1" opacity="1" d="M 7.5 1 L 12 1.5 L 7.5 2 L 7.5 1 Z " /><path fill="rgb(131,110,115)" stroke="rgb(131,110,115)" stroke-width="1" opacity="1" d="M 14.5 1 L 17 1.5 L 15.5 4 L 14.5 1 Z " /><path fill="rgb(131,110,115)" stroke="rgb(131,110,115)" stroke-width="1" opacity="1" d="M 20.5 1 L 24 1.5 L 20.5 2 L 20.5 1 Z " /><path fill="rgb(131,110,115)" stroke="rgb(131,110,115)" stroke-width="1" opacity="1" d="M 13.5 10 L 14.5 12 L 13.5 10 Z " /><path fill="rgb(131,110,115)" stroke="rgb(131,110,115)" stroke-width="1" opacity="1" d="M 19.5 16 L 19 17.5 L 17.5 21 L 18 19.5 L 19.5 16 Z " /><path fill="rgb(131,110,115)" stroke="rgb(131,110,115)" stroke-width="1" opacity="1" d="M 21.5 17 Q 23.8 16.3 23 18.5 L 21.5 17 Z " /><path fill="rgb(131,110,115)" stroke="rgb(131,110,115)" stroke-width="1" opacity="1" d="M 11.5 18 L 11.5 20 Q 14.1 19.3 13 22 Q 10.3 23.1 11 20.5 Q 8.7 19.2 11.5 18 Z " /><path fill="rgb(131,110,115)" stroke="rgb(131,110,115)" stroke-width="1" opacity="1" d="M 14.5 18 L 15.5 20 Q 12.7 20.7 14.5 18 Z " /><path fill="rgb(131,110,115)" stroke="rgb(131,110,115)" stroke-width="1" opacity="1" d="M 24.5 24 L 25.5 26 L 24.5 24 Z " /><path fill="rgb(131,110,115)" stroke="rgb(131,110,115)" stroke-width="1" opacity="1" d="M 25.5 27 L 24.5 29 L 25.5 27 Z " /><path fill="rgb(131,110,115)" stroke="rgb(131,110,115)" stroke-width="1" opacity="1" d="M 7.5 31 L 6.5 33 L 7.5 31 Z " /><path fill="rgb(131,110,115)" stroke="rgb(131,110,115)" stroke-width="1" opacity="1" d="M 12.5 31 L 13 33.5 L 11.5 35 L 11 32.5 L 12.5 31 Z " /><path fill="rgb(131,110,115)" stroke="rgb(131,110,115)" stroke-width="1" opacity="1" d="M 16.5 32 L 17.5 34 L 16.5 32 Z " /><path fill="rgb(131,110,115)" stroke="rgb(131,110,115)" stroke-width="1" opacity="1" d="M 12.5 48 L 15 48.5 L 12.5 49 L 12.5 48 Z " /><path fill="rgb(86,67,73)" stroke="rgb(86,67,73)" stroke-width="1" opacity="1" d="M 24.5 1 L 28 1.5 L 24.5 2 L 24.5 1 Z " /><path fill="rgb(86,67,73)" stroke="rgb(86,67,73)" stroke-width="1" opacity="1" d="M 13.5 9 L 17 9.5 L 14.5 11 L 13.5 9 Z " /><path fill="rgb(86,67,73)" stroke="rgb(86,67,73)" stroke-width="1" opacity="1" d="M 9.5 13 L 9.5 15 L 11 15.5 L 7.5 17 L 7.5 16 L 9 15.5 Q 6.8 14.3 9.5 13 Z " /><path fill="rgb(86,67,73)" stroke="rgb(86,67,73)" stroke-width="1" opacity="1" d="M 11.5 17 L 10.5 19 L 11.5 17 Z " /><path fill="rgb(86,67,73)" stroke="rgb(86,67,73)" stroke-width="1" opacity="1" d="M 17.5 19 L 18.5 21 L 17.5 19 Z " /><path fill="rgb(86,67,73)" stroke="rgb(86,67,73)" stroke-width="1" opacity="1" d="M 22.5 19 L 23.5 21 L 21 20.5 L 22.5 19 Z " /><path fill="rgb(86,67,73)" stroke="rgb(86,67,73)" stroke-width="1" opacity="1" d="M 2.5 48 L 11 48.5 L 2.5 49 L 2.5 48 Z " /><path fill="rgb(187,184,186)" stroke="rgb(187,184,186)" stroke-width="1" opacity="1" d="M 6.5 10 L 7.5 12 L 6.5 10 Z " /><path fill="rgb(187,184,186)" stroke="rgb(187,184,186)" stroke-width="1" opacity="1" d="M 10.5 10 L 9.5 12 L 10.5 10 Z " /><path fill="rgb(187,184,186)" stroke="rgb(187,184,186)" stroke-width="1" opacity="1" d="M 7.5 14 L 8.5 16 L 7.5 14 Z " /><path fill="rgb(187,184,186)" stroke="rgb(187,184,186)" stroke-width="1" opacity="1" d="M 4.5 19 L 6.5 22 Q 4.7 18.9 3 20.5 L 4.5 19 Z " /><path fill="rgb(187,184,186)" stroke="rgb(187,184,186)" stroke-width="1" opacity="1" d="M 3 23 L 6 24.5 L 3 24.5 L 3 23 Z " /><path fill="rgb(187,184,186)" stroke="rgb(187,184,186)" stroke-width="1" opacity="1" d="M 16 37 Q 19 36 18 39 Q 15 40 16 37 Z " /><path fill="rgb(209,200,200)" stroke="rgb(209,200,200)" stroke-width="1" opacity="1" d="M 4.5 26 L 3.5 28 L 4.5 26 Z " /><path fill="rgb(209,200,200)" stroke="rgb(209,200,200)" stroke-width="1" opacity="1" d="M 6.5 26 L 7 27.5 L 5 28.5 L 6.5 26 Z " /><path fill="rgb(209,200,200)" stroke="rgb(209,200,200)" stroke-width="1" opacity="1" d="M 4.5 39 Q 7.5 40.5 4.5 42 L 4.5 39 Z " /><path fill="rgb(209,200,200)" stroke="rgb(209,200,200)" stroke-width="1" opacity="1" d="M 26.5 39 Q 29.3 40.3 27 41.5 Q 27.7 44.5 24 43 L 24 41 Q 26.8 42 26.5 39 Z " /><path fill="rgb(209,200,200)" stroke="rgb(209,200,200)" stroke-width="1" opacity="1" d="M 9.5 40 L 12 41.5 L 11 43.5 Q 14.5 45 12 46.5 Q 12.8 48.8 10.5 48 L 12 45.5 L 10 43.5 L 9.5 40 Z " /><path fill="rgb(209,200,200)" stroke="rgb(209,200,200)" stroke-width="1" opacity="1" d="M 16.5 41 L 15.5 44 Q 17.8 43.3 17 45.5 L 14 47.5 L 15 44.5 Q 12.3 42.8 16.5 41 Z " /><path fill="rgb(209,200,200)" stroke="rgb(209,200,200)" stroke-width="1" opacity="1" d="M 8.5 44 L 9.5 46 L 8.5 44 Z " /><path fill="rgb(217,3,13)" stroke="rgb(217,3,13)" stroke-width="1" opacity="1" d="M 9.5 18 L 11 22 Q 13.7 23.1 13 20.5 L 12 18 L 14 18 L 14 23 L 15.5 23 L 19 20.5 L 20.5 18 L 22 23.5 L 16.5 32 Q 11.8 31.8 10 28.5 Q 7.2 25.8 8 19.5 L 9.5 18 Z " /><path fill="rgb(217,3,13)" stroke="rgb(217,3,13)" stroke-width="1" opacity="1" d="M 16 18 L 18 18.5 L 16.5 21 L 16 18 Z " /><path fill="rgb(148,137,140)" stroke="rgb(148,137,140)" stroke-width="1" opacity="1" d="M 3.5 1 L 7 1.5 L 3.5 2 L 3.5 1 Z " /><path fill="rgb(148,137,140)" stroke="rgb(148,137,140)" stroke-width="1" opacity="1" d="M 12.5 1 Q 15.1 0.2 14 3.5 L 13 3.5 L 12.5 1 Z " /><path fill="rgb(148,137,140)" stroke="rgb(148,137,140)" stroke-width="1" opacity="1" d="M 17.5 1 L 20 1.5 L 17.5 2 L 17.5 1 Z " /><path fill="rgb(148,137,140)" stroke="rgb(148,137,140)" stroke-width="1" opacity="1" d="M 14.5 6 L 15.5 8 Q 12.7 8.7 14.5 6 Z " /><path fill="rgb(148,137,140)" stroke="rgb(148,137,140)" stroke-width="1" opacity="1" d="M 17.5 9 L 16.5 11 L 15 10.5 L 17.5 9 Z " /><path fill="rgb(148,137,140)" stroke="rgb(148,137,140)" stroke-width="1" opacity="1" d="M 11.5 11 L 14 11.5 Q 11.9 14.8 11.5 11 Z " /><path fill="rgb(148,137,140)" stroke="rgb(148,137,140)" stroke-width="1" opacity="1" d="M 9.5 16 L 10.5 18 L 9.5 16 Z " /><path fill="rgb(148,137,140)" stroke="rgb(148,137,140)" stroke-width="1" opacity="1" d="M 4.5 18 L 5.5 20 L 4.5 18 Z " /><path fill="rgb(148,137,140)" stroke="rgb(148,137,140)" stroke-width="1" opacity="1" d="M 14 20 L 18 21.5 L 14 22 L 14 20 Z " /><path fill="rgb(148,137,140)" stroke="rgb(148,137,140)" stroke-width="1" opacity="1" d="M 9.5 28 L 11.5 31 L 9.5 28 Z " /><path fill="rgb(148,137,140)" stroke="rgb(148,137,140)" stroke-width="1" opacity="1" d="M 19.5 29 L 18.5 31 L 19.5 29 Z " /><path fill="rgb(148,137,140)" stroke="rgb(148,137,140)" stroke-width="1" opacity="1" d="M 9.5 43 L 10.5 45 L 9.5 43 Z " /><path fill="rgb(217,209,208)" stroke="rgb(217,209,208)" stroke-width="1" opacity="1" d="M 11.5 12 L 12.5 14 L 11.5 12 Z " /><path fill="rgb(217,209,208)" stroke="rgb(217,209,208)" stroke-width="1" opacity="1" d="M 14.5 14 L 16 15.5 L 15.5 18 L 14 16.5 L 14.5 14 Z " /><path fill="rgb(217,209,208)" stroke="rgb(217,209,208)" stroke-width="1" opacity="1" d="M 7.5 17 L 8 19 L 6 18.5 L 7.5 17 Z " /><path fill="rgb(217,209,208)" stroke="rgb(217,209,208)" stroke-width="1" opacity="1" d="M 23.5 24 L 22.5 26 L 23.5 24 Z " /><path fill="rgb(217,209,208)" stroke="rgb(217,209,208)" stroke-width="1" opacity="1" d="M 4.5 27 L 10 29.5 L 9.5 31 L 8.5 29 L 6 30 Q 7.1 27.3 4.5 28 L 4.5 27 Z " /><path fill="rgb(217,209,208)" stroke="rgb(217,209,208)" stroke-width="1" opacity="1" d="M 21 30 Q 24 29 23 32 L 21 32.5 L 22 35 Q 24.7 33.9 24 36.5 L 22.5 36 L 20 34.5 L 19 32.5 L 21 32 L 21 30 Z " /><path fill="rgb(217,209,208)" stroke="rgb(217,209,208)" stroke-width="1" opacity="1" d="M 24.5 30 L 27 31 L 26.5 33 L 24.5 30 Z " /><path fill="rgb(217,209,208)" stroke="rgb(217,209,208)" stroke-width="1" opacity="1" d="M 8.5 32 Q 10.8 31.3 10 33.5 L 6 35 L 5.5 37 L 5 34 L 8.5 32 Z " /><path fill="rgb(217,209,208)" stroke="rgb(217,209,208)" stroke-width="1" opacity="1" d="M 6 38 L 8 38.5 L 8 40.5 L 7.5 42 L 6 38 Z " /><path fill="rgb(217,209,208)" stroke="rgb(217,209,208)" stroke-width="1" opacity="1" d="M 19.5 40 L 18.5 42 L 19.5 40 Z " /><path fill="rgb(217,209,208)" stroke="rgb(217,209,208)" stroke-width="1" opacity="1" d="M 18.5 43 L 19.5 45 Q 16.7 45.7 18.5 43 Z " /><path fill="rgb(205,196,197)" stroke="rgb(205,196,197)" stroke-width="1" opacity="1" d="M 5.5 39 L 6.5 41 L 5.5 39 Z " /><path fill="rgb(205,196,197)" stroke="rgb(205,196,197)" stroke-width="1" opacity="1" d="M 27.5 41 L 28 43.5 L 27 43.5 L 27.5 41 Z " /><path fill="rgb(205,196,197)" stroke="rgb(205,196,197)" stroke-width="1" opacity="1" d="M 4.5 42 L 6 42.5 L 3.5 44 L 4.5 42 Z " /><path fill="rgb(205,196,197)" stroke="rgb(205,196,197)" stroke-width="1" opacity="1" d="M 16.5 46 L 17 48 L 15 47.5 L 16.5 46 Z " /><path fill="rgb(199,191,193)" stroke="rgb(199,191,193)" stroke-width="1" opacity="1" d="M 12.5 15 L 15 15.5 L 14.5 18 L 12.5 15 Z " /><path fill="rgb(199,191,193)" stroke="rgb(199,191,193)" stroke-width="1" opacity="1" d="M 23.5 18 L 25 20.5 L 23 19.5 L 23.5 18 Z " /><path fill="rgb(199,191,193)" stroke="rgb(199,191,193)" stroke-width="1" opacity="1" d="M 26.5 23 L 26.5 26 Q 23.5 24.5 26.5 23 Z " /><path fill="rgb(199,191,193)" stroke="rgb(199,191,193)" stroke-width="1" opacity="1" d="M 26.5 27 L 25.5 29 L 26.5 27 Z " /><path fill="rgb(199,191,193)" stroke="rgb(199,191,193)" stroke-width="1" opacity="1" d="M 7.5 35 L 6.5 37 L 7.5 35 Z " /><path fill="rgb(213,204,202)" stroke="rgb(213,204,202)" stroke-width="1" opacity="1" d="M 21.5 36 L 23 39 L 26.5 38 L 26.5 39 Q 24.3 38.3 25 40.5 L 23 40.5 L 24 43.5 L 20 45 L 19 41.5 L 21 42.5 L 21.5 44 L 22 40.5 L 22 38.5 L 21.5 36 Z " /><path fill="rgb(213,204,202)" stroke="rgb(213,204,202)" stroke-width="1" opacity="1" d="M 12.5 41 L 15 42.5 L 13 43.5 Q 16.5 45 14 46.5 L 13.5 48 L 12 43.5 L 12.5 41 Z " /><path fill="rgb(213,204,202)" stroke="rgb(213,204,202)" stroke-width="1" opacity="1" d="M 17.5 41 L 18 43.5 L 17 43.5 L 17.5 41 Z " /><path fill="rgb(213,204,202)" stroke="rgb(213,204,202)" stroke-width="1" opacity="1" d="M 6.5 45 L 9 45.5 L 6.5 46 L 6.5 45 Z " /><path fill="rgb(213,204,202)" stroke="rgb(213,204,202)" stroke-width="1" opacity="1" d="M 21.5 46 L 22.5 48 L 20 47.5 L 21.5 46 Z " /><path fill="rgb(213,204,202)" stroke="rgb(213,204,202)" stroke-width="1" opacity="1" d="M 6.5 47 L 9 47.5 L 6.5 48 L 6.5 47 Z " /><path fill="rgb(211,202,201)" stroke="rgb(211,202,201)" stroke-width="1" opacity="1" d="M 13.5 34 L 14 37 L 9.5 39 L 10.5 37 Q 12.8 37.8 12 35.5 L 13.5 34 Z " /><path fill="rgb(211,202,201)" stroke="rgb(211,202,201)" stroke-width="1" opacity="1" d="M 25.5 35 L 28 36.5 L 25 38.5 L 25.5 40 L 24 37 L 26 36.5 L 25.5 35 Z " /><path fill="rgb(211,202,201)" stroke="rgb(211,202,201)" stroke-width="1" opacity="1" d="M 3.5 37 L 5 40.5 L 3.5 43 L 2 39.5 L 3.5 37 Z " /><path fill="rgb(211,202,201)" stroke="rgb(211,202,201)" stroke-width="1" opacity="1" d="M 16.5 39 L 17.5 41 L 16.5 39 Z " /><path fill="rgb(211,202,201)" stroke="rgb(211,202,201)" stroke-width="1" opacity="1" d="M 23.5 40 L 24 42.5 L 23 42.5 L 23.5 40 Z " /><path fill="rgb(211,202,201)" stroke="rgb(211,202,201)" stroke-width="1" opacity="1" d="M 12.5 42 L 14.5 45 Q 13.3 42.8 12 45.5 L 13 47.5 L 12 47.5 L 11.5 46 L 9 47.5 L 12 44.5 Q 9.8 43.3 12.5 42 Z " /><path fill="rgb(211,202,201)" stroke="rgb(211,202,201)" stroke-width="1" opacity="1" d="M 3.5 45 L 4 47.5 L 3 47.5 L 3.5 45 Z " /><path fill="rgb(211,202,201)" stroke="rgb(211,202,201)" stroke-width="1" opacity="1" d="M 24.5 45 L 28 46.5 L 26.5 47 L 24.5 45 Z " /></svg>