<svg width="30" height="50" version="1.1" xmlns="http://www.w3.org/2000/svg" desc="Created with imagetracer.js version 1.2.6" ><path fill="rgb(27,19,10)" stroke="rgb(27,19,10)" stroke-width="1" opacity="1" d="M 4 3 Q 8.1 1.3 7 5.5 L 6 7.5 L 7 11.5 L 6 11.5 L 5 6.5 L 6 4.5 L 4 4.5 L 4 3 Z " /><path fill="rgb(27,19,10)" stroke="rgb(27,19,10)" stroke-width="1" opacity="1" d="M 6.5 13 L 7 15 L 9 15.5 L 6 16 L 6.5 13 Z " /><path fill="rgb(27,19,10)" stroke="rgb(27,19,10)" stroke-width="1" opacity="1" d="M 2.5 16 L 3.5 18 Q 0.7 18.7 2.5 16 Z " /><path fill="rgb(27,19,10)" stroke="rgb(27,19,10)" stroke-width="1" opacity="1" d="M 7.5 17 L 10 17.5 L 7.5 18 L 7.5 17 Z " /><path fill="rgb(27,19,10)" stroke="rgb(27,19,10)" stroke-width="1" opacity="1" d="M 5.5 33 L 11 33.5 L 7.5 35 L 6 34.5 Q 6.8 36.8 4.5 36 L 2 34.5 L 5.5 33 Z " /><path fill="rgb(27,19,10)" stroke="rgb(27,19,10)" stroke-width="1" opacity="1" d="M 15 33 L 17 33.5 Q 14.7 34.8 17.5 36 L 19 36.5 L 17.5 37 L 11 35.5 L 15 35 L 15 33 Z " /><path fill="rgb(27,19,10)" stroke="rgb(27,19,10)" stroke-width="1" opacity="1" d="M 23.5 35 L 28 35.5 L 28 37.5 L 27.5 41 L 26.5 40 L 7.5 40 L 2 38.5 L 27 37.5 L 23 37 L 23.5 35 Z " /><path fill="rgb(153,144,141)" stroke="rgb(153,144,141)" stroke-width="1" opacity="1" d="M 9.5 1 L 10 5.5 L 9 5.5 L 9.5 1 Z " /><path fill="rgb(153,144,141)" stroke="rgb(153,144,141)" stroke-width="1" opacity="1" d="M 12.5 3 L 12 4.5 L 11.5 7 L 11 4.5 L 12.5 3 Z " /><path fill="rgb(153,144,141)" stroke="rgb(153,144,141)" stroke-width="1" opacity="1" d="M 13.5 8 L 14 15.5 L 12 14.5 L 13 12.5 L 12 10.5 L 13.5 8 Z " /><path fill="rgb(153,144,141)" stroke="rgb(153,144,141)" stroke-width="1" opacity="1" d="M 17.5 9 L 17 10.5 L 17 26.5 L 18 27.5 L 15.5 28 Q 12.5 28.9 14 24.5 L 15 24.5 L 15.5 26 L 16 10.5 L 17.5 9 Z " /><path fill="rgb(153,144,141)" stroke="rgb(153,144,141)" stroke-width="1" opacity="1" d="M 13.5 22 L 12.5 24 L 13.5 22 Z " /><path fill="rgb(153,144,141)" stroke="rgb(153,144,141)" stroke-width="1" opacity="1" d="M 20.5 22 L 21 25.5 L 20 25.5 L 20.5 22 Z " /><path fill="rgb(153,144,141)" stroke="rgb(153,144,141)" stroke-width="1" opacity="1" d="M 16.5 29 L 15.5 31 L 16.5 29 Z " /><path fill="rgb(153,144,141)" stroke="rgb(153,144,141)" stroke-width="1" opacity="1" d="M 15.5 47 L 19 47.5 L 15.5 48 L 15.5 47 Z " /><path fill="rgb(252,250,250)" stroke="rgb(252,250,250)" stroke-width="1" opacity="1" d="M 0 0 L 30 0 L 30 50 L 0 50 L 0 0 Z M 2 1 L 2 3 L 1 7 L 2 11 L 2 13 L 1 17 L 2 19 L 2 34 L 2 36 L 1 40 L 2 43 L 1 48 L 3 49 L 28 49 L 28 42 L 29 41 Q 31 35 28 34 Q 30 26 26 27 L 26 13 L 28 12 L 28 1 L 2 1 Z M 28 22 L 27 25 L 28 25 L 28 22 Z " /><path fill="rgb(252,250,250)" stroke="rgb(252,250,250)" stroke-width="1" opacity="1" d="M 22 4 Q 24.7 2.9 24 5.5 L 24.5 7 L 22 6 L 22 4 Z " /><path fill="rgb(252,250,250)" stroke="rgb(252,250,250)" stroke-width="1" opacity="1" d="M 23.5 10 L 24 22.5 L 24 24.5 Q 25 28.3 22 27 L 23 21.5 L 22 20.5 L 22 11.5 L 23.5 10 Z " /><path fill="rgb(196,189,186)" stroke="rgb(196,189,186)" stroke-width="1" opacity="1" d="M 16.5 5 L 17.5 7 L 16.5 5 Z " /><path fill="rgb(196,189,186)" stroke="rgb(196,189,186)" stroke-width="1" opacity="1" d="M 20.5 8 L 22 9.5 L 22 23.5 L 21 23.5 L 21 9.5 L 20.5 8 Z " /><path fill="rgb(196,189,186)" stroke="rgb(196,189,186)" stroke-width="1" opacity="1" d="M 3.5 11 L 5 14 L 3 13.5 L 3.5 11 Z " /><path fill="rgb(196,189,186)" stroke="rgb(196,189,186)" stroke-width="1" opacity="1" d="M 24.5 12 L 25 14.5 L 24 14.5 L 24.5 12 Z " /><path fill="rgb(196,189,186)" stroke="rgb(196,189,186)" stroke-width="1" opacity="1" d="M 14.5 21 Q 16.8 20.3 16 22.5 L 14.5 21 Z " /><path fill="rgb(196,189,186)" stroke="rgb(196,189,186)" stroke-width="1" opacity="1" d="M 21.5 26 L 27 27.5 L 22.5 28 L 21.5 26 Z " /><path fill="rgb(229,219,207)" stroke="rgb(229,219,207)" stroke-width="1" opacity="1" d="M 19.5 1 L 21.5 1 Q 26.8 -0.3 28 2.5 L 26 3.5 L 25.5 2 L 25 4 L 23 3.5 L 23.5 2 L 21 2.5 L 21.5 4 Q 15.7 5.7 17 2 L 19.5 1 Z " /><path fill="rgb(229,219,207)" stroke="rgb(229,219,207)" stroke-width="1" opacity="1" d="M 14.5 4 L 16 6.5 L 15 7.5 L 15 17.5 L 16 19.5 L 15 19.5 L 14 17.5 L 14.5 4 Z " /><path fill="rgb(229,219,207)" stroke="rgb(229,219,207)" stroke-width="1" opacity="1" d="M 4 18 L 11.5 18 L 12 19.5 L 10.5 19 L 8 19.5 L 8.5 23 L 2 23 L 2 19.5 L 4 19.5 L 4 18 Z " /><path fill="rgb(229,219,207)" stroke="rgb(229,219,207)" stroke-width="1" opacity="1" d="M 19.5 27 L 23 28 L 21.5 31 Q 18.9 31.8 20 28.5 L 19.5 27 Z " /><path fill="rgb(229,219,207)" stroke="rgb(229,219,207)" stroke-width="1" opacity="1" d="M 15.5 28 L 16 29.5 Q 14.8 32.3 13.5 30 L 12 29.5 L 13.5 29 L 15 29.5 L 15.5 28 Z " /><path fill="rgb(120,112,115)" stroke="rgb(120,112,115)" stroke-width="1" opacity="1" d="M 13.5 2 L 16 3.5 L 14.5 4 L 13.5 2 Z " /><path fill="rgb(120,112,115)" stroke="rgb(120,112,115)" stroke-width="1" opacity="1" d="M 8.5 5 L 9 6.5 L 7 7.5 L 8.5 5 Z " /><path fill="rgb(120,112,115)" stroke="rgb(120,112,115)" stroke-width="1" opacity="1" d="M 10.5 6 L 12 7.5 L 12 17.5 L 10 16.5 L 11 15.5 L 11 7.5 L 10.5 6 Z " /><path fill="rgb(120,112,115)" stroke="rgb(120,112,115)" stroke-width="1" opacity="1" d="M 20.5 12 L 21 19.5 L 20 19.5 L 20.5 12 Z " /><path fill="rgb(239,232,232)" stroke="rgb(239,232,232)" stroke-width="1" opacity="1" d="M 21.5 2 L 24 2.5 L 20 5 Q 21 8 18 7 Q 19.1 4.3 16.5 5 L 15 5.5 Q 14.5 2.5 21.5 4 L 21.5 2 Z " /><path fill="rgb(239,232,232)" stroke="rgb(239,232,232)" stroke-width="1" opacity="1" d="M 25.5 2 L 26.5 5 L 28 4.5 Q 29.4 13.3 26 12.5 L 26 26.5 L 25 26.5 L 25.5 10 L 27 10.5 L 26 8.5 L 26.5 7 Q 24.3 7.8 25 5.5 L 25 3.5 L 25.5 2 Z " /><path fill="rgb(239,232,232)" stroke="rgb(239,232,232)" stroke-width="1" opacity="1" d="M 17.5 8 L 20 9.5 L 20 26.5 L 18 27 L 18 9.5 L 17.5 8 Z " /><path fill="rgb(239,232,232)" stroke="rgb(239,232,232)" stroke-width="1" opacity="1" d="M 22 8 Q 24.7 6.9 24 9.5 L 22 10.5 L 22 8 Z " /><path fill="rgb(239,232,232)" stroke="rgb(239,232,232)" stroke-width="1" opacity="1" d="M 15.5 9 L 16 17.5 L 15 17.5 L 15.5 9 Z " /><path fill="rgb(239,232,232)" stroke="rgb(239,232,232)" stroke-width="1" opacity="1" d="M 1.5 16 L 2 18 Q 4.7 16.9 4 19.5 L 1 17.5 L 1.5 16 Z " /><path fill="rgb(239,232,232)" stroke="rgb(239,232,232)" stroke-width="1" opacity="1" d="M 8.5 19 Q 12.3 17.8 11 21.5 L 11.5 23 L 8 21.5 L 8.5 19 Z " /><path fill="rgb(239,232,232)" stroke="rgb(239,232,232)" stroke-width="1" opacity="1" d="M 27.5 22 L 28 24.5 L 27 24.5 L 27.5 22 Z " /><path fill="rgb(239,232,232)" stroke="rgb(239,232,232)" stroke-width="1" opacity="1" d="M 23.5 28 L 25.5 28 Q 28.8 26.9 28 29.5 Q 27 32 22.5 31 L 23 29.5 L 23.5 28 Z " /><path fill="rgb(239,232,232)" stroke="rgb(239,232,232)" stroke-width="1" opacity="1" d="M 28.5 34 L 29 40.5 L 28 40.5 L 28.5 34 Z " /><path fill="rgb(239,232,232)" stroke="rgb(239,232,232)" stroke-width="1" opacity="1" d="M 1.5 37 L 2 39.5 L 1 39.5 L 1.5 37 Z " /><path fill="rgb(176,169,170)" stroke="rgb(176,169,170)" stroke-width="1" opacity="1" d="M 11.5 1 L 14 1.5 L 11.5 2 L 11.5 1 Z " /><path fill="rgb(176,169,170)" stroke="rgb(176,169,170)" stroke-width="1" opacity="1" d="M 13.5 4 L 14 7.5 L 12.5 10 L 12 5.5 L 13.5 4 Z " /><path fill="rgb(176,169,170)" stroke="rgb(176,169,170)" stroke-width="1" opacity="1" d="M 3.5 5 L 4.5 7 L 3.5 5 Z " /><path fill="rgb(176,169,170)" stroke="rgb(176,169,170)" stroke-width="1" opacity="1" d="M 5.5 9 L 6 11.5 L 5 11.5 L 5.5 9 Z " /><path fill="rgb(176,169,170)" stroke="rgb(176,169,170)" stroke-width="1" opacity="1" d="M 17.5 10 L 18 26.5 L 20 28.5 L 17 26.5 L 17.5 10 Z " /><path fill="rgb(176,169,170)" stroke="rgb(176,169,170)" stroke-width="1" opacity="1" d="M 12.5 15 L 14 18.5 L 16 25.5 L 15 25.5 L 13.5 22 L 12 22.5 L 13 20.5 Q 10.7 19.1 12.5 15 Z " /><path fill="rgb(176,169,170)" stroke="rgb(176,169,170)" stroke-width="1" opacity="1" d="M 24.5 18 L 25 20.5 L 24 20.5 L 24.5 18 Z " /><path fill="rgb(213,205,203)" stroke="rgb(213,205,203)" stroke-width="1" opacity="1" d="M 15.5 1 L 19 1.5 L 15.5 2 L 15.5 1 Z " /><path fill="rgb(213,205,203)" stroke="rgb(213,205,203)" stroke-width="1" opacity="1" d="M 20.5 5 L 21.5 7 L 20.5 5 Z " /><path fill="rgb(213,205,203)" stroke="rgb(213,205,203)" stroke-width="1" opacity="1" d="M 2.5 7 Q 5.5 8.5 2.5 10 L 2.5 7 Z " /><path fill="rgb(213,205,203)" stroke="rgb(213,205,203)" stroke-width="1" opacity="1" d="M 25.5 8 L 26 9.5 L 24.5 12 L 24 10.5 L 25.5 8 Z " /><path fill="rgb(213,205,203)" stroke="rgb(213,205,203)" stroke-width="1" opacity="1" d="M 14.5 18 L 16 20.5 L 14 21 L 14.5 18 Z " /><path fill="rgb(213,205,203)" stroke="rgb(213,205,203)" stroke-width="1" opacity="1" d="M 2 23 L 11.5 23 L 12 25 L 13.5 25 Q 11.9 26.8 15 28.5 L 13.5 31 Q 5.3 29.9 2 32 L 2 23 Z " /><path fill="rgb(227,210,136)" stroke="rgb(227,210,136)" stroke-width="1" opacity="1" d="M 25.5 41 L 28 41.5 L 25.5 42 L 25.5 41 Z " /><path fill="rgb(227,210,136)" stroke="rgb(227,210,136)" stroke-width="1" opacity="1" d="M 13.5 48 L 16 48.5 L 13.5 49 L 13.5 48 Z " /><path fill="rgb(133,114,53)" stroke="rgb(133,114,53)" stroke-width="1" opacity="1" d="M 7.5 12 Q 9.8 11.3 9 13.5 L 7.5 12 Z " /><path fill="rgb(133,114,53)" stroke="rgb(133,114,53)" stroke-width="1" opacity="1" d="M 17.5 30 Q 19.8 29.3 19 31.5 L 17 34.5 L 17.5 38 L 16 36.5 L 17 33.5 L 18 31.5 L 17.5 30 Z " /><path fill="rgb(133,114,53)" stroke="rgb(133,114,53)" stroke-width="1" opacity="1" d="M 10.5 31 Q 15.9 29.1 15 32.5 L 14.5 35 L 13.5 32 L 8.5 33 L 8.5 32 L 10.5 31 Z " /><path fill="rgb(133,114,53)" stroke="rgb(133,114,53)" stroke-width="1" opacity="1" d="M 21.5 32 L 23 34.5 L 22 34.5 L 21.5 32 Z " /><path fill="rgb(133,114,53)" stroke="rgb(133,114,53)" stroke-width="1" opacity="1" d="M 25.5 33 L 24.5 35 L 25.5 33 Z " /><path fill="rgb(133,114,53)" stroke="rgb(133,114,53)" stroke-width="1" opacity="1" d="M 20.5 36 L 22 36.5 L 19.5 38 L 20.5 36 Z " /><path fill="rgb(133,114,53)" stroke="rgb(133,114,53)" stroke-width="1" opacity="1" d="M 6.5 40 Q 11 39 12 41.5 L 7.5 42 L 6.5 40 Z " /><path fill="rgb(133,114,53)" stroke="rgb(133,114,53)" stroke-width="1" opacity="1" d="M 6.5 44 L 9 44.5 L 6.5 45 L 6.5 44 Z " /><path fill="rgb(133,114,53)" stroke="rgb(133,114,53)" stroke-width="1" opacity="1" d="M 26.5 45 Q 29.5 44.2 28 48 L 20 47.5 L 27 46.5 L 26.5 45 Z " /><path fill="rgb(133,114,53)" stroke="rgb(133,114,53)" stroke-width="1" opacity="1" d="M 3.5 47 L 13 47.5 L 3.5 48 L 3.5 47 Z " /><path fill="rgb(249,226,91)" stroke="rgb(249,226,91)" stroke-width="1" opacity="1" d="M 3 14 L 5 14.5 L 3 15.5 L 3 14 Z " /><path fill="rgb(249,226,91)" stroke="rgb(249,226,91)" stroke-width="1" opacity="1" d="M 3.5 32 L 4 34 L 2 33.5 L 3.5 32 Z " /><path fill="rgb(249,226,91)" stroke="rgb(249,226,91)" stroke-width="1" opacity="1" d="M 11.5 32 L 14 32.5 L 11.5 33 L 11.5 32 Z " /><path fill="rgb(249,226,91)" stroke="rgb(249,226,91)" stroke-width="1" opacity="1" d="M 2.5 36 L 16 36.5 L 2.5 37 L 2.5 36 Z " /><path fill="rgb(249,226,91)" stroke="rgb(249,226,91)" stroke-width="1" opacity="1" d="M 2 42 L 22.5 42 L 23.5 43 L 28 42 L 27.5 45 L 25.5 44 L 26 45.5 L 25.5 47 L 2 47 L 2 42 Z M 4 44 L 4 45 L 21 45 L 24 46 L 24 44 L 4 44 Z " /><path fill="rgb(249,226,91)" stroke="rgb(249,226,91)" stroke-width="1" opacity="1" d="M 2.5 48 L 13 48.5 L 2.5 49 L 2.5 48 Z " /><path fill="rgb(249,226,91)" stroke="rgb(249,226,91)" stroke-width="1" opacity="1" d="M 16.5 48 L 27 48.5 L 16.5 49 L 16.5 48 Z " /><path fill="rgb(204,182,74)" stroke="rgb(204,182,74)" stroke-width="1" opacity="1" d="M 5.5 14 L 4.5 16 L 5.5 14 Z " /><path fill="rgb(204,182,74)" stroke="rgb(204,182,74)" stroke-width="1" opacity="1" d="M 9.5 31 L 10.5 33 L 9.5 31 Z " /><path fill="rgb(204,182,74)" stroke="rgb(204,182,74)" stroke-width="1" opacity="1" d="M 23 31 L 26 31.5 L 23.5 33 L 23 31 Z " /><path fill="rgb(204,182,74)" stroke="rgb(204,182,74)" stroke-width="1" opacity="1" d="M 17.5 34 Q 22.3 32.7 21 36 Q 17.2 36.8 17.5 34 Z " /><path fill="rgb(204,182,74)" stroke="rgb(204,182,74)" stroke-width="1" opacity="1" d="M 3.5 40 L 6 40.5 L 3.5 41 L 3.5 40 Z " /><path fill="rgb(204,182,74)" stroke="rgb(204,182,74)" stroke-width="1" opacity="1" d="M 12.5 41 L 25 41.5 Q 23.7 44.3 22.5 42 L 12.5 42 L 12.5 41 Z " /><path fill="rgb(204,182,74)" stroke="rgb(204,182,74)" stroke-width="1" opacity="1" d="M 3.5 44 L 6 44.5 L 3.5 45 L 3.5 44 Z " /><path fill="rgb(204,182,74)" stroke="rgb(204,182,74)" stroke-width="1" opacity="1" d="M 9.5 44 L 22 44.5 L 9.5 45 L 9.5 44 Z " /><path fill="rgb(88,67,62)" stroke="rgb(88,67,62)" stroke-width="1" opacity="1" d="M 2.5 2 L 3.5 4 L 2.5 2 Z " /><path fill="rgb(88,67,62)" stroke="rgb(88,67,62)" stroke-width="1" opacity="1" d="M 10.5 2 L 11 4.5 L 10 4.5 L 10.5 2 Z " /><path fill="rgb(88,67,62)" stroke="rgb(88,67,62)" stroke-width="1" opacity="1" d="M 4.5 5 L 6.5 6 L 8 5.5 Q 8.8 7.8 6.5 7 L 4.5 5 Z " /><path fill="rgb(88,67,62)" stroke="rgb(88,67,62)" stroke-width="1" opacity="1" d="M 7.5 9 L 8.5 11 Q 5.7 11.7 7.5 9 Z " /><path fill="rgb(88,67,62)" stroke="rgb(88,67,62)" stroke-width="1" opacity="1" d="M 7.5 35 L 10 35.5 L 7.5 36 L 7.5 35 Z " /><path fill="rgb(110,65,26)" stroke="rgb(110,65,26)" stroke-width="1" opacity="1" d="M 3.5 6 L 4.5 8 L 3.5 6 Z " /><path fill="rgb(110,65,26)" stroke="rgb(110,65,26)" stroke-width="1" opacity="1" d="M 7.5 11 L 11 12.5 L 11 14.5 Q 11.7 17.1 9 16 L 9 12 L 7.5 12 L 7.5 11 Z " /><path fill="rgb(110,65,26)" stroke="rgb(110,65,26)" stroke-width="1" opacity="1" d="M 2.5 15 L 3.5 17 L 2.5 15 Z " /><path fill="rgb(110,65,26)" stroke="rgb(110,65,26)" stroke-width="1" opacity="1" d="M 20.5 31 L 21 33.5 L 20 33.5 L 20.5 31 Z " /><path fill="rgb(110,65,26)" stroke="rgb(110,65,26)" stroke-width="1" opacity="1" d="M 19.5 36 L 18.5 38 L 19.5 36 Z " /><path fill="rgb(110,65,26)" stroke="rgb(110,65,26)" stroke-width="1" opacity="1" d="M 8.5 37 L 17 37.5 L 8.5 38 L 8.5 37 Z " /><path fill="rgb(110,65,26)" stroke="rgb(110,65,26)" stroke-width="1" opacity="1" d="M 11.5 40 L 20 40.5 L 11.5 41 L 11.5 40 Z " /><path fill="rgb(110,65,26)" stroke="rgb(110,65,26)" stroke-width="1" opacity="1" d="M 3.5 41 L 7 41.5 L 3.5 42 L 3.5 41 Z " /><path fill="rgb(65,46,23)" stroke="rgb(65,46,23)" stroke-width="1" opacity="1" d="M 2.5 6 L 3.5 8 L 2.5 6 Z " /><path fill="rgb(65,46,23)" stroke="rgb(65,46,23)" stroke-width="1" opacity="1" d="M 6.5 7 L 7.5 9 L 6.5 7 Z " /><path fill="rgb(65,46,23)" stroke="rgb(65,46,23)" stroke-width="1" opacity="1" d="M 3.5 9 L 4.5 11 L 3.5 9 Z " /><path fill="rgb(65,46,23)" stroke="rgb(65,46,23)" stroke-width="1" opacity="1" d="M 9 9 L 11 9.5 L 10.5 12 L 9 9 Z " /><path fill="rgb(65,46,23)" stroke="rgb(65,46,23)" stroke-width="1" opacity="1" d="M 6.5 12 L 8 14.5 L 7 14.5 L 6.5 12 Z " /><path fill="rgb(65,46,23)" stroke="rgb(65,46,23)" stroke-width="1" opacity="1" d="M 23 33 L 25 33.5 L 24.5 36 L 23 33 Z " /><path fill="rgb(65,46,23)" stroke="rgb(65,46,23)" stroke-width="1" opacity="1" d="M 9.5 34 L 10.5 36 L 9.5 34 Z " /><path fill="rgb(65,46,23)" stroke="rgb(65,46,23)" stroke-width="1" opacity="1" d="M 27.5 36 L 26.5 38 L 27.5 36 Z " /><path fill="rgb(65,46,23)" stroke="rgb(65,46,23)" stroke-width="1" opacity="1" d="M 2.5 37 L 5 37.5 L 2.5 38 L 2.5 37 Z " /><path fill="rgb(65,46,23)" stroke="rgb(65,46,23)" stroke-width="1" opacity="1" d="M 20.5 40 L 27 40.5 L 20.5 41 L 20.5 40 Z " /></svg>