<svg width="30" height="50" version="1.1" xmlns="http://www.w3.org/2000/svg" desc="Created with imagetracer.js version 1.2.6" ><path fill="rgb(224,224,223)" stroke="rgb(224,224,223)" stroke-width="1" opacity="1" d="M 20.5 2 L 21.5 6 Q 17 4 20.5 2 Z " /><path fill="rgb(224,224,223)" stroke="rgb(224,224,223)" stroke-width="1" opacity="1" d="M 17.5 3 L 16.5 5 L 17.5 3 Z " /><path fill="rgb(224,224,223)" stroke="rgb(224,224,223)" stroke-width="1" opacity="1" d="M 2.5 10 L 4 13.5 L 3 15.5 L 4.5 15 L 6 15.5 L 4 16 L 2.5 20 L 2.5 10 Z " /><path fill="rgb(224,224,223)" stroke="rgb(224,224,223)" stroke-width="1" opacity="1" d="M 20.5 10 L 20 11.5 Q 20.7 14.1 18 13 Q 16.9 10.3 19.5 11 L 20.5 10 Z " /><path fill="rgb(224,224,223)" stroke="rgb(224,224,223)" stroke-width="1" opacity="1" d="M 26.5 18 L 26 19.5 L 25.5 22 L 25 19.5 L 26.5 18 Z " /><path fill="rgb(224,224,223)" stroke="rgb(224,224,223)" stroke-width="1" opacity="1" d="M 4.5 23 L 3.5 25 L 4.5 23 Z " /><path fill="rgb(224,224,223)" stroke="rgb(224,224,223)" stroke-width="1" opacity="1" d="M 5.5 25 L 4.5 27 L 5.5 25 Z " /><path fill="rgb(224,224,223)" stroke="rgb(224,224,223)" stroke-width="1" opacity="1" d="M 10.5 36 L 9.5 38 L 10.5 36 Z " /><path fill="rgb(224,224,223)" stroke="rgb(224,224,223)" stroke-width="1" opacity="1" d="M 2 41 L 8 43.5 L 6.5 44 Q 4.7 40.3 3 43.5 L 4.5 46 L 7.5 45 Q 10.5 46.5 7.5 48 L 7.5 46 Q 4.9 45.3 6 48 L 2 48 L 2 41 Z " /><path fill="rgb(224,224,223)" stroke="rgb(224,224,223)" stroke-width="1" opacity="1" d="M 13.5 41 L 12.5 43 L 11 42.5 L 13.5 41 Z " /><path fill="rgb(252,252,253)" stroke="rgb(252,252,253)" stroke-width="1" opacity="1" d="M 0 0 L 30 0 L 30 50 L 0 50 L 0 0 Z M 2 1 L 2 3 L 2 20 L 2 22 L 1 25 L 2 30 L 2 32 L 1 34 L 2 37 L 1 39 L 2 48 L 2 49 L 29 49 L 28 46 L 28 42 L 29 40 L 29 38 Q 30 33 27 34 L 26 32 L 28 29 Q 29 22 26 20 L 27 18 L 25 18 L 26 11 Q 23 9 25 7 L 22 9 L 23 11 L 22 14 Q 23 16 21 15 L 21 12 Q 22 9 20 10 L 18 13 L 13 12 L 11 12 L 10 9 Q 15 8 18 4 L 19 5 L 18 7 L 22 6 L 21 4 L 23 2 L 29 2 L 2 1 Z M 24 3 L 24 4 L 28 4 L 24 3 Z M 27 5 L 25 7 L 27 7 L 27 5 Z " /><path fill="rgb(252,252,253)" stroke="rgb(252,252,253)" stroke-width="1" opacity="1" d="M 20.5 45 L 21 46.5 L 19 47.5 L 20.5 45 Z " /><path fill="rgb(248,246,248)" stroke="rgb(248,246,248)" stroke-width="1" opacity="1" d="M 15.5 5 L 13.5 8 L 10 9 Q 11.5 12.8 8.5 12 Q 5.5 10.5 8.5 9 L 10 8.5 L 9.5 7 L 11.5 8 L 15.5 5 Z " /><path fill="rgb(248,246,248)" stroke="rgb(248,246,248)" stroke-width="1" opacity="1" d="M 11.5 11 L 12.5 13 Q 9.7 13.7 11.5 11 Z " /><path fill="rgb(248,246,248)" stroke="rgb(248,246,248)" stroke-width="1" opacity="1" d="M 25.5 13 L 24.5 15 L 25.5 13 Z " /><path fill="rgb(248,246,248)" stroke="rgb(248,246,248)" stroke-width="1" opacity="1" d="M 12.5 20 L 16 20.5 L 12.5 21 L 12.5 20 Z " /><path fill="rgb(248,246,248)" stroke="rgb(248,246,248)" stroke-width="1" opacity="1" d="M 11.5 22 L 13 22.5 L 7.5 25 L 8.5 23 L 11.5 22 Z " /><path fill="rgb(248,246,248)" stroke="rgb(248,246,248)" stroke-width="1" opacity="1" d="M 1.5 38 L 2 40.5 L 1 40.5 L 1.5 38 Z " /><path fill="rgb(248,246,248)" stroke="rgb(248,246,248)" stroke-width="1" opacity="1" d="M 19 44 Q 24.2 41.9 23 46.5 L 23.5 48 Q 19.8 48.8 19 46.5 L 19 44 Z " /><path fill="rgb(172,182,186)" stroke="rgb(172,182,186)" stroke-width="1" opacity="1" d="M 11.5 1 L 15 1.5 L 13.5 4 L 13 2 L 11.5 1 Z " /><path fill="rgb(172,182,186)" stroke="rgb(172,182,186)" stroke-width="1" opacity="1" d="M 15.5 3 L 16 4.5 L 12.5 7 L 13.5 5 Q 16 5.7 15.5 3 Z " /><path fill="rgb(172,182,186)" stroke="rgb(172,182,186)" stroke-width="1" opacity="1" d="M 19.5 4 L 20.5 6 L 19.5 4 Z " /><path fill="rgb(172,182,186)" stroke="rgb(172,182,186)" stroke-width="1" opacity="1" d="M 9.5 5 L 11 7.5 L 10 7.5 L 9.5 5 Z " /><path fill="rgb(172,182,186)" stroke="rgb(172,182,186)" stroke-width="1" opacity="1" d="M 23.5 9 L 24.5 11 Q 21.7 11.7 23.5 9 Z " /><path fill="rgb(172,182,186)" stroke="rgb(172,182,186)" stroke-width="1" opacity="1" d="M 15.5 13 L 17 13.5 L 12.5 16 L 13.5 14 L 15.5 13 Z " /><path fill="rgb(172,182,186)" stroke="rgb(172,182,186)" stroke-width="1" opacity="1" d="M 24.5 13 L 23.5 15 L 21.5 16 L 22.5 14 L 24.5 13 Z " /><path fill="rgb(172,182,186)" stroke="rgb(172,182,186)" stroke-width="1" opacity="1" d="M 21.5 17 Q 26 19 22.5 21 L 21.5 17 Z " /><path fill="rgb(172,182,186)" stroke="rgb(172,182,186)" stroke-width="1" opacity="1" d="M 21.5 22 L 20.5 24 L 21.5 22 Z " /><path fill="rgb(172,182,186)" stroke="rgb(172,182,186)" stroke-width="1" opacity="1" d="M 10.5 29 L 13 29.5 L 10.5 30 L 10.5 29 Z " /><path fill="rgb(172,182,186)" stroke="rgb(172,182,186)" stroke-width="1" opacity="1" d="M 3.5 30 L 5 32.5 L 4 32.5 L 3.5 31 L 2 31.5 L 3.5 30 Z " /><path fill="rgb(172,182,186)" stroke="rgb(172,182,186)" stroke-width="1" opacity="1" d="M 16.5 30 Q 19.5 31.5 16.5 33 L 12.5 34 L 12.5 31 L 14.5 32 L 16.5 30 Z " /><path fill="rgb(172,182,186)" stroke="rgb(172,182,186)" stroke-width="1" opacity="1" d="M 11.5 36 L 13.5 37 L 15 36.5 L 14.5 38 L 16 38.5 L 13.5 40 L 11.5 39 L 9.5 40 L 9.5 39 L 11 38.5 Q 8.7 37.3 11.5 36 Z " /><path fill="rgb(172,182,186)" stroke="rgb(172,182,186)" stroke-width="1" opacity="1" d="M 3.5 37 L 4 39 L 2 38.5 L 3.5 37 Z " /><path fill="rgb(172,182,186)" stroke="rgb(172,182,186)" stroke-width="1" opacity="1" d="M 8.5 37 L 8 38.5 L 7.5 40 L 7 38.5 L 8.5 37 Z " /><path fill="rgb(172,182,186)" stroke="rgb(172,182,186)" stroke-width="1" opacity="1" d="M 25.5 38 Q 29.3 37 28 40 L 25.5 38 Z " /><path fill="rgb(172,182,186)" stroke="rgb(172,182,186)" stroke-width="1" opacity="1" d="M 19.5 41 L 18.5 43 L 19.5 41 Z " /><path fill="rgb(172,182,186)" stroke="rgb(172,182,186)" stroke-width="1" opacity="1" d="M 25.5 42 Q 28.1 41.2 27 44.5 L 26 44.5 L 25.5 42 Z " /><path fill="rgb(172,182,186)" stroke="rgb(172,182,186)" stroke-width="1" opacity="1" d="M 3.5 43 L 6 44.5 L 4.5 44 L 3.5 43 Z " /><path fill="rgb(172,182,186)" stroke="rgb(172,182,186)" stroke-width="1" opacity="1" d="M 14.5 43 L 14 44.5 L 13.5 47 L 13 44.5 L 14.5 43 Z " /><path fill="rgb(172,182,186)" stroke="rgb(172,182,186)" stroke-width="1" opacity="1" d="M 16.5 44 Q 19.8 42.9 19 45.5 L 17.5 45 L 16.5 44 Z " /><path fill="rgb(213,248,252)" stroke="rgb(213,248,252)" stroke-width="1" opacity="1" d="M 2 2 L 12.5 2 L 13 3.5 Q 15.3 4.8 12.5 6 L 9 5 L 9 7 Q 6.3 5.9 7 8.5 Q 5.3 6.9 3.5 10 L 2 9.5 L 2 2 Z " /><path fill="rgb(213,248,252)" stroke="rgb(213,248,252)" stroke-width="1" opacity="1" d="M 7.5 13 L 13 14.5 L 12.5 17 L 9 17.5 Q 12.7 19.3 9.5 21 Q 6.9 20.3 8 23 L 4.5 23 L 2 24 Q 2.7 17.1 7.5 13 Z " /><path fill="rgb(213,248,252)" stroke="rgb(213,248,252)" stroke-width="1" opacity="1" d="M 12.5 24 L 14 26.5 L 11 28.5 Q 11.7 25.9 9 27 Q 10.5 31.5 6 30 L 5.5 28 L 4.5 31 L 3.5 29 L 2 29.5 L 3.5 27 L 5.5 26 L 8.5 27 L 12.5 24 Z " /><path fill="rgb(231,249,251)" stroke="rgb(231,249,251)" stroke-width="1" opacity="1" d="M 16 2 L 19 2.5 L 16.5 4 L 16 2 Z " /><path fill="rgb(231,249,251)" stroke="rgb(231,249,251)" stroke-width="1" opacity="1" d="M 18.5 13 L 21 13.5 Q 19.8 16 16 15 L 17 19.5 L 11.5 20 L 9.5 17 L 12.5 17 L 18.5 13 Z " /><path fill="rgb(231,249,251)" stroke="rgb(231,249,251)" stroke-width="1" opacity="1" d="M 26.5 20 L 28 22.5 L 26 23 L 26.5 20 Z " /><path fill="rgb(231,249,251)" stroke="rgb(231,249,251)" stroke-width="1" opacity="1" d="M 13 23 Q 15.7 21.9 15 24.5 L 14.5 27 L 13 23 Z " /><path fill="rgb(231,249,251)" stroke="rgb(231,249,251)" stroke-width="1" opacity="1" d="M 9 27 Q 12 26 11 29 Q 8 30 9 27 Z " /><path fill="rgb(81,77,60)" stroke="rgb(81,77,60)" stroke-width="1" opacity="1" d="M 24.5 12 L 23.5 14 L 24.5 12 Z " /><path fill="rgb(81,77,60)" stroke="rgb(81,77,60)" stroke-width="1" opacity="1" d="M 18.5 27 L 19.5 29 L 17 28.5 L 18.5 27 Z " /><path fill="rgb(81,77,60)" stroke="rgb(81,77,60)" stroke-width="1" opacity="1" d="M 14.5 30 L 13.5 32 L 14.5 30 Z " /><path fill="rgb(81,77,60)" stroke="rgb(81,77,60)" stroke-width="1" opacity="1" d="M 20.5 34 L 23 34.5 L 20.5 35 L 20.5 34 Z " /><path fill="rgb(81,77,60)" stroke="rgb(81,77,60)" stroke-width="1" opacity="1" d="M 24 34 L 26 34.5 L 22.5 37 L 22.5 36 Q 25.1 36.7 24 34 Z " /><path fill="rgb(81,77,60)" stroke="rgb(81,77,60)" stroke-width="1" opacity="1" d="M 12.5 39 L 15 40.5 L 13.5 41 L 11.5 41 L 7 40.5 L 12.5 39 Z " /><path fill="rgb(81,77,60)" stroke="rgb(81,77,60)" stroke-width="1" opacity="1" d="M 22.5 39 L 21.5 41 L 20 40.5 L 22.5 39 Z " /><path fill="rgb(81,77,60)" stroke="rgb(81,77,60)" stroke-width="1" opacity="1" d="M 22.5 48 L 25 48.5 L 22.5 49 L 22.5 48 Z " /><path fill="rgb(142,139,128)" stroke="rgb(142,139,128)" stroke-width="1" opacity="1" d="M 8.5 1 L 11 1.5 L 8.5 2 L 8.5 1 Z " /><path fill="rgb(142,139,128)" stroke="rgb(142,139,128)" stroke-width="1" opacity="1" d="M 15 1 L 18 1.5 L 15.5 3 L 15 1 Z " /><path fill="rgb(142,139,128)" stroke="rgb(142,139,128)" stroke-width="1" opacity="1" d="M 10.5 5 L 12 7.5 L 11 7.5 L 10.5 5 Z " /><path fill="rgb(142,139,128)" stroke="rgb(142,139,128)" stroke-width="1" opacity="1" d="M 14.5 12 L 15 14 L 13 13.5 L 14.5 12 Z " /><path fill="rgb(142,139,128)" stroke="rgb(142,139,128)" stroke-width="1" opacity="1" d="M 22.5 17 L 22.5 20 Q 19.5 18.5 22.5 17 Z " /><path fill="rgb(142,139,128)" stroke="rgb(142,139,128)" stroke-width="1" opacity="1" d="M 20.5 25 L 21 27 L 19 26.5 L 20.5 25 Z " /><path fill="rgb(142,139,128)" stroke="rgb(142,139,128)" stroke-width="1" opacity="1" d="M 18.5 28 L 19.5 30 L 18.5 28 Z " /><path fill="rgb(142,139,128)" stroke="rgb(142,139,128)" stroke-width="1" opacity="1" d="M 7.5 32 L 6.5 34 L 7.5 32 Z " /><path fill="rgb(142,139,128)" stroke="rgb(142,139,128)" stroke-width="1" opacity="1" d="M 14.5 33 L 17 33.5 L 14.5 34 L 14.5 33 Z " /><path fill="rgb(142,139,128)" stroke="rgb(142,139,128)" stroke-width="1" opacity="1" d="M 13.5 36 L 14.5 38 L 13.5 36 Z " /><path fill="rgb(142,139,128)" stroke="rgb(142,139,128)" stroke-width="1" opacity="1" d="M 11.5 37 L 11.5 40 Q 8.5 38.5 11.5 37 Z " /><path fill="rgb(142,139,128)" stroke="rgb(142,139,128)" stroke-width="1" opacity="1" d="M 16.5 38 L 16.5 41 Q 14.3 41.8 15 39.5 L 16.5 38 Z " /><path fill="rgb(142,139,128)" stroke="rgb(142,139,128)" stroke-width="1" opacity="1" d="M 18 38 L 20 38.5 L 18 39.5 L 18 38 Z " /><path fill="rgb(142,139,128)" stroke="rgb(142,139,128)" stroke-width="1" opacity="1" d="M 15.5 42 L 19.5 43 L 21 42.5 L 18.5 44 L 15.5 43 L 15.5 42 Z " /><path fill="rgb(142,139,128)" stroke="rgb(142,139,128)" stroke-width="1" opacity="1" d="M 5.5 43 L 8 44.5 L 6.5 45 L 5.5 43 Z " /><path fill="rgb(142,139,128)" stroke="rgb(142,139,128)" stroke-width="1" opacity="1" d="M 16.5 45 L 17.5 47 L 16.5 45 Z " /><path fill="rgb(142,139,128)" stroke="rgb(142,139,128)" stroke-width="1" opacity="1" d="M 13 47 L 17 48.5 L 13 49 L 13 47 Z " /><path fill="rgb(142,139,128)" stroke="rgb(142,139,128)" stroke-width="1" opacity="1" d="M 5.5 48 L 8 48.5 L 5.5 49 L 5.5 48 Z " /><path fill="rgb(102,108,115)" stroke="rgb(102,108,115)" stroke-width="1" opacity="1" d="M 20.5 1 L 24 1.5 L 20.5 2 L 20.5 1 Z " /><path fill="rgb(102,108,115)" stroke="rgb(102,108,115)" stroke-width="1" opacity="1" d="M 21.5 20 L 22.5 22 Q 19.7 22.7 21.5 20 Z " /><path fill="rgb(102,108,115)" stroke="rgb(102,108,115)" stroke-width="1" opacity="1" d="M 19.5 27 L 22 27.5 Q 19.9 30.8 19.5 27 Z " /><path fill="rgb(102,108,115)" stroke="rgb(102,108,115)" stroke-width="1" opacity="1" d="M 9.5 35 L 7.5 38 L 9.5 35 Z " /><path fill="rgb(102,108,115)" stroke="rgb(102,108,115)" stroke-width="1" opacity="1" d="M 13.5 35 L 16 35.5 L 13.5 36 L 13.5 35 Z " /><path fill="rgb(102,108,115)" stroke="rgb(102,108,115)" stroke-width="1" opacity="1" d="M 27.5 36 L 28 38 L 26 37.5 L 27.5 36 Z " /><path fill="rgb(102,108,115)" stroke="rgb(102,108,115)" stroke-width="1" opacity="1" d="M 3.5 39 L 4.5 41 L 2 40.5 L 3.5 39 Z " /><path fill="rgb(102,108,115)" stroke="rgb(102,108,115)" stroke-width="1" opacity="1" d="M 22.5 41 L 21.5 43 L 22.5 41 Z " /><path fill="rgb(102,108,115)" stroke="rgb(102,108,115)" stroke-width="1" opacity="1" d="M 6.5 46 L 12 48.5 L 8 49 Q 9.1 46.3 6.5 47 L 6.5 46 Z " /><path fill="rgb(102,108,115)" stroke="rgb(102,108,115)" stroke-width="1" opacity="1" d="M 17.5 47 L 20 48.5 L 17 49 L 17.5 47 Z " /><path fill="rgb(102,108,115)" stroke="rgb(102,108,115)" stroke-width="1" opacity="1" d="M 25.5 48 L 28 48.5 L 25.5 49 L 25.5 48 Z " /><path fill="rgb(243,238,240)" stroke="rgb(243,238,240)" stroke-width="1" opacity="1" d="M 19.5 2 L 20.5 4 L 18 3.5 L 19.5 2 Z " /><path fill="rgb(243,238,240)" stroke="rgb(243,238,240)" stroke-width="1" opacity="1" d="M 24.5 7 Q 22.9 8.8 26 10.5 L 25.5 12 L 23 8.5 L 24.5 7 Z " /><path fill="rgb(243,238,240)" stroke="rgb(243,238,240)" stroke-width="1" opacity="1" d="M 7.5 9 L 8 11.5 L 5.5 15 L 3.5 16 L 3 14.5 L 4 12.5 L 3 10 L 7.5 9 Z " /><path fill="rgb(243,238,240)" stroke="rgb(243,238,240)" stroke-width="1" opacity="1" d="M 9.5 21 L 10.5 23 L 7 24.5 L 8.5 27 L 5.5 25 Q 3.2 29.3 1 24.5 L 2.5 25 L 9.5 21 Z " /><path fill="rgb(243,238,240)" stroke="rgb(243,238,240)" stroke-width="1" opacity="1" d="M 27.5 26 L 28 28.5 L 27 28.5 L 27.5 26 Z " /><path fill="rgb(243,238,240)" stroke="rgb(243,238,240)" stroke-width="1" opacity="1" d="M 9.5 30 L 13 30.5 L 9.5 32 L 8 31.5 L 9.5 30 Z " /><path fill="rgb(243,238,240)" stroke="rgb(243,238,240)" stroke-width="1" opacity="1" d="M 8 41 Q 12.1 39.7 11 43 Q 8 42 9 45 L 13 45 L 13 46.5 Q 11.8 49.3 10.5 47 L 8 45.5 L 8 41 Z " /><path fill="rgb(243,238,240)" stroke="rgb(243,238,240)" stroke-width="1" opacity="1" d="M 14.5 41 L 15 43 L 13 42.5 L 14.5 41 Z " /><path fill="rgb(243,238,240)" stroke="rgb(243,238,240)" stroke-width="1" opacity="1" d="M 27.5 45 L 28 47.5 L 27 47.5 L 27.5 45 Z " /><path fill="rgb(207,209,94)" stroke="rgb(207,209,94)" stroke-width="1" opacity="1" d="M 17 16 L 20 16.5 L 19 17.5 L 20.5 20 L 17 17.5 L 17 16 Z " /><path fill="rgb(207,209,94)" stroke="rgb(207,209,94)" stroke-width="1" opacity="1" d="M 17.5 20 L 20 25.5 L 18 26.5 L 16 23.5 L 17.5 20 Z " /><path fill="rgb(207,209,94)" stroke="rgb(207,209,94)" stroke-width="1" opacity="1" d="M 23.5 20 L 26 23.5 L 23 24.5 L 22.5 27 L 22 23.5 L 23.5 20 Z " /><path fill="rgb(207,209,94)" stroke="rgb(207,209,94)" stroke-width="1" opacity="1" d="M 20.5 29 Q 24.3 27.8 23 31.5 L 24.5 36 L 25.5 33 L 27 34.5 L 26.5 37 L 21.5 36 L 21.5 38 L 18 37 L 19 32.5 L 18 30.5 L 19.5 31 L 21 30.5 L 20.5 29 Z M 20 33 L 20 36 L 23 35 L 20 33 Z " /><path fill="rgb(207,209,94)" stroke="rgb(207,209,94)" stroke-width="1" opacity="1" d="M 5.5 33 L 6.5 35 L 5 34.5 L 4.5 36 L 4 34.5 L 5.5 33 Z " /><path fill="rgb(207,209,94)" stroke="rgb(207,209,94)" stroke-width="1" opacity="1" d="M 24.5 42 L 25 44.5 L 27 47.5 L 25.5 48 L 23 43.5 L 24.5 42 Z " /><path fill="rgb(124,118,62)" stroke="rgb(124,118,62)" stroke-width="1" opacity="1" d="M 18.5 29 L 19.5 31 L 18.5 29 Z " /><path fill="rgb(124,118,62)" stroke="rgb(124,118,62)" stroke-width="1" opacity="1" d="M 15.5 30 L 14.5 32 L 15.5 30 Z " /><path fill="rgb(124,118,62)" stroke="rgb(124,118,62)" stroke-width="1" opacity="1" d="M 24.5 30 L 23.5 32 L 24.5 30 Z " /><path fill="rgb(124,118,62)" stroke="rgb(124,118,62)" stroke-width="1" opacity="1" d="M 18.5 32 L 20 35.5 L 19 35.5 L 18.5 33 L 17.5 37 L 17 33.5 L 18.5 32 Z " /><path fill="rgb(124,118,62)" stroke="rgb(124,118,62)" stroke-width="1" opacity="1" d="M 21.5 36 L 24 37.5 L 22.5 38 L 21.5 36 Z " /><path fill="rgb(173,95,53)" stroke="rgb(173,95,53)" stroke-width="1" opacity="1" d="M 18.5 21 L 20 23.5 L 19 23.5 L 18.5 21 Z " /><path fill="rgb(173,95,53)" stroke="rgb(173,95,53)" stroke-width="1" opacity="1" d="M 5.5 35 L 6.5 37 L 8 36.5 L 6.5 39 L 4 38.5 L 5.5 35 Z " /><path fill="rgb(173,95,53)" stroke="rgb(173,95,53)" stroke-width="1" opacity="1" d="M 23.5 42 L 24.5 44 L 23.5 42 Z " /><path fill="rgb(173,95,53)" stroke="rgb(173,95,53)" stroke-width="1" opacity="1" d="M 15.5 45 L 16.5 47 L 15.5 45 Z " /><path fill="rgb(43,39,39)" stroke="rgb(43,39,39)" stroke-width="1" opacity="1" d="M 2 33 Q 5 32 4 35 Q 1 36 2 33 Z " /><path fill="rgb(43,39,39)" stroke="rgb(43,39,39)" stroke-width="1" opacity="1" d="M 9.5 34 L 15 34.5 L 12.5 36 L 9.5 35 L 9.5 34 Z " /><path fill="rgb(43,39,39)" stroke="rgb(43,39,39)" stroke-width="1" opacity="1" d="M 24 37 L 26 37.5 L 24 38.5 L 24 37 Z " /><path fill="rgb(123,30,20)" stroke="rgb(123,30,20)" stroke-width="1" opacity="1" d="M 16.5 24 L 18 27.5 L 17 30 L 15 29.5 Q 18.5 28 16 26.5 L 16.5 24 Z " /><path fill="rgb(123,30,20)" stroke="rgb(123,30,20)" stroke-width="1" opacity="1" d="M 24.5 24 L 27 25.5 Q 27.8 27.8 25.5 27 L 25.5 25 L 23.5 26 L 24.5 24 Z " /><path fill="rgb(213,50,31)" stroke="rgb(213,50,31)" stroke-width="1" opacity="1" d="M 24 25 L 26 25.5 L 25.5 27 L 27 27.5 L 23.5 30 L 23 27.5 L 24 25 Z " /><path fill="rgb(213,50,31)" stroke="rgb(213,50,31)" stroke-width="1" opacity="1" d="M 17.5 38 L 18 40.5 L 17 40.5 L 17.5 38 Z " /><path fill="rgb(213,50,31)" stroke="rgb(213,50,31)" stroke-width="1" opacity="1" d="M 23.5 38 L 25 42 Q 21.2 43.2 23.5 38 Z " /></svg>