<svg width="30" height="50" version="1.1" xmlns="http://www.w3.org/2000/svg" desc="Created with imagetracer.js version 1.2.6" ><path fill="rgb(243,249,251)" stroke="rgb(243,249,251)" stroke-width="1" opacity="1" d="M 0 0 L 30 0 L 30 50 L 0 50 L 0 0 Z M 16 1 L 15 2 L 2 2 L 2 20 L 1 21 L 3 21 L 6 23 L 4 30 Q 2 36 6 35 Q 7 38 4 40 Q 5 42 3 41 L 1 43 L 1 49 L 28 49 L 29 48 L 29 39 L 28 38 L 28 3 L 29 2 L 16 1 Z " /><path fill="rgb(243,249,251)" stroke="rgb(243,249,251)" stroke-width="1" opacity="1" d="M 17.5 23 L 18 25.5 L 17 25.5 L 17.5 23 Z " /><path fill="rgb(243,249,251)" stroke="rgb(243,249,251)" stroke-width="1" opacity="1" d="M 21.5 23 L 22 25.5 L 21 25.5 L 21.5 23 Z " /><path fill="rgb(243,249,251)" stroke="rgb(243,249,251)" stroke-width="1" opacity="1" d="M 14.5 24 L 15 29.5 L 14 29.5 L 14.5 24 Z " /><path fill="rgb(243,249,251)" stroke="rgb(243,249,251)" stroke-width="1" opacity="1" d="M 17.5 27 L 18 29.5 L 17 29.5 L 17.5 27 Z " /><path fill="rgb(243,249,251)" stroke="rgb(243,249,251)" stroke-width="1" opacity="1" d="M 21.5 27 L 22 29.5 L 21 29.5 L 21.5 27 Z " /><path fill="rgb(243,249,251)" stroke="rgb(243,249,251)" stroke-width="1" opacity="1" d="M 11.5 32 L 13 35.5 L 9 38.5 L 11.5 32 Z " /><path fill="rgb(244,237,237)" stroke="rgb(244,237,237)" stroke-width="1" opacity="1" d="M 2 2 L 11.5 2 L 14 4.5 Q 14.4 9.7 18 11.5 L 16 14.5 L 16.5 16 L 14.5 15 L 11 17 L 9 7 L 6 7.5 L 7 12.5 L 4.5 17 L 3 16.5 L 2.5 18 L 2 2 Z " /><path fill="rgb(244,237,237)" stroke="rgb(244,237,237)" stroke-width="1" opacity="1" d="M 20.5 19 L 21 21.5 L 20 21.5 L 20.5 19 Z " /><path fill="rgb(244,237,237)" stroke="rgb(244,237,237)" stroke-width="1" opacity="1" d="M 1.5 44 L 2 48.5 L 1 48.5 L 1.5 44 Z " /><path fill="rgb(236,230,229)" stroke="rgb(236,230,229)" stroke-width="1" opacity="1" d="M 17.5 2 Q 24.5 0.5 26 4.5 L 23 5 L 25 11.5 L 22.5 16 L 19.5 17 L 16 14.5 L 18 11.5 L 15 10.5 L 15 8.5 L 14 4.5 L 17.5 2 Z " /><path fill="rgb(236,230,229)" stroke="rgb(236,230,229)" stroke-width="1" opacity="1" d="M 14.5 15 L 16 17.5 L 13.5 19 L 11 17.5 L 14.5 15 Z " /><path fill="rgb(228,221,217)" stroke="rgb(228,221,217)" stroke-width="1" opacity="1" d="M 24.5 2 L 28 2.5 L 28 15 Q 22.8 17.1 24 12.5 L 25 10.5 L 23 5 L 26 4.5 L 24.5 2 Z " /><path fill="rgb(228,221,217)" stroke="rgb(228,221,217)" stroke-width="1" opacity="1" d="M 6.5 16 L 5.5 18 L 6.5 16 Z " /><path fill="rgb(228,221,217)" stroke="rgb(228,221,217)" stroke-width="1" opacity="1" d="M 20.5 16 L 23 16.5 L 20.5 17 L 20.5 16 Z " /><path fill="rgb(228,221,217)" stroke="rgb(228,221,217)" stroke-width="1" opacity="1" d="M 15.5 18 L 14.5 20 L 15.5 18 Z " /><path fill="rgb(228,221,217)" stroke="rgb(228,221,217)" stroke-width="1" opacity="1" d="M 5.5 25 L 6 28.5 L 5 28.5 L 5.5 25 Z " /><path fill="rgb(228,221,217)" stroke="rgb(228,221,217)" stroke-width="1" opacity="1" d="M 21.5 32 L 22 34.5 L 21 34.5 L 21.5 32 Z " /><path fill="rgb(228,221,217)" stroke="rgb(228,221,217)" stroke-width="1" opacity="1" d="M 6.5 36 L 7 37.5 L 5 38.5 L 6.5 36 Z " /><path fill="rgb(228,221,217)" stroke="rgb(228,221,217)" stroke-width="1" opacity="1" d="M 28.5 41 L 29 43.5 L 28 43.5 L 28.5 41 Z " /><path fill="rgb(78,76,82)" stroke="rgb(78,76,82)" stroke-width="1" opacity="1" d="M 21.5 1 L 24 1.5 L 21.5 2 L 21.5 1 Z " /><path fill="rgb(78,76,82)" stroke="rgb(78,76,82)" stroke-width="1" opacity="1" d="M 7.5 7 L 9 10.5 L 8 10.5 L 7.5 7 Z " /><path fill="rgb(78,76,82)" stroke="rgb(78,76,82)" stroke-width="1" opacity="1" d="M 9.5 12 L 10 14.5 L 9 14.5 L 9.5 12 Z " /><path fill="rgb(78,76,82)" stroke="rgb(78,76,82)" stroke-width="1" opacity="1" d="M 23.5 16 L 22.5 19 Q 28.6 17.8 28 20.5 L 26.5 20 L 23.5 21 Q 18.5 18.5 23.5 16 Z " /><path fill="rgb(78,76,82)" stroke="rgb(78,76,82)" stroke-width="1" opacity="1" d="M 5.5 48 L 11 48.5 L 5.5 49 L 5.5 48 Z " /><path fill="rgb(87,50,32)" stroke="rgb(87,50,32)" stroke-width="1" opacity="1" d="M 3.5 41 L 4 43 L 2 42.5 L 3.5 41 Z " /><path fill="rgb(87,50,32)" stroke="rgb(87,50,32)" stroke-width="1" opacity="1" d="M 15.5 41 L 18 44.5 L 16 45 L 15.5 43 L 14 43.5 L 15.5 41 Z " /><path fill="rgb(87,50,32)" stroke="rgb(87,50,32)" stroke-width="1" opacity="1" d="M 21.5 41 L 20.5 43 L 21.5 41 Z " /><path fill="rgb(87,50,32)" stroke="rgb(87,50,32)" stroke-width="1" opacity="1" d="M 7.5 43 L 6.5 45 L 5 44.5 L 7.5 43 Z " /><path fill="rgb(169,183,191)" stroke="rgb(169,183,191)" stroke-width="1" opacity="1" d="M 7.5 8 L 8 10.5 L 7 10.5 L 7.5 8 Z " /><path fill="rgb(169,183,191)" stroke="rgb(169,183,191)" stroke-width="1" opacity="1" d="M 6.5 15 Q 9.5 16.5 6.5 18 L 6.5 15 Z " /><path fill="rgb(169,183,191)" stroke="rgb(169,183,191)" stroke-width="1" opacity="1" d="M 23.5 21 Q 26.5 20.1 25 24.5 L 24 24.5 L 23.5 22 L 22.5 33 Q 19.8 31.7 22 30.5 L 22 22.5 L 23.5 21 Z " /><path fill="rgb(169,183,191)" stroke="rgb(169,183,191)" stroke-width="1" opacity="1" d="M 15.5 25 Q 18.3 24.4 17 30.5 L 15 29.5 L 16 26.5 L 15.5 25 Z " /><path fill="rgb(169,183,191)" stroke="rgb(169,183,191)" stroke-width="1" opacity="1" d="M 18.5 26 L 20 30 Q 16.2 31.2 18.5 26 Z " /><path fill="rgb(169,183,191)" stroke="rgb(169,183,191)" stroke-width="1" opacity="1" d="M 10.5 28 L 12 31.5 L 10 32.5 L 10 30.5 L 10.5 28 Z " /><path fill="rgb(169,183,191)" stroke="rgb(169,183,191)" stroke-width="1" opacity="1" d="M 27.5 30 L 28 32.5 L 27 32.5 L 27.5 30 Z " /><path fill="rgb(169,183,191)" stroke="rgb(169,183,191)" stroke-width="1" opacity="1" d="M 25.5 46 L 28 46.5 L 26 47 L 25.5 49 L 23.5 49 L 19 48.5 L 25.5 46 Z " /><path fill="rgb(147,153,162)" stroke="rgb(147,153,162)" stroke-width="1" opacity="1" d="M 25.5 15 L 26 18 L 28 18.5 L 25 19 L 25.5 15 Z " /><path fill="rgb(147,153,162)" stroke="rgb(147,153,162)" stroke-width="1" opacity="1" d="M 8.5 16 L 10 16.5 L 8 17 L 8.5 19 L 10 18.5 Q 10.8 20.8 8.5 20 L 7 17.5 L 8.5 16 Z " /><path fill="rgb(147,153,162)" stroke="rgb(147,153,162)" stroke-width="1" opacity="1" d="M 22.5 20 Q 24.9 22.1 24 27.5 L 23 27.5 Q 24.3 21.4 21.5 22 L 22.5 20 Z " /><path fill="rgb(147,153,162)" stroke="rgb(147,153,162)" stroke-width="1" opacity="1" d="M 25.5 20 L 26 33.5 L 25 33.5 L 25.5 20 Z " /><path fill="rgb(147,153,162)" stroke="rgb(147,153,162)" stroke-width="1" opacity="1" d="M 27.5 21 L 28 29.5 L 27 29.5 L 27.5 21 Z " /><path fill="rgb(147,153,162)" stroke="rgb(147,153,162)" stroke-width="1" opacity="1" d="M 18 24 Q 21 22.8 20 26.5 L 18 25.5 L 18 24 Z " /><path fill="rgb(147,153,162)" stroke="rgb(147,153,162)" stroke-width="1" opacity="1" d="M 15.5 30 L 18 31.5 L 14.5 33 L 15 31.5 L 15.5 30 Z " /><path fill="rgb(147,153,162)" stroke="rgb(147,153,162)" stroke-width="1" opacity="1" d="M 23.5 32 L 23 33.5 L 22.5 35 L 22 33.5 L 23.5 32 Z " /><path fill="rgb(147,153,162)" stroke="rgb(147,153,162)" stroke-width="1" opacity="1" d="M 27.5 33 L 28 36.5 L 27 36.5 L 27.5 33 Z " /><path fill="rgb(147,153,162)" stroke="rgb(147,153,162)" stroke-width="1" opacity="1" d="M 13.5 36 L 13.5 39 L 11 38.5 L 13.5 36 Z " /><path fill="rgb(147,153,162)" stroke="rgb(147,153,162)" stroke-width="1" opacity="1" d="M 13.5 40 L 14 42 L 12 41.5 L 13.5 40 Z " /><path fill="rgb(147,153,162)" stroke="rgb(147,153,162)" stroke-width="1" opacity="1" d="M 25.5 43 L 26 45.5 L 25 45.5 L 25.5 43 Z " /><path fill="rgb(147,153,162)" stroke="rgb(147,153,162)" stroke-width="1" opacity="1" d="M 18.5 46 Q 20.8 45.3 20 47.5 L 16.5 49 L 16.5 48 L 19 47.5 L 18.5 46 Z " /><path fill="rgb(242,137,38)" stroke="rgb(242,137,38)" stroke-width="1" opacity="1" d="M 7 22 L 11 23.5 L 9 24 L 10 26.5 L 8 27 L 7.5 29 L 6 26.5 L 7 22 Z " /><path fill="rgb(242,137,38)" stroke="rgb(242,137,38)" stroke-width="1" opacity="1" d="M 6.5 30 L 9 31.5 L 8 35 Q 5 36.3 6 32.5 L 6.5 30 Z " /><path fill="rgb(242,137,38)" stroke="rgb(242,137,38)" stroke-width="1" opacity="1" d="M 17 32 Q 20 30.8 19 34.5 L 18 38 Q 14.7 39.3 16 34.5 L 17 32 Z " /><path fill="rgb(242,137,38)" stroke="rgb(242,137,38)" stroke-width="1" opacity="1" d="M 17.5 39 L 18 41.5 L 17 41.5 L 17.5 39 Z " /><path fill="rgb(242,137,38)" stroke="rgb(242,137,38)" stroke-width="1" opacity="1" d="M 25.5 40 L 28 41 Q 29.3 44 25.5 43 L 18.5 46 L 18.5 45 L 25 42 L 25.5 40 Z " /><path fill="rgb(242,137,38)" stroke="rgb(242,137,38)" stroke-width="1" opacity="1" d="M 9.5 43 L 14 44.5 L 12.5 45 L 9.5 44 L 9.5 43 Z " /><path fill="rgb(242,137,38)" stroke="rgb(242,137,38)" stroke-width="1" opacity="1" d="M 2 44 L 4 44.5 L 3.5 46 L 7.5 45 L 10 46.5 L 7.5 48 L 2 45.5 L 2 44 Z " /><path fill="rgb(40,38,44)" stroke="rgb(40,38,44)" stroke-width="1" opacity="1" d="M 23 35 L 25 35.5 L 23.5 38 L 23 35 Z " /><path fill="rgb(40,38,44)" stroke="rgb(40,38,44)" stroke-width="1" opacity="1" d="M 26.5 35 L 27 37.5 L 26 37.5 L 26.5 35 Z " /><path fill="rgb(40,38,44)" stroke="rgb(40,38,44)" stroke-width="1" opacity="1" d="M 2.5 48 L 5 48.5 L 2.5 49 L 2.5 48 Z " /><path fill="rgb(233,191,92)" stroke="rgb(233,191,92)" stroke-width="1" opacity="1" d="M 19 33 Q 22.3 31.7 21 36.5 L 22 41 L 18.5 42 Q 20.1 40.3 17 38.5 L 18 37.5 L 19 33 Z " /><path fill="rgb(233,191,92)" stroke="rgb(233,191,92)" stroke-width="1" opacity="1" d="M 8.5 35 L 9 37.5 L 7.5 39 L 6 38.5 L 8.5 35 Z " /><path fill="rgb(205,213,218)" stroke="rgb(205,213,218)" stroke-width="1" opacity="1" d="M 16.5 1 L 15.5 3 L 16.5 1 Z " /><path fill="rgb(205,213,218)" stroke="rgb(205,213,218)" stroke-width="1" opacity="1" d="M 26.5 15 L 27 17.5 L 26 17.5 L 26.5 15 Z " /><path fill="rgb(205,213,218)" stroke="rgb(205,213,218)" stroke-width="1" opacity="1" d="M 19.5 17 L 20.5 19 L 19.5 17 Z " /><path fill="rgb(205,213,218)" stroke="rgb(205,213,218)" stroke-width="1" opacity="1" d="M 18.5 19 L 19.5 21 L 14.5 22 L 14.5 21 L 18.5 19 Z " /><path fill="rgb(205,213,218)" stroke="rgb(205,213,218)" stroke-width="1" opacity="1" d="M 26.5 20 L 27 28.5 L 26 28.5 L 26.5 20 Z " /><path fill="rgb(205,213,218)" stroke="rgb(205,213,218)" stroke-width="1" opacity="1" d="M 21.5 22 L 21 23.5 Q 19.5 29 22 30.5 L 20 29.5 Q 18.5 23.5 21.5 22 Z " /><path fill="rgb(205,213,218)" stroke="rgb(205,213,218)" stroke-width="1" opacity="1" d="M 24.5 27 L 25 33.5 L 24 33.5 L 24.5 27 Z " /><path fill="rgb(205,213,218)" stroke="rgb(205,213,218)" stroke-width="1" opacity="1" d="M 4.5 29 L 5 32.5 L 4 32.5 L 4.5 29 Z " /><path fill="rgb(205,213,218)" stroke="rgb(205,213,218)" stroke-width="1" opacity="1" d="M 26.5 30 L 27 32.5 L 26 32.5 L 26.5 30 Z " /><path fill="rgb(205,213,218)" stroke="rgb(205,213,218)" stroke-width="1" opacity="1" d="M 23.5 44 L 24.5 46 Q 21.7 46.7 23.5 44 Z " /><path fill="rgb(205,213,218)" stroke="rgb(205,213,218)" stroke-width="1" opacity="1" d="M 28.5 44 L 29 47.5 L 28 47.5 L 28.5 44 Z " /><path fill="rgb(57,17,10)" stroke="rgb(57,17,10)" stroke-width="1" opacity="1" d="M 10 19 Q 13 18 12 21 Q 9 22 10 19 Z " /><path fill="rgb(57,17,10)" stroke="rgb(57,17,10)" stroke-width="1" opacity="1" d="M 26.5 38 L 28 40.5 L 27 40.5 L 26.5 38 Z " /><path fill="rgb(57,17,10)" stroke="rgb(57,17,10)" stroke-width="1" opacity="1" d="M 4.5 42 L 3.5 44 L 2 43.5 L 4.5 42 Z " /><path fill="rgb(57,17,10)" stroke="rgb(57,17,10)" stroke-width="1" opacity="1" d="M 6.5 43 L 12 46.5 Q 12.8 48.8 10.5 48 L 10.5 46 Q 6.5 45.5 6.5 43 Z " /><path fill="rgb(113,112,116)" stroke="rgb(113,112,116)" stroke-width="1" opacity="1" d="M 8.5 15 L 11 16.5 L 10.5 18 L 10 16 L 8.5 15 Z " /><path fill="rgb(113,112,116)" stroke="rgb(113,112,116)" stroke-width="1" opacity="1" d="M 17.5 16 L 18 18.5 L 17 18.5 L 17.5 16 Z " /><path fill="rgb(113,112,116)" stroke="rgb(113,112,116)" stroke-width="1" opacity="1" d="M 21.5 17 Q 24.5 18.5 21.5 20 L 21.5 17 Z " /><path fill="rgb(113,112,116)" stroke="rgb(113,112,116)" stroke-width="1" opacity="1" d="M 3.5 18 L 6 19.5 L 7 21.5 L 5.5 21 Q 1.1 22.5 2 19.5 L 3.5 18 Z " /><path fill="rgb(113,112,116)" stroke="rgb(113,112,116)" stroke-width="1" opacity="1" d="M 12.5 18 L 14 20.5 L 12 19.5 L 12.5 18 Z " /><path fill="rgb(113,112,116)" stroke="rgb(113,112,116)" stroke-width="1" opacity="1" d="M 13.5 24 L 13 25.5 L 15 31.5 Q 13.5 34.5 12 31.5 L 12.5 30 Q 9.9 30.8 11 27.5 L 13.5 24 Z " /><path fill="rgb(113,112,116)" stroke="rgb(113,112,116)" stroke-width="1" opacity="1" d="M 23.5 28 L 24 31.5 L 23 31.5 L 23.5 28 Z " /><path fill="rgb(113,112,116)" stroke="rgb(113,112,116)" stroke-width="1" opacity="1" d="M 9.5 32 L 10.5 34 L 9.5 32 Z " /><path fill="rgb(113,112,116)" stroke="rgb(113,112,116)" stroke-width="1" opacity="1" d="M 23.5 33 L 24 34.5 L 22 35.5 L 23.5 33 Z " /><path fill="rgb(113,112,116)" stroke="rgb(113,112,116)" stroke-width="1" opacity="1" d="M 26.5 33 L 26 34.5 L 25.5 37 L 25 34.5 L 26.5 33 Z " /><path fill="rgb(113,112,116)" stroke="rgb(113,112,116)" stroke-width="1" opacity="1" d="M 13.5 37 Q 17 39 12.5 41 L 12 39 L 14 38.5 L 13.5 37 Z " /><path fill="rgb(113,112,116)" stroke="rgb(113,112,116)" stroke-width="1" opacity="1" d="M 27.5 43 L 26.5 45 L 27.5 43 Z " /><path fill="rgb(113,112,116)" stroke="rgb(113,112,116)" stroke-width="1" opacity="1" d="M 14.5 47 L 17 47.5 L 13.5 49 L 14.5 47 Z " /><path fill="rgb(192,121,51)" stroke="rgb(192,121,51)" stroke-width="1" opacity="1" d="M 10 21 L 12 21.5 L 11.5 23 L 13 23.5 L 11.5 24 L 10 21 Z " /><path fill="rgb(192,121,51)" stroke="rgb(192,121,51)" stroke-width="1" opacity="1" d="M 8.5 30 L 9.5 32 L 8.5 30 Z " /><path fill="rgb(192,121,51)" stroke="rgb(192,121,51)" stroke-width="1" opacity="1" d="M 19.5 31 L 20.5 33 Q 17.7 33.7 19.5 31 Z " /><path fill="rgb(192,121,51)" stroke="rgb(192,121,51)" stroke-width="1" opacity="1" d="M 8.5 33 L 9 34.5 L 8.5 37 Q 5.8 35.8 8 34.5 L 8.5 33 Z " /><path fill="rgb(192,121,51)" stroke="rgb(192,121,51)" stroke-width="1" opacity="1" d="M 22.5 38 L 26 39.5 L 22.5 41 L 22.5 38 Z " /><path fill="rgb(192,121,51)" stroke="rgb(192,121,51)" stroke-width="1" opacity="1" d="M 5.5 39 L 8 39.5 L 5.5 40 L 5.5 39 Z " /><path fill="rgb(192,121,51)" stroke="rgb(192,121,51)" stroke-width="1" opacity="1" d="M 11.5 40 L 12 42 L 10 41.5 L 11.5 40 Z " /><path fill="rgb(150,63,22)" stroke="rgb(150,63,22)" stroke-width="1" opacity="1" d="M 10.5 24 L 11 26.5 L 10 26.5 L 10.5 24 Z " /><path fill="rgb(150,63,22)" stroke="rgb(150,63,22)" stroke-width="1" opacity="1" d="M 6.5 29 L 6 30.5 L 5.5 33 L 5 30.5 L 6.5 29 Z " /><path fill="rgb(150,63,22)" stroke="rgb(150,63,22)" stroke-width="1" opacity="1" d="M 14.5 35 Q 17.1 34.2 16 37.5 L 15 37.5 L 14.5 35 Z " /><path fill="rgb(150,63,22)" stroke="rgb(150,63,22)" stroke-width="1" opacity="1" d="M 27.5 38 L 27 39.5 L 26.5 41 L 26 39.5 L 27.5 38 Z " /><path fill="rgb(150,63,22)" stroke="rgb(150,63,22)" stroke-width="1" opacity="1" d="M 16.5 39 L 17 42 L 20.5 43 L 25 40 Q 26.1 42.7 23.5 42 L 16.5 47 L 14.5 47 L 12.5 48 L 11 45.5 L 12.5 45 L 14 45.5 Q 13.3 42.9 16 44 L 16.5 46 Q 19.2 44.7 17 43.5 L 15 40.5 L 16.5 39 Z " /><path fill="rgb(150,63,22)" stroke="rgb(150,63,22)" stroke-width="1" opacity="1" d="M 5.5 40 L 6 43.5 L 5.5 46 Q 2.9 46.8 4 43.5 L 5.5 40 Z " /><path fill="rgb(150,63,22)" stroke="rgb(150,63,22)" stroke-width="1" opacity="1" d="M 8.5 40 L 8.5 43 Q 6.3 43.8 7 41.5 L 8.5 40 Z " /><path fill="rgb(150,63,22)" stroke="rgb(150,63,22)" stroke-width="1" opacity="1" d="M 12 42 L 15 42.5 L 12.5 44 L 12 42 Z " /></svg>