<svg width="30" height="50" version="1.1" xmlns="http://www.w3.org/2000/svg" desc="Created with imagetracer.js version 1.2.6" ><path fill="rgb(252,234,18)" stroke="rgb(252,234,18)" stroke-width="1" opacity="1" d="M 7.5 3 L 9 6.5 L 8.5 8 L 11 8.5 L 7 9.5 Q 10.8 11.3 7.5 13 Q 4.5 12.1 6 16.5 L 6.5 18 L 5 18.5 L 7 19.5 L 5 20.5 L 8 21.5 L 6 28.5 L 4 30.5 L 5 33.5 L 2 33.5 Q 0.7 28.8 3 27.5 L 2 23.5 L 2 21.5 L 3 18.5 L 2 16.5 L 3.5 17 L 5 16.5 L 4 14.5 L 4.5 13 L 2.5 14 L 3 12.5 L 4.5 10 L 7 8.5 L 6.5 7 L 3.5 9 L 4.5 7 L 8 6 L 7.5 3 Z " /><path fill="rgb(252,234,18)" stroke="rgb(252,234,18)" stroke-width="1" opacity="1" d="M 5.5 4 L 4.5 6 L 5.5 4 Z " /><path fill="rgb(250,239,48)" stroke="rgb(250,239,48)" stroke-width="1" opacity="1" d="M 2 2 Q 5 0.8 4 4.5 L 2 5.5 L 2 3.5 L 2 2 Z " /><path fill="rgb(250,239,48)" stroke="rgb(250,239,48)" stroke-width="1" opacity="1" d="M 11.5 2 L 13 2.5 L 12 3.5 L 15 6.5 L 14 7.5 L 13 9.5 L 15 10.5 L 12.5 16 L 12 13 Q 9.3 14.1 10 11.5 L 12 7.5 L 10 3.5 L 11.5 2 Z " /><path fill="rgb(250,239,48)" stroke="rgb(250,239,48)" stroke-width="1" opacity="1" d="M 18.5 45 L 18.5 47 L 20.5 46 L 19.5 48 L 13 47.5 Q 17.3 47.8 18.5 45 Z " /><path fill="rgb(252,247,87)" stroke="rgb(252,247,87)" stroke-width="1" opacity="1" d="M 13.5 2 L 19 2 L 19 4.5 L 22 6 L 21.5 8 L 19 6.5 Q 17.8 11.2 20 12.5 L 17.5 11 L 14.5 12 L 14.5 10 L 13 9.5 L 15 6.5 L 14.5 5 Q 19.3 6.3 18 3 L 13.5 3 L 13.5 2 Z " /><path fill="rgb(252,247,87)" stroke="rgb(252,247,87)" stroke-width="1" opacity="1" d="M 23.5 6 L 25 8.5 L 23.5 11 L 23.5 6 Z " /><path fill="rgb(252,247,87)" stroke="rgb(252,247,87)" stroke-width="1" opacity="1" d="M 26.5 9 Q 28.8 8.3 28 10.5 L 25 10.5 L 26.5 9 Z " /><path fill="rgb(252,247,87)" stroke="rgb(252,247,87)" stroke-width="1" opacity="1" d="M 27.5 12 L 28 15.5 L 27 15.5 L 27.5 12 Z " /><path fill="rgb(252,247,87)" stroke="rgb(252,247,87)" stroke-width="1" opacity="1" d="M 23 13 Q 27.5 11.5 26 16 L 23 14.5 L 23 13 Z " /><path fill="rgb(252,247,87)" stroke="rgb(252,247,87)" stroke-width="1" opacity="1" d="M 18.5 26 L 19 29 L 17 28.5 L 18.5 26 Z " /><path fill="rgb(252,247,87)" stroke="rgb(252,247,87)" stroke-width="1" opacity="1" d="M 18 31 L 20 31.5 L 18 32.5 L 18 31 Z " /><path fill="rgb(252,247,87)" stroke="rgb(252,247,87)" stroke-width="1" opacity="1" d="M 22.5 42 Q 28.2 40.2 26 46.5 L 28 46.5 Q 26.8 49 23 48 L 24 45.5 L 22.5 42 Z " /><path fill="rgb(248,247,139)" stroke="rgb(248,247,139)" stroke-width="1" opacity="1" d="M 21.5 2 L 28 2 L 28 7 Q 22.4 8.9 24 4 L 19.5 4 L 19.5 3 L 21.5 2 Z " /><path fill="rgb(248,247,139)" stroke="rgb(248,247,139)" stroke-width="1" opacity="1" d="M 19.5 8 L 23 8.5 L 19.5 9 L 19.5 8 Z " /><path fill="rgb(248,247,139)" stroke="rgb(248,247,139)" stroke-width="1" opacity="1" d="M 26.5 10 L 27 13.5 L 26 13.5 L 26.5 10 Z " /><path fill="rgb(248,247,139)" stroke="rgb(248,247,139)" stroke-width="1" opacity="1" d="M 19.5 11 L 22 11.5 Q 19.9 14.8 19.5 11 Z " /><path fill="rgb(248,247,139)" stroke="rgb(248,247,139)" stroke-width="1" opacity="1" d="M 10.5 15 L 12 17.5 L 11 17.5 L 10.5 15 Z " /><path fill="rgb(248,247,139)" stroke="rgb(248,247,139)" stroke-width="1" opacity="1" d="M 26.5 15 L 28 17.5 L 27 19.5 L 28 22 Q 23.5 23.8 25 18.5 Q 28.1 16.8 26.5 15 Z " /><path fill="rgb(248,247,139)" stroke="rgb(248,247,139)" stroke-width="1" opacity="1" d="M 23.5 20 L 22.5 22 L 23.5 20 Z " /><path fill="rgb(248,247,139)" stroke="rgb(248,247,139)" stroke-width="1" opacity="1" d="M 19.5 21 L 19.5 24 Q 16.5 22.5 19.5 21 Z " /><path fill="rgb(248,247,139)" stroke="rgb(248,247,139)" stroke-width="1" opacity="1" d="M 25 23 L 28 23.5 L 28 25.5 L 27.5 30 L 26 29.5 L 25.5 31 L 25 23 Z " /><path fill="rgb(248,247,139)" stroke="rgb(248,247,139)" stroke-width="1" opacity="1" d="M 22.5 24 Q 24.8 23.3 24 25.5 L 22.5 24 Z " /><path fill="rgb(248,247,139)" stroke="rgb(248,247,139)" stroke-width="1" opacity="1" d="M 13 38 L 17 39.5 L 13 40 L 13 38 Z " /><path fill="rgb(252,236,28)" stroke="rgb(252,236,28)" stroke-width="1" opacity="1" d="M 4 2 L 11 2.5 L 10 4.5 L 12 9.5 L 8.5 16 L 7 16.5 L 8 21 L 2 18.5 L 3.5 19 L 7 17.5 L 6 13 L 9 11.5 L 5.5 10 L 3 11.5 Q 2.3 13.8 4.5 13 L 4 14.5 L 5 16.5 L 3.5 17 L 2 14.5 L 2 12.5 Q 0.5 7 3 5.5 L 2.5 4 L 4 4.5 L 4 2 Z M 9 4 L 8 6 L 6 7 L 7 9 L 11 9 L 9 8 L 9 7 L 9 4 Z " /><path fill="rgb(252,236,28)" stroke="rgb(252,236,28)" stroke-width="1" opacity="1" d="M 5.5 24 L 6.5 26 L 5.5 24 Z " /><path fill="rgb(252,236,28)" stroke="rgb(252,236,28)" stroke-width="1" opacity="1" d="M 3.5 33 L 2.5 35 L 3.5 33 Z " /><path fill="rgb(144,106,39)" stroke="rgb(144,106,39)" stroke-width="1" opacity="1" d="M 17.5 15 L 18 16.5 L 16 17.5 L 17.5 15 Z " /><path fill="rgb(144,106,39)" stroke="rgb(144,106,39)" stroke-width="1" opacity="1" d="M 12 20 L 15 20.5 L 12 22.5 L 11 26 L 9 25.5 L 12 20 Z " /><path fill="rgb(144,106,39)" stroke="rgb(144,106,39)" stroke-width="1" opacity="1" d="M 15.5 25 L 15.5 27 L 17 27.5 L 15 28.5 L 14.5 27 Q 12.7 30.1 11 28.5 L 12 30.5 L 10 31 L 10 27 L 11.5 27 L 12.5 28 L 15.5 25 Z " /><path fill="rgb(144,106,39)" stroke="rgb(144,106,39)" stroke-width="1" opacity="1" d="M 6.5 27 Q 9.8 25.9 9 28.5 L 7.5 28 L 6.5 27 Z " /><path fill="rgb(144,106,39)" stroke="rgb(144,106,39)" stroke-width="1" opacity="1" d="M 16.5 30 L 17 32.5 L 16 32.5 L 16.5 30 Z " /><path fill="rgb(144,106,39)" stroke="rgb(144,106,39)" stroke-width="1" opacity="1" d="M 9.5 36 L 12 37 Q 13 40 10 39 L 9.5 36 Z " /><path fill="rgb(144,106,39)" stroke="rgb(144,106,39)" stroke-width="1" opacity="1" d="M 18.5 37 L 17.5 39 L 18.5 37 Z " /><path fill="rgb(144,106,39)" stroke="rgb(144,106,39)" stroke-width="1" opacity="1" d="M 7.5 40 Q 9 42.5 14.5 41 Q 15.8 38.8 17 41.5 L 7 42 L 7.5 40 Z " /><path fill="rgb(144,106,39)" stroke="rgb(144,106,39)" stroke-width="1" opacity="1" d="M 25.5 40 L 26 42 L 20 41.5 L 25.5 40 Z " /><path fill="rgb(144,106,39)" stroke="rgb(144,106,39)" stroke-width="1" opacity="1" d="M 3.5 41 L 4.5 43 L 3.5 41 Z " /><path fill="rgb(191,198,173)" stroke="rgb(191,198,173)" stroke-width="1" opacity="1" d="M 19.5 13 L 20.5 15 L 19.5 13 Z " /><path fill="rgb(191,198,173)" stroke="rgb(191,198,173)" stroke-width="1" opacity="1" d="M 9 17 L 11 17.5 L 9 18.5 L 9 17 Z " /><path fill="rgb(191,198,173)" stroke="rgb(191,198,173)" stroke-width="1" opacity="1" d="M 9.5 20 L 10.5 22 L 9.5 20 Z " /><path fill="rgb(191,198,173)" stroke="rgb(191,198,173)" stroke-width="1" opacity="1" d="M 17.5 21 L 18 23 L 15.5 24 L 15 22 L 17.5 21 Z " /><path fill="rgb(191,198,173)" stroke="rgb(191,198,173)" stroke-width="1" opacity="1" d="M 8.5 22 L 9.5 24 L 8.5 22 Z " /><path fill="rgb(191,198,173)" stroke="rgb(191,198,173)" stroke-width="1" opacity="1" d="M 27.5 30 L 26.5 33 L 28 33.5 L 26.5 34 Q 23 32 27.5 30 Z " /><path fill="rgb(191,198,173)" stroke="rgb(191,198,173)" stroke-width="1" opacity="1" d="M 5.5 34 Q 8.5 35.5 5.5 37 L 5.5 34 Z " /><path fill="rgb(250,250,247)" stroke="rgb(250,250,247)" stroke-width="1" opacity="1" d="M 0 0 L 30 0 L 30 50 L 0 50 L 0 0 Z M 2 2 L 2 32 L 2 34 L 2 48 L 28 48 L 28 34 L 27 33 L 28 31 L 28 2 L 2 2 Z " /><path fill="rgb(101,121,118)" stroke="rgb(101,121,118)" stroke-width="1" opacity="1" d="M 21.5 14 L 22 15.5 L 20 16.5 L 21.5 14 Z " /><path fill="rgb(101,121,118)" stroke="rgb(101,121,118)" stroke-width="1" opacity="1" d="M 17.5 18 L 20 18.5 L 17 20 L 17.5 18 Z " /><path fill="rgb(101,121,118)" stroke="rgb(101,121,118)" stroke-width="1" opacity="1" d="M 23 22 L 26 22.5 L 23.5 24 L 23 22 Z " /><path fill="rgb(101,121,118)" stroke="rgb(101,121,118)" stroke-width="1" opacity="1" d="M 11.5 25 L 10.5 27 L 11.5 25 Z " /><path fill="rgb(101,121,118)" stroke="rgb(101,121,118)" stroke-width="1" opacity="1" d="M 22.5 31 L 25 32.5 L 23.5 32 L 22.5 31 Z " /><path fill="rgb(101,121,118)" stroke="rgb(101,121,118)" stroke-width="1" opacity="1" d="M 10.5 33 L 11.5 35 L 10.5 33 Z " /><path fill="rgb(101,121,118)" stroke="rgb(101,121,118)" stroke-width="1" opacity="1" d="M 7.5 34 Q 9.8 33.3 9 35.5 L 7.5 34 Z " /><path fill="rgb(101,121,118)" stroke="rgb(101,121,118)" stroke-width="1" opacity="1" d="M 24.5 34 L 25 39.5 L 24 39.5 L 23.5 38 L 22 38.5 L 24.5 34 Z " /><path fill="rgb(101,121,118)" stroke="rgb(101,121,118)" stroke-width="1" opacity="1" d="M 13.5 35 L 14.5 37 L 13.5 35 Z " /><path fill="rgb(101,121,118)" stroke="rgb(101,121,118)" stroke-width="1" opacity="1" d="M 17.5 35 L 20 36.5 L 18.5 37 L 17.5 35 Z " /><path fill="rgb(197,151,63)" stroke="rgb(197,151,63)" stroke-width="1" opacity="1" d="M 10 13 Q 13 12 12 15 Q 9 16 10 13 Z " /><path fill="rgb(197,151,63)" stroke="rgb(197,151,63)" stroke-width="1" opacity="1" d="M 18.5 13 L 21 13.5 L 18 15.5 L 18.5 13 Z " /><path fill="rgb(197,151,63)" stroke="rgb(197,151,63)" stroke-width="1" opacity="1" d="M 14.5 18 Q 16.8 17.3 16 19.5 L 14.5 18 Z " /><path fill="rgb(197,151,63)" stroke="rgb(197,151,63)" stroke-width="1" opacity="1" d="M 17.5 23 L 19 25.5 L 17 25.5 L 15 28.5 L 17 28.5 L 16 32.5 L 17 32.5 L 17.5 31 L 19 34.5 L 17.5 34 L 13.5 35 L 12.5 33 L 14 32.5 L 11 31.5 L 11 29.5 L 11.5 28 L 14 29 L 17.5 23 Z " /><path fill="rgb(197,151,63)" stroke="rgb(197,151,63)" stroke-width="1" opacity="1" d="M 4.5 36 L 6 39 L 3 39.5 L 5 40.5 L 2.5 42 L 2 39.5 L 4.5 36 Z " /><path fill="rgb(197,151,63)" stroke="rgb(197,151,63)" stroke-width="1" opacity="1" d="M 10.5 36 L 13 36.5 L 10 37 L 9.5 39 L 9 37.5 L 10.5 36 Z " /><path fill="rgb(244,243,111)" stroke="rgb(244,243,111)" stroke-width="1" opacity="1" d="M 19.5 4 Q 24.9 2.1 24 5.5 L 21.5 6 L 20 6.5 L 20.5 8 Q 18.3 8.8 19 6.5 L 19.5 4 Z " /><path fill="rgb(244,243,111)" stroke="rgb(244,243,111)" stroke-width="1" opacity="1" d="M 25 7 L 28 7.5 L 26 8 L 25 10.5 L 26 13 L 22.5 12 L 21 12.5 L 21.5 11 Q 17.8 12 19 9 L 23 9 L 23 10.5 L 24 10.5 L 25 7 Z " /><path fill="rgb(244,243,111)" stroke="rgb(244,243,111)" stroke-width="1" opacity="1" d="M 23.5 15 L 22.5 17 L 23.5 15 Z " /><path fill="rgb(244,243,111)" stroke="rgb(244,243,111)" stroke-width="1" opacity="1" d="M 25.5 16 L 27 16.5 L 24.5 18 L 25.5 16 Z " /><path fill="rgb(244,243,111)" stroke="rgb(244,243,111)" stroke-width="1" opacity="1" d="M 22.5 20 L 23.5 22 L 22.5 20 Z " /><path fill="rgb(244,243,111)" stroke="rgb(244,243,111)" stroke-width="1" opacity="1" d="M 19.5 28 L 19.5 31 Q 17.3 31.8 18 29.5 L 19.5 28 Z " /><path fill="rgb(244,243,111)" stroke="rgb(244,243,111)" stroke-width="1" opacity="1" d="M 22 28 Q 25 26.8 24 30.5 L 22 29.5 L 22 28 Z " /><path fill="rgb(144,190,192)" stroke="rgb(144,190,192)" stroke-width="1" opacity="1" d="M 12.5 16 L 13.5 18 L 12.5 16 Z " /><path fill="rgb(144,190,192)" stroke="rgb(144,190,192)" stroke-width="1" opacity="1" d="M 21.5 22 Q 24.5 23.5 21.5 25 L 21.5 22 Z " /><path fill="rgb(144,190,192)" stroke="rgb(144,190,192)" stroke-width="1" opacity="1" d="M 24.5 23 L 25 30.5 L 24 30.5 L 24.5 23 Z " /><path fill="rgb(144,190,192)" stroke="rgb(144,190,192)" stroke-width="1" opacity="1" d="M 9.5 31 Q 12.5 32.5 9.5 34 L 8 33.5 L 9.5 31 Z " /><path fill="rgb(144,190,192)" stroke="rgb(144,190,192)" stroke-width="1" opacity="1" d="M 14.5 35 Q 18.3 34 17 37 L 14.5 35 Z " /><path fill="rgb(95,30,18)" stroke="rgb(95,30,18)" stroke-width="1" opacity="1" d="M 15 12 L 18 13.5 Q 18.9 16.5 14.5 15 L 15 13.5 L 15 12 Z " /><path fill="rgb(95,30,18)" stroke="rgb(95,30,18)" stroke-width="1" opacity="1" d="M 20.5 36 L 22.5 40 L 24 39.5 Q 22.8 42.3 21.5 40 Q 18.9 39.3 20 42 L 17.5 42 L 16.5 40 Q 17.8 42.3 19 39.5 L 14 37.5 L 17.5 37 Q 19 39.5 20.5 36 Z " /><path fill="rgb(95,30,18)" stroke="rgb(95,30,18)" stroke-width="1" opacity="1" d="M 25.5 36 L 28 36.5 L 25.5 37 L 25.5 36 Z " /><path fill="rgb(95,30,18)" stroke="rgb(95,30,18)" stroke-width="1" opacity="1" d="M 6.5 37 Q 9.3 38.3 7 39.5 Q 8.3 43.3 4.5 42 L 3 42.5 L 6.5 37 Z " /><path fill="rgb(95,30,18)" stroke="rgb(95,30,18)" stroke-width="1" opacity="1" d="M 25.5 38 Q 27.8 37.3 27 39.5 L 27.5 41 Q 25.3 41.8 26 39.5 L 25.5 38 Z " /><path fill="rgb(247,221,71)" stroke="rgb(247,221,71)" stroke-width="1" opacity="1" d="M 12.5 3 Q 18.6 1.8 18 4.5 L 16.5 4 Q 11.5 5 12.5 3 Z " /><path fill="rgb(247,221,71)" stroke="rgb(247,221,71)" stroke-width="1" opacity="1" d="M 17.5 11 L 18.5 13 L 17.5 11 Z " /><path fill="rgb(247,221,71)" stroke="rgb(247,221,71)" stroke-width="1" opacity="1" d="M 10.5 40 L 14 40.5 L 10.5 41 L 10.5 40 Z " /><path fill="rgb(247,221,71)" stroke="rgb(247,221,71)" stroke-width="1" opacity="1" d="M 2.5 42 L 4.5 43 L 5.5 42 L 22 42 L 24 45.5 L 23 48 L 17.5 46 Q 11.9 49.6 2 48 L 2.5 42 Z M 22 44 Q 20 47 23 46 L 22 44 Z " /><path fill="rgb(247,221,71)" stroke="rgb(247,221,71)" stroke-width="1" opacity="1" d="M 26.5 42 L 27.5 44 L 26.5 42 Z " /><path fill="rgb(77,70,56)" stroke="rgb(77,70,56)" stroke-width="1" opacity="1" d="M 14.5 15 L 16 15.5 L 13.5 17 L 14.5 15 Z " /><path fill="rgb(77,70,56)" stroke="rgb(77,70,56)" stroke-width="1" opacity="1" d="M 20.5 18 L 22 20.5 L 21 20.5 L 20.5 18 Z " /><path fill="rgb(77,70,56)" stroke="rgb(77,70,56)" stroke-width="1" opacity="1" d="M 10.5 23 L 13 25.5 L 12 26.5 L 13.5 29 L 11 26.5 L 12 25.5 L 10.5 23 Z " /><path fill="rgb(77,70,56)" stroke="rgb(77,70,56)" stroke-width="1" opacity="1" d="M 21.5 25 L 22.5 33 L 24 32.5 L 23.5 35 L 22 34.5 L 24 38.5 L 21 40.5 L 21 38.5 L 20 34.5 L 21 31.5 L 21.5 25 Z " /><path fill="rgb(77,70,56)" stroke="rgb(77,70,56)" stroke-width="1" opacity="1" d="M 8.5 26 Q 11.5 25.1 10 29.5 L 8.5 32 L 8 29.5 L 9 27.5 L 8.5 26 Z " /><path fill="rgb(77,70,56)" stroke="rgb(77,70,56)" stroke-width="1" opacity="1" d="M 11.5 33 L 12.5 35 L 11.5 33 Z " /><path fill="rgb(77,70,56)" stroke="rgb(77,70,56)" stroke-width="1" opacity="1" d="M 6.5 34 L 5.5 36 L 6.5 34 Z " /><path fill="rgb(77,70,56)" stroke="rgb(77,70,56)" stroke-width="1" opacity="1" d="M 9.5 34 L 10.5 36 Q 7.7 36.7 9.5 34 Z " /><path fill="rgb(77,70,56)" stroke="rgb(77,70,56)" stroke-width="1" opacity="1" d="M 25.5 34 L 28 35.5 L 25 36 L 25.5 34 Z " /><path fill="rgb(77,70,56)" stroke="rgb(77,70,56)" stroke-width="1" opacity="1" d="M 13.5 36 L 14 38 L 12 37.5 L 13.5 36 Z " /><path fill="rgb(146,149,120)" stroke="rgb(146,149,120)" stroke-width="1" opacity="1" d="M 19.5 15 L 22 16.5 L 20 17.5 L 20.5 16 L 17.5 18 L 19.5 15 Z " /><path fill="rgb(146,149,120)" stroke="rgb(146,149,120)" stroke-width="1" opacity="1" d="M 12.5 19 L 14 19.5 L 11.5 21 L 12.5 19 Z " /><path fill="rgb(146,149,120)" stroke="rgb(146,149,120)" stroke-width="1" opacity="1" d="M 16.5 19 Q 19.5 20.5 16.5 22 Q 13.5 20.5 16.5 19 Z " /><path fill="rgb(146,149,120)" stroke="rgb(146,149,120)" stroke-width="1" opacity="1" d="M 19.5 19 L 20.5 21 Q 17.7 21.7 19.5 19 Z " /><path fill="rgb(146,149,120)" stroke="rgb(146,149,120)" stroke-width="1" opacity="1" d="M 13 22 Q 15.7 20.9 15 23.5 L 17 23.5 L 14 24.5 L 13.5 26 L 13 22 Z " /><path fill="rgb(146,149,120)" stroke="rgb(146,149,120)" stroke-width="1" opacity="1" d="M 9.5 24 L 8.5 26 L 7 25.5 L 9.5 24 Z " /><path fill="rgb(146,149,120)" stroke="rgb(146,149,120)" stroke-width="1" opacity="1" d="M 7.5 29 L 6.5 31 L 5 30.5 L 7.5 29 Z " /><path fill="rgb(146,149,120)" stroke="rgb(146,149,120)" stroke-width="1" opacity="1" d="M 10.5 31 L 11.5 33 L 10.5 31 Z " /><path fill="rgb(146,149,120)" stroke="rgb(146,149,120)" stroke-width="1" opacity="1" d="M 20.5 31 L 19.5 33 L 20.5 31 Z " /><path fill="rgb(146,149,120)" stroke="rgb(146,149,120)" stroke-width="1" opacity="1" d="M 9.5 39 L 12 39.5 L 9.5 40 L 9.5 39 Z " /></svg>