<svg width="30" height="50" version="1.1" xmlns="http://www.w3.org/2000/svg" desc="Created with imagetracer.js version 1.2.6" ><path fill="rgb(253,252,253)" stroke="rgb(253,252,253)" stroke-width="1" opacity="1" d="M 1.5 0 L 6 0.5 L 1 1.5 L 2 2.5 L 2 22.5 L 1 23.5 L 0.5 42 L 0 23.5 Q 2.3 22.2 1 17.5 L 0 15.5 L 1 11.5 L 0 8.5 L 1 3.5 L 0 1.5 L 1.5 0 Z " /><path fill="rgb(253,252,253)" stroke="rgb(253,252,253)" stroke-width="1" opacity="1" d="M 3.5 2 L 8 3.5 L 4.5 4 L 3.5 2 Z " /><path fill="rgb(253,252,253)" stroke="rgb(253,252,253)" stroke-width="1" opacity="1" d="M 7.5 5 L 9 5.5 L 4.5 8 L 5.5 6 L 7.5 5 Z " /><path fill="rgb(253,252,253)" stroke="rgb(253,252,253)" stroke-width="1" opacity="1" d="M 4 9 L 6 9.5 L 4 10.5 L 4 9 Z " /><path fill="rgb(253,252,253)" stroke="rgb(253,252,253)" stroke-width="1" opacity="1" d="M 4 12 L 6 12.5 L 4.5 15 L 6 15.5 L 4.5 16 Q 1.7 14.8 4 13.5 L 4 12 Z " /><path fill="rgb(253,252,253)" stroke="rgb(253,252,253)" stroke-width="1" opacity="1" d="M 9.5 12 L 11 12.5 L 9 13 Q 10 16.8 7.5 18 L 8 16.5 Q 7.3 12.8 9.5 12 Z " /><path fill="rgb(253,252,253)" stroke="rgb(253,252,253)" stroke-width="1" opacity="1" d="M 15 14 L 19 15.5 L 18.5 17 L 18 15 L 15.5 16 L 15 14 Z " /><path fill="rgb(253,252,253)" stroke="rgb(253,252,253)" stroke-width="1" opacity="1" d="M 28.5 14 L 27.5 16 L 28.5 14 Z " /><path fill="rgb(253,252,253)" stroke="rgb(253,252,253)" stroke-width="1" opacity="1" d="M 29.5 22 L 30 27.5 L 29 27.5 L 29.5 22 Z " /><path fill="rgb(253,252,253)" stroke="rgb(253,252,253)" stroke-width="1" opacity="1" d="M 21.5 24 L 22 26.5 L 21 26.5 L 21.5 24 Z " /><path fill="rgb(253,252,253)" stroke="rgb(253,252,253)" stroke-width="1" opacity="1" d="M 29.5 29 L 29 30.5 Q 27.8 35.3 30 36.5 L 29 38.5 Q 31.8 40.3 30 46.5 L 29 46.5 L 28 30.5 L 29.5 29 Z " /><path fill="rgb(253,252,253)" stroke="rgb(253,252,253)" stroke-width="1" opacity="1" d="M 0.5 43 L 1 49 L 3 49.5 L 1.5 50 Q -1.6 48.4 0.5 43 Z " /><path fill="rgb(253,252,253)" stroke="rgb(253,252,253)" stroke-width="1" opacity="1" d="M 4.5 49 L 8 49.5 L 4.5 50 L 4.5 49 Z " /><path fill="rgb(255,253,255)" stroke="rgb(255,253,255)" stroke-width="1" opacity="1" d="M 6.5 0 L 26 0.5 L 6.5 1 L 6.5 0 Z " /><path fill="rgb(255,253,255)" stroke="rgb(255,253,255)" stroke-width="1" opacity="1" d="M 6.5 2 L 11.5 2 Q 10.7 5.5 17 4 L 17.5 2 L 30 2 L 29.5 18 L 27.5 15 L 22.5 14 L 18.5 15 L 13.5 12 L 9.5 12 L 8 15 L 4 14.5 Q 7.5 13 5 11.5 L 6 9.5 L 5 7 L 7 6.5 L 5 5.5 L 8 3.5 L 6.5 2 Z " /><path fill="rgb(255,253,255)" stroke="rgb(255,253,255)" stroke-width="1" opacity="1" d="M 0.5 11 L 1 14.5 L 0 14.5 L 0.5 11 Z " /><path fill="rgb(255,253,255)" stroke="rgb(255,253,255)" stroke-width="1" opacity="1" d="M 0.5 17 L 1 22.5 L 0 22.5 L 0.5 17 Z " /><path fill="rgb(255,253,255)" stroke="rgb(255,253,255)" stroke-width="1" opacity="1" d="M 29.5 30 L 30 35.5 L 29 35.5 L 29.5 30 Z " /><path fill="rgb(255,253,255)" stroke="rgb(255,253,255)" stroke-width="1" opacity="1" d="M 11.5 49 L 15 49.5 L 11.5 50 L 11.5 49 Z " /><path fill="rgb(255,253,255)" stroke="rgb(255,253,255)" stroke-width="1" opacity="1" d="M 21.5 49 L 24 49.5 L 21.5 50 L 21.5 49 Z " /><path fill="rgb(255,253,255)" stroke="rgb(255,253,255)" stroke-width="1" opacity="1" d="M 25.5 49 L 30 49.5 L 25.5 50 L 25.5 49 Z " /><path fill="rgb(209,235,239)" stroke="rgb(209,235,239)" stroke-width="1" opacity="1" d="M 21.5 18 L 24 19.5 L 22.5 19 L 21.5 18 Z " /><path fill="rgb(209,235,239)" stroke="rgb(209,235,239)" stroke-width="1" opacity="1" d="M 19.5 20 L 21 22.5 L 21 24.5 L 20.5 27 Q 18.1 24.3 19.5 20 Z " /><path fill="rgb(209,235,239)" stroke="rgb(209,235,239)" stroke-width="1" opacity="1" d="M 17.5 47 L 20 48.5 L 18.5 49 L 16.5 49 L 10 48.5 L 17.5 47 Z " /><path fill="rgb(135,51,27)" stroke="rgb(135,51,27)" stroke-width="1" opacity="1" d="M 10 18 L 13 19.5 L 14 21.5 L 12 20.5 L 11.5 19 L 10 19.5 L 10 18 Z " /><path fill="rgb(135,51,27)" stroke="rgb(135,51,27)" stroke-width="1" opacity="1" d="M 12.5 23 L 15 24.5 L 13.5 24 L 12.5 23 Z " /><path fill="rgb(135,51,27)" stroke="rgb(135,51,27)" stroke-width="1" opacity="1" d="M 13.5 29 L 15 31.5 L 14 33.5 L 15 35.5 L 14 35.5 L 12 32.5 Q 15.1 30.7 13.5 29 Z " /><path fill="rgb(135,51,27)" stroke="rgb(135,51,27)" stroke-width="1" opacity="1" d="M 10.5 34 Q 13.3 35.3 11 36.5 L 10.5 38 L 10 36.5 L 10.5 34 Z " /><path fill="rgb(135,51,27)" stroke="rgb(135,51,27)" stroke-width="1" opacity="1" d="M 13 37 L 16 37.5 L 15.5 39 L 17 39.5 L 13 40 L 13 37 Z " /><path fill="rgb(135,51,27)" stroke="rgb(135,51,27)" stroke-width="1" opacity="1" d="M 11.5 40 L 12.5 42 L 11.5 40 Z " /><path fill="rgb(135,51,27)" stroke="rgb(135,51,27)" stroke-width="1" opacity="1" d="M 27.5 43 L 26.5 45 L 27.5 43 Z " /><path fill="rgb(135,51,27)" stroke="rgb(135,51,27)" stroke-width="1" opacity="1" d="M 5.5 45 L 8 45.5 L 4.5 47 L 5.5 45 Z " /><path fill="rgb(135,51,27)" stroke="rgb(135,51,27)" stroke-width="1" opacity="1" d="M 24.5 45 L 28 46.5 L 24 47 L 24.5 45 Z " /><path fill="rgb(243,241,243)" stroke="rgb(243,241,243)" stroke-width="1" opacity="1" d="M 2.5 12 L 3 14.5 L 2 14.5 L 2.5 12 Z " /><path fill="rgb(243,241,243)" stroke="rgb(243,241,243)" stroke-width="1" opacity="1" d="M 5.5 16 L 6.5 18 L 5.5 16 Z " /><path fill="rgb(243,241,243)" stroke="rgb(243,241,243)" stroke-width="1" opacity="1" d="M 28.5 18 L 29 22.5 L 28 22.5 L 28.5 18 Z " /><path fill="rgb(243,241,243)" stroke="rgb(243,241,243)" stroke-width="1" opacity="1" d="M 7.5 19 L 7 20.5 L 6.5 24 L 6 20.5 L 7.5 19 Z " /><path fill="rgb(243,241,243)" stroke="rgb(243,241,243)" stroke-width="1" opacity="1" d="M 18.5 19 L 19 21.5 L 18 21.5 L 18.5 19 Z " /><path fill="rgb(243,241,243)" stroke="rgb(243,241,243)" stroke-width="1" opacity="1" d="M 1.5 23 L 2 25.5 L 1 25.5 L 1.5 23 Z " /><path fill="rgb(243,241,243)" stroke="rgb(243,241,243)" stroke-width="1" opacity="1" d="M 24.5 28 L 25 30.5 L 24 30.5 L 24.5 28 Z " /><path fill="rgb(243,241,243)" stroke="rgb(243,241,243)" stroke-width="1" opacity="1" d="M 21.5 32 L 22 34.5 L 21 34.5 L 21.5 32 Z " /><path fill="rgb(243,241,243)" stroke="rgb(243,241,243)" stroke-width="1" opacity="1" d="M 2.5 33 L 3 37.5 L 2 37.5 L 2.5 33 Z " /><path fill="rgb(243,241,243)" stroke="rgb(243,241,243)" stroke-width="1" opacity="1" d="M 28.5 42 L 29 46.5 L 28 46.5 L 28.5 42 Z " /><path fill="rgb(252,249,251)" stroke="rgb(252,249,251)" stroke-width="1" opacity="1" d="M 2.5 2 L 6 4.5 L 4 7.5 L 4 9.5 L 5 11.5 L 3.5 14 Q 1.3 12.3 2 7.5 L 3 5.5 L 2.5 2 Z " /><path fill="rgb(252,249,251)" stroke="rgb(252,249,251)" stroke-width="1" opacity="1" d="M 2 15 L 6 17.5 L 4.5 17 Q 1.9 16.2 3 19.5 L 2 19.5 L 2 15 Z " /><path fill="rgb(201,205,206)" stroke="rgb(201,205,206)" stroke-width="1" opacity="1" d="M 11.5 1 L 14 1.5 L 11.5 2 L 11.5 1 Z " /><path fill="rgb(201,205,206)" stroke="rgb(201,205,206)" stroke-width="1" opacity="1" d="M 9.5 15 L 10 16.5 L 8 17.5 L 9.5 15 Z " /><path fill="rgb(201,205,206)" stroke="rgb(201,205,206)" stroke-width="1" opacity="1" d="M 26.5 16 L 25.5 20 L 22 17.5 L 26.5 16 Z " /><path fill="rgb(201,205,206)" stroke="rgb(201,205,206)" stroke-width="1" opacity="1" d="M 8.5 19 L 8 20.5 L 9 22.5 L 7 23 L 8.5 19 Z " /><path fill="rgb(201,205,206)" stroke="rgb(201,205,206)" stroke-width="1" opacity="1" d="M 22.5 20 L 23 24.5 L 22 24.5 L 22.5 20 Z " /><path fill="rgb(201,205,206)" stroke="rgb(201,205,206)" stroke-width="1" opacity="1" d="M 16.5 21 L 20 28.5 L 18 27.5 L 16.5 21 Z " /><path fill="rgb(201,205,206)" stroke="rgb(201,205,206)" stroke-width="1" opacity="1" d="M 5.5 22 L 6 27.5 L 5 27.5 L 5.5 22 Z " /><path fill="rgb(201,205,206)" stroke="rgb(201,205,206)" stroke-width="1" opacity="1" d="M 8.5 25 L 10 28.5 L 8 27.5 L 8.5 25 Z " /><path fill="rgb(201,205,206)" stroke="rgb(201,205,206)" stroke-width="1" opacity="1" d="M 11.5 25 L 14 26.5 L 12.5 26 L 11.5 25 Z " /><path fill="rgb(201,205,206)" stroke="rgb(201,205,206)" stroke-width="1" opacity="1" d="M 4.5 29 L 5 31.5 L 4 31.5 L 4.5 29 Z " /><path fill="rgb(201,205,206)" stroke="rgb(201,205,206)" stroke-width="1" opacity="1" d="M 20.5 30 L 21.5 32 L 20.5 30 Z " /><path fill="rgb(201,205,206)" stroke="rgb(201,205,206)" stroke-width="1" opacity="1" d="M 23.5 32 L 25 35.5 L 23.5 41 L 23.5 32 Z " /><path fill="rgb(201,205,206)" stroke="rgb(201,205,206)" stroke-width="1" opacity="1" d="M 18.5 33 L 19 37 L 16 36.5 L 18 35.5 Q 15.8 34.3 18.5 33 Z " /><path fill="rgb(201,205,206)" stroke="rgb(201,205,206)" stroke-width="1" opacity="1" d="M 3.5 38 L 7 39.5 L 4.5 40 L 3.5 38 Z " /><path fill="rgb(201,205,206)" stroke="rgb(201,205,206)" stroke-width="1" opacity="1" d="M 12.5 43 L 13.5 45 L 12.5 43 Z " /><path fill="rgb(201,205,206)" stroke="rgb(201,205,206)" stroke-width="1" opacity="1" d="M 22.5 48 L 28 48.5 L 22.5 49 L 22.5 48 Z " /><path fill="rgb(90,22,15)" stroke="rgb(90,22,15)" stroke-width="1" opacity="1" d="M 12 28 L 15 28.5 L 13 29.5 Q 15.3 30.8 12.5 32 L 12 28 Z " /><path fill="rgb(90,22,15)" stroke="rgb(90,22,15)" stroke-width="1" opacity="1" d="M 15 40 L 17 40.5 L 15 41.5 L 15 40 Z " /><path fill="rgb(90,22,15)" stroke="rgb(90,22,15)" stroke-width="1" opacity="1" d="M 26.5 41 L 27.5 43 Q 24.7 43.7 26.5 41 Z " /><path fill="rgb(164,169,172)" stroke="rgb(164,169,172)" stroke-width="1" opacity="1" d="M 14.5 1 L 20 1.5 L 17 2 L 16.5 4 L 15.5 2 L 13 3.5 L 14.5 1 Z " /><path fill="rgb(164,169,172)" stroke="rgb(164,169,172)" stroke-width="1" opacity="1" d="M 13.5 14 Q 15.8 13.3 15 15.5 L 12 15.5 L 13.5 14 Z " /><path fill="rgb(164,169,172)" stroke="rgb(164,169,172)" stroke-width="1" opacity="1" d="M 16.5 15 L 18 17.5 L 16 18 L 16.5 15 Z " /><path fill="rgb(164,169,172)" stroke="rgb(164,169,172)" stroke-width="1" opacity="1" d="M 4.5 18 Q 6.8 17.3 6 19.5 L 4 20.5 L 4.5 18 Z " /><path fill="rgb(164,169,172)" stroke="rgb(164,169,172)" stroke-width="1" opacity="1" d="M 23.5 18 L 22.5 20 L 23.5 18 Z " /><path fill="rgb(164,169,172)" stroke="rgb(164,169,172)" stroke-width="1" opacity="1" d="M 15.5 21 L 17 24 L 15 23.5 L 15.5 21 Z " /><path fill="rgb(164,169,172)" stroke="rgb(164,169,172)" stroke-width="1" opacity="1" d="M 7 23 L 10 24.5 L 8 24.5 L 7.5 30 L 7 23 Z " /><path fill="rgb(164,169,172)" stroke="rgb(164,169,172)" stroke-width="1" opacity="1" d="M 25.5 24 Q 28.1 23.2 27 26.5 Q 29.3 27.8 26.5 29 L 25.5 24 Z " /><path fill="rgb(164,169,172)" stroke="rgb(164,169,172)" stroke-width="1" opacity="1" d="M 15.5 25 L 16 27.5 L 13 27.5 L 15.5 25 Z " /><path fill="rgb(164,169,172)" stroke="rgb(164,169,172)" stroke-width="1" opacity="1" d="M 22.5 25 L 24 27.5 L 22 26.5 L 22.5 25 Z " /><path fill="rgb(164,169,172)" stroke="rgb(164,169,172)" stroke-width="1" opacity="1" d="M 17.5 26 L 20 29.5 L 17.5 34 L 17.5 26 Z " /><path fill="rgb(164,169,172)" stroke="rgb(164,169,172)" stroke-width="1" opacity="1" d="M 4.5 28 Q 7.5 27.1 6 31.5 L 5 31.5 L 4.5 28 Z " /><path fill="rgb(164,169,172)" stroke="rgb(164,169,172)" stroke-width="1" opacity="1" d="M 20.5 32 L 21 35.5 L 20 35.5 L 20.5 32 Z " /><path fill="rgb(164,169,172)" stroke="rgb(164,169,172)" stroke-width="1" opacity="1" d="M 7.5 34 L 8 36.5 L 7 36.5 L 7.5 34 Z " /><path fill="rgb(164,169,172)" stroke="rgb(164,169,172)" stroke-width="1" opacity="1" d="M 5.5 35 L 6 38.5 L 5 38.5 L 5.5 35 Z " /><path fill="rgb(164,169,172)" stroke="rgb(164,169,172)" stroke-width="1" opacity="1" d="M 25.5 35 L 26 36.5 L 24 37.5 L 25.5 35 Z " /><path fill="rgb(164,169,172)" stroke="rgb(164,169,172)" stroke-width="1" opacity="1" d="M 13.5 43 L 16 43.5 Q 13.9 46.8 13.5 43 Z " /><path fill="rgb(164,169,172)" stroke="rgb(164,169,172)" stroke-width="1" opacity="1" d="M 20.5 43 L 24 43.5 L 20.5 44 L 20.5 43 Z " /><path fill="rgb(222,224,223)" stroke="rgb(222,224,223)" stroke-width="1" opacity="1" d="M 17.5 21 L 21 27.5 L 19 26.5 L 17.5 21 Z " /><path fill="rgb(222,224,223)" stroke="rgb(222,224,223)" stroke-width="1" opacity="1" d="M 6.5 24 L 7 31.5 L 6 31.5 L 6.5 24 Z " /><path fill="rgb(222,224,223)" stroke="rgb(222,224,223)" stroke-width="1" opacity="1" d="M 28.5 24 L 29 27.5 L 28 27.5 L 28.5 24 Z " /><path fill="rgb(222,224,223)" stroke="rgb(222,224,223)" stroke-width="1" opacity="1" d="M 24.5 27 Q 26.8 26.3 26 28.5 L 23 28.5 L 24.5 27 Z " /><path fill="rgb(222,224,223)" stroke="rgb(222,224,223)" stroke-width="1" opacity="1" d="M 1.5 28 Q 3.8 28.8 3 32.5 L 1.5 37 L 1 32.5 L 1 30.5 L 1.5 28 Z " /><path fill="rgb(222,224,223)" stroke="rgb(222,224,223)" stroke-width="1" opacity="1" d="M 27.5 29 L 28 34.5 L 27 34.5 L 27.5 29 Z " /><path fill="rgb(222,224,223)" stroke="rgb(222,224,223)" stroke-width="1" opacity="1" d="M 23.5 30 L 24.5 32 Q 21.7 32.7 23.5 30 Z " /><path fill="rgb(222,224,223)" stroke="rgb(222,224,223)" stroke-width="1" opacity="1" d="M 4.5 32 L 5 37.5 L 4 37.5 L 4.5 32 Z " /><path fill="rgb(222,224,223)" stroke="rgb(222,224,223)" stroke-width="1" opacity="1" d="M 6.5 33 L 7 36.5 L 6 36.5 L 6.5 33 Z " /><path fill="rgb(222,224,223)" stroke="rgb(222,224,223)" stroke-width="1" opacity="1" d="M 21.5 35 L 22 37.5 L 21 37.5 L 21.5 35 Z " /><path fill="rgb(222,224,223)" stroke="rgb(222,224,223)" stroke-width="1" opacity="1" d="M 27.5 36 L 28 38.5 L 27 38.5 L 27.5 36 Z " /><path fill="rgb(222,224,223)" stroke="rgb(222,224,223)" stroke-width="1" opacity="1" d="M 1.5 39 L 2 44.5 L 1 44.5 L 1.5 39 Z " /><path fill="rgb(222,224,223)" stroke="rgb(222,224,223)" stroke-width="1" opacity="1" d="M 7.5 48 L 10 48.5 L 7.5 49 L 7.5 48 Z " /><path fill="rgb(195,152,97)" stroke="rgb(195,152,97)" stroke-width="1" opacity="1" d="M 12.5 16 L 13 18 L 11 17.5 L 12.5 16 Z " /><path fill="rgb(195,152,97)" stroke="rgb(195,152,97)" stroke-width="1" opacity="1" d="M 14.5 17 L 15.5 19 L 14.5 17 Z " /><path fill="rgb(195,152,97)" stroke="rgb(195,152,97)" stroke-width="1" opacity="1" d="M 15.5 31 L 16 35.5 L 15 35.5 L 15.5 31 Z " /><path fill="rgb(195,152,97)" stroke="rgb(195,152,97)" stroke-width="1" opacity="1" d="M 10.5 39 L 11 42 L 14 42.5 L 12 43 L 13 45.5 L 9.5 46 Q 8.4 43.3 5 44 L 6.5 40 L 7 41.5 L 6.5 43 L 11 42.5 L 8 40.5 L 10 40.5 L 10.5 39 Z " /><path fill="rgb(195,152,97)" stroke="rgb(195,152,97)" stroke-width="1" opacity="1" d="M 2.5 41 L 3 43.5 L 2 43.5 L 2.5 41 Z " /><path fill="rgb(195,152,97)" stroke="rgb(195,152,97)" stroke-width="1" opacity="1" d="M 15.5 42 L 20 42.5 L 15.5 43 L 15.5 42 Z " /><path fill="rgb(195,152,97)" stroke="rgb(195,152,97)" stroke-width="1" opacity="1" d="M 21.5 44 L 26 44.5 L 22 46.5 L 22.5 48 L 20 47.5 L 20.5 46 L 18 45.5 L 21.5 44 Z " /><path fill="rgb(195,152,97)" stroke="rgb(195,152,97)" stroke-width="1" opacity="1" d="M 2.5 46 L 4.5 47 L 6.5 47 L 9 47.5 Q 7.3 49.8 2.5 49 L 2.5 46 Z " /><path fill="rgb(195,152,97)" stroke="rgb(195,152,97)" stroke-width="1" opacity="1" d="M 25.5 47 L 28 47.5 L 25.5 48 L 25.5 47 Z " /><path fill="rgb(199,66,35)" stroke="rgb(199,66,35)" stroke-width="1" opacity="1" d="M 13.5 17 L 15 21 L 10 22 L 9 18.5 L 10 18.5 L 10.5 20 L 13.5 17 Z M 13 19 L 11 21 L 13 21 L 13 19 Z " /><path fill="rgb(199,66,35)" stroke="rgb(199,66,35)" stroke-width="1" opacity="1" d="M 10.5 23 L 14 24.5 L 12.5 25 L 10.5 23 Z " /><path fill="rgb(199,66,35)" stroke="rgb(199,66,35)" stroke-width="1" opacity="1" d="M 10.5 30 Q 13.1 29.2 12 32.5 L 15 36.5 L 13 37 Q 11.5 40.7 14.5 40 L 13.5 42 L 11 41.5 L 11 37.5 L 10 35.5 L 10 33.5 L 11 31.5 L 10.5 30 Z " /><path fill="rgb(110,111,115)" stroke="rgb(110,111,115)" stroke-width="1" opacity="1" d="M 4.5 1 L 7 1.5 L 4.5 2 L 4.5 1 Z " /><path fill="rgb(110,111,115)" stroke="rgb(110,111,115)" stroke-width="1" opacity="1" d="M 20.5 1 L 24 1.5 L 20.5 2 L 20.5 1 Z " /><path fill="rgb(110,111,115)" stroke="rgb(110,111,115)" stroke-width="1" opacity="1" d="M 10.5 14 L 13 14.5 Q 10.9 17.8 10.5 14 Z " /><path fill="rgb(110,111,115)" stroke="rgb(110,111,115)" stroke-width="1" opacity="1" d="M 19.5 16 L 20 19 L 18 18.5 L 19.5 16 Z " /><path fill="rgb(110,111,115)" stroke="rgb(110,111,115)" stroke-width="1" opacity="1" d="M 6.5 18 L 9 18.5 L 6.5 19 L 6.5 18 Z " /><path fill="rgb(110,111,115)" stroke="rgb(110,111,115)" stroke-width="1" opacity="1" d="M 24.5 19 L 27 20.5 L 26 23 Q 28.7 21.9 28 24.5 L 26.5 24 Q 23.5 24.9 25 20.5 L 24.5 19 Z " /><path fill="rgb(110,111,115)" stroke="rgb(110,111,115)" stroke-width="1" opacity="1" d="M 4.5 23 L 5 27.5 L 3.5 31 L 2 27.5 L 4 27.5 L 4.5 23 Z " /><path fill="rgb(110,111,115)" stroke="rgb(110,111,115)" stroke-width="1" opacity="1" d="M 22.5 27 L 23 28.5 L 22.5 31 Q 19.9 31.8 21 28.5 L 22.5 27 Z " /><path fill="rgb(110,111,115)" stroke="rgb(110,111,115)" stroke-width="1" opacity="1" d="M 26.5 29 L 27 31.5 L 25.5 35 L 25 31.5 L 26.5 29 Z " /><path fill="rgb(110,111,115)" stroke="rgb(110,111,115)" stroke-width="1" opacity="1" d="M 7.5 30 L 8 33.5 L 7 33.5 L 7.5 30 Z " /><path fill="rgb(110,111,115)" stroke="rgb(110,111,115)" stroke-width="1" opacity="1" d="M 5.5 32 L 6 34.5 L 5 34.5 L 5.5 32 Z " /><path fill="rgb(110,111,115)" stroke="rgb(110,111,115)" stroke-width="1" opacity="1" d="M 22.5 32 L 23 37.5 L 22 37.5 L 22.5 32 Z " /><path fill="rgb(110,111,115)" stroke="rgb(110,111,115)" stroke-width="1" opacity="1" d="M 19.5 33 L 21 40.5 L 19 39.5 Q 19.8 37.3 17.5 38 L 17.5 37 L 19 37 L 19.5 33 Z " /><path fill="rgb(110,111,115)" stroke="rgb(110,111,115)" stroke-width="1" opacity="1" d="M 6.5 37 L 9 37.5 L 6.5 38 L 6.5 37 Z " /><path fill="rgb(110,111,115)" stroke="rgb(110,111,115)" stroke-width="1" opacity="1" d="M 3 42 L 5 42.5 L 4.5 45 L 3 42 Z " /><path fill="rgb(110,111,115)" stroke="rgb(110,111,115)" stroke-width="1" opacity="1" d="M 14.5 42 L 16 44.5 L 15 46.5 L 15.5 48 L 13 46.5 Q 12.3 44.3 14.5 45 L 14 43.5 L 14.5 42 Z " /><path fill="rgb(110,111,115)" stroke="rgb(110,111,115)" stroke-width="1" opacity="1" d="M 25.5 42 L 24.5 44 L 25.5 42 Z " /><path fill="rgb(110,111,115)" stroke="rgb(110,111,115)" stroke-width="1" opacity="1" d="M 20.5 46 L 19.5 48 L 20.5 46 Z " /><path fill="rgb(77,69,69)" stroke="rgb(77,69,69)" stroke-width="1" opacity="1" d="M 24.5 1 L 28 1.5 L 24.5 2 L 24.5 1 Z " /><path fill="rgb(77,69,69)" stroke="rgb(77,69,69)" stroke-width="1" opacity="1" d="M 12.5 13 L 14 13.5 L 11 15.5 L 10.5 17 L 10 15.5 L 12.5 13 Z " /><path fill="rgb(77,69,69)" stroke="rgb(77,69,69)" stroke-width="1" opacity="1" d="M 17.5 18 L 16.5 20 L 17.5 18 Z " /><path fill="rgb(77,69,69)" stroke="rgb(77,69,69)" stroke-width="1" opacity="1" d="M 26.5 19 Q 29.5 18.1 28 22.5 L 27 22.5 L 26.5 19 Z " /><path fill="rgb(77,69,69)" stroke="rgb(77,69,69)" stroke-width="1" opacity="1" d="M 14.5 21 L 13.5 23 L 14.5 21 Z " /><path fill="rgb(77,69,69)" stroke="rgb(77,69,69)" stroke-width="1" opacity="1" d="M 2.5 26 L 3.5 28 L 2.5 26 Z " /><path fill="rgb(77,69,69)" stroke="rgb(77,69,69)" stroke-width="1" opacity="1" d="M 20.5 31 L 19.5 33 L 20.5 31 Z " /><path fill="rgb(77,69,69)" stroke="rgb(77,69,69)" stroke-width="1" opacity="1" d="M 26.5 32 L 27 40.5 L 28 41.5 L 26 40.5 L 26.5 32 Z " /><path fill="rgb(77,69,69)" stroke="rgb(77,69,69)" stroke-width="1" opacity="1" d="M 9.5 37 L 10 39 L 6 38.5 L 9.5 37 Z " /><path fill="rgb(77,69,69)" stroke="rgb(77,69,69)" stroke-width="1" opacity="1" d="M 17.5 40 L 21 41.5 L 18.5 42 L 17.5 40 Z " /><path fill="rgb(77,69,69)" stroke="rgb(77,69,69)" stroke-width="1" opacity="1" d="M 3.5 44 L 4.5 46 L 3.5 44 Z " /><path fill="rgb(77,69,69)" stroke="rgb(77,69,69)" stroke-width="1" opacity="1" d="M 15.5 46 L 18 46.5 L 15.5 47 L 15.5 46 Z " /></svg>