<svg width="30" height="50" version="1.1" xmlns="http://www.w3.org/2000/svg" desc="Created with imagetracer.js version 1.2.6" ><path fill="rgb(222,237,240)" stroke="rgb(222,237,240)" stroke-width="1" opacity="1" d="M 0 0 L 30 0 L 30 50 L 0 50 L 0 0 Z M 2 1 L 2 14 L 5 15 L 2 15 Q 0 21 6 19 L 6 21 L 2 20 L 2 47 L 28 47 L 28 37 L 26 35 L 28 35 L 28 1 L 2 1 Z M 3 48 L 3 49 L 13 49 L 3 48 Z " /><path fill="rgb(222,237,240)" stroke="rgb(222,237,240)" stroke-width="1" opacity="1" d="M 5 5 L 7 5.5 L 5 6.5 L 5 5 Z " /><path fill="rgb(222,237,240)" stroke="rgb(222,237,240)" stroke-width="1" opacity="1" d="M 7.5 8 L 14 8.5 L 7.5 9 L 7.5 8 Z " /><path fill="rgb(222,237,240)" stroke="rgb(222,237,240)" stroke-width="1" opacity="1" d="M 4.5 11 L 7 11.5 L 4.5 12 L 4.5 11 Z " /><path fill="rgb(222,237,240)" stroke="rgb(222,237,240)" stroke-width="1" opacity="1" d="M 8.5 11 L 13 11.5 L 8.5 12 L 8.5 11 Z " /><path fill="rgb(222,237,240)" stroke="rgb(222,237,240)" stroke-width="1" opacity="1" d="M 7.5 14 L 12 14.5 L 7.5 15 L 7.5 14 Z " /><path fill="rgb(222,237,240)" stroke="rgb(222,237,240)" stroke-width="1" opacity="1" d="M 14.5 16 L 24 16.5 L 14.5 17 L 14.5 16 Z " /><path fill="rgb(222,237,240)" stroke="rgb(222,237,240)" stroke-width="1" opacity="1" d="M 10.5 19 L 19 19.5 L 10.5 20 L 10.5 19 Z " /><path fill="rgb(222,237,240)" stroke="rgb(222,237,240)" stroke-width="1" opacity="1" d="M 9.5 22 L 15 22.5 L 9.5 23 L 9.5 22 Z " /><path fill="rgb(222,237,240)" stroke="rgb(222,237,240)" stroke-width="1" opacity="1" d="M 8.5 25 L 13 25.5 L 8.5 26 L 8.5 25 Z " /><path fill="rgb(222,237,240)" stroke="rgb(222,237,240)" stroke-width="1" opacity="1" d="M 15.5 25 L 17 29 L 13.5 30 L 13.5 29 L 16 27.5 L 15.5 25 Z " /><path fill="rgb(222,237,240)" stroke="rgb(222,237,240)" stroke-width="1" opacity="1" d="M 3.5 28 L 7 28.5 L 3.5 29 L 3.5 28 Z " /><path fill="rgb(222,237,240)" stroke="rgb(222,237,240)" stroke-width="1" opacity="1" d="M 6.5 36 L 11 36.5 L 6.5 37 L 6.5 36 Z " /><path fill="rgb(20,15,23)" stroke="rgb(20,15,23)" stroke-width="1" opacity="1" d="M 24.5 1 L 26.5 1 L 28 1 L 28 5 L 14 4.5 L 17 3.5 L 16.5 2 L 22.5 3 L 24.5 1 Z " /><path fill="rgb(20,15,23)" stroke="rgb(20,15,23)" stroke-width="1" opacity="1" d="M 8.5 2 L 10.5 2 Q 12.8 1.3 12 3.5 L 12.5 5 L 8.5 4 L 7 4.5 L 8.5 2 Z " /><path fill="rgb(20,15,23)" stroke="rgb(20,15,23)" stroke-width="1" opacity="1" d="M 20.5 6 L 25 7.5 L 19.5 8 L 20.5 6 Z " /><path fill="rgb(20,15,23)" stroke="rgb(20,15,23)" stroke-width="1" opacity="1" d="M 11.5 9 L 15.5 10 L 17 9.5 Q 17.9 12.9 12.5 11 L 11.5 9 Z " /><path fill="rgb(20,15,23)" stroke="rgb(20,15,23)" stroke-width="1" opacity="1" d="M 19.5 17 Q 23.3 16.3 24 18.5 L 22.5 18 Q 18.5 18.8 19.5 17 Z " /><path fill="rgb(20,15,23)" stroke="rgb(20,15,23)" stroke-width="1" opacity="1" d="M 20.5 26 L 23 26.5 L 20.5 27 L 20.5 26 Z " /><path fill="rgb(9,16,27)" stroke="rgb(9,16,27)" stroke-width="1" opacity="1" d="M 16.5 7 L 19 7.5 L 16.5 8 L 16.5 7 Z " /><path fill="rgb(9,16,27)" stroke="rgb(9,16,27)" stroke-width="1" opacity="1" d="M 8.5 10 L 12 10.5 L 8.5 11 L 8.5 10 Z " /><path fill="rgb(9,16,27)" stroke="rgb(9,16,27)" stroke-width="1" opacity="1" d="M 17.5 10 L 23 10.5 L 17.5 11 L 17.5 10 Z " /><path fill="rgb(9,16,27)" stroke="rgb(9,16,27)" stroke-width="1" opacity="1" d="M 25.5 10 L 28 10.5 L 25.5 11 L 25.5 10 Z " /><path fill="rgb(9,16,27)" stroke="rgb(9,16,27)" stroke-width="1" opacity="1" d="M 7.5 13 L 19 13.5 L 7.5 14 L 7.5 13 Z " /><path fill="rgb(9,16,27)" stroke="rgb(9,16,27)" stroke-width="1" opacity="1" d="M 21.5 13 L 28 13.5 L 23.5 15 L 21.5 13 Z " /><path fill="rgb(9,16,27)" stroke="rgb(9,16,27)" stroke-width="1" opacity="1" d="M 21.5 21 L 28 21.5 L 21.5 22 L 21.5 21 Z " /><path fill="rgb(15,27,38)" stroke="rgb(15,27,38)" stroke-width="1" opacity="1" d="M 19.5 1 L 24 1.5 L 19.5 2 L 19.5 1 Z " /><path fill="rgb(15,27,38)" stroke="rgb(15,27,38)" stroke-width="1" opacity="1" d="M 15.5 2 L 14.5 4 L 15.5 2 Z " /><path fill="rgb(15,27,38)" stroke="rgb(15,27,38)" stroke-width="1" opacity="1" d="M 10.5 7 L 16 7.5 L 10.5 8 L 10.5 7 Z " /><path fill="rgb(15,27,38)" stroke="rgb(15,27,38)" stroke-width="1" opacity="1" d="M 12.5 21 L 15 21.5 L 12.5 22 L 12.5 21 Z " /><path fill="rgb(15,27,38)" stroke="rgb(15,27,38)" stroke-width="1" opacity="1" d="M 17.5 21 L 21 21.5 L 17.5 22 L 17.5 21 Z " /><path fill="rgb(15,27,38)" stroke="rgb(15,27,38)" stroke-width="1" opacity="1" d="M 8.5 24 L 15 24.5 L 8.5 25 L 8.5 24 Z " /><path fill="rgb(15,27,38)" stroke="rgb(15,27,38)" stroke-width="1" opacity="1" d="M 22.5 24 L 27 24.5 L 22.5 25 L 22.5 24 Z " /><path fill="rgb(133,173,179)" stroke="rgb(133,173,179)" stroke-width="1" opacity="1" d="M 6.5 3 L 7 5 L 14 5.5 Q 6.3 4.8 3.5 9 L 3.5 8 L 7 5.5 L 6.5 3 Z " /><path fill="rgb(133,173,179)" stroke="rgb(133,173,179)" stroke-width="1" opacity="1" d="M 16.5 5 L 25 5.5 L 16.5 6 L 16.5 5 Z " /><path fill="rgb(133,173,179)" stroke="rgb(133,173,179)" stroke-width="1" opacity="1" d="M 14.5 8 L 19 8.5 L 14.5 9 L 14.5 8 Z " /><path fill="rgb(133,173,179)" stroke="rgb(133,173,179)" stroke-width="1" opacity="1" d="M 6.5 9 L 8 11.5 L 6 12.5 L 6 10.5 L 6.5 9 Z " /><path fill="rgb(133,173,179)" stroke="rgb(133,173,179)" stroke-width="1" opacity="1" d="M 13.5 11 L 18 11.5 L 13.5 12 L 13.5 11 Z " /><path fill="rgb(133,173,179)" stroke="rgb(133,173,179)" stroke-width="1" opacity="1" d="M 12.5 14 L 18 14.5 L 12.5 15 L 12.5 14 Z " /><path fill="rgb(133,173,179)" stroke="rgb(133,173,179)" stroke-width="1" opacity="1" d="M 9 16 L 14 16.5 L 9.5 18 L 9 16 Z " /><path fill="rgb(133,173,179)" stroke="rgb(133,173,179)" stroke-width="1" opacity="1" d="M 24.5 16 L 28 16.5 L 24.5 17 L 24.5 16 Z " /><path fill="rgb(133,173,179)" stroke="rgb(133,173,179)" stroke-width="1" opacity="1" d="M 5.5 18 L 10 19.5 L 7 20 L 8 22.5 L 5.5 24 Q 2.3 22.3 6 20.5 L 5.5 18 Z " /><path fill="rgb(133,173,179)" stroke="rgb(133,173,179)" stroke-width="1" opacity="1" d="M 19.5 19 L 25 19.5 L 19.5 20 L 19.5 19 Z " /><path fill="rgb(133,173,179)" stroke="rgb(133,173,179)" stroke-width="1" opacity="1" d="M 15.5 22 L 18 22.5 L 15.5 23 L 15.5 22 Z " /><path fill="rgb(133,173,179)" stroke="rgb(133,173,179)" stroke-width="1" opacity="1" d="M 2.5 25 L 5.5 26 L 7.5 25 L 7.5 26 L 6 26.5 Q 9.8 28.3 6.5 30 Q 8.2 28 4.5 26 Q 1.5 26.5 2.5 25 Z " /><path fill="rgb(133,173,179)" stroke="rgb(133,173,179)" stroke-width="1" opacity="1" d="M 13.5 25 L 15.5 26 L 17 25.5 L 15.5 28 L 13.5 25 Z " /><path fill="rgb(133,173,179)" stroke="rgb(133,173,179)" stroke-width="1" opacity="1" d="M 22.5 25 L 26 25.5 L 22.5 26 L 22.5 25 Z " /><path fill="rgb(133,173,179)" stroke="rgb(133,173,179)" stroke-width="1" opacity="1" d="M 9.5 28 L 14 28.5 L 9.5 29 L 9.5 28 Z " /><path fill="rgb(133,173,179)" stroke="rgb(133,173,179)" stroke-width="1" opacity="1" d="M 17.5 28 L 18 31.5 L 17 31.5 L 17.5 28 Z " /><path fill="rgb(133,173,179)" stroke="rgb(133,173,179)" stroke-width="1" opacity="1" d="M 20.5 28 L 24 28.5 L 20.5 29 L 20.5 28 Z " /><path fill="rgb(133,173,179)" stroke="rgb(133,173,179)" stroke-width="1" opacity="1" d="M 15.5 29 L 16 31 L 12.5 33 L 15.5 29 Z " /><path fill="rgb(133,173,179)" stroke="rgb(133,173,179)" stroke-width="1" opacity="1" d="M 14 33 Q 17 32 16 35 Q 13 36 14 33 Z " /><path fill="rgb(133,173,179)" stroke="rgb(133,173,179)" stroke-width="1" opacity="1" d="M 25.5 34 L 27 36.5 L 26 36.5 L 25.5 34 Z " /><path fill="rgb(133,173,179)" stroke="rgb(133,173,179)" stroke-width="1" opacity="1" d="M 17.5 35 L 20 36.5 L 21.5 39 Q 23.8 38.3 23 40.5 Q 25.7 42.2 21.5 44 L 18.5 42 L 18.5 41 L 22.5 42 L 19 37.5 Q 19.8 35.3 17.5 36 L 17 38.5 L 16.5 40 L 15 36.5 L 17.5 35 Z " /><path fill="rgb(133,173,179)" stroke="rgb(133,173,179)" stroke-width="1" opacity="1" d="M 21.5 35 L 25 37.5 L 22.5 36 L 21.5 35 Z " /><path fill="rgb(133,173,179)" stroke="rgb(133,173,179)" stroke-width="1" opacity="1" d="M 26 38 L 28 38.5 L 26 39.5 L 26 38 Z " /><path fill="rgb(133,173,179)" stroke="rgb(133,173,179)" stroke-width="1" opacity="1" d="M 27.5 41 L 26.5 44 Q 29.5 43.2 28 47 L 22.5 47 L 22 45.5 L 27.5 41 Z M 24 44 L 24 46 L 27 46 L 24 44 Z " /><path fill="rgb(11,7,14)" stroke="rgb(11,7,14)" stroke-width="1" opacity="1" d="M 10.5 12 L 14 12.5 L 10.5 13 L 10.5 12 Z " /><path fill="rgb(11,7,14)" stroke="rgb(11,7,14)" stroke-width="1" opacity="1" d="M 26.5 14 L 28 14.5 L 24.5 16 L 24.5 15 L 26.5 14 Z " /><path fill="rgb(11,7,14)" stroke="rgb(11,7,14)" stroke-width="1" opacity="1" d="M 4.5 29 L 6 33.5 L 3.5 34 L 2 32.5 L 2.5 30 L 4 30.5 L 4.5 29 Z " /><path fill="rgb(11,7,14)" stroke="rgb(11,7,14)" stroke-width="1" opacity="1" d="M 7 29 L 12 30.5 L 10 33.5 L 10.5 35 L 8.5 35 L 7 34.5 L 7 32.5 L 7 29 Z " /><path fill="rgb(11,7,14)" stroke="rgb(11,7,14)" stroke-width="1" opacity="1" d="M 26.5 29 L 28 32.5 L 26 33.5 L 26.5 32 L 24.5 33 L 21 32 Q 19.8 29 23.5 30 L 26 31 L 26.5 29 Z " /><path fill="rgb(22,13,18)" stroke="rgb(22,13,18)" stroke-width="1" opacity="1" d="M 3.5 3 L 4 5 L 2 4.5 L 3.5 3 Z " /><path fill="rgb(22,13,18)" stroke="rgb(22,13,18)" stroke-width="1" opacity="1" d="M 20.5 30 L 19.5 32 L 20.5 30 Z " /><path fill="rgb(14,9,17)" stroke="rgb(14,9,17)" stroke-width="1" opacity="1" d="M 3.5 2 L 7 2.5 L 2.5 4 L 3.5 2 Z " /><path fill="rgb(14,9,17)" stroke="rgb(14,9,17)" stroke-width="1" opacity="1" d="M 7.5 6 L 10 6.5 L 7.5 7 L 7.5 6 Z " /><path fill="rgb(14,9,17)" stroke="rgb(14,9,17)" stroke-width="1" opacity="1" d="M 15.5 6 L 19 6.5 L 15.5 7 L 15.5 6 Z " /><path fill="rgb(14,9,17)" stroke="rgb(14,9,17)" stroke-width="1" opacity="1" d="M 25 6 L 28 6.5 L 25.5 8 L 25 6 Z " /><path fill="rgb(14,9,17)" stroke="rgb(14,9,17)" stroke-width="1" opacity="1" d="M 7.5 9 L 10 9.5 L 7.5 10 L 7.5 9 Z " /><path fill="rgb(14,9,17)" stroke="rgb(14,9,17)" stroke-width="1" opacity="1" d="M 21.5 9 L 25 9.5 L 21.5 10 L 21.5 9 Z " /><path fill="rgb(14,9,17)" stroke="rgb(14,9,17)" stroke-width="1" opacity="1" d="M 22.5 12 L 28 12.5 L 22.5 13 L 22.5 12 Z " /><path fill="rgb(14,9,17)" stroke="rgb(14,9,17)" stroke-width="1" opacity="1" d="M 25.5 14 L 28 15.5 L 26.5 16 L 25.5 14 Z " /><path fill="rgb(14,9,17)" stroke="rgb(14,9,17)" stroke-width="1" opacity="1" d="M 7.5 15 L 12 15.5 L 7.5 16 L 7.5 15 Z " /><path fill="rgb(14,9,17)" stroke="rgb(14,9,17)" stroke-width="1" opacity="1" d="M 13.5 15 L 17 15.5 L 13.5 16 L 13.5 15 Z " /><path fill="rgb(14,9,17)" stroke="rgb(14,9,17)" stroke-width="1" opacity="1" d="M 19.5 15 L 23 15.5 L 19.5 16 L 19.5 15 Z " /><path fill="rgb(14,9,17)" stroke="rgb(14,9,17)" stroke-width="1" opacity="1" d="M 2.5 17 L 3.5 19 Q 0.7 19.7 2.5 17 Z " /><path fill="rgb(14,9,17)" stroke="rgb(14,9,17)" stroke-width="1" opacity="1" d="M 23.5 17 Q 29.4 15.3 28 19 L 23.5 18 L 22 18.5 L 23.5 17 Z " /><path fill="rgb(14,9,17)" stroke="rgb(14,9,17)" stroke-width="1" opacity="1" d="M 11.5 18 L 16 18.5 L 11.5 19 L 11.5 18 Z " /><path fill="rgb(14,9,17)" stroke="rgb(14,9,17)" stroke-width="1" opacity="1" d="M 17.5 18 L 20 18.5 L 17.5 19 L 17.5 18 Z " /><path fill="rgb(14,9,17)" stroke="rgb(14,9,17)" stroke-width="1" opacity="1" d="M 7.5 20 L 12 20.5 L 7.5 21 L 7.5 20 Z " /><path fill="rgb(14,9,17)" stroke="rgb(14,9,17)" stroke-width="1" opacity="1" d="M 14.5 20 L 19 20.5 L 14.5 21 L 14.5 20 Z " /><path fill="rgb(14,9,17)" stroke="rgb(14,9,17)" stroke-width="1" opacity="1" d="M 22.5 20 L 25 20.5 L 22.5 21 L 22.5 20 Z " /><path fill="rgb(14,9,17)" stroke="rgb(14,9,17)" stroke-width="1" opacity="1" d="M 22.5 23 L 26 23.5 L 22.5 24 L 22.5 23 Z " /><path fill="rgb(14,9,17)" stroke="rgb(14,9,17)" stroke-width="1" opacity="1" d="M 2.5 26 L 5 27.5 L 2 28 L 2.5 26 Z " /><path fill="rgb(14,9,17)" stroke="rgb(14,9,17)" stroke-width="1" opacity="1" d="M 10.5 26 L 13 27.5 L 11.5 28 L 10.5 26 Z " /><path fill="rgb(14,9,17)" stroke="rgb(14,9,17)" stroke-width="1" opacity="1" d="M 23.5 26 Q 27.3 25.3 28 27.5 L 24.5 28 L 23.5 26 Z " /><path fill="rgb(14,9,17)" stroke="rgb(14,9,17)" stroke-width="1" opacity="1" d="M 9.5 29 L 12 29.5 L 9.5 30 L 9.5 29 Z " /><path fill="rgb(14,9,17)" stroke="rgb(14,9,17)" stroke-width="1" opacity="1" d="M 21.5 29 L 26 29.5 L 21.5 30 L 21.5 29 Z " /><path fill="rgb(14,9,17)" stroke="rgb(14,9,17)" stroke-width="1" opacity="1" d="M 5 31 Q 7.7 29.9 7 32.5 Q 9.3 33.8 6.5 35 L 4 33.5 L 5 31 Z " /><path fill="rgb(14,9,17)" stroke="rgb(14,9,17)" stroke-width="1" opacity="1" d="M 20.5 31 L 24 32.5 L 19.5 33 L 20.5 31 Z " /><path fill="rgb(14,9,17)" stroke="rgb(14,9,17)" stroke-width="1" opacity="1" d="M 26.5 32 L 27.5 34 L 26.5 32 Z " /><path fill="rgb(14,9,17)" stroke="rgb(14,9,17)" stroke-width="1" opacity="1" d="M 10.5 33 L 9.5 35 L 10.5 33 Z " /><path fill="rgb(101,122,127)" stroke="rgb(101,122,127)" stroke-width="1" opacity="1" d="M 3.5 1 L 7 1.5 L 3.5 2 L 3.5 1 Z " /><path fill="rgb(101,122,127)" stroke="rgb(101,122,127)" stroke-width="1" opacity="1" d="M 25.5 5 L 28 5.5 L 25.5 6 L 25.5 5 Z " /><path fill="rgb(101,122,127)" stroke="rgb(101,122,127)" stroke-width="1" opacity="1" d="M 19.5 8 L 24 8.5 L 19.5 9 L 19.5 8 Z " /><path fill="rgb(101,122,127)" stroke="rgb(101,122,127)" stroke-width="1" opacity="1" d="M 5.5 12 L 7 14.5 L 5 13.5 L 5.5 12 Z " /><path fill="rgb(101,122,127)" stroke="rgb(101,122,127)" stroke-width="1" opacity="1" d="M 5.5 16 L 7.5 17 L 9 16.5 Q 7.8 19.2 6.5 17 L 5.5 16 Z " /><path fill="rgb(101,122,127)" stroke="rgb(101,122,127)" stroke-width="1" opacity="1" d="M 25.5 19 L 28 19.5 L 25.5 20 L 25.5 19 Z " /><path fill="rgb(101,122,127)" stroke="rgb(101,122,127)" stroke-width="1" opacity="1" d="M 18.5 22 L 26 22.5 L 19.5 24 L 18.5 22 Z " /><path fill="rgb(101,122,127)" stroke="rgb(101,122,127)" stroke-width="1" opacity="1" d="M 24.5 28 L 28 28.5 L 24.5 29 L 24.5 28 Z " /><path fill="rgb(101,122,127)" stroke="rgb(101,122,127)" stroke-width="1" opacity="1" d="M 13.5 30 L 15.5 31 L 17 30.5 L 14.5 32 L 12 31.5 L 13.5 30 Z " /><path fill="rgb(101,122,127)" stroke="rgb(101,122,127)" stroke-width="1" opacity="1" d="M 24.5 34 L 23.5 36 L 24.5 34 Z " /><path fill="rgb(101,122,127)" stroke="rgb(101,122,127)" stroke-width="1" opacity="1" d="M 14.5 35 L 16 37.5 L 14.5 38 Q 11.5 36.5 14.5 35 Z " /><path fill="rgb(101,122,127)" stroke="rgb(101,122,127)" stroke-width="1" opacity="1" d="M 23.5 37 L 24.5 39 Q 21.7 39.7 23.5 37 Z " /><path fill="rgb(101,122,127)" stroke="rgb(101,122,127)" stroke-width="1" opacity="1" d="M 20.5 39 L 21.5 41 L 20.5 39 Z " /><path fill="rgb(101,122,127)" stroke="rgb(101,122,127)" stroke-width="1" opacity="1" d="M 23.5 40 L 25.5 43 L 23.5 40 Z " /><path fill="rgb(101,122,127)" stroke="rgb(101,122,127)" stroke-width="1" opacity="1" d="M 18.5 42 L 16.5 45 L 16 43 L 18.5 42 Z " /><path fill="rgb(46,52,58)" stroke="rgb(46,52,58)" stroke-width="1" opacity="1" d="M 10.5 1 L 19 1.5 L 10.5 2 L 10.5 1 Z " /><path fill="rgb(46,52,58)" stroke="rgb(46,52,58)" stroke-width="1" opacity="1" d="M 7.5 7 L 10 7.5 L 7.5 8 L 7.5 7 Z " /><path fill="rgb(46,52,58)" stroke="rgb(46,52,58)" stroke-width="1" opacity="1" d="M 4.5 9 L 5.5 11 L 4.5 9 Z " /><path fill="rgb(46,52,58)" stroke="rgb(46,52,58)" stroke-width="1" opacity="1" d="M 23.5 11 L 26 11.5 L 23.5 12 L 23.5 11 Z " /><path fill="rgb(46,52,58)" stroke="rgb(46,52,58)" stroke-width="1" opacity="1" d="M 19.5 14 L 22 14.5 L 19.5 15 L 19.5 14 Z " /><path fill="rgb(46,52,58)" stroke="rgb(46,52,58)" stroke-width="1" opacity="1" d="M 4.5 16 L 4.5 19 Q 1.5 17.5 4.5 16 Z " /><path fill="rgb(46,52,58)" stroke="rgb(46,52,58)" stroke-width="1" opacity="1" d="M 8.5 21 L 12 21.5 L 8.5 22 L 8.5 21 Z " /><path fill="rgb(46,52,58)" stroke="rgb(46,52,58)" stroke-width="1" opacity="1" d="M 20.5 23 L 21.5 25 L 20.5 23 Z " /><path fill="rgb(46,52,58)" stroke="rgb(46,52,58)" stroke-width="1" opacity="1" d="M 4.5 26 L 5.5 28 L 4.5 26 Z " /><path fill="rgb(46,52,58)" stroke="rgb(46,52,58)" stroke-width="1" opacity="1" d="M 11.5 33 L 13.5 36 L 11.5 33 Z " /><path fill="rgb(46,52,58)" stroke="rgb(46,52,58)" stroke-width="1" opacity="1" d="M 2.5 48 L 7 48.5 L 2.5 49 L 2.5 48 Z " /><path fill="rgb(221,141,85)" stroke="rgb(221,141,85)" stroke-width="1" opacity="1" d="M 16.5 24 L 19 24.5 Q 16.9 27.8 16.5 24 Z " /><path fill="rgb(221,141,85)" stroke="rgb(221,141,85)" stroke-width="1" opacity="1" d="M 19.5 27 L 19 28.5 L 18.5 31 L 18 28.5 L 19.5 27 Z " /><path fill="rgb(221,141,85)" stroke="rgb(221,141,85)" stroke-width="1" opacity="1" d="M 2.5 34 L 4 37 L 6 37.5 L 5.5 39 L 8 38.5 L 7.5 37 Q 9.8 36.3 9 38.5 L 10 38.5 L 10.5 37 L 14 39.5 L 2 40 Q 0.9 37.3 3.5 38 L 3.5 37 Q 0.4 37.7 2.5 34 Z " /><path fill="rgb(221,141,85)" stroke="rgb(221,141,85)" stroke-width="1" opacity="1" d="M 2 41 L 12 41.5 L 2 43 L 2 41 Z " /><path fill="rgb(170,90,52)" stroke="rgb(170,90,52)" stroke-width="1" opacity="1" d="M 19.5 24 L 21 24.5 L 19 27.5 L 20 29.5 L 19 29.5 L 18 25.5 L 19.5 24 Z " /><path fill="rgb(170,90,52)" stroke="rgb(170,90,52)" stroke-width="1" opacity="1" d="M 6.5 37 L 7.5 39 L 5 38.5 L 6.5 37 Z " /><path fill="rgb(170,90,52)" stroke="rgb(170,90,52)" stroke-width="1" opacity="1" d="M 12.5 41 L 14 45.5 L 12 45.5 L 11.5 47 L 11 45.5 L 12 43 L 10 42.5 L 12.5 41 Z " /><path fill="rgb(170,90,52)" stroke="rgb(170,90,52)" stroke-width="1" opacity="1" d="M 2.5 43 L 5 44 L 4.5 47 L 2 45.5 L 2.5 43 Z " /><path fill="rgb(123,43,19)" stroke="rgb(123,43,19)" stroke-width="1" opacity="1" d="M 20.5 25 L 19.5 27 L 20.5 25 Z " /><path fill="rgb(123,43,19)" stroke="rgb(123,43,19)" stroke-width="1" opacity="1" d="M 14.5 39 L 16 39.5 L 14 40 L 13.5 43 L 13 41 L 2 40.5 L 13.5 40 L 14.5 39 Z " /><path fill="rgb(123,43,19)" stroke="rgb(123,43,19)" stroke-width="1" opacity="1" d="M 4 42 L 12 43 L 9.5 47 L 5 46 L 4 42 Z " /><path fill="rgb(94,93,89)" stroke="rgb(94,93,89)" stroke-width="1" opacity="1" d="M 20.5 11 L 23 11.5 L 20.5 12 L 20.5 11 Z " /><path fill="rgb(94,93,89)" stroke="rgb(94,93,89)" stroke-width="1" opacity="1" d="M 16.5 31 L 15.5 33 Q 13.3 32.3 14 34.5 L 11 32.5 L 13.5 32 L 16.5 31 Z " /><path fill="rgb(94,93,89)" stroke="rgb(94,93,89)" stroke-width="1" opacity="1" d="M 21.5 33 L 24 33.5 L 19.5 36 L 16.5 35 L 15 35.5 L 18.5 34 Q 20 36.5 21.5 33 Z " /><path fill="rgb(94,93,89)" stroke="rgb(94,93,89)" stroke-width="1" opacity="1" d="M 16.5 40 Q 21.9 38.1 21 41.5 Q 19.3 45.8 17.5 43 L 15.5 44 L 15 42 L 18.5 43 L 19.5 41 Q 15.5 41.8 16.5 40 Z " /><path fill="rgb(94,93,89)" stroke="rgb(94,93,89)" stroke-width="1" opacity="1" d="M 15.5 45 L 16.5 47 L 15.5 45 Z " /><path fill="rgb(94,93,89)" stroke="rgb(94,93,89)" stroke-width="1" opacity="1" d="M 18 45 L 21 46.5 L 18 47 L 18 45 Z " /><path fill="rgb(90,66,57)" stroke="rgb(90,66,57)" stroke-width="1" opacity="1" d="M 7.5 35 L 11 35.5 L 7.5 36 L 7.5 35 Z " /><path fill="rgb(90,66,57)" stroke="rgb(90,66,57)" stroke-width="1" opacity="1" d="M 12.5 37 L 15 38.5 L 13.5 39 L 12.5 37 Z " /><path fill="rgb(90,66,57)" stroke="rgb(90,66,57)" stroke-width="1" opacity="1" d="M 14.5 40 L 17 41.5 L 15.5 41 L 14.5 40 Z " /><path fill="rgb(90,66,57)" stroke="rgb(90,66,57)" stroke-width="1" opacity="1" d="M 16.5 45 L 17.5 47 L 16.5 45 Z " /></svg>