<svg width="30" height="50" version="1.1" xmlns="http://www.w3.org/2000/svg" desc="Created with imagetracer.js version 1.2.6" ><path fill="rgb(22,16,23)" stroke="rgb(22,16,23)" stroke-width="1" opacity="1" d="M 2.5 2 L 12.5 3 L 13.5 2 L 24.5 2 L 28 3.5 L 28 14.5 L 26.5 15 L 24 16.5 L 25.5 14 Q 22.9 14.7 24 12 L 20 12 L 19.5 14 L 18 10.5 L 19.5 10 L 21 10.5 Q 22.3 6.3 17.5 8 Q 16.8 10.8 12.5 10 L 12.5 9 Q 16.3 10.3 15 6.5 L 10 4 L 9 8.5 L 10 10.5 L 8 11.5 L 9 9.5 L 9 7.5 L 8 3 Q 5 2 6 5 L 3.5 5 L 2 5.5 Q 1.3 3.3 3.5 4 L 3.5 3 L 2.5 2 Z M 22 4 Q 20 7 23 6 L 22 4 Z M 18 5 Q 16 8 19 7 L 18 5 Z " /><path fill="rgb(22,16,23)" stroke="rgb(22,16,23)" stroke-width="1" opacity="1" d="M 11.5 11 L 10.5 13 L 11.5 11 Z " /><path fill="rgb(22,16,23)" stroke="rgb(22,16,23)" stroke-width="1" opacity="1" d="M 20.5 15 L 21.5 17 L 20.5 15 Z " /><path fill="rgb(22,16,23)" stroke="rgb(22,16,23)" stroke-width="1" opacity="1" d="M 19.5 18 Q 21.8 17.3 21 19.5 L 19.5 18 Z " /><path fill="rgb(22,16,23)" stroke="rgb(22,16,23)" stroke-width="1" opacity="1" d="M 24.5 40 L 27 40.5 L 24.5 41 L 24.5 40 Z " /><path fill="rgb(15,10,17)" stroke="rgb(15,10,17)" stroke-width="1" opacity="1" d="M 12.5 6 Q 14.8 5.3 14 7.5 L 14.5 9 Q 12.3 9.8 13 7.5 L 12.5 6 Z " /><path fill="rgb(15,10,17)" stroke="rgb(15,10,17)" stroke-width="1" opacity="1" d="M 2 9 Q 5.3 7.9 4 12 L 8 12 L 8 14 L 5 14 Q 6.1 17.3 2 16 L 2 9 Z " /><path fill="rgb(35,34,38)" stroke="rgb(35,34,38)" stroke-width="1" opacity="1" d="M 9.5 13 L 9 14.5 L 7.5 17 L 8 15.5 L 9.5 13 Z " /><path fill="rgb(35,34,38)" stroke="rgb(35,34,38)" stroke-width="1" opacity="1" d="M 23.5 13 L 25 15.5 L 24 15.5 L 23.5 13 Z " /><path fill="rgb(35,34,38)" stroke="rgb(35,34,38)" stroke-width="1" opacity="1" d="M 5.5 14 L 6 18 L 4 17.5 L 5.5 14 Z " /><path fill="rgb(35,34,38)" stroke="rgb(35,34,38)" stroke-width="1" opacity="1" d="M 20.5 14 L 20 15.5 L 21 17.5 L 19 18 Q 20.1 15.3 17.5 16 L 17.5 15 L 20.5 14 Z " /><path fill="rgb(35,34,38)" stroke="rgb(35,34,38)" stroke-width="1" opacity="1" d="M 27.5 15 L 28 18.5 L 26 19.5 L 27.5 15 Z " /><path fill="rgb(35,34,38)" stroke="rgb(35,34,38)" stroke-width="1" opacity="1" d="M 11.5 16 L 11 17.5 L 10.5 19 L 10 17.5 L 11.5 16 Z " /><path fill="rgb(35,34,38)" stroke="rgb(35,34,38)" stroke-width="1" opacity="1" d="M 5.5 23 L 8 23.5 L 5.5 24 L 5.5 23 Z " /><path fill="rgb(35,34,38)" stroke="rgb(35,34,38)" stroke-width="1" opacity="1" d="M 24.5 39 L 24.5 41 L 26 41.5 L 24.5 42 Q 21.5 40.5 24.5 39 Z " /><path fill="rgb(18,13,20)" stroke="rgb(18,13,20)" stroke-width="1" opacity="1" d="M 10.5 2 L 13 2.5 L 10.5 3 L 10.5 2 Z " /><path fill="rgb(18,13,20)" stroke="rgb(18,13,20)" stroke-width="1" opacity="1" d="M 6 3 Q 9 1.8 8 5.5 L 9.5 8 L 10.5 4 L 15 6.5 L 14.5 8 L 14 6 L 12 6.5 L 13 8.5 L 12.5 10 L 21 8 L 20.5 11 L 18.5 10 L 16.5 14 L 15.5 11 L 11.5 13 L 9 11.5 L 10 9.5 L 8 10.5 L 8 12 L 4 12 L 4 9 Q 1 10.3 2 6.5 L 6 5 L 6 3 Z " /><path fill="rgb(18,13,20)" stroke="rgb(18,13,20)" stroke-width="1" opacity="1" d="M 21.5 4 L 23.5 7 L 21 6 L 21.5 4 Z " /><path fill="rgb(18,13,20)" stroke="rgb(18,13,20)" stroke-width="1" opacity="1" d="M 17.5 5 L 18.5 7 Q 15.7 7.7 17.5 5 Z " /><path fill="rgb(18,13,20)" stroke="rgb(18,13,20)" stroke-width="1" opacity="1" d="M 25.5 9 L 24.5 11 L 25.5 9 Z " /><path fill="rgb(18,13,20)" stroke="rgb(18,13,20)" stroke-width="1" opacity="1" d="M 20 12 Q 23 10.8 22 14.5 L 20 13.5 L 20 12 Z " /><path fill="rgb(18,13,20)" stroke="rgb(18,13,20)" stroke-width="1" opacity="1" d="M 26.5 13 L 25.5 15 L 26.5 13 Z " /><path fill="rgb(247,249,243)" stroke="rgb(247,249,243)" stroke-width="1" opacity="1" d="M 0 0 L 30 0 L 30 50 L 0 50 L 0 0 Z M 2 2 L 2 48 L 28 48 L 28 31 L 26 30 L 24 27 L 28 26 L 28 2 L 2 2 Z " /><path fill="rgb(247,249,243)" stroke="rgb(247,249,243)" stroke-width="1" opacity="1" d="M 22.5 18 L 23 20.5 L 22 20.5 L 22.5 18 Z " /><path fill="rgb(247,249,243)" stroke="rgb(247,249,243)" stroke-width="1" opacity="1" d="M 19.5 27 L 20 29 L 18 28.5 L 19.5 27 Z " /><path fill="rgb(247,249,243)" stroke="rgb(247,249,243)" stroke-width="1" opacity="1" d="M 17.5 42 L 19 42.5 L 15.5 44 L 15.5 43 L 17.5 42 Z " /><path fill="rgb(97,129,138)" stroke="rgb(97,129,138)" stroke-width="1" opacity="1" d="M 13.5 16 L 14 19 Q 16.7 17.9 16 20.5 L 14 20.5 L 13.5 22 L 12 19.5 L 13.5 16 Z " /><path fill="rgb(97,129,138)" stroke="rgb(97,129,138)" stroke-width="1" opacity="1" d="M 17.5 19 L 18.5 21 L 17.5 19 Z " /><path fill="rgb(97,129,138)" stroke="rgb(97,129,138)" stroke-width="1" opacity="1" d="M 24.5 20 L 27 20.5 L 24.5 21 L 24.5 20 Z " /><path fill="rgb(97,129,138)" stroke="rgb(97,129,138)" stroke-width="1" opacity="1" d="M 13.5 23 L 12.5 25 L 13.5 23 Z " /><path fill="rgb(97,129,138)" stroke="rgb(97,129,138)" stroke-width="1" opacity="1" d="M 14.5 30 Q 16.8 29.3 16 31.5 L 14.5 30 Z " /><path fill="rgb(97,129,138)" stroke="rgb(97,129,138)" stroke-width="1" opacity="1" d="M 14.5 33 L 15 36.5 L 14 36.5 L 14.5 33 Z " /><path fill="rgb(97,129,138)" stroke="rgb(97,129,138)" stroke-width="1" opacity="1" d="M 16.5 34 L 17.5 36 Q 14.7 36.7 16.5 34 Z " /><path fill="rgb(96,107,112)" stroke="rgb(96,107,112)" stroke-width="1" opacity="1" d="M 11.5 13 L 13.5 13 L 16 13.5 L 12.5 15 L 11.5 13 Z " /><path fill="rgb(96,107,112)" stroke="rgb(96,107,112)" stroke-width="1" opacity="1" d="M 14 15 Q 17.7 13.8 16 19 Q 12.3 20.2 14 15 Z " /><path fill="rgb(96,107,112)" stroke="rgb(96,107,112)" stroke-width="1" opacity="1" d="M 12.5 16 L 13 18.5 L 12 18.5 L 12.5 16 Z " /><path fill="rgb(96,107,112)" stroke="rgb(96,107,112)" stroke-width="1" opacity="1" d="M 18.5 17 L 17.5 19 L 18.5 17 Z " /><path fill="rgb(96,107,112)" stroke="rgb(96,107,112)" stroke-width="1" opacity="1" d="M 10.5 19 L 13 22.5 L 12 22.5 Q 12.7 19.9 10 21 L 10.5 19 Z " /><path fill="rgb(96,107,112)" stroke="rgb(96,107,112)" stroke-width="1" opacity="1" d="M 14.5 20 Q 17.3 21.4 16 26 Q 13 27.3 14 23.5 L 14 21.5 L 14.5 20 Z " /><path fill="rgb(96,107,112)" stroke="rgb(96,107,112)" stroke-width="1" opacity="1" d="M 2 21 Q 5.8 20 7 22.5 L 5.5 23 L 4.5 22 L 2 23.5 L 2 21 Z " /><path fill="rgb(96,107,112)" stroke="rgb(96,107,112)" stroke-width="1" opacity="1" d="M 21.5 22 L 23 24.5 L 21 23.5 L 21.5 22 Z " /><path fill="rgb(96,107,112)" stroke="rgb(96,107,112)" stroke-width="1" opacity="1" d="M 26.5 23 L 25.5 25 L 24 24.5 L 26.5 23 Z " /><path fill="rgb(96,107,112)" stroke="rgb(96,107,112)" stroke-width="1" opacity="1" d="M 9.5 29 L 12 30.5 L 10.5 31 L 9.5 29 Z " /><path fill="rgb(96,107,112)" stroke="rgb(96,107,112)" stroke-width="1" opacity="1" d="M 6.5 30 Q 8.8 29.3 8 31.5 L 7.5 34 L 5 32.5 L 7 31.5 L 6.5 30 Z " /><path fill="rgb(96,107,112)" stroke="rgb(96,107,112)" stroke-width="1" opacity="1" d="M 14.5 31 L 16.5 32 Q 17.8 29.8 19 32.5 L 16.5 33 L 14.5 32 L 13 32.5 L 14.5 31 Z " /><path fill="rgb(96,107,112)" stroke="rgb(96,107,112)" stroke-width="1" opacity="1" d="M 9.5 32 L 12 32.5 L 9.5 33 L 9.5 32 Z " /><path fill="rgb(148,143,116)" stroke="rgb(148,143,116)" stroke-width="1" opacity="1" d="M 3.5 23 L 2.5 25 L 3.5 23 Z " /><path fill="rgb(148,143,116)" stroke="rgb(148,143,116)" stroke-width="1" opacity="1" d="M 7.5 24 L 6.5 26 L 7.5 24 Z " /><path fill="rgb(148,143,116)" stroke="rgb(148,143,116)" stroke-width="1" opacity="1" d="M 21.5 24 L 21 25.5 L 20.5 27 L 20 25.5 L 21.5 24 Z " /><path fill="rgb(148,143,116)" stroke="rgb(148,143,116)" stroke-width="1" opacity="1" d="M 16.5 25 L 18 25.5 L 16 26 Q 17.7 31.2 14 30 L 14 26 L 15.5 26 L 16.5 25 Z " /><path fill="rgb(148,143,116)" stroke="rgb(148,143,116)" stroke-width="1" opacity="1" d="M 11.5 26 L 12 28.5 L 11 28.5 L 11.5 26 Z " /><path fill="rgb(148,143,116)" stroke="rgb(148,143,116)" stroke-width="1" opacity="1" d="M 7.5 28 L 9 30.5 L 7 29.5 L 7.5 28 Z " /><path fill="rgb(148,143,116)" stroke="rgb(148,143,116)" stroke-width="1" opacity="1" d="M 19.5 32 L 22 32.5 L 19.5 33 L 19.5 32 Z " /><path fill="rgb(75,74,73)" stroke="rgb(75,74,73)" stroke-width="1" opacity="1" d="M 18.5 11 L 19 13 L 17 12.5 L 18.5 11 Z " /><path fill="rgb(75,74,73)" stroke="rgb(75,74,73)" stroke-width="1" opacity="1" d="M 10.5 13 L 11 15 L 9 14.5 L 10.5 13 Z " /><path fill="rgb(75,74,73)" stroke="rgb(75,74,73)" stroke-width="1" opacity="1" d="M 23.5 16 L 26 17.5 L 23 19.5 L 23.5 16 Z " /><path fill="rgb(75,74,73)" stroke="rgb(75,74,73)" stroke-width="1" opacity="1" d="M 8.5 17 L 7.5 19 L 8.5 17 Z " /><path fill="rgb(75,74,73)" stroke="rgb(75,74,73)" stroke-width="1" opacity="1" d="M 11.5 17 L 12 19.5 L 11 19.5 L 11.5 17 Z " /><path fill="rgb(75,74,73)" stroke="rgb(75,74,73)" stroke-width="1" opacity="1" d="M 3.5 18 L 4 20 L 2 19.5 L 3.5 18 Z " /><path fill="rgb(75,74,73)" stroke="rgb(75,74,73)" stroke-width="1" opacity="1" d="M 16.5 19 L 18 23 L 20 23.5 L 18.5 25 L 16 24.5 L 17 21.5 L 16.5 19 Z " /><path fill="rgb(75,74,73)" stroke="rgb(75,74,73)" stroke-width="1" opacity="1" d="M 8.5 20 L 9 23.5 L 7 22.5 L 8.5 20 Z " /><path fill="rgb(75,74,73)" stroke="rgb(75,74,73)" stroke-width="1" opacity="1" d="M 11.5 21 L 12 26 L 9 25.5 L 11 25 L 10 22.5 L 11.5 21 Z " /><path fill="rgb(75,74,73)" stroke="rgb(75,74,73)" stroke-width="1" opacity="1" d="M 23.5 21 L 25 23.5 L 23.5 26 L 23 24.5 L 23 22.5 L 23.5 21 Z " /><path fill="rgb(75,74,73)" stroke="rgb(75,74,73)" stroke-width="1" opacity="1" d="M 27.5 23 L 28 25 L 25.5 26 L 27.5 23 Z " /><path fill="rgb(75,74,73)" stroke="rgb(75,74,73)" stroke-width="1" opacity="1" d="M 6.5 24 L 8 27 L 10 27.5 L 8.5 28 L 6 27.5 L 7 25.5 L 6.5 24 Z " /><path fill="rgb(75,74,73)" stroke="rgb(75,74,73)" stroke-width="1" opacity="1" d="M 2.5 26 Q 6.3 25 5 28 L 2.5 26 Z " /><path fill="rgb(75,74,73)" stroke="rgb(75,74,73)" stroke-width="1" opacity="1" d="M 22.5 32 L 25 32.5 L 22.5 33 L 22.5 32 Z " /><path fill="rgb(75,74,73)" stroke="rgb(75,74,73)" stroke-width="1" opacity="1" d="M 19.5 36 L 22 36.5 L 19.5 37 L 19.5 36 Z " /><path fill="rgb(75,74,73)" stroke="rgb(75,74,73)" stroke-width="1" opacity="1" d="M 21.5 41 L 24 41.5 L 21 42 Q 22.1 44.7 19.5 44 L 21.5 41 Z " /><path fill="rgb(125,151,158)" stroke="rgb(125,151,158)" stroke-width="1" opacity="1" d="M 17.5 13 L 16.5 15 L 17.5 13 Z " /><path fill="rgb(125,151,158)" stroke="rgb(125,151,158)" stroke-width="1" opacity="1" d="M 22.5 14 L 22.5 17 Q 19.5 15.5 22.5 14 Z " /><path fill="rgb(125,151,158)" stroke="rgb(125,151,158)" stroke-width="1" opacity="1" d="M 8.5 16 L 9.5 18 L 8.5 16 Z " /><path fill="rgb(125,151,158)" stroke="rgb(125,151,158)" stroke-width="1" opacity="1" d="M 12.5 23 L 14 25.5 L 13 25.5 L 12.5 23 Z " /><path fill="rgb(125,151,158)" stroke="rgb(125,151,158)" stroke-width="1" opacity="1" d="M 12.5 30 L 11.5 32 L 12.5 30 Z " /><path fill="rgb(125,151,158)" stroke="rgb(125,151,158)" stroke-width="1" opacity="1" d="M 26.5 30 L 27.5 32 L 25.5 33 L 25 31.5 L 26.5 30 Z " /><path fill="rgb(125,151,158)" stroke="rgb(125,151,158)" stroke-width="1" opacity="1" d="M 2.5 32 L 5 32.5 L 2.5 33 L 2.5 32 Z " /><path fill="rgb(125,151,158)" stroke="rgb(125,151,158)" stroke-width="1" opacity="1" d="M 9.5 33 L 10 35.5 L 9 35.5 L 9.5 33 Z " /><path fill="rgb(125,151,158)" stroke="rgb(125,151,158)" stroke-width="1" opacity="1" d="M 15 33 L 17 33.5 L 15.5 36 L 15 33 Z " /><path fill="rgb(125,151,158)" stroke="rgb(125,151,158)" stroke-width="1" opacity="1" d="M 21 34 L 24 35.5 L 21 35.5 L 21 34 Z " /><path fill="rgb(129,180,191)" stroke="rgb(129,180,191)" stroke-width="1" opacity="1" d="M 2.5 31 L 7 31.5 L 2.5 32 L 2.5 31 Z " /><path fill="rgb(129,180,191)" stroke="rgb(129,180,191)" stroke-width="1" opacity="1" d="M 4.5 33 L 6 36.5 L 4 35.5 L 4.5 33 Z " /><path fill="rgb(129,180,191)" stroke="rgb(129,180,191)" stroke-width="1" opacity="1" d="M 10.5 33 L 12.5 33 Q 14.8 32.3 14 34.5 L 13 37 L 9 36.5 L 10.5 33 Z " /><path fill="rgb(163,201,203)" stroke="rgb(163,201,203)" stroke-width="1" opacity="1" d="M 4.5 18 Q 8.3 16.8 7 20.5 L 6 20.5 Q 6.8 18.3 4.5 19 L 4.5 18 Z " /><path fill="rgb(163,201,203)" stroke="rgb(163,201,203)" stroke-width="1" opacity="1" d="M 21.5 21 L 23 21.5 L 21 22 L 20.5 25 L 20 22.5 L 21.5 21 Z " /><path fill="rgb(163,201,203)" stroke="rgb(163,201,203)" stroke-width="1" opacity="1" d="M 4.5 23 Q 7.5 24.5 4.5 26 L 4.5 23 Z " /><path fill="rgb(163,201,203)" stroke="rgb(163,201,203)" stroke-width="1" opacity="1" d="M 13.5 26 L 14 30.5 L 12 31.5 L 13.5 26 Z " /><path fill="rgb(163,201,203)" stroke="rgb(163,201,203)" stroke-width="1" opacity="1" d="M 17.5 26 L 19 27.5 L 18.5 30 Q 15 30.8 17.5 26 Z " /><path fill="rgb(163,201,203)" stroke="rgb(163,201,203)" stroke-width="1" opacity="1" d="M 20.5 27 L 21 29.5 L 20 29.5 L 20.5 27 Z " /><path fill="rgb(163,201,203)" stroke="rgb(163,201,203)" stroke-width="1" opacity="1" d="M 22.5 28 L 23 30.5 L 22 30.5 L 22.5 28 Z " /><path fill="rgb(163,201,203)" stroke="rgb(163,201,203)" stroke-width="1" opacity="1" d="M 26.5 32 Q 29.5 31.1 28 35.5 L 24 37 L 23 33 L 26.5 32 Z " /><path fill="rgb(163,201,203)" stroke="rgb(163,201,203)" stroke-width="1" opacity="1" d="M 2 33 Q 5 31.8 4 35.5 L 4.5 37 Q -0.1 38.2 2 33 Z " /><path fill="rgb(163,201,203)" stroke="rgb(163,201,203)" stroke-width="1" opacity="1" d="M 20.5 33 L 21 35 L 19 34.5 L 20.5 33 Z " /><path fill="rgb(163,201,203)" stroke="rgb(163,201,203)" stroke-width="1" opacity="1" d="M 6 35 L 9 35.5 L 6.5 37 L 6 35 Z " /><path fill="rgb(198,42,18)" stroke="rgb(198,42,18)" stroke-width="1" opacity="1" d="M 3.5 38 L 5.5 39 L 8.5 38 L 11.5 39 L 13.5 38 L 12.5 40 Q 10.3 39.3 11 41.5 L 8 43.5 Q 9.1 40.2 6.5 41 L 5.5 43 L 7 43.5 L 2 46 L 3.5 42 L 6 40.5 L 3.5 38 Z " /><path fill="rgb(176,114,61)" stroke="rgb(176,114,61)" stroke-width="1" opacity="1" d="M 17.5 36 L 17.5 39 Q 15.3 39.8 16 37.5 L 17.5 36 Z " /><path fill="rgb(176,114,61)" stroke="rgb(176,114,61)" stroke-width="1" opacity="1" d="M 8.5 37 L 11 37.5 Q 8.9 40.8 8.5 37 Z " /><path fill="rgb(176,114,61)" stroke="rgb(176,114,61)" stroke-width="1" opacity="1" d="M 24.5 38 Q 26.8 37.3 26 39.5 L 24.5 38 Z " /><path fill="rgb(176,114,61)" stroke="rgb(176,114,61)" stroke-width="1" opacity="1" d="M 10.5 42 L 9.5 44 L 10.5 42 Z " /><path fill="rgb(176,114,61)" stroke="rgb(176,114,61)" stroke-width="1" opacity="1" d="M 24.5 42 L 27 42.5 Q 28 46.3 25 45 L 24.5 42 Z " /><path fill="rgb(176,114,61)" stroke="rgb(176,114,61)" stroke-width="1" opacity="1" d="M 13.5 43 L 12.5 45 L 13.5 43 Z " /><path fill="rgb(233,203,104)" stroke="rgb(233,203,104)" stroke-width="1" opacity="1" d="M 18 25 Q 21 24 20 27 Q 17 28 18 25 Z " /><path fill="rgb(233,203,104)" stroke="rgb(233,203,104)" stroke-width="1" opacity="1" d="M 21.5 25 L 22 27.5 L 21 27.5 L 21.5 25 Z " /><path fill="rgb(233,203,104)" stroke="rgb(233,203,104)" stroke-width="1" opacity="1" d="M 10.5 26 L 11.5 29 L 12.5 26 L 13 30 Q 7.9 31.6 10.5 26 Z " /><path fill="rgb(233,203,104)" stroke="rgb(233,203,104)" stroke-width="1" opacity="1" d="M 16.5 26 L 17 29.5 L 16 29.5 L 16.5 26 Z " /><path fill="rgb(233,203,104)" stroke="rgb(233,203,104)" stroke-width="1" opacity="1" d="M 23.5 26 L 24 29.5 L 23 29.5 L 23.5 26 Z " /><path fill="rgb(233,203,104)" stroke="rgb(233,203,104)" stroke-width="1" opacity="1" d="M 2.5 27 L 4.5 30 Q 0.1 31.1 2.5 27 Z " /><path fill="rgb(233,203,104)" stroke="rgb(233,203,104)" stroke-width="1" opacity="1" d="M 17.5 37 L 19.5 38 L 21 37.5 L 20.5 39 Q 22.8 38.3 22 40.5 Q 20.3 43.8 18.5 40 L 13 41 Q 11.9 38.3 14.5 39 L 16.5 39 L 18 38.5 L 17.5 37 Z " /><path fill="rgb(233,203,104)" stroke="rgb(233,203,104)" stroke-width="1" opacity="1" d="M 25.5 37 Q 29.3 36 28 39 L 25.5 37 Z " /><path fill="rgb(233,203,104)" stroke="rgb(233,203,104)" stroke-width="1" opacity="1" d="M 26.5 41 L 28 41.5 L 25 43.5 Q 24.3 46.1 27 45 L 27.5 43 L 28 48 L 2.5 48 L 2 46 L 12 43.5 L 11.5 42 L 15 42.5 L 12 44.5 L 18.5 45 L 23.5 42 Q 25 44.5 26.5 41 Z " /><path fill="rgb(101,23,11)" stroke="rgb(101,23,11)" stroke-width="1" opacity="1" d="M 4.5 37 L 6.5 41 Q 9.1 40.2 8 43.5 L 6.5 43 L 3.5 42 L 2 42.5 L 2.5 38 L 4.5 39 L 4.5 37 Z " /><path fill="rgb(101,23,11)" stroke="rgb(101,23,11)" stroke-width="1" opacity="1" d="M 26.5 39 L 27.5 41 L 26.5 39 Z " /><path fill="rgb(101,23,11)" stroke="rgb(101,23,11)" stroke-width="1" opacity="1" d="M 11.5 41 L 14 41.5 L 11.5 42 L 11.5 41 Z " /></svg>