<svg width="30" height="50" version="1.1" xmlns="http://www.w3.org/2000/svg" desc="Created with imagetracer.js version 1.2.6" ><path fill="rgb(74,26,25)" stroke="rgb(74,26,25)" stroke-width="1" opacity="1" d="M 24.5 7 Q 28.9 5.5 28 8.5 L 24.5 15 L 22 14.5 L 22.5 13 L 20 12.5 L 24.5 7 Z M 24 10 L 25 12 Q 26 9 24 10 Z " /><path fill="rgb(74,26,25)" stroke="rgb(74,26,25)" stroke-width="1" opacity="1" d="M 3.5 9 L 5.5 9 L 8 10.5 Q 6.9 13.8 9.5 13 L 9.5 14 L 6 12.5 L 6.5 11 L 2.5 12 L 3 10.5 L 3.5 9 Z " /><path fill="rgb(74,26,25)" stroke="rgb(74,26,25)" stroke-width="1" opacity="1" d="M 3.5 15 L 6 15.5 L 2.5 18 L 3 16.5 L 3.5 15 Z " /><path fill="rgb(74,26,25)" stroke="rgb(74,26,25)" stroke-width="1" opacity="1" d="M 3.5 22 L 4 24 L 2 23.5 L 3.5 22 Z " /><path fill="rgb(74,26,25)" stroke="rgb(74,26,25)" stroke-width="1" opacity="1" d="M 4.5 33 L 4 34.5 L 3.5 36 L 3 34.5 L 4.5 33 Z " /><path fill="rgb(74,26,25)" stroke="rgb(74,26,25)" stroke-width="1" opacity="1" d="M 3.5 37 L 5 42.5 L 2 44.5 L 3.5 37 Z " /><path fill="rgb(74,26,25)" stroke="rgb(74,26,25)" stroke-width="1" opacity="1" d="M 16.5 42 L 15.5 44 L 14 43.5 L 16.5 42 Z " /><path fill="rgb(174,143,49)" stroke="rgb(174,143,49)" stroke-width="1" opacity="1" d="M 14.5 2 L 16 2.5 L 13.5 4 L 14.5 2 Z " /><path fill="rgb(174,143,49)" stroke="rgb(174,143,49)" stroke-width="1" opacity="1" d="M 7.5 3 L 7 4.5 L 6.5 7 L 6 4.5 L 7.5 3 Z " /><path fill="rgb(174,143,49)" stroke="rgb(174,143,49)" stroke-width="1" opacity="1" d="M 23.5 3 L 22.5 5 L 23.5 3 Z " /><path fill="rgb(174,143,49)" stroke="rgb(174,143,49)" stroke-width="1" opacity="1" d="M 20.5 6 L 19.5 8 L 20.5 6 Z " /><path fill="rgb(174,143,49)" stroke="rgb(174,143,49)" stroke-width="1" opacity="1" d="M 8.5 7 L 9.5 9 L 8.5 7 Z " /><path fill="rgb(174,143,49)" stroke="rgb(174,143,49)" stroke-width="1" opacity="1" d="M 11.5 8 L 12.5 10 L 14 9.5 L 11 11 L 11.5 8 Z " /><path fill="rgb(174,143,49)" stroke="rgb(174,143,49)" stroke-width="1" opacity="1" d="M 17.5 12 L 16.5 14 L 17.5 12 Z " /><path fill="rgb(174,143,49)" stroke="rgb(174,143,49)" stroke-width="1" opacity="1" d="M 6.5 25 L 5.5 27 L 6.5 25 Z " /><path fill="rgb(239,194,86)" stroke="rgb(239,194,86)" stroke-width="1" opacity="1" d="M 6.5 2 L 7.5 4 L 8 2 L 14 2.5 L 13.5 4 Q 15.5 1 21.5 2 L 23.5 2 L 28 4.5 Q 29 8.3 26 7 L 24.5 3 L 23 3.5 L 24.5 6 L 22 4.5 Q 22.8 6.8 20.5 6 L 16.5 7 L 14.5 6 L 11.5 8 L 8.5 7 Q 5.9 7.8 7 4.5 L 6 4.5 L 5.5 7 L 4 6.5 L 2.5 9 L 2 6.5 L 2.5 4 L 3.5 6 L 4 3 L 6.5 2 Z " /><path fill="rgb(239,194,86)" stroke="rgb(239,194,86)" stroke-width="1" opacity="1" d="M 17.5 8 L 16.5 11 L 18.5 10 L 17.5 12 L 14 11 Q 12.8 8 16.5 9 L 17.5 8 Z " /><path fill="rgb(239,194,86)" stroke="rgb(239,194,86)" stroke-width="1" opacity="1" d="M 9.5 9 L 11 11.5 L 10 11.5 L 9.5 9 Z " /><path fill="rgb(239,194,86)" stroke="rgb(239,194,86)" stroke-width="1" opacity="1" d="M 25.5 14 L 27 14.5 L 23.5 17 L 25.5 14 Z " /><path fill="rgb(239,194,86)" stroke="rgb(239,194,86)" stroke-width="1" opacity="1" d="M 6.5 26 L 10 27.5 L 8 30.5 L 10 34.5 Q 6.5 36 9 37.5 Q 9.8 39.8 7.5 39 L 6 37.5 L 6 28.5 L 5 27.5 L 6.5 26 Z " /><path fill="rgb(239,194,86)" stroke="rgb(239,194,86)" stroke-width="1" opacity="1" d="M 22.5 26 Q 27.8 24.3 26 29.5 L 24 29.5 L 25 37 L 22.5 38 L 21 34.5 L 22 31.5 L 21 27.5 L 22.5 26 Z " /><path fill="rgb(239,194,86)" stroke="rgb(239,194,86)" stroke-width="1" opacity="1" d="M 3.5 30 L 4.5 32 L 3.5 30 Z " /><path fill="rgb(239,194,86)" stroke="rgb(239,194,86)" stroke-width="1" opacity="1" d="M 20.5 43 L 23.5 44 Q 24.8 41.8 26 44.5 L 17.5 45 L 17.5 44 L 20.5 43 Z " /><path fill="rgb(158,48,39)" stroke="rgb(158,48,39)" stroke-width="1" opacity="1" d="M 23.5 6 L 23 7.5 L 22.5 9 L 22 7.5 L 23.5 6 Z " /><path fill="rgb(158,48,39)" stroke="rgb(158,48,39)" stroke-width="1" opacity="1" d="M 5.5 7 L 8 7.5 L 9 12.5 L 8 12.5 L 5.5 7 Z " /><path fill="rgb(158,48,39)" stroke="rgb(158,48,39)" stroke-width="1" opacity="1" d="M 25.5 8 L 28 9.5 L 26.5 9 L 25.5 8 Z " /><path fill="rgb(69,53,47)" stroke="rgb(69,53,47)" stroke-width="1" opacity="1" d="M 5.5 12 L 6 14 L 8 14.5 L 6.5 15 L 5.5 12 Z " /><path fill="rgb(69,53,47)" stroke="rgb(69,53,47)" stroke-width="1" opacity="1" d="M 4.5 15 L 7 16.5 L 5.5 17 L 4.5 15 Z " /><path fill="rgb(69,53,47)" stroke="rgb(69,53,47)" stroke-width="1" opacity="1" d="M 11.5 15 L 12.5 17 L 11.5 15 Z " /><path fill="rgb(69,53,47)" stroke="rgb(69,53,47)" stroke-width="1" opacity="1" d="M 8.5 17 L 18 21.5 L 14.5 22 L 13 19 L 8.5 18 L 8.5 17 Z " /><path fill="rgb(69,53,47)" stroke="rgb(69,53,47)" stroke-width="1" opacity="1" d="M 5.5 20 L 8 20.5 L 4.5 26 L 4 24.5 L 6 21.5 L 5.5 20 Z " /><path fill="rgb(69,53,47)" stroke="rgb(69,53,47)" stroke-width="1" opacity="1" d="M 26.5 20 L 28 22.5 L 26 23.5 L 27 21.5 L 26.5 20 Z " /><path fill="rgb(69,53,47)" stroke="rgb(69,53,47)" stroke-width="1" opacity="1" d="M 10.5 22 L 9.5 24 L 10.5 22 Z " /><path fill="rgb(69,53,47)" stroke="rgb(69,53,47)" stroke-width="1" opacity="1" d="M 25.5 32 L 26 34 L 28 34.5 L 25 35 L 25.5 32 Z " /><path fill="rgb(69,53,47)" stroke="rgb(69,53,47)" stroke-width="1" opacity="1" d="M 25.5 36 Q 30 38 26.5 40 L 25.5 36 Z " /><path fill="rgb(104,90,97)" stroke="rgb(104,90,97)" stroke-width="1" opacity="1" d="M 18.5 14 L 19.5 16 Q 16.7 16.7 18.5 14 Z " /><path fill="rgb(104,90,97)" stroke="rgb(104,90,97)" stroke-width="1" opacity="1" d="M 8.5 15 L 9 16.5 L 7 17.5 L 8.5 15 Z " /><path fill="rgb(104,90,97)" stroke="rgb(104,90,97)" stroke-width="1" opacity="1" d="M 12.5 15 L 11.5 17 L 12.5 15 Z " /><path fill="rgb(104,90,97)" stroke="rgb(104,90,97)" stroke-width="1" opacity="1" d="M 13.5 17 L 15.5 20 L 13 19 L 13.5 17 Z " /><path fill="rgb(104,90,97)" stroke="rgb(104,90,97)" stroke-width="1" opacity="1" d="M 21.5 17 L 23.5 18 L 25 17.5 L 22 19 L 20.5 24 L 20 21.5 L 22 18.5 L 21.5 17 Z " /><path fill="rgb(104,90,97)" stroke="rgb(104,90,97)" stroke-width="1" opacity="1" d="M 11.5 20 L 15 22.5 L 13.5 23 L 11.5 20 Z " /><path fill="rgb(104,90,97)" stroke="rgb(104,90,97)" stroke-width="1" opacity="1" d="M 16.5 22 Q 18.8 21.3 18 23.5 L 18.5 25 L 16.5 22 Z " /><path fill="rgb(104,90,97)" stroke="rgb(104,90,97)" stroke-width="1" opacity="1" d="M 19.5 29 L 18.5 31 L 19.5 29 Z " /><path fill="rgb(104,90,97)" stroke="rgb(104,90,97)" stroke-width="1" opacity="1" d="M 16.5 48 L 24 48.5 L 16.5 49 L 16.5 48 Z " /><path fill="rgb(132,111,116)" stroke="rgb(132,111,116)" stroke-width="1" opacity="1" d="M 6.5 1 L 11 1.5 L 6.5 2 L 6.5 1 Z " /><path fill="rgb(132,111,116)" stroke="rgb(132,111,116)" stroke-width="1" opacity="1" d="M 11.5 13 L 14 14.5 L 11 15 L 12 17.5 L 11.5 20 Q 9.3 20.8 10 18.5 L 10.5 17 L 9 16.5 L 9.5 14 L 11 14.5 L 11.5 13 Z " /><path fill="rgb(132,111,116)" stroke="rgb(132,111,116)" stroke-width="1" opacity="1" d="M 20.5 15 L 21.5 17 L 20.5 15 Z " /><path fill="rgb(132,111,116)" stroke="rgb(132,111,116)" stroke-width="1" opacity="1" d="M 7.5 16 L 7.5 18 Q 9.8 17.3 9 19.5 L 5 18.5 L 7.5 16 Z " /><path fill="rgb(132,111,116)" stroke="rgb(132,111,116)" stroke-width="1" opacity="1" d="M 18.5 20 L 20 22.5 L 18 21.5 L 18.5 20 Z " /><path fill="rgb(132,111,116)" stroke="rgb(132,111,116)" stroke-width="1" opacity="1" d="M 22.5 20 L 21.5 22 L 22.5 20 Z " /><path fill="rgb(132,111,116)" stroke="rgb(132,111,116)" stroke-width="1" opacity="1" d="M 12.5 22 L 11.5 24 L 10 23.5 L 12.5 22 Z " /><path fill="rgb(132,111,116)" stroke="rgb(132,111,116)" stroke-width="1" opacity="1" d="M 14.5 38 L 18 39.5 L 15 41 L 14.5 38 Z " /><path fill="rgb(132,111,116)" stroke="rgb(132,111,116)" stroke-width="1" opacity="1" d="M 23.5 46 L 27 48.5 L 24 49 L 23.5 47 L 21.5 48 L 21.5 47 L 23.5 46 Z " /><path fill="rgb(132,111,116)" stroke="rgb(132,111,116)" stroke-width="1" opacity="1" d="M 2.5 48 L 10 48.5 L 2.5 49 L 2.5 48 Z " /><path fill="rgb(168,187,194)" stroke="rgb(168,187,194)" stroke-width="1" opacity="1" d="M 14.5 1 L 26 1.5 L 14.5 2 L 14.5 1 Z " /><path fill="rgb(168,187,194)" stroke="rgb(168,187,194)" stroke-width="1" opacity="1" d="M 14.5 14 L 18 15 L 19 18.5 L 17.5 21 L 16.5 19 L 18 18.5 L 17 16 L 14.5 17 L 14.5 14 Z " /><path fill="rgb(168,187,194)" stroke="rgb(168,187,194)" stroke-width="1" opacity="1" d="M 6.5 18 L 7.5 20 L 6.5 18 Z " /><path fill="rgb(168,187,194)" stroke="rgb(168,187,194)" stroke-width="1" opacity="1" d="M 19.5 21 L 18.5 23 L 19.5 21 Z " /><path fill="rgb(168,187,194)" stroke="rgb(168,187,194)" stroke-width="1" opacity="1" d="M 21.5 24 L 20.5 26 L 18.5 27 L 19.5 25 L 21.5 24 Z " /><path fill="rgb(168,187,194)" stroke="rgb(168,187,194)" stroke-width="1" opacity="1" d="M 15 27 L 17 27.5 Q 13.5 29 16 30.5 L 15 32.5 L 21 34 L 21 39 L 19.5 39 L 13.5 34 L 9.5 39 L 9 37.5 L 10.5 31 L 14 33 L 12.5 30 Q 9.9 30.7 11 28 L 15 29 L 15 27 Z " /><path fill="rgb(168,187,194)" stroke="rgb(168,187,194)" stroke-width="1" opacity="1" d="M 2.5 29 L 3 32.5 L 2 32.5 L 2.5 29 Z " /><path fill="rgb(168,187,194)" stroke="rgb(168,187,194)" stroke-width="1" opacity="1" d="M 26.5 29 L 28 32.5 L 27 32.5 L 26.5 29 Z " /><path fill="rgb(168,187,194)" stroke="rgb(168,187,194)" stroke-width="1" opacity="1" d="M 2.5 35 L 3 39.5 L 2 39.5 L 2.5 35 Z " /><path fill="rgb(168,187,194)" stroke="rgb(168,187,194)" stroke-width="1" opacity="1" d="M 5.5 35 L 6 38.5 L 5 38.5 L 5.5 35 Z " /><path fill="rgb(168,187,194)" stroke="rgb(168,187,194)" stroke-width="1" opacity="1" d="M 26.5 36 Q 28.8 35.3 28 37.5 L 26.5 36 Z " /><path fill="rgb(168,187,194)" stroke="rgb(168,187,194)" stroke-width="1" opacity="1" d="M 18 45 Q 22.3 44 23.5 47 L 25 46.5 Q 23.7 49.3 22.5 47 L 19.5 48 L 17 47.5 L 18 45 Z " /><path fill="rgb(168,187,194)" stroke="rgb(168,187,194)" stroke-width="1" opacity="1" d="M 8.5 46 L 9.5 48 L 8.5 46 Z " /><path fill="rgb(246,242,219)" stroke="rgb(246,242,219)" stroke-width="1" opacity="1" d="M 0 0 L 30 0 L 30 50 L 0 50 L 0 0 Z M 2 1 L 2 45 L 3 45 L 15 45 L 17 45 Q 19 44 18 47 L 11 46 L 11 48 L 10 46 L 4 46 L 3 48 L 2 47 L 1 49 L 28 49 L 25 48 L 24 46 L 28 45 L 28 10 L 29 9 L 28 7 L 29 3 L 26 1 L 2 1 Z " /><path fill="rgb(246,242,219)" stroke="rgb(246,242,219)" stroke-width="1" opacity="1" d="M 10.5 25 L 11.5 27 L 15.5 26 L 15 27.5 Q 15.8 29.8 13.5 29 L 10 28 L 10.5 25 Z " /><path fill="rgb(246,242,219)" stroke="rgb(246,242,219)" stroke-width="1" opacity="1" d="M 19.5 26 L 20 28 L 17 27.5 L 19.5 26 Z " /><path fill="rgb(150,143,147)" stroke="rgb(150,143,147)" stroke-width="1" opacity="1" d="M 11.5 1 L 14 1.5 L 11.5 2 L 11.5 1 Z " /><path fill="rgb(150,143,147)" stroke="rgb(150,143,147)" stroke-width="1" opacity="1" d="M 8.5 14 L 9.5 16 L 7 15.5 L 8.5 14 Z " /><path fill="rgb(150,143,147)" stroke="rgb(150,143,147)" stroke-width="1" opacity="1" d="M 20.5 14 L 23 15.5 L 21.5 16 L 20.5 14 Z " /><path fill="rgb(150,143,147)" stroke="rgb(150,143,147)" stroke-width="1" opacity="1" d="M 19.5 16 Q 22 17.2 21 21 Q 18 22.3 19 18.5 L 19.5 16 Z " /><path fill="rgb(150,143,147)" stroke="rgb(150,143,147)" stroke-width="1" opacity="1" d="M 3 17 L 5 17.5 L 3 18.5 L 3 17 Z " /><path fill="rgb(150,143,147)" stroke="rgb(150,143,147)" stroke-width="1" opacity="1" d="M 27.5 17 L 26.5 19 L 27.5 17 Z " /><path fill="rgb(150,143,147)" stroke="rgb(150,143,147)" stroke-width="1" opacity="1" d="M 15.5 22 L 14.5 24 L 15.5 22 Z " /><path fill="rgb(150,143,147)" stroke="rgb(150,143,147)" stroke-width="1" opacity="1" d="M 24.5 22 L 28 27.5 L 26 28 Q 26.6 23.3 24.5 22 Z " /><path fill="rgb(150,143,147)" stroke="rgb(150,143,147)" stroke-width="1" opacity="1" d="M 12.5 23 L 14 25.5 L 12 26 L 12.5 23 Z " /><path fill="rgb(150,143,147)" stroke="rgb(150,143,147)" stroke-width="1" opacity="1" d="M 8.5 25 Q 10.8 24.3 10 26.5 L 8.5 25 Z " /><path fill="rgb(150,143,147)" stroke="rgb(150,143,147)" stroke-width="1" opacity="1" d="M 16 25 L 19 25.5 L 16 27 L 16 25 Z " /><path fill="rgb(150,143,147)" stroke="rgb(150,143,147)" stroke-width="1" opacity="1" d="M 17.5 28 Q 21.7 29.7 19 31.5 Q 18.3 33.8 20.5 33 L 20.5 34 L 16 31.5 L 19 30.5 L 17 30 L 17.5 28 Z " /><path fill="rgb(150,143,147)" stroke="rgb(150,143,147)" stroke-width="1" opacity="1" d="M 12.5 30 L 14 33 L 11 31.5 L 12.5 30 Z " /><path fill="rgb(150,143,147)" stroke="rgb(150,143,147)" stroke-width="1" opacity="1" d="M 13.5 34 L 19 38.5 L 14.5 35 L 12.5 36 L 13.5 34 Z " /><path fill="rgb(150,143,147)" stroke="rgb(150,143,147)" stroke-width="1" opacity="1" d="M 11.5 37 L 10.5 39 L 11.5 37 Z " /><path fill="rgb(150,143,147)" stroke="rgb(150,143,147)" stroke-width="1" opacity="1" d="M 13 46 L 17 47.5 L 13 48 L 13 46 Z " /><path fill="rgb(102,116,120)" stroke="rgb(102,116,120)" stroke-width="1" opacity="1" d="M 25 19 L 28 19.5 L 25.5 21 L 25 19 Z " /><path fill="rgb(103,78,50)" stroke="rgb(103,78,50)" stroke-width="1" opacity="1" d="M 13 11 Q 16 10 15 13 Q 12 14 13 11 Z " /><path fill="rgb(103,78,50)" stroke="rgb(103,78,50)" stroke-width="1" opacity="1" d="M 27.5 11 L 28 13.5 L 27 13.5 L 27.5 11 Z " /><path fill="rgb(103,78,50)" stroke="rgb(103,78,50)" stroke-width="1" opacity="1" d="M 3.5 21 L 6 22.5 L 4.5 23 L 3.5 21 Z " /><path fill="rgb(103,78,50)" stroke="rgb(103,78,50)" stroke-width="1" opacity="1" d="M 14.5 41 L 16.5 44 L 14.5 41 Z " /><path fill="rgb(103,78,50)" stroke="rgb(103,78,50)" stroke-width="1" opacity="1" d="M 7.5 42 Q 12.8 40.5 11 45 L 8 44.5 L 8.5 43 L 7.5 42 Z " /><path fill="rgb(103,78,50)" stroke="rgb(103,78,50)" stroke-width="1" opacity="1" d="M 27.5 42 L 26.5 44 L 25 43.5 L 27.5 42 Z " /><path fill="rgb(103,78,50)" stroke="rgb(103,78,50)" stroke-width="1" opacity="1" d="M 13.5 43 L 14 45 L 12 44.5 L 13.5 43 Z " /><path fill="rgb(103,78,50)" stroke="rgb(103,78,50)" stroke-width="1" opacity="1" d="M 4.5 44 L 7 44.5 L 4.5 45 L 4.5 44 Z " /><path fill="rgb(201,173,92)" stroke="rgb(201,173,92)" stroke-width="1" opacity="1" d="M 14.5 6 L 17 7.5 L 15.5 7 L 14.5 6 Z " /><path fill="rgb(201,173,92)" stroke="rgb(201,173,92)" stroke-width="1" opacity="1" d="M 19.5 10 L 18.5 12 L 19.5 10 Z " /><path fill="rgb(201,173,92)" stroke="rgb(201,173,92)" stroke-width="1" opacity="1" d="M 11.5 11 L 12.5 13 Q 9.7 13.7 11.5 11 Z " /><path fill="rgb(201,173,92)" stroke="rgb(201,173,92)" stroke-width="1" opacity="1" d="M 15.5 11 L 16.5 13 L 15.5 11 Z " /><path fill="rgb(201,173,92)" stroke="rgb(201,173,92)" stroke-width="1" opacity="1" d="M 7.5 23 L 8.5 27 L 5 24.5 L 7.5 23 Z " /><path fill="rgb(201,173,92)" stroke="rgb(201,173,92)" stroke-width="1" opacity="1" d="M 2.5 25 L 3.5 27 L 2.5 25 Z " /><path fill="rgb(201,173,92)" stroke="rgb(201,173,92)" stroke-width="1" opacity="1" d="M 20.5 27 L 22 33.5 L 21 33.5 L 20.5 31 L 19 31.5 L 20.5 27 Z " /><path fill="rgb(201,173,92)" stroke="rgb(201,173,92)" stroke-width="1" opacity="1" d="M 5.5 28 L 6 29.5 L 4 30.5 L 5.5 28 Z " /><path fill="rgb(201,173,92)" stroke="rgb(201,173,92)" stroke-width="1" opacity="1" d="M 9 28 Q 11.7 26.9 11 29.5 L 12.5 32 L 9.5 30 L 9.5 32 Q 6.8 30.8 9 29.5 L 9 28 Z " /><path fill="rgb(201,173,92)" stroke="rgb(201,173,92)" stroke-width="1" opacity="1" d="M 4.5 35 L 3.5 37 L 4.5 35 Z " /><path fill="rgb(201,173,92)" stroke="rgb(201,173,92)" stroke-width="1" opacity="1" d="M 9.5 35 L 8.5 37 L 9.5 35 Z " /><path fill="rgb(201,173,92)" stroke="rgb(201,173,92)" stroke-width="1" opacity="1" d="M 6.5 39 L 7 42.5 L 5 43.5 L 6.5 39 Z " /><path fill="rgb(201,173,92)" stroke="rgb(201,173,92)" stroke-width="1" opacity="1" d="M 8.5 39 L 9 41.5 L 8 41.5 L 8.5 39 Z " /><path fill="rgb(201,173,92)" stroke="rgb(201,173,92)" stroke-width="1" opacity="1" d="M 22.5 39 L 23 43.5 L 22 43.5 L 22.5 39 Z " /><path fill="rgb(161,73,81)" stroke="rgb(161,73,81)" stroke-width="1" opacity="1" d="M 3.5 8 L 6 8.5 L 3.5 9 L 3.5 8 Z " /><path fill="rgb(161,73,81)" stroke="rgb(161,73,81)" stroke-width="1" opacity="1" d="M 2.5 10 L 3.5 12 L 2.5 10 Z " /><path fill="rgb(161,73,81)" stroke="rgb(161,73,81)" stroke-width="1" opacity="1" d="M 13.5 35 L 14 37 L 22 40 Q 23.1 43.5 15.5 42 L 13.5 42 Q 8.1 43.9 9 40.5 L 13.5 35 Z M 15 39 L 15 41 L 18 40 L 15 39 Z " /><path fill="rgb(161,73,81)" stroke="rgb(161,73,81)" stroke-width="1" opacity="1" d="M 26 40 Q 29 39 28 42 Q 25 43 26 40 Z " /><path fill="rgb(194,87,62)" stroke="rgb(194,87,62)" stroke-width="1" opacity="1" d="M 15.5 7 L 16.5 9 L 12 8.5 L 15.5 7 Z " /><path fill="rgb(194,87,62)" stroke="rgb(194,87,62)" stroke-width="1" opacity="1" d="M 21.5 7 L 22 9.5 L 20.5 12 L 20 10.5 L 21.5 7 Z " /><path fill="rgb(194,87,62)" stroke="rgb(194,87,62)" stroke-width="1" opacity="1" d="M 9.5 11 L 10.5 13 Q 7.7 13.7 9.5 11 Z " /><path fill="rgb(194,87,62)" stroke="rgb(194,87,62)" stroke-width="1" opacity="1" d="M 14.5 35 L 15.5 37 Q 12.7 37.7 14.5 35 Z " /><path fill="rgb(149,119,56)" stroke="rgb(149,119,56)" stroke-width="1" opacity="1" d="M 3.5 2 L 4 4.5 L 3 4.5 L 3.5 2 Z " /><path fill="rgb(149,119,56)" stroke="rgb(149,119,56)" stroke-width="1" opacity="1" d="M 23.5 5 L 26 5.5 Q 23.9 8.8 23.5 5 Z " /><path fill="rgb(149,119,56)" stroke="rgb(149,119,56)" stroke-width="1" opacity="1" d="M 6.5 38 L 7.5 40 L 6.5 38 Z " /><path fill="rgb(149,119,56)" stroke="rgb(149,119,56)" stroke-width="1" opacity="1" d="M 11 42 Q 14 41 13 44 Q 10 45 11 42 Z " /></svg>