<svg width="30" height="50" version="1.1" xmlns="http://www.w3.org/2000/svg" desc="Created with imagetracer.js version 1.2.6" ><path fill="rgb(232,228,231)" stroke="rgb(232,228,231)" stroke-width="1" opacity="1" d="M 8.5 8 Q 11.3 9.3 9 10.5 Q 10.1 14.7 6 13 Q 5.3 9.2 8.5 8 Z " /><path fill="rgb(232,228,231)" stroke="rgb(232,228,231)" stroke-width="1" opacity="1" d="M 22.5 17 L 23 18.5 L 21.5 21 L 21 19.5 L 22.5 17 Z " /><path fill="rgb(232,228,231)" stroke="rgb(232,228,231)" stroke-width="1" opacity="1" d="M 7.5 26 L 7 27.5 Q 6.1 30.5 10.5 29 L 10.5 30 Q 4.7 32.1 6 27.5 L 7.5 26 Z " /><path fill="rgb(232,228,231)" stroke="rgb(232,228,231)" stroke-width="1" opacity="1" d="M 25.5 30 L 26.5 32 L 25.5 30 Z " /><path fill="rgb(232,228,231)" stroke="rgb(232,228,231)" stroke-width="1" opacity="1" d="M 4 31 L 7 31.5 L 6 33.5 L 6.5 35 Q 4.3 35.8 5 33.5 L 4 31 Z " /><path fill="rgb(232,228,231)" stroke="rgb(232,228,231)" stroke-width="1" opacity="1" d="M 12.5 32 L 12.5 35 Q 10.3 35.8 11 33.5 L 12.5 32 Z " /><path fill="rgb(232,228,231)" stroke="rgb(232,228,231)" stroke-width="1" opacity="1" d="M 11.5 36 L 13 36.5 L 10.5 38 L 11.5 36 Z " /><path fill="rgb(232,228,231)" stroke="rgb(232,228,231)" stroke-width="1" opacity="1" d="M 16.5 36 L 17.5 38 Q 14.7 38.7 16.5 36 Z " /><path fill="rgb(232,228,231)" stroke="rgb(232,228,231)" stroke-width="1" opacity="1" d="M 2.5 45 L 9 46 Q 10 49 7 48 L 6.5 46 L 3.5 48 L 3.5 47 L 5 46.5 Q 1.7 46.6 2.5 45 Z " /><path fill="rgb(211,198,201)" stroke="rgb(211,198,201)" stroke-width="1" opacity="1" d="M 15 14 Q 17.7 12.9 17 15.5 L 15 16.5 L 15 14 Z " /><path fill="rgb(211,198,201)" stroke="rgb(211,198,201)" stroke-width="1" opacity="1" d="M 3.5 32 L 7 37.5 L 4 39.5 Q 3.3 37.3 5.5 38 L 4 35.5 L 3.5 32 Z " /><path fill="rgb(211,198,201)" stroke="rgb(211,198,201)" stroke-width="1" opacity="1" d="M 19.5 32 L 22 35.5 L 19.5 34 L 17 35.5 L 19.5 32 Z " /><path fill="rgb(211,198,201)" stroke="rgb(211,198,201)" stroke-width="1" opacity="1" d="M 9.5 37 L 12 38.5 L 9 39 L 9.5 37 Z " /><path fill="rgb(211,198,201)" stroke="rgb(211,198,201)" stroke-width="1" opacity="1" d="M 23.5 46 L 24.5 48 L 23.5 46 Z " /><path fill="rgb(158,241,249)" stroke="rgb(158,241,249)" stroke-width="1" opacity="1" d="M 16 2 Q 21.6 -0.2 20 5.5 L 20.5 7 L 17.5 6 L 15.5 7 L 16 5.5 L 16 2 Z " /><path fill="rgb(158,241,249)" stroke="rgb(158,241,249)" stroke-width="1" opacity="1" d="M 19.5 9 L 21 11.5 L 18.5 12 L 17.5 10 L 19.5 9 Z " /><path fill="rgb(158,241,249)" stroke="rgb(158,241,249)" stroke-width="1" opacity="1" d="M 6.5 26 L 5.5 28 L 6.5 26 Z " /><path fill="rgb(158,241,249)" stroke="rgb(158,241,249)" stroke-width="1" opacity="1" d="M 18 27 L 20 27.5 L 18.5 30 L 18 27 Z " /><path fill="rgb(177,245,251)" stroke="rgb(177,245,251)" stroke-width="1" opacity="1" d="M 20 2 L 23 2.5 L 21.5 7 Q 19 5.8 20 2 Z " /><path fill="rgb(177,245,251)" stroke="rgb(177,245,251)" stroke-width="1" opacity="1" d="M 24.5 2 L 28 2.5 L 28 17.5 L 27 17.5 Q 27.8 15.3 25.5 16 L 23 14.5 L 24 12 L 22 11.5 L 24 11 L 23 7.5 L 23.5 5 Q 25.8 5.8 25 3.5 L 24.5 2 Z " /><path fill="rgb(177,245,251)" stroke="rgb(177,245,251)" stroke-width="1" opacity="1" d="M 21.5 26 L 26 28.5 Q 24.8 31.3 23.5 29 L 19.5 30 L 19 28.5 L 21.5 26 Z " /><path fill="rgb(128,236,251)" stroke="rgb(128,236,251)" stroke-width="1" opacity="1" d="M 2 2 L 5.5 3 L 7.5 2 L 10 3.5 L 7 4.5 L 10 5.5 L 7 6.5 L 7.5 8 Q 5.3 7.3 6 9.5 L 4 12.5 L 9 16.5 L 8 22 L 6 22.5 L 8 23 L 7.5 25 L 4.5 24 L 6 26.5 L 5 27.5 L 4.5 31 L 2 30 L 2 20.5 L 3 19.5 L 2 16.5 L 3 12.5 L 2 11.5 L 2 2 Z M 5 7 L 3 10 L 5 10 L 5 7 Z M 5 19 L 5 21 L 8 20 L 5 19 Z " /><path fill="rgb(137,242,252)" stroke="rgb(137,242,252)" stroke-width="1" opacity="1" d="M 8.5 2 L 16 2 L 16 5.5 L 14.5 7 Q 9.8 5.8 8.5 8 L 7.5 6 L 10 5.5 L 7 4.5 L 10 3.5 L 8.5 2 Z " /><path fill="rgb(137,242,252)" stroke="rgb(137,242,252)" stroke-width="1" opacity="1" d="M 4.5 7 L 5 10 L 3 9.5 L 4.5 7 Z " /><path fill="rgb(137,242,252)" stroke="rgb(137,242,252)" stroke-width="1" opacity="1" d="M 9 17 Q 12.8 15.5 12 18.5 L 13 20.5 L 11 26 Q 5.6 27.5 4 24.5 L 6.5 24 L 8 24.5 Q 8.8 22.3 6.5 23 L 6.5 22 Q 8.8 22.8 8 20.5 L 6.5 21 Q 3.9 21.7 5 19 L 8.5 20 L 9 17 Z " /><path fill="rgb(164,61,63)" stroke="rgb(164,61,63)" stroke-width="1" opacity="1" d="M 15.5 7 L 17 9.5 L 14.5 11 L 12.5 8 L 15.5 7 Z " /><path fill="rgb(164,61,63)" stroke="rgb(164,61,63)" stroke-width="1" opacity="1" d="M 20.5 13 Q 23.5 12.2 22 16 L 19.5 17 L 18 14 L 20.5 13 Z " /><path fill="rgb(164,61,63)" stroke="rgb(164,61,63)" stroke-width="1" opacity="1" d="M 18.5 18 L 19 20.5 L 17.5 22 L 17 19.5 L 18.5 18 Z " /><path fill="rgb(164,61,63)" stroke="rgb(164,61,63)" stroke-width="1" opacity="1" d="M 15.5 21 L 15 22.5 L 13.5 25 L 12 24.5 L 14 23.5 L 13.5 22 L 15.5 21 Z " /><path fill="rgb(164,61,63)" stroke="rgb(164,61,63)" stroke-width="1" opacity="1" d="M 16 23 Q 18.7 21.9 18 24.5 L 19 27 Q 16.3 28.1 17 25.5 L 16 25.5 L 15.5 27 L 15 25.5 L 16 23 Z " /><path fill="rgb(164,61,63)" stroke="rgb(164,61,63)" stroke-width="1" opacity="1" d="M 8.5 34 L 11 34.5 L 6.5 40 L 5 39.5 Q 10.4 36.8 8.5 34 Z " /><path fill="rgb(164,61,63)" stroke="rgb(164,61,63)" stroke-width="1" opacity="1" d="M 14.5 34 Q 17.3 35.3 15 36.5 L 16.5 39 L 18 39.5 L 14 40 L 14.5 34 Z " /><path fill="rgb(251,250,251)" stroke="rgb(251,250,251)" stroke-width="1" opacity="1" d="M 0 0 L 30 0 L 30 50 L 0 50 L 0 0 Z M 2 1 L 2 49 L 28 49 L 29 47 L 28 47 L 27 46 L 14 46 L 14 48 L 13 46 L 10 48 L 9 46 L 7 46 L 16 44 L 18 45 L 28 45 L 28 39 L 22 39 L 21 40 L 18 39 L 17 37 L 22 36 L 20 32 L 18 32 L 24 30 L 23 33 L 27 33 L 28 35 L 28 33 Q 24 31 28 29 Q 30 23 27 24 L 27 26 Q 28 29 26 28 L 26 26 L 24 27 L 24 25 Q 20 26 21 23 L 23 23 L 21 22 L 25 15 L 27 20 L 28 20 L 28 1 L 2 1 Z M 27 20 L 26 23 L 27 23 L 27 20 Z " /><path fill="rgb(251,250,251)" stroke="rgb(251,250,251)" stroke-width="1" opacity="1" d="M 9.5 8 L 12 9.5 L 13 12.5 L 10.5 16 L 7 13.5 L 9 13 L 10 9.5 L 9.5 8 Z " /><path fill="rgb(251,250,251)" stroke="rgb(251,250,251)" stroke-width="1" opacity="1" d="M 14.5 15 L 15 17 L 19 17.5 L 14 18 L 14.5 15 Z " /><path fill="rgb(251,250,251)" stroke="rgb(251,250,251)" stroke-width="1" opacity="1" d="M 7 27 L 10 28.5 L 7 29 L 7 27 Z " /><path fill="rgb(251,250,251)" stroke="rgb(251,250,251)" stroke-width="1" opacity="1" d="M 7.5 31 L 8 34 Q 5.3 35.1 6 32.5 L 7.5 31 Z " /><path fill="rgb(173,148,138)" stroke="rgb(173,148,138)" stroke-width="1" opacity="1" d="M 13.5 10 L 14.5 13 L 16 13.5 L 13 14 L 14 11.5 L 13.5 10 Z " /><path fill="rgb(173,148,138)" stroke="rgb(173,148,138)" stroke-width="1" opacity="1" d="M 19.5 12 L 18 14.5 Q 19.1 17.8 16.5 17 L 17 15.5 Q 15.9 12.2 18.5 13 L 19.5 12 Z " /><path fill="rgb(173,148,138)" stroke="rgb(173,148,138)" stroke-width="1" opacity="1" d="M 12.5 15 Q 14.8 14.3 14 16.5 L 12.5 15 Z " /><path fill="rgb(173,148,138)" stroke="rgb(173,148,138)" stroke-width="1" opacity="1" d="M 20.5 16 L 21.5 18 L 20.5 16 Z " /><path fill="rgb(173,148,138)" stroke="rgb(173,148,138)" stroke-width="1" opacity="1" d="M 16.5 19 Q 19.8 20.8 16 22.5 L 17 26.5 L 16 26.5 L 15.5 25 Q 13.8 28.8 12 25.5 L 14 24.5 L 12 23.5 L 13.5 23 L 15 23.5 L 16.5 19 Z " /><path fill="rgb(173,148,138)" stroke="rgb(173,148,138)" stroke-width="1" opacity="1" d="M 16.5 32 L 17 34.5 L 16 37.5 L 16.5 39 L 15 36.5 L 16 34.5 Q 13.8 33.3 16.5 32 Z " /><path fill="rgb(173,148,138)" stroke="rgb(173,148,138)" stroke-width="1" opacity="1" d="M 18.5 32 L 20 34.5 L 18 33.5 L 18.5 32 Z " /><path fill="rgb(173,148,138)" stroke="rgb(173,148,138)" stroke-width="1" opacity="1" d="M 13.5 36 L 14 38.5 L 13 38.5 L 13.5 36 Z " /><path fill="rgb(225,215,95)" stroke="rgb(225,215,95)" stroke-width="1" opacity="1" d="M 12.5 26 L 17 27 L 15.5 32 L 15 29 L 11 31.5 L 9.5 34 L 10 32.5 L 12.5 26 Z " /><path fill="rgb(225,215,95)" stroke="rgb(225,215,95)" stroke-width="1" opacity="1" d="M 16.5 40 L 15.5 42 L 16.5 40 Z " /><path fill="rgb(225,215,95)" stroke="rgb(225,215,95)" stroke-width="1" opacity="1" d="M 24.5 42 L 27 43.5 Q 25.5 46.5 24 43.5 L 24.5 42 Z " /><path fill="rgb(225,215,95)" stroke="rgb(225,215,95)" stroke-width="1" opacity="1" d="M 8 43 Q 11 42 10 45 Q 7 46 8 43 Z " /><path fill="rgb(107,115,120)" stroke="rgb(107,115,120)" stroke-width="1" opacity="1" d="M 22.5 3 Q 24.8 2.3 24 4.5 L 22.5 3 Z " /><path fill="rgb(107,115,120)" stroke="rgb(107,115,120)" stroke-width="1" opacity="1" d="M 22.5 6 L 21.5 8 L 22.5 6 Z " /><path fill="rgb(107,115,120)" stroke="rgb(107,115,120)" stroke-width="1" opacity="1" d="M 20.5 12 Q 23.8 10.9 23 13.5 L 21.5 13 L 19.5 14 L 20.5 12 Z " /><path fill="rgb(107,115,120)" stroke="rgb(107,115,120)" stroke-width="1" opacity="1" d="M 5.5 35 L 4.5 37 L 5.5 35 Z " /><path fill="rgb(107,115,120)" stroke="rgb(107,115,120)" stroke-width="1" opacity="1" d="M 3.5 39 L 2.5 41 L 3.5 39 Z " /><path fill="rgb(107,115,120)" stroke="rgb(107,115,120)" stroke-width="1" opacity="1" d="M 27.5 39 L 27 40.5 L 28 42.5 L 26 43 L 25.5 41 L 23.5 41 L 19 40.5 L 23.5 40 L 25.5 40 L 27.5 39 Z " /><path fill="rgb(107,115,120)" stroke="rgb(107,115,120)" stroke-width="1" opacity="1" d="M 19.5 46 L 21.5 46 L 24 47.5 L 21.5 49 L 19.5 46 Z " /><path fill="rgb(107,115,120)" stroke="rgb(107,115,120)" stroke-width="1" opacity="1" d="M 2.5 48 L 5 48.5 L 2.5 49 L 2.5 48 Z " /><path fill="rgb(107,115,120)" stroke="rgb(107,115,120)" stroke-width="1" opacity="1" d="M 11.5 48 L 14 48.5 L 11.5 49 L 11.5 48 Z " /><path fill="rgb(148,180,186)" stroke="rgb(148,180,186)" stroke-width="1" opacity="1" d="M 19.5 6 L 21.5 9 L 19.5 6 Z " /><path fill="rgb(148,180,186)" stroke="rgb(148,180,186)" stroke-width="1" opacity="1" d="M 13.5 18 L 15 20.5 L 13 19.5 L 13.5 18 Z " /><path fill="rgb(148,180,186)" stroke="rgb(148,180,186)" stroke-width="1" opacity="1" d="M 21.5 18 L 20 20.5 L 21 26.5 L 20 26.5 L 19 20.5 L 21.5 18 Z " /><path fill="rgb(148,180,186)" stroke="rgb(148,180,186)" stroke-width="1" opacity="1" d="M 21.5 29 L 20.5 31 L 21.5 29 Z " /><path fill="rgb(148,180,186)" stroke="rgb(148,180,186)" stroke-width="1" opacity="1" d="M 24.5 30 L 25.5 32 L 24.5 30 Z " /><path fill="rgb(51,49,44)" stroke="rgb(51,49,44)" stroke-width="1" opacity="1" d="M 2.5 1 L 16 1.5 L 2.5 2 L 2.5 1 Z " /><path fill="rgb(51,49,44)" stroke="rgb(51,49,44)" stroke-width="1" opacity="1" d="M 18.5 1 L 26 1.5 L 18.5 2 L 18.5 1 Z " /><path fill="rgb(51,49,44)" stroke="rgb(51,49,44)" stroke-width="1" opacity="1" d="M 19.5 7 L 20 9 L 16 8.5 L 19.5 7 Z " /><path fill="rgb(51,49,44)" stroke="rgb(51,49,44)" stroke-width="1" opacity="1" d="M 18.5 21 L 19 23 L 16 22.5 L 18.5 21 Z " /><path fill="rgb(51,49,44)" stroke="rgb(51,49,44)" stroke-width="1" opacity="1" d="M 3.5 36 L 5 37.5 L 3.5 40 Q 7.9 38.5 7 41.5 L 7.5 43 L 5.5 42 L 4.5 45 Q 0.8 46 2 43 Q 4.7 44.1 4 41.5 L 2 39.5 L 3.5 36 Z " /><path fill="rgb(51,49,44)" stroke="rgb(51,49,44)" stroke-width="1" opacity="1" d="M 9 39 L 12 39.5 L 10 40.5 L 13 42.5 L 10.5 43 L 9 39 Z " /><path fill="rgb(51,49,44)" stroke="rgb(51,49,44)" stroke-width="1" opacity="1" d="M 20.5 41 L 23 41.5 L 17.5 44 L 15 42.5 L 20.5 41 Z " /><path fill="rgb(51,49,44)" stroke="rgb(51,49,44)" stroke-width="1" opacity="1" d="M 2 46 L 5 46.5 L 2.5 48 L 2 46 Z " /><path fill="rgb(51,49,44)" stroke="rgb(51,49,44)" stroke-width="1" opacity="1" d="M 6.5 47 L 11 48.5 L 5.5 49 L 6.5 47 Z " /><path fill="rgb(51,49,44)" stroke="rgb(51,49,44)" stroke-width="1" opacity="1" d="M 15.5 47 L 20.5 48 L 22.5 47 L 28 48.5 L 23.5 49 L 21.5 48 Q 20 50.5 14.5 49 L 15.5 47 Z " /><path fill="rgb(126,117,53)" stroke="rgb(126,117,53)" stroke-width="1" opacity="1" d="M 15.5 11 L 18 12.5 L 16.5 13 L 15.5 11 Z " /><path fill="rgb(126,117,53)" stroke="rgb(126,117,53)" stroke-width="1" opacity="1" d="M 19.5 17 L 20 19.5 L 19 19.5 L 19.5 17 Z " /><path fill="rgb(126,117,53)" stroke="rgb(126,117,53)" stroke-width="1" opacity="1" d="M 7.5 39 Q 10.1 38.2 9 41.5 L 12.5 44 L 13 42.5 L 10 40.5 L 14 39 L 14.5 41 Q 15.8 38.8 17 41.5 L 15 41.5 L 14 45 L 8 43 Q 9.3 46 5.5 45 L 2 43 Q 1 40 4 41 L 4.5 43 L 6.5 43 L 8 42.5 L 7.5 39 Z " /><path fill="rgb(126,117,53)" stroke="rgb(126,117,53)" stroke-width="1" opacity="1" d="M 18.5 43 L 21 43.5 Q 18.9 46.8 18.5 43 Z " /><path fill="rgb(126,117,53)" stroke="rgb(126,117,53)" stroke-width="1" opacity="1" d="M 22.5 43 L 25 44.5 L 23.5 44 L 22.5 43 Z " /><path fill="rgb(220,235,157)" stroke="rgb(220,235,157)" stroke-width="1" opacity="1" d="M 13.5 29 Q 16.1 28.2 15 31.5 L 14 31.5 L 13.5 30 L 12 30.5 L 13.5 29 Z " /><path fill="rgb(220,235,157)" stroke="rgb(220,235,157)" stroke-width="1" opacity="1" d="M 11.5 32 L 10.5 34 L 11.5 32 Z " /><path fill="rgb(220,235,157)" stroke="rgb(220,235,157)" stroke-width="1" opacity="1" d="M 17.5 40 Q 19.8 39.3 19 41.5 L 17.5 40 Z " /><path fill="rgb(220,235,157)" stroke="rgb(220,235,157)" stroke-width="1" opacity="1" d="M 27.5 43 L 28 45 L 26 44.5 L 27.5 43 Z " /><path fill="rgb(220,235,157)" stroke="rgb(220,235,157)" stroke-width="1" opacity="1" d="M 21.5 44 L 24 44.5 L 21.5 45 L 21.5 44 Z " /><path fill="rgb(158,212,214)" stroke="rgb(158,212,214)" stroke-width="1" opacity="1" d="M 23.5 13 L 22.5 15 L 23.5 13 Z " /><path fill="rgb(158,212,214)" stroke="rgb(158,212,214)" stroke-width="1" opacity="1" d="M 11.5 16 L 12.5 18 L 11.5 16 Z " /><path fill="rgb(158,212,214)" stroke="rgb(158,212,214)" stroke-width="1" opacity="1" d="M 25.5 39 L 24.5 41 L 25.5 39 Z " /></svg>