<svg width="30" height="50" version="1.1" xmlns="http://www.w3.org/2000/svg" desc="Created with imagetracer.js version 1.2.6" ><path fill="rgb(130,175,188)" stroke="rgb(130,175,188)" stroke-width="1" opacity="1" d="M 3.5 4 L 4.5 6 L 3.5 4 Z " /><path fill="rgb(130,175,188)" stroke="rgb(130,175,188)" stroke-width="1" opacity="1" d="M 7.5 9 L 8.5 11 L 6 10.5 L 7.5 9 Z " /><path fill="rgb(130,175,188)" stroke="rgb(130,175,188)" stroke-width="1" opacity="1" d="M 19.5 12 L 22 12.5 Q 19.9 15.8 19.5 12 Z " /><path fill="rgb(130,175,188)" stroke="rgb(130,175,188)" stroke-width="1" opacity="1" d="M 23.5 26 L 23 27.5 L 22.5 29 L 22 27.5 L 23.5 26 Z " /><path fill="rgb(130,175,188)" stroke="rgb(130,175,188)" stroke-width="1" opacity="1" d="M 5.5 30 L 6 31.5 L 4.5 34 L 3 31.5 L 5.5 30 Z " /><path fill="rgb(130,175,188)" stroke="rgb(130,175,188)" stroke-width="1" opacity="1" d="M 9.5 35 L 8.5 37 L 9.5 35 Z " /><path fill="rgb(143,225,243)" stroke="rgb(143,225,243)" stroke-width="1" opacity="1" d="M 22 2 L 27 2.5 Q 25.8 5 22 4 L 22 2 Z " /><path fill="rgb(143,225,243)" stroke="rgb(143,225,243)" stroke-width="1" opacity="1" d="M 2.5 24 L 7 27.5 L 4 29.5 L 4.5 31 L 2.5 32 L 2 30.5 L 3 25.5 L 2.5 24 Z " /><path fill="rgb(143,225,243)" stroke="rgb(143,225,243)" stroke-width="1" opacity="1" d="M 2.5 33 L 5.5 35 L 9.5 33 L 9 34.5 L 7 37.5 L 2.5 40 L 3.5 38 Q 6.1 38.7 5 36 Q 2.3 37.1 3 34.5 L 2.5 33 Z " /><path fill="rgb(143,225,243)" stroke="rgb(143,225,243)" stroke-width="1" opacity="1" d="M 22.5 35 L 28 36 L 26.5 40 L 22.5 38 L 20.5 39 L 20.5 38 L 22 37.5 Q 19.8 36.3 22.5 35 Z " /><path fill="rgb(246,233,107)" stroke="rgb(246,233,107)" stroke-width="1" opacity="1" d="M 8.5 40 Q 10.8 39.3 10 41.5 L 11.5 43 L 19 44.5 L 3.5 45 L 4.5 43 L 8.5 40 Z " /><path fill="rgb(250,249,249)" stroke="rgb(250,249,249)" stroke-width="1" opacity="1" d="M 0 0 L 30 0 L 30 50 L 0 50 L 0 0 Z M 2 1 L 2 7 L 4 6 L 2 9 L 2 49 L 28 49 L 28 1 L 2 1 Z " /><path fill="rgb(250,249,249)" stroke="rgb(250,249,249)" stroke-width="1" opacity="1" d="M 7.5 2 L 10.5 3 L 16 2 L 15.5 4 L 13.5 4 Q 9.1 2.5 10 5.5 L 9 5.5 L 7.5 2 Z " /><path fill="rgb(250,249,249)" stroke="rgb(250,249,249)" stroke-width="1" opacity="1" d="M 20.5 7 L 22 7.5 L 21 10 L 18 8.5 L 20.5 7 Z " /><path fill="rgb(250,249,249)" stroke="rgb(250,249,249)" stroke-width="1" opacity="1" d="M 25.5 9 L 25.5 12 L 23 11.5 L 25.5 9 Z " /><path fill="rgb(250,249,249)" stroke="rgb(250,249,249)" stroke-width="1" opacity="1" d="M 7.5 17 L 11 17.5 L 9 18 Q 10.3 21 6.5 20 L 3 21 L 4.5 18 L 7.5 17 Z " /><path fill="rgb(232,225,226)" stroke="rgb(232,225,226)" stroke-width="1" opacity="1" d="M 16 2 L 19 2.5 L 16.5 4 L 16 2 Z " /><path fill="rgb(232,225,226)" stroke="rgb(232,225,226)" stroke-width="1" opacity="1" d="M 14.5 3 L 12.5 6 L 10 4.5 L 14.5 3 Z " /><path fill="rgb(232,225,226)" stroke="rgb(232,225,226)" stroke-width="1" opacity="1" d="M 23.5 4 Q 29.4 1.9 28 6.5 L 26.5 6 L 21.5 9 L 21.5 7 L 18.5 8 L 18.5 7 L 23.5 4 Z " /><path fill="rgb(232,225,226)" stroke="rgb(232,225,226)" stroke-width="1" opacity="1" d="M 2 5 L 7 6.5 L 4 8.5 L 2.5 12 L 2 8.5 L 2 6.5 L 2 5 Z " /><path fill="rgb(232,225,226)" stroke="rgb(232,225,226)" stroke-width="1" opacity="1" d="M 27.5 8 L 28 12 L 25.5 11 L 22 11.5 Q 23.3 8.7 24.5 11 L 27.5 8 Z " /><path fill="rgb(232,225,226)" stroke="rgb(232,225,226)" stroke-width="1" opacity="1" d="M 17.5 9 L 20 10.5 L 16.5 11 L 17.5 9 Z " /><path fill="rgb(232,225,226)" stroke="rgb(232,225,226)" stroke-width="1" opacity="1" d="M 3.5 17 L 5 17.5 L 3 20.5 L 3.5 22 Q 0.5 22.9 2 18.5 L 3.5 17 Z " /><path fill="rgb(232,225,226)" stroke="rgb(232,225,226)" stroke-width="1" opacity="1" d="M 11.5 17 L 19 19.5 L 17.5 20 L 11.5 18 L 11.5 17 Z " /><path fill="rgb(232,225,226)" stroke="rgb(232,225,226)" stroke-width="1" opacity="1" d="M 9.5 19 L 12 19.5 L 6.5 21 L 6.5 20 L 9.5 19 Z " /><path fill="rgb(232,225,226)" stroke="rgb(232,225,226)" stroke-width="1" opacity="1" d="M 11 22 L 15 22.5 L 11.5 24 L 11 22 Z " /><path fill="rgb(232,225,226)" stroke="rgb(232,225,226)" stroke-width="1" opacity="1" d="M 18.5 23 Q 21.1 22.2 20 25.5 L 14 29 Q 12.5 25.2 15.5 26 L 18.5 23 Z " /><path fill="rgb(232,225,226)" stroke="rgb(232,225,226)" stroke-width="1" opacity="1" d="M 13.5 34 L 17 34.5 L 11 37.5 L 11.5 39 L 6.5 41 L 7.5 39 L 13.5 34 Z " /><path fill="rgb(232,225,226)" stroke="rgb(232,225,226)" stroke-width="1" opacity="1" d="M 2 45 L 27.5 45 L 28 48 L 25 48 Q 26.1 45.3 23.5 46 L 21.5 47 L 17.5 46 L 15.5 46 L 3 46.5 L 3.5 48 Q 0.5 48.7 2 45 Z " /><path fill="rgb(125,137,145)" stroke="rgb(125,137,145)" stroke-width="1" opacity="1" d="M 8.5 8 L 9.5 10 L 8.5 8 Z " /><path fill="rgb(125,137,145)" stroke="rgb(125,137,145)" stroke-width="1" opacity="1" d="M 17.5 11 L 18.5 13 L 17.5 11 Z " /><path fill="rgb(125,137,145)" stroke="rgb(125,137,145)" stroke-width="1" opacity="1" d="M 14.5 14 L 15.5 16 L 14.5 14 Z " /><path fill="rgb(125,137,145)" stroke="rgb(125,137,145)" stroke-width="1" opacity="1" d="M 15.5 21 L 16 23.5 L 15.5 26 L 14 23.5 L 15.5 21 Z " /><path fill="rgb(125,137,145)" stroke="rgb(125,137,145)" stroke-width="1" opacity="1" d="M 25.5 22 L 26.5 24 L 25.5 22 Z " /><path fill="rgb(125,137,145)" stroke="rgb(125,137,145)" stroke-width="1" opacity="1" d="M 8.5 23 L 6.5 26 L 8.5 23 Z " /><path fill="rgb(125,137,145)" stroke="rgb(125,137,145)" stroke-width="1" opacity="1" d="M 19.5 29 L 21.5 32 L 19 31 L 19.5 29 Z " /><path fill="rgb(125,137,145)" stroke="rgb(125,137,145)" stroke-width="1" opacity="1" d="M 26.5 31 L 26.5 34 Q 24.3 34.8 25 32.5 L 26.5 31 Z " /><path fill="rgb(125,137,145)" stroke="rgb(125,137,145)" stroke-width="1" opacity="1" d="M 7.5 32 L 6.5 34 L 7.5 32 Z " /><path fill="rgb(125,137,145)" stroke="rgb(125,137,145)" stroke-width="1" opacity="1" d="M 21.5 33 Q 23.8 32.3 23 34.5 Q 21.8 37.3 20.5 35 L 19 34.5 L 21.5 33 Z " /><path fill="rgb(125,137,145)" stroke="rgb(125,137,145)" stroke-width="1" opacity="1" d="M 14.5 36 L 17 37.5 L 14.5 39 L 12 37.5 L 14.5 36 Z " /><path fill="rgb(125,137,145)" stroke="rgb(125,137,145)" stroke-width="1" opacity="1" d="M 8.5 38 L 9.5 40 L 8.5 38 Z " /><path fill="rgb(125,137,145)" stroke="rgb(125,137,145)" stroke-width="1" opacity="1" d="M 3.5 46 L 6 46.5 Q 3.9 49.8 3.5 46 Z " /><path fill="rgb(125,137,145)" stroke="rgb(125,137,145)" stroke-width="1" opacity="1" d="M 12 46 Q 15 45 14 48 Q 11 49 12 46 Z " /><path fill="rgb(125,137,145)" stroke="rgb(125,137,145)" stroke-width="1" opacity="1" d="M 20.5 46 L 19.5 48 L 20.5 46 Z " /><path fill="rgb(113,102,99)" stroke="rgb(113,102,99)" stroke-width="1" opacity="1" d="M 22.5 8 L 19.5 12 L 22.5 8 Z " /><path fill="rgb(113,102,99)" stroke="rgb(113,102,99)" stroke-width="1" opacity="1" d="M 18.5 15 L 19.5 17 L 18.5 15 Z " /><path fill="rgb(113,102,99)" stroke="rgb(113,102,99)" stroke-width="1" opacity="1" d="M 19.5 18 L 21 20.5 L 19 19.5 L 19.5 18 Z " /><path fill="rgb(113,102,99)" stroke="rgb(113,102,99)" stroke-width="1" opacity="1" d="M 13.5 19 L 14.5 21 L 16 20.5 Q 14.5 23.5 13 20.5 L 13.5 19 Z " /><path fill="rgb(113,102,99)" stroke="rgb(113,102,99)" stroke-width="1" opacity="1" d="M 24.5 22 L 25.5 24 L 24.5 22 Z " /><path fill="rgb(113,102,99)" stroke="rgb(113,102,99)" stroke-width="1" opacity="1" d="M 7.5 26 L 10 26.5 L 7.5 27 L 7.5 26 Z " /><path fill="rgb(113,102,99)" stroke="rgb(113,102,99)" stroke-width="1" opacity="1" d="M 12.5 26 L 13.5 28 L 12.5 26 Z " /><path fill="rgb(113,102,99)" stroke="rgb(113,102,99)" stroke-width="1" opacity="1" d="M 15 30 L 17 30.5 L 15 31.5 L 15 30 Z " /><path fill="rgb(113,102,99)" stroke="rgb(113,102,99)" stroke-width="1" opacity="1" d="M 13.5 33 L 12.5 35 L 10.5 36 L 11.5 34 L 13.5 33 Z " /><path fill="rgb(113,102,99)" stroke="rgb(113,102,99)" stroke-width="1" opacity="1" d="M 8.5 37 L 10 37.5 L 7.5 39 L 8.5 37 Z " /><path fill="rgb(113,102,99)" stroke="rgb(113,102,99)" stroke-width="1" opacity="1" d="M 10.5 39 L 11.5 41 L 10.5 39 Z " /><path fill="rgb(113,102,99)" stroke="rgb(113,102,99)" stroke-width="1" opacity="1" d="M 15.5 42 L 16.5 44 L 15.5 42 Z " /><path fill="rgb(113,102,99)" stroke="rgb(113,102,99)" stroke-width="1" opacity="1" d="M 14.5 46 L 16.5 47 L 18 46.5 L 15.5 48 L 14.5 46 Z " /><path fill="rgb(194,170,140)" stroke="rgb(194,170,140)" stroke-width="1" opacity="1" d="M 7.5 4 L 8.5 6 L 7.5 4 Z " /><path fill="rgb(194,170,140)" stroke="rgb(194,170,140)" stroke-width="1" opacity="1" d="M 22.5 10 L 21.5 12 L 22.5 10 Z " /><path fill="rgb(194,170,140)" stroke="rgb(194,170,140)" stroke-width="1" opacity="1" d="M 16.5 19 Q 19.5 20.5 16.5 22 L 16.5 19 Z " /><path fill="rgb(194,170,140)" stroke="rgb(194,170,140)" stroke-width="1" opacity="1" d="M 9.5 20 L 8.5 22 L 9.5 20 Z " /><path fill="rgb(194,170,140)" stroke="rgb(194,170,140)" stroke-width="1" opacity="1" d="M 5.5 23 L 6.5 25 L 5.5 23 Z " /><path fill="rgb(194,170,140)" stroke="rgb(194,170,140)" stroke-width="1" opacity="1" d="M 17.5 23 L 16.5 25 L 17.5 23 Z " /><path fill="rgb(194,170,140)" stroke="rgb(194,170,140)" stroke-width="1" opacity="1" d="M 10.5 40 L 12 42.5 L 10 41.5 L 10.5 40 Z " /><path fill="rgb(36,16,21)" stroke="rgb(36,16,21)" stroke-width="1" opacity="1" d="M 2.5 1 L 7 1.5 L 2.5 2 L 2.5 1 Z " /><path fill="rgb(36,16,21)" stroke="rgb(36,16,21)" stroke-width="1" opacity="1" d="M 16.5 1 L 19 1.5 L 16.5 2 L 16.5 1 Z " /><path fill="rgb(36,16,21)" stroke="rgb(36,16,21)" stroke-width="1" opacity="1" d="M 25.5 7 L 24.5 9 L 23 8.5 L 25.5 7 Z " /><path fill="rgb(36,16,21)" stroke="rgb(36,16,21)" stroke-width="1" opacity="1" d="M 21.5 10 L 20.5 12 L 21.5 10 Z " /><path fill="rgb(36,16,21)" stroke="rgb(36,16,21)" stroke-width="1" opacity="1" d="M 27.5 12 L 28 13.5 L 26.5 16 Q 29.9 15.1 28 20.5 L 26.5 20 L 22 19.5 L 24.5 18 L 26.5 19 L 24.5 15 L 26 14.5 L 23.5 14 L 22 18 L 20 17.5 L 21 16.5 L 19.5 14 L 22 15 Q 20.7 11.7 25.5 13 L 27 13.5 L 27.5 12 Z " /><path fill="rgb(36,16,21)" stroke="rgb(36,16,21)" stroke-width="1" opacity="1" d="M 13.5 15 L 19 16 L 18.5 18 L 13 17 L 13.5 15 Z " /><path fill="rgb(36,16,21)" stroke="rgb(36,16,21)" stroke-width="1" opacity="1" d="M 20.5 21 L 26 24 Q 24.9 26.7 27.5 26 L 27 27.5 L 26 31.5 L 26.5 33 L 24.5 32 L 22.5 33 L 22.5 32 L 25 30.5 L 24 27.5 L 25 27.5 L 25.5 29 L 26 26 L 22.5 25 L 21 25.5 L 21 23.5 L 20.5 21 Z " /><path fill="rgb(36,16,21)" stroke="rgb(36,16,21)" stroke-width="1" opacity="1" d="M 6.5 30 L 9 31.5 L 7.5 32 L 6.5 30 Z " /><path fill="rgb(36,16,21)" stroke="rgb(36,16,21)" stroke-width="1" opacity="1" d="M 14.5 31 L 15.5 33 L 13 32.5 L 14.5 31 Z " /><path fill="rgb(36,16,21)" stroke="rgb(36,16,21)" stroke-width="1" opacity="1" d="M 24.5 34 L 25.5 36 L 24.5 34 Z " /><path fill="rgb(36,16,21)" stroke="rgb(36,16,21)" stroke-width="1" opacity="1" d="M 11.5 41 L 12.5 43 L 11.5 41 Z " /><path fill="rgb(36,16,21)" stroke="rgb(36,16,21)" stroke-width="1" opacity="1" d="M 5.5 47 L 8 48.5 L 2.5 49 L 2.5 48 L 5.5 47 Z " /><path fill="rgb(142,205,219)" stroke="rgb(142,205,219)" stroke-width="1" opacity="1" d="M 21.5 4 L 19.5 7 L 21.5 4 Z " /><path fill="rgb(142,205,219)" stroke="rgb(142,205,219)" stroke-width="1" opacity="1" d="M 6.5 11 L 7.5 13 L 6.5 11 Z " /><path fill="rgb(142,205,219)" stroke="rgb(142,205,219)" stroke-width="1" opacity="1" d="M 12 30 L 14 30.5 L 12 31.5 L 12 30 Z " /><path fill="rgb(142,205,219)" stroke="rgb(142,205,219)" stroke-width="1" opacity="1" d="M 2.5 32 L 3.5 34 L 2.5 32 Z " /><path fill="rgb(142,205,219)" stroke="rgb(142,205,219)" stroke-width="1" opacity="1" d="M 3.5 37 L 3.5 40 Q 0.5 38.5 3.5 37 Z " /><path fill="rgb(142,205,219)" stroke="rgb(142,205,219)" stroke-width="1" opacity="1" d="M 7.5 37 L 6.5 39 L 7.5 37 Z " /><path fill="rgb(72,39,43)" stroke="rgb(72,39,43)" stroke-width="1" opacity="1" d="M 11.5 1 L 16 1.5 L 11.5 2 L 11.5 1 Z " /><path fill="rgb(72,39,43)" stroke="rgb(72,39,43)" stroke-width="1" opacity="1" d="M 19.5 1 L 22 1.5 L 19.5 2 L 19.5 1 Z " /><path fill="rgb(72,39,43)" stroke="rgb(72,39,43)" stroke-width="1" opacity="1" d="M 26.5 12 L 28 16 L 24.5 15 L 22.5 16 L 23.5 14 Q 27 15 26.5 12 Z " /><path fill="rgb(72,39,43)" stroke="rgb(72,39,43)" stroke-width="1" opacity="1" d="M 17.5 13 L 21 16.5 L 19.5 18 L 18.5 15 L 16.5 16 L 17 14.5 L 17.5 13 Z " /><path fill="rgb(72,39,43)" stroke="rgb(72,39,43)" stroke-width="1" opacity="1" d="M 20.5 19 Q 22.8 18.3 22 20.5 L 19 20.5 L 20.5 19 Z " /><path fill="rgb(72,39,43)" stroke="rgb(72,39,43)" stroke-width="1" opacity="1" d="M 23.5 20 L 25 23.5 L 23.5 23 L 22 22.5 L 23.5 20 Z " /><path fill="rgb(72,39,43)" stroke="rgb(72,39,43)" stroke-width="1" opacity="1" d="M 26.5 22 L 28 24.5 L 25.5 29 L 25 26.5 L 27 23.5 L 26.5 22 Z " /><path fill="rgb(72,39,43)" stroke="rgb(72,39,43)" stroke-width="1" opacity="1" d="M 21.5 24 L 22.5 26 L 21.5 24 Z " /><path fill="rgb(72,39,43)" stroke="rgb(72,39,43)" stroke-width="1" opacity="1" d="M 8.5 27 L 7.5 29 L 8.5 27 Z " /><path fill="rgb(72,39,43)" stroke="rgb(72,39,43)" stroke-width="1" opacity="1" d="M 17.5 29 Q 19.8 28.3 19 30.5 L 19.5 32 L 17.5 29 Z " /><path fill="rgb(72,39,43)" stroke="rgb(72,39,43)" stroke-width="1" opacity="1" d="M 19.5 33 L 19 34.5 L 18.5 36 L 18 34.5 L 19.5 33 Z " /><path fill="rgb(72,39,43)" stroke="rgb(72,39,43)" stroke-width="1" opacity="1" d="M 19.5 43 L 27 43.5 L 24.5 45 L 19.5 44 L 19.5 43 Z " /><path fill="rgb(72,39,43)" stroke="rgb(72,39,43)" stroke-width="1" opacity="1" d="M 8.5 48 L 19 48.5 L 8.5 49 L 8.5 48 Z " /><path fill="rgb(70,71,80)" stroke="rgb(70,71,80)" stroke-width="1" opacity="1" d="M 24.5 1 L 28 1.5 L 24.5 2 L 24.5 1 Z " /><path fill="rgb(70,71,80)" stroke="rgb(70,71,80)" stroke-width="1" opacity="1" d="M 25.5 6 L 24.5 8 L 25.5 6 Z " /><path fill="rgb(70,71,80)" stroke="rgb(70,71,80)" stroke-width="1" opacity="1" d="M 19.5 13 L 22 13.5 Q 19.9 16.8 19.5 13 Z " /><path fill="rgb(70,71,80)" stroke="rgb(70,71,80)" stroke-width="1" opacity="1" d="M 24.5 16 L 25 18 L 22.5 19 L 24.5 16 Z " /><path fill="rgb(70,71,80)" stroke="rgb(70,71,80)" stroke-width="1" opacity="1" d="M 16.5 20 L 18 22.5 L 13.5 26 L 13.5 25 L 16 23.5 L 17 21.5 L 16.5 20 Z " /><path fill="rgb(70,71,80)" stroke="rgb(70,71,80)" stroke-width="1" opacity="1" d="M 3.5 22 L 4.5 24 L 3.5 22 Z " /><path fill="rgb(70,71,80)" stroke="rgb(70,71,80)" stroke-width="1" opacity="1" d="M 6.5 22 L 7.5 24 L 6.5 22 Z " /><path fill="rgb(70,71,80)" stroke="rgb(70,71,80)" stroke-width="1" opacity="1" d="M 10.5 24 L 12 26.5 L 10.5 26 L 9 25.5 L 10.5 24 Z " /><path fill="rgb(70,71,80)" stroke="rgb(70,71,80)" stroke-width="1" opacity="1" d="M 20.5 25 L 22 27.5 L 21 27.5 L 20.5 25 Z " /><path fill="rgb(70,71,80)" stroke="rgb(70,71,80)" stroke-width="1" opacity="1" d="M 24.5 26 L 24 27.5 L 23.5 29 L 23 27.5 L 24.5 26 Z " /><path fill="rgb(70,71,80)" stroke="rgb(70,71,80)" stroke-width="1" opacity="1" d="M 8.5 28 L 7.5 30 L 8.5 28 Z " /><path fill="rgb(70,71,80)" stroke="rgb(70,71,80)" stroke-width="1" opacity="1" d="M 20.5 29 L 23 30.5 L 21 31.5 L 21.5 33 L 20 31.5 L 20.5 29 Z " /><path fill="rgb(70,71,80)" stroke="rgb(70,71,80)" stroke-width="1" opacity="1" d="M 6.5 31 L 8 33.5 L 6.5 33 L 5 32.5 L 6.5 31 Z " /><path fill="rgb(70,71,80)" stroke="rgb(70,71,80)" stroke-width="1" opacity="1" d="M 21.5 34 L 20.5 36 L 21.5 34 Z " /><path fill="rgb(70,71,80)" stroke="rgb(70,71,80)" stroke-width="1" opacity="1" d="M 17.5 35 L 18.5 37 Q 15.7 37.7 17.5 35 Z " /><path fill="rgb(70,71,80)" stroke="rgb(70,71,80)" stroke-width="1" opacity="1" d="M 21.5 48 L 24 48.5 L 21.5 49 L 21.5 48 Z " /><path fill="rgb(222,205,170)" stroke="rgb(222,205,170)" stroke-width="1" opacity="1" d="M 6.5 5 L 7.5 7 L 6.5 5 Z " /><path fill="rgb(222,205,170)" stroke="rgb(222,205,170)" stroke-width="1" opacity="1" d="M 3.5 42 L 2.5 44 L 3.5 42 Z " /><path fill="rgb(172,212,222)" stroke="rgb(172,212,222)" stroke-width="1" opacity="1" d="M 22.5 4 L 21.5 6 L 22.5 4 Z " /><path fill="rgb(172,212,222)" stroke="rgb(172,212,222)" stroke-width="1" opacity="1" d="M 5.5 7 L 8 8.5 L 6.5 8 L 4.5 9 L 5.5 7 Z " /><path fill="rgb(172,212,222)" stroke="rgb(172,212,222)" stroke-width="1" opacity="1" d="M 17.5 8 L 16 10.5 L 15.5 12 L 15 10.5 L 17.5 8 Z " /><path fill="rgb(172,212,222)" stroke="rgb(172,212,222)" stroke-width="1" opacity="1" d="M 10.5 9 L 9.5 11 L 10.5 9 Z " /><path fill="rgb(172,212,222)" stroke="rgb(172,212,222)" stroke-width="1" opacity="1" d="M 19.5 26 L 21 26.5 L 18.5 28 L 19.5 26 Z " /><path fill="rgb(163,231,246)" stroke="rgb(163,231,246)" stroke-width="1" opacity="1" d="M 2 2 L 7 2.5 L 2.5 5 L 2 2 Z " /><path fill="rgb(163,231,246)" stroke="rgb(163,231,246)" stroke-width="1" opacity="1" d="M 6.5 8 L 7 9.5 L 6 13 L 9 14.5 L 6.5 16 L 4.5 16 L 2 14.5 L 2.5 12 L 3.5 15 Q 6.5 15.9 5 11.5 Q 2.2 9.8 6.5 8 Z " /><path fill="rgb(163,231,246)" stroke="rgb(163,231,246)" stroke-width="1" opacity="1" d="M 18.5 39 L 22 40.5 L 19 41.5 L 19.5 43 Q 16 43.8 18.5 39 Z " /><path fill="rgb(163,231,246)" stroke="rgb(163,231,246)" stroke-width="1" opacity="1" d="M 23.5 41 L 26 41.5 L 23.5 42 L 23.5 41 Z " /><path fill="rgb(153,228,243)" stroke="rgb(153,228,243)" stroke-width="1" opacity="1" d="M 21.5 2 L 22 4 Q 19.3 2.9 20 5.5 L 14 9.5 L 14.5 11 L 13 11.5 L 16 12.5 L 12.5 13 L 9.5 7 Q 17.2 6.2 21.5 2 Z " /><path fill="rgb(153,228,243)" stroke="rgb(153,228,243)" stroke-width="1" opacity="1" d="M 3.5 10 L 6.5 16 L 10.5 14 L 11.5 16 L 6.5 17 L 3 15 L 2.5 17 L 2 15.5 Q 5.5 14 3 12.5 L 3.5 10 Z " /><path fill="rgb(153,228,243)" stroke="rgb(153,228,243)" stroke-width="1" opacity="1" d="M 2.5 23 L 3.5 25 L 2.5 23 Z " /><path fill="rgb(153,228,243)" stroke="rgb(153,228,243)" stroke-width="1" opacity="1" d="M 2.5 26 L 3 29.5 L 2 29.5 L 2.5 26 Z " /><path fill="rgb(153,228,243)" stroke="rgb(153,228,243)" stroke-width="1" opacity="1" d="M 11.5 27 L 13 29.5 L 11 29.5 L 12 34 L 9.5 35 L 10 33.5 L 9 28 L 11.5 27 Z " /><path fill="rgb(153,228,243)" stroke="rgb(153,228,243)" stroke-width="1" opacity="1" d="M 14.5 37 L 13 39.5 L 14.5 41 L 15 39 Q 19.5 37.3 18 42.5 L 16.5 42 Q 12.1 43.5 13 40.5 L 12 38 L 14.5 37 Z " /><path fill="rgb(153,228,243)" stroke="rgb(153,228,243)" stroke-width="1" opacity="1" d="M 22.5 38 L 26.5 40 L 28 39.5 Q 28.9 42.9 23.5 41 L 20.5 43 L 19.5 41 L 22 40.5 L 19 39.5 L 22.5 38 Z " /></svg>