<svg width="30" height="50" version="1.1" xmlns="http://www.w3.org/2000/svg" desc="Created with imagetracer.js version 1.2.6" ><path fill="rgb(119,216,236)" stroke="rgb(119,216,236)" stroke-width="1" opacity="1" d="M 2 2 L 9 2 L 9 5.5 L 8.5 7 L 13 7.5 L 9 8.5 L 11 9.5 L 9 10.5 L 11 11.5 L 5 15.5 L 7 18.5 L 4.5 19 L 2.5 20 L 2 2 Z M 5 3 L 5 5 L 7 4 L 5 3 Z " /><path fill="rgb(119,216,236)" stroke="rgb(119,216,236)" stroke-width="1" opacity="1" d="M 2 22 Q 5 21 4 24 Q 1 25 2 22 Z " /><path fill="rgb(122,223,243)" stroke="rgb(122,223,243)" stroke-width="1" opacity="1" d="M 9 2 L 16 2.5 L 14.5 5 L 16 5.5 L 14 8.5 L 15 10.5 L 15 12.5 Q 15.8 16.3 13.5 17 L 13 13 L 10 12.5 L 10.5 11 L 8 9.5 L 13 7.5 L 8 6.5 L 9 2 Z " /><path fill="rgb(122,223,243)" stroke="rgb(122,223,243)" stroke-width="1" opacity="1" d="M 5 3 L 7 3.5 L 4 5.5 L 5 3 Z " /><path fill="rgb(122,223,243)" stroke="rgb(122,223,243)" stroke-width="1" opacity="1" d="M 23.5 12 L 25 14.5 L 23 13.5 L 23.5 12 Z " /><path fill="rgb(122,223,243)" stroke="rgb(122,223,243)" stroke-width="1" opacity="1" d="M 5 15 Q 8 14 7 17 L 5 17.5 L 5.5 19 Q 2.8 17.8 5 16.5 L 5 15 Z " /><path fill="rgb(140,191,204)" stroke="rgb(140,191,204)" stroke-width="1" opacity="1" d="M 18.5 4 L 19 18.5 L 17 19.5 L 17 5.5 L 18.5 4 Z " /><path fill="rgb(140,191,204)" stroke="rgb(140,191,204)" stroke-width="1" opacity="1" d="M 6.5 14 L 8 17.5 L 7 17.5 L 6.5 14 Z " /><path fill="rgb(140,191,204)" stroke="rgb(140,191,204)" stroke-width="1" opacity="1" d="M 27.5 18 L 28 20.5 L 27 20.5 L 27.5 18 Z " /><path fill="rgb(140,191,204)" stroke="rgb(140,191,204)" stroke-width="1" opacity="1" d="M 18.5 23 L 17.5 25 L 18.5 23 Z " /><path fill="rgb(132,226,247)" stroke="rgb(132,226,247)" stroke-width="1" opacity="1" d="M 17.5 2 Q 22.2 0.7 23.5 3 L 27 2 L 27 8.5 L 26 9.5 L 27 13 Q 22.1 14.6 24 9 L 26 8.5 L 24.5 5 L 23 5.5 Q 25.7 7.3 21.5 9 L 19 8.5 L 22 7.5 L 19 6 L 17.5 2 Z " /><path fill="rgb(132,226,247)" stroke="rgb(132,226,247)" stroke-width="1" opacity="1" d="M 16.5 8 L 17 20 Q 12.5 21.8 14 16.5 Q 16.6 15.1 16 10.5 Q 13.8 9.3 16.5 8 Z " /><path fill="rgb(132,226,247)" stroke="rgb(132,226,247)" stroke-width="1" opacity="1" d="M 19 14 L 21 14 Q 19.9 16.7 22.5 16 L 24.5 15 L 24.5 17 Q 26.8 17.8 26 15.5 L 27 15.5 L 26.5 22 L 26 20 L 23 20.5 Q 25.3 21.8 22.5 23 L 21 23 L 21 19 L 24 18.5 L 20.5 16 L 19 16.5 L 19 14 Z " /><path fill="rgb(144,149,154)" stroke="rgb(144,149,154)" stroke-width="1" opacity="1" d="M 7.5 1 L 14 1.5 L 7.5 2 L 7.5 1 Z " /><path fill="rgb(144,149,154)" stroke="rgb(144,149,154)" stroke-width="1" opacity="1" d="M 27.5 12 L 28 17.5 L 27 17.5 L 27.5 12 Z " /><path fill="rgb(144,149,154)" stroke="rgb(144,149,154)" stroke-width="1" opacity="1" d="M 8.5 22 L 9 24 L 7 23.5 L 8.5 22 Z " /><path fill="rgb(144,149,154)" stroke="rgb(144,149,154)" stroke-width="1" opacity="1" d="M 14.5 22 L 12 25.5 L 12.5 27 Q 10.3 27.8 11 25.5 L 14.5 22 Z " /><path fill="rgb(144,149,154)" stroke="rgb(144,149,154)" stroke-width="1" opacity="1" d="M 8.5 25 L 9 27.5 L 8 27.5 L 8.5 25 Z " /><path fill="rgb(144,149,154)" stroke="rgb(144,149,154)" stroke-width="1" opacity="1" d="M 18.5 25 Q 20.8 24.3 20 26.5 L 18.5 25 Z " /><path fill="rgb(144,149,154)" stroke="rgb(144,149,154)" stroke-width="1" opacity="1" d="M 16.5 31 L 19 31.5 L 16 35.5 L 16.5 37 Q 14.3 37.8 15 35.5 Q 12.8 34.3 15.5 33 L 17 33.5 L 16.5 31 Z " /><path fill="rgb(144,149,154)" stroke="rgb(144,149,154)" stroke-width="1" opacity="1" d="M 7.5 32 L 9.5 35 L 7.5 32 Z " /><path fill="rgb(144,149,154)" stroke="rgb(144,149,154)" stroke-width="1" opacity="1" d="M 16 40 L 18.5 41 L 20 40.5 L 18.5 43 L 17.5 41 L 16.5 43 L 16 40 Z " /><path fill="rgb(144,149,154)" stroke="rgb(144,149,154)" stroke-width="1" opacity="1" d="M 2.5 41 L 3.5 43 L 2.5 41 Z " /><path fill="rgb(144,149,154)" stroke="rgb(144,149,154)" stroke-width="1" opacity="1" d="M 15.5 46 L 16.5 48 L 15.5 46 Z " /><path fill="rgb(178,130,83)" stroke="rgb(178,130,83)" stroke-width="1" opacity="1" d="M 10.5 23 L 11 25.5 L 9 26.5 L 10.5 23 Z " /><path fill="rgb(178,130,83)" stroke="rgb(178,130,83)" stroke-width="1" opacity="1" d="M 27.5 41 L 28 42.5 L 27.5 45 L 24 44.5 L 27 43 L 27.5 41 Z " /><path fill="rgb(215,204,184)" stroke="rgb(215,204,184)" stroke-width="1" opacity="1" d="M 4.5 20 L 8 21.5 L 6.5 22 L 4.5 20 Z " /><path fill="rgb(215,204,184)" stroke="rgb(215,204,184)" stroke-width="1" opacity="1" d="M 18.5 20 L 18.5 23 Q 16.3 23.8 17 21.5 L 18.5 20 Z " /><path fill="rgb(215,204,184)" stroke="rgb(215,204,184)" stroke-width="1" opacity="1" d="M 3.5 24 Q 6.5 23.1 5 27.5 L 6 29.5 L 5 32 L 7 32.5 L 2 36.5 L 2 34.5 Q 0.9 31.2 3.5 32 L 3.5 31 Q 0.5 31.7 2 28 L 4 27.5 L 2 27 L 3.5 24 Z " /><path fill="rgb(215,204,184)" stroke="rgb(215,204,184)" stroke-width="1" opacity="1" d="M 19.5 27 L 20.5 29 L 19.5 27 Z " /><path fill="rgb(215,204,184)" stroke="rgb(215,204,184)" stroke-width="1" opacity="1" d="M 19.5 30 L 24 36.5 L 23 37.5 L 24.5 40 L 22 38.5 L 20.5 41 L 20 38.5 L 21 33 L 19 32.5 L 19.5 30 Z M 22 35 Q 20 38 23 37 L 22 35 Z " /><path fill="rgb(215,204,184)" stroke="rgb(215,204,184)" stroke-width="1" opacity="1" d="M 24.5 30 L 23.5 32 L 24.5 30 Z " /><path fill="rgb(215,204,184)" stroke="rgb(215,204,184)" stroke-width="1" opacity="1" d="M 2.5 38 L 4.5 39 L 6.5 38 L 6.5 39 L 3 40.5 Q 5.2 41.8 2.5 43 L 2.5 38 Z " /><path fill="rgb(215,204,184)" stroke="rgb(215,204,184)" stroke-width="1" opacity="1" d="M 15.5 38 L 16.5 40 Q 13.7 40.7 15.5 38 Z " /><path fill="rgb(215,204,184)" stroke="rgb(215,204,184)" stroke-width="1" opacity="1" d="M 8.5 39 L 10 39.5 L 7.5 41 L 8.5 39 Z " /><path fill="rgb(215,204,184)" stroke="rgb(215,204,184)" stroke-width="1" opacity="1" d="M 13.5 41 L 16 41.5 L 13.5 42 L 13.5 41 Z " /><path fill="rgb(215,204,184)" stroke="rgb(215,204,184)" stroke-width="1" opacity="1" d="M 5.5 44 L 20 44.5 L 5.5 45 L 5.5 44 Z " /><path fill="rgb(215,204,184)" stroke="rgb(215,204,184)" stroke-width="1" opacity="1" d="M 2 46 L 4 46.5 L 2 47.5 L 2 46 Z " /><path fill="rgb(215,204,184)" stroke="rgb(215,204,184)" stroke-width="1" opacity="1" d="M 17 46 L 21 47.5 L 17 48 L 17 46 Z " /><path fill="rgb(215,204,184)" stroke="rgb(215,204,184)" stroke-width="1" opacity="1" d="M 24.5 46 L 25.5 48 Q 22.7 48.7 24.5 46 Z " /><path fill="rgb(215,204,184)" stroke="rgb(215,204,184)" stroke-width="1" opacity="1" d="M 11.5 47 L 14 48.5 L 12.5 49 L 11.5 47 Z " /><path fill="rgb(215,204,184)" stroke="rgb(215,204,184)" stroke-width="1" opacity="1" d="M 5.5 48 L 8 48.5 L 5.5 49 L 5.5 48 Z " /><path fill="rgb(127,225,246)" stroke="rgb(127,225,246)" stroke-width="1" opacity="1" d="M 16.5 2 L 17 7.5 L 14.5 9 L 15 7.5 L 16 5.5 L 14.5 5 L 13 5.5 L 16.5 2 Z " /><path fill="rgb(127,225,246)" stroke="rgb(127,225,246)" stroke-width="1" opacity="1" d="M 23.5 5 L 26 6.5 L 25 7.5 L 26.5 10 L 24 9 L 23 13.5 Q 25.3 14.8 22.5 16 Q 19.9 16.7 21 14 L 19 14 L 19 9 L 22 8.5 L 19 8 Q 17.9 5.3 20.5 6 L 24 8 L 23.5 5 Z " /><path fill="rgb(127,225,246)" stroke="rgb(127,225,246)" stroke-width="1" opacity="1" d="M 15.5 10 L 16 13.5 L 15 13.5 L 14 11.5 L 15.5 10 Z " /><path fill="rgb(127,225,246)" stroke="rgb(127,225,246)" stroke-width="1" opacity="1" d="M 25.5 13 L 26 17 L 24 16.5 L 25.5 13 Z " /><path fill="rgb(127,225,246)" stroke="rgb(127,225,246)" stroke-width="1" opacity="1" d="M 23.5 20 L 26 20.5 L 23.5 21 L 23.5 20 Z " /><path fill="rgb(120,123,127)" stroke="rgb(120,123,127)" stroke-width="1" opacity="1" d="M 14.5 1 L 17 1.5 L 14.5 2 L 14.5 1 Z " /><path fill="rgb(120,123,127)" stroke="rgb(120,123,127)" stroke-width="1" opacity="1" d="M 12.5 19 L 14 19.5 L 11.5 21 L 12.5 19 Z " /><path fill="rgb(120,123,127)" stroke="rgb(120,123,127)" stroke-width="1" opacity="1" d="M 19.5 24 L 20.5 26 L 19.5 24 Z " /><path fill="rgb(120,123,127)" stroke="rgb(120,123,127)" stroke-width="1" opacity="1" d="M 21.5 31 L 22.5 33 L 21.5 31 Z " /><path fill="rgb(120,123,127)" stroke="rgb(120,123,127)" stroke-width="1" opacity="1" d="M 12.5 41 L 16 43.5 L 14.5 44 L 12 43.5 L 12.5 41 Z " /><path fill="rgb(181,173,172)" stroke="rgb(181,173,172)" stroke-width="1" opacity="1" d="M 2.5 1 L 7 1.5 L 2.5 2 L 2.5 1 Z " /><path fill="rgb(181,173,172)" stroke="rgb(181,173,172)" stroke-width="1" opacity="1" d="M 17.5 20 L 16.5 22 L 17.5 20 Z " /><path fill="rgb(181,173,172)" stroke="rgb(181,173,172)" stroke-width="1" opacity="1" d="M 8.5 21 L 11 21.5 L 8.5 22 L 8.5 21 Z " /><path fill="rgb(181,173,172)" stroke="rgb(181,173,172)" stroke-width="1" opacity="1" d="M 5.5 27 L 6.5 29 L 5.5 27 Z " /><path fill="rgb(181,173,172)" stroke="rgb(181,173,172)" stroke-width="1" opacity="1" d="M 12.5 30 L 13 33 L 11 32.5 L 12.5 30 Z " /><path fill="rgb(181,173,172)" stroke="rgb(181,173,172)" stroke-width="1" opacity="1" d="M 25.5 30 L 26.5 32 L 25.5 30 Z " /><path fill="rgb(181,173,172)" stroke="rgb(181,173,172)" stroke-width="1" opacity="1" d="M 6.5 33 L 7 35.5 L 6 35.5 L 6.5 33 Z " /><path fill="rgb(181,173,172)" stroke="rgb(181,173,172)" stroke-width="1" opacity="1" d="M 15.5 34 L 16.5 36 L 15.5 34 Z " /><path fill="rgb(181,173,172)" stroke="rgb(181,173,172)" stroke-width="1" opacity="1" d="M 8.5 36 L 9 37.5 L 7.5 40 L 7 37.5 L 8.5 36 Z " /><path fill="rgb(181,173,172)" stroke="rgb(181,173,172)" stroke-width="1" opacity="1" d="M 15.5 37 L 18 38.5 L 16.5 39 L 15.5 37 Z " /><path fill="rgb(181,173,172)" stroke="rgb(181,173,172)" stroke-width="1" opacity="1" d="M 13.5 39 L 16 40.5 L 14.5 40 L 13.5 39 Z " /><path fill="rgb(181,173,172)" stroke="rgb(181,173,172)" stroke-width="1" opacity="1" d="M 3.5 40 L 4.5 42 L 3.5 40 Z " /><path fill="rgb(181,173,172)" stroke="rgb(181,173,172)" stroke-width="1" opacity="1" d="M 20.5 46 L 21.5 48 L 20.5 46 Z " /><path fill="rgb(117,108,108)" stroke="rgb(117,108,108)" stroke-width="1" opacity="1" d="M 6.5 22 L 5.5 24 L 6.5 22 Z " /><path fill="rgb(117,108,108)" stroke="rgb(117,108,108)" stroke-width="1" opacity="1" d="M 15.5 22 L 16 24.5 L 14 23.5 L 15.5 22 Z " /><path fill="rgb(117,108,108)" stroke="rgb(117,108,108)" stroke-width="1" opacity="1" d="M 13.5 35 L 15 35.5 L 10.5 37 L 10.5 36 L 13.5 35 Z " /><path fill="rgb(117,108,108)" stroke="rgb(117,108,108)" stroke-width="1" opacity="1" d="M 9.5 40 Q 11.8 39.3 11 41.5 L 9.5 40 Z " /><path fill="rgb(246,244,244)" stroke="rgb(246,244,244)" stroke-width="1" opacity="1" d="M 0 0 L 30 0 L 30 50 L 0 50 L 0 0 Z M 2 1 L 2 39 L 3 40 L 2 45 L 28 45 L 28 42 L 24 39 L 28 38 L 25 37 L 22 34 L 25 32 L 26 30 L 21 31 L 19 32 L 23 29 L 20 28 L 20 26 L 22 26 Q 21 23 24 24 L 24 22 L 28 23 L 28 1 L 2 1 Z M 2 46 L 2 48 L 6 49 L 9 48 L 13 49 L 15 48 L 26 48 L 27 46 L 14 46 L 13 47 L 12 46 L 2 46 Z " /><path fill="rgb(246,244,244)" stroke="rgb(246,244,244)" stroke-width="1" opacity="1" d="M 21 40 Q 25.1 38.7 24 42 Q 19.9 43.3 21 40 Z " /><path fill="rgb(70,63,66)" stroke="rgb(70,63,66)" stroke-width="1" opacity="1" d="M 27.5 2 L 28 8.5 L 27 8.5 L 27.5 2 Z " /><path fill="rgb(70,63,66)" stroke="rgb(70,63,66)" stroke-width="1" opacity="1" d="M 6 24 Q 9 23 8 26 Q 5 27 6 24 Z " /><path fill="rgb(70,63,66)" stroke="rgb(70,63,66)" stroke-width="1" opacity="1" d="M 9.5 27 Q 7.9 28.8 11 30.5 Q 11.8 32.8 9.5 32 L 7.5 32 L 5 31.5 L 9 29.5 L 7 28.5 L 9.5 27 Z " /><path fill="rgb(70,63,66)" stroke="rgb(70,63,66)" stroke-width="1" opacity="1" d="M 12.5 27 L 14.5 30 L 11 28.5 L 12.5 27 Z " /><path fill="rgb(70,63,66)" stroke="rgb(70,63,66)" stroke-width="1" opacity="1" d="M 18.5 28 L 19 29.5 L 17.5 32 L 17 29.5 L 18.5 28 Z " /><path fill="rgb(70,63,66)" stroke="rgb(70,63,66)" stroke-width="1" opacity="1" d="M 7.5 33 L 10 33.5 L 10 35.5 L 9.5 37 L 7.5 33 Z " /><path fill="rgb(70,63,66)" stroke="rgb(70,63,66)" stroke-width="1" opacity="1" d="M 13.5 33 L 14 34.5 L 11.5 36 L 13.5 33 Z " /><path fill="rgb(70,63,66)" stroke="rgb(70,63,66)" stroke-width="1" opacity="1" d="M 4.5 40 L 7 40.5 L 4.5 41 L 4.5 40 Z " /><path fill="rgb(70,63,66)" stroke="rgb(70,63,66)" stroke-width="1" opacity="1" d="M 20 42 Q 22.7 40.9 22 43.5 L 22.5 45 L 20 44 L 20 42 Z " /><path fill="rgb(73,33,30)" stroke="rgb(73,33,30)" stroke-width="1" opacity="1" d="M 8 16 Q 11.8 14.5 11 17.5 L 9 17.5 L 8.5 19 L 8 16 Z " /><path fill="rgb(73,33,30)" stroke="rgb(73,33,30)" stroke-width="1" opacity="1" d="M 13.5 20 L 14.5 22 L 11 21.5 L 13.5 20 Z " /><path fill="rgb(73,33,30)" stroke="rgb(73,33,30)" stroke-width="1" opacity="1" d="M 10.5 27 L 12 27.5 L 11.5 30 L 9.5 29 L 7 30.5 Q 6.3 28.3 8.5 29 L 10.5 27 Z " /><path fill="rgb(73,33,30)" stroke="rgb(73,33,30)" stroke-width="1" opacity="1" d="M 14.5 31 L 15.5 33 Q 12.7 33.7 14.5 31 Z " /><path fill="rgb(73,33,30)" stroke="rgb(73,33,30)" stroke-width="1" opacity="1" d="M 7.5 34 L 8.5 36 L 7.5 34 Z " /><path fill="rgb(73,33,30)" stroke="rgb(73,33,30)" stroke-width="1" opacity="1" d="M 3 36 L 7 36.5 L 3 38 L 3 36 Z " /><path fill="rgb(73,33,30)" stroke="rgb(73,33,30)" stroke-width="1" opacity="1" d="M 4.5 42 Q 7.1 41.3 6 44 L 2 43.5 L 4.5 42 Z " /><path fill="rgb(95,97,101)" stroke="rgb(95,97,101)" stroke-width="1" opacity="1" d="M 23.5 1 L 27 1.5 L 23.5 2 L 23.5 1 Z " /><path fill="rgb(95,97,101)" stroke="rgb(95,97,101)" stroke-width="1" opacity="1" d="M 7.5 22 L 6.5 24 L 7.5 22 Z " /><path fill="rgb(95,97,101)" stroke="rgb(95,97,101)" stroke-width="1" opacity="1" d="M 18.5 40 L 18 41.5 L 17.5 43 L 17 41.5 L 18.5 40 Z " /><path fill="rgb(95,97,101)" stroke="rgb(95,97,101)" stroke-width="1" opacity="1" d="M 7.5 46 L 8 48 L 6 47.5 L 7.5 46 Z " /><path fill="rgb(95,97,101)" stroke="rgb(95,97,101)" stroke-width="1" opacity="1" d="M 10.5 46 L 11 48 L 9 47.5 L 10.5 46 Z " /><path fill="rgb(121,81,68)" stroke="rgb(121,81,68)" stroke-width="1" opacity="1" d="M 9.5 14 Q 11.8 13.3 11 15.5 L 8 15.5 L 9.5 14 Z " /><path fill="rgb(121,81,68)" stroke="rgb(121,81,68)" stroke-width="1" opacity="1" d="M 9.5 17 L 10.5 19 L 8.5 20 L 9 18.5 L 9.5 17 Z " /><path fill="rgb(121,81,68)" stroke="rgb(121,81,68)" stroke-width="1" opacity="1" d="M 20.5 17 L 21 18.5 L 19.5 21 L 19 19.5 L 20.5 17 Z " /><path fill="rgb(121,81,68)" stroke="rgb(121,81,68)" stroke-width="1" opacity="1" d="M 16.5 25 Q 19.1 24.2 18 27.5 L 17 27.5 L 16.5 26 L 15 26.5 L 16.5 25 Z " /><path fill="rgb(121,81,68)" stroke="rgb(121,81,68)" stroke-width="1" opacity="1" d="M 7.5 41 L 6.5 43 L 7.5 41 Z " /></svg>