<svg width="30" height="50" version="1.1" xmlns="http://www.w3.org/2000/svg" desc="Created with imagetracer.js version 1.2.6" ><path fill="rgb(230,252,253)" stroke="rgb(230,252,253)" stroke-width="1" opacity="1" d="M 2 2 L 8 2.5 L 6 3 L 8 7.5 L 7 10.5 L 8 11.5 L 5.5 15 L 8 15.5 Q 4.5 17 7 18.5 L 4 26.5 L 6 30.5 L 4.5 30 Q 0.8 31 2 28 L 4 27.5 L 2 27 L 2 2 Z " /><path fill="rgb(230,252,253)" stroke="rgb(230,252,253)" stroke-width="1" opacity="1" d="M 13.5 17 L 15 21 Q 11.2 22.2 13.5 17 Z " /><path fill="rgb(230,252,253)" stroke="rgb(230,252,253)" stroke-width="1" opacity="1" d="M 8 26 L 11 26.5 L 8.5 28 L 8 26 Z " /><path fill="rgb(230,252,253)" stroke="rgb(230,252,253)" stroke-width="1" opacity="1" d="M 16 28 Q 18.7 26.9 18 29.5 L 17 34.5 L 18 36.5 L 17 36.5 L 16.5 35 L 15 35.5 L 16 28 Z " /><path fill="rgb(230,252,253)" stroke="rgb(230,252,253)" stroke-width="1" opacity="1" d="M 10.5 29 L 13 32.5 L 12 35 Q 14.7 33.9 14 36.5 L 11.5 37 L 9 36.5 L 11 36 L 10.5 29 Z " /><path fill="rgb(230,252,253)" stroke="rgb(230,252,253)" stroke-width="1" opacity="1" d="M 12.5 38 L 15 38.5 L 14.5 41 L 12.5 38 Z " /><path fill="rgb(204,181,150)" stroke="rgb(204,181,150)" stroke-width="1" opacity="1" d="M 16.5 15 Q 18.8 14.3 18 16.5 L 16.5 15 Z " /><path fill="rgb(204,181,150)" stroke="rgb(204,181,150)" stroke-width="1" opacity="1" d="M 18.5 18 L 19.5 20 L 18.5 18 Z " /><path fill="rgb(204,181,150)" stroke="rgb(204,181,150)" stroke-width="1" opacity="1" d="M 21.5 35 L 22 37.5 L 20.5 40 L 20 38.5 L 21.5 35 Z " /><path fill="rgb(204,181,150)" stroke="rgb(204,181,150)" stroke-width="1" opacity="1" d="M 2 42 L 5 42.5 L 3.5 45 L 2 42 Z " /><path fill="rgb(212,209,212)" stroke="rgb(212,209,212)" stroke-width="1" opacity="1" d="M 17.5 8 L 19 10.5 L 18 10.5 L 17.5 8 Z " /><path fill="rgb(212,209,212)" stroke="rgb(212,209,212)" stroke-width="1" opacity="1" d="M 21 14 L 23 14.5 L 21.5 18 L 21 14 Z " /><path fill="rgb(212,209,212)" stroke="rgb(212,209,212)" stroke-width="1" opacity="1" d="M 6.5 22 L 5.5 24 L 6.5 22 Z " /><path fill="rgb(212,209,212)" stroke="rgb(212,209,212)" stroke-width="1" opacity="1" d="M 14.5 46 Q 17.5 47.5 14.5 49 L 13 48.5 L 15 47.5 L 14.5 46 Z " /><path fill="rgb(212,209,212)" stroke="rgb(212,209,212)" stroke-width="1" opacity="1" d="M 7.5 47 L 10 48.5 L 7 49 L 7.5 47 Z " /><path fill="rgb(252,253,253)" stroke="rgb(252,253,253)" stroke-width="1" opacity="1" d="M 0 0 L 30 0 L 30 50 L 0 50 L 0 0 Z M 2 1 L 2 3 L 2 27 L 4 28 L 2 28 L 2 35 L 1 36 L 2 39 L 1 42 L 2 44 L 2 46 L 1 49 L 28 49 L 26 47 L 29 45 L 29 31 L 27 30 L 25 36 L 22 35 L 24 32 L 27 30 L 27 29 L 24 30 L 22 23 L 25 24 Q 28 25 29 23 Q 28 20 25 21 Q 22 21 22 17 L 24 14 Q 21 15 22 9 L 22 7 L 21 2 L 29 2 L 2 1 Z M 27 16 L 25 18 L 27 18 Q 28 20 29 18 Q 30 15 27 16 Z " /><path fill="rgb(252,253,253)" stroke="rgb(252,253,253)" stroke-width="1" opacity="1" d="M 7.5 12 L 8 15 L 5 14.5 L 7.5 12 Z " /><path fill="rgb(252,253,253)" stroke="rgb(252,253,253)" stroke-width="1" opacity="1" d="M 6.5 17 L 5.5 19 L 6.5 17 Z " /><path fill="rgb(252,253,253)" stroke="rgb(252,253,253)" stroke-width="1" opacity="1" d="M 17.5 30 L 18 34.5 L 17 36.5 L 17.5 38 L 16 35.5 L 17.5 30 Z " /><path fill="rgb(252,253,253)" stroke="rgb(252,253,253)" stroke-width="1" opacity="1" d="M 12.5 36 L 14 38.5 L 12 37.5 L 12.5 36 Z " /><path fill="rgb(223,222,225)" stroke="rgb(223,222,225)" stroke-width="1" opacity="1" d="M 18.5 8 L 17.5 10 L 18.5 8 Z " /><path fill="rgb(223,222,225)" stroke="rgb(223,222,225)" stroke-width="1" opacity="1" d="M 2.5 45 L 5 45.5 L 4 47.5 L 4.5 49 L 2.5 45 Z " /><path fill="rgb(167,203,209)" stroke="rgb(167,203,209)" stroke-width="1" opacity="1" d="M 8.5 11 L 9.5 13 L 8.5 11 Z " /><path fill="rgb(167,203,209)" stroke="rgb(167,203,209)" stroke-width="1" opacity="1" d="M 8 37 L 10 37.5 L 9.5 40 L 8 37 Z " /><path fill="rgb(204,108,58)" stroke="rgb(204,108,58)" stroke-width="1" opacity="1" d="M 12 12 L 17 14.5 L 15.5 15 L 13.5 15 Q 10.5 15.7 12 12 Z " /><path fill="rgb(204,108,58)" stroke="rgb(204,108,58)" stroke-width="1" opacity="1" d="M 17 20 L 19 20.5 L 17 21.5 L 17 20 Z " /><path fill="rgb(204,108,58)" stroke="rgb(204,108,58)" stroke-width="1" opacity="1" d="M 9.5 23 L 11 23.5 L 9 24.5 L 9.5 26 Q 6.5 24.5 9.5 23 Z " /><path fill="rgb(204,108,58)" stroke="rgb(204,108,58)" stroke-width="1" opacity="1" d="M 19.5 24 L 21 24.5 L 19 25.5 L 20 28 L 22 28.5 L 20.5 29 L 18 25.5 L 19.5 24 Z " /><path fill="rgb(204,108,58)" stroke="rgb(204,108,58)" stroke-width="1" opacity="1" d="M 20.5 30 L 21 33.5 L 20 33.5 L 20.5 30 Z " /><path fill="rgb(204,108,58)" stroke="rgb(204,108,58)" stroke-width="1" opacity="1" d="M 20.5 37 L 23 38 Q 24 41 21 40 L 20.5 37 Z " /><path fill="rgb(204,108,58)" stroke="rgb(204,108,58)" stroke-width="1" opacity="1" d="M 27.5 42 L 28 44.5 L 27 44.5 L 27.5 42 Z " /><path fill="rgb(204,108,58)" stroke="rgb(204,108,58)" stroke-width="1" opacity="1" d="M 14.5 43 L 16.5 43 L 21 44.5 L 9.5 45 L 9.5 44 L 14.5 43 Z " /><path fill="rgb(204,108,58)" stroke="rgb(204,108,58)" stroke-width="1" opacity="1" d="M 23.5 43 Q 27.3 42 26 45 L 23.5 43 Z " /><path fill="rgb(248,245,240)" stroke="rgb(248,245,240)" stroke-width="1" opacity="1" d="M 24.5 21 Q 28.7 19.9 27 24 L 25 23.5 L 25.5 22 L 23.5 23 L 24.5 21 Z " /><path fill="rgb(248,245,240)" stroke="rgb(248,245,240)" stroke-width="1" opacity="1" d="M 28.5 30 L 29 44.5 L 28 44.5 L 28.5 30 Z " /><path fill="rgb(248,245,240)" stroke="rgb(248,245,240)" stroke-width="1" opacity="1" d="M 2.5 31 L 3.5 33 L 2.5 31 Z " /><path fill="rgb(248,245,240)" stroke="rgb(248,245,240)" stroke-width="1" opacity="1" d="M 23.5 31 L 24 33 L 22 32.5 L 23.5 31 Z " /><path fill="rgb(248,245,240)" stroke="rgb(248,245,240)" stroke-width="1" opacity="1" d="M 22.5 35 L 25 36.5 L 24.5 39 L 22 38 L 22.5 35 Z " /><path fill="rgb(248,245,240)" stroke="rgb(248,245,240)" stroke-width="1" opacity="1" d="M 17.5 41 L 20 41.5 L 17.5 42 L 17.5 41 Z " /><path fill="rgb(248,245,240)" stroke="rgb(248,245,240)" stroke-width="1" opacity="1" d="M 2.5 46 L 3 47.5 L 1 48.5 L 2.5 46 Z " /><path fill="rgb(192,245,250)" stroke="rgb(192,245,250)" stroke-width="1" opacity="1" d="M 13.5 15 Q 16.1 14.3 15 17 L 12 16.5 L 13.5 15 Z " /><path fill="rgb(192,245,250)" stroke="rgb(192,245,250)" stroke-width="1" opacity="1" d="M 13.5 22 L 16 26 L 12 24.5 L 13.5 22 Z " /><path fill="rgb(192,245,250)" stroke="rgb(192,245,250)" stroke-width="1" opacity="1" d="M 7.5 26 L 8 29 L 10 29.5 L 8 30 L 7.5 32 L 6 29.5 L 7.5 26 Z " /><path fill="rgb(192,245,250)" stroke="rgb(192,245,250)" stroke-width="1" opacity="1" d="M 14.5 27 L 15.5 29 L 14.5 27 Z " /><path fill="rgb(192,245,250)" stroke="rgb(192,245,250)" stroke-width="1" opacity="1" d="M 15.5 30 L 16 31.5 L 13.5 33 L 15.5 30 Z " /><path fill="rgb(192,245,250)" stroke="rgb(192,245,250)" stroke-width="1" opacity="1" d="M 18.5 36 L 19 37.5 L 18.5 39 L 20 39.5 L 18.5 40 L 15 38.5 L 18 38 L 18.5 36 Z " /><path fill="rgb(192,245,250)" stroke="rgb(192,245,250)" stroke-width="1" opacity="1" d="M 6 37 Q 9 36 8 39 Q 5 40 6 37 Z " /><path fill="rgb(124,122,126)" stroke="rgb(124,122,126)" stroke-width="1" opacity="1" d="M 9 2 Q 12.3 0.7 11 5.5 L 8 5.5 L 9 2 Z " /><path fill="rgb(124,122,126)" stroke="rgb(124,122,126)" stroke-width="1" opacity="1" d="M 13.5 2 L 16.5 4 Q 18.3 0.2 20 3.5 L 19.5 7 L 17.5 4 L 17 5.5 L 17.5 7 L 16.5 6 L 14 7.5 L 14.5 5 L 16 4.5 L 13 4 L 13.5 2 Z " /><path fill="rgb(124,122,126)" stroke="rgb(124,122,126)" stroke-width="1" opacity="1" d="M 10.5 7 L 8.5 10 L 10.5 7 Z " /><path fill="rgb(124,122,126)" stroke="rgb(124,122,126)" stroke-width="1" opacity="1" d="M 14.5 9 L 17 10.5 L 15.5 11 L 14.5 9 Z " /><path fill="rgb(124,122,126)" stroke="rgb(124,122,126)" stroke-width="1" opacity="1" d="M 10.5 11 L 11.5 13 Q 8.7 13.7 10.5 11 Z " /><path fill="rgb(124,122,126)" stroke="rgb(124,122,126)" stroke-width="1" opacity="1" d="M 17.5 12 L 16.5 14 L 17.5 12 Z " /><path fill="rgb(124,122,126)" stroke="rgb(124,122,126)" stroke-width="1" opacity="1" d="M 19.5 13 Q 22.9 12.1 21 17.5 L 20 17.5 Q 21.1 14.2 18.5 15 L 19.5 13 Z " /><path fill="rgb(124,122,126)" stroke="rgb(124,122,126)" stroke-width="1" opacity="1" d="M 9.5 15 L 10 17 Q 12.7 15.9 12 18.5 L 9.5 17 L 8 16.5 L 9.5 15 Z " /><path fill="rgb(124,122,126)" stroke="rgb(124,122,126)" stroke-width="1" opacity="1" d="M 18.5 16 L 19 17.5 Q 16.8 18.8 19.5 20 L 21.5 20 Q 23.8 19.3 23 21.5 L 21.5 21 Q 19.3 20.3 20 22.5 L 19 22.5 L 17.5 19 L 16 18.5 L 18 18 L 18.5 16 Z " /><path fill="rgb(124,122,126)" stroke="rgb(124,122,126)" stroke-width="1" opacity="1" d="M 26.5 16 L 27.5 18 L 26.5 16 Z " /><path fill="rgb(124,122,126)" stroke="rgb(124,122,126)" stroke-width="1" opacity="1" d="M 7 20 L 9 20.5 L 7.5 23 L 7 20 Z " /><path fill="rgb(124,122,126)" stroke="rgb(124,122,126)" stroke-width="1" opacity="1" d="M 16.5 20 L 16 21.5 L 17 23.5 L 15 22.5 L 16.5 20 Z " /><path fill="rgb(124,122,126)" stroke="rgb(124,122,126)" stroke-width="1" opacity="1" d="M 11.5 21 Q 14.3 22.3 12 23.5 L 11.5 26 L 11 23.5 L 11.5 21 Z " /><path fill="rgb(124,122,126)" stroke="rgb(124,122,126)" stroke-width="1" opacity="1" d="M 17.5 25 L 18 26.5 L 16 27.5 L 17.5 25 Z " /><path fill="rgb(124,122,126)" stroke="rgb(124,122,126)" stroke-width="1" opacity="1" d="M 14.5 29 L 15 31 L 13 30.5 L 14.5 29 Z " /><path fill="rgb(124,122,126)" stroke="rgb(124,122,126)" stroke-width="1" opacity="1" d="M 18.5 30 Q 20.8 29.3 20 31.5 L 18.5 30 Z " /><path fill="rgb(124,122,126)" stroke="rgb(124,122,126)" stroke-width="1" opacity="1" d="M 6.5 32 L 7 34.5 L 6 34.5 L 6.5 32 Z " /><path fill="rgb(124,122,126)" stroke="rgb(124,122,126)" stroke-width="1" opacity="1" d="M 4.5 36 L 6 36.5 L 4 37 L 5 40.5 L 3 39.5 L 4.5 36 Z " /><path fill="rgb(124,122,126)" stroke="rgb(124,122,126)" stroke-width="1" opacity="1" d="M 9.5 38 L 8.5 40 L 9.5 38 Z " /><path fill="rgb(124,122,126)" stroke="rgb(124,122,126)" stroke-width="1" opacity="1" d="M 11.5 39 L 14 42.5 L 12 43 L 11.5 39 Z " /><path fill="rgb(124,122,126)" stroke="rgb(124,122,126)" stroke-width="1" opacity="1" d="M 15.5 39 Q 18.5 40.5 15.5 42 L 15.5 39 Z " /><path fill="rgb(124,122,126)" stroke="rgb(124,122,126)" stroke-width="1" opacity="1" d="M 6.5 41 L 8 41.5 L 6 42 Q 7.1 44.7 4.5 44 L 6.5 41 Z " /><path fill="rgb(200,193,197)" stroke="rgb(200,193,197)" stroke-width="1" opacity="1" d="M 12.5 2 L 12 3.5 L 11.5 5 L 11 3.5 L 12.5 2 Z " /><path fill="rgb(200,193,197)" stroke="rgb(200,193,197)" stroke-width="1" opacity="1" d="M 13.5 7 L 16 8.5 L 14.5 9 L 12 8.5 L 13.5 7 Z " /><path fill="rgb(200,193,197)" stroke="rgb(200,193,197)" stroke-width="1" opacity="1" d="M 9.5 9 L 8.5 11 L 9.5 9 Z " /><path fill="rgb(200,193,197)" stroke="rgb(200,193,197)" stroke-width="1" opacity="1" d="M 19.5 15 L 20 17.5 L 19 17.5 L 19.5 15 Z " /><path fill="rgb(200,193,197)" stroke="rgb(200,193,197)" stroke-width="1" opacity="1" d="M 7.5 17 L 10 18 L 9.5 20 L 7.5 17 Z " /><path fill="rgb(200,193,197)" stroke="rgb(200,193,197)" stroke-width="1" opacity="1" d="M 21.5 23 L 22.5 25 L 21.5 23 Z " /><path fill="rgb(200,193,197)" stroke="rgb(200,193,197)" stroke-width="1" opacity="1" d="M 22.5 31 L 23 33.5 L 21.5 35 L 21 32.5 L 22.5 31 Z " /><path fill="rgb(200,193,197)" stroke="rgb(200,193,197)" stroke-width="1" opacity="1" d="M 25.5 35 L 27 37.5 L 25 36.5 L 25.5 35 Z " /><path fill="rgb(200,193,197)" stroke="rgb(200,193,197)" stroke-width="1" opacity="1" d="M 22.5 44 L 25 45.5 L 23.5 46 L 22.5 44 Z " /><path fill="rgb(200,193,197)" stroke="rgb(200,193,197)" stroke-width="1" opacity="1" d="M 15.5 48 L 18 48.5 L 15.5 49 L 15.5 48 Z " /><path fill="rgb(200,193,197)" stroke="rgb(200,193,197)" stroke-width="1" opacity="1" d="M 21.5 48 L 24 48.5 L 21.5 49 L 21.5 48 Z " /><path fill="rgb(160,173,179)" stroke="rgb(160,173,179)" stroke-width="1" opacity="1" d="M 13.5 4 L 16 4.5 L 13.5 5 L 13.5 4 Z " /><path fill="rgb(160,173,179)" stroke="rgb(160,173,179)" stroke-width="1" opacity="1" d="M 17.5 4 L 18.5 6 L 17 6.5 L 17.5 8 L 14 6.5 L 17 5.5 L 17.5 4 Z " /><path fill="rgb(160,173,179)" stroke="rgb(160,173,179)" stroke-width="1" opacity="1" d="M 17.5 14 L 18.5 16 L 17.5 14 Z " /><path fill="rgb(160,173,179)" stroke="rgb(160,173,179)" stroke-width="1" opacity="1" d="M 10.5 16 L 9.5 18 L 10.5 16 Z " /><path fill="rgb(160,173,179)" stroke="rgb(160,173,179)" stroke-width="1" opacity="1" d="M 15.5 16 L 16.5 18 L 15.5 16 Z " /><path fill="rgb(160,173,179)" stroke="rgb(160,173,179)" stroke-width="1" opacity="1" d="M 12.5 18 L 13 20 L 11 19.5 L 12.5 18 Z " /><path fill="rgb(160,173,179)" stroke="rgb(160,173,179)" stroke-width="1" opacity="1" d="M 6.5 24 Q 8.8 23.3 8 25.5 L 6.5 24 Z " /><path fill="rgb(160,173,179)" stroke="rgb(160,173,179)" stroke-width="1" opacity="1" d="M 15.5 26 L 16 27.5 L 14 28.5 L 15.5 26 Z " /><path fill="rgb(160,173,179)" stroke="rgb(160,173,179)" stroke-width="1" opacity="1" d="M 10.5 31 L 10 32.5 Q 10.8 36.3 8.5 37 L 9 35.5 L 8 33.5 L 10.5 31 Z " /><path fill="rgb(160,173,179)" stroke="rgb(160,173,179)" stroke-width="1" opacity="1" d="M 18.5 32 Q 21.5 33.5 18.5 35 L 18.5 32 Z " /><path fill="rgb(160,173,179)" stroke="rgb(160,173,179)" stroke-width="1" opacity="1" d="M 16.5 39 L 17.5 41 L 16.5 39 Z " /><path fill="rgb(160,173,179)" stroke="rgb(160,173,179)" stroke-width="1" opacity="1" d="M 7.5 46 L 8.5 48 L 7.5 46 Z " /><path fill="rgb(160,173,179)" stroke="rgb(160,173,179)" stroke-width="1" opacity="1" d="M 25.5 47 L 28 48.5 L 26.5 49 L 25.5 47 Z " /><path fill="rgb(235,236,237)" stroke="rgb(235,236,237)" stroke-width="1" opacity="1" d="M 6.5 4 L 7.5 6 L 6.5 4 Z " /><path fill="rgb(235,236,237)" stroke="rgb(235,236,237)" stroke-width="1" opacity="1" d="M 19.5 7 Q 21.8 6.3 21 8.5 L 21.5 10 L 19.5 7 Z " /><path fill="rgb(235,236,237)" stroke="rgb(235,236,237)" stroke-width="1" opacity="1" d="M 25.5 22 L 24.5 24 L 25.5 22 Z " /><path fill="rgb(235,236,237)" stroke="rgb(235,236,237)" stroke-width="1" opacity="1" d="M 2.5 30 L 5 33.5 L 4 33.5 L 3.5 32 L 2 32.5 L 2.5 30 Z " /><path fill="rgb(235,236,237)" stroke="rgb(235,236,237)" stroke-width="1" opacity="1" d="M 4.5 37 Q 7.5 38.5 4.5 40 L 4.5 37 Z " /><path fill="rgb(235,236,237)" stroke="rgb(235,236,237)" stroke-width="1" opacity="1" d="M 5.5 45 Q 8.1 44.2 7 47.5 L 6 47.5 L 5.5 45 Z " /><path fill="rgb(235,236,237)" stroke="rgb(235,236,237)" stroke-width="1" opacity="1" d="M 18.5 45 L 22 45.5 L 18.5 46 L 18.5 45 Z " /><path fill="rgb(235,236,237)" stroke="rgb(235,236,237)" stroke-width="1" opacity="1" d="M 25.5 46 L 26.5 48 L 25.5 46 Z " /><path fill="rgb(78,55,53)" stroke="rgb(78,55,53)" stroke-width="1" opacity="1" d="M 2.5 1 L 28 1.5 L 20.5 2 L 18.5 4 L 18.5 2 L 14.5 3 L 13.5 2 L 2.5 2 L 2.5 1 Z " /><path fill="rgb(78,55,53)" stroke="rgb(78,55,53)" stroke-width="1" opacity="1" d="M 12.5 3 L 14 7 L 9.5 8 Q 6.5 6.5 9.5 5 Q 10.8 7.3 12 4.5 L 12.5 3 Z " /><path fill="rgb(78,55,53)" stroke="rgb(78,55,53)" stroke-width="1" opacity="1" d="M 10.5 9 L 14 9.5 L 10.5 10 L 10.5 9 Z " /><path fill="rgb(78,55,53)" stroke="rgb(78,55,53)" stroke-width="1" opacity="1" d="M 11.5 11 L 18.5 11 L 19 12.5 L 17.5 12 Q 15.3 11.3 16 13.5 L 14 14.5 Q 16.3 13.3 13.5 12 Q 10.5 12.5 11.5 11 Z " /><path fill="rgb(78,55,53)" stroke="rgb(78,55,53)" stroke-width="1" opacity="1" d="M 10.5 13 Q 12.8 12.3 12 14.5 L 10.5 13 Z " /><path fill="rgb(78,55,53)" stroke="rgb(78,55,53)" stroke-width="1" opacity="1" d="M 9.5 20 L 12 20.5 L 11.5 23 L 9.5 22 L 9 24 L 11 24.5 L 8.5 26 L 8.5 24 L 6 23.5 L 8 23 L 9.5 20 Z " /><path fill="rgb(78,55,53)" stroke="rgb(78,55,53)" stroke-width="1" opacity="1" d="M 16.5 21 L 19 21.5 Q 18.3 23.8 20.5 23 L 20.5 24 L 19 24.5 L 22 26.5 L 20 27.5 L 19.5 26 L 18 26.5 L 18.5 25 Q 16.3 25.8 17 23.5 L 16.5 21 Z " /><path fill="rgb(78,55,53)" stroke="rgb(78,55,53)" stroke-width="1" opacity="1" d="M 6.5 25 L 7 27 L 5 26.5 L 6.5 25 Z " /><path fill="rgb(78,55,53)" stroke="rgb(78,55,53)" stroke-width="1" opacity="1" d="M 13.5 28 L 14 30 L 12 29.5 L 13.5 28 Z " /><path fill="rgb(78,55,53)" stroke="rgb(78,55,53)" stroke-width="1" opacity="1" d="M 27.5 31 L 28 41.5 L 26.5 45 L 26 43 Q 22.6 42.3 21.5 45 L 21 42.5 Q 19.9 39.2 22.5 40 L 25 39 L 25.5 37 L 26.5 39 L 27 35 L 25 34.5 L 27 33.5 Q 24.8 32.3 27.5 31 Z " /><path fill="rgb(78,55,53)" stroke="rgb(78,55,53)" stroke-width="1" opacity="1" d="M 3.5 34 Q 5.8 33.3 5 35.5 L 2 37.5 L 3.5 34 Z " /><path fill="rgb(78,55,53)" stroke="rgb(78,55,53)" stroke-width="1" opacity="1" d="M 3.5 40 L 7.5 42 L 12 41 Q 10.9 43.7 13.5 43 L 13.5 41 L 17 42.5 L 13.5 44 L 4.5 45 L 4.5 44 Q 9.3 44.8 11 42.5 L 8.5 42 L 6.5 43 L 3 42 L 3.5 40 Z " /><path fill="rgb(78,55,53)" stroke="rgb(78,55,53)" stroke-width="1" opacity="1" d="M 8.5 46 Q 10.8 45.3 10 47.5 L 8.5 46 Z " /><path fill="rgb(78,55,53)" stroke="rgb(78,55,53)" stroke-width="1" opacity="1" d="M 20 46 Q 25.2 44.3 24 48 Q 18.8 49.7 20 46 Z " /></svg>