<svg width="30" height="50" version="1.1" xmlns="http://www.w3.org/2000/svg" desc="Created with imagetracer.js version 1.2.6" ><path fill="rgb(228,220,219)" stroke="rgb(228,220,219)" stroke-width="1" opacity="1" d="M 2 2 L 7.5 3 L 9.5 2 L 10 4.5 L 8 6.5 L 9 8.5 L 8.5 12 L 10 12.5 L 8.5 13 L 6.5 12 L 8.5 15 Q 11.1 14.2 10 17.5 L 11 20.5 L 10.5 22 L 8.5 19 L 10 18.5 L 7.5 18 L 6 18.5 L 5 15.5 L 7 14.5 L 4 12.5 L 6 12 L 5 9.5 L 5.5 8 Q 2.9 8.7 4 6 L 2 6 L 2 2 Z M 7 4 L 7 5 L 9 5 L 7 4 Z " /><path fill="rgb(228,220,219)" stroke="rgb(228,220,219)" stroke-width="1" opacity="1" d="M 22.5 28 Q 24.8 27.3 24 29.5 L 22.5 28 Z " /><path fill="rgb(228,220,219)" stroke="rgb(228,220,219)" stroke-width="1" opacity="1" d="M 21.5 31 L 22 33 L 20 32.5 L 21.5 31 Z " /><path fill="rgb(228,220,219)" stroke="rgb(228,220,219)" stroke-width="1" opacity="1" d="M 23 32 Q 26 31 25 34 Q 22 35 23 32 Z " /><path fill="rgb(228,220,219)" stroke="rgb(228,220,219)" stroke-width="1" opacity="1" d="M 14.5 38 L 15 40 L 13 39.5 L 14.5 38 Z " /><path fill="rgb(65,46,38)" stroke="rgb(65,46,38)" stroke-width="1" opacity="1" d="M 24.5 42 L 23.5 44 L 18 43.5 L 24.5 42 Z " /><path fill="rgb(65,46,38)" stroke="rgb(65,46,38)" stroke-width="1" opacity="1" d="M 2.5 44 L 6 44.5 L 4 45.5 L 6 46.5 L 4.5 47 L 2.5 44 Z " /><path fill="rgb(238,230,228)" stroke="rgb(238,230,228)" stroke-width="1" opacity="1" d="M 13.5 2 L 21 2.5 L 19 3 L 19.5 6 L 20.5 4 L 21.5 6 Q 19.3 5.3 20 7.5 L 24 9.5 L 19 10.5 L 22.5 12 L 24 11.5 L 20 13.5 L 20.5 15 L 16.5 18 L 16.5 15 L 18 14.5 Q 14.5 14 15 9.5 L 15 5.5 Q 16.1 2.2 13.5 3 L 13.5 2 Z M 18 10 L 16 12 L 18 12 L 18 10 Z " /><path fill="rgb(238,230,228)" stroke="rgb(238,230,228)" stroke-width="1" opacity="1" d="M 25.5 7 L 28 7.5 L 27 10.5 L 28 11.5 L 28 22.5 L 25.5 21 L 24 20.5 L 26 17.5 L 24 16.5 L 23.5 18 L 22 16.5 L 22.5 14 L 24.5 14 L 26 13.5 L 25.5 12 L 27 11.5 L 25.5 7 Z " /><path fill="rgb(238,230,228)" stroke="rgb(238,230,228)" stroke-width="1" opacity="1" d="M 14.5 22 L 15.5 24 L 14.5 22 Z " /><path fill="rgb(238,230,228)" stroke="rgb(238,230,228)" stroke-width="1" opacity="1" d="M 26.5 36 Q 29.1 35.2 28 38.5 Q 27 41 22.5 40 L 23.5 38 L 26.5 36 Z " /><path fill="rgb(242,236,234)" stroke="rgb(242,236,234)" stroke-width="1" opacity="1" d="M 21.5 2 L 28 2 L 28 6.5 L 25 7.5 L 26.5 11 L 27.5 9 L 28 10.5 L 25 12.5 L 25.5 14 Q 24.1 16.6 19.5 16 L 19.5 15 L 21 14.5 L 20.5 13 L 23 12.5 L 19 10.5 L 24 9.5 L 20 7.5 L 19 3 L 21.5 2 Z M 21 4 Q 19 7 22 6 L 21 4 Z " /><path fill="rgb(242,236,234)" stroke="rgb(242,236,234)" stroke-width="1" opacity="1" d="M 24.5 16 Q 27.5 17.5 24.5 19 L 24.5 16 Z " /><path fill="rgb(242,236,234)" stroke="rgb(242,236,234)" stroke-width="1" opacity="1" d="M 15.5 24 L 17 27.5 L 16 27.5 L 15.5 24 Z " /><path fill="rgb(185,176,174)" stroke="rgb(185,176,174)" stroke-width="1" opacity="1" d="M 5.5 1 L 10 1.5 L 5.5 2 L 5.5 1 Z " /><path fill="rgb(185,176,174)" stroke="rgb(185,176,174)" stroke-width="1" opacity="1" d="M 10.5 3 L 11 4.5 L 9 5.5 L 10.5 3 Z " /><path fill="rgb(185,176,174)" stroke="rgb(185,176,174)" stroke-width="1" opacity="1" d="M 18.5 16 Q 21.3 17.3 19 18.5 Q 19.8 20.8 17.5 20 Q 14 18 18.5 16 Z " /><path fill="rgb(185,176,174)" stroke="rgb(185,176,174)" stroke-width="1" opacity="1" d="M 20.5 33 Q 23.5 34.5 20.5 36 L 20.5 33 Z " /><path fill="rgb(185,176,174)" stroke="rgb(185,176,174)" stroke-width="1" opacity="1" d="M 4.5 37 L 5.5 39 L 4.5 37 Z " /><path fill="rgb(185,176,174)" stroke="rgb(185,176,174)" stroke-width="1" opacity="1" d="M 7.5 37 L 8.5 39 L 7.5 37 Z " /><path fill="rgb(185,176,174)" stroke="rgb(185,176,174)" stroke-width="1" opacity="1" d="M 18.5 37 Q 21.1 36.2 20 39.5 L 19 39.5 L 18.5 37 Z " /><path fill="rgb(185,176,174)" stroke="rgb(185,176,174)" stroke-width="1" opacity="1" d="M 11 46 L 13 46.5 L 11 47.5 L 11 46 Z " /><path fill="rgb(156,41,21)" stroke="rgb(156,41,21)" stroke-width="1" opacity="1" d="M 12.5 5 L 14 7.5 L 13 8.5 L 13 16.5 L 13 20.5 L 12.5 25 L 12.5 5 Z " /><path fill="rgb(155,146,146)" stroke="rgb(155,146,146)" stroke-width="1" opacity="1" d="M 2.5 1 L 5 1.5 L 2.5 2 L 2.5 1 Z " /><path fill="rgb(155,146,146)" stroke="rgb(155,146,146)" stroke-width="1" opacity="1" d="M 10.5 1 L 16 1.5 L 10.5 2 L 10.5 1 Z " /><path fill="rgb(155,146,146)" stroke="rgb(155,146,146)" stroke-width="1" opacity="1" d="M 25.5 1 L 28 1.5 L 25.5 2 L 25.5 1 Z " /><path fill="rgb(155,146,146)" stroke="rgb(155,146,146)" stroke-width="1" opacity="1" d="M 13.5 4 L 14.5 6 L 13.5 4 Z " /><path fill="rgb(155,146,146)" stroke="rgb(155,146,146)" stroke-width="1" opacity="1" d="M 11.5 8 L 12 10.5 L 11 10.5 L 11.5 8 Z " /><path fill="rgb(155,146,146)" stroke="rgb(155,146,146)" stroke-width="1" opacity="1" d="M 16.5 11 L 15.5 15 L 14 12 L 16.5 11 Z " /><path fill="rgb(155,146,146)" stroke="rgb(155,146,146)" stroke-width="1" opacity="1" d="M 10.5 12 L 11.5 14 Q 8.7 14.7 10.5 12 Z " /><path fill="rgb(155,146,146)" stroke="rgb(155,146,146)" stroke-width="1" opacity="1" d="M 20.5 17 L 21.5 19 L 20.5 17 Z " /><path fill="rgb(155,146,146)" stroke="rgb(155,146,146)" stroke-width="1" opacity="1" d="M 20.5 20 L 21 23.5 L 19 22.5 L 20.5 20 Z " /><path fill="rgb(155,146,146)" stroke="rgb(155,146,146)" stroke-width="1" opacity="1" d="M 23.5 27 L 26 28.5 L 25.5 31 L 25 28 L 23.5 27 Z " /><path fill="rgb(155,146,146)" stroke="rgb(155,146,146)" stroke-width="1" opacity="1" d="M 22.5 36 L 23 38 L 21 37.5 L 22.5 36 Z " /><path fill="rgb(155,146,146)" stroke="rgb(155,146,146)" stroke-width="1" opacity="1" d="M 17.5 38 L 19.5 41 L 17.5 39 L 15 40.5 Q 14.3 38.3 16.5 39 L 17.5 38 Z " /><path fill="rgb(155,146,146)" stroke="rgb(155,146,146)" stroke-width="1" opacity="1" d="M 7.5 45 L 8.5 47 L 7.5 45 Z " /><path fill="rgb(155,146,146)" stroke="rgb(155,146,146)" stroke-width="1" opacity="1" d="M 13 45 L 15 45.5 L 12 47.5 L 13 45 Z " /><path fill="rgb(155,146,146)" stroke="rgb(155,146,146)" stroke-width="1" opacity="1" d="M 16.5 45 L 17.5 47 L 15.5 48 L 16 46.5 L 16.5 45 Z " /><path fill="rgb(155,146,146)" stroke="rgb(155,146,146)" stroke-width="1" opacity="1" d="M 3.5 46 L 4.5 48 L 3.5 46 Z " /><path fill="rgb(234,226,225)" stroke="rgb(234,226,225)" stroke-width="1" opacity="1" d="M 10.5 2 L 15 3 L 14.5 5 L 10.5 3 L 6.5 5 L 6.5 4 L 10.5 2 Z " /><path fill="rgb(234,226,225)" stroke="rgb(234,226,225)" stroke-width="1" opacity="1" d="M 8 6 L 11 7.5 Q 11.8 9.8 9.5 9 L 8 6 Z " /><path fill="rgb(234,226,225)" stroke="rgb(234,226,225)" stroke-width="1" opacity="1" d="M 9.5 10 Q 12.1 9.3 11 12 L 8 11.5 L 9.5 10 Z " /><path fill="rgb(234,226,225)" stroke="rgb(234,226,225)" stroke-width="1" opacity="1" d="M 14.5 14 L 16.5 17 L 14 16 L 14.5 14 Z " /><path fill="rgb(234,226,225)" stroke="rgb(234,226,225)" stroke-width="1" opacity="1" d="M 15.5 19 L 17 19.5 L 16.5 21 Q 18.8 20.3 18 22.5 L 18 24.5 L 19 28 L 17 27.5 Q 19.5 26 16 24.5 L 15 22.5 L 15.5 21 L 14 20.5 L 15.5 19 Z " /><path fill="rgb(234,226,225)" stroke="rgb(234,226,225)" stroke-width="1" opacity="1" d="M 9 24 L 11 24.5 L 8 26.5 L 9 24 Z " /><path fill="rgb(234,226,225)" stroke="rgb(234,226,225)" stroke-width="1" opacity="1" d="M 8.5 31 L 8.5 34 Q 5.5 32.5 8.5 31 Z " /><path fill="rgb(234,226,225)" stroke="rgb(234,226,225)" stroke-width="1" opacity="1" d="M 14.5 35 L 15.5 37 L 14.5 35 Z " /><path fill="rgb(234,226,225)" stroke="rgb(234,226,225)" stroke-width="1" opacity="1" d="M 22.5 38 L 22 39.5 L 21.5 41 L 21 39.5 L 22.5 38 Z " /><path fill="rgb(223,214,212)" stroke="rgb(223,214,212)" stroke-width="1" opacity="1" d="M 2 6 L 4 6 Q 2.9 8.7 5.5 8 L 6 10.5 Q 5.3 12.8 7.5 12 L 7.5 13 L 6 13.5 L 6.5 15 L 5 15.5 L 6 21 L 8.5 20 L 8 21.5 Q 7.3 23.8 9.5 23 L 11 22.5 Q 11.8 24.8 9.5 24 L 7.5 29 L 6 24.5 L 6.5 23 L 4.5 24 L 2 23 L 3 20.5 L 2 18.5 L 2 16.5 L 3 13.5 L 2 12.5 L 2 6 Z " /><path fill="rgb(223,214,212)" stroke="rgb(223,214,212)" stroke-width="1" opacity="1" d="M 24.5 28 L 25 31 L 27 31.5 L 26 35 L 24 34.5 L 25 31.5 L 24.5 28 Z " /><path fill="rgb(223,214,212)" stroke="rgb(223,214,212)" stroke-width="1" opacity="1" d="M 5.5 29 L 7.5 32 L 5.5 29 Z " /><path fill="rgb(223,214,212)" stroke="rgb(223,214,212)" stroke-width="1" opacity="1" d="M 22.5 29 L 23 34 L 21 33.5 L 22.5 29 Z " /><path fill="rgb(223,214,212)" stroke="rgb(223,214,212)" stroke-width="1" opacity="1" d="M 7.5 33 L 6.5 35 L 7.5 33 Z " /><path fill="rgb(223,214,212)" stroke="rgb(223,214,212)" stroke-width="1" opacity="1" d="M 8.5 35 L 11 36.5 Q 12.3 41.3 9 40 L 8.5 35 Z " /><path fill="rgb(223,214,212)" stroke="rgb(223,214,212)" stroke-width="1" opacity="1" d="M 14.5 37 L 15.5 39 L 14.5 37 Z " /><path fill="rgb(223,214,212)" stroke="rgb(223,214,212)" stroke-width="1" opacity="1" d="M 21.5 38 L 20.5 40 L 21.5 38 Z " /><path fill="rgb(223,214,212)" stroke="rgb(223,214,212)" stroke-width="1" opacity="1" d="M 9.5 45 L 12 45.5 L 9.5 46 L 9.5 45 Z " /><path fill="rgb(102,89,83)" stroke="rgb(102,89,83)" stroke-width="1" opacity="1" d="M 24.5 21 L 26 23.5 L 25 23.5 L 24.5 21 Z " /><path fill="rgb(102,89,83)" stroke="rgb(102,89,83)" stroke-width="1" opacity="1" d="M 2.5 39 Q 4.8 38.3 4 40.5 L 2.5 39 Z " /><path fill="rgb(102,89,83)" stroke="rgb(102,89,83)" stroke-width="1" opacity="1" d="M 25.5 42 L 26.5 44 L 24 43.5 L 25.5 42 Z " /><path fill="rgb(102,89,83)" stroke="rgb(102,89,83)" stroke-width="1" opacity="1" d="M 17.5 43 L 19 45.5 L 17 46 L 17.5 43 Z " /><path fill="rgb(102,89,83)" stroke="rgb(102,89,83)" stroke-width="1" opacity="1" d="M 6 44 L 9 45.5 L 6 45.5 L 6 44 Z " /><path fill="rgb(252,252,251)" stroke="rgb(252,252,251)" stroke-width="1" opacity="1" d="M 0 0 L 30 0 L 30 50 L 0 50 L 0 0 Z M 2 1 L 2 39 L 1 40 L 2 42 L 1 45 L 2 48 L 27 48 L 28 49 L 28 45 L 28 43 L 29 41 Q 27 39 28 34 L 28 32 L 28 1 L 2 1 Z " /><path fill="rgb(252,252,251)" stroke="rgb(252,252,251)" stroke-width="1" opacity="1" d="M 15.5 25 L 16 28 L 20 30.5 L 19 34 L 12.5 33 L 9.5 34 L 8.5 32 L 10.5 33 Q 12 29.5 13.5 32 L 16 31.5 Q 13.3 30.8 14 26.5 L 15.5 25 Z " /><path fill="rgb(252,252,251)" stroke="rgb(252,252,251)" stroke-width="1" opacity="1" d="M 9 26 Q 12 25 11 28 Q 8 29 9 26 Z " /><path fill="rgb(218,209,207)" stroke="rgb(218,209,207)" stroke-width="1" opacity="1" d="M 3.5 19 L 2.5 21 L 3.5 19 Z " /><path fill="rgb(218,209,207)" stroke="rgb(218,209,207)" stroke-width="1" opacity="1" d="M 25.5 21 L 26.5 23 L 25.5 21 Z " /><path fill="rgb(218,209,207)" stroke="rgb(218,209,207)" stroke-width="1" opacity="1" d="M 22.5 22 L 24 22.5 L 20.5 25 L 22.5 22 Z " /><path fill="rgb(218,209,207)" stroke="rgb(218,209,207)" stroke-width="1" opacity="1" d="M 2 23 L 4.5 24 L 6.5 23 L 6 24.5 L 7 29.5 L 7 31.5 L 9 37.5 L 7 36.5 L 6.5 34 L 4 39 Q 1 40 2 37 Q 5.7 38.2 4 33 L 2 32.5 L 3 30.5 L 2 25.5 L 2 23 Z " /><path fill="rgb(218,209,207)" stroke="rgb(218,209,207)" stroke-width="1" opacity="1" d="M 20.5 29 Q 22.8 28.3 22 30.5 L 20.5 29 Z " /><path fill="rgb(218,209,207)" stroke="rgb(218,209,207)" stroke-width="1" opacity="1" d="M 15.5 35 L 19 36.5 Q 15.9 38.3 17.5 40 L 15.5 37 L 18 36.5 Q 14.7 36.6 15.5 35 Z " /><path fill="rgb(210,194,63)" stroke="rgb(210,194,63)" stroke-width="1" opacity="1" d="M 5 39 L 12.5 42 L 16.5 42 L 18.5 42 L 23.5 41 L 24 43 L 2 44 L 2 41 Q 6.1 42.3 5 39 Z " /><path fill="rgb(210,194,63)" stroke="rgb(210,194,63)" stroke-width="1" opacity="1" d="M 18.5 44 L 28 44.5 L 18.5 45 L 18.5 44 Z " /><path fill="rgb(193,142,132)" stroke="rgb(193,142,132)" stroke-width="1" opacity="1" d="M 14.5 6 L 15 7.5 L 13.5 10 L 13 8.5 L 14.5 6 Z " /><path fill="rgb(193,142,132)" stroke="rgb(193,142,132)" stroke-width="1" opacity="1" d="M 13.5 11 L 14 16.5 L 13 16.5 L 13.5 11 Z " /><path fill="rgb(193,142,132)" stroke="rgb(193,142,132)" stroke-width="1" opacity="1" d="M 11.5 16 L 12 23.5 L 11 23.5 L 11.5 16 Z " /><path fill="rgb(193,142,132)" stroke="rgb(193,142,132)" stroke-width="1" opacity="1" d="M 13.5 20 L 14 23.5 L 13 23.5 L 13.5 20 Z " /><path fill="rgb(193,142,132)" stroke="rgb(193,142,132)" stroke-width="1" opacity="1" d="M 13.5 27 L 14 30 L 12 29.5 L 13.5 27 Z " /><path fill="rgb(130,121,114)" stroke="rgb(130,121,114)" stroke-width="1" opacity="1" d="M 16.5 1 L 22 1.5 L 16.5 2 L 16.5 1 Z " /><path fill="rgb(130,121,114)" stroke="rgb(130,121,114)" stroke-width="1" opacity="1" d="M 11.5 4 L 10.5 6 L 11.5 4 Z " /><path fill="rgb(130,121,114)" stroke="rgb(130,121,114)" stroke-width="1" opacity="1" d="M 15.5 13 L 16.5 15 L 15.5 13 Z " /><path fill="rgb(130,121,114)" stroke="rgb(130,121,114)" stroke-width="1" opacity="1" d="M 21.5 17 L 22.5 19 L 21.5 17 Z " /><path fill="rgb(130,121,114)" stroke="rgb(130,121,114)" stroke-width="1" opacity="1" d="M 17.5 20 L 20 23.5 L 18 22.5 L 17.5 20 Z " /><path fill="rgb(130,121,114)" stroke="rgb(130,121,114)" stroke-width="1" opacity="1" d="M 22.5 34 L 21.5 36 L 22.5 34 Z " /><path fill="rgb(130,121,114)" stroke="rgb(130,121,114)" stroke-width="1" opacity="1" d="M 26.5 41 L 28 43.5 L 27 43.5 L 26.5 41 Z " /><path fill="rgb(130,121,114)" stroke="rgb(130,121,114)" stroke-width="1" opacity="1" d="M 15.5 43 L 14.5 45 L 8 44.5 L 15.5 43 Z " /><path fill="rgb(130,121,114)" stroke="rgb(130,121,114)" stroke-width="1" opacity="1" d="M 21.5 45 L 22.5 47 L 21.5 45 Z " /><path fill="rgb(211,202,200)" stroke="rgb(211,202,200)" stroke-width="1" opacity="1" d="M 22.5 17 L 23.5 19 L 22.5 17 Z " /><path fill="rgb(211,202,200)" stroke="rgb(211,202,200)" stroke-width="1" opacity="1" d="M 24.5 23 L 24.5 25 L 26 25.5 L 22 27 L 21 24.5 L 24.5 23 Z " /><path fill="rgb(211,202,200)" stroke="rgb(211,202,200)" stroke-width="1" opacity="1" d="M 4.5 32 L 4 33.5 Q 5.5 37.9 2.5 37 L 3 35.5 L 2 33.5 L 4.5 32 Z " /><path fill="rgb(211,202,200)" stroke="rgb(211,202,200)" stroke-width="1" opacity="1" d="M 23.5 34 L 25 37.5 L 23 36.5 L 23.5 34 Z " /><path fill="rgb(211,202,200)" stroke="rgb(211,202,200)" stroke-width="1" opacity="1" d="M 5.5 36 Q 7.8 35.3 7 37.5 L 5.5 36 Z " /><path fill="rgb(211,202,200)" stroke="rgb(211,202,200)" stroke-width="1" opacity="1" d="M 24.5 45 Q 26.8 44.3 26 46.5 L 26.5 48 L 24 47.5 L 24.5 45 Z " /></svg>