<svg width="30" height="50" version="1.1" xmlns="http://www.w3.org/2000/svg" desc="Created with imagetracer.js version 1.2.6" ><path fill="rgb(163,106,99)" stroke="rgb(163,106,99)" stroke-width="1" opacity="1" d="M 7.5 8 L 8 11 Q 5.3 12.1 6 9.5 L 7.5 8 Z " /><path fill="rgb(217,209,208)" stroke="rgb(217,209,208)" stroke-width="1" opacity="1" d="M 5.5 2 Q 8.3 3.3 6 4.5 L 5 8.5 L 6 9.5 L 6 24.5 L 2.5 27 L 2 3.5 L 5 4.5 L 5.5 2 Z " /><path fill="rgb(217,209,208)" stroke="rgb(217,209,208)" stroke-width="1" opacity="1" d="M 8 9 L 10 9.5 L 8.5 12 L 8 9 Z " /><path fill="rgb(217,209,208)" stroke="rgb(217,209,208)" stroke-width="1" opacity="1" d="M 24.5 11 L 26 14.5 L 25 14.5 L 24.5 11 Z " /><path fill="rgb(217,209,208)" stroke="rgb(217,209,208)" stroke-width="1" opacity="1" d="M 8.5 13 L 10.5 16 Q 11.8 13.8 13 16.5 L 9 17 L 8.5 19 L 8 17.5 L 8 15.5 L 8.5 13 Z " /><path fill="rgb(217,209,208)" stroke="rgb(217,209,208)" stroke-width="1" opacity="1" d="M 8.5 20 L 12 22.5 L 8 25 L 8.5 20 Z " /><path fill="rgb(217,209,208)" stroke="rgb(217,209,208)" stroke-width="1" opacity="1" d="M 24.5 22 L 25.5 24 L 24.5 22 Z " /><path fill="rgb(217,209,208)" stroke="rgb(217,209,208)" stroke-width="1" opacity="1" d="M 25.5 25 L 26.5 27 Q 23.7 27.7 25.5 25 Z " /><path fill="rgb(217,209,208)" stroke="rgb(217,209,208)" stroke-width="1" opacity="1" d="M 2 29 L 6 30.5 L 2 31 L 2 29 Z " /><path fill="rgb(217,209,208)" stroke="rgb(217,209,208)" stroke-width="1" opacity="1" d="M 8.5 29 L 11 29.5 L 8.5 30 L 8.5 29 Z " /><path fill="rgb(217,209,208)" stroke="rgb(217,209,208)" stroke-width="1" opacity="1" d="M 25.5 35 L 26 37.5 L 25 37.5 L 25.5 35 Z " /><path fill="rgb(217,209,208)" stroke="rgb(217,209,208)" stroke-width="1" opacity="1" d="M 9 37 Q 12 36 11 39 Q 8 40 9 37 Z " /><path fill="rgb(217,209,208)" stroke="rgb(217,209,208)" stroke-width="1" opacity="1" d="M 25 39 L 27 39.5 L 25.5 43 L 25 39 Z " /><path fill="rgb(217,209,208)" stroke="rgb(217,209,208)" stroke-width="1" opacity="1" d="M 20.5 44 L 26 44.5 Q 23.7 45.8 26.5 47 L 27.5 44 L 28 48 L 12.5 48 L 10 46.5 L 20.5 44 Z " /><path fill="rgb(252,252,251)" stroke="rgb(252,252,251)" stroke-width="1" opacity="1" d="M 0 0 L 30 0 L 30 50 L 0 50 L 0 0 Z M 2 2 L 2 39 L 1 40 L 2 41 L 2 48 L 28 48 L 28 32 L 28 30 L 28 2 L 2 2 Z " /><path fill="rgb(238,229,228)" stroke="rgb(238,229,228)" stroke-width="1" opacity="1" d="M 2.5 2 Q 6.3 0.8 5 4.5 L 2.5 2 Z " /><path fill="rgb(238,229,228)" stroke="rgb(238,229,228)" stroke-width="1" opacity="1" d="M 6.5 2 L 26.5 2 L 28 3.5 L 27 7.5 L 28 8.5 L 28 24 L 25 22.5 L 26 18.5 L 25 15.5 L 26 13.5 L 25 11 Q 21.7 9.7 23 14.5 L 22 16.5 L 23 17.5 L 23 24 Q 20.3 25.1 21 22.5 L 17.5 13 Q 11.7 10.9 13 15.5 L 10 15.5 L 8 12.5 L 10 9.5 L 8 8.5 L 10 7.5 L 8 7 Q 9.1 4.3 6.5 5 L 6.5 2 Z M 15 3 L 13 5 L 16 5 Q 17 2 15 3 Z " /><path fill="rgb(238,229,228)" stroke="rgb(238,229,228)" stroke-width="1" opacity="1" d="M 26.5 36 Q 29.5 37.6 28 43 Q 25 44.3 26 40.5 L 26 38.5 L 26.5 36 Z " /><path fill="rgb(238,229,228)" stroke="rgb(238,229,228)" stroke-width="1" opacity="1" d="M 21.5 37 L 22.5 39 Q 19.7 39.7 21.5 37 Z " /><path fill="rgb(191,177,176)" stroke="rgb(191,177,176)" stroke-width="1" opacity="1" d="M 5.5 6 L 6 8.5 L 5 8.5 L 5.5 6 Z " /><path fill="rgb(191,177,176)" stroke="rgb(191,177,176)" stroke-width="1" opacity="1" d="M 9.5 17 L 10 18.5 L 8 19.5 L 9.5 17 Z " /><path fill="rgb(191,177,176)" stroke="rgb(191,177,176)" stroke-width="1" opacity="1" d="M 6.5 18 L 7 20.5 L 6 20.5 L 6.5 18 Z " /><path fill="rgb(191,177,176)" stroke="rgb(191,177,176)" stroke-width="1" opacity="1" d="M 25.5 20 L 24.5 22 L 25.5 20 Z " /><path fill="rgb(191,177,176)" stroke="rgb(191,177,176)" stroke-width="1" opacity="1" d="M 20.5 23 L 23 26.5 L 22 26.5 Q 22.7 23.9 20 25 L 20.5 23 Z " /><path fill="rgb(191,177,176)" stroke="rgb(191,177,176)" stroke-width="1" opacity="1" d="M 2 32 Q 7.2 30.3 6 34 Q 0.8 35.7 2 32 Z " /><path fill="rgb(191,177,176)" stroke="rgb(191,177,176)" stroke-width="1" opacity="1" d="M 9 39 L 11 39.5 L 9 40.5 L 9 39 Z " /><path fill="rgb(191,177,176)" stroke="rgb(191,177,176)" stroke-width="1" opacity="1" d="M 20.5 40 L 23 40.5 Q 23.8 42.8 21.5 42 L 20 42.5 L 20.5 40 Z " /><path fill="rgb(191,177,176)" stroke="rgb(191,177,176)" stroke-width="1" opacity="1" d="M 9.5 44 L 10 47 L 12 47.5 L 2 48 Q 0.6 44 7.5 46 L 9.5 44 Z " /><path fill="rgb(93,72,64)" stroke="rgb(93,72,64)" stroke-width="1" opacity="1" d="M 7.5 14 L 9 16.5 L 7 17.5 L 7 15.5 L 7.5 14 Z " /><path fill="rgb(93,72,64)" stroke="rgb(93,72,64)" stroke-width="1" opacity="1" d="M 9.5 19 L 10.5 21 L 9.5 19 Z " /><path fill="rgb(93,72,64)" stroke="rgb(93,72,64)" stroke-width="1" opacity="1" d="M 7.5 24 L 6.5 26 L 7.5 24 Z " /><path fill="rgb(93,72,64)" stroke="rgb(93,72,64)" stroke-width="1" opacity="1" d="M 21.5 26 L 20.5 28 L 21.5 26 Z " /><path fill="rgb(93,72,64)" stroke="rgb(93,72,64)" stroke-width="1" opacity="1" d="M 6.5 27 L 8 30.5 L 7 30.5 Q 7.8 27.9 4.5 29 L 4.5 28 L 6.5 27 Z " /><path fill="rgb(93,72,64)" stroke="rgb(93,72,64)" stroke-width="1" opacity="1" d="M 25.5 27 L 26.5 29 L 25.5 27 Z " /><path fill="rgb(93,72,64)" stroke="rgb(93,72,64)" stroke-width="1" opacity="1" d="M 10.5 28 L 13 28.5 L 10.5 29 L 10.5 28 Z " /><path fill="rgb(93,72,64)" stroke="rgb(93,72,64)" stroke-width="1" opacity="1" d="M 7.5 34 L 8.5 36 L 7.5 34 Z " /><path fill="rgb(93,72,64)" stroke="rgb(93,72,64)" stroke-width="1" opacity="1" d="M 7.5 38 L 9 38.5 L 7 39.5 L 9 40.5 L 7.5 41 L 5 39.5 L 7.5 38 Z " /><path fill="rgb(93,72,64)" stroke="rgb(93,72,64)" stroke-width="1" opacity="1" d="M 12.5 38 L 11.5 40 L 12.5 38 Z " /><path fill="rgb(93,72,64)" stroke="rgb(93,72,64)" stroke-width="1" opacity="1" d="M 24.5 38 L 25 39.5 L 23 40.5 L 24.5 38 Z " /><path fill="rgb(93,72,64)" stroke="rgb(93,72,64)" stroke-width="1" opacity="1" d="M 6.5 43 L 8.5 44 L 10 43.5 L 6.5 45 L 4.5 46 L 6.5 43 Z " /><path fill="rgb(162,35,35)" stroke="rgb(162,35,35)" stroke-width="1" opacity="1" d="M 16.5 13 L 17.5 15 L 16.5 13 Z " /><path fill="rgb(162,35,35)" stroke="rgb(162,35,35)" stroke-width="1" opacity="1" d="M 18.5 20 L 18.5 23 Q 15.5 21.5 18.5 20 Z " /><path fill="rgb(162,35,35)" stroke="rgb(162,35,35)" stroke-width="1" opacity="1" d="M 15 23 L 18 24.5 L 15 24.5 L 15 23 Z " /><path fill="rgb(162,35,35)" stroke="rgb(162,35,35)" stroke-width="1" opacity="1" d="M 15.5 36 Q 18.8 34.9 18 37.5 L 17 42 Q 13.7 43.3 15 38.5 L 15.5 36 Z " /><path fill="rgb(162,35,35)" stroke="rgb(162,35,35)" stroke-width="1" opacity="1" d="M 19.5 39 L 20 41.5 L 19 41.5 L 19.5 39 Z " /><path fill="rgb(162,35,35)" stroke="rgb(162,35,35)" stroke-width="1" opacity="1" d="M 15.5 43 L 16.5 45 L 15.5 43 Z " /><path fill="rgb(160,137,140)" stroke="rgb(160,137,140)" stroke-width="1" opacity="1" d="M 14.5 3 Q 16.8 2.3 16 4.5 L 14.5 3 Z " /><path fill="rgb(160,137,140)" stroke="rgb(160,137,140)" stroke-width="1" opacity="1" d="M 6.5 5 L 7.5 7 L 6.5 5 Z " /><path fill="rgb(160,137,140)" stroke="rgb(160,137,140)" stroke-width="1" opacity="1" d="M 6.5 11 L 7 15.5 L 6 15.5 L 6.5 11 Z " /><path fill="rgb(160,137,140)" stroke="rgb(160,137,140)" stroke-width="1" opacity="1" d="M 17.5 13 L 19 15.5 L 18 15.5 L 17.5 13 Z " /><path fill="rgb(160,137,140)" stroke="rgb(160,137,140)" stroke-width="1" opacity="1" d="M 13.5 14 L 14 16.5 L 12 17.5 L 13.5 14 Z " /><path fill="rgb(160,137,140)" stroke="rgb(160,137,140)" stroke-width="1" opacity="1" d="M 24.5 14 L 25 17.5 L 24 17.5 L 24.5 14 Z " /><path fill="rgb(160,137,140)" stroke="rgb(160,137,140)" stroke-width="1" opacity="1" d="M 11.5 21 Q 14.5 22.5 11.5 24 L 11.5 21 Z " /><path fill="rgb(160,137,140)" stroke="rgb(160,137,140)" stroke-width="1" opacity="1" d="M 26.5 24 L 28 26.5 L 26 25.5 L 26.5 24 Z " /><path fill="rgb(160,137,140)" stroke="rgb(160,137,140)" stroke-width="1" opacity="1" d="M 2.5 27 L 6 27.5 L 2.5 28 L 2.5 27 Z " /><path fill="rgb(160,137,140)" stroke="rgb(160,137,140)" stroke-width="1" opacity="1" d="M 24.5 32 L 25 34.5 L 24 34.5 L 24.5 32 Z " /><path fill="rgb(160,137,140)" stroke="rgb(160,137,140)" stroke-width="1" opacity="1" d="M 26 33 L 28 33.5 L 26 34.5 L 26 33 Z " /><path fill="rgb(160,137,140)" stroke="rgb(160,137,140)" stroke-width="1" opacity="1" d="M 5 35 Q 8.8 33.5 8 36.5 L 5 36.5 L 5 35 Z " /><path fill="rgb(160,137,140)" stroke="rgb(160,137,140)" stroke-width="1" opacity="1" d="M 10.5 40 Q 13.5 41.5 10.5 43 L 9 42.5 L 11 41.5 L 10.5 40 Z " /><path fill="rgb(160,137,140)" stroke="rgb(160,137,140)" stroke-width="1" opacity="1" d="M 3.5 42 L 5 44.5 L 3.5 45 Q 0.5 43.5 3.5 42 Z " /><path fill="rgb(160,137,140)" stroke="rgb(160,137,140)" stroke-width="1" opacity="1" d="M 26.5 44 L 26.5 47 Q 23.5 45.5 26.5 44 Z " /><path fill="rgb(160,137,140)" stroke="rgb(160,137,140)" stroke-width="1" opacity="1" d="M 12.5 45 L 15 45.5 L 12.5 46 L 12.5 45 Z " /><path fill="rgb(120,108,109)" stroke="rgb(120,108,109)" stroke-width="1" opacity="1" d="M 6.5 6 L 7.5 8 L 6.5 6 Z " /><path fill="rgb(120,108,109)" stroke="rgb(120,108,109)" stroke-width="1" opacity="1" d="M 4 34 L 7 34.5 L 4.5 36 L 4 34 Z " /><path fill="rgb(120,108,109)" stroke="rgb(120,108,109)" stroke-width="1" opacity="1" d="M 25.5 34 L 28 35.5 L 26.5 36 L 25.5 34 Z " /><path fill="rgb(120,108,109)" stroke="rgb(120,108,109)" stroke-width="1" opacity="1" d="M 25.5 43 L 28 43.5 L 25.5 44 L 25.5 43 Z " /><path fill="rgb(147,82,52)" stroke="rgb(147,82,52)" stroke-width="1" opacity="1" d="M 12.5 20 L 13.5 22 L 12.5 20 Z " /><path fill="rgb(147,82,52)" stroke="rgb(147,82,52)" stroke-width="1" opacity="1" d="M 9.5 25 L 10 27 L 8 26.5 L 9.5 25 Z " /><path fill="rgb(147,82,52)" stroke="rgb(147,82,52)" stroke-width="1" opacity="1" d="M 26.5 27 L 25.5 29 L 26.5 27 Z " /><path fill="rgb(147,82,52)" stroke="rgb(147,82,52)" stroke-width="1" opacity="1" d="M 20.5 28 L 22.5 29 L 24 28.5 Q 24.8 30.8 22.5 30 L 20.5 28 Z " /><path fill="rgb(147,82,52)" stroke="rgb(147,82,52)" stroke-width="1" opacity="1" d="M 12.5 30 L 15 35.5 L 14 35.5 L 12.5 31 L 10 32.5 L 12.5 30 Z " /><path fill="rgb(147,82,52)" stroke="rgb(147,82,52)" stroke-width="1" opacity="1" d="M 25.5 30 L 24 32.5 L 23.5 34 L 23 31 L 25.5 30 Z " /><path fill="rgb(147,82,52)" stroke="rgb(147,82,52)" stroke-width="1" opacity="1" d="M 9.5 34 L 11.5 37 L 9 36.5 L 9.5 34 Z " /><path fill="rgb(194,82,51)" stroke="rgb(194,82,51)" stroke-width="1" opacity="1" d="M 14.5 21 L 15 25.5 L 14 25.5 L 13 22.5 L 14.5 21 Z " /><path fill="rgb(194,82,51)" stroke="rgb(194,82,51)" stroke-width="1" opacity="1" d="M 14.5 28 L 15 32.5 L 14 32.5 L 14.5 28 Z " /><path fill="rgb(194,82,51)" stroke="rgb(194,82,51)" stroke-width="1" opacity="1" d="M 13.5 35 L 15 38.5 L 14 38.5 L 13.5 35 Z " /><path fill="rgb(192,133,67)" stroke="rgb(192,133,67)" stroke-width="1" opacity="1" d="M 13.5 23 L 14 26 L 10 25.5 L 13.5 23 Z " /><path fill="rgb(192,133,67)" stroke="rgb(192,133,67)" stroke-width="1" opacity="1" d="M 21.5 27 L 24 27.5 L 21.5 28 L 21.5 27 Z " /><path fill="rgb(192,133,67)" stroke="rgb(192,133,67)" stroke-width="1" opacity="1" d="M 10.5 30 L 12 30.5 L 8 33 Q 6.9 30.3 9.5 31 L 10.5 30 Z " /><path fill="rgb(192,133,67)" stroke="rgb(192,133,67)" stroke-width="1" opacity="1" d="M 24.5 30 L 27 31.5 L 25.5 32 L 24.5 30 Z " /><path fill="rgb(192,133,67)" stroke="rgb(192,133,67)" stroke-width="1" opacity="1" d="M 20.5 31 L 23 31.5 L 20.5 32 L 20.5 31 Z " /><path fill="rgb(192,133,67)" stroke="rgb(192,133,67)" stroke-width="1" opacity="1" d="M 20 35 L 22 35.5 L 20 36.5 L 20 35 Z " /><path fill="rgb(62,33,26)" stroke="rgb(62,33,26)" stroke-width="1" opacity="1" d="M 10.5 17 Q 12.8 16.3 12 18.5 L 10.5 17 Z " /><path fill="rgb(62,33,26)" stroke="rgb(62,33,26)" stroke-width="1" opacity="1" d="M 6.5 26 L 10 28.5 L 8.5 29 L 6.5 26 Z " /><path fill="rgb(62,33,26)" stroke="rgb(62,33,26)" stroke-width="1" opacity="1" d="M 13.5 26 L 14 28 L 12 27.5 L 13.5 26 Z " /><path fill="rgb(62,33,26)" stroke="rgb(62,33,26)" stroke-width="1" opacity="1" d="M 24.5 28 L 28 30.5 L 26.5 31 L 24 30 L 24.5 28 Z " /><path fill="rgb(62,33,26)" stroke="rgb(62,33,26)" stroke-width="1" opacity="1" d="M 20.5 29 L 21.5 31 Q 18.7 31.7 20.5 29 Z " /><path fill="rgb(62,33,26)" stroke="rgb(62,33,26)" stroke-width="1" opacity="1" d="M 12.5 32 L 13 36.5 L 12 36.5 L 11.5 34 L 10 34.5 L 12.5 32 Z " /><path fill="rgb(62,33,26)" stroke="rgb(62,33,26)" stroke-width="1" opacity="1" d="M 7.5 33 L 8.5 35 L 7.5 33 Z " /><path fill="rgb(62,33,26)" stroke="rgb(62,33,26)" stroke-width="1" opacity="1" d="M 6.5 36 L 7 38.5 L 6 38.5 L 6.5 36 Z " /><path fill="rgb(62,33,26)" stroke="rgb(62,33,26)" stroke-width="1" opacity="1" d="M 5 42 L 9 43.5 L 7.5 43 L 5.5 44 L 5 42 Z " /><path fill="rgb(126,26,24)" stroke="rgb(126,26,24)" stroke-width="1" opacity="1" d="M 14.5 19 L 16.5 20 L 18 19.5 L 19 21.5 L 17 21.5 Q 17.7 24.1 15 23 L 16 20.5 L 14.5 19 Z " /><path fill="rgb(126,26,24)" stroke="rgb(126,26,24)" stroke-width="1" opacity="1" d="M 19.5 23 L 20 26.5 L 19 26.5 L 19.5 23 Z " /><path fill="rgb(126,26,24)" stroke="rgb(126,26,24)" stroke-width="1" opacity="1" d="M 16.5 24 L 18 26.5 L 18 28.5 L 17 31.5 L 18 36 Q 13.5 37.8 15 32.5 L 16.5 24 Z " /><path fill="rgb(126,26,24)" stroke="rgb(126,26,24)" stroke-width="1" opacity="1" d="M 14.5 39 L 16 42.5 L 14.5 43 L 12.5 40 L 14 40.5 L 14.5 39 Z " /><path fill="rgb(191,36,39)" stroke="rgb(191,36,39)" stroke-width="1" opacity="1" d="M 15.5 13 L 16.5 15 Q 13.7 15.7 15.5 13 Z " /><path fill="rgb(191,36,39)" stroke="rgb(191,36,39)" stroke-width="1" opacity="1" d="M 17.5 22 L 19 23.5 L 20 38.5 L 19 44 Q 15.3 45.5 16 42.5 Q 19.9 36.4 18 24.5 L 17.5 22 Z " /><path fill="rgb(191,36,39)" stroke="rgb(191,36,39)" stroke-width="1" opacity="1" d="M 15.5 25 L 16 30.5 L 15 30.5 L 15.5 25 Z " /><path fill="rgb(33,14,14)" stroke="rgb(33,14,14)" stroke-width="1" opacity="1" d="M 14.5 15 L 17 16.5 L 18 18.5 L 16.5 19 L 15.5 16 L 14.5 15 Z " /><path fill="rgb(33,14,14)" stroke="rgb(33,14,14)" stroke-width="1" opacity="1" d="M 13.5 20 L 16 20.5 L 12.5 22 L 13.5 20 Z " /><path fill="rgb(33,14,14)" stroke="rgb(33,14,14)" stroke-width="1" opacity="1" d="M 12.5 31 L 11 33.5 L 12 34.5 L 11.5 36 L 10 33.5 L 12.5 31 Z " /><path fill="rgb(33,14,14)" stroke="rgb(33,14,14)" stroke-width="1" opacity="1" d="M 5.5 37 L 6 38.5 L 5.5 40 L 7 40.5 L 3.5 41 L 2.5 39 L 5.5 37 Z " /></svg>