<svg width="30" height="50" version="1.1" xmlns="http://www.w3.org/2000/svg" desc="Created with imagetracer.js version 1.2.6" ><path fill="rgb(172,90,31)" stroke="rgb(172,90,31)" stroke-width="1" opacity="1" d="M 20.5 31 L 21 33.5 L 20 33.5 L 20.5 31 Z " /><path fill="rgb(172,90,31)" stroke="rgb(172,90,31)" stroke-width="1" opacity="1" d="M 21.5 40 L 20.5 42 L 21.5 40 Z " /><path fill="rgb(172,90,31)" stroke="rgb(172,90,31)" stroke-width="1" opacity="1" d="M 23.5 40 L 24.5 42 Q 21.7 42.7 23.5 40 Z " /><path fill="rgb(172,90,31)" stroke="rgb(172,90,31)" stroke-width="1" opacity="1" d="M 5.5 43 L 6.5 45 L 5.5 43 Z " /><path fill="rgb(250,251,244)" stroke="rgb(250,251,244)" stroke-width="1" opacity="1" d="M 0 0 L 30 0 L 30 50 L 0 50 L 0 0 Z M 2 1 L 2 49 L 28 49 L 28 1 L 2 1 Z " /><path fill="rgb(248,220,76)" stroke="rgb(248,220,76)" stroke-width="1" opacity="1" d="M 7.5 1 L 28 1 L 28 38 Q 24.3 39.5 25 36.5 L 26 35.5 L 26 21.5 L 26 17.5 L 26 9.5 L 24 9 L 23 15.5 Q 25.3 16.8 22.5 18 L 22 12.5 L 23 10.5 L 20 9 Q 21.3 14.1 18 15.5 L 20 16 L 20 21 L 18.5 21 L 15 19.5 Q 17.8 17.7 13.5 16 L 11 17.5 L 9 21.5 L 9.5 23 L 8 23.5 L 9 28 L 11 28.5 L 7 30 L 8 19.5 L 7 15.5 L 8 12.5 Q 9.3 6.4 6.5 7 L 4 13.5 L 6 22.5 L 6 35.5 L 5 37.5 L 5.5 39 L 2 38.5 L 2 2 L 7.5 1 Z M 15 2 L 13 4 L 16 4 Q 17 1 15 2 Z M 23 6 L 23 8 L 26 8 L 23 6 Z " /><path fill="rgb(248,220,76)" stroke="rgb(248,220,76)" stroke-width="1" opacity="1" d="M 22 20 L 24 20.5 L 22 21.5 L 22 20 Z " /><path fill="rgb(248,220,76)" stroke="rgb(248,220,76)" stroke-width="1" opacity="1" d="M 11.5 24 L 12 25.5 L 10 26.5 L 11.5 24 Z " /><path fill="rgb(248,220,76)" stroke="rgb(248,220,76)" stroke-width="1" opacity="1" d="M 22.5 27 L 23 37.5 L 21 36.5 L 22 35.5 L 22.5 27 Z " /><path fill="rgb(248,220,76)" stroke="rgb(248,220,76)" stroke-width="1" opacity="1" d="M 19.5 32 L 20 37.5 L 19 37.5 L 19.5 32 Z " /><path fill="rgb(248,220,76)" stroke="rgb(248,220,76)" stroke-width="1" opacity="1" d="M 7.5 33 L 8 38.5 L 7 38.5 L 7.5 33 Z " /><path fill="rgb(248,220,76)" stroke="rgb(248,220,76)" stroke-width="1" opacity="1" d="M 26.5 42 L 27.5 44 Q 24.7 44.7 26.5 42 Z " /><path fill="rgb(248,220,76)" stroke="rgb(248,220,76)" stroke-width="1" opacity="1" d="M 8.5 44 L 15 46.5 L 13.5 47 L 9.5 46 L 8.5 44 Z " /><path fill="rgb(89,44,13)" stroke="rgb(89,44,13)" stroke-width="1" opacity="1" d="M 14.5 26 L 15.5 28 L 14.5 26 Z " /><path fill="rgb(89,44,13)" stroke="rgb(89,44,13)" stroke-width="1" opacity="1" d="M 24.5 31 L 25 34.5 L 24 34.5 L 24.5 31 Z " /><path fill="rgb(89,44,13)" stroke="rgb(89,44,13)" stroke-width="1" opacity="1" d="M 16.5 42 L 15.5 44 L 13 43.5 L 16.5 42 Z " /><path fill="rgb(134,71,22)" stroke="rgb(134,71,22)" stroke-width="1" opacity="1" d="M 23.5 31 L 24 33.5 L 23 33.5 L 23.5 31 Z " /><path fill="rgb(134,71,22)" stroke="rgb(134,71,22)" stroke-width="1" opacity="1" d="M 23.5 38 L 24.5 40 L 22.5 41 L 20 40.5 Q 19.2 37.9 22.5 39 L 23.5 38 Z " /><path fill="rgb(88,69,30)" stroke="rgb(88,69,30)" stroke-width="1" opacity="1" d="M 18.5 27 L 19 30.5 L 18 30.5 L 18.5 27 Z " /><path fill="rgb(88,69,30)" stroke="rgb(88,69,30)" stroke-width="1" opacity="1" d="M 6.5 47 L 9 47.5 L 7.5 49 L 5 48.5 L 6.5 47 Z " /><path fill="rgb(237,212,54)" stroke="rgb(237,212,54)" stroke-width="1" opacity="1" d="M 5.5 12 L 4.5 14 L 5.5 12 Z " /><path fill="rgb(237,212,54)" stroke="rgb(237,212,54)" stroke-width="1" opacity="1" d="M 10.5 20 L 13 21 L 10 26.5 L 10.5 28 Q 7.5 28.9 9 24.5 L 8.5 23 L 10 23.5 L 11 21.5 L 10.5 20 Z " /><path fill="rgb(237,212,54)" stroke="rgb(237,212,54)" stroke-width="1" opacity="1" d="M 2.5 40 L 6 41 Q 7.3 44 3.5 43 L 3.5 44 Q 6.1 43.3 5 46 L 2 45.5 L 2 43.5 L 3 41.5 L 2.5 40 Z " /><path fill="rgb(237,212,54)" stroke="rgb(237,212,54)" stroke-width="1" opacity="1" d="M 25.5 40 L 28 40.5 L 25.5 41 L 25.5 40 Z " /><path fill="rgb(237,212,54)" stroke="rgb(237,212,54)" stroke-width="1" opacity="1" d="M 18.5 42 L 17.5 44 L 18.5 42 Z " /><path fill="rgb(167,138,69)" stroke="rgb(167,138,69)" stroke-width="1" opacity="1" d="M 14.5 2 L 15.5 4 L 14.5 2 Z " /><path fill="rgb(167,138,69)" stroke="rgb(167,138,69)" stroke-width="1" opacity="1" d="M 24.5 20 L 24 21.5 Q 24.8 24.1 21.5 23 L 19.5 24 L 19.5 23 L 24.5 20 Z " /><path fill="rgb(167,138,69)" stroke="rgb(167,138,69)" stroke-width="1" opacity="1" d="M 10.5 29 L 9.5 31 L 8 30.5 L 10.5 29 Z " /><path fill="rgb(167,138,69)" stroke="rgb(167,138,69)" stroke-width="1" opacity="1" d="M 8.5 34 L 9 36.5 L 8 36.5 L 8.5 34 Z " /><path fill="rgb(167,138,69)" stroke="rgb(167,138,69)" stroke-width="1" opacity="1" d="M 20.5 42 L 21 44.5 L 19 45.5 L 20.5 42 Z " /><path fill="rgb(167,138,69)" stroke="rgb(167,138,69)" stroke-width="1" opacity="1" d="M 7.5 45 Q 9.8 44.3 9 46.5 L 7 47.5 L 7.5 45 Z " /><path fill="rgb(167,138,69)" stroke="rgb(167,138,69)" stroke-width="1" opacity="1" d="M 3.5 47 L 4.5 49 L 3.5 47 Z " /><path fill="rgb(217,177,66)" stroke="rgb(217,177,66)" stroke-width="1" opacity="1" d="M 2.5 1 L 7 1.5 L 2.5 2 L 2.5 1 Z " /><path fill="rgb(217,177,66)" stroke="rgb(217,177,66)" stroke-width="1" opacity="1" d="M 6.5 7 L 8 7.5 L 5.5 9 L 6.5 7 Z " /><path fill="rgb(217,177,66)" stroke="rgb(217,177,66)" stroke-width="1" opacity="1" d="M 21.5 9 L 22.5 11 L 21.5 9 Z " /><path fill="rgb(217,177,66)" stroke="rgb(217,177,66)" stroke-width="1" opacity="1" d="M 21.5 12 L 22.5 18 L 24 17.5 L 23.5 20 Q 19.3 18.3 21.5 12 Z " /><path fill="rgb(217,177,66)" stroke="rgb(217,177,66)" stroke-width="1" opacity="1" d="M 5.5 15 L 6 20.5 L 5 20.5 L 5.5 15 Z " /><path fill="rgb(217,177,66)" stroke="rgb(217,177,66)" stroke-width="1" opacity="1" d="M 26.5 18 L 25.5 20 L 26.5 18 Z " /><path fill="rgb(217,177,66)" stroke="rgb(217,177,66)" stroke-width="1" opacity="1" d="M 25.5 24 L 26 27.5 L 25 27.5 L 25.5 24 Z " /><path fill="rgb(217,177,66)" stroke="rgb(217,177,66)" stroke-width="1" opacity="1" d="M 19.5 27 L 20 31.5 L 19 31.5 L 19.5 27 Z " /><path fill="rgb(217,177,66)" stroke="rgb(217,177,66)" stroke-width="1" opacity="1" d="M 21.5 28 L 22 35.5 L 21.5 38 Q 18.8 36.8 21 35.5 L 21.5 28 Z " /><path fill="rgb(217,177,66)" stroke="rgb(217,177,66)" stroke-width="1" opacity="1" d="M 7.5 30 L 8 32.5 L 6.5 37 L 6 31.5 L 7.5 30 Z " /><path fill="rgb(217,177,66)" stroke="rgb(217,177,66)" stroke-width="1" opacity="1" d="M 25.5 31 L 26 34.5 L 25 34.5 L 25.5 31 Z " /><path fill="rgb(217,177,66)" stroke="rgb(217,177,66)" stroke-width="1" opacity="1" d="M 9.5 43 L 10.5 45 L 9.5 43 Z " /><path fill="rgb(217,177,66)" stroke="rgb(217,177,66)" stroke-width="1" opacity="1" d="M 7.5 44 L 7 45.5 L 6.5 47 L 5.5 45 L 7.5 44 Z " /><path fill="rgb(217,177,66)" stroke="rgb(217,177,66)" stroke-width="1" opacity="1" d="M 17.5 44 L 15.5 47 L 17.5 44 Z " /><path fill="rgb(217,177,66)" stroke="rgb(217,177,66)" stroke-width="1" opacity="1" d="M 26.5 45 L 26.5 47 L 28 47.5 L 24.5 49 L 24.5 46 L 26.5 45 Z " /><path fill="rgb(217,177,66)" stroke="rgb(217,177,66)" stroke-width="1" opacity="1" d="M 2 46 L 4 46.5 L 2.5 49 L 2 46 Z " /><path fill="rgb(104,12,8)" stroke="rgb(104,12,8)" stroke-width="1" opacity="1" d="M 15.5 20 L 16.5 22 L 15.5 20 Z " /><path fill="rgb(104,12,8)" stroke="rgb(104,12,8)" stroke-width="1" opacity="1" d="M 14.5 23 L 17 24.5 Q 16.3 22.3 18.5 23 L 18 24.5 L 17.5 28 L 14.5 23 Z " /><path fill="rgb(104,12,8)" stroke="rgb(104,12,8)" stroke-width="1" opacity="1" d="M 13.5 26 L 14 29 L 18 31.5 L 17 34.5 L 18 39.5 Q 19 43.3 16 42 L 14 37.5 L 16 32 L 13 32.5 L 14 35.5 L 13 35.5 L 12 29.5 L 13.5 26 Z " /><path fill="rgb(104,12,8)" stroke="rgb(104,12,8)" stroke-width="1" opacity="1" d="M 10.5 30 L 10 33.5 L 9.5 35 L 9 31.5 L 10.5 30 Z " /><path fill="rgb(104,12,8)" stroke="rgb(104,12,8)" stroke-width="1" opacity="1" d="M 9.5 37 L 10 40.5 L 9 40.5 L 9.5 37 Z " /><path fill="rgb(104,12,8)" stroke="rgb(104,12,8)" stroke-width="1" opacity="1" d="M 12.5 41 Q 14.8 40.3 14 42.5 L 12.5 45 L 12 43.5 L 12.5 41 Z " /><path fill="rgb(63,47,24)" stroke="rgb(63,47,24)" stroke-width="1" opacity="1" d="M 12.5 17 L 15 18.5 L 12.5 20 L 12.5 17 Z " /><path fill="rgb(63,47,24)" stroke="rgb(63,47,24)" stroke-width="1" opacity="1" d="M 19.5 21 L 20 23 L 18 22.5 L 19.5 21 Z " /><path fill="rgb(63,47,24)" stroke="rgb(63,47,24)" stroke-width="1" opacity="1" d="M 13.5 23 Q 17.6 25.3 18 30 L 16 29.5 L 16 27.5 Q 16.8 25.3 14.5 26 L 13.5 23 Z " /><path fill="rgb(233,127,41)" stroke="rgb(233,127,41)" stroke-width="1" opacity="1" d="M 6.5 28 L 7 30.5 L 6 30.5 L 6.5 28 Z " /><path fill="rgb(233,127,41)" stroke="rgb(233,127,41)" stroke-width="1" opacity="1" d="M 22.5 41 L 23.5 43 L 22.5 41 Z " /><path fill="rgb(233,127,41)" stroke="rgb(233,127,41)" stroke-width="1" opacity="1" d="M 6.5 43 L 8 43.5 L 5.5 45 L 6.5 43 Z " /><path fill="rgb(173,22,20)" stroke="rgb(173,22,20)" stroke-width="1" opacity="1" d="M 15.5 21 L 18 21.5 L 16.5 25 Q 12 23 15.5 21 Z " /><path fill="rgb(173,22,20)" stroke="rgb(173,22,20)" stroke-width="1" opacity="1" d="M 14.5 27 L 15.5 29 Q 12.7 29.7 14.5 27 Z " /><path fill="rgb(173,22,20)" stroke="rgb(173,22,20)" stroke-width="1" opacity="1" d="M 11.5 30 L 12.5 33 L 16 32 L 14 37.5 L 16 43 L 14 43 Q 15.1 40.3 12.5 41 L 11.5 44 L 10 42.5 L 9 35.5 L 11 32.5 Q 8.7 31.3 11.5 30 Z M 14 33 L 13 36 L 14 36 L 14 33 Z " /><path fill="rgb(196,141,41)" stroke="rgb(196,141,41)" stroke-width="1" opacity="1" d="M 21.5 25 L 22 27.5 L 21 27.5 L 21.5 25 Z " /><path fill="rgb(196,141,41)" stroke="rgb(196,141,41)" stroke-width="1" opacity="1" d="M 18.5 35 L 19 37.5 L 18 37.5 L 18.5 35 Z " /><path fill="rgb(196,141,41)" stroke="rgb(196,141,41)" stroke-width="1" opacity="1" d="M 8.5 40 L 9 42.5 L 8 42.5 L 8.5 40 Z " /><path fill="rgb(196,141,41)" stroke="rgb(196,141,41)" stroke-width="1" opacity="1" d="M 18.5 40 L 19.5 42 L 16.5 44 L 18 41.5 L 18.5 40 Z " /><path fill="rgb(196,141,41)" stroke="rgb(196,141,41)" stroke-width="1" opacity="1" d="M 23.5 43 L 24 45.5 L 23 45.5 L 23.5 43 Z " /><path fill="rgb(158,122,44)" stroke="rgb(158,122,44)" stroke-width="1" opacity="1" d="M 11.5 20 L 10.5 22 L 11.5 20 Z " /><path fill="rgb(158,122,44)" stroke="rgb(158,122,44)" stroke-width="1" opacity="1" d="M 23.5 25 L 25 28.5 L 23 29 L 23.5 25 Z " /><path fill="rgb(158,122,44)" stroke="rgb(158,122,44)" stroke-width="1" opacity="1" d="M 12.5 46 L 14 48.5 L 12 47.5 L 12.5 46 Z " /></svg>