<svg width="30" height="50" version="1.1" xmlns="http://www.w3.org/2000/svg" desc="Created with imagetracer.js version 1.2.6" ><path fill="rgb(72,41,16)" stroke="rgb(72,41,16)" stroke-width="1" opacity="1" d="M 7.5 1 L 11 1.5 L 7.5 2 L 7.5 1 Z " /><path fill="rgb(72,41,16)" stroke="rgb(72,41,16)" stroke-width="1" opacity="1" d="M 14.5 1 L 17 1.5 L 14.5 2 L 14.5 1 Z " /><path fill="rgb(72,41,16)" stroke="rgb(72,41,16)" stroke-width="1" opacity="1" d="M 19.5 1 L 22 1.5 L 19.5 2 L 19.5 1 Z " /><path fill="rgb(72,41,16)" stroke="rgb(72,41,16)" stroke-width="1" opacity="1" d="M 4.5 9 L 8 11.5 L 9 13.5 L 6.5 14 L 7 12.5 L 4.5 9 Z " /><path fill="rgb(72,41,16)" stroke="rgb(72,41,16)" stroke-width="1" opacity="1" d="M 24.5 10 Q 26.8 9.3 26 11.5 L 24.5 10 Z " /><path fill="rgb(72,41,16)" stroke="rgb(72,41,16)" stroke-width="1" opacity="1" d="M 10.5 12 L 11 14.5 L 10 14.5 L 10.5 12 Z " /><path fill="rgb(72,41,16)" stroke="rgb(72,41,16)" stroke-width="1" opacity="1" d="M 12.5 13 L 16 13.5 L 12.5 14 L 12.5 13 Z " /><path fill="rgb(72,41,16)" stroke="rgb(72,41,16)" stroke-width="1" opacity="1" d="M 21.5 13 L 23.5 16 L 21 15.5 L 21.5 13 Z " /><path fill="rgb(72,41,16)" stroke="rgb(72,41,16)" stroke-width="1" opacity="1" d="M 13 15 Q 16 13.8 15 17.5 L 13 16.5 L 13 15 Z " /><path fill="rgb(72,41,16)" stroke="rgb(72,41,16)" stroke-width="1" opacity="1" d="M 19.5 15 L 19.5 18 L 17.5 17 L 16 17.5 L 19.5 15 Z " /><path fill="rgb(72,41,16)" stroke="rgb(72,41,16)" stroke-width="1" opacity="1" d="M 15.5 29 L 18 29.5 L 15.5 30 L 15.5 29 Z " /><path fill="rgb(72,41,16)" stroke="rgb(72,41,16)" stroke-width="1" opacity="1" d="M 17.5 35 L 18.5 37 L 17.5 35 Z " /><path fill="rgb(72,41,16)" stroke="rgb(72,41,16)" stroke-width="1" opacity="1" d="M 5.5 43 L 6 45.5 L 5 45.5 L 5.5 43 Z " /><path fill="rgb(250,232,66)" stroke="rgb(250,232,66)" stroke-width="1" opacity="1" d="M 2 2 L 13.5 2 L 14 5 L 12 5.5 L 13 10.5 L 15 12.5 L 12.5 13 Q 9 11.7 10 7 L 7.5 8 L 5 7 L 4 13.5 L 5 14.5 L 5 32.5 L 2.5 37 L 2 2 Z " /><path fill="rgb(250,232,66)" stroke="rgb(250,232,66)" stroke-width="1" opacity="1" d="M 7.5 14 Q 10.3 15.3 8 16.5 Q 6.5 20.9 9.5 20 Q 11.3 17.3 13 21.5 L 14 26.5 L 13.5 29 L 11 28 L 10.5 30 L 9.5 21 L 9 28 L 7 27.5 L 7.5 14 Z " /><path fill="rgb(250,232,66)" stroke="rgb(250,232,66)" stroke-width="1" opacity="1" d="M 2 42 Q 5.7 40.8 4 46 L 7 46 L 7.5 42 L 8 46 Q 11.7 47.2 10 42 L 20 42 Q 18.1 47.6 23 46 L 23.5 42 L 24 45 L 28 47.5 L 2 48 L 2 42 Z " /><path fill="rgb(250,232,66)" stroke="rgb(250,232,66)" stroke-width="1" opacity="1" d="M 27.5 42 L 28 44 L 26 43.5 L 27.5 42 Z " /><path fill="rgb(250,246,156)" stroke="rgb(250,246,156)" stroke-width="1" opacity="1" d="M 15.5 2 L 22 2 Q 20.5 5.7 23.5 5 L 24 7.5 L 22.5 10 L 22 8 Q 19 6.8 20 10.5 Q 19.5 13.5 15.5 13 Q 12.5 11.5 14 5.5 L 17 3.5 L 15.5 2 Z " /><path fill="rgb(250,246,156)" stroke="rgb(250,246,156)" stroke-width="1" opacity="1" d="M 27.5 13 L 25.5 16 L 27.5 13 Z " /><path fill="rgb(250,246,156)" stroke="rgb(250,246,156)" stroke-width="1" opacity="1" d="M 23.5 17 L 24 26 L 22 25.5 L 22 18.5 L 23.5 17 Z " /><path fill="rgb(250,246,156)" stroke="rgb(250,246,156)" stroke-width="1" opacity="1" d="M 25.5 18 L 26 22.5 L 25 22.5 L 25.5 18 Z " /><path fill="rgb(250,246,156)" stroke="rgb(250,246,156)" stroke-width="1" opacity="1" d="M 13 19 L 20 19 L 20 25.5 L 18 24.5 Q 18.7 21.5 15 23 L 14.5 25 L 13 19 Z " /><path fill="rgb(250,246,156)" stroke="rgb(250,246,156)" stroke-width="1" opacity="1" d="M 25.5 24 L 26 27.5 L 25 27.5 L 25.5 24 Z " /><path fill="rgb(167,56,25)" stroke="rgb(167,56,25)" stroke-width="1" opacity="1" d="M 16.5 23 L 18 25.5 L 15.5 26 L 16 24.5 L 16.5 23 Z " /><path fill="rgb(167,56,25)" stroke="rgb(167,56,25)" stroke-width="1" opacity="1" d="M 16.5 35 L 18 37.5 L 16 38.5 L 16 36.5 L 16.5 35 Z " /><path fill="rgb(162,144,55)" stroke="rgb(162,144,55)" stroke-width="1" opacity="1" d="M 19.5 11 L 20 13.5 L 18 12.5 L 19.5 11 Z " /><path fill="rgb(162,144,55)" stroke="rgb(162,144,55)" stroke-width="1" opacity="1" d="M 10.5 16 L 12 18.5 L 10 17.5 L 10.5 16 Z " /><path fill="rgb(162,144,55)" stroke="rgb(162,144,55)" stroke-width="1" opacity="1" d="M 6.5 20 L 7 23.5 L 6 23.5 L 6.5 20 Z " /><path fill="rgb(162,144,55)" stroke="rgb(162,144,55)" stroke-width="1" opacity="1" d="M 12.5 28 L 11.5 30 L 12.5 28 Z " /><path fill="rgb(162,144,55)" stroke="rgb(162,144,55)" stroke-width="1" opacity="1" d="M 5.5 40 L 6 42 L 4 41.5 L 5.5 40 Z " /><path fill="rgb(162,144,55)" stroke="rgb(162,144,55)" stroke-width="1" opacity="1" d="M 23.5 48 L 26 48.5 L 23.5 49 L 23.5 48 Z " /><path fill="rgb(236,224,113)" stroke="rgb(236,224,113)" stroke-width="1" opacity="1" d="M 14.5 4 L 14 5.5 L 13.5 11 L 12 5.5 L 14.5 4 Z " /><path fill="rgb(236,224,113)" stroke="rgb(236,224,113)" stroke-width="1" opacity="1" d="M 22.5 10 L 23.5 12 Q 20.7 12.7 22.5 10 Z " /><path fill="rgb(236,224,113)" stroke="rgb(236,224,113)" stroke-width="1" opacity="1" d="M 10.5 15 L 11.5 17 L 10.5 15 Z " /><path fill="rgb(236,224,113)" stroke="rgb(236,224,113)" stroke-width="1" opacity="1" d="M 23.5 16 L 22.5 18 L 23.5 16 Z " /><path fill="rgb(236,224,113)" stroke="rgb(236,224,113)" stroke-width="1" opacity="1" d="M 12.5 18 L 13 20.5 L 11 19.5 L 12.5 18 Z " /><path fill="rgb(236,224,113)" stroke="rgb(236,224,113)" stroke-width="1" opacity="1" d="M 16.5 18 L 19 18.5 L 16.5 19 L 16.5 18 Z " /><path fill="rgb(236,224,113)" stroke="rgb(236,224,113)" stroke-width="1" opacity="1" d="M 13.5 22 L 14 24.5 L 13 24.5 L 13.5 22 Z " /><path fill="rgb(236,224,113)" stroke="rgb(236,224,113)" stroke-width="1" opacity="1" d="M 13.5 27 L 14.5 29 L 13.5 27 Z " /><path fill="rgb(236,224,113)" stroke="rgb(236,224,113)" stroke-width="1" opacity="1" d="M 12.5 41 L 19 41.5 L 12.5 42 L 12.5 41 Z " /><path fill="rgb(249,247,240)" stroke="rgb(249,247,240)" stroke-width="1" opacity="1" d="M 0 0 L 30 0 L 30 50 L 0 50 L 0 0 Z M 2 1 L 2 39 L 1 40 L 2 49 L 28 49 L 28 36 L 25 37 L 26 36 L 26 16 L 28 14 L 26 9 L 26 5 Q 20 7 22 2 L 28 2 L 2 1 Z " /><path fill="rgb(249,247,240)" stroke="rgb(249,247,240)" stroke-width="1" opacity="1" d="M 15.5 27 L 18 28.5 L 16.5 29 L 15.5 27 Z " /><path fill="rgb(222,175,69)" stroke="rgb(222,175,69)" stroke-width="1" opacity="1" d="M 7.5 9 L 10 9.5 L 7 11 L 7.5 9 Z " /><path fill="rgb(222,175,69)" stroke="rgb(222,175,69)" stroke-width="1" opacity="1" d="M 4.5 13 Q 7.6 14.4 7 19.5 L 6 19.5 L 4.5 13 Z " /><path fill="rgb(222,175,69)" stroke="rgb(222,175,69)" stroke-width="1" opacity="1" d="M 8.5 16 L 9 19.5 L 8 19.5 L 8.5 16 Z " /><path fill="rgb(222,175,69)" stroke="rgb(222,175,69)" stroke-width="1" opacity="1" d="M 21.5 19 L 22 21.5 L 21 21.5 L 21.5 19 Z " /><path fill="rgb(222,175,69)" stroke="rgb(222,175,69)" stroke-width="1" opacity="1" d="M 24.5 21 L 25 23.5 L 24 23.5 L 24.5 21 Z " /><path fill="rgb(222,175,69)" stroke="rgb(222,175,69)" stroke-width="1" opacity="1" d="M 17.5 23 L 19 25.5 L 17 24.5 L 17.5 23 Z " /><path fill="rgb(222,175,69)" stroke="rgb(222,175,69)" stroke-width="1" opacity="1" d="M 15.5 24 L 14.5 26 L 15.5 24 Z " /><path fill="rgb(222,175,69)" stroke="rgb(222,175,69)" stroke-width="1" opacity="1" d="M 24.5 41 L 25 44.5 L 24 44.5 L 24.5 41 Z " /><path fill="rgb(222,175,69)" stroke="rgb(222,175,69)" stroke-width="1" opacity="1" d="M 4.5 42 L 5 45.5 L 4 45.5 L 4.5 42 Z " /><path fill="rgb(222,175,69)" stroke="rgb(222,175,69)" stroke-width="1" opacity="1" d="M 22.5 42 L 23 45.5 L 22 45.5 L 22.5 42 Z " /><path fill="rgb(222,175,69)" stroke="rgb(222,175,69)" stroke-width="1" opacity="1" d="M 8.5 43 L 9.5 45 Q 6.7 45.7 8.5 43 Z " /><path fill="rgb(222,175,69)" stroke="rgb(222,175,69)" stroke-width="1" opacity="1" d="M 4.5 48 L 8 48.5 L 4.5 49 L 4.5 48 Z " /><path fill="rgb(138,108,42)" stroke="rgb(138,108,42)" stroke-width="1" opacity="1" d="M 6.5 24 L 7 28.5 L 6 28.5 L 6.5 24 Z " /><path fill="rgb(138,108,42)" stroke="rgb(138,108,42)" stroke-width="1" opacity="1" d="M 8.5 28 L 9.5 30 L 8.5 28 Z " /><path fill="rgb(138,108,42)" stroke="rgb(138,108,42)" stroke-width="1" opacity="1" d="M 5.5 42 L 7 44.5 L 6 44.5 L 5.5 42 Z " /><path fill="rgb(138,108,42)" stroke="rgb(138,108,42)" stroke-width="1" opacity="1" d="M 21.5 42 L 22 45.5 L 21 45.5 L 21.5 42 Z " /><path fill="rgb(138,108,42)" stroke="rgb(138,108,42)" stroke-width="1" opacity="1" d="M 13.5 48 L 18 48.5 L 13.5 49 L 13.5 48 Z " /><path fill="rgb(66,52,41)" stroke="rgb(66,52,41)" stroke-width="1" opacity="1" d="M 11.5 1 L 14 1.5 L 11.5 2 L 11.5 1 Z " /><path fill="rgb(66,52,41)" stroke="rgb(66,52,41)" stroke-width="1" opacity="1" d="M 22.5 1 L 27 1.5 L 22.5 2 L 22.5 1 Z " /><path fill="rgb(66,52,41)" stroke="rgb(66,52,41)" stroke-width="1" opacity="1" d="M 16.5 33 L 17.5 35 L 15.5 36 L 15 34.5 L 16.5 33 Z " /><path fill="rgb(66,52,41)" stroke="rgb(66,52,41)" stroke-width="1" opacity="1" d="M 27.5 37 L 27.5 40 Q 24.5 38.5 27.5 37 Z " /><path fill="rgb(66,52,41)" stroke="rgb(66,52,41)" stroke-width="1" opacity="1" d="M 22.5 39 L 23.5 41 L 21 40.5 L 22.5 39 Z " /><path fill="rgb(194,180,174)" stroke="rgb(194,180,174)" stroke-width="1" opacity="1" d="M 17.5 26 L 19 28.5 L 17 27.5 L 17.5 26 Z " /><path fill="rgb(194,180,174)" stroke="rgb(194,180,174)" stroke-width="1" opacity="1" d="M 22.5 29 L 24 31.5 L 23 33.5 L 23.5 37 Q 20.1 35.1 22.5 29 Z " /><path fill="rgb(194,180,174)" stroke="rgb(194,180,174)" stroke-width="1" opacity="1" d="M 8.5 30 L 9 37.5 L 7 38.5 Q 5.8 33.8 8 32.5 Q 5.8 31.3 8.5 30 Z " /><path fill="rgb(194,180,174)" stroke="rgb(194,180,174)" stroke-width="1" opacity="1" d="M 18.5 30 Q 21.9 29.1 20 34.5 L 19 34.5 L 18.5 31 L 17 31.5 L 18.5 30 Z " /><path fill="rgb(194,180,174)" stroke="rgb(194,180,174)" stroke-width="1" opacity="1" d="M 25.5 30 L 26 34.5 L 25 34.5 L 25.5 30 Z " /><path fill="rgb(194,180,174)" stroke="rgb(194,180,174)" stroke-width="1" opacity="1" d="M 10.5 31 L 12.5 31 L 14 31.5 L 12 32 L 11 34.5 L 12 37 Q 16.5 35.5 15 40 L 11.5 39 L 10 39.5 L 10.5 31 Z " /><path fill="rgb(194,180,174)" stroke="rgb(194,180,174)" stroke-width="1" opacity="1" d="M 4.5 35 L 5 37.5 L 2 39 L 1.5 41 L 1 39.5 L 4.5 35 Z " /><path fill="rgb(194,180,174)" stroke="rgb(194,180,174)" stroke-width="1" opacity="1" d="M 18.5 37 Q 20.8 36.3 20 38.5 L 18 39.5 L 18.5 37 Z " /><path fill="rgb(194,180,174)" stroke="rgb(194,180,174)" stroke-width="1" opacity="1" d="M 21.5 37 L 22.5 39 L 21.5 37 Z " /><path fill="rgb(194,180,174)" stroke="rgb(194,180,174)" stroke-width="1" opacity="1" d="M 25 37 L 28 38.5 Q 26.5 41.5 25 38.5 L 25 37 Z " /><path fill="rgb(220,115,59)" stroke="rgb(220,115,59)" stroke-width="1" opacity="1" d="M 24.5 16 L 25 20.5 L 24 20.5 L 24.5 16 Z " /><path fill="rgb(220,115,59)" stroke="rgb(220,115,59)" stroke-width="1" opacity="1" d="M 5.5 17 L 6 19.5 L 5 19.5 L 5.5 17 Z " /><path fill="rgb(220,115,59)" stroke="rgb(220,115,59)" stroke-width="1" opacity="1" d="M 20.5 18 L 21 23.5 L 20 23.5 L 20.5 18 Z " /><path fill="rgb(220,115,59)" stroke="rgb(220,115,59)" stroke-width="1" opacity="1" d="M 24.5 24 L 25 30.5 L 24 30.5 L 24.5 24 Z " /><path fill="rgb(220,115,59)" stroke="rgb(220,115,59)" stroke-width="1" opacity="1" d="M 5.5 26 L 6 28.5 L 5 28.5 L 5.5 26 Z " /><path fill="rgb(220,115,59)" stroke="rgb(220,115,59)" stroke-width="1" opacity="1" d="M 5.5 30 L 6 32.5 L 5 32.5 L 5.5 30 Z " /><path fill="rgb(220,115,59)" stroke="rgb(220,115,59)" stroke-width="1" opacity="1" d="M 9.5 39 L 10 41 L 8 40.5 L 9.5 39 Z " /><path fill="rgb(107,78,45)" stroke="rgb(107,78,45)" stroke-width="1" opacity="1" d="M 5.5 8 L 6.5 10 L 5.5 8 Z " /><path fill="rgb(107,78,45)" stroke="rgb(107,78,45)" stroke-width="1" opacity="1" d="M 23.5 10 L 25.5 13 Q 23.3 13.8 24 11.5 L 23.5 10 Z " /><path fill="rgb(107,78,45)" stroke="rgb(107,78,45)" stroke-width="1" opacity="1" d="M 16.5 13 L 20 14.5 L 18.5 14 Q 15.2 12.9 16 15.5 L 18 15.5 L 15 17.5 L 15 15.5 L 16.5 13 Z " /><path fill="rgb(107,78,45)" stroke="rgb(107,78,45)" stroke-width="1" opacity="1" d="M 11.5 14 L 14 14.5 Q 11.9 17.8 11.5 14 Z " /><path fill="rgb(107,78,45)" stroke="rgb(107,78,45)" stroke-width="1" opacity="1" d="M 12.5 29 L 11.5 31 L 12.5 29 Z " /><path fill="rgb(107,78,45)" stroke="rgb(107,78,45)" stroke-width="1" opacity="1" d="M 17.5 38 L 16.5 40 L 17.5 38 Z " /><path fill="rgb(140,124,120)" stroke="rgb(140,124,120)" stroke-width="1" opacity="1" d="M 13.5 30 Q 15.8 29.3 15 31.5 L 13.5 30 Z " /><path fill="rgb(140,124,120)" stroke="rgb(140,124,120)" stroke-width="1" opacity="1" d="M 11.5 31 L 15 33 L 14.5 35 L 12 34 L 11.5 31 Z " /><path fill="rgb(140,124,120)" stroke="rgb(140,124,120)" stroke-width="1" opacity="1" d="M 17.5 33 L 20 36.5 L 18 35.5 L 17.5 33 Z " /><path fill="rgb(140,124,120)" stroke="rgb(140,124,120)" stroke-width="1" opacity="1" d="M 21.5 35 L 22.5 37 Q 19.7 37.7 21.5 35 Z " /><path fill="rgb(140,124,120)" stroke="rgb(140,124,120)" stroke-width="1" opacity="1" d="M 15.5 37 L 16.5 40 L 19 38.5 L 18 41 L 11.5 40 L 10 40.5 L 13.5 38 L 13.5 40 Q 16.4 40.7 15.5 37 Z " /><path fill="rgb(92,86,85)" stroke="rgb(92,86,85)" stroke-width="1" opacity="1" d="M 14.5 32 L 15.5 34 L 14.5 32 Z " /><path fill="rgb(92,86,85)" stroke="rgb(92,86,85)" stroke-width="1" opacity="1" d="M 13 35 L 16 36.5 L 13 37 L 13 35 Z " /><path fill="rgb(92,86,85)" stroke="rgb(92,86,85)" stroke-width="1" opacity="1" d="M 27.5 35 L 26.5 37 L 27.5 35 Z " /><path fill="rgb(92,86,85)" stroke="rgb(92,86,85)" stroke-width="1" opacity="1" d="M 4.5 38 L 3.5 40 L 4.5 38 Z " /><path fill="rgb(191,145,68)" stroke="rgb(191,145,68)" stroke-width="1" opacity="1" d="M 6.5 15 L 5.5 17 L 6.5 15 Z " /><path fill="rgb(191,145,68)" stroke="rgb(191,145,68)" stroke-width="1" opacity="1" d="M 24.5 15 L 25.5 17 L 24.5 15 Z " /><path fill="rgb(191,145,68)" stroke="rgb(191,145,68)" stroke-width="1" opacity="1" d="M 21.5 22 L 22 26.5 L 21 26.5 L 21.5 22 Z " /><path fill="rgb(191,145,68)" stroke="rgb(191,145,68)" stroke-width="1" opacity="1" d="M 20.5 48 L 23 48.5 L 20.5 49 L 20.5 48 Z " /></svg>