<svg width="30" height="50" version="1.1" xmlns="http://www.w3.org/2000/svg" desc="Created with imagetracer.js version 1.2.6" ><path fill="rgb(213,79,58)" stroke="rgb(213,79,58)" stroke-width="1" opacity="1" d="M 11.5 25 L 14 26.5 L 12.5 27 L 11.5 25 Z " /><path fill="rgb(213,79,58)" stroke="rgb(213,79,58)" stroke-width="1" opacity="1" d="M 11.5 28 L 12.5 30 L 11 30.5 L 14 31.5 L 9.5 33 L 10 31.5 L 11.5 28 Z " /><path fill="rgb(213,79,58)" stroke="rgb(213,79,58)" stroke-width="1" opacity="1" d="M 5.5 32 L 6 33.5 L 4 34.5 L 5.5 32 Z " /><path fill="rgb(177,247,252)" stroke="rgb(177,247,252)" stroke-width="1" opacity="1" d="M 2 2 L 12.5 2 L 13 4 L 14.5 4 L 14.5 5 L 12 5.5 L 15 6.5 L 13 7.5 L 16 8 Q 17.6 12.9 12 11 L 11.5 9 L 11 13.5 L 12.5 13 L 14 13.5 L 12 14.5 Q 14.5 16 11 17.5 Q 11.7 20.1 9 19 L 8 12.5 L 8.5 11 Q 5.8 11.6 7 5.5 L 3.5 4 L 4 5.5 L 7 20.5 Q 5.8 23.3 4.5 21 L 2.5 22 L 2 13.5 L 2 11.5 L 2 2 Z " /><path fill="rgb(177,247,252)" stroke="rgb(177,247,252)" stroke-width="1" opacity="1" d="M 2.5 29 L 3 34.5 L 2 34.5 L 2.5 29 Z " /><path fill="rgb(177,247,252)" stroke="rgb(177,247,252)" stroke-width="1" opacity="1" d="M 6 32 Q 9.7 30.8 8 36 L 4.5 37 L 6 34.5 L 6 32 Z " /><path fill="rgb(191,248,252)" stroke="rgb(191,248,252)" stroke-width="1" opacity="1" d="M 13 2 L 22.5 2 L 23.5 3 L 28 2 L 27.5 13 L 24.5 6 L 23 6.5 L 24 10.5 L 23 12.5 L 24 15 L 21.5 16 L 22 12.5 L 23 7 Q 20.3 5.9 21 8.5 L 20 11 L 18 11.5 L 19 14.5 L 16.5 18 L 11.5 19 L 11 17.5 Q 15 15.5 11 13.5 L 11.5 9 L 12 11 Q 17.6 12.9 16 8 L 13 7.5 L 15 6.5 L 12 5.5 L 16 3.5 L 14.5 3 L 13 3.5 L 13 2 Z " /><path fill="rgb(191,248,252)" stroke="rgb(191,248,252)" stroke-width="1" opacity="1" d="M 27.5 14 L 28 21.5 L 27 21.5 L 27.5 14 Z " /><path fill="rgb(191,248,252)" stroke="rgb(191,248,252)" stroke-width="1" opacity="1" d="M 24.5 17 Q 22.9 18.8 26 20.5 L 24.5 22 Q 19.5 19.5 24.5 17 Z " /><path fill="rgb(191,248,252)" stroke="rgb(191,248,252)" stroke-width="1" opacity="1" d="M 21.5 26 L 22.5 28 L 20 27.5 L 21.5 26 Z " /><path fill="rgb(191,248,252)" stroke="rgb(191,248,252)" stroke-width="1" opacity="1" d="M 26.5 28 L 27 30.5 L 26 30.5 L 26.5 28 Z " /><path fill="rgb(191,248,252)" stroke="rgb(191,248,252)" stroke-width="1" opacity="1" d="M 26.5 32 L 28 35.5 L 27 35.5 L 26.5 32 Z " /><path fill="rgb(218,134,92)" stroke="rgb(218,134,92)" stroke-width="1" opacity="1" d="M 15.5 33 L 17 36.5 L 15.5 36 L 14 35.5 L 15.5 33 Z " /><path fill="rgb(218,134,92)" stroke="rgb(218,134,92)" stroke-width="1" opacity="1" d="M 4.5 38 L 6.5 39 L 8 38.5 Q 6.8 41.3 5.5 39 L 4.5 38 Z " /><path fill="rgb(184,221,222)" stroke="rgb(184,221,222)" stroke-width="1" opacity="1" d="M 3.5 4 L 5 6.5 L 4 6.5 L 3.5 4 Z " /><path fill="rgb(184,221,222)" stroke="rgb(184,221,222)" stroke-width="1" opacity="1" d="M 25.5 7 L 26 9.5 L 25 9.5 L 25.5 7 Z " /><path fill="rgb(184,221,222)" stroke="rgb(184,221,222)" stroke-width="1" opacity="1" d="M 4.5 8 L 6 9.5 L 7 17.5 L 6 17.5 L 4.5 8 Z " /><path fill="rgb(184,221,222)" stroke="rgb(184,221,222)" stroke-width="1" opacity="1" d="M 27.5 13 L 27 14.5 L 26.5 19 L 26 14.5 L 27.5 13 Z " /><path fill="rgb(184,221,222)" stroke="rgb(184,221,222)" stroke-width="1" opacity="1" d="M 24.5 25 Q 26.8 25.8 26 29.5 L 25 29.5 L 24.5 25 Z " /><path fill="rgb(184,221,222)" stroke="rgb(184,221,222)" stroke-width="1" opacity="1" d="M 1.5 28 L 3.5 29 L 5 28.5 L 3.5 31 L 3 29 L 1.5 28 Z " /><path fill="rgb(184,221,222)" stroke="rgb(184,221,222)" stroke-width="1" opacity="1" d="M 26.5 31 L 25.5 33 L 26.5 31 Z " /><path fill="rgb(184,221,222)" stroke="rgb(184,221,222)" stroke-width="1" opacity="1" d="M 3.5 32 L 4 34.5 L 1.5 39 L 1 37.5 L 3.5 32 Z " /><path fill="rgb(184,221,222)" stroke="rgb(184,221,222)" stroke-width="1" opacity="1" d="M 22.5 32 L 24 35.5 L 23 35.5 L 22.5 33 L 21 33.5 L 22.5 32 Z " /><path fill="rgb(145,85,63)" stroke="rgb(145,85,63)" stroke-width="1" opacity="1" d="M 5.5 6 L 6.5 8 L 5.5 6 Z " /><path fill="rgb(145,85,63)" stroke="rgb(145,85,63)" stroke-width="1" opacity="1" d="M 18.5 17 L 17.5 19 L 16 18.5 L 18.5 17 Z " /><path fill="rgb(145,85,63)" stroke="rgb(145,85,63)" stroke-width="1" opacity="1" d="M 20.5 19 L 21.5 21 Q 18.7 21.7 20.5 19 Z " /><path fill="rgb(145,85,63)" stroke="rgb(145,85,63)" stroke-width="1" opacity="1" d="M 10.5 20 L 13 20.5 Q 10.9 23.8 10.5 20 Z " /><path fill="rgb(145,85,63)" stroke="rgb(145,85,63)" stroke-width="1" opacity="1" d="M 10.5 29 L 9.5 31 L 10.5 29 Z " /><path fill="rgb(145,85,63)" stroke="rgb(145,85,63)" stroke-width="1" opacity="1" d="M 26 36 L 28 36.5 L 26 37.5 L 26 36 Z " /><path fill="rgb(145,85,63)" stroke="rgb(145,85,63)" stroke-width="1" opacity="1" d="M 18.5 37 Q 20.8 36.3 20 38.5 L 18.5 37 Z " /><path fill="rgb(145,85,63)" stroke="rgb(145,85,63)" stroke-width="1" opacity="1" d="M 11.5 38 L 16 38.5 L 11.5 39 L 11.5 38 Z " /><path fill="rgb(76,52,39)" stroke="rgb(76,52,39)" stroke-width="1" opacity="1" d="M 12.5 21 L 15.5 22 L 17 21.5 L 16 24.5 L 16 26.5 Q 16.8 29.1 13.5 28 L 13.5 27 L 15 26.5 L 13 25.5 L 15 24.5 L 13 24 L 12.5 21 Z " /><path fill="rgb(76,52,39)" stroke="rgb(76,52,39)" stroke-width="1" opacity="1" d="M 23 22 L 26 22.5 L 23 24.5 L 23 22 Z " /><path fill="rgb(76,52,39)" stroke="rgb(76,52,39)" stroke-width="1" opacity="1" d="M 20.5 24 Q 22.8 23.3 22 25.5 L 20.5 24 Z " /><path fill="rgb(76,52,39)" stroke="rgb(76,52,39)" stroke-width="1" opacity="1" d="M 27.5 26 L 28 28.5 L 27 28.5 L 27.5 26 Z " /><path fill="rgb(76,52,39)" stroke="rgb(76,52,39)" stroke-width="1" opacity="1" d="M 4.5 27 L 9 30.5 L 7.5 31 L 6.5 30 L 4 31.5 L 6 29.5 L 4.5 27 Z " /><path fill="rgb(76,52,39)" stroke="rgb(76,52,39)" stroke-width="1" opacity="1" d="M 25.5 37 L 26.5 39 L 25.5 37 Z " /><path fill="rgb(250,251,251)" stroke="rgb(250,251,251)" stroke-width="1" opacity="1" d="M 0 0 L 30 0 L 30 50 L 0 50 L 0 0 Z M 7 1 L 6 2 L 2 3 L 2 28 L 2 30 L 1 32 L 2 34 L 1 38 L 2 40 L 1 42 L 2 47 Q 0 48 3 49 L 28 49 L 28 2 L 9 2 L 7 1 Z " /><path fill="rgb(250,251,251)" stroke="rgb(250,251,251)" stroke-width="1" opacity="1" d="M 5.5 24 Q 7.8 23.3 7 25.5 L 5.5 24 Z " /><path fill="rgb(250,251,251)" stroke="rgb(250,251,251)" stroke-width="1" opacity="1" d="M 22.5 26 L 22.5 29 L 20.5 30 L 19 27.5 Q 20.8 29.1 22.5 26 Z " /><path fill="rgb(90,85,78)" stroke="rgb(90,85,78)" stroke-width="1" opacity="1" d="M 17.5 20 Q 19.8 19.3 19 21.5 L 17 22.5 L 17.5 20 Z " /><path fill="rgb(90,85,78)" stroke="rgb(90,85,78)" stroke-width="1" opacity="1" d="M 4.5 21 L 5.5 23 Q 2.7 23.7 4.5 21 Z " /><path fill="rgb(90,85,78)" stroke="rgb(90,85,78)" stroke-width="1" opacity="1" d="M 19.5 24 L 20.5 26 L 19.5 24 Z " /><path fill="rgb(90,85,78)" stroke="rgb(90,85,78)" stroke-width="1" opacity="1" d="M 3.5 28 L 8 31.5 L 5.5 32 L 4 30.5 L 3.5 28 Z " /><path fill="rgb(90,85,78)" stroke="rgb(90,85,78)" stroke-width="1" opacity="1" d="M 21.5 31 L 22 33 L 20 32.5 L 21.5 31 Z " /><path fill="rgb(90,85,78)" stroke="rgb(90,85,78)" stroke-width="1" opacity="1" d="M 2.5 48 L 6 48.5 L 2.5 49 L 2.5 48 Z " /><path fill="rgb(179,48,30)" stroke="rgb(179,48,30)" stroke-width="1" opacity="1" d="M 23.5 15 L 26 16.5 L 24.5 16 L 23.5 15 Z " /><path fill="rgb(179,48,30)" stroke="rgb(179,48,30)" stroke-width="1" opacity="1" d="M 12.5 23 L 14 24.5 Q 10.3 26.3 13.5 28 L 15 28.5 L 14 31 L 11 30.5 L 13 29.5 L 9 26.5 L 9.5 24 L 12.5 23 Z " /><path fill="rgb(165,179,177)" stroke="rgb(165,179,177)" stroke-width="1" opacity="1" d="M 4.5 7 Q 6.8 6.3 6 8.5 L 4.5 7 Z " /><path fill="rgb(165,179,177)" stroke="rgb(165,179,177)" stroke-width="1" opacity="1" d="M 18.5 18 L 19.5 20 L 18.5 18 Z " /><path fill="rgb(165,179,177)" stroke="rgb(165,179,177)" stroke-width="1" opacity="1" d="M 21.5 19 L 22.5 21 L 21.5 19 Z " /><path fill="rgb(165,179,177)" stroke="rgb(165,179,177)" stroke-width="1" opacity="1" d="M 19.5 21 L 19 22.5 L 18 26.5 L 18.5 28 L 17 24.5 L 19.5 21 Z " /><path fill="rgb(165,179,177)" stroke="rgb(165,179,177)" stroke-width="1" opacity="1" d="M 21.5 30 L 18.5 34 L 18 32 L 21.5 30 Z " /><path fill="rgb(165,179,177)" stroke="rgb(165,179,177)" stroke-width="1" opacity="1" d="M 12.5 32 L 13 33.5 L 11 34.5 L 12.5 32 Z " /><path fill="rgb(165,179,177)" stroke="rgb(165,179,177)" stroke-width="1" opacity="1" d="M 20.5 39 L 23 39.5 L 20.5 40 L 20.5 39 Z " /><path fill="rgb(165,179,177)" stroke="rgb(165,179,177)" stroke-width="1" opacity="1" d="M 14.5 48 L 17 48.5 L 14.5 49 L 14.5 48 Z " /><path fill="rgb(129,116,92)" stroke="rgb(129,116,92)" stroke-width="1" opacity="1" d="M 7.5 12 L 8 14.5 L 7 14.5 L 7.5 12 Z " /><path fill="rgb(129,116,92)" stroke="rgb(129,116,92)" stroke-width="1" opacity="1" d="M 12.5 19 L 14 21.5 L 13 21.5 L 12.5 19 Z " /><path fill="rgb(129,116,92)" stroke="rgb(129,116,92)" stroke-width="1" opacity="1" d="M 20.5 23 L 23 23.5 L 20.5 24 L 20.5 23 Z " /><path fill="rgb(129,116,92)" stroke="rgb(129,116,92)" stroke-width="1" opacity="1" d="M 16.5 27 L 18 27.5 L 15.5 29 L 16.5 27 Z " /><path fill="rgb(129,116,92)" stroke="rgb(129,116,92)" stroke-width="1" opacity="1" d="M 23.5 29 L 25.5 32 L 23 31 L 23.5 29 Z " /><path fill="rgb(129,116,92)" stroke="rgb(129,116,92)" stroke-width="1" opacity="1" d="M 6.5 36 L 11 38.5 L 9.5 38 Q 5.7 37.8 6.5 36 Z " /><path fill="rgb(129,116,92)" stroke="rgb(129,116,92)" stroke-width="1" opacity="1" d="M 14.5 42 L 17 42.5 L 14.5 43 L 14.5 42 Z " /><path fill="rgb(129,116,92)" stroke="rgb(129,116,92)" stroke-width="1" opacity="1" d="M 26.5 44 L 25.5 46 L 26.5 44 Z " /><path fill="rgb(129,116,92)" stroke="rgb(129,116,92)" stroke-width="1" opacity="1" d="M 8.5 48 L 13 48.5 L 8.5 49 L 8.5 48 Z " /><path fill="rgb(232,210,123)" stroke="rgb(232,210,123)" stroke-width="1" opacity="1" d="M 4.5 24 L 6 27 L 8 27.5 L 5.5 28 Q 3 27 4.5 24 Z " /><path fill="rgb(232,210,123)" stroke="rgb(232,210,123)" stroke-width="1" opacity="1" d="M 22.5 30 L 23.5 32 L 22.5 30 Z " /><path fill="rgb(232,210,123)" stroke="rgb(232,210,123)" stroke-width="1" opacity="1" d="M 18.5 34 L 19 35.5 L 17 36.5 L 18.5 34 Z " /><path fill="rgb(232,210,123)" stroke="rgb(232,210,123)" stroke-width="1" opacity="1" d="M 11.5 39 L 11.5 41 L 14 41.5 L 11 42.5 L 20.5 44 L 20.5 43 L 17 41.5 L 21.5 41 L 25.5 42 L 27.5 41 L 27.5 42 Q 25.3 41.3 26 43.5 L 25 46 Q 29.1 44.7 28 48 L 15.5 48 L 13.5 47 L 12.5 48 L 2 48 L 3.5 44 L 7 42.5 L 3 40.5 L 7.5 40 L 9.5 41 L 11.5 39 Z " /><path fill="rgb(193,171,121)" stroke="rgb(193,171,121)" stroke-width="1" opacity="1" d="M 6.5 28 L 7.5 30 L 6.5 28 Z " /><path fill="rgb(193,171,121)" stroke="rgb(193,171,121)" stroke-width="1" opacity="1" d="M 16.5 28 L 19 28.5 L 16 30.5 L 16.5 28 Z " /><path fill="rgb(193,171,121)" stroke="rgb(193,171,121)" stroke-width="1" opacity="1" d="M 14.5 32 L 17 32.5 L 14.5 33 L 14.5 32 Z " /><path fill="rgb(193,171,121)" stroke="rgb(193,171,121)" stroke-width="1" opacity="1" d="M 20.5 36 L 23 36.5 L 22 37.5 L 23.5 40 L 20 38 L 20.5 36 Z " /><path fill="rgb(193,171,121)" stroke="rgb(193,171,121)" stroke-width="1" opacity="1" d="M 16 37 L 18 37 Q 16.9 39.7 19.5 39 L 18.5 41 L 18 39 L 16 39.5 L 16.5 41 L 14 40.5 L 16 37 Z " /><path fill="rgb(193,171,121)" stroke="rgb(193,171,121)" stroke-width="1" opacity="1" d="M 3.5 38 L 4.5 40 Q 1.7 40.7 3.5 38 Z " /><path fill="rgb(193,171,121)" stroke="rgb(193,171,121)" stroke-width="1" opacity="1" d="M 9.5 39 L 11 39.5 L 8.5 41 L 9.5 39 Z " /><path fill="rgb(193,171,121)" stroke="rgb(193,171,121)" stroke-width="1" opacity="1" d="M 2.5 41 L 6 43.5 L 2.5 45 L 2 43 L 4 42.5 L 2.5 41 Z " /><path fill="rgb(193,171,121)" stroke="rgb(193,171,121)" stroke-width="1" opacity="1" d="M 25.5 41 L 26.5 43 L 25.5 41 Z " /><path fill="rgb(157,143,119)" stroke="rgb(157,143,119)" stroke-width="1" opacity="1" d="M 19.5 14 L 18.5 16 L 19.5 14 Z " /><path fill="rgb(157,143,119)" stroke="rgb(157,143,119)" stroke-width="1" opacity="1" d="M 24.5 18 L 25.5 20 L 24.5 18 Z " /><path fill="rgb(157,143,119)" stroke="rgb(157,143,119)" stroke-width="1" opacity="1" d="M 24.5 29 L 25.5 31 L 24.5 29 Z " /><path fill="rgb(157,143,119)" stroke="rgb(157,143,119)" stroke-width="1" opacity="1" d="M 16.5 39 Q 18.8 38.3 18 40.5 L 16.5 39 Z " /><path fill="rgb(157,143,119)" stroke="rgb(157,143,119)" stroke-width="1" opacity="1" d="M 26.5 39 L 27.5 41 L 26.5 39 Z " /><path fill="rgb(157,143,119)" stroke="rgb(157,143,119)" stroke-width="1" opacity="1" d="M 17.5 48 L 20 48.5 L 17.5 49 L 17.5 48 Z " /><path fill="rgb(211,209,186)" stroke="rgb(211,209,186)" stroke-width="1" opacity="1" d="M 19.5 12 L 20.5 14 L 19.5 12 Z " /><path fill="rgb(211,209,186)" stroke="rgb(211,209,186)" stroke-width="1" opacity="1" d="M 21.5 17 L 22.5 19 L 20 18.5 L 21.5 17 Z " /><path fill="rgb(211,209,186)" stroke="rgb(211,209,186)" stroke-width="1" opacity="1" d="M 15.5 19 L 15 20.5 L 14.5 22 L 14 20.5 L 15.5 19 Z " /><path fill="rgb(211,209,186)" stroke="rgb(211,209,186)" stroke-width="1" opacity="1" d="M 7.5 21 L 8 22.5 L 6 23.5 L 7.5 21 Z " /><path fill="rgb(211,209,186)" stroke="rgb(211,209,186)" stroke-width="1" opacity="1" d="M 12.5 39 L 11.5 41 L 12.5 39 Z " /><path fill="rgb(211,209,186)" stroke="rgb(211,209,186)" stroke-width="1" opacity="1" d="M 24.5 40 L 27 40.5 L 24.5 41 L 24.5 40 Z " /></svg>