<svg width="30" height="50" version="1.1" xmlns="http://www.w3.org/2000/svg" desc="Created with imagetracer.js version 1.2.6" ><path fill="rgb(146,193,201)" stroke="rgb(146,193,201)" stroke-width="1" opacity="1" d="M 18.5 3 L 21 4.5 L 19.5 4 L 18.5 3 Z " /><path fill="rgb(146,193,201)" stroke="rgb(146,193,201)" stroke-width="1" opacity="1" d="M 6.5 9 L 7 15.5 L 6 15.5 L 5 12.5 L 6.5 9 Z " /><path fill="rgb(146,193,201)" stroke="rgb(146,193,201)" stroke-width="1" opacity="1" d="M 25.5 11 L 26.5 16 L 28 15.5 L 25.5 20 L 25 17.5 L 25 15.5 L 25.5 11 Z " /><path fill="rgb(146,193,201)" stroke="rgb(146,193,201)" stroke-width="1" opacity="1" d="M 3.5 12 L 4 18.5 L 3 18.5 L 3.5 12 Z " /><path fill="rgb(146,193,201)" stroke="rgb(146,193,201)" stroke-width="1" opacity="1" d="M 19.5 15 L 20 18.5 L 19 18.5 L 19.5 15 Z " /><path fill="rgb(146,193,201)" stroke="rgb(146,193,201)" stroke-width="1" opacity="1" d="M 22.5 17 L 24 20.5 L 22 19.5 L 22.5 17 Z " /><path fill="rgb(146,193,201)" stroke="rgb(146,193,201)" stroke-width="1" opacity="1" d="M 26.5 21 L 27 23.5 L 26 23.5 L 26.5 21 Z " /><path fill="rgb(146,193,201)" stroke="rgb(146,193,201)" stroke-width="1" opacity="1" d="M 5.5 22 L 6 24.5 L 5 24.5 L 5.5 22 Z " /><path fill="rgb(251,252,251)" stroke="rgb(251,252,251)" stroke-width="1" opacity="1" d="M 0 0 L 30 0 L 30 50 L 0 50 L 0 0 Z M 2 2 L 2 48 L 5 49 L 9 48 L 11 49 L 14 48 L 28 48 L 28 2 L 2 2 Z " /><path fill="rgb(104,99,79)" stroke="rgb(104,99,79)" stroke-width="1" opacity="1" d="M 4.5 9 L 6 11.5 L 4 10.5 L 4.5 9 Z " /><path fill="rgb(104,99,79)" stroke="rgb(104,99,79)" stroke-width="1" opacity="1" d="M 9.5 17 L 8.5 19 L 9.5 17 Z " /><path fill="rgb(104,99,79)" stroke="rgb(104,99,79)" stroke-width="1" opacity="1" d="M 20.5 18 Q 23.1 17.2 22 20.5 L 21 20.5 L 20.5 18 Z " /><path fill="rgb(104,99,79)" stroke="rgb(104,99,79)" stroke-width="1" opacity="1" d="M 4.5 21 L 5 23.5 L 4 23.5 L 4.5 21 Z " /><path fill="rgb(104,99,79)" stroke="rgb(104,99,79)" stroke-width="1" opacity="1" d="M 25.5 21 L 25 22.5 L 26 24.5 L 23 26.5 Q 26.5 25 24 23.5 L 25.5 21 Z " /><path fill="rgb(104,99,79)" stroke="rgb(104,99,79)" stroke-width="1" opacity="1" d="M 20.5 24 L 19.5 26 L 20.5 24 Z " /><path fill="rgb(104,99,79)" stroke="rgb(104,99,79)" stroke-width="1" opacity="1" d="M 6.5 25 L 7.5 27 L 6.5 25 Z " /><path fill="rgb(104,99,79)" stroke="rgb(104,99,79)" stroke-width="1" opacity="1" d="M 26.5 30 L 28 30.5 L 24.5 32 L 24.5 31 L 26.5 30 Z " /><path fill="rgb(104,99,79)" stroke="rgb(104,99,79)" stroke-width="1" opacity="1" d="M 18.5 43 L 21 44.5 L 19 45.5 L 18.5 43 Z " /><path fill="rgb(104,99,79)" stroke="rgb(104,99,79)" stroke-width="1" opacity="1" d="M 25.5 44 L 24.5 46 L 23 45.5 L 25.5 44 Z " /><path fill="rgb(152,224,238)" stroke="rgb(152,224,238)" stroke-width="1" opacity="1" d="M 2 2 L 26.5 2 L 27 3.5 L 28 4.5 L 28 14.5 L 28 16.5 L 27.5 24 L 26 17.5 L 26 15.5 Q 27.7 9.7 24 11 L 23 15.5 L 24 19.5 L 23 19.5 L 21 12.5 L 22 8 L 24 7.5 L 20 7 L 21 4.5 L 18 3 L 15 11.5 L 17 15.5 L 16 15.5 L 14.5 12 Q 12.3 11.3 13 13.5 L 14 16.5 L 13 16.5 Q 13.9 13.5 9.5 15 L 8 15.5 Q 9.5 7.9 6 9 L 5.5 11 L 4.5 9 Q 2.1 12.1 3 18.5 L 4 24 L 2 23.5 L 2 2 Z M 13 3 L 13 5 L 17 5 L 13 3 Z " /><path fill="rgb(152,224,238)" stroke="rgb(152,224,238)" stroke-width="1" opacity="1" d="M 5.5 13 L 6 18.5 L 5 18.5 L 5.5 13 Z " /><path fill="rgb(152,224,238)" stroke="rgb(152,224,238)" stroke-width="1" opacity="1" d="M 13 18 Q 16.3 16.7 15 21.5 L 16 24.5 L 15 24.5 L 12 20.5 L 13 18 Z " /><path fill="rgb(152,224,238)" stroke="rgb(152,224,238)" stroke-width="1" opacity="1" d="M 19 19 Q 22.7 17.6 21 23.5 L 19 24.5 L 19 19 Z " /><path fill="rgb(152,224,238)" stroke="rgb(152,224,238)" stroke-width="1" opacity="1" d="M 23.5 21 L 24 23.5 L 23 23.5 L 23.5 21 Z " /><path fill="rgb(196,151,112)" stroke="rgb(196,151,112)" stroke-width="1" opacity="1" d="M 14 14 Q 17 13 16 16 Q 13 17 14 14 Z " /><path fill="rgb(215,214,213)" stroke="rgb(215,214,213)" stroke-width="1" opacity="1" d="M 23.5 24 L 24 25.5 L 23 32 L 20 30.5 Q 20.3 25.8 23.5 24 Z " /><path fill="rgb(215,214,213)" stroke="rgb(215,214,213)" stroke-width="1" opacity="1" d="M 25 27 Q 28 25.8 27 29.5 L 25 30.5 L 25 27 Z " /><path fill="rgb(215,214,213)" stroke="rgb(215,214,213)" stroke-width="1" opacity="1" d="M 10.5 48 L 13 48.5 L 10.5 49 L 10.5 48 Z " /><path fill="rgb(134,156,158)" stroke="rgb(134,156,158)" stroke-width="1" opacity="1" d="M 21.5 9 L 22 11.5 L 21.5 14 L 20 13.5 L 19.5 15 L 19 13.5 L 21.5 9 Z " /><path fill="rgb(134,156,158)" stroke="rgb(134,156,158)" stroke-width="1" opacity="1" d="M 13 12 L 15 12.5 L 13 13.5 L 13 12 Z " /><path fill="rgb(134,156,158)" stroke="rgb(134,156,158)" stroke-width="1" opacity="1" d="M 16.5 12 L 19 18 L 16 17.5 L 17 13.5 L 16.5 12 Z " /><path fill="rgb(134,156,158)" stroke="rgb(134,156,158)" stroke-width="1" opacity="1" d="M 6.5 16 L 8 18.5 L 6 19 L 6.5 16 Z " /><path fill="rgb(134,156,158)" stroke="rgb(134,156,158)" stroke-width="1" opacity="1" d="M 8.5 24 L 9 27.5 L 8 27.5 L 8.5 24 Z " /><path fill="rgb(134,156,158)" stroke="rgb(134,156,158)" stroke-width="1" opacity="1" d="M 26.5 32 L 25.5 34 L 26.5 32 Z " /><path fill="rgb(144,125,119)" stroke="rgb(144,125,119)" stroke-width="1" opacity="1" d="M 19.5 4 L 18.5 6 L 19.5 4 Z " /><path fill="rgb(144,125,119)" stroke="rgb(144,125,119)" stroke-width="1" opacity="1" d="M 16.5 8 L 17.5 10 L 16 9.5 L 15.5 11 L 15 9.5 L 16.5 8 Z " /><path fill="rgb(144,125,119)" stroke="rgb(144,125,119)" stroke-width="1" opacity="1" d="M 15.5 16 L 15.5 19 Q 12.5 17.5 15.5 16 Z " /><path fill="rgb(144,125,119)" stroke="rgb(144,125,119)" stroke-width="1" opacity="1" d="M 17.5 20 L 18 21.5 L 16 22.5 L 17.5 20 Z " /><path fill="rgb(144,125,119)" stroke="rgb(144,125,119)" stroke-width="1" opacity="1" d="M 21.5 34 L 22.5 36 L 21.5 34 Z " /><path fill="rgb(170,46,40)" stroke="rgb(170,46,40)" stroke-width="1" opacity="1" d="M 10.5 20 L 16 26.5 L 13 26.5 Q 13.8 23.9 10.5 25 L 9 21.5 L 10.5 20 Z " /><path fill="rgb(170,46,40)" stroke="rgb(170,46,40)" stroke-width="1" opacity="1" d="M 20.5 25 L 19.5 27 L 20.5 25 Z " /><path fill="rgb(170,46,40)" stroke="rgb(170,46,40)" stroke-width="1" opacity="1" d="M 10.5 28 L 13 34.5 L 8 37.5 Q 8.8 40.1 5.5 39 Q 4.3 41.3 3 38.5 L 4 34 L 8 33 Q 6.9 30.3 9.5 31 L 10.5 28 Z " /><path fill="rgb(170,46,40)" stroke="rgb(170,46,40)" stroke-width="1" opacity="1" d="M 14.5 28 L 17 29.5 L 15 30 L 14.5 32 L 14.5 28 Z " /><path fill="rgb(170,46,40)" stroke="rgb(170,46,40)" stroke-width="1" opacity="1" d="M 2 30 L 5 30.5 L 2.5 32 L 2 30 Z " /><path fill="rgb(170,46,40)" stroke="rgb(170,46,40)" stroke-width="1" opacity="1" d="M 16.5 36 L 17 40.5 L 16 40.5 L 16.5 36 Z " /><path fill="rgb(170,46,40)" stroke="rgb(170,46,40)" stroke-width="1" opacity="1" d="M 17.5 42 L 18 44.5 L 16 43.5 L 17.5 42 Z " /><path fill="rgb(215,115,63)" stroke="rgb(215,115,63)" stroke-width="1" opacity="1" d="M 20.5 14 L 21 16.5 L 20 16.5 L 20.5 14 Z " /><path fill="rgb(215,115,63)" stroke="rgb(215,115,63)" stroke-width="1" opacity="1" d="M 11.5 18 L 10.5 20 L 11.5 18 Z " /><path fill="rgb(215,115,63)" stroke="rgb(215,115,63)" stroke-width="1" opacity="1" d="M 6.5 22 L 8 25.5 L 7 25.5 L 6.5 22 Z " /><path fill="rgb(215,115,63)" stroke="rgb(215,115,63)" stroke-width="1" opacity="1" d="M 14.5 26 L 15.5 28 L 12 27.5 L 14.5 26 Z " /><path fill="rgb(215,115,63)" stroke="rgb(215,115,63)" stroke-width="1" opacity="1" d="M 12 29 Q 14.7 27.9 14 30.5 L 12 31.5 L 12 29 Z " /><path fill="rgb(215,115,63)" stroke="rgb(215,115,63)" stroke-width="1" opacity="1" d="M 13 34 L 17 35.5 L 15.5 39 L 13 34 Z " /><path fill="rgb(215,115,63)" stroke="rgb(215,115,63)" stroke-width="1" opacity="1" d="M 20.5 35 L 21.5 37 L 20.5 35 Z " /><path fill="rgb(78,44,27)" stroke="rgb(78,44,27)" stroke-width="1" opacity="1" d="M 18.5 7 Q 20.8 6.3 20 8.5 L 20.5 10 L 17.5 9 L 16 9.5 L 18.5 7 Z " /><path fill="rgb(78,44,27)" stroke="rgb(78,44,27)" stroke-width="1" opacity="1" d="M 4.5 11 L 5 18.5 L 4 18.5 L 4.5 11 Z " /><path fill="rgb(78,44,27)" stroke="rgb(78,44,27)" stroke-width="1" opacity="1" d="M 17.5 11 L 21 11.5 L 18.5 15 L 17.5 11 Z " /><path fill="rgb(78,44,27)" stroke="rgb(78,44,27)" stroke-width="1" opacity="1" d="M 24.5 12 L 25 14.5 L 24 14.5 L 24.5 12 Z " /><path fill="rgb(78,44,27)" stroke="rgb(78,44,27)" stroke-width="1" opacity="1" d="M 11.5 15 L 12 17.5 L 9.5 19 L 7 17.5 L 11.5 15 Z " /><path fill="rgb(78,44,27)" stroke="rgb(78,44,27)" stroke-width="1" opacity="1" d="M 9.5 24 L 13 25.5 L 11 26.5 L 14 28.5 L 11.5 29 Q 10.3 26.8 9 29.5 L 9.5 31 Q 6.9 30.3 8 33 L 6 33 L 4.5 30 L 2 29.5 L 3.5 27 L 4.5 29 L 5.5 25 L 6.5 28 L 9 28 L 9.5 24 Z M 6 29 Q 5 32 8 31 Q 9 28 6 29 Z " /><path fill="rgb(78,44,27)" stroke="rgb(78,44,27)" stroke-width="1" opacity="1" d="M 16.5 26 L 20 27.5 Q 16.5 29.2 18 35 L 16 34.5 L 16.5 33 L 15 32.5 L 17 31.5 L 15 30.5 L 17 29.5 L 16.5 28 L 18 27.5 L 16.5 26 Z " /><path fill="rgb(78,44,27)" stroke="rgb(78,44,27)" stroke-width="1" opacity="1" d="M 24.5 26 L 23.5 28 L 24.5 26 Z " /><path fill="rgb(78,44,27)" stroke="rgb(78,44,27)" stroke-width="1" opacity="1" d="M 26.5 26 Q 28.8 25.3 28 27.5 L 26.5 26 Z " /><path fill="rgb(78,44,27)" stroke="rgb(78,44,27)" stroke-width="1" opacity="1" d="M 23.5 30 L 25 32.5 L 22 34.5 L 23.5 30 Z " /><path fill="rgb(78,44,27)" stroke="rgb(78,44,27)" stroke-width="1" opacity="1" d="M 25 34 Q 28.3 32.9 27 37 Q 23.7 38.1 25 34 Z " /><path fill="rgb(78,44,27)" stroke="rgb(78,44,27)" stroke-width="1" opacity="1" d="M 10.5 35 L 11 37 L 9 36.5 L 10.5 35 Z " /><path fill="rgb(78,44,27)" stroke="rgb(78,44,27)" stroke-width="1" opacity="1" d="M 4.5 38 L 3.5 40 L 4.5 38 Z " /><path fill="rgb(78,44,27)" stroke="rgb(78,44,27)" stroke-width="1" opacity="1" d="M 15.5 39 L 16 41.5 L 15 41.5 L 15.5 39 Z " /><path fill="rgb(186,174,166)" stroke="rgb(186,174,166)" stroke-width="1" opacity="1" d="M 21.5 14 L 22 16.5 L 21 16.5 L 21.5 14 Z " /><path fill="rgb(186,174,166)" stroke="rgb(186,174,166)" stroke-width="1" opacity="1" d="M 18.5 18 L 19 20 L 15.5 21 L 15.5 20 L 18.5 18 Z " /><path fill="rgb(186,174,166)" stroke="rgb(186,174,166)" stroke-width="1" opacity="1" d="M 18.5 21 L 19 23.5 L 18 23.5 L 18.5 21 Z " /><path fill="rgb(186,174,166)" stroke="rgb(186,174,166)" stroke-width="1" opacity="1" d="M 21.5 25 L 21 26.5 L 20.5 28 L 20 26.5 L 21.5 25 Z " /><path fill="rgb(186,174,166)" stroke="rgb(186,174,166)" stroke-width="1" opacity="1" d="M 19.5 33 L 20.5 35 L 19.5 33 Z " /><path fill="rgb(223,222,78)" stroke="rgb(223,222,78)" stroke-width="1" opacity="1" d="M 3.5 31 L 4 33.5 L 2 34.5 L 3.5 31 Z " /><path fill="rgb(223,222,78)" stroke="rgb(223,222,78)" stroke-width="1" opacity="1" d="M 9.5 37 L 11 37 L 11 41 L 12.5 41 L 14 40.5 L 16 47 Q 20.3 48 21.5 45 L 22 46.5 Q 21 49 16.5 48 L 14.5 48 L 7 47.5 L 10 46.5 L 8.5 44 L 11 45 L 9.5 41 L 7 41.5 L 7.5 43 L 6 43.5 L 6.5 45 L 3.5 47 L 2 47.5 L 3.5 45 Q 0.1 45.9 2 40.5 L 3.5 41 Q 6.1 41.7 5 39 L 7.5 39 L 9.5 37 Z M 14 43 L 12 45 Q 11 47 14 46 L 14 43 Z " /><path fill="rgb(223,222,78)" stroke="rgb(223,222,78)" stroke-width="1" opacity="1" d="M 19.5 37 Q 25.8 34.8 24 40.5 L 23.5 42 L 25 42.5 L 21.5 44 L 19 42.5 L 18 38.5 L 19.5 37 Z " /><path fill="rgb(223,222,78)" stroke="rgb(223,222,78)" stroke-width="1" opacity="1" d="M 27.5 45 L 28 47.5 L 27 47.5 L 27.5 45 Z " /><path fill="rgb(206,191,77)" stroke="rgb(206,191,77)" stroke-width="1" opacity="1" d="M 4.5 31 L 5.5 33 L 4.5 31 Z " /><path fill="rgb(206,191,77)" stroke="rgb(206,191,77)" stroke-width="1" opacity="1" d="M 20.5 32 L 23 32.5 Q 20.9 35.8 20.5 32 Z " /><path fill="rgb(206,191,77)" stroke="rgb(206,191,77)" stroke-width="1" opacity="1" d="M 13.5 36 L 12.5 38 L 13.5 36 Z " /><path fill="rgb(206,191,77)" stroke="rgb(206,191,77)" stroke-width="1" opacity="1" d="M 2.5 38 L 4 40.5 L 2 39.5 L 2.5 38 Z " /><path fill="rgb(206,191,77)" stroke="rgb(206,191,77)" stroke-width="1" opacity="1" d="M 24.5 38 Q 26.8 37.3 26 39.5 L 24.5 38 Z " /><path fill="rgb(206,191,77)" stroke="rgb(206,191,77)" stroke-width="1" opacity="1" d="M 11.5 39 L 12.5 41 L 11.5 39 Z " /><path fill="rgb(206,191,77)" stroke="rgb(206,191,77)" stroke-width="1" opacity="1" d="M 17.5 39 L 19 41.5 L 17 40.5 L 17.5 39 Z " /><path fill="rgb(206,191,77)" stroke="rgb(206,191,77)" stroke-width="1" opacity="1" d="M 7.5 41 L 10 42.5 L 8.5 43 L 7.5 41 Z " /><path fill="rgb(206,191,77)" stroke="rgb(206,191,77)" stroke-width="1" opacity="1" d="M 25.5 42 L 27 44.5 L 24 44.5 L 25.5 42 Z " /><path fill="rgb(206,191,77)" stroke="rgb(206,191,77)" stroke-width="1" opacity="1" d="M 21.5 44 L 20.5 46 L 21.5 44 Z " /><path fill="rgb(206,191,77)" stroke="rgb(206,191,77)" stroke-width="1" opacity="1" d="M 2.5 46 L 3.5 48 L 2.5 46 Z " /><path fill="rgb(215,214,77)" stroke="rgb(215,214,77)" stroke-width="1" opacity="1" d="M 4.5 32 L 5 33.5 L 2.5 38 L 2 35.5 L 4.5 32 Z " /><path fill="rgb(215,214,77)" stroke="rgb(215,214,77)" stroke-width="1" opacity="1" d="M 12.5 36 L 11.5 38 L 12.5 36 Z " /><path fill="rgb(215,214,77)" stroke="rgb(215,214,77)" stroke-width="1" opacity="1" d="M 24.5 37 L 27 38.5 L 25.5 38 L 24.5 37 Z " /><path fill="rgb(215,214,77)" stroke="rgb(215,214,77)" stroke-width="1" opacity="1" d="M 19.5 38 L 20 39.5 L 18 40.5 L 19.5 38 Z " /><path fill="rgb(215,214,77)" stroke="rgb(215,214,77)" stroke-width="1" opacity="1" d="M 25.5 40 L 28 41.5 L 25.5 42 L 23 41.5 L 25.5 40 Z " /><path fill="rgb(215,214,77)" stroke="rgb(215,214,77)" stroke-width="1" opacity="1" d="M 9.5 41 L 10.5 43 L 9.5 41 Z " /><path fill="rgb(215,214,77)" stroke="rgb(215,214,77)" stroke-width="1" opacity="1" d="M 21.5 42 L 23 44.5 L 22 44.5 L 21.5 42 Z " /><path fill="rgb(215,214,77)" stroke="rgb(215,214,77)" stroke-width="1" opacity="1" d="M 26.5 43 Q 28.8 42.3 28 44.5 L 26.5 47 L 26 45.5 L 26.5 43 Z " /><path fill="rgb(215,214,77)" stroke="rgb(215,214,77)" stroke-width="1" opacity="1" d="M 22.5 46 L 23 48 L 21 47.5 L 22.5 46 Z " /><path fill="rgb(159,148,54)" stroke="rgb(159,148,54)" stroke-width="1" opacity="1" d="M 13.5 31 L 15 33.5 L 14 33.5 L 13.5 32 L 12.5 34 L 12 32.5 L 13.5 31 Z " /><path fill="rgb(159,148,54)" stroke="rgb(159,148,54)" stroke-width="1" opacity="1" d="M 11 35 L 13 35.5 L 11 36.5 L 11 35 Z " /><path fill="rgb(159,148,54)" stroke="rgb(159,148,54)" stroke-width="1" opacity="1" d="M 18.5 35 L 19 37.5 L 17 38.5 L 18.5 35 Z " /><path fill="rgb(159,148,54)" stroke="rgb(159,148,54)" stroke-width="1" opacity="1" d="M 11.5 38 Q 13.8 37.3 13 39.5 L 11.5 38 Z " /><path fill="rgb(159,148,54)" stroke="rgb(159,148,54)" stroke-width="1" opacity="1" d="M 18.5 42 L 19.5 44 L 18.5 42 Z " /><path fill="rgb(159,148,54)" stroke="rgb(159,148,54)" stroke-width="1" opacity="1" d="M 9.5 43 Q 11.8 42.3 11 44.5 L 9.5 43 Z " /><path fill="rgb(159,148,54)" stroke="rgb(159,148,54)" stroke-width="1" opacity="1" d="M 23.5 44 L 22.5 46 L 23.5 44 Z " /><path fill="rgb(159,148,54)" stroke="rgb(159,148,54)" stroke-width="1" opacity="1" d="M 7 45 L 10 46.5 L 7 46.5 L 7 45 Z " /><path fill="rgb(159,148,54)" stroke="rgb(159,148,54)" stroke-width="1" opacity="1" d="M 18.5 45 L 19.5 47 L 18.5 45 Z " /><path fill="rgb(159,148,54)" stroke="rgb(159,148,54)" stroke-width="1" opacity="1" d="M 25.5 45 L 26 47 L 24 46.5 L 25.5 45 Z " /></svg>