<svg width="30" height="50" version="1.1" xmlns="http://www.w3.org/2000/svg" desc="Created with imagetracer.js version 1.2.6" ><path fill="rgb(98,94,93)" stroke="rgb(98,94,93)" stroke-width="1" opacity="1" d="M 12.5 1 L 15 1.5 L 12.5 2 L 12.5 1 Z " /><path fill="rgb(98,94,93)" stroke="rgb(98,94,93)" stroke-width="1" opacity="1" d="M 18.5 6 L 19.5 8 Q 16.7 8.7 18.5 6 Z " /><path fill="rgb(98,94,93)" stroke="rgb(98,94,93)" stroke-width="1" opacity="1" d="M 13.5 12 L 12.5 14 L 13.5 12 Z " /><path fill="rgb(98,94,93)" stroke="rgb(98,94,93)" stroke-width="1" opacity="1" d="M 10 20 L 12 20.5 L 10 21.5 L 10 20 Z " /><path fill="rgb(98,94,93)" stroke="rgb(98,94,93)" stroke-width="1" opacity="1" d="M 14.5 20 L 17 20.5 Q 17.8 22.8 15.5 22 L 14.5 20 Z " /><path fill="rgb(98,94,93)" stroke="rgb(98,94,93)" stroke-width="1" opacity="1" d="M 19.5 31 L 20 33.5 L 19 33.5 L 19.5 31 Z " /><path fill="rgb(98,94,93)" stroke="rgb(98,94,93)" stroke-width="1" opacity="1" d="M 9.5 32 L 8.5 34 L 9.5 32 Z " /><path fill="rgb(98,94,93)" stroke="rgb(98,94,93)" stroke-width="1" opacity="1" d="M 19.5 36 L 20.5 38 L 19.5 36 Z " /><path fill="rgb(98,94,93)" stroke="rgb(98,94,93)" stroke-width="1" opacity="1" d="M 18.5 43 L 19 45 L 17 44.5 L 18.5 43 Z " /><path fill="rgb(98,94,93)" stroke="rgb(98,94,93)" stroke-width="1" opacity="1" d="M 16 46 Q 20.1 44.7 19 48 L 22.5 48 L 22.5 49 L 15 48.5 L 16 46 Z " /><path fill="rgb(98,94,93)" stroke="rgb(98,94,93)" stroke-width="1" opacity="1" d="M 4.5 48 L 7 48.5 L 4.5 49 L 4.5 48 Z " /><path fill="rgb(98,94,93)" stroke="rgb(98,94,93)" stroke-width="1" opacity="1" d="M 9.5 48 L 12 48.5 L 9.5 49 L 9.5 48 Z " /><path fill="rgb(55,40,31)" stroke="rgb(55,40,31)" stroke-width="1" opacity="1" d="M 12.5 7 L 16 8.5 L 12 9 L 12.5 7 Z " /><path fill="rgb(55,40,31)" stroke="rgb(55,40,31)" stroke-width="1" opacity="1" d="M 16.5 14 L 20 15.5 L 18.5 17 L 16.5 14 Z " /><path fill="rgb(55,40,31)" stroke="rgb(55,40,31)" stroke-width="1" opacity="1" d="M 11.5 15 L 12 16.5 L 10 17.5 L 11.5 15 Z " /><path fill="rgb(55,40,31)" stroke="rgb(55,40,31)" stroke-width="1" opacity="1" d="M 17.5 18 L 16.5 20 L 17.5 18 Z " /><path fill="rgb(55,40,31)" stroke="rgb(55,40,31)" stroke-width="1" opacity="1" d="M 13.5 19 L 12.5 21 L 13.5 19 Z " /><path fill="rgb(55,40,31)" stroke="rgb(55,40,31)" stroke-width="1" opacity="1" d="M 5.5 22 L 6.5 24 L 4 23.5 L 5.5 22 Z " /><path fill="rgb(55,40,31)" stroke="rgb(55,40,31)" stroke-width="1" opacity="1" d="M 13.5 23 L 14.5 25 L 13.5 23 Z " /><path fill="rgb(55,40,31)" stroke="rgb(55,40,31)" stroke-width="1" opacity="1" d="M 6.5 32 Q 9.3 33.3 7 34.5 L 6.5 36 L 5 33.5 L 6.5 32 Z " /><path fill="rgb(55,40,31)" stroke="rgb(55,40,31)" stroke-width="1" opacity="1" d="M 24.5 33 L 27 34.5 L 25.5 35 L 24.5 33 Z " /><path fill="rgb(182,185,176)" stroke="rgb(182,185,176)" stroke-width="1" opacity="1" d="M 15.5 4 Q 17.8 3.3 17 5.5 L 15.5 4 Z " /><path fill="rgb(182,185,176)" stroke="rgb(182,185,176)" stroke-width="1" opacity="1" d="M 20 4 L 22 4.5 L 20 5.5 L 20 4 Z " /><path fill="rgb(182,185,176)" stroke="rgb(182,185,176)" stroke-width="1" opacity="1" d="M 7.5 5 L 10 5.5 Q 7.9 8.8 7.5 5 Z " /><path fill="rgb(182,185,176)" stroke="rgb(182,185,176)" stroke-width="1" opacity="1" d="M 17.5 9 L 21 11.5 L 19.5 12 L 17.5 9 Z " /><path fill="rgb(182,185,176)" stroke="rgb(182,185,176)" stroke-width="1" opacity="1" d="M 10.5 13 L 8.5 16 L 10.5 13 Z " /><path fill="rgb(182,185,176)" stroke="rgb(182,185,176)" stroke-width="1" opacity="1" d="M 21.5 16 L 23 19.5 L 21 18.5 L 21.5 16 Z " /><path fill="rgb(182,185,176)" stroke="rgb(182,185,176)" stroke-width="1" opacity="1" d="M 10.5 19 L 9.5 21 L 10.5 19 Z " /><path fill="rgb(182,185,176)" stroke="rgb(182,185,176)" stroke-width="1" opacity="1" d="M 18.5 19 Q 21.1 18.2 20 21.5 L 19 21.5 L 18.5 19 Z " /><path fill="rgb(182,185,176)" stroke="rgb(182,185,176)" stroke-width="1" opacity="1" d="M 3.5 20 L 4 22.5 L 3 22.5 L 3.5 20 Z " /><path fill="rgb(182,185,176)" stroke="rgb(182,185,176)" stroke-width="1" opacity="1" d="M 2.5 24 Q 5.5 25.5 2.5 27 L 2.5 24 Z " /><path fill="rgb(182,185,176)" stroke="rgb(182,185,176)" stroke-width="1" opacity="1" d="M 9.5 25 Q 11.3 28.1 13 26.5 Q 11.8 29.8 8 29 L 8.5 27 L 10 27.5 L 9.5 25 Z " /><path fill="rgb(182,185,176)" stroke="rgb(182,185,176)" stroke-width="1" opacity="1" d="M 20.5 26 L 21 27.5 L 19 28.5 L 20.5 26 Z " /><path fill="rgb(182,185,176)" stroke="rgb(182,185,176)" stroke-width="1" opacity="1" d="M 21.5 29 L 20.5 31 L 19 30.5 L 21.5 29 Z " /><path fill="rgb(182,185,176)" stroke="rgb(182,185,176)" stroke-width="1" opacity="1" d="M 10.5 33 Q 14.9 31.5 14 34.5 L 12.5 34 Q 9.5 34.5 10.5 33 Z " /><path fill="rgb(182,185,176)" stroke="rgb(182,185,176)" stroke-width="1" opacity="1" d="M 8.5 34 Q 10.3 37.1 12 35.5 L 10.5 37 L 8.5 34 Z " /><path fill="rgb(182,185,176)" stroke="rgb(182,185,176)" stroke-width="1" opacity="1" d="M 22.5 37 L 23.5 39 L 22.5 37 Z " /><path fill="rgb(182,185,176)" stroke="rgb(182,185,176)" stroke-width="1" opacity="1" d="M 20.5 42 L 21 46.5 L 19.5 48 L 19 43.5 L 20.5 42 Z " /><path fill="rgb(182,185,176)" stroke="rgb(182,185,176)" stroke-width="1" opacity="1" d="M 17.5 43 L 16.5 45 L 14 44.5 L 17.5 43 Z " /><path fill="rgb(182,185,176)" stroke="rgb(182,185,176)" stroke-width="1" opacity="1" d="M 3 45 L 5.5 46 L 8.5 45 L 8.5 46 Q 5.2 44.9 6 47.5 L 5 47.5 L 4.5 46 L 3 46.5 L 3 45 Z " /><path fill="rgb(182,185,176)" stroke="rgb(182,185,176)" stroke-width="1" opacity="1" d="M 11.5 46 L 12.5 48 L 11.5 46 Z " /><path fill="rgb(249,244,178)" stroke="rgb(249,244,178)" stroke-width="1" opacity="1" d="M 18 2 L 25.5 2 L 26 3.5 L 27 3.5 L 27.5 2 L 28 19.5 L 27 19.5 Q 27.7 16.9 25 18 L 23.5 21 Q 21.3 19.3 22 14.5 Q 25 13.5 24 8.5 L 23 5.5 L 23.5 4 Q 16.6 6 18 2 Z " /><path fill="rgb(249,244,178)" stroke="rgb(249,244,178)" stroke-width="1" opacity="1" d="M 25.5 26 L 26 28.5 L 25 28.5 L 25.5 26 Z " /><path fill="rgb(241,222,49)" stroke="rgb(241,222,49)" stroke-width="1" opacity="1" d="M 2 2 L 14 2.5 L 12.5 4 L 6 4 L 7 21.5 L 5.5 21 Q 3.3 21.8 4 19.5 L 3 19.5 L 2.5 22 L 2 2 Z " /><path fill="rgb(241,222,49)" stroke="rgb(241,222,49)" stroke-width="1" opacity="1" d="M 9.5 8 L 10 12.5 L 9 12.5 L 9.5 8 Z " /><path fill="rgb(241,222,49)" stroke="rgb(241,222,49)" stroke-width="1" opacity="1" d="M 4 26 Q 7.7 24.6 6 30.5 L 4 29.5 L 4 26 Z " /><path fill="rgb(65,65,63)" stroke="rgb(65,65,63)" stroke-width="1" opacity="1" d="M 21.5 6 L 20.5 8 L 21.5 6 Z " /><path fill="rgb(65,65,63)" stroke="rgb(65,65,63)" stroke-width="1" opacity="1" d="M 7.5 7 L 8 10 L 6 9.5 L 7.5 7 Z " /><path fill="rgb(65,65,63)" stroke="rgb(65,65,63)" stroke-width="1" opacity="1" d="M 10.5 7 L 11.5 9 L 10.5 7 Z " /><path fill="rgb(65,65,63)" stroke="rgb(65,65,63)" stroke-width="1" opacity="1" d="M 22.5 9 L 23 11.5 L 22.5 13 L 21 10.5 L 22.5 9 Z " /><path fill="rgb(65,65,63)" stroke="rgb(65,65,63)" stroke-width="1" opacity="1" d="M 12.5 23 L 14 26 L 11 24.5 L 12.5 23 Z " /><path fill="rgb(65,65,63)" stroke="rgb(65,65,63)" stroke-width="1" opacity="1" d="M 16.5 23 L 15.5 25 L 16.5 23 Z " /><path fill="rgb(65,65,63)" stroke="rgb(65,65,63)" stroke-width="1" opacity="1" d="M 23.5 26 L 23.5 29 Q 20.5 27.5 23.5 26 Z " /><path fill="rgb(65,65,63)" stroke="rgb(65,65,63)" stroke-width="1" opacity="1" d="M 17 28 L 19 28.5 L 16 30.5 L 17 28 Z " /><path fill="rgb(65,65,63)" stroke="rgb(65,65,63)" stroke-width="1" opacity="1" d="M 11.5 29 L 14 30.5 L 12.5 30 L 11.5 29 Z " /><path fill="rgb(65,65,63)" stroke="rgb(65,65,63)" stroke-width="1" opacity="1" d="M 22.5 30 L 24 30.5 L 20.5 32 L 20.5 31 L 22.5 30 Z " /><path fill="rgb(65,65,63)" stroke="rgb(65,65,63)" stroke-width="1" opacity="1" d="M 5 31 L 7 31.5 L 5 32.5 L 5 31 Z " /><path fill="rgb(65,65,63)" stroke="rgb(65,65,63)" stroke-width="1" opacity="1" d="M 9.5 36 L 10.5 38 L 9.5 36 Z " /><path fill="rgb(65,65,63)" stroke="rgb(65,65,63)" stroke-width="1" opacity="1" d="M 23.5 41 L 24.5 43 L 23.5 41 Z " /><path fill="rgb(65,65,63)" stroke="rgb(65,65,63)" stroke-width="1" opacity="1" d="M 9.5 43 L 8.5 45 L 9.5 43 Z " /><path fill="rgb(65,65,63)" stroke="rgb(65,65,63)" stroke-width="1" opacity="1" d="M 4.5 46 L 5 47.5 L 2.5 49 L 2.5 48 Q 5 48.7 4.5 46 Z " /><path fill="rgb(65,65,63)" stroke="rgb(65,65,63)" stroke-width="1" opacity="1" d="M 6.5 47 Q 10.3 46 9 49 L 6.5 47 Z " /><path fill="rgb(96,117,123)" stroke="rgb(96,117,123)" stroke-width="1" opacity="1" d="M 13 4 L 15 4.5 L 13 5.5 L 13 4 Z " /><path fill="rgb(96,117,123)" stroke="rgb(96,117,123)" stroke-width="1" opacity="1" d="M 10.5 5 Q 12.8 4.3 12 6.5 L 10.5 5 Z " /><path fill="rgb(96,117,123)" stroke="rgb(96,117,123)" stroke-width="1" opacity="1" d="M 19.5 5 L 22 5.5 Q 19.9 8.8 19.5 5 Z " /><path fill="rgb(96,117,123)" stroke="rgb(96,117,123)" stroke-width="1" opacity="1" d="M 18.5 12 L 19.5 14 L 18.5 12 Z " /><path fill="rgb(96,117,123)" stroke="rgb(96,117,123)" stroke-width="1" opacity="1" d="M 11.5 13 L 12.5 15 L 11.5 13 Z " /><path fill="rgb(96,117,123)" stroke="rgb(96,117,123)" stroke-width="1" opacity="1" d="M 17.5 20 Q 19.8 19.3 19 21.5 L 17.5 20 Z " /><path fill="rgb(96,117,123)" stroke="rgb(96,117,123)" stroke-width="1" opacity="1" d="M 12.5 28 Q 14.8 27.3 14 29.5 L 14.5 31 L 12.5 28 Z " /><path fill="rgb(96,117,123)" stroke="rgb(96,117,123)" stroke-width="1" opacity="1" d="M 27.5 34 L 27 35.5 L 25.5 38 L 26 36.5 L 27.5 34 Z " /><path fill="rgb(96,117,123)" stroke="rgb(96,117,123)" stroke-width="1" opacity="1" d="M 16.5 37 L 15.5 39 L 16.5 37 Z " /><path fill="rgb(96,117,123)" stroke="rgb(96,117,123)" stroke-width="1" opacity="1" d="M 7.5 38 L 8.5 40 L 7.5 38 Z " /><path fill="rgb(96,117,123)" stroke="rgb(96,117,123)" stroke-width="1" opacity="1" d="M 12.5 48 L 15 48.5 L 12.5 49 L 12.5 48 Z " /><path fill="rgb(96,117,123)" stroke="rgb(96,117,123)" stroke-width="1" opacity="1" d="M 23.5 48 L 28 48.5 L 23.5 49 L 23.5 48 Z " /><path fill="rgb(156,147,99)" stroke="rgb(156,147,99)" stroke-width="1" opacity="1" d="M 14.5 11 L 18 12.5 L 14 13 L 14.5 11 Z " /><path fill="rgb(156,147,99)" stroke="rgb(156,147,99)" stroke-width="1" opacity="1" d="M 19.5 12 L 22 13.5 L 20.5 17 L 20 14.5 L 20.5 13 L 19.5 12 Z " /><path fill="rgb(156,147,99)" stroke="rgb(156,147,99)" stroke-width="1" opacity="1" d="M 22.5 22 L 25 23.5 L 23.5 23 L 22.5 22 Z " /><path fill="rgb(156,147,99)" stroke="rgb(156,147,99)" stroke-width="1" opacity="1" d="M 26.5 28 L 26 29.5 L 27 31.5 L 25 30.5 L 26.5 28 Z " /><path fill="rgb(156,147,99)" stroke="rgb(156,147,99)" stroke-width="1" opacity="1" d="M 3 30 L 5 30.5 L 3 31.5 L 3 30 Z " /><path fill="rgb(156,147,99)" stroke="rgb(156,147,99)" stroke-width="1" opacity="1" d="M 2.5 38 L 4 42 Q 1.3 43.1 2 40.5 L 2.5 38 Z " /><path fill="rgb(106,86,44)" stroke="rgb(106,86,44)" stroke-width="1" opacity="1" d="M 16.5 8 L 17 10.5 L 15 11.5 L 16.5 8 Z " /><path fill="rgb(106,86,44)" stroke="rgb(106,86,44)" stroke-width="1" opacity="1" d="M 11.5 17 L 13 20 L 11 19.5 L 11.5 17 Z " /><path fill="rgb(106,86,44)" stroke="rgb(106,86,44)" stroke-width="1" opacity="1" d="M 7.5 23 Q 10.8 24.8 7 26.5 L 6.5 29 L 6 26.5 L 7.5 23 Z " /><path fill="rgb(106,86,44)" stroke="rgb(106,86,44)" stroke-width="1" opacity="1" d="M 2.5 27 Q 4.8 26.3 4 28.5 L 2.5 27 Z " /><path fill="rgb(151,153,152)" stroke="rgb(151,153,152)" stroke-width="1" opacity="1" d="M 17.5 10 L 18.5 12 L 17.5 10 Z " /><path fill="rgb(151,153,152)" stroke="rgb(151,153,152)" stroke-width="1" opacity="1" d="M 20.5 18 L 21.5 20 L 20.5 18 Z " /><path fill="rgb(151,153,152)" stroke="rgb(151,153,152)" stroke-width="1" opacity="1" d="M 15 27 L 17 27.5 L 15 28.5 L 15 27 Z " /><path fill="rgb(151,153,152)" stroke="rgb(151,153,152)" stroke-width="1" opacity="1" d="M 7.5 32 L 13 34.5 L 10.5 35 L 7.5 32 Z " /><path fill="rgb(151,153,152)" stroke="rgb(151,153,152)" stroke-width="1" opacity="1" d="M 16.5 32 L 18 35 L 20 35.5 L 18.5 36 L 15 33.5 L 16.5 32 Z " /><path fill="rgb(151,153,152)" stroke="rgb(151,153,152)" stroke-width="1" opacity="1" d="M 2.5 37 L 5 37.5 L 2.5 38 L 2.5 37 Z " /><path fill="rgb(151,153,152)" stroke="rgb(151,153,152)" stroke-width="1" opacity="1" d="M 17.5 37 L 17 38.5 L 15.5 41 L 14 38.5 Q 15.8 40.1 17.5 37 Z " /><path fill="rgb(151,153,152)" stroke="rgb(151,153,152)" stroke-width="1" opacity="1" d="M 22.5 38 L 23.5 40 L 22.5 38 Z " /><path fill="rgb(151,153,152)" stroke="rgb(151,153,152)" stroke-width="1" opacity="1" d="M 12.5 46 L 13.5 48 L 12.5 46 Z " /><path fill="rgb(214,210,197)" stroke="rgb(214,210,197)" stroke-width="1" opacity="1" d="M 23.5 8 L 24 11.5 L 23 11.5 L 23.5 8 Z " /><path fill="rgb(214,210,197)" stroke="rgb(214,210,197)" stroke-width="1" opacity="1" d="M 18.5 9 Q 20.8 8.3 20 10.5 L 18.5 9 Z " /><path fill="rgb(214,210,197)" stroke="rgb(214,210,197)" stroke-width="1" opacity="1" d="M 22.5 13 L 22 14.5 L 21.5 16 L 21 14.5 L 22.5 13 Z " /><path fill="rgb(214,210,197)" stroke="rgb(214,210,197)" stroke-width="1" opacity="1" d="M 13.5 17 L 14.5 19 L 13.5 17 Z " /><path fill="rgb(214,210,197)" stroke="rgb(214,210,197)" stroke-width="1" opacity="1" d="M 19.5 18 L 23 20.5 L 21.5 21 L 19.5 18 Z " /><path fill="rgb(214,210,197)" stroke="rgb(214,210,197)" stroke-width="1" opacity="1" d="M 25.5 19 L 28 22.5 L 25.5 23 Q 23.3 23.8 24 21.5 L 25.5 19 Z " /><path fill="rgb(214,210,197)" stroke="rgb(214,210,197)" stroke-width="1" opacity="1" d="M 24.5 24 Q 29.8 22.5 28 27 L 26 27 Q 27.1 24.3 24.5 25 L 24.5 24 Z " /><path fill="rgb(214,210,197)" stroke="rgb(214,210,197)" stroke-width="1" opacity="1" d="M 2.5 25 L 3.5 27 L 2.5 25 Z " /><path fill="rgb(214,210,197)" stroke="rgb(214,210,197)" stroke-width="1" opacity="1" d="M 16 25 L 19 25.5 L 18.5 27 L 20 27.5 L 17.5 28 L 16 25 Z " /><path fill="rgb(214,210,197)" stroke="rgb(214,210,197)" stroke-width="1" opacity="1" d="M 13.5 26 L 14.5 28 L 12 27.5 L 13.5 26 Z " /><path fill="rgb(214,210,197)" stroke="rgb(214,210,197)" stroke-width="1" opacity="1" d="M 24.5 26 L 25 29.5 L 24 29.5 L 24.5 26 Z " /><path fill="rgb(214,210,197)" stroke="rgb(214,210,197)" stroke-width="1" opacity="1" d="M 9.5 30 L 14 31.5 L 10 33 L 9.5 30 Z " /><path fill="rgb(214,210,197)" stroke="rgb(214,210,197)" stroke-width="1" opacity="1" d="M 18.5 30 L 19 33.5 L 18 33.5 L 18.5 30 Z " /><path fill="rgb(214,210,197)" stroke="rgb(214,210,197)" stroke-width="1" opacity="1" d="M 23.5 31 L 24.5 33 Q 21.5 32.1 23 36.5 L 22 36.5 L 23.5 31 Z " /><path fill="rgb(214,210,197)" stroke="rgb(214,210,197)" stroke-width="1" opacity="1" d="M 9.5 34 L 8.5 36 L 9.5 34 Z " /><path fill="rgb(214,210,197)" stroke="rgb(214,210,197)" stroke-width="1" opacity="1" d="M 14.5 34 Q 19.5 33.5 20 37.5 L 18.5 37 L 16.5 36 L 16 38 L 11 36.5 L 14.5 34 Z " /><path fill="rgb(214,210,197)" stroke="rgb(214,210,197)" stroke-width="1" opacity="1" d="M 27.5 40 L 28 42 L 25 41.5 L 27.5 40 Z " /><path fill="rgb(214,210,197)" stroke="rgb(214,210,197)" stroke-width="1" opacity="1" d="M 2.5 45 L 4 47.5 L 2 48 L 2.5 45 Z " /><path fill="rgb(214,210,197)" stroke="rgb(214,210,197)" stroke-width="1" opacity="1" d="M 15.5 45 L 19 45.5 L 15.5 46 L 15.5 45 Z " /><path fill="rgb(214,210,197)" stroke="rgb(214,210,197)" stroke-width="1" opacity="1" d="M 24.5 46 L 25.5 48 L 23 47.5 L 24.5 46 Z " /><path fill="rgb(140,122,74)" stroke="rgb(140,122,74)" stroke-width="1" opacity="1" d="M 18.5 1 L 24 1.5 L 18.5 2 L 18.5 1 Z " /><path fill="rgb(140,122,74)" stroke="rgb(140,122,74)" stroke-width="1" opacity="1" d="M 15.5 6 L 14.5 8 L 15.5 6 Z " /><path fill="rgb(140,122,74)" stroke="rgb(140,122,74)" stroke-width="1" opacity="1" d="M 13.5 9 L 16 9.5 Q 15.5 12.5 11.5 12 L 11.5 11 L 14 10.5 L 13.5 9 Z " /><path fill="rgb(140,122,74)" stroke="rgb(140,122,74)" stroke-width="1" opacity="1" d="M 8.5 12 L 9.5 14 L 8.5 12 Z " /><path fill="rgb(140,122,74)" stroke="rgb(140,122,74)" stroke-width="1" opacity="1" d="M 6.5 13 L 8 17.5 L 6 16.5 L 6 14.5 L 6.5 13 Z " /><path fill="rgb(140,122,74)" stroke="rgb(140,122,74)" stroke-width="1" opacity="1" d="M 20.5 24 L 23 24.5 Q 20.9 27.8 20.5 24 Z " /><path fill="rgb(140,122,74)" stroke="rgb(140,122,74)" stroke-width="1" opacity="1" d="M 3.5 38 L 2.5 40 L 3.5 38 Z " /><path fill="rgb(140,122,74)" stroke="rgb(140,122,74)" stroke-width="1" opacity="1" d="M 14.5 43 L 13.5 45 L 14.5 43 Z " /><path fill="rgb(20,13,18)" stroke="rgb(20,13,18)" stroke-width="1" opacity="1" d="M 5.5 36 L 8 36.5 Q 5.9 39.8 5.5 36 Z " /><path fill="rgb(20,13,18)" stroke="rgb(20,13,18)" stroke-width="1" opacity="1" d="M 5.5 40 Q 8.8 38.9 8 41.5 L 9 44 L 5.5 45 L 6.5 42 L 3 43.5 L 3.5 45 Q 1.3 45.8 2 43.5 L 5.5 40 Z " /><path fill="rgb(20,13,18)" stroke="rgb(20,13,18)" stroke-width="1" opacity="1" d="M 12.5 40 L 10.5 43 L 10 41 L 12.5 40 Z " /><path fill="rgb(28,22,27)" stroke="rgb(28,22,27)" stroke-width="1" opacity="1" d="M 4.5 32 L 6 34.5 L 4 33.5 L 4.5 32 Z " /><path fill="rgb(28,22,27)" stroke="rgb(28,22,27)" stroke-width="1" opacity="1" d="M 20.5 36 Q 22.8 35.3 22 37.5 L 20.5 36 Z " /><path fill="rgb(28,22,27)" stroke="rgb(28,22,27)" stroke-width="1" opacity="1" d="M 12.5 37 L 14 42 L 8 40.5 L 10 40 Q 8.9 37.3 11.5 38 L 12.5 37 Z " /><path fill="rgb(28,22,27)" stroke="rgb(28,22,27)" stroke-width="1" opacity="1" d="M 22.5 41 L 23.5 43 L 22.5 41 Z " /><path fill="rgb(28,22,27)" stroke="rgb(28,22,27)" stroke-width="1" opacity="1" d="M 2.5 42 L 5 42.5 L 4.5 45 L 2.5 42 Z " /><path fill="rgb(252,251,250)" stroke="rgb(252,251,250)" stroke-width="1" opacity="1" d="M 0 0 L 30 0 L 30 50 L 0 50 L 0 0 Z M 2 1 L 2 3 L 2 22 L 1 23 Q 3 24 2 29 L 2 31 L 1 33 L 2 36 Q 4 41 1 43 L 2 49 L 28 49 Q 29 49 28 44 L 28 42 Q 26 35 29 34 L 28 31 L 29 28 L 28 25 L 28 23 L 28 1 L 2 1 Z " /><path fill="rgb(252,251,250)" stroke="rgb(252,251,250)" stroke-width="1" opacity="1" d="M 18 38 L 22 38.5 L 21 41.5 L 22.5 44 Q 20.3 44.8 21 42.5 L 18 41 L 18 38 Z " /><path fill="rgb(238,235,234)" stroke="rgb(238,235,234)" stroke-width="1" opacity="1" d="M 9.5 19 L 9 20.5 L 8.5 22 L 8 20.5 L 9.5 19 Z " /><path fill="rgb(238,235,234)" stroke="rgb(238,235,234)" stroke-width="1" opacity="1" d="M 21.5 21 L 20.5 23 L 21.5 21 Z " /><path fill="rgb(238,235,234)" stroke="rgb(238,235,234)" stroke-width="1" opacity="1" d="M 16.5 31 Q 18.8 30.3 18 32.5 L 16.5 31 Z " /><path fill="rgb(238,235,234)" stroke="rgb(238,235,234)" stroke-width="1" opacity="1" d="M 28.5 31 L 29 33.5 L 28 33.5 L 28.5 31 Z " /><path fill="rgb(238,235,234)" stroke="rgb(238,235,234)" stroke-width="1" opacity="1" d="M 1.5 32 L 2 34.5 L 1 34.5 L 1.5 32 Z " /><path fill="rgb(238,235,234)" stroke="rgb(238,235,234)" stroke-width="1" opacity="1" d="M 23.5 34 L 24.5 36 L 23.5 34 Z " /><path fill="rgb(238,235,234)" stroke="rgb(238,235,234)" stroke-width="1" opacity="1" d="M 24.5 38 L 25 40.5 L 24 40.5 L 24.5 38 Z " /><path fill="rgb(238,235,234)" stroke="rgb(238,235,234)" stroke-width="1" opacity="1" d="M 1.5 42 L 2 44.5 L 1 44.5 L 1.5 42 Z " /><path fill="rgb(238,235,234)" stroke="rgb(238,235,234)" stroke-width="1" opacity="1" d="M 10.5 45 L 13.5 46 L 15 45.5 L 14.5 48 L 11.5 46 L 11.5 48 L 9 46.5 L 10.5 45 Z " /><path fill="rgb(238,235,234)" stroke="rgb(238,235,234)" stroke-width="1" opacity="1" d="M 21.5 45 L 24 45.5 L 20.5 48 L 21 46.5 L 21.5 45 Z " /><path fill="rgb(238,235,234)" stroke="rgb(238,235,234)" stroke-width="1" opacity="1" d="M 26.5 45 Q 29.5 44.2 28 48 L 25 46.5 L 26.5 45 Z " /></svg>