<svg width="30" height="50" version="1.1" xmlns="http://www.w3.org/2000/svg" desc="Created with imagetracer.js version 1.2.6" ><path fill="rgb(55,44,27)" stroke="rgb(55,44,27)" stroke-width="1" opacity="1" d="M 13.5 2 Q 15.8 1.3 15 3.5 L 13.5 2 Z " /><path fill="rgb(55,44,27)" stroke="rgb(55,44,27)" stroke-width="1" opacity="1" d="M 9.5 14 L 10.5 16 L 9.5 14 Z " /><path fill="rgb(55,44,27)" stroke="rgb(55,44,27)" stroke-width="1" opacity="1" d="M 14 20 Q 17 19 16 22 Q 13 23 14 20 Z " /><path fill="rgb(55,44,27)" stroke="rgb(55,44,27)" stroke-width="1" opacity="1" d="M 19.5 24 L 19.5 27 L 17 25.5 L 19.5 24 Z " /><path fill="rgb(55,44,27)" stroke="rgb(55,44,27)" stroke-width="1" opacity="1" d="M 4.5 27 L 3.5 29 L 4.5 27 Z " /><path fill="rgb(55,44,27)" stroke="rgb(55,44,27)" stroke-width="1" opacity="1" d="M 3.5 32 L 4 34.5 L 3 34.5 L 3.5 32 Z " /><path fill="rgb(55,44,27)" stroke="rgb(55,44,27)" stroke-width="1" opacity="1" d="M 18.5 40 L 19.5 42 L 18.5 40 Z " /><path fill="rgb(55,44,27)" stroke="rgb(55,44,27)" stroke-width="1" opacity="1" d="M 25.5 40 L 26.5 42 L 25.5 40 Z " /><path fill="rgb(55,44,27)" stroke="rgb(55,44,27)" stroke-width="1" opacity="1" d="M 12 46 L 14 46.5 L 12 47.5 L 12 46 Z " /><path fill="rgb(151,229,243)" stroke="rgb(151,229,243)" stroke-width="1" opacity="1" d="M 4.5 3 L 7 4.5 L 5.5 5 L 4 4.5 L 3 8.5 L 4.5 11 Q 2.3 10.3 3 12.5 L 6 13.5 L 4 14.5 L 6 15 L 5 20 L 7 20 L 7 24 Q 9.7 22.9 9 25.5 L 7 26.5 Q 9.5 25 6 23.5 Q 6.8 20.9 3.5 22 L 2 18.5 L 2 4.5 L 3.5 4 L 4.5 3 Z " /><path fill="rgb(151,229,243)" stroke="rgb(151,229,243)" stroke-width="1" opacity="1" d="M 8.5 4 L 9 6 Q 12 7 11 4 L 15.5 4 L 15 5.5 L 13 9.5 L 13.5 11 L 12 11.5 L 12.5 14 L 15 15.5 L 12.5 16 L 11 12 L 7 9.5 L 9 9 L 8.5 4 Z " /><path fill="rgb(151,229,243)" stroke="rgb(151,229,243)" stroke-width="1" opacity="1" d="M 5.5 6 L 8 7.5 L 6.5 8 L 5.5 6 Z " /><path fill="rgb(151,229,243)" stroke="rgb(151,229,243)" stroke-width="1" opacity="1" d="M 9.5 39 L 11 42 Q 7.5 43.1 9.5 39 Z " /><path fill="rgb(150,235,249)" stroke="rgb(150,235,249)" stroke-width="1" opacity="1" d="M 17.5 2 Q 22 1.5 22.5 5 L 23 3.5 L 22.5 2 L 25 5.5 L 24 8.5 L 24.5 10 Q 25.8 7.8 27 10.5 L 26 12.5 L 26.5 14 L 22.5 15 L 20 14 L 19.5 17 L 19 15 Q 14.3 15.9 12 13.5 L 12.5 11 L 14 10.5 L 14 8.5 L 16.5 4 L 18 3.5 L 17.5 2 Z M 22 12 L 22 13 L 25 13 L 22 12 Z " /><path fill="rgb(150,235,249)" stroke="rgb(150,235,249)" stroke-width="1" opacity="1" d="M 25.5 15 L 24.5 17 L 23 16.5 L 25.5 15 Z " /><path fill="rgb(150,235,249)" stroke="rgb(150,235,249)" stroke-width="1" opacity="1" d="M 17.5 27 Q 20.5 28.5 17.5 30 Q 14.5 28.5 17.5 27 Z " /><path fill="rgb(157,238,252)" stroke="rgb(157,238,252)" stroke-width="1" opacity="1" d="M 20.5 2 L 22.5 3 L 28 2 L 27 7.5 L 28 10.5 L 27 12.5 L 28 13.5 L 28 35.5 L 27 35.5 L 27 32 Q 24.3 33.1 25 30.5 L 20 22.5 L 20.5 21 L 18 20.5 Q 20.8 18.5 20 14 L 23.5 15 L 27 13.5 Q 25.8 10.8 24.5 13 L 21 12.5 L 25 12 L 24 8.5 L 24 4.5 L 23.5 3 L 22.5 5 L 20.5 2 Z " /><path fill="rgb(157,238,252)" stroke="rgb(157,238,252)" stroke-width="1" opacity="1" d="M 21.5 31 L 23 34.5 L 21 33.5 L 21.5 31 Z " /><path fill="rgb(157,238,252)" stroke="rgb(157,238,252)" stroke-width="1" opacity="1" d="M 22 36 Q 25 34.8 24 38.5 L 22 37.5 L 22 36 Z " /><path fill="rgb(157,238,252)" stroke="rgb(157,238,252)" stroke-width="1" opacity="1" d="M 26 37 Q 29.3 35.7 28 40.5 L 26 39.5 L 26 37 Z " /><path fill="rgb(157,238,252)" stroke="rgb(157,238,252)" stroke-width="1" opacity="1" d="M 16.5 40 L 17.5 42 L 16.5 40 Z " /><path fill="rgb(157,238,252)" stroke="rgb(157,238,252)" stroke-width="1" opacity="1" d="M 23.5 40 L 24 42.5 L 23 42.5 L 23.5 40 Z " /><path fill="rgb(150,223,236)" stroke="rgb(150,223,236)" stroke-width="1" opacity="1" d="M 15.5 1 L 19 1.5 L 15.5 2 L 15.5 1 Z " /><path fill="rgb(150,223,236)" stroke="rgb(150,223,236)" stroke-width="1" opacity="1" d="M 2 2 L 9.5 3 L 11.5 2 L 12.5 4 Q 9.9 3.3 11 6 L 9 6 Q 10.5 9.7 7.5 9 L 7.5 7 L 5.5 6 L 4 8.5 L 4.5 10 L 3 7.5 L 4 4 Q 1 5 2 2 Z M 5 3 L 6 5 L 7 5 L 5 3 Z " /><path fill="rgb(150,223,236)" stroke="rgb(150,223,236)" stroke-width="1" opacity="1" d="M 3 11 Q 6.8 10.3 8 13.5 L 6.5 16 L 4 14.5 L 6 13.5 L 3 12.5 L 3 11 Z " /><path fill="rgb(150,223,236)" stroke="rgb(150,223,236)" stroke-width="1" opacity="1" d="M 2.5 21 L 6 22 L 6.5 24 L 7.5 21 L 9 23.5 L 7 24.5 L 9 27.5 Q 7.8 30.3 6.5 28 Q 4.3 28.8 5 26.5 L 6 24 Q 1.5 22.3 3 27.5 L 2 27.5 L 2.5 21 Z " /><path fill="rgb(150,223,236)" stroke="rgb(150,223,236)" stroke-width="1" opacity="1" d="M 4.5 32 L 5 37.5 L 3.5 42 L 3 37.5 L 4.5 32 Z " /><path fill="rgb(150,223,236)" stroke="rgb(150,223,236)" stroke-width="1" opacity="1" d="M 10.5 34 L 12 34.5 L 9.5 36 L 10.5 34 Z " /><path fill="rgb(150,223,236)" stroke="rgb(150,223,236)" stroke-width="1" opacity="1" d="M 8.5 37 L 10.5 40 L 8.5 37 Z " /><path fill="rgb(167,170,87)" stroke="rgb(167,170,87)" stroke-width="1" opacity="1" d="M 6.5 9 L 7.5 11 L 6.5 9 Z " /><path fill="rgb(167,170,87)" stroke="rgb(167,170,87)" stroke-width="1" opacity="1" d="M 12.5 20 L 11.5 22 L 10 21.5 L 12.5 20 Z " /><path fill="rgb(167,170,87)" stroke="rgb(167,170,87)" stroke-width="1" opacity="1" d="M 16.5 21 L 20 23.5 L 18.5 24 Q 16.8 20.9 15 22.5 L 16.5 21 Z " /><path fill="rgb(167,170,87)" stroke="rgb(167,170,87)" stroke-width="1" opacity="1" d="M 7.5 43 L 9 47.5 L 7 48.5 L 7.5 47 L 4 45.5 L 5.5 45 L 7 45.5 L 7.5 43 Z " /><path fill="rgb(167,170,87)" stroke="rgb(167,170,87)" stroke-width="1" opacity="1" d="M 12.5 43 L 15 43.5 L 12.5 44 L 12.5 43 Z " /><path fill="rgb(167,170,87)" stroke="rgb(167,170,87)" stroke-width="1" opacity="1" d="M 18.5 44 L 19.5 46 L 18.5 44 Z " /><path fill="rgb(190,228,230)" stroke="rgb(190,228,230)" stroke-width="1" opacity="1" d="M 1.5 6 L 2 10.5 L 1 10.5 L 1.5 6 Z " /><path fill="rgb(190,228,230)" stroke="rgb(190,228,230)" stroke-width="1" opacity="1" d="M 1.5 12 L 2 16.5 L 1 16.5 L 1.5 12 Z " /><path fill="rgb(190,228,230)" stroke="rgb(190,228,230)" stroke-width="1" opacity="1" d="M 1.5 24 L 2 32.5 L 1 32.5 L 1.5 24 Z " /><path fill="rgb(190,228,230)" stroke="rgb(190,228,230)" stroke-width="1" opacity="1" d="M 1.5 34 L 2 37.5 L 1 37.5 L 1.5 34 Z " /><path fill="rgb(190,228,230)" stroke="rgb(190,228,230)" stroke-width="1" opacity="1" d="M 28.5 43 L 29 45 L 27 44.5 L 28.5 43 Z " /><path fill="rgb(190,228,230)" stroke="rgb(190,228,230)" stroke-width="1" opacity="1" d="M 2.5 47 L 7 47.5 L 4.5 49 L 2.5 47 Z " /><path fill="rgb(190,228,230)" stroke="rgb(190,228,230)" stroke-width="1" opacity="1" d="M 17.5 47 L 20 47.5 L 17.5 48 L 17.5 47 Z " /><path fill="rgb(248,249,248)" stroke="rgb(248,249,248)" stroke-width="1" opacity="1" d="M 0 0 L 30 0 L 30 50 L 0 50 L 0 0 Z M 2 1 L 1 11 L 1 13 L 2 18 L 1 21 L 2 23 L 1 25 L 1 42 L 2 43 L 1 45 Q 0 49 2 49 L 29 49 L 29 42 L 28 41 L 28 1 L 2 1 Z " /><path fill="rgb(215,134,60)" stroke="rgb(215,134,60)" stroke-width="1" opacity="1" d="M 7.5 18 L 8.5 20 L 7.5 18 Z " /><path fill="rgb(215,134,60)" stroke="rgb(215,134,60)" stroke-width="1" opacity="1" d="M 8.5 33 L 10 33.5 Q 6 34.9 7 40 L 5 39.5 L 8.5 33 Z " /><path fill="rgb(215,134,60)" stroke="rgb(215,134,60)" stroke-width="1" opacity="1" d="M 15.5 33 Q 17.8 32.3 17 34.5 L 18 37.5 L 17 37.5 L 15.5 33 Z " /><path fill="rgb(215,134,60)" stroke="rgb(215,134,60)" stroke-width="1" opacity="1" d="M 22.5 45 L 23 47.5 L 22 47.5 L 22.5 45 Z " /><path fill="rgb(200,214,93)" stroke="rgb(200,214,93)" stroke-width="1" opacity="1" d="M 7.5 17 L 6.5 19 L 7.5 17 Z " /><path fill="rgb(200,214,93)" stroke="rgb(200,214,93)" stroke-width="1" opacity="1" d="M 12.5 21 L 16 23.5 Q 17.7 28.3 13.5 27 L 12.5 29 Q 16.5 28.5 17 31.5 L 15.5 32 L 11 31 L 10.5 33 L 8 32 L 12.5 21 Z " /><path fill="rgb(200,214,93)" stroke="rgb(200,214,93)" stroke-width="1" opacity="1" d="M 17.5 21 L 18.5 23 L 17.5 21 Z " /><path fill="rgb(200,214,93)" stroke="rgb(200,214,93)" stroke-width="1" opacity="1" d="M 10.5 43 Q 12.8 42.3 12 44.5 L 11 48 Q 7.7 49.3 9 44.5 L 10.5 43 Z " /><path fill="rgb(200,214,93)" stroke="rgb(200,214,93)" stroke-width="1" opacity="1" d="M 25.5 43 L 24.5 45 L 25.5 43 Z " /><path fill="rgb(200,214,93)" stroke="rgb(200,214,93)" stroke-width="1" opacity="1" d="M 2.5 44 L 3.5 46 Q 0.7 46.7 2.5 44 Z " /><path fill="rgb(200,214,93)" stroke="rgb(200,214,93)" stroke-width="1" opacity="1" d="M 5.5 44 Q 7.8 43.3 7 45.5 L 5.5 44 Z " /><path fill="rgb(200,214,93)" stroke="rgb(200,214,93)" stroke-width="1" opacity="1" d="M 13.5 44 L 14.5 46 L 13.5 44 Z " /><path fill="rgb(200,214,93)" stroke="rgb(200,214,93)" stroke-width="1" opacity="1" d="M 19.5 44 Q 23.7 42.9 22 47 L 18 46.5 L 20 45.5 L 19.5 44 Z " /><path fill="rgb(200,214,93)" stroke="rgb(200,214,93)" stroke-width="1" opacity="1" d="M 27.5 45 L 27.5 48 Q 25.3 48.8 26 46.5 L 27.5 45 Z " /><path fill="rgb(200,214,93)" stroke="rgb(200,214,93)" stroke-width="1" opacity="1" d="M 23.5 46 L 24.5 48 L 23.5 46 Z " /><path fill="rgb(115,146,149)" stroke="rgb(115,146,149)" stroke-width="1" opacity="1" d="M 2.5 1 L 6 1.5 L 2.5 2 L 2.5 1 Z " /><path fill="rgb(115,146,149)" stroke="rgb(115,146,149)" stroke-width="1" opacity="1" d="M 12.5 2 L 13.5 4 L 12.5 2 Z " /><path fill="rgb(115,146,149)" stroke="rgb(115,146,149)" stroke-width="1" opacity="1" d="M 5.5 7 L 6.5 9 L 5.5 7 Z " /><path fill="rgb(115,146,149)" stroke="rgb(115,146,149)" stroke-width="1" opacity="1" d="M 8.5 11 L 8.5 14 Q 5.5 12.5 8.5 11 Z " /><path fill="rgb(115,146,149)" stroke="rgb(115,146,149)" stroke-width="1" opacity="1" d="M 15.5 15 L 13.5 18 L 15.5 15 Z " /><path fill="rgb(115,146,149)" stroke="rgb(115,146,149)" stroke-width="1" opacity="1" d="M 17.5 15 L 19 18.5 L 18 18.5 L 17.5 15 Z " /><path fill="rgb(115,146,149)" stroke="rgb(115,146,149)" stroke-width="1" opacity="1" d="M 8.5 21 L 10 24.5 L 9 24.5 L 8.5 21 Z " /><path fill="rgb(115,146,149)" stroke="rgb(115,146,149)" stroke-width="1" opacity="1" d="M 16.5 27 L 16.5 30 Q 13.5 28.5 16.5 27 Z " /><path fill="rgb(115,146,149)" stroke="rgb(115,146,149)" stroke-width="1" opacity="1" d="M 22.5 31 L 23.5 33 L 22.5 31 Z " /><path fill="rgb(115,146,149)" stroke="rgb(115,146,149)" stroke-width="1" opacity="1" d="M 18.5 34 L 22 35.5 L 20.5 35 Q 17.5 35.5 18.5 34 Z " /><path fill="rgb(115,146,149)" stroke="rgb(115,146,149)" stroke-width="1" opacity="1" d="M 13.5 35 L 16 35.5 L 12.5 37 L 13.5 35 Z " /><path fill="rgb(115,146,149)" stroke="rgb(115,146,149)" stroke-width="1" opacity="1" d="M 15.5 37 L 18 40.5 L 15.5 41 L 14 40.5 L 16 39.5 L 15.5 37 Z " /><path fill="rgb(115,146,149)" stroke="rgb(115,146,149)" stroke-width="1" opacity="1" d="M 12.5 38 L 11.5 40 L 12.5 38 Z " /><path fill="rgb(115,146,149)" stroke="rgb(115,146,149)" stroke-width="1" opacity="1" d="M 27.5 41 L 28 42.5 L 26 43.5 L 27.5 41 Z " /><path fill="rgb(161,199,198)" stroke="rgb(161,199,198)" stroke-width="1" opacity="1" d="M 6.5 1 L 15 1.5 L 6.5 2 L 6.5 1 Z " /><path fill="rgb(161,199,198)" stroke="rgb(161,199,198)" stroke-width="1" opacity="1" d="M 4.5 8 L 7 11.5 L 5 10.5 L 4.5 8 Z " /><path fill="rgb(161,199,198)" stroke="rgb(161,199,198)" stroke-width="1" opacity="1" d="M 9.5 16 L 10.5 18 L 9.5 16 Z " /><path fill="rgb(161,199,198)" stroke="rgb(161,199,198)" stroke-width="1" opacity="1" d="M 18.5 19 L 17.5 21 L 18.5 19 Z " /><path fill="rgb(161,199,198)" stroke="rgb(161,199,198)" stroke-width="1" opacity="1" d="M 19.5 21 L 21 23.5 L 19 22.5 L 19.5 21 Z " /><path fill="rgb(161,199,198)" stroke="rgb(161,199,198)" stroke-width="1" opacity="1" d="M 3.5 24 L 4 26.5 L 3 26.5 L 3.5 24 Z " /><path fill="rgb(161,199,198)" stroke="rgb(161,199,198)" stroke-width="1" opacity="1" d="M 9.5 25 L 10 27.5 L 8 28.5 L 9.5 25 Z " /><path fill="rgb(161,199,198)" stroke="rgb(161,199,198)" stroke-width="1" opacity="1" d="M 20.5 25 L 24 29.5 L 21 27.5 L 20.5 25 Z " /><path fill="rgb(161,199,198)" stroke="rgb(161,199,198)" stroke-width="1" opacity="1" d="M 5.5 28 L 6 36.5 L 5 36.5 Q 6.5 31 4 29.5 L 5.5 28 Z " /><path fill="rgb(161,199,198)" stroke="rgb(161,199,198)" stroke-width="1" opacity="1" d="M 2.5 30 L 3 34.5 L 1 33.5 L 2.5 30 Z " /><path fill="rgb(161,199,198)" stroke="rgb(161,199,198)" stroke-width="1" opacity="1" d="M 23.5 33 L 24.5 35 L 23.5 33 Z " /><path fill="rgb(161,199,198)" stroke="rgb(161,199,198)" stroke-width="1" opacity="1" d="M 18 35 L 20 35.5 L 18 36.5 L 18 35 Z " /><path fill="rgb(161,199,198)" stroke="rgb(161,199,198)" stroke-width="1" opacity="1" d="M 21.5 36 L 23 39.5 L 22 39.5 L 21.5 36 Z " /><path fill="rgb(161,199,198)" stroke="rgb(161,199,198)" stroke-width="1" opacity="1" d="M 13.5 37 L 14 41 L 16 41.5 L 14.5 42 Q 11.8 40.8 13.5 37 Z " /><path fill="rgb(161,199,198)" stroke="rgb(161,199,198)" stroke-width="1" opacity="1" d="M 4.5 38 L 5 41.5 L 3.5 44 L 3 42.5 L 4.5 38 Z " /><path fill="rgb(161,199,198)" stroke="rgb(161,199,198)" stroke-width="1" opacity="1" d="M 24.5 42 L 23.5 44 L 24.5 42 Z " /><path fill="rgb(161,199,198)" stroke="rgb(161,199,198)" stroke-width="1" opacity="1" d="M 28.5 45 L 29 48.5 L 28 48.5 L 28.5 45 Z " /><path fill="rgb(161,199,198)" stroke="rgb(161,199,198)" stroke-width="1" opacity="1" d="M 2.5 46 L 2.5 48 L 4 48.5 L 2.5 49 Q -0.5 47.5 2.5 46 Z " /><path fill="rgb(206,172,108)" stroke="rgb(206,172,108)" stroke-width="1" opacity="1" d="M 16.5 18 L 15.5 20 L 16.5 18 Z " /><path fill="rgb(206,172,108)" stroke="rgb(206,172,108)" stroke-width="1" opacity="1" d="M 9.5 34 L 8.5 36 L 9.5 34 Z " /><path fill="rgb(137,130,83)" stroke="rgb(137,130,83)" stroke-width="1" opacity="1" d="M 10.5 13 L 12 17.5 L 10 16.5 L 10 14.5 L 10.5 13 Z " /><path fill="rgb(137,130,83)" stroke="rgb(137,130,83)" stroke-width="1" opacity="1" d="M 7.5 15 L 9 17.5 L 7 16.5 L 7.5 15 Z " /><path fill="rgb(137,130,83)" stroke="rgb(137,130,83)" stroke-width="1" opacity="1" d="M 11.5 19 L 12 21 L 10 20.5 L 11.5 19 Z " /><path fill="rgb(137,130,83)" stroke="rgb(137,130,83)" stroke-width="1" opacity="1" d="M 13.5 27 L 15.5 30 L 13.5 27 Z " /><path fill="rgb(137,130,83)" stroke="rgb(137,130,83)" stroke-width="1" opacity="1" d="M 20.5 37 L 21.5 39 L 20.5 37 Z " /><path fill="rgb(137,130,83)" stroke="rgb(137,130,83)" stroke-width="1" opacity="1" d="M 19.5 40 L 18.5 42 L 19.5 40 Z " /><path fill="rgb(137,130,83)" stroke="rgb(137,130,83)" stroke-width="1" opacity="1" d="M 16.5 42 L 18 43.5 Q 14.9 45.3 16.5 47 L 13 45.5 L 17 43.5 L 16.5 42 Z " /><path fill="rgb(137,130,83)" stroke="rgb(137,130,83)" stroke-width="1" opacity="1" d="M 26.5 44 L 28 46.5 L 26 45.5 L 26.5 44 Z " /><path fill="rgb(137,130,83)" stroke="rgb(137,130,83)" stroke-width="1" opacity="1" d="M 24.5 45 L 26 47.5 L 23 47.5 L 24.5 45 Z " /><path fill="rgb(119,80,38)" stroke="rgb(119,80,38)" stroke-width="1" opacity="1" d="M 15.5 16 L 18 17.5 L 16.5 20 L 17 18.5 Q 17.8 16.3 15.5 17 L 15.5 16 Z " /><path fill="rgb(119,80,38)" stroke="rgb(119,80,38)" stroke-width="1" opacity="1" d="M 12.5 18 L 13.5 20 L 12.5 18 Z " /><path fill="rgb(119,80,38)" stroke="rgb(119,80,38)" stroke-width="1" opacity="1" d="M 17.5 24 L 20 25.5 L 18.5 25 L 17.5 24 Z " /><path fill="rgb(119,80,38)" stroke="rgb(119,80,38)" stroke-width="1" opacity="1" d="M 19.5 27 L 22 28.5 L 21.5 30 L 19.5 27 Z " /><path fill="rgb(119,80,38)" stroke="rgb(119,80,38)" stroke-width="1" opacity="1" d="M 8.5 32 L 11 33.5 L 9.5 33 L 8.5 32 Z " /><path fill="rgb(119,80,38)" stroke="rgb(119,80,38)" stroke-width="1" opacity="1" d="M 10.5 42 L 9 44.5 L 8.5 47 L 8 43 L 10.5 42 Z " /><path fill="rgb(119,80,38)" stroke="rgb(119,80,38)" stroke-width="1" opacity="1" d="M 20.5 42 L 22.5 45 L 18.5 44 L 17 44.5 L 20.5 42 Z " /><path fill="rgb(77,84,77)" stroke="rgb(77,84,77)" stroke-width="1" opacity="1" d="M 8.5 14 L 9.5 16 L 8.5 14 Z " /><path fill="rgb(77,84,77)" stroke="rgb(77,84,77)" stroke-width="1" opacity="1" d="M 8.5 20 L 9.5 22 L 8.5 20 Z " /><path fill="rgb(77,84,77)" stroke="rgb(77,84,77)" stroke-width="1" opacity="1" d="M 16.5 25 Q 20.5 25.5 20 30.5 L 19 30.5 L 16.5 25 Z " /><path fill="rgb(77,84,77)" stroke="rgb(77,84,77)" stroke-width="1" opacity="1" d="M 22.5 29 L 23.5 31 L 22.5 29 Z " /><path fill="rgb(77,84,77)" stroke="rgb(77,84,77)" stroke-width="1" opacity="1" d="M 24.5 32 L 25.5 34 L 24.5 32 Z " /><path fill="rgb(77,84,77)" stroke="rgb(77,84,77)" stroke-width="1" opacity="1" d="M 12.5 37 L 11.5 39 L 12.5 37 Z " /><path fill="rgb(77,84,77)" stroke="rgb(77,84,77)" stroke-width="1" opacity="1" d="M 24.5 38 L 25 40.5 L 24 40.5 L 24.5 38 Z " /><path fill="rgb(77,84,77)" stroke="rgb(77,84,77)" stroke-width="1" opacity="1" d="M 7 39 Q 10 37.8 9 41.5 L 7 41.5 L 6.5 43 L 6 41.5 L 7 39 Z " /><path fill="rgb(77,84,77)" stroke="rgb(77,84,77)" stroke-width="1" opacity="1" d="M 13.5 47 L 14.5 49 L 12 48.5 L 13.5 47 Z " /><path fill="rgb(77,84,77)" stroke="rgb(77,84,77)" stroke-width="1" opacity="1" d="M 21.5 47 L 26 48.5 L 16.5 49 L 16.5 48 L 21.5 47 Z " /><path fill="rgb(77,84,77)" stroke="rgb(77,84,77)" stroke-width="1" opacity="1" d="M 8.5 48 L 11 48.5 L 8.5 49 L 8.5 48 Z " /></svg>