<svg width="30" height="50" version="1.1" xmlns="http://www.w3.org/2000/svg" desc="Created with imagetracer.js version 1.2.6" ><path fill="rgb(166,238,245)" stroke="rgb(166,238,245)" stroke-width="1" opacity="1" d="M 5.5 1 L 16 1.5 L 5.5 2 L 5.5 1 Z " /><path fill="rgb(166,238,245)" stroke="rgb(166,238,245)" stroke-width="1" opacity="1" d="M 15.5 3 L 18 3.5 L 15.5 4 L 15.5 3 Z " /><path fill="rgb(166,238,245)" stroke="rgb(166,238,245)" stroke-width="1" opacity="1" d="M 2.5 7 L 4 9.5 L 2 8.5 L 2.5 7 Z " /><path fill="rgb(166,238,245)" stroke="rgb(166,238,245)" stroke-width="1" opacity="1" d="M 2.5 11 L 5.5 13 L 7 12.5 Q 5.8 15.3 4.5 13 L 2.5 11 Z " /><path fill="rgb(166,238,245)" stroke="rgb(166,238,245)" stroke-width="1" opacity="1" d="M 3.5 14 L 2.5 16 L 3.5 14 Z " /><path fill="rgb(166,238,245)" stroke="rgb(166,238,245)" stroke-width="1" opacity="1" d="M 2.5 21 L 3.5 23 L 2.5 21 Z " /><path fill="rgb(166,238,245)" stroke="rgb(166,238,245)" stroke-width="1" opacity="1" d="M 2.5 25 Q 5.8 23.9 5 26.5 L 3.5 26 L 2.5 25 Z " /><path fill="rgb(166,238,245)" stroke="rgb(166,238,245)" stroke-width="1" opacity="1" d="M 2.5 27 L 3 29.5 L 2 29.5 L 2.5 27 Z " /><path fill="rgb(166,238,245)" stroke="rgb(166,238,245)" stroke-width="1" opacity="1" d="M 3.5 39 L 4 41.5 L 2 42.5 L 3.5 39 Z " /><path fill="rgb(166,238,245)" stroke="rgb(166,238,245)" stroke-width="1" opacity="1" d="M 8.5 41 L 7.5 43 L 8.5 41 Z " /><path fill="rgb(166,238,245)" stroke="rgb(166,238,245)" stroke-width="1" opacity="1" d="M 26.5 42 L 25.5 44 L 26.5 42 Z " /><path fill="rgb(115,76,36)" stroke="rgb(115,76,36)" stroke-width="1" opacity="1" d="M 24.5 14 L 25.5 16 L 24.5 14 Z " /><path fill="rgb(115,76,36)" stroke="rgb(115,76,36)" stroke-width="1" opacity="1" d="M 13.5 17 L 16 18.5 L 14.5 19 L 13.5 17 Z " /><path fill="rgb(115,76,36)" stroke="rgb(115,76,36)" stroke-width="1" opacity="1" d="M 9.5 44 L 8.5 46 L 9.5 44 Z " /><path fill="rgb(184,247,252)" stroke="rgb(184,247,252)" stroke-width="1" opacity="1" d="M 18.5 10 L 22 12.5 L 20.5 12 L 18.5 10 Z " /><path fill="rgb(184,247,252)" stroke="rgb(184,247,252)" stroke-width="1" opacity="1" d="M 16.5 13 L 17.5 15 L 16.5 13 Z " /><path fill="rgb(184,247,252)" stroke="rgb(184,247,252)" stroke-width="1" opacity="1" d="M 14.5 19 L 17 20.5 L 15.5 21 L 14.5 19 Z " /><path fill="rgb(184,247,252)" stroke="rgb(184,247,252)" stroke-width="1" opacity="1" d="M 9.5 27 L 10.5 29 L 9.5 27 Z " /><path fill="rgb(184,247,252)" stroke="rgb(184,247,252)" stroke-width="1" opacity="1" d="M 14.5 36 L 17 36.5 L 14.5 37 L 14.5 36 Z " /><path fill="rgb(184,247,252)" stroke="rgb(184,247,252)" stroke-width="1" opacity="1" d="M 14.5 41 L 17 42.5 L 15.5 42 L 14.5 41 Z " /><path fill="rgb(181,247,253)" stroke="rgb(181,247,253)" stroke-width="1" opacity="1" d="M 21.5 2 L 22 5 L 20 5.5 L 23 6.5 Q 20.8 7.8 23.5 9 L 25 3 L 28 3.5 L 26 4.5 L 27 7 Q 24.3 5.9 25 8.5 L 25.5 10 L 22.5 12 L 23 10.5 L 21.5 8 L 18.5 9 Q 15.5 9.7 17 6 Q 19.7 7.1 19 4.5 L 21.5 2 Z " /><path fill="rgb(181,247,253)" stroke="rgb(181,247,253)" stroke-width="1" opacity="1" d="M 14.5 8 L 15 10 L 13 9.5 L 14.5 8 Z " /><path fill="rgb(181,247,253)" stroke="rgb(181,247,253)" stroke-width="1" opacity="1" d="M 8.5 17 L 9.5 19 Q 6.7 19.7 8.5 17 Z " /><path fill="rgb(181,247,253)" stroke="rgb(181,247,253)" stroke-width="1" opacity="1" d="M 5.5 19 L 8 20.5 L 6.5 21 L 5.5 19 Z " /><path fill="rgb(181,247,253)" stroke="rgb(181,247,253)" stroke-width="1" opacity="1" d="M 7.5 22 L 10 22.5 L 9.5 25 L 7.5 22 Z " /><path fill="rgb(181,247,253)" stroke="rgb(181,247,253)" stroke-width="1" opacity="1" d="M 12.5 23 L 15 23.5 Q 12.9 26.8 12.5 23 Z " /><path fill="rgb(181,247,253)" stroke="rgb(181,247,253)" stroke-width="1" opacity="1" d="M 22.5 24 L 24 26.5 L 22 27.5 L 22 25.5 L 22.5 24 Z " /><path fill="rgb(181,247,253)" stroke="rgb(181,247,253)" stroke-width="1" opacity="1" d="M 25.5 24 L 28 25 L 27 30.5 L 27.5 32 Q 24.9 32.8 26 29.5 L 25.5 28 L 27 28.5 Q 27.7 25.9 25 27 L 25.5 24 Z " /><path fill="rgb(181,247,253)" stroke="rgb(181,247,253)" stroke-width="1" opacity="1" d="M 6.5 26 L 7.5 28 L 6.5 26 Z " /><path fill="rgb(181,247,253)" stroke="rgb(181,247,253)" stroke-width="1" opacity="1" d="M 6.5 30 L 8.5 31 L 10 30.5 L 9 32.5 L 12.5 34 L 12.5 33 L 11 32.5 L 13 31.5 L 15 34.5 L 9.5 36 L 9.5 34 L 7 32.5 L 6.5 30 Z " /><path fill="rgb(181,247,253)" stroke="rgb(181,247,253)" stroke-width="1" opacity="1" d="M 25.5 33 L 26.5 35 L 25.5 33 Z " /><path fill="rgb(181,247,253)" stroke="rgb(181,247,253)" stroke-width="1" opacity="1" d="M 13.5 39 L 12.5 41 L 11 40.5 L 13.5 39 Z " /><path fill="rgb(181,247,253)" stroke="rgb(181,247,253)" stroke-width="1" opacity="1" d="M 27.5 40 L 28 42.5 L 26 43.5 L 27.5 40 Z " /><path fill="rgb(211,221,152)" stroke="rgb(211,221,152)" stroke-width="1" opacity="1" d="M 4.5 43 Q 9.3 41.7 8 45 L 6 45.5 L 6.5 47 L 3.5 46 L 2 46.5 Q 1.1 43.5 5.5 45 L 5.5 44 L 4.5 43 Z " /><path fill="rgb(211,221,152)" stroke="rgb(211,221,152)" stroke-width="1" opacity="1" d="M 10.5 45 L 13.5 46 L 15.5 46 L 18.5 45 L 21 46.5 L 19.5 47 L 17.5 46 Q 15.7 48.8 9.5 47 L 10.5 45 Z " /><path fill="rgb(211,221,152)" stroke="rgb(211,221,152)" stroke-width="1" opacity="1" d="M 22.5 45 L 25 46.5 L 23.5 46 L 22.5 45 Z " /><path fill="rgb(211,221,152)" stroke="rgb(211,221,152)" stroke-width="1" opacity="1" d="M 26.5 47 L 27.5 49 L 24 48.5 L 26.5 47 Z " /><path fill="rgb(211,221,152)" stroke="rgb(211,221,152)" stroke-width="1" opacity="1" d="M 8.5 48 L 13 48.5 L 8.5 49 L 8.5 48 Z " /><path fill="rgb(251,252,250)" stroke="rgb(251,252,250)" stroke-width="1" opacity="1" d="M 0 0 L 30 0 L 30 50 L 0 50 L 0 0 Z M 2 1 L 2 49 L 14 49 L 15 48 Q 23 47 28 49 L 28 1 L 2 1 Z " /><path fill="rgb(187,248,253)" stroke="rgb(187,248,253)" stroke-width="1" opacity="1" d="M 27.5 9 L 28 11.5 L 27.5 14 Q 25.3 14.8 26 12.5 L 25.5 11 L 27 11.5 L 27.5 9 Z " /><path fill="rgb(187,248,253)" stroke="rgb(187,248,253)" stroke-width="1" opacity="1" d="M 16.5 10 L 18.5 11 L 20.5 10 L 20.5 11 L 18.5 12 L 16.5 10 Z " /><path fill="rgb(187,248,253)" stroke="rgb(187,248,253)" stroke-width="1" opacity="1" d="M 13.5 12 L 16 13.5 L 14.5 14 L 13.5 12 Z " /><path fill="rgb(187,248,253)" stroke="rgb(187,248,253)" stroke-width="1" opacity="1" d="M 19.5 15 Q 23.9 13.5 23 16.5 L 21.5 16 Q 18.5 16.5 19.5 15 Z " /><path fill="rgb(187,248,253)" stroke="rgb(187,248,253)" stroke-width="1" opacity="1" d="M 16.5 16 L 21 18.5 L 19.5 19 L 16.5 16 Z " /><path fill="rgb(187,248,253)" stroke="rgb(187,248,253)" stroke-width="1" opacity="1" d="M 24 16 L 28 17.5 L 26.5 18 L 24 17.5 L 24 16 Z " /><path fill="rgb(187,248,253)" stroke="rgb(187,248,253)" stroke-width="1" opacity="1" d="M 15.5 19 L 14.5 21 L 13 20.5 L 15.5 19 Z " /><path fill="rgb(187,248,253)" stroke="rgb(187,248,253)" stroke-width="1" opacity="1" d="M 17.5 20 L 22 22.5 L 21 24.5 L 22 26.5 L 21.5 29 L 19.5 28 L 18 28.5 Q 18.8 23.2 16 21.5 L 17.5 20 Z " /><path fill="rgb(187,248,253)" stroke="rgb(187,248,253)" stroke-width="1" opacity="1" d="M 24.5 29 L 23.5 31 L 24.5 29 Z " /><path fill="rgb(187,248,253)" stroke="rgb(187,248,253)" stroke-width="1" opacity="1" d="M 18.5 34 L 21 34.5 Q 18.8 35.8 21.5 37 L 23 37.5 L 17 39 L 18 36.5 L 16 35.5 L 18.5 34 Z " /><path fill="rgb(187,248,253)" stroke="rgb(187,248,253)" stroke-width="1" opacity="1" d="M 13.5 36 L 16 37.5 L 14.5 38 L 13.5 36 Z " /><path fill="rgb(187,248,253)" stroke="rgb(187,248,253)" stroke-width="1" opacity="1" d="M 24.5 37 L 28 37.5 L 24.5 38 L 24.5 37 Z " /><path fill="rgb(187,248,253)" stroke="rgb(187,248,253)" stroke-width="1" opacity="1" d="M 21.5 39 L 28 39.5 L 25.5 42 L 21.5 39 Z " /><path fill="rgb(187,248,253)" stroke="rgb(187,248,253)" stroke-width="1" opacity="1" d="M 16.5 40 L 22 43.5 L 20.5 43 L 16 42 L 16.5 40 Z " /><path fill="rgb(175,246,253)" stroke="rgb(175,246,253)" stroke-width="1" opacity="1" d="M 21.5 1 L 25.5 2 Q 26.8 -0.3 28 2.5 L 24 3.5 L 24 5.5 Q 24.8 9.3 22.5 10 L 22 5.5 L 21.5 2 L 19 6 Q 15.9 5.3 16.5 8 L 11.5 8 L 9.5 8 L 2 4.5 L 2.5 2 L 13 2 Q 11.7 5.7 17.5 4 L 17.5 2 L 21.5 1 Z " /><path fill="rgb(175,246,253)" stroke="rgb(175,246,253)" stroke-width="1" opacity="1" d="M 4.5 8 L 10 10 L 9.5 12 L 4 10 L 4.5 8 Z " /><path fill="rgb(175,246,253)" stroke="rgb(175,246,253)" stroke-width="1" opacity="1" d="M 5.5 12 L 6.5 14 L 5.5 12 Z " /><path fill="rgb(175,246,253)" stroke="rgb(175,246,253)" stroke-width="1" opacity="1" d="M 2.5 14 L 8 16.5 L 4.5 17 L 2.5 14 Z " /><path fill="rgb(175,246,253)" stroke="rgb(175,246,253)" stroke-width="1" opacity="1" d="M 2.5 18 L 9 22.5 L 8.5 25 L 4 24 L 3.5 22 L 2 22.5 L 2.5 18 Z " /><path fill="rgb(175,246,253)" stroke="rgb(175,246,253)" stroke-width="1" opacity="1" d="M 27.5 22 L 28 24.5 L 27 24.5 L 27.5 22 Z " /><path fill="rgb(175,246,253)" stroke="rgb(175,246,253)" stroke-width="1" opacity="1" d="M 10.5 24 L 13 24.5 L 10.5 25 L 10.5 24 Z " /><path fill="rgb(175,246,253)" stroke="rgb(175,246,253)" stroke-width="1" opacity="1" d="M 3 28 L 7 29.5 L 7 31.5 Q 5.9 34.8 8.5 34 L 8.5 35 L 2 32.5 L 3 29.5 L 3 28 Z " /><path fill="rgb(175,246,253)" stroke="rgb(175,246,253)" stroke-width="1" opacity="1" d="M 11.5 31 L 11.5 33 L 13 33.5 L 10.5 34 L 9.5 32 L 11.5 31 Z " /><path fill="rgb(175,246,253)" stroke="rgb(175,246,253)" stroke-width="1" opacity="1" d="M 2.5 36 Q 7.6 35.4 9 38.5 L 6.5 39 Q 2.5 38.5 2.5 36 Z " /><path fill="rgb(175,246,253)" stroke="rgb(175,246,253)" stroke-width="1" opacity="1" d="M 4.5 47 L 8 47.5 L 4.5 48 L 4.5 47 Z " /><path fill="rgb(176,124,53)" stroke="rgb(176,124,53)" stroke-width="1" opacity="1" d="M 2.5 6 L 7 7.5 L 4.5 8 L 2.5 6 Z " /><path fill="rgb(176,124,53)" stroke="rgb(176,124,53)" stroke-width="1" opacity="1" d="M 8.5 8 L 11 9.5 L 9.5 9 L 8.5 8 Z " /><path fill="rgb(176,124,53)" stroke="rgb(176,124,53)" stroke-width="1" opacity="1" d="M 16.5 11 L 19 12.5 L 17.5 13 L 16.5 11 Z " /><path fill="rgb(176,124,53)" stroke="rgb(176,124,53)" stroke-width="1" opacity="1" d="M 15.5 15 L 19 16.5 L 17.5 16 Q 14.5 16.5 15.5 15 Z " /><path fill="rgb(176,124,53)" stroke="rgb(176,124,53)" stroke-width="1" opacity="1" d="M 2.5 16 L 3.5 18 L 2.5 16 Z " /><path fill="rgb(176,124,53)" stroke="rgb(176,124,53)" stroke-width="1" opacity="1" d="M 9.5 26 L 12 27.5 L 10.5 27 L 9.5 26 Z " /><path fill="rgb(176,124,53)" stroke="rgb(176,124,53)" stroke-width="1" opacity="1" d="M 15.5 28 L 16.5 30 L 15.5 28 Z " /><path fill="rgb(176,124,53)" stroke="rgb(176,124,53)" stroke-width="1" opacity="1" d="M 9.5 40 L 12 41.5 L 10.5 42 L 9.5 40 Z " /><path fill="rgb(176,124,53)" stroke="rgb(176,124,53)" stroke-width="1" opacity="1" d="M 15.5 43 L 18 44.5 L 16.5 44 L 15.5 43 Z " /><path fill="rgb(176,124,53)" stroke="rgb(176,124,53)" stroke-width="1" opacity="1" d="M 27.5 44 L 26.5 46 L 25 45.5 L 27.5 44 Z " /><path fill="rgb(176,124,53)" stroke="rgb(176,124,53)" stroke-width="1" opacity="1" d="M 21.5 45 L 22.5 47 Q 19.7 47.7 21.5 45 Z " /><path fill="rgb(111,121,103)" stroke="rgb(111,121,103)" stroke-width="1" opacity="1" d="M 16.5 12 L 17.5 14 L 16.5 12 Z " /><path fill="rgb(111,121,103)" stroke="rgb(111,121,103)" stroke-width="1" opacity="1" d="M 26 15 L 28 15.5 L 26 16.5 L 26 15 Z " /><path fill="rgb(111,121,103)" stroke="rgb(111,121,103)" stroke-width="1" opacity="1" d="M 20.5 17 L 23 18.5 L 21.5 19 L 20.5 17 Z " /><path fill="rgb(111,121,103)" stroke="rgb(111,121,103)" stroke-width="1" opacity="1" d="M 12 28 L 14 28.5 L 12 29.5 L 12 28 Z " /><path fill="rgb(111,121,103)" stroke="rgb(111,121,103)" stroke-width="1" opacity="1" d="M 19.5 39 L 18.5 41 L 19.5 39 Z " /><path fill="rgb(111,121,103)" stroke="rgb(111,121,103)" stroke-width="1" opacity="1" d="M 5.5 41 L 6.5 43 L 4 42.5 L 5.5 41 Z " /><path fill="rgb(111,121,103)" stroke="rgb(111,121,103)" stroke-width="1" opacity="1" d="M 19.5 43 L 20.5 45 L 19.5 43 Z " /><path fill="rgb(111,121,103)" stroke="rgb(111,121,103)" stroke-width="1" opacity="1" d="M 26.5 46 Q 28.8 45.3 28 47.5 L 25 47.5 L 26.5 46 Z " /><path fill="rgb(184,247,254)" stroke="rgb(184,247,254)" stroke-width="1" opacity="1" d="M 25.5 7 Q 28.9 6.1 27 11.5 L 26 11.5 L 25.5 7 Z " /><path fill="rgb(184,247,254)" stroke="rgb(184,247,254)" stroke-width="1" opacity="1" d="M 15 8 L 18.5 9 Q 20 6.5 21.5 10 L 25 11 Q 26 14 23 13 L 22.5 11 L 21 11.5 L 20.5 10 L 15 10 L 15 8 Z " /><path fill="rgb(184,247,254)" stroke="rgb(184,247,254)" stroke-width="1" opacity="1" d="M 10 22 Q 13 21 12 24 Q 9 25 10 22 Z " /><path fill="rgb(184,247,254)" stroke="rgb(184,247,254)" stroke-width="1" opacity="1" d="M 22.5 22 L 25 24.5 L 24 27.5 L 25.5 29 L 27 28.5 L 26 31 L 21 29.5 L 23.5 24 L 21.5 25 L 22 23.5 L 22.5 22 Z " /><path fill="rgb(184,247,254)" stroke="rgb(184,247,254)" stroke-width="1" opacity="1" d="M 15 24 Q 19.5 22.3 18 27.5 L 15 25.5 L 15 24 Z " /><path fill="rgb(184,247,254)" stroke="rgb(184,247,254)" stroke-width="1" opacity="1" d="M 15.5 34 L 18 34.5 L 11.5 37 L 12.5 35 L 15.5 34 Z " /><path fill="rgb(184,247,254)" stroke="rgb(184,247,254)" stroke-width="1" opacity="1" d="M 21.5 36 L 23.5 37 L 25 36.5 L 24 39 L 22 38.5 L 22.5 37 L 21.5 36 Z " /><path fill="rgb(184,247,254)" stroke="rgb(184,247,254)" stroke-width="1" opacity="1" d="M 25.5 38 L 28 38.5 L 25.5 39 L 25.5 38 Z " /><path fill="rgb(148,179,170)" stroke="rgb(148,179,170)" stroke-width="1" opacity="1" d="M 2.5 1 L 5 1.5 L 2.5 2 L 2.5 1 Z " /><path fill="rgb(148,179,170)" stroke="rgb(148,179,170)" stroke-width="1" opacity="1" d="M 13.5 2 L 14.5 4 L 13.5 2 Z " /><path fill="rgb(148,179,170)" stroke="rgb(148,179,170)" stroke-width="1" opacity="1" d="M 11.5 8 L 12.5 10 L 11.5 8 Z " /><path fill="rgb(148,179,170)" stroke="rgb(148,179,170)" stroke-width="1" opacity="1" d="M 9.5 13 L 11 15.5 L 9 16.5 L 9 14.5 L 9.5 13 Z " /><path fill="rgb(148,179,170)" stroke="rgb(148,179,170)" stroke-width="1" opacity="1" d="M 18.5 15 L 17.5 17 L 18.5 15 Z " /><path fill="rgb(148,179,170)" stroke="rgb(148,179,170)" stroke-width="1" opacity="1" d="M 5.5 17 L 4.5 19 L 5.5 17 Z " /><path fill="rgb(148,179,170)" stroke="rgb(148,179,170)" stroke-width="1" opacity="1" d="M 7.5 26 L 7 27.5 L 6.5 29 L 6 27.5 L 7.5 26 Z " /><path fill="rgb(148,179,170)" stroke="rgb(148,179,170)" stroke-width="1" opacity="1" d="M 10.5 27 L 12 30.5 L 11 30.5 L 10.5 27 Z " /><path fill="rgb(148,179,170)" stroke="rgb(148,179,170)" stroke-width="1" opacity="1" d="M 15.5 29 L 13.5 32 L 15.5 29 Z " /><path fill="rgb(148,179,170)" stroke="rgb(148,179,170)" stroke-width="1" opacity="1" d="M 24.5 31 L 25 33 L 23 32.5 L 24.5 31 Z " /><path fill="rgb(148,179,170)" stroke="rgb(148,179,170)" stroke-width="1" opacity="1" d="M 10.5 36 L 9.5 38 L 10.5 36 Z " /><path fill="rgb(148,179,170)" stroke="rgb(148,179,170)" stroke-width="1" opacity="1" d="M 7.5 39 L 6.5 41 L 7.5 39 Z " /><path fill="rgb(148,179,170)" stroke="rgb(148,179,170)" stroke-width="1" opacity="1" d="M 14.5 39 L 15.5 41 Q 12.7 41.7 14.5 39 Z " /><path fill="rgb(148,179,170)" stroke="rgb(148,179,170)" stroke-width="1" opacity="1" d="M 18.5 39 L 17.5 41 L 18.5 39 Z " /><path fill="rgb(148,179,170)" stroke="rgb(148,179,170)" stroke-width="1" opacity="1" d="M 9.5 41 L 8.5 43 L 9.5 41 Z " /><path fill="rgb(148,179,170)" stroke="rgb(148,179,170)" stroke-width="1" opacity="1" d="M 11.5 42 L 14.5 43 L 16 42.5 L 15.5 44 L 17.5 43 L 16.5 45 Q 11.5 44.8 11.5 42 Z " /><path fill="rgb(148,179,170)" stroke="rgb(148,179,170)" stroke-width="1" opacity="1" d="M 20.5 43 L 21.5 45 L 20.5 43 Z " /><path fill="rgb(179,245,251)" stroke="rgb(179,245,251)" stroke-width="1" opacity="1" d="M 16.5 1 L 19 1.5 L 16.5 2 L 16.5 1 Z " /><path fill="rgb(179,245,251)" stroke="rgb(179,245,251)" stroke-width="1" opacity="1" d="M 7.5 13 L 8.5 15 L 7.5 13 Z " /><path fill="rgb(194,166,91)" stroke="rgb(194,166,91)" stroke-width="1" opacity="1" d="M 6.5 11 L 9 12.5 L 7.5 12 L 6.5 11 Z " /><path fill="rgb(194,166,91)" stroke="rgb(194,166,91)" stroke-width="1" opacity="1" d="M 16.5 28 L 19 29.5 L 17.5 30 L 16.5 28 Z " /><path fill="rgb(194,166,91)" stroke="rgb(194,166,91)" stroke-width="1" opacity="1" d="M 20.5 30 L 23 31.5 L 21.5 32 L 20.5 30 Z " /><path fill="rgb(194,166,91)" stroke="rgb(194,166,91)" stroke-width="1" opacity="1" d="M 20.5 40 L 23 41.5 L 21.5 42 L 20.5 40 Z " /><path fill="rgb(194,166,91)" stroke="rgb(194,166,91)" stroke-width="1" opacity="1" d="M 2 43 L 4 43.5 L 2 44.5 L 2 43 Z " /><path fill="rgb(194,166,91)" stroke="rgb(194,166,91)" stroke-width="1" opacity="1" d="M 8.5 43 L 10 45.5 L 7.5 46 L 6 45.5 L 8 45 L 8.5 43 Z " /><path fill="rgb(194,166,91)" stroke="rgb(194,166,91)" stroke-width="1" opacity="1" d="M 11 44 Q 14 43 13 46 Q 10 47 11 44 Z " /><path fill="rgb(194,166,91)" stroke="rgb(194,166,91)" stroke-width="1" opacity="1" d="M 18.5 44 L 21 45.5 L 18.5 47 L 18.5 44 Z " /><path fill="rgb(194,166,91)" stroke="rgb(194,166,91)" stroke-width="1" opacity="1" d="M 25.5 44 L 27 44.5 L 24.5 46 L 25.5 44 Z " /><path fill="rgb(192,244,247)" stroke="rgb(192,244,247)" stroke-width="1" opacity="1" d="M 25.5 36 L 28 36.5 L 25.5 37 L 25.5 36 Z " /></svg>