<svg width="30" height="50" version="1.1" xmlns="http://www.w3.org/2000/svg" desc="Created with imagetracer.js version 1.2.6" ><path fill="rgb(140,208,222)" stroke="rgb(140,208,222)" stroke-width="1" opacity="1" d="M 2 2 L 27.5 2 L 28 2.5 L 28 8 L 25.5 9 L 23 7.5 L 23.5 6 L 21 7.5 L 20 9.5 L 21 14 L 17 15.5 L 16.5 17 L 16 15.5 L 16 13.5 Q 14.3 7.3 17 5.5 L 14 4 L 14 10 L 8.5 10 Q 5.8 11.3 8 12.5 L 7.5 14 L 6 10.5 L 6.5 9 L 4.5 10 L 3.5 5 L 2.5 9 L 2 2 Z M 9 8 L 9 9 L 11 9 L 9 8 Z " /><path fill="rgb(140,208,222)" stroke="rgb(140,208,222)" stroke-width="1" opacity="1" d="M 13.5 11 L 14 18.5 L 13 18.5 L 13.5 11 Z " /><path fill="rgb(140,208,222)" stroke="rgb(140,208,222)" stroke-width="1" opacity="1" d="M 7.5 16 L 8 35.5 L 7 35.5 L 7.5 16 Z " /><path fill="rgb(140,208,222)" stroke="rgb(140,208,222)" stroke-width="1" opacity="1" d="M 13.5 20 L 14 23.5 L 13 23.5 L 13.5 20 Z " /><path fill="rgb(140,208,222)" stroke="rgb(140,208,222)" stroke-width="1" opacity="1" d="M 10.5 22 L 11 31.5 L 10 31.5 L 10.5 22 Z " /><path fill="rgb(140,208,222)" stroke="rgb(140,208,222)" stroke-width="1" opacity="1" d="M 13.5 25 L 14 36.5 L 13 36.5 L 13.5 25 Z " /><path fill="rgb(140,208,222)" stroke="rgb(140,208,222)" stroke-width="1" opacity="1" d="M 10.5 34 L 11 36.5 L 10 36.5 L 10.5 34 Z " /><path fill="rgb(140,208,222)" stroke="rgb(140,208,222)" stroke-width="1" opacity="1" d="M 23.5 41 Q 28.9 39.1 28 42.5 L 26.5 42 Q 22.5 42.8 23.5 41 Z " /><path fill="rgb(140,208,222)" stroke="rgb(140,208,222)" stroke-width="1" opacity="1" d="M 2 42 L 8.5 42 L 9 43.5 L 6.5 47 L 4.5 46 L 2 47.5 L 2 42 Z " /><path fill="rgb(77,108,113)" stroke="rgb(77,108,113)" stroke-width="1" opacity="1" d="M 14.5 9 Q 16.8 8.3 16 10.5 L 13 11.5 L 12.5 13 L 12 10 L 14.5 9 Z " /><path fill="rgb(77,108,113)" stroke="rgb(77,108,113)" stroke-width="1" opacity="1" d="M 5.5 11 L 4.5 13 L 5.5 11 Z " /><path fill="rgb(77,108,113)" stroke="rgb(77,108,113)" stroke-width="1" opacity="1" d="M 13.5 19 Q 16.1 18.2 15 21.5 L 14 21.5 L 13.5 19 Z " /><path fill="rgb(77,108,113)" stroke="rgb(77,108,113)" stroke-width="1" opacity="1" d="M 11 32 Q 14 30.8 13 34.5 L 11 33.5 L 11 32 Z " /><path fill="rgb(244,242,241)" stroke="rgb(244,242,241)" stroke-width="1" opacity="1" d="M 0 0 L 30 0 L 30 50 L 0 50 L 0 0 Z M 2 2 L 2 49 L 5 49 L 4 48 L 4 45 L 7 47 L 9 44 L 10 42 L 17 42 L 14 47 L 17 48 Q 20 49 19 46 L 24 47 L 22 45 L 23 42 L 26 42 Q 25 45 28 44 L 28 2 L 2 2 Z " /><path fill="rgb(64,32,21)" stroke="rgb(64,32,21)" stroke-width="1" opacity="1" d="M 22.5 10 L 25 10.5 L 22.5 11 L 22.5 10 Z " /><path fill="rgb(64,32,21)" stroke="rgb(64,32,21)" stroke-width="1" opacity="1" d="M 5 14 Q 7.7 12.9 7 15.5 L 5.5 20 L 5 14 Z " /><path fill="rgb(64,32,21)" stroke="rgb(64,32,21)" stroke-width="1" opacity="1" d="M 23.5 25 L 22.5 27 L 23.5 25 Z " /><path fill="rgb(64,32,21)" stroke="rgb(64,32,21)" stroke-width="1" opacity="1" d="M 2.5 37 L 3.5 39 L 2.5 37 Z " /><path fill="rgb(64,32,21)" stroke="rgb(64,32,21)" stroke-width="1" opacity="1" d="M 19.5 37 L 20.5 39 L 19.5 37 Z " /><path fill="rgb(64,32,21)" stroke="rgb(64,32,21)" stroke-width="1" opacity="1" d="M 18.5 43 L 17.5 45 L 18.5 43 Z " /><path fill="rgb(76,74,67)" stroke="rgb(76,74,67)" stroke-width="1" opacity="1" d="M 24.5 11 L 25.5 13 L 24.5 11 Z " /><path fill="rgb(76,74,67)" stroke="rgb(76,74,67)" stroke-width="1" opacity="1" d="M 24.5 14 L 27 15.5 L 25.5 15 L 24.5 14 Z " /><path fill="rgb(76,74,67)" stroke="rgb(76,74,67)" stroke-width="1" opacity="1" d="M 6.5 16 L 7 18.5 L 6 18.5 L 6.5 16 Z " /><path fill="rgb(76,74,67)" stroke="rgb(76,74,67)" stroke-width="1" opacity="1" d="M 25.5 26 L 24.5 28 L 25.5 26 Z " /><path fill="rgb(76,74,67)" stroke="rgb(76,74,67)" stroke-width="1" opacity="1" d="M 6.5 31 L 7 36.5 L 6 36.5 L 6.5 31 Z " /><path fill="rgb(76,74,67)" stroke="rgb(76,74,67)" stroke-width="1" opacity="1" d="M 2.5 41 L 9 41.5 L 2.5 42 L 2.5 41 Z " /><path fill="rgb(76,74,67)" stroke="rgb(76,74,67)" stroke-width="1" opacity="1" d="M 18.5 45 L 17.5 47 L 18.5 45 Z " /><path fill="rgb(132,135,123)" stroke="rgb(132,135,123)" stroke-width="1" opacity="1" d="M 14 11 L 16 11.5 L 14.5 14 L 14 11 Z " /><path fill="rgb(132,135,123)" stroke="rgb(132,135,123)" stroke-width="1" opacity="1" d="M 22.5 12 L 25 12.5 L 23.5 15 L 22.5 12 Z " /><path fill="rgb(132,135,123)" stroke="rgb(132,135,123)" stroke-width="1" opacity="1" d="M 11.5 13 Q 14.3 14.3 12 15.5 L 10.5 19 L 11 17.5 L 12 14.5 L 11.5 13 Z " /><path fill="rgb(132,135,123)" stroke="rgb(132,135,123)" stroke-width="1" opacity="1" d="M 12.5 20 L 13 23.5 L 13 25.5 L 11.5 32 L 11 29.5 L 12 25.5 L 12 23.5 L 12.5 20 Z " /><path fill="rgb(132,135,123)" stroke="rgb(132,135,123)" stroke-width="1" opacity="1" d="M 26.5 20 L 27.5 22 L 26.5 20 Z " /><path fill="rgb(132,135,123)" stroke="rgb(132,135,123)" stroke-width="1" opacity="1" d="M 15.5 26 L 15 27.5 L 14.5 31 L 14 27.5 L 15.5 26 Z " /><path fill="rgb(132,135,123)" stroke="rgb(132,135,123)" stroke-width="1" opacity="1" d="M 11.5 34 Q 14.5 35.5 11.5 37 L 11.5 34 Z " /><path fill="rgb(132,135,123)" stroke="rgb(132,135,123)" stroke-width="1" opacity="1" d="M 19.5 42 L 20 44.5 L 19 44.5 L 19.5 42 Z " /><path fill="rgb(132,135,123)" stroke="rgb(132,135,123)" stroke-width="1" opacity="1" d="M 16.5 44 L 15.5 46 L 16.5 44 Z " /><path fill="rgb(114,33,18)" stroke="rgb(114,33,18)" stroke-width="1" opacity="1" d="M 3.5 9 L 4 12.5 L 3 12.5 L 3.5 9 Z " /><path fill="rgb(114,33,18)" stroke="rgb(114,33,18)" stroke-width="1" opacity="1" d="M 17.5 19 L 18.5 21 Q 15.7 21.7 17.5 19 Z " /><path fill="rgb(114,33,18)" stroke="rgb(114,33,18)" stroke-width="1" opacity="1" d="M 19.5 25 L 22 25.5 Q 22.7 28.5 19 27 L 19.5 25 Z " /><path fill="rgb(114,33,18)" stroke="rgb(114,33,18)" stroke-width="1" opacity="1" d="M 19 29 Q 23.1 27.3 22 31.5 L 21.5 34 L 18.5 35 L 18 33.5 L 19 29 Z " /><path fill="rgb(108,96,81)" stroke="rgb(108,96,81)" stroke-width="1" opacity="1" d="M 21.5 10 L 22 12.5 L 21 12.5 L 21.5 10 Z " /><path fill="rgb(108,96,81)" stroke="rgb(108,96,81)" stroke-width="1" opacity="1" d="M 16.5 22 L 15.5 24 L 16.5 22 Z " /><path fill="rgb(108,96,81)" stroke="rgb(108,96,81)" stroke-width="1" opacity="1" d="M 26.5 23 L 27 24.5 L 24 26.5 L 26.5 23 Z " /><path fill="rgb(108,96,81)" stroke="rgb(108,96,81)" stroke-width="1" opacity="1" d="M 16.5 26 L 16 27.5 L 15.5 29 L 15 27.5 L 16.5 26 Z " /><path fill="rgb(50,60,59)" stroke="rgb(50,60,59)" stroke-width="1" opacity="1" d="M 6.5 28 L 7 30.5 L 6 30.5 L 6.5 28 Z " /><path fill="rgb(130,113,106)" stroke="rgb(130,113,106)" stroke-width="1" opacity="1" d="M 15.5 15 L 16 17 L 14 16.5 L 15.5 15 Z " /><path fill="rgb(130,113,106)" stroke="rgb(130,113,106)" stroke-width="1" opacity="1" d="M 15 20 L 17 20.5 L 15.5 23 L 15 20 Z " /><path fill="rgb(130,113,106)" stroke="rgb(130,113,106)" stroke-width="1" opacity="1" d="M 24.5 28 L 23.5 30 L 24.5 28 Z " /><path fill="rgb(130,113,106)" stroke="rgb(130,113,106)" stroke-width="1" opacity="1" d="M 15.5 46 L 18 47.5 L 16.5 47 L 15.5 46 Z " /><path fill="rgb(206,80,33)" stroke="rgb(206,80,33)" stroke-width="1" opacity="1" d="M 18.5 24 L 19 27 L 17 26.5 L 18.5 24 Z " /><path fill="rgb(206,80,33)" stroke="rgb(206,80,33)" stroke-width="1" opacity="1" d="M 17.5 29 L 19 29 L 19 33 L 15 31.5 L 17.5 29 Z " /><path fill="rgb(129,162,164)" stroke="rgb(129,162,164)" stroke-width="1" opacity="1" d="M 16.5 5 L 15.5 7 L 14 6.5 L 16.5 5 Z " /><path fill="rgb(129,162,164)" stroke="rgb(129,162,164)" stroke-width="1" opacity="1" d="M 23.5 6 L 22.5 8 L 23.5 6 Z " /><path fill="rgb(129,162,164)" stroke="rgb(129,162,164)" stroke-width="1" opacity="1" d="M 27.5 8 L 26.5 10 L 27.5 8 Z " /><path fill="rgb(129,162,164)" stroke="rgb(129,162,164)" stroke-width="1" opacity="1" d="M 2.5 9 L 3 14.5 L 2 14.5 L 2.5 9 Z " /><path fill="rgb(129,162,164)" stroke="rgb(129,162,164)" stroke-width="1" opacity="1" d="M 8.5 10 L 9 12.5 L 8.5 28 L 8 12.5 L 7 11.5 L 8.5 10 Z " /><path fill="rgb(129,162,164)" stroke="rgb(129,162,164)" stroke-width="1" opacity="1" d="M 11.5 11 L 12 12.5 L 10 13.5 L 11.5 11 Z " /><path fill="rgb(129,162,164)" stroke="rgb(129,162,164)" stroke-width="1" opacity="1" d="M 27.5 11 L 28 15.5 L 27 15.5 L 27.5 11 Z " /><path fill="rgb(129,162,164)" stroke="rgb(129,162,164)" stroke-width="1" opacity="1" d="M 4.5 14 L 5 18.5 L 4 18.5 L 4.5 14 Z " /><path fill="rgb(129,162,164)" stroke="rgb(129,162,164)" stroke-width="1" opacity="1" d="M 18.5 14 L 19 15.5 L 16 17.5 L 18.5 14 Z " /><path fill="rgb(129,162,164)" stroke="rgb(129,162,164)" stroke-width="1" opacity="1" d="M 2.5 17 L 3 35.5 L 2 35.5 L 2.5 17 Z " /><path fill="rgb(129,162,164)" stroke="rgb(129,162,164)" stroke-width="1" opacity="1" d="M 11.5 19 L 12 23.5 L 11 23.5 L 10 21.5 L 11.5 19 Z " /><path fill="rgb(129,162,164)" stroke="rgb(129,162,164)" stroke-width="1" opacity="1" d="M 4.5 21 L 5 36.5 L 4 36.5 L 4.5 21 Z " /><path fill="rgb(129,162,164)" stroke="rgb(129,162,164)" stroke-width="1" opacity="1" d="M 27.5 22 L 28 24.5 L 27 24.5 L 27.5 22 Z " /><path fill="rgb(129,162,164)" stroke="rgb(129,162,164)" stroke-width="1" opacity="1" d="M 14.5 23 L 15 25 L 13 24.5 L 14.5 23 Z " /><path fill="rgb(129,162,164)" stroke="rgb(129,162,164)" stroke-width="1" opacity="1" d="M 11.5 25 L 12 28.5 L 11 28.5 L 11.5 25 Z " /><path fill="rgb(129,162,164)" stroke="rgb(129,162,164)" stroke-width="1" opacity="1" d="M 8.5 29 L 9 35.5 L 7 36.5 L 8.5 29 Z " /><path fill="rgb(129,162,164)" stroke="rgb(129,162,164)" stroke-width="1" opacity="1" d="M 26.5 29 L 27 35.5 L 26 35.5 L 26.5 29 Z " /><path fill="rgb(129,162,164)" stroke="rgb(129,162,164)" stroke-width="1" opacity="1" d="M 24.5 33 L 25 36.5 L 24 36.5 L 24.5 33 Z " /><path fill="rgb(129,162,164)" stroke="rgb(129,162,164)" stroke-width="1" opacity="1" d="M 12.5 41 L 16 41.5 L 12.5 42 L 12.5 41 Z " /><path fill="rgb(79,59,27)" stroke="rgb(79,59,27)" stroke-width="1" opacity="1" d="M 22.5 14 L 21.5 16 L 22.5 14 Z " /><path fill="rgb(79,59,27)" stroke="rgb(79,59,27)" stroke-width="1" opacity="1" d="M 20.5 23 L 21.5 25 Q 18.7 25.7 20.5 23 Z " /><path fill="rgb(79,59,27)" stroke="rgb(79,59,27)" stroke-width="1" opacity="1" d="M 18.5 36 L 19 39.5 L 18 39.5 L 18.5 36 Z " /><path fill="rgb(79,59,27)" stroke="rgb(79,59,27)" stroke-width="1" opacity="1" d="M 6.5 37 L 7 40.5 L 6 40.5 L 6.5 37 Z " /><path fill="rgb(79,59,27)" stroke="rgb(79,59,27)" stroke-width="1" opacity="1" d="M 12.5 37 Q 16.3 35.8 15 39.5 L 14 39.5 Q 14.8 37.3 12.5 38 L 12.5 37 Z " /><path fill="rgb(79,59,27)" stroke="rgb(79,59,27)" stroke-width="1" opacity="1" d="M 22.5 37 L 24 40 L 21 38.5 L 22.5 37 Z " /><path fill="rgb(79,59,27)" stroke="rgb(79,59,27)" stroke-width="1" opacity="1" d="M 17.5 41 L 18.5 43 L 17.5 41 Z " /><path fill="rgb(142,87,37)" stroke="rgb(142,87,37)" stroke-width="1" opacity="1" d="M 23.5 20 L 22.5 22 L 23.5 20 Z " /><path fill="rgb(142,87,37)" stroke="rgb(142,87,37)" stroke-width="1" opacity="1" d="M 16.5 23 L 18 25.5 L 16 24.5 L 16.5 23 Z " /><path fill="rgb(142,87,37)" stroke="rgb(142,87,37)" stroke-width="1" opacity="1" d="M 16.5 29 L 15.5 31 L 16.5 29 Z " /><path fill="rgb(142,87,37)" stroke="rgb(142,87,37)" stroke-width="1" opacity="1" d="M 17.5 33 L 19 35.5 L 17.5 35 L 16 34.5 L 17.5 33 Z " /><path fill="rgb(142,87,37)" stroke="rgb(142,87,37)" stroke-width="1" opacity="1" d="M 11.5 37 L 13 41 Q 9.2 42.2 11.5 37 Z " /><path fill="rgb(142,87,37)" stroke="rgb(142,87,37)" stroke-width="1" opacity="1" d="M 17.5 37 L 16.5 39 L 17.5 37 Z " /><path fill="rgb(142,87,37)" stroke="rgb(142,87,37)" stroke-width="1" opacity="1" d="M 20.5 39 L 21.5 41 Q 18.7 41.7 20.5 39 Z " /><path fill="rgb(31,19,13)" stroke="rgb(31,19,13)" stroke-width="1" opacity="1" d="M 22.5 15 L 25 15.5 L 21.5 17 L 22.5 15 Z " /><path fill="rgb(31,19,13)" stroke="rgb(31,19,13)" stroke-width="1" opacity="1" d="M 25.5 17 L 26 20.5 L 25 20.5 L 25.5 17 Z " /><path fill="rgb(31,19,13)" stroke="rgb(31,19,13)" stroke-width="1" opacity="1" d="M 4.5 19 L 5.5 21 L 4.5 19 Z " /><path fill="rgb(31,19,13)" stroke="rgb(31,19,13)" stroke-width="1" opacity="1" d="M 19.5 27 Q 23.3 26 22 29 L 18 28.5 L 19.5 27 Z " /><path fill="rgb(31,19,13)" stroke="rgb(31,19,13)" stroke-width="1" opacity="1" d="M 27.5 36 L 28 40.5 L 27 40.5 L 27.5 36 Z " /><path fill="rgb(31,19,13)" stroke="rgb(31,19,13)" stroke-width="1" opacity="1" d="M 15 37 L 17 37.5 L 15 38.5 L 15 37 Z " /><path fill="rgb(31,19,13)" stroke="rgb(31,19,13)" stroke-width="1" opacity="1" d="M 19.5 39 L 20 42 Q 17.3 43.1 18 40.5 L 19.5 39 Z " /><path fill="rgb(186,159,69)" stroke="rgb(186,159,69)" stroke-width="1" opacity="1" d="M 18.5 16 L 22 17 L 24 23.5 L 22 22.5 L 22 20.5 L 22 19 L 17 19 L 17 17.5 L 18.5 16 Z " /><path fill="rgb(186,159,69)" stroke="rgb(186,159,69)" stroke-width="1" opacity="1" d="M 18.5 22 L 20 24.5 L 17 24.5 L 18.5 22 Z " /><path fill="rgb(186,159,69)" stroke="rgb(186,159,69)" stroke-width="1" opacity="1" d="M 23.5 26 L 24 28.5 L 23 28.5 L 23.5 26 Z " /><path fill="rgb(186,159,69)" stroke="rgb(186,159,69)" stroke-width="1" opacity="1" d="M 25.5 28 L 26 30.5 L 25 30.5 L 25.5 28 Z " /><path fill="rgb(186,159,69)" stroke="rgb(186,159,69)" stroke-width="1" opacity="1" d="M 20 35 Q 23 33.8 22 37.5 Q 24.3 38.8 21.5 40 L 21.5 38 Q 18.5 38.7 20 35 Z " /><path fill="rgb(186,159,69)" stroke="rgb(186,159,69)" stroke-width="1" opacity="1" d="M 8.5 36 L 10 36.5 L 9 38.5 L 11 38.5 L 10.5 41 L 8.5 41 Q 5.5 41.9 7 37.5 L 8.5 36 Z " /><path fill="rgb(186,159,69)" stroke="rgb(186,159,69)" stroke-width="1" opacity="1" d="M 24.5 37 Q 28.7 35.7 27 40.5 L 26 40.5 Q 27.1 37.2 24.5 38 L 24.5 37 Z " /><path fill="rgb(186,159,69)" stroke="rgb(186,159,69)" stroke-width="1" opacity="1" d="M 2.5 38 L 3 40.5 L 2 40.5 L 2.5 38 Z " /><path fill="rgb(186,159,69)" stroke="rgb(186,159,69)" stroke-width="1" opacity="1" d="M 4.5 38 L 5 40.5 L 4 40.5 L 4.5 38 Z " /><path fill="rgb(186,159,69)" stroke="rgb(186,159,69)" stroke-width="1" opacity="1" d="M 13.5 38 L 14 40 L 17 40.5 L 13 41 L 13.5 38 Z " /><path fill="rgb(186,159,69)" stroke="rgb(186,159,69)" stroke-width="1" opacity="1" d="M 24.5 39 L 25 41 L 23 40.5 L 24.5 39 Z " /><path fill="rgb(186,159,69)" stroke="rgb(186,159,69)" stroke-width="1" opacity="1" d="M 20 41 L 22 41.5 L 21 43.5 L 22.5 46 L 20 46 L 20 41 Z " /></svg>