<svg width="30" height="50" version="1.1" xmlns="http://www.w3.org/2000/svg" desc="Created with imagetracer.js version 1.2.6" ><path fill="rgb(132,139,135)" stroke="rgb(132,139,135)" stroke-width="1" opacity="1" d="M 14.5 3 L 18.5 5 L 20 4.5 L 19 7 L 16.5 6 L 15 6.5 L 14.5 3 Z " /><path fill="rgb(132,139,135)" stroke="rgb(132,139,135)" stroke-width="1" opacity="1" d="M 22.5 4 L 23.5 6 L 22.5 4 Z " /><path fill="rgb(132,139,135)" stroke="rgb(132,139,135)" stroke-width="1" opacity="1" d="M 13.5 5 L 12.5 7 L 13.5 5 Z " /><path fill="rgb(132,139,135)" stroke="rgb(132,139,135)" stroke-width="1" opacity="1" d="M 15.5 8 Q 17.8 7.3 17 9.5 L 16.5 12 Q 14.3 12.8 15 10.5 L 15.5 8 Z " /><path fill="rgb(132,139,135)" stroke="rgb(132,139,135)" stroke-width="1" opacity="1" d="M 5.5 9 L 8 9.5 Q 5.9 12.8 5.5 9 Z " /><path fill="rgb(132,139,135)" stroke="rgb(132,139,135)" stroke-width="1" opacity="1" d="M 9.5 9 L 10.5 11 L 9.5 9 Z " /><path fill="rgb(132,139,135)" stroke="rgb(132,139,135)" stroke-width="1" opacity="1" d="M 13.5 11 L 14 13 L 16 13.5 L 15 17 L 11.5 18 L 10 15.5 L 11 13.5 L 10.5 12 Q 12 14.5 13.5 11 Z M 12 13 L 12 15 L 14 16 Q 15 12 12 13 Z " /><path fill="rgb(132,139,135)" stroke="rgb(132,139,135)" stroke-width="1" opacity="1" d="M 13.5 29 L 14 33.5 L 13 33.5 L 13.5 29 Z " /><path fill="rgb(132,139,135)" stroke="rgb(132,139,135)" stroke-width="1" opacity="1" d="M 16.5 29 L 17 32.5 L 13.5 38 L 14 36.5 L 16.5 29 Z " /><path fill="rgb(132,139,135)" stroke="rgb(132,139,135)" stroke-width="1" opacity="1" d="M 6.5 36 L 4.5 39 L 6.5 36 Z " /><path fill="rgb(132,139,135)" stroke="rgb(132,139,135)" stroke-width="1" opacity="1" d="M 9.5 48 L 14 48.5 L 9.5 49 L 9.5 48 Z " /><path fill="rgb(91,93,86)" stroke="rgb(91,93,86)" stroke-width="1" opacity="1" d="M 22.5 3 L 21.5 5 L 22.5 3 Z " /><path fill="rgb(91,93,86)" stroke="rgb(91,93,86)" stroke-width="1" opacity="1" d="M 9.5 8 L 10.5 10 L 9 9.5 L 8.5 11 L 8 9.5 L 9.5 8 Z " /><path fill="rgb(91,93,86)" stroke="rgb(91,93,86)" stroke-width="1" opacity="1" d="M 13.5 9 L 14 11 L 12 10.5 L 13.5 9 Z " /><path fill="rgb(91,93,86)" stroke="rgb(91,93,86)" stroke-width="1" opacity="1" d="M 10.5 13 L 12 15.5 L 10 14.5 L 10.5 13 Z " /><path fill="rgb(91,93,86)" stroke="rgb(91,93,86)" stroke-width="1" opacity="1" d="M 21.5 21 L 22 24 L 20 23.5 L 21.5 21 Z " /><path fill="rgb(91,93,86)" stroke="rgb(91,93,86)" stroke-width="1" opacity="1" d="M 20 38 L 22 38.5 L 21.5 41 L 20 38 Z " /><path fill="rgb(91,93,86)" stroke="rgb(91,93,86)" stroke-width="1" opacity="1" d="M 2.5 48 L 9 48.5 L 2.5 49 L 2.5 48 Z " /><path fill="rgb(145,50,28)" stroke="rgb(145,50,28)" stroke-width="1" opacity="1" d="M 16.5 14 L 17 16.5 L 15 17.5 L 16.5 14 Z " /><path fill="rgb(145,50,28)" stroke="rgb(145,50,28)" stroke-width="1" opacity="1" d="M 19.5 16 L 21 18.5 L 19 19 L 19.5 16 Z " /><path fill="rgb(145,50,28)" stroke="rgb(145,50,28)" stroke-width="1" opacity="1" d="M 9.5 26 L 11 26.5 L 9 27 L 8.5 29 L 8 27.5 L 9.5 26 Z " /><path fill="rgb(145,50,28)" stroke="rgb(145,50,28)" stroke-width="1" opacity="1" d="M 9.5 31 L 8.5 33 L 9.5 31 Z " /><path fill="rgb(145,50,28)" stroke="rgb(145,50,28)" stroke-width="1" opacity="1" d="M 19.5 32 L 20 33.5 L 18 34.5 L 19.5 32 Z " /><path fill="rgb(145,50,28)" stroke="rgb(145,50,28)" stroke-width="1" opacity="1" d="M 15.5 35 L 18 36 L 19 38.5 L 17 39.5 L 15.5 35 Z " /><path fill="rgb(158,186,185)" stroke="rgb(158,186,185)" stroke-width="1" opacity="1" d="M 24.5 1 L 27 1.5 L 24.5 2 L 24.5 1 Z " /><path fill="rgb(158,186,185)" stroke="rgb(158,186,185)" stroke-width="1" opacity="1" d="M 23.5 3 L 24.5 5 L 23.5 3 Z " /><path fill="rgb(158,186,185)" stroke="rgb(158,186,185)" stroke-width="1" opacity="1" d="M 8.5 5 L 9 8.5 L 8 8.5 L 7 6.5 L 8.5 5 Z " /><path fill="rgb(158,186,185)" stroke="rgb(158,186,185)" stroke-width="1" opacity="1" d="M 21.5 5 Q 24.5 4.1 23 8.5 L 22 8.5 L 21.5 5 Z " /><path fill="rgb(158,186,185)" stroke="rgb(158,186,185)" stroke-width="1" opacity="1" d="M 3.5 6 L 4.5 8 L 3.5 6 Z " /><path fill="rgb(158,186,185)" stroke="rgb(158,186,185)" stroke-width="1" opacity="1" d="M 25 6 L 28 6.5 L 25 8.5 L 26 13.5 L 24.5 16 L 22.5 12 L 21.5 14 L 21 11.5 L 23 10.5 L 23.5 12 L 25 6 Z " /><path fill="rgb(158,186,185)" stroke="rgb(158,186,185)" stroke-width="1" opacity="1" d="M 10.5 7 Q 12.8 6.3 12 8.5 L 10.5 7 Z " /><path fill="rgb(158,186,185)" stroke="rgb(158,186,185)" stroke-width="1" opacity="1" d="M 19.5 7 L 20 9.5 L 19 9.5 L 19.5 7 Z " /><path fill="rgb(158,186,185)" stroke="rgb(158,186,185)" stroke-width="1" opacity="1" d="M 6.5 11 L 8 13.5 L 6 12.5 L 6.5 11 Z " /><path fill="rgb(158,186,185)" stroke="rgb(158,186,185)" stroke-width="1" opacity="1" d="M 17.5 11 L 18 15.5 L 17 15.5 L 17.5 11 Z " /><path fill="rgb(158,186,185)" stroke="rgb(158,186,185)" stroke-width="1" opacity="1" d="M 8.5 15 L 11 18.5 L 9 17.5 L 8.5 15 Z " /><path fill="rgb(158,186,185)" stroke="rgb(158,186,185)" stroke-width="1" opacity="1" d="M 22.5 15 L 24 18.5 L 22.5 21 L 20 16.5 L 21 16.5 L 22.5 19 L 23 17.5 L 22.5 15 Z " /><path fill="rgb(158,186,185)" stroke="rgb(158,186,185)" stroke-width="1" opacity="1" d="M 10.5 22 L 11 23.5 L 9 24.5 L 10.5 22 Z " /><path fill="rgb(158,186,185)" stroke="rgb(158,186,185)" stroke-width="1" opacity="1" d="M 19.5 25 L 21 30.5 L 20 30.5 L 19.5 25 Z " /><path fill="rgb(158,186,185)" stroke="rgb(158,186,185)" stroke-width="1" opacity="1" d="M 7.5 26 L 6.5 28 L 7.5 26 Z " /><path fill="rgb(158,186,185)" stroke="rgb(158,186,185)" stroke-width="1" opacity="1" d="M 5.5 29 L 5 30.5 L 7 35.5 L 6 35.5 L 4 30.5 L 5.5 29 Z " /><path fill="rgb(158,186,185)" stroke="rgb(158,186,185)" stroke-width="1" opacity="1" d="M 20.5 32 L 22 34.5 L 20 33.5 L 20.5 32 Z " /><path fill="rgb(158,186,185)" stroke="rgb(158,186,185)" stroke-width="1" opacity="1" d="M 25.5 35 L 26.5 37 L 25.5 35 Z " /><path fill="rgb(158,186,185)" stroke="rgb(158,186,185)" stroke-width="1" opacity="1" d="M 11.5 37 Q 14.5 38.5 11.5 40 L 11.5 37 Z " /><path fill="rgb(153,229,242)" stroke="rgb(153,229,242)" stroke-width="1" opacity="1" d="M 2 2 L 13.5 2 L 14 3.5 L 11.5 7 L 8.5 5 L 3 6.5 L 11 21.5 L 9 26 L 6 27.5 L 4 31.5 Q 6.7 32.3 6 36.5 L 3.5 38 L 2 36.5 L 2 2 Z " /><path fill="rgb(153,229,242)" stroke="rgb(153,229,242)" stroke-width="1" opacity="1" d="M 16 2 L 28 2 L 28 6 Q 25.3 7.1 26 4.5 L 26.5 3 L 23.5 5 L 23.5 3 Q 19.8 1.8 21 5.5 L 20 5.5 L 20 4 L 16 4 L 16 2 Z " /><path fill="rgb(153,229,242)" stroke="rgb(153,229,242)" stroke-width="1" opacity="1" d="M 26.5 7 L 28 7.5 L 25.5 9 L 26.5 7 Z " /><path fill="rgb(153,229,242)" stroke="rgb(153,229,242)" stroke-width="1" opacity="1" d="M 27.5 9 L 28 36.5 L 25.5 35 L 24 36.5 Q 24.7 39.1 22 38 Q 22.8 33.5 20 31.5 L 21 29.5 L 20 26 L 23 25.5 L 23 23.5 L 22 21.5 L 27.5 9 Z " /><path fill="rgb(153,229,242)" stroke="rgb(153,229,242)" stroke-width="1" opacity="1" d="M 14 29 Q 17.3 27.7 16 32.5 L 11.5 39 L 12 37.5 Q 11 32.5 14 33.5 L 14 29 Z " /><path fill="rgb(117,70,43)" stroke="rgb(117,70,43)" stroke-width="1" opacity="1" d="M 20.5 10 L 19.5 12 L 20.5 10 Z " /><path fill="rgb(117,70,43)" stroke="rgb(117,70,43)" stroke-width="1" opacity="1" d="M 18.5 18 L 21.5 19 L 23 18.5 L 19.5 20 L 18.5 18 Z " /><path fill="rgb(117,70,43)" stroke="rgb(117,70,43)" stroke-width="1" opacity="1" d="M 11.5 19 L 13 21.5 L 12 21.5 L 11.5 19 Z " /><path fill="rgb(117,70,43)" stroke="rgb(117,70,43)" stroke-width="1" opacity="1" d="M 14.5 39 L 15 41 L 13 40.5 L 14.5 39 Z " /><path fill="rgb(117,70,43)" stroke="rgb(117,70,43)" stroke-width="1" opacity="1" d="M 16.5 39 Q 18.3 42.1 20 40.5 L 18.5 42 L 16.5 39 Z " /><path fill="rgb(246,160,52)" stroke="rgb(246,160,52)" stroke-width="1" opacity="1" d="M 16.5 19 Q 19.8 17.9 19 20.5 L 17.5 20 L 16.5 19 Z " /><path fill="rgb(246,160,52)" stroke="rgb(246,160,52)" stroke-width="1" opacity="1" d="M 12.5 22 Q 17.8 20.5 16 25 L 10 26 L 12.5 22 Z " /><path fill="rgb(218,223,224)" stroke="rgb(218,223,224)" stroke-width="1" opacity="1" d="M 1.5 5 L 2 9.5 L 1 9.5 L 1.5 5 Z " /><path fill="rgb(218,223,224)" stroke="rgb(218,223,224)" stroke-width="1" opacity="1" d="M 1.5 11 L 2 14.5 L 1 14.5 L 1.5 11 Z " /><path fill="rgb(218,223,224)" stroke="rgb(218,223,224)" stroke-width="1" opacity="1" d="M 17.5 23 L 18.5 25 L 17.5 23 Z " /><path fill="rgb(218,223,224)" stroke="rgb(218,223,224)" stroke-width="1" opacity="1" d="M 15.5 48 L 18 48.5 L 15.5 49 L 15.5 48 Z " /><path fill="rgb(200,98,64)" stroke="rgb(200,98,64)" stroke-width="1" opacity="1" d="M 16 21 L 18 21.5 L 16 22.5 L 16 21 Z " /><path fill="rgb(207,37,15)" stroke="rgb(207,37,15)" stroke-width="1" opacity="1" d="M 9.5 27 L 13 28.5 L 12 32 L 9.5 31 L 8 31.5 L 7 29.5 L 8.5 29 L 10 29.5 L 9.5 27 Z " /><path fill="rgb(67,44,32)" stroke="rgb(67,44,32)" stroke-width="1" opacity="1" d="M 12.5 17 L 15 17.5 L 12.5 18 L 12.5 17 Z " /><path fill="rgb(67,44,32)" stroke="rgb(67,44,32)" stroke-width="1" opacity="1" d="M 16.5 25 Q 18.8 24.3 18 26.5 L 18.5 28 L 16.5 25 Z " /><path fill="rgb(251,251,251)" stroke="rgb(251,251,251)" stroke-width="1" opacity="1" d="M 0 0 L 30 0 L 30 50 L 0 50 L 0 0 Z M 21 1 L 20 2 L 1 2 L 1 10 L 1 12 L 2 16 L 2 49 L 28 48 L 28 2 L 28 1 L 21 1 Z " /><path fill="rgb(251,251,251)" stroke="rgb(251,251,251)" stroke-width="1" opacity="1" d="M 18.5 23 L 22 24.5 L 19.5 25 L 18.5 23 Z " /><path fill="rgb(227,184,82)" stroke="rgb(227,184,82)" stroke-width="1" opacity="1" d="M 9.5 32 Q 12.8 33.8 9 35.5 L 11 37.5 L 9.5 40 L 8.5 38 L 6 39 Q 7 42 4 41 L 9.5 32 Z " /><path fill="rgb(227,184,82)" stroke="rgb(227,184,82)" stroke-width="1" opacity="1" d="M 25.5 39 L 28 39.5 L 28 41.5 Q 28.7 44.1 26 43 L 26 46.5 L 27 46.5 L 27.5 45 L 28 48 L 2.5 48 L 2 44.5 L 3 44.5 Q 2.1 47.5 6.5 46 L 6 44.5 Q 4.9 41.2 7.5 42 L 10.5 44 L 11.5 41 L 16.5 41 Q 15.9 43.8 19 43 Q 17.9 39.5 25.5 41 L 25.5 39 Z " /><path fill="rgb(75,19,10)" stroke="rgb(75,19,10)" stroke-width="1" opacity="1" d="M 13.5 19 L 14.5 21 L 13.5 19 Z " /><path fill="rgb(75,19,10)" stroke="rgb(75,19,10)" stroke-width="1" opacity="1" d="M 6.5 29 L 8 32.5 L 6 31.5 L 6.5 29 Z " /><path fill="rgb(75,19,10)" stroke="rgb(75,19,10)" stroke-width="1" opacity="1" d="M 11.5 32 Q 13.8 31.3 13 33.5 L 11.5 32 Z " /><path fill="rgb(75,19,10)" stroke="rgb(75,19,10)" stroke-width="1" opacity="1" d="M 17.5 32 L 18.5 34 Q 15.7 34.7 17.5 32 Z " /><path fill="rgb(75,19,10)" stroke="rgb(75,19,10)" stroke-width="1" opacity="1" d="M 20.5 35 L 21 36.5 L 18 38 Q 16.9 35.3 19.5 36 L 20.5 35 Z " /><path fill="rgb(75,19,10)" stroke="rgb(75,19,10)" stroke-width="1" opacity="1" d="M 9.5 40 L 13 40.5 L 9.5 41 L 9.5 40 Z " /><path fill="rgb(138,102,75)" stroke="rgb(138,102,75)" stroke-width="1" opacity="1" d="M 10.5 11 L 9.5 13 L 10.5 11 Z " /><path fill="rgb(138,102,75)" stroke="rgb(138,102,75)" stroke-width="1" opacity="1" d="M 21.5 16 L 22.5 18 L 21.5 16 Z " /><path fill="rgb(138,102,75)" stroke="rgb(138,102,75)" stroke-width="1" opacity="1" d="M 19.5 20 L 21 20.5 L 18.5 22 L 19.5 20 Z " /><path fill="rgb(138,102,75)" stroke="rgb(138,102,75)" stroke-width="1" opacity="1" d="M 14.5 26 L 16 28.5 L 14 27.5 L 14.5 26 Z " /><path fill="rgb(138,102,75)" stroke="rgb(138,102,75)" stroke-width="1" opacity="1" d="M 17.5 34 L 16.5 36 L 17.5 34 Z " /><path fill="rgb(138,102,75)" stroke="rgb(138,102,75)" stroke-width="1" opacity="1" d="M 24.5 38 L 25 40 L 23 39.5 L 24.5 38 Z " /><path fill="rgb(138,102,75)" stroke="rgb(138,102,75)" stroke-width="1" opacity="1" d="M 15.5 39 L 17.5 41 L 20 39.5 L 17.5 43 L 15.5 39 Z " /><path fill="rgb(172,120,73)" stroke="rgb(172,120,73)" stroke-width="1" opacity="1" d="M 12.5 8 Q 16.5 7.5 17 10.5 L 15.5 10 Q 11.8 9.7 12.5 8 Z " /><path fill="rgb(172,120,73)" stroke="rgb(172,120,73)" stroke-width="1" opacity="1" d="M 17.5 8 Q 19.8 7.3 19 9.5 L 17.5 8 Z " /><path fill="rgb(172,120,73)" stroke="rgb(172,120,73)" stroke-width="1" opacity="1" d="M 17.5 22 L 17 23.5 L 16.5 25 L 16 23.5 L 17.5 22 Z " /><path fill="rgb(172,120,73)" stroke="rgb(172,120,73)" stroke-width="1" opacity="1" d="M 6.5 39 L 7.5 41 L 9 40.5 L 8.5 43 L 6 42 L 6.5 39 Z " /><path fill="rgb(172,120,73)" stroke="rgb(172,120,73)" stroke-width="1" opacity="1" d="M 3.5 40 L 4.5 42 L 2 41.5 L 3.5 40 Z " /><path fill="rgb(172,120,73)" stroke="rgb(172,120,73)" stroke-width="1" opacity="1" d="M 4.5 43 L 5.5 45 L 4.5 43 Z " /></svg>