<svg width="30" height="50" version="1.1" xmlns="http://www.w3.org/2000/svg" desc="Created with imagetracer.js version 1.2.6" ><path fill="rgb(120,71,30)" stroke="rgb(120,71,30)" stroke-width="1" opacity="1" d="M 14.5 14 L 15.5 16 L 13 15.5 L 14.5 14 Z " /><path fill="rgb(120,71,30)" stroke="rgb(120,71,30)" stroke-width="1" opacity="1" d="M 11.5 16 L 10.5 18 L 11.5 16 Z " /><path fill="rgb(120,71,30)" stroke="rgb(120,71,30)" stroke-width="1" opacity="1" d="M 10.5 27 L 11.5 30 L 12.5 28 L 13 29.5 L 13 31.5 L 12.5 34 L 10 29.5 L 10.5 27 Z " /><path fill="rgb(120,71,30)" stroke="rgb(120,71,30)" stroke-width="1" opacity="1" d="M 9.5 37 L 11 37.5 L 3.5 40 L 2.5 38 L 4.5 38 L 9.5 37 Z " /><path fill="rgb(120,71,30)" stroke="rgb(120,71,30)" stroke-width="1" opacity="1" d="M 21.5 43 L 20.5 45 L 18 44.5 L 21.5 43 Z " /><path fill="rgb(220,251,253)" stroke="rgb(220,251,253)" stroke-width="1" opacity="1" d="M 6.5 2 L 9.5 3 L 13.5 2 L 13 3.5 Q 12.3 5.8 14.5 5 L 14.5 6 L 10.5 5 L 8 6 L 9 9.5 L 9 11.5 L 10 14.5 L 8.5 20 L 6 8.5 L 7 3.5 L 6.5 2 Z " /><path fill="rgb(220,251,253)" stroke="rgb(220,251,253)" stroke-width="1" opacity="1" d="M 22.5 2 Q 27.9 0.1 27 3.5 L 28 6.5 L 27 11.5 L 28 15.5 L 26.5 15 L 23.5 16 L 23.5 15 L 26 13.5 L 23 8.5 L 24.5 6 L 21.5 4 L 22.5 2 Z " /><path fill="rgb(220,251,253)" stroke="rgb(220,251,253)" stroke-width="1" opacity="1" d="M 17.5 8 L 20 9.5 L 18.5 12 L 15 10.5 Q 14.3 8.3 16.5 9 L 17.5 8 Z " /><path fill="rgb(220,251,253)" stroke="rgb(220,251,253)" stroke-width="1" opacity="1" d="M 27.5 17 L 28 18.5 L 27.5 21 L 25 20 L 25.5 18 L 27 18.5 L 27.5 17 Z " /><path fill="rgb(220,251,253)" stroke="rgb(220,251,253)" stroke-width="1" opacity="1" d="M 8.5 24 L 9 25.5 L 7 29.5 L 8 31.5 L 5.5 32 L 2 30.5 L 2 28.5 L 2.5 26 L 3 29 Q 5.7 30.1 5 27.5 L 8 26 L 8.5 24 Z " /><path fill="rgb(220,251,253)" stroke="rgb(220,251,253)" stroke-width="1" opacity="1" d="M 20.5 30 L 21 33 L 19 32.5 L 20.5 30 Z " /><path fill="rgb(220,251,253)" stroke="rgb(220,251,253)" stroke-width="1" opacity="1" d="M 5.5 33 Q 9.3 31.8 8 35.5 L 8.5 37 Q 7 33.5 5.5 36 L 2 37 Q 0.9 34.3 3.5 35 L 5.5 33 Z " /><path fill="rgb(224,249,250)" stroke="rgb(224,249,250)" stroke-width="1" opacity="1" d="M 19.5 28 Q 21.8 27.3 21 29.5 L 19.5 28 Z " /><path fill="rgb(212,249,253)" stroke="rgb(212,249,253)" stroke-width="1" opacity="1" d="M 2 2 Q 5.8 1 7 3.5 L 6 8.5 L 9 20.5 L 7 21.5 L 9 22 L 8 26 L 5 27.5 Q 5.8 29.8 3.5 29 L 2 29.5 L 3 26.5 L 2 25.5 L 2 2 Z " /><path fill="rgb(212,249,253)" stroke="rgb(212,249,253)" stroke-width="1" opacity="1" d="M 27.5 9 L 28 11.5 L 27 11.5 L 27.5 9 Z " /><path fill="rgb(212,249,253)" stroke="rgb(212,249,253)" stroke-width="1" opacity="1" d="M 2.5 31 L 5.5 32 Q 6.8 29.8 8 32.5 L 2 35 L 3 32.5 L 2.5 31 Z " /><path fill="rgb(64,42,28)" stroke="rgb(64,42,28)" stroke-width="1" opacity="1" d="M 4.5 1 L 12 1.5 L 4.5 2 L 4.5 1 Z " /><path fill="rgb(64,42,28)" stroke="rgb(64,42,28)" stroke-width="1" opacity="1" d="M 13.5 19 L 14.5 21 Q 11.7 21.7 13.5 19 Z " /><path fill="rgb(64,42,28)" stroke="rgb(64,42,28)" stroke-width="1" opacity="1" d="M 13.5 23 Q 16.3 24.3 14 25.5 L 13.5 27 L 13.5 23 Z " /><path fill="rgb(64,42,28)" stroke="rgb(64,42,28)" stroke-width="1" opacity="1" d="M 13 28 L 18 28.5 L 13.5 31 L 13 28 Z " /><path fill="rgb(64,42,28)" stroke="rgb(64,42,28)" stroke-width="1" opacity="1" d="M 10.5 30 L 12 32.5 L 10 31.5 L 10.5 30 Z " /><path fill="rgb(64,42,28)" stroke="rgb(64,42,28)" stroke-width="1" opacity="1" d="M 9.5 38 L 12 38.5 L 9.5 39 L 9.5 38 Z " /><path fill="rgb(64,42,28)" stroke="rgb(64,42,28)" stroke-width="1" opacity="1" d="M 5.5 47 L 8 47.5 L 5.5 48 L 5.5 47 Z " /><path fill="rgb(64,42,28)" stroke="rgb(64,42,28)" stroke-width="1" opacity="1" d="M 21 47 L 23.5 48 L 25.5 47 L 24.5 49 Q 19.7 50.3 21 47 Z " /><path fill="rgb(171,161,139)" stroke="rgb(171,161,139)" stroke-width="1" opacity="1" d="M 13.5 1 L 19 1.5 L 13.5 2 L 13.5 1 Z " /><path fill="rgb(171,161,139)" stroke="rgb(171,161,139)" stroke-width="1" opacity="1" d="M 13.5 6 L 13 7.5 L 13.5 9 L 15 8.5 L 12 10 L 13.5 6 Z " /><path fill="rgb(171,161,139)" stroke="rgb(171,161,139)" stroke-width="1" opacity="1" d="M 10.5 9 L 9.5 11 L 10.5 9 Z " /><path fill="rgb(171,161,139)" stroke="rgb(171,161,139)" stroke-width="1" opacity="1" d="M 14.5 11 L 15 12.5 L 13 13.5 L 14.5 11 Z " /><path fill="rgb(171,161,139)" stroke="rgb(171,161,139)" stroke-width="1" opacity="1" d="M 15.5 18 L 15.5 20 L 17.5 19 L 17 20.5 L 16.5 22 L 14.5 22 L 13 21.5 L 15 20.5 Q 12.8 19.2 15.5 18 Z " /><path fill="rgb(171,161,139)" stroke="rgb(171,161,139)" stroke-width="1" opacity="1" d="M 15.5 23 L 20 27.5 L 19 28.5 L 18.5 30 L 18 28 Q 15.3 29.1 16 26.5 L 16.5 25 L 14.5 26 L 15 24.5 L 15.5 23 Z " /><path fill="rgb(171,161,139)" stroke="rgb(171,161,139)" stroke-width="1" opacity="1" d="M 9.5 27 L 10 29.5 L 9 29.5 L 9.5 27 Z " /><path fill="rgb(171,161,139)" stroke="rgb(171,161,139)" stroke-width="1" opacity="1" d="M 16.5 29 L 15.5 31 L 16.5 29 Z " /><path fill="rgb(171,161,139)" stroke="rgb(171,161,139)" stroke-width="1" opacity="1" d="M 14 34 Q 17 33 16 36 Q 13 37 14 34 Z " /><path fill="rgb(171,161,139)" stroke="rgb(171,161,139)" stroke-width="1" opacity="1" d="M 10.5 36 L 11.5 38 L 10.5 36 Z " /><path fill="rgb(171,161,139)" stroke="rgb(171,161,139)" stroke-width="1" opacity="1" d="M 2.5 37 L 5 37.5 L 2.5 38 L 2.5 37 Z " /><path fill="rgb(171,161,139)" stroke="rgb(171,161,139)" stroke-width="1" opacity="1" d="M 7.5 45 L 10 45.5 L 7.5 46 L 7.5 45 Z " /><path fill="rgb(171,161,139)" stroke="rgb(171,161,139)" stroke-width="1" opacity="1" d="M 17.5 46 L 18.5 48 L 21.5 46 L 21.5 47 Q 20.1 49.6 15.5 49 L 15.5 48 Q 18 48.7 17.5 46 Z " /><path fill="rgb(228,252,253)" stroke="rgb(228,252,253)" stroke-width="1" opacity="1" d="M 7.5 2 L 11 3.5 L 9.5 3 Q 6.5 3.5 7.5 2 Z " /><path fill="rgb(228,252,253)" stroke="rgb(228,252,253)" stroke-width="1" opacity="1" d="M 14.5 2 L 22 2.5 L 21.5 4 L 23 4.5 L 18 6.5 L 20 7 L 19.5 9 L 17.5 8 L 15 9 L 14 6.5 L 14.5 5 Q 12.3 5.8 13 3.5 L 14.5 2 Z " /><path fill="rgb(228,252,253)" stroke="rgb(228,252,253)" stroke-width="1" opacity="1" d="M 10.5 5 L 11 6.5 L 8 8.5 Q 6.9 5.2 9.5 6 L 10.5 5 Z " /><path fill="rgb(228,252,253)" stroke="rgb(228,252,253)" stroke-width="1" opacity="1" d="M 23.5 9 L 24.5 11 L 26 10.5 L 25 12.5 L 25.5 15 L 28 16.5 L 27 18.5 L 28 21.5 L 28 34 L 23.5 34 L 23 31.5 L 24 28.5 Q 21.3 26.8 23 20.5 L 23 18.5 Q 21.9 15.2 24.5 16 L 24 14.5 L 23.5 9 Z M 26 18 Q 24 21 27 20 L 26 18 Z " /><path fill="rgb(228,252,253)" stroke="rgb(228,252,253)" stroke-width="1" opacity="1" d="M 19.5 11 L 17.5 14 L 16.5 12 L 19.5 11 Z " /><path fill="rgb(228,252,253)" stroke="rgb(228,252,253)" stroke-width="1" opacity="1" d="M 6.5 35 L 7.5 37 L 4 36.5 L 6.5 35 Z " /><path fill="rgb(223,231,228)" stroke="rgb(223,231,228)" stroke-width="1" opacity="1" d="M 19.5 5 L 18.5 7 L 19.5 5 Z " /><path fill="rgb(223,231,228)" stroke="rgb(223,231,228)" stroke-width="1" opacity="1" d="M 11.5 9 L 9.5 12 L 11.5 9 Z " /><path fill="rgb(223,231,228)" stroke="rgb(223,231,228)" stroke-width="1" opacity="1" d="M 13.5 39 L 16 39.5 L 13.5 40 L 13.5 39 Z " /><path fill="rgb(223,231,228)" stroke="rgb(223,231,228)" stroke-width="1" opacity="1" d="M 3.5 47 L 4.5 49 L 2 48.5 L 3.5 47 Z " /><path fill="rgb(108,96,81)" stroke="rgb(108,96,81)" stroke-width="1" opacity="1" d="M 23.5 1 L 27 1.5 L 23.5 2 L 23.5 1 Z " /><path fill="rgb(108,96,81)" stroke="rgb(108,96,81)" stroke-width="1" opacity="1" d="M 20.5 10 L 22 12.5 L 20.5 15 L 20 13.5 L 20 11.5 L 20.5 10 Z " /><path fill="rgb(108,96,81)" stroke="rgb(108,96,81)" stroke-width="1" opacity="1" d="M 11 13 L 13 13.5 L 11.5 16 L 11 13 Z " /><path fill="rgb(108,96,81)" stroke="rgb(108,96,81)" stroke-width="1" opacity="1" d="M 15.5 21 L 18 22.5 L 16.5 23 L 14.5 23 L 13 22.5 L 15.5 21 Z " /><path fill="rgb(108,96,81)" stroke="rgb(108,96,81)" stroke-width="1" opacity="1" d="M 21.5 21 L 22 28.5 L 21 28.5 L 21.5 21 Z " /><path fill="rgb(108,96,81)" stroke="rgb(108,96,81)" stroke-width="1" opacity="1" d="M 19.5 23 L 19 24.5 L 18.5 26 L 18 24.5 L 19.5 23 Z " /><path fill="rgb(108,96,81)" stroke="rgb(108,96,81)" stroke-width="1" opacity="1" d="M 10.5 24 L 11 26.5 L 10 26.5 L 10.5 24 Z " /><path fill="rgb(108,96,81)" stroke="rgb(108,96,81)" stroke-width="1" opacity="1" d="M 14 26 L 16 26.5 L 14 27.5 L 14 26 Z " /><path fill="rgb(108,96,81)" stroke="rgb(108,96,81)" stroke-width="1" opacity="1" d="M 11.5 29 L 12.5 31 L 11.5 29 Z " /><path fill="rgb(108,96,81)" stroke="rgb(108,96,81)" stroke-width="1" opacity="1" d="M 9.5 30 L 10 33.5 L 9 33.5 L 9.5 30 Z " /><path fill="rgb(108,96,81)" stroke="rgb(108,96,81)" stroke-width="1" opacity="1" d="M 2.5 45 L 5 45.5 Q 5.8 47.8 3.5 47 L 2.5 45 Z " /><path fill="rgb(108,96,81)" stroke="rgb(108,96,81)" stroke-width="1" opacity="1" d="M 6.5 45 L 9 46 L 8.5 48 L 6 47 L 6.5 45 Z " /><path fill="rgb(108,96,81)" stroke="rgb(108,96,81)" stroke-width="1" opacity="1" d="M 20.5 47 L 21 49 L 19 48.5 L 20.5 47 Z " /><path fill="rgb(185,190,188)" stroke="rgb(185,190,188)" stroke-width="1" opacity="1" d="M 19.5 1 L 23 1.5 L 19.5 2 L 19.5 1 Z " /><path fill="rgb(185,190,188)" stroke="rgb(185,190,188)" stroke-width="1" opacity="1" d="M 22.5 6 L 23 8.5 L 22 8.5 L 22.5 6 Z " /><path fill="rgb(185,190,188)" stroke="rgb(185,190,188)" stroke-width="1" opacity="1" d="M 10.5 8 L 8.5 11 L 10.5 8 Z " /><path fill="rgb(185,190,188)" stroke="rgb(185,190,188)" stroke-width="1" opacity="1" d="M 9.5 12 L 11 14.5 L 10 15.5 L 9.5 27 L 9 15.5 L 10 13.5 L 9.5 12 Z " /><path fill="rgb(185,190,188)" stroke="rgb(185,190,188)" stroke-width="1" opacity="1" d="M 22.5 15 L 23 17.5 L 22 17.5 L 22.5 15 Z " /><path fill="rgb(185,190,188)" stroke="rgb(185,190,188)" stroke-width="1" opacity="1" d="M 14.5 18 L 15.5 20 L 14.5 18 Z " /><path fill="rgb(185,190,188)" stroke="rgb(185,190,188)" stroke-width="1" opacity="1" d="M 22.5 20 L 23 28.5 L 22 28.5 L 22.5 20 Z " /><path fill="rgb(185,190,188)" stroke="rgb(185,190,188)" stroke-width="1" opacity="1" d="M 20.5 23 L 21 24.5 L 19.5 27 L 19 25.5 L 20.5 23 Z " /><path fill="rgb(185,190,188)" stroke="rgb(185,190,188)" stroke-width="1" opacity="1" d="M 19.5 29 L 19 30.5 L 18.5 33 L 18 30.5 L 19.5 29 Z " /><path fill="rgb(185,190,188)" stroke="rgb(185,190,188)" stroke-width="1" opacity="1" d="M 8.5 30 L 9 34.5 L 8 34.5 L 8.5 30 Z " /><path fill="rgb(185,190,188)" stroke="rgb(185,190,188)" stroke-width="1" opacity="1" d="M 22.5 33 Q 25.5 34.5 22.5 36 L 22.5 33 Z " /><path fill="rgb(185,190,188)" stroke="rgb(185,190,188)" stroke-width="1" opacity="1" d="M 10.5 45 L 15 45.5 L 13 46 Q 14.5 49.8 11.5 49 L 9.5 49 Q 5 50 4 47.5 L 5.5 48 Q 9.9 49.5 9 46.5 L 10.5 45 Z M 11 46 L 12 48 Q 13 45 11 46 Z " /><path fill="rgb(185,190,188)" stroke="rgb(185,190,188)" stroke-width="1" opacity="1" d="M 16.5 45 L 20 46.5 L 18.5 46 Q 15.5 46.5 16.5 45 Z " /><path fill="rgb(252,251,250)" stroke="rgb(252,251,250)" stroke-width="1" opacity="1" d="M 0 0 L 30 0 L 30 50 L 0 50 L 0 0 Z M 2 1 L 2 49 L 29 49 L 24 46 L 28 45 L 28 1 L 2 1 Z " /><path fill="rgb(252,251,250)" stroke="rgb(252,251,250)" stroke-width="1" opacity="1" d="M 13.5 43 L 16 44.5 L 14.5 45 L 13.5 43 Z " /><path fill="rgb(252,251,250)" stroke="rgb(252,251,250)" stroke-width="1" opacity="1" d="M 13.5 46 L 14.5 48 Q 11.7 48.7 13.5 46 Z " /><path fill="rgb(170,96,37)" stroke="rgb(170,96,37)" stroke-width="1" opacity="1" d="M 11.5 11 L 14 12.5 L 12.5 13 L 11.5 11 Z " /><path fill="rgb(170,96,37)" stroke="rgb(170,96,37)" stroke-width="1" opacity="1" d="M 12.5 21 L 12.5 24 Q 9.5 22.5 12.5 21 Z " /><path fill="rgb(170,96,37)" stroke="rgb(170,96,37)" stroke-width="1" opacity="1" d="M 17.5 32 L 19 34.5 L 16.5 36 L 17 34.5 L 17.5 32 Z " /><path fill="rgb(170,96,37)" stroke="rgb(170,96,37)" stroke-width="1" opacity="1" d="M 12.5 35 L 14 37.5 L 12 36.5 L 12.5 35 Z " /><path fill="rgb(170,96,37)" stroke="rgb(170,96,37)" stroke-width="1" opacity="1" d="M 4.5 40 L 7 40.5 L 4.5 41 L 4.5 40 Z " /><path fill="rgb(170,96,37)" stroke="rgb(170,96,37)" stroke-width="1" opacity="1" d="M 18.5 43 L 17.5 45 L 18.5 43 Z " /><path fill="rgb(174,143,83)" stroke="rgb(174,143,83)" stroke-width="1" opacity="1" d="M 10.5 11 L 11.5 13 Q 8.7 13.7 10.5 11 Z " /><path fill="rgb(174,143,83)" stroke="rgb(174,143,83)" stroke-width="1" opacity="1" d="M 14.5 13 L 14.5 16 L 13 15.5 Q 14.1 18.8 11.5 18 L 12 16.5 Q 10.9 13.2 13.5 14 L 14.5 13 Z " /><path fill="rgb(174,143,83)" stroke="rgb(174,143,83)" stroke-width="1" opacity="1" d="M 17.5 14 L 20 14.5 L 17 19.5 L 18 21.5 L 17 21.5 L 16 19.5 L 17 17.5 L 15.5 18 L 14 17.5 L 16.5 16 L 18 16.5 L 17.5 14 Z " /><path fill="rgb(174,143,83)" stroke="rgb(174,143,83)" stroke-width="1" opacity="1" d="M 19.5 19 L 20.5 21 L 19.5 19 Z " /><path fill="rgb(174,143,83)" stroke="rgb(174,143,83)" stroke-width="1" opacity="1" d="M 10.5 32 L 11.5 34 Q 8.7 34.7 10.5 32 Z " /><path fill="rgb(174,143,83)" stroke="rgb(174,143,83)" stroke-width="1" opacity="1" d="M 10.5 35 Q 12.8 34.3 12 36.5 L 13 40 Q 16.4 40.8 17.5 38 L 18 40 L 16 40.5 L 19 42.5 L 17.5 43 L 15.5 43 L 12 42 Q 12.8 36.5 10.5 35 Z " /><path fill="rgb(245,184,48)" stroke="rgb(245,184,48)" stroke-width="1" opacity="1" d="M 13.5 16 L 17 17.5 L 15.5 17 Q 12.5 17.5 13.5 16 Z " /><path fill="rgb(245,184,48)" stroke="rgb(245,184,48)" stroke-width="1" opacity="1" d="M 19.5 34 L 21 40 L 18.5 41 L 18 39.5 L 18 37.5 L 19.5 34 Z " /><path fill="rgb(245,184,48)" stroke="rgb(245,184,48)" stroke-width="1" opacity="1" d="M 24.5 34 L 28 37.5 L 26.5 39 L 25 39.5 L 25.5 41 Q 22.9 40.3 24 43 Q 29.2 41.3 28 45 L 22 44.5 L 23 41.5 L 22 37.5 L 24.5 34 Z " /><path fill="rgb(245,184,48)" stroke="rgb(245,184,48)" stroke-width="1" opacity="1" d="M 4.5 39 L 3.5 41 L 2 40.5 L 4.5 39 Z " /><path fill="rgb(245,184,48)" stroke="rgb(245,184,48)" stroke-width="1" opacity="1" d="M 6.5 39 Q 12.3 37.3 11 41 Q 6.3 42 6.5 39 Z " /><path fill="rgb(245,184,48)" stroke="rgb(245,184,48)" stroke-width="1" opacity="1" d="M 20.5 41 L 21 42.5 L 19 43.5 L 20.5 41 Z " /><path fill="rgb(245,184,48)" stroke="rgb(245,184,48)" stroke-width="1" opacity="1" d="M 9.5 42 Q 14 41 15 43.5 L 12.5 44 L 5 43.5 L 9.5 42 Z " /><path fill="rgb(236,117,37)" stroke="rgb(236,117,37)" stroke-width="1" opacity="1" d="M 13 31 L 18 31.5 L 17 34.5 L 19 38.5 L 17.5 38 Q 15.3 38.8 16 36.5 L 16 34.5 Q 16.7 31.9 14 33 L 13.5 37 L 12 34.5 L 13 31 Z " /><path fill="rgb(236,117,37)" stroke="rgb(236,117,37)" stroke-width="1" opacity="1" d="M 20.5 35 Q 23.9 34.1 22 39.5 L 23 41.5 L 21.5 45 Q 18.8 43.8 21 42.5 L 22 40.5 L 20.5 35 Z " /><path fill="rgb(236,117,37)" stroke="rgb(236,117,37)" stroke-width="1" opacity="1" d="M 26 39 L 28 39.5 L 27.5 42 L 26 39 Z " /><path fill="rgb(236,117,37)" stroke="rgb(236,117,37)" stroke-width="1" opacity="1" d="M 2 41 L 7 42.5 L 5 43.5 L 12 44.5 L 3 45 L 2 41 Z " /></svg>