<svg width="30" height="50" version="1.1" xmlns="http://www.w3.org/2000/svg" desc="Created with imagetracer.js version 1.2.6" ><path fill="rgb(227,246,251)" stroke="rgb(227,246,251)" stroke-width="1" opacity="1" d="M 2 2 L 11.5 2 L 13 3.5 L 12 5.5 L 13 7.5 L 13 9.5 L 11 14.5 L 11.5 16 L 9.5 15 L 2.5 20 L 2 9.5 L 2 7.5 L 3 5.5 L 2 2 Z " /><path fill="rgb(227,246,251)" stroke="rgb(227,246,251)" stroke-width="1" opacity="1" d="M 15.5 2 Q 20.8 0.8 22 3.5 Q 22.8 6.1 19.5 5 L 18.5 8 Q 15.9 7.3 17 10 L 15 10 Q 13.5 6.2 16.5 7 L 16 5.5 L 15.5 2 Z " /><path fill="rgb(227,246,251)" stroke="rgb(227,246,251)" stroke-width="1" opacity="1" d="M 15.5 11 L 16 14.5 L 15 14.5 L 15.5 11 Z " /><path fill="rgb(227,246,251)" stroke="rgb(227,246,251)" stroke-width="1" opacity="1" d="M 2.5 21 L 4 24 L 7 25.5 L 2 26 L 2.5 21 Z " /><path fill="rgb(227,246,251)" stroke="rgb(227,246,251)" stroke-width="1" opacity="1" d="M 4 33 L 11.5 34 L 15 36.5 L 14 39 L 11 39.5 L 13 40.5 L 10.5 41 Q 8 37.8 2 39 L 2 35 Q 5 36 4 33 Z " /><path fill="rgb(227,246,251)" stroke="rgb(227,246,251)" stroke-width="1" opacity="1" d="M 19.5 36 L 20 38 L 23 39.5 L 23 41 L 18 41 L 19.5 36 Z " /><path fill="rgb(231,241,244)" stroke="rgb(231,241,244)" stroke-width="1" opacity="1" d="M 21.5 2 L 23.5 3 L 25.5 2 L 27 5 L 19.5 8 L 19.5 5 L 24 4.5 L 21.5 2 Z " /><path fill="rgb(231,241,244)" stroke="rgb(231,241,244)" stroke-width="1" opacity="1" d="M 23.5 40 L 26 41.5 L 22.5 42 L 23.5 40 Z " /><path fill="rgb(207,210,212)" stroke="rgb(207,210,212)" stroke-width="1" opacity="1" d="M 28.5 2 L 29 4.5 L 28 4.5 L 28.5 2 Z " /><path fill="rgb(207,210,212)" stroke="rgb(207,210,212)" stroke-width="1" opacity="1" d="M 20.5 7 L 19.5 9 L 17.5 10 L 18.5 8 L 20.5 7 Z " /><path fill="rgb(207,210,212)" stroke="rgb(207,210,212)" stroke-width="1" opacity="1" d="M 25.5 7 Q 29.8 8.8 27 10.5 L 27.5 12 L 29 11.5 L 28 14 L 25 13.5 L 27 12.5 L 26 10.5 L 27 9.5 L 25.5 7 Z " /><path fill="rgb(207,210,212)" stroke="rgb(207,210,212)" stroke-width="1" opacity="1" d="M 22.5 12 L 26 17.5 L 23 18.5 L 23.5 20 Q 20.3 18.3 24 16.5 L 22.5 12 Z " /><path fill="rgb(207,210,212)" stroke="rgb(207,210,212)" stroke-width="1" opacity="1" d="M 20.5 14 L 19.5 16 L 20.5 14 Z " /><path fill="rgb(207,210,212)" stroke="rgb(207,210,212)" stroke-width="1" opacity="1" d="M 6.5 16 L 4.5 19 L 6.5 16 Z " /><path fill="rgb(207,210,212)" stroke="rgb(207,210,212)" stroke-width="1" opacity="1" d="M 27.5 18 L 27 19.5 L 28 21.5 L 26 20.5 L 27.5 18 Z " /><path fill="rgb(207,210,212)" stroke="rgb(207,210,212)" stroke-width="1" opacity="1" d="M 3.5 21 L 4.5 23 L 3.5 21 Z " /><path fill="rgb(207,210,212)" stroke="rgb(207,210,212)" stroke-width="1" opacity="1" d="M 26.5 23 L 29 24 L 28.5 38 L 28 25.5 L 26.5 23 Z " /><path fill="rgb(207,210,212)" stroke="rgb(207,210,212)" stroke-width="1" opacity="1" d="M 6.5 24 L 7.5 26 L 6.5 24 Z " /><path fill="rgb(207,210,212)" stroke="rgb(207,210,212)" stroke-width="1" opacity="1" d="M 17.5 31 L 18 33.5 L 17 33.5 L 17.5 31 Z " /><path fill="rgb(207,210,212)" stroke="rgb(207,210,212)" stroke-width="1" opacity="1" d="M 15.5 35 Q 18.1 34.2 17 37.5 L 17.5 39 Q 13.1 40.5 14 37.5 L 16 37.5 L 15.5 35 Z " /><path fill="rgb(207,210,212)" stroke="rgb(207,210,212)" stroke-width="1" opacity="1" d="M 13.5 46 L 16 47.5 L 14.5 47 L 11.5 48 L 11.5 47 L 13.5 46 Z " /><path fill="rgb(207,210,212)" stroke="rgb(207,210,212)" stroke-width="1" opacity="1" d="M 22.5 46 L 25 46.5 Q 25.8 48.8 23.5 48 L 22.5 46 Z " /><path fill="rgb(207,210,212)" stroke="rgb(207,210,212)" stroke-width="1" opacity="1" d="M 26 46 Q 29 44.8 28 48.5 L 26 47.5 L 26 46 Z " /><path fill="rgb(207,210,212)" stroke="rgb(207,210,212)" stroke-width="1" opacity="1" d="M 3.5 48 L 8 48.5 L 3.5 49 L 3.5 48 Z " /><path fill="rgb(111,53,24)" stroke="rgb(111,53,24)" stroke-width="1" opacity="1" d="M 18.5 11 L 18.5 14 Q 15.5 12.5 18.5 11 Z " /><path fill="rgb(111,53,24)" stroke="rgb(111,53,24)" stroke-width="1" opacity="1" d="M 6 17 Q 9.8 16 11 18.5 L 9.5 18 L 6.5 19 L 6 17 Z " /><path fill="rgb(111,53,24)" stroke="rgb(111,53,24)" stroke-width="1" opacity="1" d="M 25.5 18 L 24.5 20 L 25.5 18 Z " /><path fill="rgb(111,53,24)" stroke="rgb(111,53,24)" stroke-width="1" opacity="1" d="M 8.5 20 L 8 21.5 L 8.5 23 L 10 22.5 L 8.5 24 L 5 22.5 Q 4.2 19.9 7.5 21 L 8.5 20 Z " /><path fill="rgb(111,53,24)" stroke="rgb(111,53,24)" stroke-width="1" opacity="1" d="M 14.5 21 L 15.5 23 L 14.5 21 Z " /><path fill="rgb(111,53,24)" stroke="rgb(111,53,24)" stroke-width="1" opacity="1" d="M 19.5 21 L 18.5 23 L 19.5 21 Z " /><path fill="rgb(111,53,24)" stroke="rgb(111,53,24)" stroke-width="1" opacity="1" d="M 12.5 25 L 11.5 27 L 12.5 25 Z " /><path fill="rgb(111,53,24)" stroke="rgb(111,53,24)" stroke-width="1" opacity="1" d="M 23.5 27 Q 27.3 25.8 26 29.5 L 23.5 27 Z " /><path fill="rgb(111,53,24)" stroke="rgb(111,53,24)" stroke-width="1" opacity="1" d="M 21.5 30 L 21.5 33 Q 18.5 31.5 21.5 30 Z " /><path fill="rgb(111,53,24)" stroke="rgb(111,53,24)" stroke-width="1" opacity="1" d="M 27.5 30 L 26 32.5 L 25.5 34 L 25 31 L 27.5 30 Z " /><path fill="rgb(111,53,24)" stroke="rgb(111,53,24)" stroke-width="1" opacity="1" d="M 3.5 31 L 3 32.5 L 2.5 34 L 2 32.5 L 3.5 31 Z " /><path fill="rgb(111,53,24)" stroke="rgb(111,53,24)" stroke-width="1" opacity="1" d="M 7.5 31 L 8.5 33 L 7.5 31 Z " /><path fill="rgb(111,53,24)" stroke="rgb(111,53,24)" stroke-width="1" opacity="1" d="M 2.5 42 L 3 44.5 L 2 44.5 L 2.5 42 Z " /><path fill="rgb(111,53,24)" stroke="rgb(111,53,24)" stroke-width="1" opacity="1" d="M 13.5 42 L 16 42.5 L 13.5 43 L 13.5 42 Z " /><path fill="rgb(226,106,57)" stroke="rgb(226,106,57)" stroke-width="1" opacity="1" d="M 9.5 21 L 13 22.5 L 10.5 23 L 9.5 21 Z " /><path fill="rgb(226,106,57)" stroke="rgb(226,106,57)" stroke-width="1" opacity="1" d="M 5.5 26 L 10 28.5 L 7.5 29 L 5 28 L 5.5 26 Z " /><path fill="rgb(226,106,57)" stroke="rgb(226,106,57)" stroke-width="1" opacity="1" d="M 2.5 28 L 3.5 30 L 2.5 28 Z " /><path fill="rgb(226,106,57)" stroke="rgb(226,106,57)" stroke-width="1" opacity="1" d="M 15.5 29 L 16 31.5 L 15 31.5 L 15.5 29 Z " /><path fill="rgb(226,106,57)" stroke="rgb(226,106,57)" stroke-width="1" opacity="1" d="M 24.5 31 L 24 32.5 L 25 34.5 L 22 34.5 L 24.5 31 Z " /><path fill="rgb(226,106,57)" stroke="rgb(226,106,57)" stroke-width="1" opacity="1" d="M 21.5 36 L 25.5 37 L 28 36 L 27.5 38 L 26 37.5 L 28 40.5 L 26.5 40 L 22 39 L 21.5 36 Z " /><path fill="rgb(226,106,57)" stroke="rgb(226,106,57)" stroke-width="1" opacity="1" d="M 11.5 42 L 12.5 44 L 11.5 42 Z " /><path fill="rgb(226,106,57)" stroke="rgb(226,106,57)" stroke-width="1" opacity="1" d="M 23 42 L 26 42.5 L 23.5 44 L 23 42 Z " /><path fill="rgb(235,64,34)" stroke="rgb(235,64,34)" stroke-width="1" opacity="1" d="M 23.5 7 Q 25.8 6.3 25 8.5 L 25.5 10 L 23.5 7 Z " /><path fill="rgb(235,64,34)" stroke="rgb(235,64,34)" stroke-width="1" opacity="1" d="M 9.5 19 Q 13.5 18.5 14 21.5 L 11.5 22 L 9.5 19 Z " /><path fill="rgb(235,64,34)" stroke="rgb(235,64,34)" stroke-width="1" opacity="1" d="M 6.5 30 L 5.5 32 L 6.5 30 Z " /><path fill="rgb(235,64,34)" stroke="rgb(235,64,34)" stroke-width="1" opacity="1" d="M 8.5 31 Q 10.8 30.3 10 32.5 L 8.5 31 Z " /><path fill="rgb(138,105,70)" stroke="rgb(138,105,70)" stroke-width="1" opacity="1" d="M 13.5 5 L 14.5 7 L 13.5 5 Z " /><path fill="rgb(138,105,70)" stroke="rgb(138,105,70)" stroke-width="1" opacity="1" d="M 18.5 9 L 21 9.5 L 18.5 10 L 18.5 9 Z " /><path fill="rgb(138,105,70)" stroke="rgb(138,105,70)" stroke-width="1" opacity="1" d="M 19.5 11 Q 22.5 12.5 19.5 14 L 19.5 11 Z " /><path fill="rgb(138,105,70)" stroke="rgb(138,105,70)" stroke-width="1" opacity="1" d="M 16.5 16 L 17.5 18 L 19 17.5 L 18 19.5 Q 20.3 20.8 17.5 22 Q 14.7 20.8 17 19.5 L 16.5 18 L 14 19.5 L 16.5 16 Z " /><path fill="rgb(138,105,70)" stroke="rgb(138,105,70)" stroke-width="1" opacity="1" d="M 13.5 22 L 18.5 26 L 19.5 24 L 21.5 27 L 23 27.5 L 20.5 28 L 18.5 27 L 18.5 29 L 16 28.5 Q 15.3 26.3 17.5 27 L 17.5 26 L 14.5 24 L 11.5 26 L 12 24.5 L 13.5 22 Z " /><path fill="rgb(138,105,70)" stroke="rgb(138,105,70)" stroke-width="1" opacity="1" d="M 27.5 28 L 26.5 30 L 27.5 28 Z " /><path fill="rgb(138,105,70)" stroke="rgb(138,105,70)" stroke-width="1" opacity="1" d="M 19.5 31 L 20 33 L 18 32.5 L 19.5 31 Z " /><path fill="rgb(138,105,70)" stroke="rgb(138,105,70)" stroke-width="1" opacity="1" d="M 12.5 32 L 11.5 34 L 12.5 32 Z " /><path fill="rgb(138,105,70)" stroke="rgb(138,105,70)" stroke-width="1" opacity="1" d="M 15.5 32 L 16 34.5 L 15 34.5 L 15.5 32 Z " /><path fill="rgb(138,105,70)" stroke="rgb(138,105,70)" stroke-width="1" opacity="1" d="M 15 39 L 17 39.5 L 15 40.5 L 15 39 Z " /><path fill="rgb(138,105,70)" stroke="rgb(138,105,70)" stroke-width="1" opacity="1" d="M 7.5 42 L 9 44.5 L 7 43.5 L 7.5 42 Z " /><path fill="rgb(138,105,70)" stroke="rgb(138,105,70)" stroke-width="1" opacity="1" d="M 2.5 45 L 6 45.5 L 4.5 48 L 2.5 45 Z " /><path fill="rgb(138,105,70)" stroke="rgb(138,105,70)" stroke-width="1" opacity="1" d="M 13.5 47 L 14.5 49 Q 11.7 49.7 13.5 47 Z " /><path fill="rgb(138,105,70)" stroke="rgb(138,105,70)" stroke-width="1" opacity="1" d="M 16 47 L 21 47.5 L 16.5 49 L 16 47 Z " /><path fill="rgb(67,56,53)" stroke="rgb(67,56,53)" stroke-width="1" opacity="1" d="M 13.5 1 L 16 1.5 L 13.5 2 L 13.5 1 Z " /><path fill="rgb(67,56,53)" stroke="rgb(67,56,53)" stroke-width="1" opacity="1" d="M 18.5 14 L 17.5 16 L 16 15.5 L 18.5 14 Z " /><path fill="rgb(67,56,53)" stroke="rgb(67,56,53)" stroke-width="1" opacity="1" d="M 23.5 15 L 25 17.5 L 23 16.5 L 23.5 15 Z " /><path fill="rgb(67,56,53)" stroke="rgb(67,56,53)" stroke-width="1" opacity="1" d="M 26.5 18 L 26 19.5 L 25.5 23 L 25 21 L 23 20.5 L 26.5 18 Z " /><path fill="rgb(67,56,53)" stroke="rgb(67,56,53)" stroke-width="1" opacity="1" d="M 19.5 20 L 20.5 22 L 19.5 20 Z " /><path fill="rgb(67,56,53)" stroke="rgb(67,56,53)" stroke-width="1" opacity="1" d="M 9 23 Q 12 22 11 25 Q 8 26 9 23 Z " /><path fill="rgb(67,56,53)" stroke="rgb(67,56,53)" stroke-width="1" opacity="1" d="M 23.5 25 L 22.5 27 L 23.5 25 Z " /><path fill="rgb(67,56,53)" stroke="rgb(67,56,53)" stroke-width="1" opacity="1" d="M 24.5 29 L 25.5 31 L 24.5 29 Z " /><path fill="rgb(67,56,53)" stroke="rgb(67,56,53)" stroke-width="1" opacity="1" d="M 3.5 30 Q 6.5 31.5 3.5 33 Q 0.5 31.5 3.5 30 Z " /><path fill="rgb(67,56,53)" stroke="rgb(67,56,53)" stroke-width="1" opacity="1" d="M 21.5 31 L 22.5 33 L 21.5 31 Z " /><path fill="rgb(67,56,53)" stroke="rgb(67,56,53)" stroke-width="1" opacity="1" d="M 26 32 L 28 32.5 L 26 33.5 L 26 32 Z " /><path fill="rgb(67,56,53)" stroke="rgb(67,56,53)" stroke-width="1" opacity="1" d="M 26.5 40 L 27.5 42 L 26.5 40 Z " /><path fill="rgb(67,56,53)" stroke="rgb(67,56,53)" stroke-width="1" opacity="1" d="M 23.5 44 L 25.5 47 L 21.5 46 L 21.5 48 L 17.5 46 L 15.5 46 L 10 47 L 9.5 49 L 7 47.5 L 7.5 46 L 6 45.5 L 22.5 45 L 23.5 44 Z " /><path fill="rgb(67,56,53)" stroke="rgb(67,56,53)" stroke-width="1" opacity="1" d="M 2.5 46 L 3.5 48 Q 0.7 48.7 2.5 46 Z " /><path fill="rgb(185,55,32)" stroke="rgb(185,55,32)" stroke-width="1" opacity="1" d="M 22.5 7 Q 24.3 10.1 26 8.5 L 24.5 12 L 23.5 9 Q 20.7 9.7 22.5 7 Z " /><path fill="rgb(185,55,32)" stroke="rgb(185,55,32)" stroke-width="1" opacity="1" d="M 5.5 18 L 7.5 18 L 10 18.5 L 8.5 22 Q 7 18.5 5.5 21 L 4 20.5 L 5.5 18 Z " /><path fill="rgb(185,55,32)" stroke="rgb(185,55,32)" stroke-width="1" opacity="1" d="M 12.5 19 L 13.5 21 L 12.5 19 Z " /><path fill="rgb(185,55,32)" stroke="rgb(185,55,32)" stroke-width="1" opacity="1" d="M 6.5 22 L 9.5 26 L 7 25 L 6.5 22 Z " /><path fill="rgb(185,55,32)" stroke="rgb(185,55,32)" stroke-width="1" opacity="1" d="M 16.5 22 L 18.5 23 L 20 22.5 L 17.5 24 L 16.5 22 Z " /><path fill="rgb(185,55,32)" stroke="rgb(185,55,32)" stroke-width="1" opacity="1" d="M 26.5 22 L 26.5 25 Q 23.5 23.5 26.5 22 Z " /><path fill="rgb(185,55,32)" stroke="rgb(185,55,32)" stroke-width="1" opacity="1" d="M 7.5 30 L 6.5 32 L 7.5 30 Z " /><path fill="rgb(246,164,84)" stroke="rgb(246,164,84)" stroke-width="1" opacity="1" d="M 20.5 19 L 21.5 21 L 20.5 19 Z " /><path fill="rgb(246,164,84)" stroke="rgb(246,164,84)" stroke-width="1" opacity="1" d="M 14.5 25 L 18 26.5 L 16 27 L 14.5 35 L 12 33.5 L 12.5 32 L 7 29.5 L 11 28.5 L 8 27.5 Q 9.3 24.8 10.5 27 L 14.5 25 Z " /><path fill="rgb(246,164,84)" stroke="rgb(246,164,84)" stroke-width="1" opacity="1" d="M 4.5 26 L 5 28 L 3 27.5 L 4.5 26 Z " /><path fill="rgb(246,164,84)" stroke="rgb(246,164,84)" stroke-width="1" opacity="1" d="M 19.5 28 L 21 30.5 L 20 30.5 L 19.5 28 Z " /><path fill="rgb(246,164,84)" stroke="rgb(246,164,84)" stroke-width="1" opacity="1" d="M 20.5 32 L 22.5 35 L 24.5 32 L 25 33.5 L 24.5 35 L 27 35.5 L 27 37.5 L 26.5 39 L 26 37 L 20 34.5 L 20.5 32 Z " /><path fill="rgb(148,147,149)" stroke="rgb(148,147,149)" stroke-width="1" opacity="1" d="M 2.5 1 L 7 1.5 L 2.5 2 L 2.5 1 Z " /><path fill="rgb(148,147,149)" stroke="rgb(148,147,149)" stroke-width="1" opacity="1" d="M 23.5 1 L 28 1.5 L 23.5 2 L 23.5 1 Z " /><path fill="rgb(148,147,149)" stroke="rgb(148,147,149)" stroke-width="1" opacity="1" d="M 13.5 2 L 14.5 4 L 12.5 5 L 13 3.5 L 13.5 2 Z " /><path fill="rgb(148,147,149)" stroke="rgb(148,147,149)" stroke-width="1" opacity="1" d="M 15.5 5 L 16.5 7 L 15.5 5 Z " /><path fill="rgb(148,147,149)" stroke="rgb(148,147,149)" stroke-width="1" opacity="1" d="M 13.5 10 L 15.5 10 L 18 10.5 L 15 11 Q 16 14 13 13 L 13.5 10 Z " /><path fill="rgb(148,147,149)" stroke="rgb(148,147,149)" stroke-width="1" opacity="1" d="M 19.5 10 L 22 11.5 L 21.5 14 L 19.5 10 Z " /><path fill="rgb(148,147,149)" stroke="rgb(148,147,149)" stroke-width="1" opacity="1" d="M 14.5 14 L 16 17.5 L 15 17.5 L 14.5 14 Z " /><path fill="rgb(148,147,149)" stroke="rgb(148,147,149)" stroke-width="1" opacity="1" d="M 19.5 14 L 18.5 16 L 19.5 14 Z " /><path fill="rgb(148,147,149)" stroke="rgb(148,147,149)" stroke-width="1" opacity="1" d="M 11.5 16 L 14 17.5 L 12.5 18 L 11.5 16 Z " /><path fill="rgb(148,147,149)" stroke="rgb(148,147,149)" stroke-width="1" opacity="1" d="M 22.5 17 Q 25.5 18.5 22.5 20 L 22.5 17 Z " /><path fill="rgb(148,147,149)" stroke="rgb(148,147,149)" stroke-width="1" opacity="1" d="M 22.5 21 L 25 22.5 L 23.5 22 L 22.5 21 Z " /><path fill="rgb(148,147,149)" stroke="rgb(148,147,149)" stroke-width="1" opacity="1" d="M 26.5 21 L 27.5 23 L 26.5 21 Z " /><path fill="rgb(148,147,149)" stroke="rgb(148,147,149)" stroke-width="1" opacity="1" d="M 17.5 28 L 19 31.5 L 17 31.5 L 17.5 34 L 19.5 33 L 19.5 34 L 18 34.5 L 21 36.5 L 19.5 36 L 18 36.5 L 18.5 38 Q 15.5 38.9 17 34.5 L 16 31.5 L 17.5 28 Z " /><path fill="rgb(148,147,149)" stroke="rgb(148,147,149)" stroke-width="1" opacity="1" d="M 12.5 39 L 15 39.5 L 14.5 41 L 17.5 39 L 15.5 42 L 12.5 39 Z " /><path fill="rgb(148,147,149)" stroke="rgb(148,147,149)" stroke-width="1" opacity="1" d="M 25.5 40 L 26.5 42 L 25.5 40 Z " /><path fill="rgb(148,147,149)" stroke="rgb(148,147,149)" stroke-width="1" opacity="1" d="M 7.5 46 L 6.5 48 L 7.5 46 Z " /><path fill="rgb(148,147,149)" stroke="rgb(148,147,149)" stroke-width="1" opacity="1" d="M 15.5 46 L 15.5 49 Q 12.5 47.5 15.5 46 Z " /><path fill="rgb(148,147,149)" stroke="rgb(148,147,149)" stroke-width="1" opacity="1" d="M 21.5 46 L 24 46.5 L 23.5 48 L 27 48.5 L 17.5 49 L 17.5 48 L 22 47.5 L 21.5 46 Z " /><path fill="rgb(148,147,149)" stroke="rgb(148,147,149)" stroke-width="1" opacity="1" d="M 10.5 48 L 13 48.5 L 10.5 49 L 10.5 48 Z " /><path fill="rgb(205,182,107)" stroke="rgb(205,182,107)" stroke-width="1" opacity="1" d="M 13.5 6 L 15 8.5 L 13 9 L 13.5 6 Z " /><path fill="rgb(205,182,107)" stroke="rgb(205,182,107)" stroke-width="1" opacity="1" d="M 12.5 13 L 14 17 L 11.5 18 L 12 16.5 L 12.5 13 Z " /><path fill="rgb(205,182,107)" stroke="rgb(205,182,107)" stroke-width="1" opacity="1" d="M 20.5 15 Q 23.8 13.9 23 16.5 L 21.5 16 Q 18.9 15.3 20 18 Q 22.7 16.9 22 19.5 L 21.5 22 Q 18.3 21.3 19 16.5 L 20.5 15 Z " /><path fill="rgb(205,182,107)" stroke="rgb(205,182,107)" stroke-width="1" opacity="1" d="M 11.5 24 L 10.5 26 L 11.5 24 Z " /><path fill="rgb(205,182,107)" stroke="rgb(205,182,107)" stroke-width="1" opacity="1" d="M 20.5 24 L 23 25.5 L 21 26.5 L 20.5 24 Z " /><path fill="rgb(205,182,107)" stroke="rgb(205,182,107)" stroke-width="1" opacity="1" d="M 20.5 28 Q 22.8 27.3 22 29.5 L 25 30.5 L 23.5 32 L 20 29.5 L 19.5 31 L 19 29.5 L 20.5 28 Z " /><path fill="rgb(239,167,42)" stroke="rgb(239,167,42)" stroke-width="1" opacity="1" d="M 3.5 40 L 5 44 L 7 44.5 L 3.5 45 Q 5.1 43.3 2 41.5 L 3.5 40 Z " /><path fill="rgb(239,167,42)" stroke="rgb(239,167,42)" stroke-width="1" opacity="1" d="M 6.5 40 L 12.5 44 L 18 43 L 17.5 45 L 9.5 45 L 9.5 44 L 11 43.5 L 6 42 L 6.5 40 Z " /><path fill="rgb(239,167,42)" stroke="rgb(239,167,42)" stroke-width="1" opacity="1" d="M 20.5 42 L 23 42.5 L 20.5 43 L 20.5 42 Z " /><path fill="rgb(252,253,253)" stroke="rgb(252,253,253)" stroke-width="1" opacity="1" d="M 0 0 L 30 0 L 30 50 L 0 50 L 0 0 Z M 2 1 L 2 26 L 1 27 Q -1 33 2 35 L 1 48 L 3 49 L 28 49 L 29 46 L 29 25 L 29 23 L 29 1 L 2 1 Z " /><path fill="rgb(243,242,240)" stroke="rgb(243,242,240)" stroke-width="1" opacity="1" d="M 28.5 17 L 29 20.5 L 28 20.5 L 28.5 17 Z " /><path fill="rgb(243,242,240)" stroke="rgb(243,242,240)" stroke-width="1" opacity="1" d="M 1.5 26 L 2 33.5 L 1 33.5 L 1.5 26 Z " /><path fill="rgb(243,242,240)" stroke="rgb(243,242,240)" stroke-width="1" opacity="1" d="M 28.5 39 L 29 45.5 L 28 45.5 L 28.5 39 Z " /><path fill="rgb(243,242,240)" stroke="rgb(243,242,240)" stroke-width="1" opacity="1" d="M 1.5 40 L 2 47.5 L 1 47.5 L 1.5 40 Z " /><path fill="rgb(222,235,239)" stroke="rgb(222,235,239)" stroke-width="1" opacity="1" d="M 26.5 2 Q 29.1 1.2 28 4.5 L 29 7.5 L 28 10.5 L 29 13.5 L 28 15.5 Q 30.3 16.8 27.5 18 L 25 16.5 L 23 13.5 L 24.5 14 Q 28.9 15.5 28 12.5 L 27 10.5 Q 29.8 8.8 25.5 7 L 23 6.5 L 23.5 5 L 22 4.5 L 23.5 4 L 27 5 L 26.5 3 L 25 3.5 L 26.5 2 Z " /><path fill="rgb(222,235,239)" stroke="rgb(222,235,239)" stroke-width="1" opacity="1" d="M 27.5 19 L 29 22.5 L 27 23.5 L 28 21.5 L 27.5 19 Z " /><path fill="rgb(222,235,239)" stroke="rgb(222,235,239)" stroke-width="1" opacity="1" d="M 25.5 25 L 28 25.5 L 25.5 26 L 25.5 25 Z " /></svg>