<svg width="30" height="50" version="1.1" xmlns="http://www.w3.org/2000/svg" desc="Created with imagetracer.js version 1.2.6" ><path fill="rgb(184,174,170)" stroke="rgb(184,174,170)" stroke-width="1" opacity="1" d="M 20.5 11 L 21 14.5 L 19.5 17 L 19 15.5 L 20.5 11 Z " /><path fill="rgb(184,174,170)" stroke="rgb(184,174,170)" stroke-width="1" opacity="1" d="M 7.5 17 L 8 19.5 L 7 19.5 L 7.5 17 Z " /><path fill="rgb(184,174,170)" stroke="rgb(184,174,170)" stroke-width="1" opacity="1" d="M 9 18 L 11 18.5 L 9 19.5 L 9 18 Z " /><path fill="rgb(184,174,170)" stroke="rgb(184,174,170)" stroke-width="1" opacity="1" d="M 7.5 41 Q 11.3 39.8 10 43.5 L 9 43.5 Q 9.8 41.3 7.5 42 L 7.5 41 Z " /><path fill="rgb(184,174,170)" stroke="rgb(184,174,170)" stroke-width="1" opacity="1" d="M 24.5 42 L 26 45.5 L 21 47 Q 19.9 44.3 22.5 45 L 24.5 42 Z " /><path fill="rgb(184,174,170)" stroke="rgb(184,174,170)" stroke-width="1" opacity="1" d="M 3.5 45 L 4.5 47 L 3.5 45 Z " /><path fill="rgb(184,174,170)" stroke="rgb(184,174,170)" stroke-width="1" opacity="1" d="M 12.5 45 L 13 47 L 11 46.5 L 12.5 45 Z " /><path fill="rgb(204,101,52)" stroke="rgb(204,101,52)" stroke-width="1" opacity="1" d="M 14.5 2 L 18 3 L 18 5 Q 20.7 3.9 20 6.5 L 18 6.5 L 17.5 9 L 16.5 7 L 15 7.5 L 16 3.5 L 14 4.5 Q 15.3 9.3 12 8 Q 11 3.3 14.5 2 Z " /><path fill="rgb(204,101,52)" stroke="rgb(204,101,52)" stroke-width="1" opacity="1" d="M 9.5 4 L 10.5 6 L 9.5 4 Z " /><path fill="rgb(204,101,52)" stroke="rgb(204,101,52)" stroke-width="1" opacity="1" d="M 11.5 10 L 12.5 12 L 11.5 10 Z " /><path fill="rgb(93,56,21)" stroke="rgb(93,56,21)" stroke-width="1" opacity="1" d="M 10.5 2 L 13 2.5 L 10.5 3 L 10.5 2 Z " /><path fill="rgb(93,56,21)" stroke="rgb(93,56,21)" stroke-width="1" opacity="1" d="M 10.5 4 Q 12.8 3.3 12 5.5 L 10.5 4 Z " /><path fill="rgb(93,56,21)" stroke="rgb(93,56,21)" stroke-width="1" opacity="1" d="M 18.5 10 L 20 12.5 L 18 13.5 L 19 11.5 L 18.5 10 Z " /><path fill="rgb(93,56,21)" stroke="rgb(93,56,21)" stroke-width="1" opacity="1" d="M 10.5 11 L 14 12.5 L 11.5 13 L 10.5 11 Z " /><path fill="rgb(93,56,21)" stroke="rgb(93,56,21)" stroke-width="1" opacity="1" d="M 11.5 21 L 14 21.5 L 10 24 L 8 27.5 L 9 29.5 L 7 28.5 L 9 25.5 L 8.5 24 Q 10.8 24.8 10 22.5 L 11.5 21 Z " /><path fill="rgb(93,56,21)" stroke="rgb(93,56,21)" stroke-width="1" opacity="1" d="M 18 22 L 21 22.5 L 19 23.5 L 22 24.5 L 19 26.5 Q 21.5 25 18 23.5 L 18 22 Z " /><path fill="rgb(93,56,21)" stroke="rgb(93,56,21)" stroke-width="1" opacity="1" d="M 20.5 29 Q 23.3 30.3 21 31.5 L 20.5 33 L 20 31.5 L 20.5 29 Z " /><path fill="rgb(93,56,21)" stroke="rgb(93,56,21)" stroke-width="1" opacity="1" d="M 9 38 L 12 39.5 L 9.5 41 L 9 38 Z " /><path fill="rgb(249,252,252)" stroke="rgb(249,252,252)" stroke-width="1" opacity="1" d="M 0 0 L 30 0 L 30 50 L 0 50 L 0 0 Z M 4 2 L 4 4 L 2 4 L 2 41 L 1 42 L 2 46 Q 0 47 3 48 L 24 48 L 27 47 L 28 45 L 28 41 L 26 37 L 28 37 Q 29 34 26 35 L 25 32 L 26 29 L 23 28 L 26 22 L 24 19 Q 27 17 25 16 Q 26 12 22 14 L 21 8 L 21 6 L 22 4 L 21 2 L 4 2 Z " /><path fill="rgb(226,241,244)" stroke="rgb(226,241,244)" stroke-width="1" opacity="1" d="M 3.5 2 Q 8.9 0.1 8 3.5 L 6 5.5 Q 7.5 11 5 12.5 Q 7.6 15.4 7 21.5 Q 4.7 22.8 6 27.5 L 3 31.5 L 4 34.5 L 2 33.5 L 2 4.5 L 3.5 4 L 3.5 2 Z " /><path fill="rgb(226,241,244)" stroke="rgb(226,241,244)" stroke-width="1" opacity="1" d="M 25.5 20 L 26 21.5 L 24 22.5 L 25.5 20 Z " /><path fill="rgb(226,241,244)" stroke="rgb(226,241,244)" stroke-width="1" opacity="1" d="M 16.5 46 L 19.5 47 L 24 47.5 L 15.5 48 L 16.5 46 Z " /><path fill="rgb(94,83,59)" stroke="rgb(94,83,59)" stroke-width="1" opacity="1" d="M 7.5 11 L 9 14.5 L 7 15 L 6 12.5 L 7.5 11 Z " /><path fill="rgb(94,83,59)" stroke="rgb(94,83,59)" stroke-width="1" opacity="1" d="M 12.5 14 L 15 17.5 L 13 18 L 12.5 14 Z " /><path fill="rgb(94,83,59)" stroke="rgb(94,83,59)" stroke-width="1" opacity="1" d="M 18.5 17 Q 20.8 16.3 20 18.5 L 21.5 18 L 23 18.5 L 20.5 20 L 18.5 17 Z " /><path fill="rgb(94,83,59)" stroke="rgb(94,83,59)" stroke-width="1" opacity="1" d="M 18.5 24 L 19.5 26 L 18.5 24 Z " /><path fill="rgb(94,83,59)" stroke="rgb(94,83,59)" stroke-width="1" opacity="1" d="M 21 32 L 23 32.5 L 21 33.5 L 21 32 Z " /><path fill="rgb(94,83,59)" stroke="rgb(94,83,59)" stroke-width="1" opacity="1" d="M 6.5 33 L 5.5 35 L 6.5 33 Z " /><path fill="rgb(94,83,59)" stroke="rgb(94,83,59)" stroke-width="1" opacity="1" d="M 2.5 42 L 4.5 42 L 7 44.5 L 4.5 43 L 3.5 44 L 2.5 42 Z " /><path fill="rgb(94,83,59)" stroke="rgb(94,83,59)" stroke-width="1" opacity="1" d="M 14 42 L 19 42.5 L 17 43 L 16.5 46 L 15.5 43 L 14 43.5 L 14 42 Z " /><path fill="rgb(94,83,59)" stroke="rgb(94,83,59)" stroke-width="1" opacity="1" d="M 10.5 43 L 12 45.5 L 10 44.5 L 10.5 43 Z " /><path fill="rgb(94,83,59)" stroke="rgb(94,83,59)" stroke-width="1" opacity="1" d="M 8.5 45 L 7.5 47 L 8.5 45 Z " /><path fill="rgb(94,83,59)" stroke="rgb(94,83,59)" stroke-width="1" opacity="1" d="M 20.5 45 L 21 47 L 19 46.5 L 20.5 45 Z " /><path fill="rgb(136,111,37)" stroke="rgb(136,111,37)" stroke-width="1" opacity="1" d="M 14.5 4 Q 16.8 3.3 16 5.5 L 14.5 9 L 14 6.5 L 14.5 4 Z " /><path fill="rgb(136,111,37)" stroke="rgb(136,111,37)" stroke-width="1" opacity="1" d="M 19.5 13 L 22 16.5 L 20 17 L 19.5 13 Z " /><path fill="rgb(136,111,37)" stroke="rgb(136,111,37)" stroke-width="1" opacity="1" d="M 10 20 L 13 20.5 L 10.5 22 L 10 20 Z " /><path fill="rgb(136,111,37)" stroke="rgb(136,111,37)" stroke-width="1" opacity="1" d="M 14.5 21 L 14 22.5 L 13.5 24 L 13 22.5 L 14.5 21 Z " /><path fill="rgb(136,111,37)" stroke="rgb(136,111,37)" stroke-width="1" opacity="1" d="M 8.5 22 L 9.5 24 L 8.5 22 Z " /><path fill="rgb(136,111,37)" stroke="rgb(136,111,37)" stroke-width="1" opacity="1" d="M 15.5 23 L 16 24.5 L 13 26.5 L 15.5 23 Z " /><path fill="rgb(136,111,37)" stroke="rgb(136,111,37)" stroke-width="1" opacity="1" d="M 11.5 27 L 12.5 29 Q 9.7 29.7 11.5 27 Z " /><path fill="rgb(136,111,37)" stroke="rgb(136,111,37)" stroke-width="1" opacity="1" d="M 18.5 27 L 21 27.5 Q 18.9 30.8 18.5 27 Z " /><path fill="rgb(136,111,37)" stroke="rgb(136,111,37)" stroke-width="1" opacity="1" d="M 9.5 29 L 10 31.5 L 9 31.5 L 9.5 29 Z " /><path fill="rgb(136,111,37)" stroke="rgb(136,111,37)" stroke-width="1" opacity="1" d="M 6.5 32 Q 9.5 33.5 6.5 35 L 6.5 32 Z " /><path fill="rgb(136,111,37)" stroke="rgb(136,111,37)" stroke-width="1" opacity="1" d="M 9.5 36 L 10 37.5 L 6.5 40 L 6.5 39 L 9 37.5 L 9.5 36 Z " /><path fill="rgb(136,111,37)" stroke="rgb(136,111,37)" stroke-width="1" opacity="1" d="M 13.5 38 L 14.5 40 L 13.5 38 Z " /><path fill="rgb(212,171,82)" stroke="rgb(212,171,82)" stroke-width="1" opacity="1" d="M 9.5 2 L 13 3.5 L 9 4 L 9.5 2 Z " /><path fill="rgb(212,171,82)" stroke="rgb(212,171,82)" stroke-width="1" opacity="1" d="M 16.5 2 L 15.5 4 L 16.5 2 Z " /><path fill="rgb(212,171,82)" stroke="rgb(212,171,82)" stroke-width="1" opacity="1" d="M 18.5 3 L 19.5 5 Q 16.7 5.7 18.5 3 Z " /><path fill="rgb(212,171,82)" stroke="rgb(212,171,82)" stroke-width="1" opacity="1" d="M 9.5 5 L 12 6 Q 10.9 8.7 13.5 8 L 13.5 9 L 9 11 Q 7.9 8.3 10.5 9 L 9 6.5 L 9.5 5 Z " /><path fill="rgb(212,171,82)" stroke="rgb(212,171,82)" stroke-width="1" opacity="1" d="M 16.5 8 L 20 9.5 L 17 10 L 18 12.5 L 14 13.5 L 16 14.5 L 13.5 15 L 11 13.5 L 15 11.5 Q 14.3 9.3 16.5 10 L 16.5 8 Z " /><path fill="rgb(212,171,82)" stroke="rgb(212,171,82)" stroke-width="1" opacity="1" d="M 9.5 14 Q 12.3 15.3 10 16.5 L 9.5 18 L 8 15.5 L 9.5 14 Z " /><path fill="rgb(212,171,82)" stroke="rgb(212,171,82)" stroke-width="1" opacity="1" d="M 12.5 27 Q 15.5 28.5 12.5 30 L 12.5 27 Z " /><path fill="rgb(212,171,82)" stroke="rgb(212,171,82)" stroke-width="1" opacity="1" d="M 18.5 29 Q 20.8 28.3 20 30.5 L 18.5 29 Z " /><path fill="rgb(212,171,82)" stroke="rgb(212,171,82)" stroke-width="1" opacity="1" d="M 8.5 31 L 9.5 33 L 8.5 31 Z " /><path fill="rgb(212,171,82)" stroke="rgb(212,171,82)" stroke-width="1" opacity="1" d="M 23.5 32 L 25 34.5 L 23 33.5 L 23.5 32 Z " /><path fill="rgb(212,171,82)" stroke="rgb(212,171,82)" stroke-width="1" opacity="1" d="M 16.5 33 Q 19.5 34.5 16.5 36 L 15 35.5 L 17 34.5 L 16.5 33 Z " /><path fill="rgb(212,171,82)" stroke="rgb(212,171,82)" stroke-width="1" opacity="1" d="M 18.5 36 L 21 37.5 L 19.5 38 L 17 37.5 L 18.5 36 Z " /><path fill="rgb(212,171,82)" stroke="rgb(212,171,82)" stroke-width="1" opacity="1" d="M 8.5 37 L 7.5 39 L 8.5 37 Z " /><path fill="rgb(157,139,56)" stroke="rgb(157,139,56)" stroke-width="1" opacity="1" d="M 11.5 18 L 14 19 L 13.5 21 L 11.5 18 Z " /><path fill="rgb(157,139,56)" stroke="rgb(157,139,56)" stroke-width="1" opacity="1" d="M 23.5 29 L 24.5 31 L 23.5 29 Z " /><path fill="rgb(157,139,56)" stroke="rgb(157,139,56)" stroke-width="1" opacity="1" d="M 11.5 31 Q 14.5 32.5 11.5 34 L 11.5 31 Z " /><path fill="rgb(157,139,56)" stroke="rgb(157,139,56)" stroke-width="1" opacity="1" d="M 17.5 36 L 16.5 38 L 15 37.5 L 17.5 36 Z " /><path fill="rgb(247,236,99)" stroke="rgb(247,236,99)" stroke-width="1" opacity="1" d="M 13.5 9 L 16 9.5 L 13.5 10 L 13.5 9 Z " /><path fill="rgb(247,236,99)" stroke="rgb(247,236,99)" stroke-width="1" opacity="1" d="M 14.5 20 L 17 21.5 L 16.5 23 L 16 21 L 14.5 20 Z " /><path fill="rgb(247,236,99)" stroke="rgb(247,236,99)" stroke-width="1" opacity="1" d="M 18.5 25 L 16.5 28 L 14.5 29 L 15 27.5 Q 14.2 24.9 17.5 26 L 18.5 25 Z " /><path fill="rgb(247,236,99)" stroke="rgb(247,236,99)" stroke-width="1" opacity="1" d="M 10.5 29 L 15 31.5 L 12.5 32 L 10 31 L 10.5 29 Z " /><path fill="rgb(247,236,99)" stroke="rgb(247,236,99)" stroke-width="1" opacity="1" d="M 23.5 30 L 24.5 32 Q 21.7 32.7 23.5 30 Z " /><path fill="rgb(247,236,99)" stroke="rgb(247,236,99)" stroke-width="1" opacity="1" d="M 18.5 31 L 20 33.5 L 19 36 L 17 35.5 L 18 33 L 16 32.5 L 18.5 31 Z " /><path fill="rgb(247,236,99)" stroke="rgb(247,236,99)" stroke-width="1" opacity="1" d="M 12.5 33 L 15 37 L 11 34.5 L 12.5 33 Z " /><path fill="rgb(247,236,99)" stroke="rgb(247,236,99)" stroke-width="1" opacity="1" d="M 2.5 34 L 3.5 37 Q 5.8 36.3 5 38.5 L 2 40.5 L 3 35.5 L 2.5 34 Z " /><path fill="rgb(247,236,99)" stroke="rgb(247,236,99)" stroke-width="1" opacity="1" d="M 18.5 37 L 17.5 39 L 18.5 37 Z " /><path fill="rgb(175,159,65)" stroke="rgb(175,159,65)" stroke-width="1" opacity="1" d="M 17.5 18 L 23 21.5 L 20 23.5 L 21 21.5 L 19 21.5 Q 19.8 19.3 17.5 20 Q 16.3 22.3 15 19.5 L 17.5 18 Z " /><path fill="rgb(175,159,65)" stroke="rgb(175,159,65)" stroke-width="1" opacity="1" d="M 12.5 23 L 13.5 25 L 12.5 23 Z " /><path fill="rgb(175,159,65)" stroke="rgb(175,159,65)" stroke-width="1" opacity="1" d="M 10.5 26 L 9.5 28 L 10.5 26 Z " /><path fill="rgb(175,159,65)" stroke="rgb(175,159,65)" stroke-width="1" opacity="1" d="M 16.5 28 L 18.5 31 Q 16.3 31.8 17 29.5 L 16.5 28 Z " /><path fill="rgb(175,159,65)" stroke="rgb(175,159,65)" stroke-width="1" opacity="1" d="M 8.5 33 L 8 34.5 L 7.5 37 L 7 34.5 L 8.5 33 Z " /><path fill="rgb(175,159,65)" stroke="rgb(175,159,65)" stroke-width="1" opacity="1" d="M 10.5 33 L 11 34.5 L 10 35.5 L 11.5 38 Q 9.3 38.8 10 36.5 L 10 34.5 L 10.5 33 Z " /><path fill="rgb(175,159,65)" stroke="rgb(175,159,65)" stroke-width="1" opacity="1" d="M 14.5 34 L 17 34.5 L 14.5 35 L 14.5 34 Z " /><path fill="rgb(175,159,65)" stroke="rgb(175,159,65)" stroke-width="1" opacity="1" d="M 14.5 38 Q 16.8 37.3 16 39.5 L 14.5 38 Z " /><path fill="rgb(135,126,123)" stroke="rgb(135,126,123)" stroke-width="1" opacity="1" d="M 6.5 5 L 7.5 7 L 6.5 5 Z " /><path fill="rgb(135,126,123)" stroke="rgb(135,126,123)" stroke-width="1" opacity="1" d="M 11.5 15 L 13 17.5 L 12 17.5 L 11.5 15 Z " /><path fill="rgb(135,126,123)" stroke="rgb(135,126,123)" stroke-width="1" opacity="1" d="M 20.5 17 L 21 18.5 Q 19.5 21.5 18 18.5 L 20 18.5 L 20.5 17 Z " /><path fill="rgb(135,126,123)" stroke="rgb(135,126,123)" stroke-width="1" opacity="1" d="M 21.5 34 Q 23.8 33.3 23 35.5 L 25 38.5 L 23 39.5 Q 23.4 34.8 21.5 34 Z " /><path fill="rgb(135,126,123)" stroke="rgb(135,126,123)" stroke-width="1" opacity="1" d="M 19.5 42 Q 21.8 41.3 21 43.5 L 22 43.5 Q 21.3 40.9 24 42 L 23 44.5 L 23.5 46 L 19.5 45 L 17 46 L 17.5 43 L 19.5 44 L 19.5 42 Z " /><path fill="rgb(135,126,123)" stroke="rgb(135,126,123)" stroke-width="1" opacity="1" d="M 25.5 42 L 28 42.5 L 25.5 43 L 25.5 42 Z " /><path fill="rgb(135,126,123)" stroke="rgb(135,126,123)" stroke-width="1" opacity="1" d="M 4.5 43 Q 6 46.5 7.5 44 L 11 45.5 L 9 46.5 Q 9.7 43.9 7 45 L 6.5 47 L 6 45 L 2 44.5 L 4.5 43 Z " /><path fill="rgb(135,126,123)" stroke="rgb(135,126,123)" stroke-width="1" opacity="1" d="M 25.5 44 L 28 44.5 L 25.5 45 L 25.5 44 Z " /><path fill="rgb(228,215,82)" stroke="rgb(228,215,82)" stroke-width="1" opacity="1" d="M 22.5 19 L 20.5 22 L 22.5 19 Z " /><path fill="rgb(228,215,82)" stroke="rgb(228,215,82)" stroke-width="1" opacity="1" d="M 15.5 22 L 16.5 24 L 15.5 22 Z " /><path fill="rgb(228,215,82)" stroke="rgb(228,215,82)" stroke-width="1" opacity="1" d="M 11 25 L 13 25.5 L 11 26.5 L 11 25 Z " /><path fill="rgb(228,215,82)" stroke="rgb(228,215,82)" stroke-width="1" opacity="1" d="M 15.5 28 L 15.5 31 L 13 29.5 L 15.5 28 Z " /><path fill="rgb(228,215,82)" stroke="rgb(228,215,82)" stroke-width="1" opacity="1" d="M 13.5 33 L 16 33.5 L 13.5 34 L 13.5 33 Z " /><path fill="rgb(228,215,82)" stroke="rgb(228,215,82)" stroke-width="1" opacity="1" d="M 19.5 34 L 21 36.5 L 19 37 L 19.5 34 Z " /><path fill="rgb(228,215,82)" stroke="rgb(228,215,82)" stroke-width="1" opacity="1" d="M 4.5 35 L 3.5 37 L 4.5 35 Z " /><path fill="rgb(228,215,82)" stroke="rgb(228,215,82)" stroke-width="1" opacity="1" d="M 6.5 35 L 8 37.5 L 6 37.5 L 5 39.5 L 5.5 41 Q 2.8 39.8 5 38.5 L 6.5 35 Z " /><path fill="rgb(33,24,19)" stroke="rgb(33,24,19)" stroke-width="1" opacity="1" d="M 12.5 37 L 14 44 L 16 44.5 L 12.5 45 L 11 42.5 L 12.5 37 Z " /><path fill="rgb(33,24,19)" stroke="rgb(33,24,19)" stroke-width="1" opacity="1" d="M 2.5 41 L 3.5 43 L 2.5 41 Z " /><path fill="rgb(213,204,198)" stroke="rgb(213,204,198)" stroke-width="1" opacity="1" d="M 6.5 9 L 7 11.5 L 6 11.5 L 6.5 9 Z " /><path fill="rgb(213,204,198)" stroke="rgb(213,204,198)" stroke-width="1" opacity="1" d="M 17.5 14 L 18.5 16 L 17.5 14 Z " /><path fill="rgb(213,204,198)" stroke="rgb(213,204,198)" stroke-width="1" opacity="1" d="M 15 40 L 22 40.5 Q 20.4 43.5 15 42 L 15 40 Z " /><path fill="rgb(223,220,215)" stroke="rgb(223,220,215)" stroke-width="1" opacity="1" d="M 8.5 2 L 9 7.5 L 8 7.5 L 8.5 2 Z " /><path fill="rgb(223,220,215)" stroke="rgb(223,220,215)" stroke-width="1" opacity="1" d="M 20.5 7 L 21 10.5 L 20 10.5 L 20.5 7 Z " /><path fill="rgb(223,220,215)" stroke="rgb(223,220,215)" stroke-width="1" opacity="1" d="M 24.5 17 L 24 18.5 L 23.5 20 L 23 18.5 L 24.5 17 Z " /><path fill="rgb(223,220,215)" stroke="rgb(223,220,215)" stroke-width="1" opacity="1" d="M 6.5 23 L 7 25.5 L 6 25.5 L 6.5 23 Z " /><path fill="rgb(223,220,215)" stroke="rgb(223,220,215)" stroke-width="1" opacity="1" d="M 23.5 23 L 24 24.5 L 22.5 27 L 22 25.5 L 23.5 23 Z " /><path fill="rgb(223,220,215)" stroke="rgb(223,220,215)" stroke-width="1" opacity="1" d="M 5.5 28 L 5 29.5 L 3.5 32 L 4 30.5 L 5.5 28 Z " /><path fill="rgb(223,220,215)" stroke="rgb(223,220,215)" stroke-width="1" opacity="1" d="M 25.5 37 L 28 42 L 21 41.5 L 26 39.5 L 25.5 37 Z " /><path fill="rgb(223,220,215)" stroke="rgb(223,220,215)" stroke-width="1" opacity="1" d="M 4.5 45 L 2.5 48 L 4.5 45 Z " /><path fill="rgb(223,220,215)" stroke="rgb(223,220,215)" stroke-width="1" opacity="1" d="M 13.5 45 L 16 46.5 L 14.5 48 L 5.5 48 L 5.5 47 L 15 46.5 L 13.5 45 Z " /></svg>