<svg width="30" height="50" version="1.1" xmlns="http://www.w3.org/2000/svg" desc="Created with imagetracer.js version 1.2.6" ><path fill="rgb(200,213,204)" stroke="rgb(200,213,204)" stroke-width="1" opacity="1" d="M 15.5 2 L 16 7.5 L 15 7.5 L 15.5 2 Z " /><path fill="rgb(200,213,204)" stroke="rgb(200,213,204)" stroke-width="1" opacity="1" d="M 25.5 2 L 26 19.5 L 25 19.5 L 25.5 2 Z " /><path fill="rgb(200,213,204)" stroke="rgb(200,213,204)" stroke-width="1" opacity="1" d="M 5.5 5 L 6.5 7 L 5 6.5 L 4 9.5 L 5 10.5 L 5 22.5 L 3.5 26 L 3 23.5 L 4 22.5 L 4 10.5 L 4 8.5 L 5.5 5 Z " /><path fill="rgb(200,213,204)" stroke="rgb(200,213,204)" stroke-width="1" opacity="1" d="M 6.5 8 L 7 10.5 L 6 10.5 L 6.5 8 Z " /><path fill="rgb(200,213,204)" stroke="rgb(200,213,204)" stroke-width="1" opacity="1" d="M 11.5 10 L 13 11.5 L 12.5 14 L 11 12.5 L 11.5 10 Z " /><path fill="rgb(200,213,204)" stroke="rgb(200,213,204)" stroke-width="1" opacity="1" d="M 10.5 15 L 11 17.5 L 8.5 22 L 9 20.5 L 10.5 15 Z " /><path fill="rgb(200,213,204)" stroke="rgb(200,213,204)" stroke-width="1" opacity="1" d="M 24.5 25 Q 27.3 24.4 26 30.5 L 25 30.5 L 24.5 25 Z " /><path fill="rgb(200,213,204)" stroke="rgb(200,213,204)" stroke-width="1" opacity="1" d="M 3.5 33 L 4 37 L 2 36.5 L 3.5 33 Z " /><path fill="rgb(200,213,204)" stroke="rgb(200,213,204)" stroke-width="1" opacity="1" d="M 22.5 35 L 26 36.5 L 24.5 37 L 22.5 35 Z " /><path fill="rgb(200,213,204)" stroke="rgb(200,213,204)" stroke-width="1" opacity="1" d="M 7.5 37 L 8 38.5 L 5 40 Q 3.9 37.3 6.5 38 L 7.5 37 Z " /><path fill="rgb(200,213,204)" stroke="rgb(200,213,204)" stroke-width="1" opacity="1" d="M 12.5 46 Q 15.5 47.5 12.5 49 L 2 48.5 L 10.5 48 L 12.5 46 Z " /><path fill="rgb(200,213,204)" stroke="rgb(200,213,204)" stroke-width="1" opacity="1" d="M 25.5 46 L 24.5 48 L 25.5 46 Z " /><path fill="rgb(125,121,104)" stroke="rgb(125,121,104)" stroke-width="1" opacity="1" d="M 2.5 1 L 8 1.5 L 2.5 2 L 2.5 1 Z " /><path fill="rgb(125,121,104)" stroke="rgb(125,121,104)" stroke-width="1" opacity="1" d="M 9.5 1 L 12 1.5 L 9.5 2 L 9.5 1 Z " /><path fill="rgb(125,121,104)" stroke="rgb(125,121,104)" stroke-width="1" opacity="1" d="M 13.5 1 L 17 1.5 L 13.5 2 L 13.5 1 Z " /><path fill="rgb(125,121,104)" stroke="rgb(125,121,104)" stroke-width="1" opacity="1" d="M 13.5 14 L 14 16 L 12 15.5 L 13.5 14 Z " /><path fill="rgb(125,121,104)" stroke="rgb(125,121,104)" stroke-width="1" opacity="1" d="M 20.5 17 L 21.5 19 L 20.5 17 Z " /><path fill="rgb(125,121,104)" stroke="rgb(125,121,104)" stroke-width="1" opacity="1" d="M 6.5 22 L 8 24.5 L 7 24.5 L 6.5 22 Z " /><path fill="rgb(125,121,104)" stroke="rgb(125,121,104)" stroke-width="1" opacity="1" d="M 19.5 28 Q 22.1 27.2 21 30.5 L 20 30.5 L 19.5 28 Z " /><path fill="rgb(125,121,104)" stroke="rgb(125,121,104)" stroke-width="1" opacity="1" d="M 20.5 32 L 22 34.5 L 21 34.5 L 20.5 32 Z " /><path fill="rgb(125,121,104)" stroke="rgb(125,121,104)" stroke-width="1" opacity="1" d="M 6.5 40 L 7.5 42 L 6.5 40 Z " /><path fill="rgb(125,121,104)" stroke="rgb(125,121,104)" stroke-width="1" opacity="1" d="M 7.5 44 L 10 44.5 L 7.5 45 L 7.5 44 Z " /><path fill="rgb(125,121,104)" stroke="rgb(125,121,104)" stroke-width="1" opacity="1" d="M 21.5 46 L 25 48.5 L 23.5 49 Q 21.8 45.9 20 47.5 L 21.5 46 Z " /><path fill="rgb(83,73,58)" stroke="rgb(83,73,58)" stroke-width="1" opacity="1" d="M 5.5 6 L 6.5 8 L 5.5 6 Z " /><path fill="rgb(83,73,58)" stroke="rgb(83,73,58)" stroke-width="1" opacity="1" d="M 5.5 13 L 6.5 15 L 5.5 13 Z " /><path fill="rgb(83,73,58)" stroke="rgb(83,73,58)" stroke-width="1" opacity="1" d="M 11.5 18 L 13 20.5 L 10 20.5 L 11.5 18 Z " /><path fill="rgb(83,73,58)" stroke="rgb(83,73,58)" stroke-width="1" opacity="1" d="M 20.5 18 L 22.5 21 L 20.5 18 Z " /><path fill="rgb(83,73,58)" stroke="rgb(83,73,58)" stroke-width="1" opacity="1" d="M 24.5 21 L 23.5 23 L 24.5 21 Z " /><path fill="rgb(83,73,58)" stroke="rgb(83,73,58)" stroke-width="1" opacity="1" d="M 19.5 25 L 20.5 27 L 19.5 25 Z " /><path fill="rgb(83,73,58)" stroke="rgb(83,73,58)" stroke-width="1" opacity="1" d="M 24.5 27 L 23.5 29 L 24.5 27 Z " /><path fill="rgb(83,73,58)" stroke="rgb(83,73,58)" stroke-width="1" opacity="1" d="M 6.5 41 L 9 42 L 8.5 44 L 6 43 L 6.5 41 Z " /><path fill="rgb(83,73,58)" stroke="rgb(83,73,58)" stroke-width="1" opacity="1" d="M 7.5 46 L 8.5 48 Q 5.7 48.7 7.5 46 Z " /><path fill="rgb(137,52,33)" stroke="rgb(137,52,33)" stroke-width="1" opacity="1" d="M 14.5 22 L 17.5 24 L 17.5 25 L 14.5 22 Z " /><path fill="rgb(137,52,33)" stroke="rgb(137,52,33)" stroke-width="1" opacity="1" d="M 7.5 25 L 7 26.5 L 5.5 30 L 5 27.5 L 7.5 25 Z " /><path fill="rgb(137,52,33)" stroke="rgb(137,52,33)" stroke-width="1" opacity="1" d="M 19.5 26 L 18.5 28 L 19.5 26 Z " /><path fill="rgb(137,52,33)" stroke="rgb(137,52,33)" stroke-width="1" opacity="1" d="M 10.5 30 L 13 34 L 11 33.5 L 11.5 32 Q 8.7 32.7 10.5 30 Z " /><path fill="rgb(137,52,33)" stroke="rgb(137,52,33)" stroke-width="1" opacity="1" d="M 6.5 32 L 7.5 34 Q 4.7 34.7 6.5 32 Z " /><path fill="rgb(207,250,252)" stroke="rgb(207,250,252)" stroke-width="1" opacity="1" d="M 2 2 L 15 2 L 15 8 L 11 10.5 L 12 13.5 L 10 15.5 L 7.5 22 L 6 21.5 L 6 15 Q 9 16 8 13 Q 5.3 14.1 6 11.5 L 7 5 L 4 6.5 L 3 9.5 L 4 10.5 L 4 22.5 L 3 25.5 L 4 28.5 L 3 30.5 L 4 32.5 L 2.5 36 L 2 2 Z " /><path fill="rgb(207,250,252)" stroke="rgb(207,250,252)" stroke-width="1" opacity="1" d="M 26 2 L 28 2.5 L 28 34 L 26 33.5 L 26 2 Z " /><path fill="rgb(132,90,52)" stroke="rgb(132,90,52)" stroke-width="1" opacity="1" d="M 21.5 2 L 22 4 L 19.5 5 L 21.5 2 Z " /><path fill="rgb(132,90,52)" stroke="rgb(132,90,52)" stroke-width="1" opacity="1" d="M 24.5 4 L 25 6.5 L 24 6.5 L 24.5 4 Z " /><path fill="rgb(132,90,52)" stroke="rgb(132,90,52)" stroke-width="1" opacity="1" d="M 22.5 7 L 21.5 9 L 20 8.5 L 22.5 7 Z " /><path fill="rgb(132,90,52)" stroke="rgb(132,90,52)" stroke-width="1" opacity="1" d="M 18.5 12 L 19.5 14 Q 16.7 14.7 18.5 12 Z " /><path fill="rgb(132,90,52)" stroke="rgb(132,90,52)" stroke-width="1" opacity="1" d="M 24.5 13 L 25 15.5 L 24 15.5 L 24.5 13 Z " /><path fill="rgb(132,90,52)" stroke="rgb(132,90,52)" stroke-width="1" opacity="1" d="M 12.5 37 L 13.5 39 L 12.5 37 Z " /><path fill="rgb(92,27,14)" stroke="rgb(92,27,14)" stroke-width="1" opacity="1" d="M 6.5 25 L 5.5 27 L 6.5 25 Z " /><path fill="rgb(75,58,35)" stroke="rgb(75,58,35)" stroke-width="1" opacity="1" d="M 17 18 L 20 18.5 L 17.5 20 L 17 18 Z " /><path fill="rgb(75,58,35)" stroke="rgb(75,58,35)" stroke-width="1" opacity="1" d="M 21.5 23 Q 25.9 21.5 25 24.5 L 23.5 24 Q 20.5 24.5 21.5 23 Z " /><path fill="rgb(75,58,35)" stroke="rgb(75,58,35)" stroke-width="1" opacity="1" d="M 23.5 29 L 22.5 31 L 23.5 29 Z " /><path fill="rgb(75,58,35)" stroke="rgb(75,58,35)" stroke-width="1" opacity="1" d="M 23.5 33 L 24.5 35 L 23.5 33 Z " /><path fill="rgb(75,58,35)" stroke="rgb(75,58,35)" stroke-width="1" opacity="1" d="M 13.5 37 L 12.5 39 L 13.5 37 Z " /><path fill="rgb(138,32,17)" stroke="rgb(138,32,17)" stroke-width="1" opacity="1" d="M 14.5 20 L 18 20.5 L 15.5 22 L 14 21.5 Q 14.8 23.8 12.5 23 L 14.5 20 Z " /><path fill="rgb(138,32,17)" stroke="rgb(138,32,17)" stroke-width="1" opacity="1" d="M 19.5 21 L 18.5 23 L 19.5 21 Z " /><path fill="rgb(138,32,17)" stroke="rgb(138,32,17)" stroke-width="1" opacity="1" d="M 12.5 24 L 13 26 L 10.5 27 L 9.5 25 Q 11 27.5 12.5 24 Z " /><path fill="rgb(138,32,17)" stroke="rgb(138,32,17)" stroke-width="1" opacity="1" d="M 7.5 28 L 8 29.5 L 6.5 32 L 6 30.5 L 7.5 28 Z " /><path fill="rgb(138,32,17)" stroke="rgb(138,32,17)" stroke-width="1" opacity="1" d="M 12.5 28 L 14 28.5 L 10.5 30 L 10.5 29 L 12.5 28 Z " /><path fill="rgb(138,32,17)" stroke="rgb(138,32,17)" stroke-width="1" opacity="1" d="M 3.5 41 L 4 43 L 2 42.5 L 3.5 41 Z " /><path fill="rgb(220,94,53)" stroke="rgb(220,94,53)" stroke-width="1" opacity="1" d="M 13.5 11 Q 17.3 10 16 13 L 13.5 11 Z " /><path fill="rgb(220,94,53)" stroke="rgb(220,94,53)" stroke-width="1" opacity="1" d="M 5.5 15 L 6 17.5 L 5 17.5 L 5.5 15 Z " /><path fill="rgb(220,94,53)" stroke="rgb(220,94,53)" stroke-width="1" opacity="1" d="M 16 21 Q 18.7 19.9 18 22.5 L 19.5 22 L 21 22.5 Q 19.3 26.7 17.5 24 L 15 25.5 L 16 28.5 L 14.5 28 L 10 29 Q 8.5 32.8 11.5 32 L 11 35.5 L 12 37.5 L 9.5 38 L 7 37 L 8 33.5 L 7 30.5 L 8 28.5 L 7 26.5 Q 8.8 23.3 10.5 27 L 14 24.5 L 12 23.5 L 14.5 23 L 16 23.5 L 16 21 Z " /><path fill="rgb(220,94,53)" stroke="rgb(220,94,53)" stroke-width="1" opacity="1" d="M 17 26 L 19 26.5 L 17 27.5 L 17 26 Z " /><path fill="rgb(220,94,53)" stroke="rgb(220,94,53)" stroke-width="1" opacity="1" d="M 4 30 Q 7.7 28.8 6 34 Q 2.3 35.2 4 30 Z " /><path fill="rgb(220,94,53)" stroke="rgb(220,94,53)" stroke-width="1" opacity="1" d="M 26.5 35 Q 28.8 34.3 28 36.5 L 26.5 35 Z " /><path fill="rgb(220,94,53)" stroke="rgb(220,94,53)" stroke-width="1" opacity="1" d="M 2 43 Q 5.8 42 7 44.5 L 4.5 45 L 2 44.5 L 2 43 Z " /><path fill="rgb(208,190,124)" stroke="rgb(208,190,124)" stroke-width="1" opacity="1" d="M 16.5 2 L 17 5 Q 20 4 19 7 L 16.5 8 L 16 5.5 L 16.5 2 Z " /><path fill="rgb(208,190,124)" stroke="rgb(208,190,124)" stroke-width="1" opacity="1" d="M 18.5 2 L 21.5 4 L 24 5 L 23.5 17 L 23 14 L 18.5 16 L 19.5 14 L 21 13.5 Q 17.3 11.8 20.5 10 L 21.5 13 L 23 7.5 L 20 6 L 18.5 2 Z " /><path fill="rgb(208,190,124)" stroke="rgb(208,190,124)" stroke-width="1" opacity="1" d="M 17.5 9 L 18 11.5 Q 18.7 14.1 16 13 L 17.5 9 Z " /><path fill="rgb(208,190,124)" stroke="rgb(208,190,124)" stroke-width="1" opacity="1" d="M 16.5 17 L 15.5 19 L 13.5 20 L 13 18 L 16.5 17 Z " /><path fill="rgb(208,190,124)" stroke="rgb(208,190,124)" stroke-width="1" opacity="1" d="M 16 25 L 18 25.5 L 17 28 L 15 27.5 L 16 25 Z " /><path fill="rgb(208,190,124)" stroke="rgb(208,190,124)" stroke-width="1" opacity="1" d="M 17.5 29 L 20 29.5 L 17 30.5 L 16 32.5 L 19 34.5 L 20.5 37 L 23.5 38 L 25 37.5 Q 26.1 40.8 23.5 40 L 21.5 40 L 14 38.5 L 16.5 37 L 18 37.5 Q 19.1 34.2 16.5 35 L 14 33.5 L 15.5 31 L 14 30.5 L 17.5 29 Z " /><path fill="rgb(208,190,124)" stroke="rgb(208,190,124)" stroke-width="1" opacity="1" d="M 20.5 34 L 21.5 36 L 20.5 34 Z " /><path fill="rgb(208,190,124)" stroke="rgb(208,190,124)" stroke-width="1" opacity="1" d="M 25.5 35 L 27.5 38 L 25.5 35 Z " /><path fill="rgb(52,35,21)" stroke="rgb(52,35,21)" stroke-width="1" opacity="1" d="M 20 6 L 22 6.5 L 20 7.5 L 20 6 Z " /><path fill="rgb(52,35,21)" stroke="rgb(52,35,21)" stroke-width="1" opacity="1" d="M 22.5 14 L 23 18 Q 20 19.3 21 15.5 L 22.5 14 Z " /><path fill="rgb(52,35,21)" stroke="rgb(52,35,21)" stroke-width="1" opacity="1" d="M 24.5 28 L 25 31 L 23 30.5 L 24.5 28 Z " /><path fill="rgb(161,150,113)" stroke="rgb(161,150,113)" stroke-width="1" opacity="1" d="M 17 1 L 19 1.5 L 17.5 4 L 17 1 Z " /><path fill="rgb(161,150,113)" stroke="rgb(161,150,113)" stroke-width="1" opacity="1" d="M 22.5 1 L 28 1.5 L 22.5 2 L 22.5 1 Z " /><path fill="rgb(161,150,113)" stroke="rgb(161,150,113)" stroke-width="1" opacity="1" d="M 15.5 8 Q 17.8 7.3 17 9.5 L 15.5 8 Z " /><path fill="rgb(161,150,113)" stroke="rgb(161,150,113)" stroke-width="1" opacity="1" d="M 22.5 8 L 21.5 10 L 18 9.5 L 22.5 8 Z " /><path fill="rgb(161,150,113)" stroke="rgb(161,150,113)" stroke-width="1" opacity="1" d="M 12.5 9 L 13.5 11 L 12.5 9 Z " /><path fill="rgb(161,150,113)" stroke="rgb(161,150,113)" stroke-width="1" opacity="1" d="M 12.5 12 L 15 13.5 Q 14.3 15.8 16.5 15 L 18.5 14 L 20 17.5 L 19 17.5 L 18.5 15 L 15.5 18 Q 14.3 15.8 13 18.5 L 12.5 20 L 12 17 Q 15.7 18.2 14 13 L 12.5 12 Z " /><path fill="rgb(161,150,113)" stroke="rgb(161,150,113)" stroke-width="1" opacity="1" d="M 25.5 20 L 26 24.5 L 25 24.5 L 25.5 20 Z " /><path fill="rgb(161,150,113)" stroke="rgb(161,150,113)" stroke-width="1" opacity="1" d="M 10.5 23 L 9.5 25 L 8 24.5 L 10.5 23 Z " /><path fill="rgb(161,150,113)" stroke="rgb(161,150,113)" stroke-width="1" opacity="1" d="M 20.5 25 L 22 28 L 20 27.5 L 20.5 25 Z " /><path fill="rgb(161,150,113)" stroke="rgb(161,150,113)" stroke-width="1" opacity="1" d="M 22.5 29 L 21.5 31 L 22.5 29 Z " /><path fill="rgb(161,150,113)" stroke="rgb(161,150,113)" stroke-width="1" opacity="1" d="M 13.5 30 L 18 32.5 L 16.5 33 L 14 32 L 13.5 34 L 13.5 30 Z " /><path fill="rgb(161,150,113)" stroke="rgb(161,150,113)" stroke-width="1" opacity="1" d="M 14 35 L 16 35.5 L 14 36.5 L 14 35 Z " /><path fill="rgb(161,150,113)" stroke="rgb(161,150,113)" stroke-width="1" opacity="1" d="M 21.5 36 L 24 37.5 L 22.5 37 L 21.5 36 Z " /><path fill="rgb(161,150,113)" stroke="rgb(161,150,113)" stroke-width="1" opacity="1" d="M 25.5 40 L 27.5 43 L 25.5 40 Z " /><path fill="rgb(161,150,113)" stroke="rgb(161,150,113)" stroke-width="1" opacity="1" d="M 13.5 46 L 13.5 48 L 15 48.5 L 13.5 49 Q 10.5 47.5 13.5 46 Z " /><path fill="rgb(161,150,113)" stroke="rgb(161,150,113)" stroke-width="1" opacity="1" d="M 17.5 46 L 18 48 L 21 48.5 L 16 49 L 17.5 46 Z " /><path fill="rgb(246,242,227)" stroke="rgb(246,242,227)" stroke-width="1" opacity="1" d="M 18.5 29 L 18.5 32 Q 15.5 30.5 18.5 29 Z " /><path fill="rgb(246,242,227)" stroke="rgb(246,242,227)" stroke-width="1" opacity="1" d="M 18.5 33 L 21 33.5 L 18.5 34 L 18.5 33 Z " /><path fill="rgb(246,242,227)" stroke="rgb(246,242,227)" stroke-width="1" opacity="1" d="M 16.5 35 Q 19.1 34.2 18 37.5 L 16.5 37 L 15 36.5 L 16.5 35 Z " /><path fill="rgb(246,242,227)" stroke="rgb(246,242,227)" stroke-width="1" opacity="1" d="M 28.5 39 L 29 40.5 L 27 41.5 L 28.5 39 Z " /><path fill="rgb(246,242,227)" stroke="rgb(246,242,227)" stroke-width="1" opacity="1" d="M 25.5 42 L 24.5 44 L 25.5 42 Z " /><path fill="rgb(246,242,227)" stroke="rgb(246,242,227)" stroke-width="1" opacity="1" d="M 2 45 L 7 45.5 L 5.5 48 L 3 46.5 L 2.5 48 L 2 45 Z " /><path fill="rgb(252,252,253)" stroke="rgb(252,252,253)" stroke-width="1" opacity="1" d="M 0 0 L 30 0 L 30 50 L 0 50 L 0 0 Z M 2 1 L 2 38 L 2 40 L 1 42 L 2 49 L 29 49 L 28 46 L 25 47 L 24 46 L 16 46 L 16 48 Q 13 49 14 46 L 12 47 L 7 46 L 13 45 L 7 41 L 10 39 L 26 41 L 25 43 L 20 42 L 18 43 L 20 44 L 28 44 L 29 41 L 28 39 L 28 1 L 2 1 Z " /><path fill="rgb(112,98,73)" stroke="rgb(112,98,73)" stroke-width="1" opacity="1" d="M 16.5 13 L 17 15 L 15 14.5 L 16.5 13 Z " /><path fill="rgb(112,98,73)" stroke="rgb(112,98,73)" stroke-width="1" opacity="1" d="M 4.5 23 Q 7.5 24.5 4.5 26 L 4.5 23 Z " /></svg>