<svg width="30" height="50" version="1.1" xmlns="http://www.w3.org/2000/svg" desc="Created with imagetracer.js version 1.2.6" ><path fill="rgb(233,231,209)" stroke="rgb(233,231,209)" stroke-width="1" opacity="1" d="M 6.5 8 L 7.5 10 L 5 9.5 L 6.5 8 Z " /><path fill="rgb(233,231,209)" stroke="rgb(233,231,209)" stroke-width="1" opacity="1" d="M 4.5 12 L 6 13.5 L 5.5 16 L 4 14.5 L 4.5 12 Z " /><path fill="rgb(233,231,209)" stroke="rgb(233,231,209)" stroke-width="1" opacity="1" d="M 14.5 14 Q 16.8 13.3 16 15.5 L 16.5 17 Q 14.3 17.8 15 15.5 L 14.5 14 Z " /><path fill="rgb(233,231,209)" stroke="rgb(233,231,209)" stroke-width="1" opacity="1" d="M 7.5 16 L 9 19.5 L 7 20.5 L 7 18.5 L 7.5 16 Z " /><path fill="rgb(233,231,209)" stroke="rgb(233,231,209)" stroke-width="1" opacity="1" d="M 12.5 18 L 13 20 L 11 19.5 L 12.5 18 Z " /><path fill="rgb(233,231,209)" stroke="rgb(233,231,209)" stroke-width="1" opacity="1" d="M 19.5 20 L 20 22.5 L 19 22.5 L 19.5 20 Z " /><path fill="rgb(233,231,209)" stroke="rgb(233,231,209)" stroke-width="1" opacity="1" d="M 7.5 22 L 8.5 24 L 10 23.5 Q 8.5 26.5 7 23.5 L 7.5 22 Z " /><path fill="rgb(233,231,209)" stroke="rgb(233,231,209)" stroke-width="1" opacity="1" d="M 20.5 24 L 19.5 26 L 20.5 24 Z " /><path fill="rgb(233,231,209)" stroke="rgb(233,231,209)" stroke-width="1" opacity="1" d="M 7.5 26 L 9 28.5 L 8 28.5 L 7.5 26 Z " /><path fill="rgb(233,231,209)" stroke="rgb(233,231,209)" stroke-width="1" opacity="1" d="M 21.5 26 L 20.5 28 L 21.5 26 Z " /><path fill="rgb(233,231,209)" stroke="rgb(233,231,209)" stroke-width="1" opacity="1" d="M 26.5 26 Q 29.3 27.3 28 32.5 L 27 32.5 L 26.5 26 Z " /><path fill="rgb(233,231,209)" stroke="rgb(233,231,209)" stroke-width="1" opacity="1" d="M 3.5 32 L 6 35.5 L 5 35.5 L 3.5 33 L 2 33.5 L 3.5 32 Z " /><path fill="rgb(233,231,209)" stroke="rgb(233,231,209)" stroke-width="1" opacity="1" d="M 25.5 44 L 28 44.5 L 25.5 45 L 25.5 44 Z " /><path fill="rgb(233,231,209)" stroke="rgb(233,231,209)" stroke-width="1" opacity="1" d="M 9.5 46 L 8.5 48 L 9.5 46 Z " /><path fill="rgb(233,231,209)" stroke="rgb(233,231,209)" stroke-width="1" opacity="1" d="M 12.5 46 L 15 46.5 L 11.5 48 L 12.5 46 Z " /><path fill="rgb(253,253,252)" stroke="rgb(253,253,252)" stroke-width="1" opacity="1" d="M 0 0 L 30 0 L 30 50 L 0 50 L 0 0 Z M 2 1 L 2 3 L 2 18 L 2 20 L 2 34 L 1 35 L 2 39 L 1 41 L 1 45 L 2 48 L 2 49 L 29 49 L 28 44 L 28 42 L 29 40 Q 31 34 28 33 L 28 3 L 29 2 L 2 1 Z " /><path fill="rgb(250,248,251)" stroke="rgb(250,248,251)" stroke-width="1" opacity="1" d="M 14.5 4 L 17 5.5 L 15.5 6 L 14.5 4 Z " /><path fill="rgb(250,248,251)" stroke="rgb(250,248,251)" stroke-width="1" opacity="1" d="M 14.5 16 L 13.5 18 L 14.5 16 Z " /><path fill="rgb(250,248,251)" stroke="rgb(250,248,251)" stroke-width="1" opacity="1" d="M 5 18 L 7 18.5 L 5 19.5 L 5 18 Z " /><path fill="rgb(250,248,251)" stroke="rgb(250,248,251)" stroke-width="1" opacity="1" d="M 4.5 27 L 8 28 Q 9 31.8 6.5 33 Q 3.1 33.9 5 28.5 L 4.5 27 Z " /><path fill="rgb(250,248,251)" stroke="rgb(250,248,251)" stroke-width="1" opacity="1" d="M 8 45 L 10 45.5 L 8 46.5 L 8 45 Z " /><path fill="rgb(250,248,251)" stroke="rgb(250,248,251)" stroke-width="1" opacity="1" d="M 11.5 45 L 15 45.5 L 11.5 46 L 11.5 45 Z " /><path fill="rgb(251,249,252)" stroke="rgb(251,249,252)" stroke-width="1" opacity="1" d="M 3 2 L 12 2.5 L 11.5 4 L 14.5 5 L 18 4 L 18.5 2 L 26.5 2 L 28 3.5 L 28 26.5 L 27 26.5 Q 27.8 23.9 24.5 25 L 22.5 25 Q 20.3 25.8 21 23.5 L 19 19.5 L 16 14 L 12 13 L 10 8 L 6.5 8 L 3 10 L 4 6.5 L 3 2 Z " /><path fill="rgb(251,249,252)" stroke="rgb(251,249,252)" stroke-width="1" opacity="1" d="M 3.5 13 L 5.5 16 Q 8.1 15.3 7 18 Q 4.3 16.9 5 19.5 L 7 19.5 L 6.5 28 L 4 23.5 L 4 21.5 L 3 16.5 L 3 14.5 L 3.5 13 Z " /><path fill="rgb(251,249,252)" stroke="rgb(251,249,252)" stroke-width="1" opacity="1" d="M 3.5 27 Q 5.8 27.8 5 31.5 L 4 31.5 L 3.5 27 Z " /><path fill="rgb(251,249,252)" stroke="rgb(251,249,252)" stroke-width="1" opacity="1" d="M 6.5 33 Q 8.8 32.3 8 34.5 L 6.5 33 Z " /><path fill="rgb(251,249,252)" stroke="rgb(251,249,252)" stroke-width="1" opacity="1" d="M 15.5 45 L 18.5 46 L 20 45.5 L 17.5 47 L 15.5 45 Z " /><path fill="rgb(251,249,252)" stroke="rgb(251,249,252)" stroke-width="1" opacity="1" d="M 22 45 L 28 45 L 28 48 Q 23.4 49.3 22 46.5 L 22 45 Z " /><path fill="rgb(249,246,239)" stroke="rgb(249,246,239)" stroke-width="1" opacity="1" d="M 1.5 1 L 4 7.5 L 3 10 L 7 10.5 L 3 12.5 L 4 15.5 L 3 19.5 L 5 22.5 L 3 23.5 L 5 24 Q 6.5 27.7 3.5 27 L 4 28.5 Q 4.8 32.3 2.5 33 L 2 2.5 L 1.5 1 Z " /><path fill="rgb(249,246,239)" stroke="rgb(249,246,239)" stroke-width="1" opacity="1" d="M 9.5 9 L 10.5 11 L 8 10.5 L 9.5 9 Z " /><path fill="rgb(249,246,239)" stroke="rgb(249,246,239)" stroke-width="1" opacity="1" d="M 20.5 25 L 20 26.5 L 19.5 28 L 19 26.5 L 20.5 25 Z " /><path fill="rgb(249,246,239)" stroke="rgb(249,246,239)" stroke-width="1" opacity="1" d="M 28.5 33 L 29 39.5 L 28 39.5 L 28.5 33 Z " /><path fill="rgb(249,246,239)" stroke="rgb(249,246,239)" stroke-width="1" opacity="1" d="M 21.5 44 L 25 44.5 L 21.5 45 L 21.5 44 Z " /><path fill="rgb(249,246,239)" stroke="rgb(249,246,239)" stroke-width="1" opacity="1" d="M 2 45 L 8 45.5 L 5 46 Q 6.1 49.3 2 48 L 2 45 Z " /><path fill="rgb(100,90,75)" stroke="rgb(100,90,75)" stroke-width="1" opacity="1" d="M 11.5 1 L 15 1.5 L 11.5 2 L 11.5 1 Z " /><path fill="rgb(100,90,75)" stroke="rgb(100,90,75)" stroke-width="1" opacity="1" d="M 17.5 1 L 20 1.5 L 17.5 2 L 17.5 1 Z " /><path fill="rgb(100,90,75)" stroke="rgb(100,90,75)" stroke-width="1" opacity="1" d="M 8.5 16 L 9.5 18 L 8.5 16 Z " /><path fill="rgb(100,90,75)" stroke="rgb(100,90,75)" stroke-width="1" opacity="1" d="M 10.5 20 L 13 21.5 L 12 22.5 L 13.5 25 L 10.5 20 Z " /><path fill="rgb(100,90,75)" stroke="rgb(100,90,75)" stroke-width="1" opacity="1" d="M 19.5 35 Q 21.8 34.3 21 36.5 L 19.5 35 Z " /><path fill="rgb(100,90,75)" stroke="rgb(100,90,75)" stroke-width="1" opacity="1" d="M 23.5 35 L 22.5 37 L 23.5 35 Z " /><path fill="rgb(100,90,75)" stroke="rgb(100,90,75)" stroke-width="1" opacity="1" d="M 8.5 38 L 10 40.5 L 8 39.5 L 8.5 38 Z " /><path fill="rgb(100,90,75)" stroke="rgb(100,90,75)" stroke-width="1" opacity="1" d="M 14.5 39 L 13.5 41 L 14.5 39 Z " /><path fill="rgb(100,90,75)" stroke="rgb(100,90,75)" stroke-width="1" opacity="1" d="M 20.5 47 L 21 49 L 17 48.5 L 20.5 47 Z " /><path fill="rgb(100,90,75)" stroke="rgb(100,90,75)" stroke-width="1" opacity="1" d="M 23.5 48 L 28 48.5 L 23.5 49 L 23.5 48 Z " /><path fill="rgb(134,126,99)" stroke="rgb(134,126,99)" stroke-width="1" opacity="1" d="M 13.5 2 L 16 2.5 L 13.5 3 L 13.5 2 Z " /><path fill="rgb(134,126,99)" stroke="rgb(134,126,99)" stroke-width="1" opacity="1" d="M 7.5 8 Q 9.8 7.3 9 9.5 L 7.5 8 Z " /><path fill="rgb(134,126,99)" stroke="rgb(134,126,99)" stroke-width="1" opacity="1" d="M 12.5 16 L 11.5 18 L 8.5 19 L 8.5 18 L 12.5 16 Z " /><path fill="rgb(134,126,99)" stroke="rgb(134,126,99)" stroke-width="1" opacity="1" d="M 18.5 20 L 18.5 23 Q 15.5 21.5 18.5 20 Z " /><path fill="rgb(134,126,99)" stroke="rgb(134,126,99)" stroke-width="1" opacity="1" d="M 4.5 32 L 7 36 L 9.5 35 L 10 37.5 L 9.5 39 L 9 37 L 6 35.5 L 4.5 32 Z " /><path fill="rgb(134,126,99)" stroke="rgb(134,126,99)" stroke-width="1" opacity="1" d="M 11.5 36 Q 13.8 35.3 13 37.5 L 11.5 36 Z " /><path fill="rgb(134,126,99)" stroke="rgb(134,126,99)" stroke-width="1" opacity="1" d="M 4.5 37 Q 6.8 36.3 6 38.5 L 6.5 40 Q 4.3 40.8 5 38.5 L 4.5 37 Z " /><path fill="rgb(134,126,99)" stroke="rgb(134,126,99)" stroke-width="1" opacity="1" d="M 19.5 41 L 21 41.5 L 18.5 43 L 19.5 41 Z " /><path fill="rgb(134,126,99)" stroke="rgb(134,126,99)" stroke-width="1" opacity="1" d="M 10.5 46 L 14 48.5 L 9 49 L 10.5 46 Z " /><path fill="rgb(231,244,247)" stroke="rgb(231,244,247)" stroke-width="1" opacity="1" d="M 3.5 33 L 5 36 Q 1.5 37.1 3.5 33 Z " /><path fill="rgb(103,51,30)" stroke="rgb(103,51,30)" stroke-width="1" opacity="1" d="M 4.5 1 L 11 1.5 L 4.5 2 L 4.5 1 Z " /><path fill="rgb(103,51,30)" stroke="rgb(103,51,30)" stroke-width="1" opacity="1" d="M 7.5 12 L 8 16 Q 5 17.3 6 13.5 L 7.5 12 Z " /><path fill="rgb(103,51,30)" stroke="rgb(103,51,30)" stroke-width="1" opacity="1" d="M 9.5 12 L 10.5 14 L 9.5 12 Z " /><path fill="rgb(103,51,30)" stroke="rgb(103,51,30)" stroke-width="1" opacity="1" d="M 16 22 L 18 22.5 L 18 24.5 L 16.5 28 Q 13.9 28.7 15 26 Q 17.7 27.1 17 24.5 L 16 22 Z " /><path fill="rgb(103,51,30)" stroke="rgb(103,51,30)" stroke-width="1" opacity="1" d="M 11.5 24 L 13 24.5 L 11 25 L 12.5 28 L 16 30.5 L 14.5 31 L 12.5 31 Q 8.8 29.8 10 33.5 L 9 33.5 L 11 28.5 L 8.5 25 L 11.5 24 Z " /><path fill="rgb(103,51,30)" stroke="rgb(103,51,30)" stroke-width="1" opacity="1" d="M 26.5 29 L 27 32.5 L 26 32.5 L 26.5 29 Z " /><path fill="rgb(103,51,30)" stroke="rgb(103,51,30)" stroke-width="1" opacity="1" d="M 22.5 30 L 23 32.5 L 20 34.5 L 22.5 30 Z " /><path fill="rgb(103,51,30)" stroke="rgb(103,51,30)" stroke-width="1" opacity="1" d="M 13.5 32 L 14.5 34 L 17 33 L 15.5 36 L 12 34.5 L 13.5 32 Z " /><path fill="rgb(103,51,30)" stroke="rgb(103,51,30)" stroke-width="1" opacity="1" d="M 18.5 35 L 20 39 L 24 39 L 24 40.5 L 22.5 40 L 18 39.5 L 18.5 35 Z " /><path fill="rgb(103,51,30)" stroke="rgb(103,51,30)" stroke-width="1" opacity="1" d="M 24.5 35 L 25 36.5 L 22.5 38 L 24.5 35 Z " /><path fill="rgb(103,51,30)" stroke="rgb(103,51,30)" stroke-width="1" opacity="1" d="M 9.5 36 L 8.5 38 L 9.5 36 Z " /><path fill="rgb(103,51,30)" stroke="rgb(103,51,30)" stroke-width="1" opacity="1" d="M 4.5 41 L 7 42.5 L 3.5 43 L 4.5 41 Z " /><path fill="rgb(103,51,30)" stroke="rgb(103,51,30)" stroke-width="1" opacity="1" d="M 25.5 42 L 28 42.5 L 25.5 43 L 25.5 42 Z " /><path fill="rgb(234,78,34)" stroke="rgb(234,78,34)" stroke-width="1" opacity="1" d="M 24.5 26 L 25.5 28 L 24.5 26 Z " /><path fill="rgb(234,78,34)" stroke="rgb(234,78,34)" stroke-width="1" opacity="1" d="M 20.5 28 L 20 29.5 L 18.5 32 Q 15.5 30.5 18.5 29 L 20.5 28 Z " /><path fill="rgb(234,78,34)" stroke="rgb(234,78,34)" stroke-width="1" opacity="1" d="M 20.5 33 L 19.5 35 L 20.5 33 Z " /><path fill="rgb(234,78,34)" stroke="rgb(234,78,34)" stroke-width="1" opacity="1" d="M 17.5 35 L 18 36.5 L 16.5 39 L 16 37.5 L 17.5 35 Z " /><path fill="rgb(234,78,34)" stroke="rgb(234,78,34)" stroke-width="1" opacity="1" d="M 13.5 38 L 12.5 40 L 13.5 38 Z " /><path fill="rgb(234,78,34)" stroke="rgb(234,78,34)" stroke-width="1" opacity="1" d="M 25.5 39 L 24.5 41 L 25.5 39 Z " /><path fill="rgb(244,104,45)" stroke="rgb(244,104,45)" stroke-width="1" opacity="1" d="M 12.5 26 L 13.5 28 L 12.5 26 Z " /><path fill="rgb(244,104,45)" stroke="rgb(244,104,45)" stroke-width="1" opacity="1" d="M 23.5 26 L 24 28 Q 27.7 26.6 26 32.5 L 28 35.5 L 27 35.5 L 26.5 34 Q 25.3 36.3 24 33.5 L 23 31.5 L 24 29 L 22 29 L 22 33 L 20.5 33 L 18.5 34 L 16 32.5 L 19.5 31 L 21 30.5 L 20 29.5 L 23.5 26 Z " /><path fill="rgb(211,211,151)" stroke="rgb(211,211,151)" stroke-width="1" opacity="1" d="M 13.5 13 L 12.5 15 L 10 14.5 L 13.5 13 Z " /><path fill="rgb(211,211,151)" stroke="rgb(211,211,151)" stroke-width="1" opacity="1" d="M 8.5 20 L 11 21.5 L 9.5 21 L 8.5 20 Z " /><path fill="rgb(211,211,151)" stroke="rgb(211,211,151)" stroke-width="1" opacity="1" d="M 12.5 22 Q 14.8 21.3 14 23.5 L 11 23.5 L 12.5 22 Z " /><path fill="rgb(211,211,151)" stroke="rgb(211,211,151)" stroke-width="1" opacity="1" d="M 8.5 31 L 9 34.5 L 8 34.5 L 8.5 31 Z " /><path fill="rgb(211,211,151)" stroke="rgb(211,211,151)" stroke-width="1" opacity="1" d="M 3.5 36 L 5.5 40 L 8 41.5 L 6.5 42 L 4 41 Q 5.1 38.3 2.5 39 L 3 37.5 L 3.5 36 Z " /><path fill="rgb(211,211,151)" stroke="rgb(211,211,151)" stroke-width="1" opacity="1" d="M 26.5 40 Q 28.8 39.3 28 41.5 L 26.5 40 Z " /><path fill="rgb(211,211,151)" stroke="rgb(211,211,151)" stroke-width="1" opacity="1" d="M 17.5 41 L 26 43.5 L 19.5 45 L 6 45 L 6.5 43 L 9 44 Q 7.9 40.7 12 42 Q 10.9 45.3 15 44 L 15.5 42 L 18.5 43 L 18.5 42 L 17.5 41 Z " /><path fill="rgb(211,211,151)" stroke="rgb(211,211,151)" stroke-width="1" opacity="1" d="M 3.5 48 L 6 48.5 L 3.5 49 L 3.5 48 Z " /><path fill="rgb(219,129,68)" stroke="rgb(219,129,68)" stroke-width="1" opacity="1" d="M 8.5 13 L 12 15.5 L 9.5 16 L 8.5 13 Z " /><path fill="rgb(219,129,68)" stroke="rgb(219,129,68)" stroke-width="1" opacity="1" d="M 22.5 26 L 21.5 28 L 22.5 26 Z " /><path fill="rgb(219,129,68)" stroke="rgb(219,129,68)" stroke-width="1" opacity="1" d="M 12.5 35 L 13.5 37 L 12.5 35 Z " /><path fill="rgb(164,160,132)" stroke="rgb(164,160,132)" stroke-width="1" opacity="1" d="M 24.5 1 L 28 1.5 L 24.5 2 L 24.5 1 Z " /><path fill="rgb(164,160,132)" stroke="rgb(164,160,132)" stroke-width="1" opacity="1" d="M 13.5 15 L 14 17 Q 17 16 16 19 L 12.5 18 L 11 18.5 L 13.5 15 Z " /><path fill="rgb(164,160,132)" stroke="rgb(164,160,132)" stroke-width="1" opacity="1" d="M 13.5 20 Q 15.8 19.3 15 21.5 L 16 23.5 L 15.5 26 L 13 25.5 L 15 22.5 L 13.5 20 Z " /><path fill="rgb(164,160,132)" stroke="rgb(164,160,132)" stroke-width="1" opacity="1" d="M 9.5 22 Q 12.1 21.2 11 24.5 L 10 24.5 L 9.5 23 L 8 23.5 L 9.5 22 Z " /><path fill="rgb(164,160,132)" stroke="rgb(164,160,132)" stroke-width="1" opacity="1" d="M 18.5 23 Q 21.3 24.3 19 25.5 L 18.5 27 L 18.5 23 Z " /><path fill="rgb(164,160,132)" stroke="rgb(164,160,132)" stroke-width="1" opacity="1" d="M 6 37 Q 9.3 35.7 8 40.5 L 9 43.5 L 8 43.5 L 6 37 Z " /><path fill="rgb(164,160,132)" stroke="rgb(164,160,132)" stroke-width="1" opacity="1" d="M 10.5 37 L 13 38.5 L 11.5 38 L 10.5 37 Z " /><path fill="rgb(164,160,132)" stroke="rgb(164,160,132)" stroke-width="1" opacity="1" d="M 4.5 38 L 4 39.5 L 2.5 43 L 3 41.5 L 4.5 38 Z " /><path fill="rgb(164,160,132)" stroke="rgb(164,160,132)" stroke-width="1" opacity="1" d="M 12 42 Q 16.1 40.7 15 44 Q 10.9 45.3 12 42 Z " /><path fill="rgb(164,160,132)" stroke="rgb(164,160,132)" stroke-width="1" opacity="1" d="M 7.5 46 L 9 48.5 L 6.5 49 L 7 47.5 L 7.5 46 Z " /><path fill="rgb(164,160,132)" stroke="rgb(164,160,132)" stroke-width="1" opacity="1" d="M 16.5 46 L 19 47.5 L 14 49 L 14.5 47 L 16 47.5 L 16.5 46 Z " /><path fill="rgb(186,66,34)" stroke="rgb(186,66,34)" stroke-width="1" opacity="1" d="M 14.5 26 L 15.5 29 Q 16.8 26.8 18 29.5 L 17 32 Q 14.3 30.9 15 33.5 L 17 34.5 L 17.5 33 L 18.5 35 Q 16.3 34.3 17 36.5 L 19 36.5 L 17.5 40 L 16.5 37 L 16 39 L 14 39.5 L 15.5 42 L 13 41.5 L 14 38.5 Q 12.9 35.2 15.5 36 L 14 33.5 L 13.5 32 L 11.5 35 L 10 31 L 13.5 30 L 14.5 32 Q 17.8 30.3 14 28.5 L 14.5 26 Z " /><path fill="rgb(186,66,34)" stroke="rgb(186,66,34)" stroke-width="1" opacity="1" d="M 24.5 34 L 25.5 36 L 24.5 34 Z " /><path fill="rgb(186,66,34)" stroke="rgb(186,66,34)" stroke-width="1" opacity="1" d="M 20 37 Q 23 36 22 39 Q 19 40 20 37 Z " /><path fill="rgb(186,66,34)" stroke="rgb(186,66,34)" stroke-width="1" opacity="1" d="M 25.5 37 L 26.5 39 L 25 38.5 L 26 40.5 L 24 39.5 L 25.5 37 Z " /><path fill="rgb(186,66,34)" stroke="rgb(186,66,34)" stroke-width="1" opacity="1" d="M 10.5 40 L 11 42 L 9 41.5 L 10.5 40 Z " /></svg>