<svg width="30" height="50" version="1.1" xmlns="http://www.w3.org/2000/svg" desc="Created with imagetracer.js version 1.2.6" ><path fill="rgb(46,39,40)" stroke="rgb(46,39,40)" stroke-width="1" opacity="1" d="M 6.5 7 Q 10.3 6 9 9 L 12.5 9 L 12.5 10 Q 9.2 8.9 10 11.5 L 11 14.5 L 8.5 16 L 8 13.5 L 9 10.5 L 7 10 Q 9.4 17.1 3 15 Q 1.5 9.6 4.5 8 L 6.5 7 Z M 5 11 L 4 14 L 5 14 L 5 11 Z " /><path fill="rgb(46,39,40)" stroke="rgb(46,39,40)" stroke-width="1" opacity="1" d="M 17.5 8 L 19 8.5 L 15.5 10 L 15.5 9 L 17.5 8 Z " /><path fill="rgb(46,39,40)" stroke="rgb(46,39,40)" stroke-width="1" opacity="1" d="M 16.5 11 L 17 13 L 15 12.5 L 16.5 11 Z " /><path fill="rgb(46,39,40)" stroke="rgb(46,39,40)" stroke-width="1" opacity="1" d="M 12.5 25 L 13.5 27 L 12.5 25 Z " /><path fill="rgb(46,39,40)" stroke="rgb(46,39,40)" stroke-width="1" opacity="1" d="M 12.5 28 L 12 29.5 L 11.5 31 L 11 29.5 L 12.5 28 Z " /><path fill="rgb(46,39,40)" stroke="rgb(46,39,40)" stroke-width="1" opacity="1" d="M 19.5 32 L 20 40.5 L 22 42.5 L 20.5 43 L 18.5 43 L 15.5 42 L 13.5 43 L 15 40.5 L 14 39.5 Q 13.3 36.9 16 38 L 16 42 L 17.5 42 Q 19.8 41.3 19 37.5 L 19 35.5 L 19.5 32 Z " /><path fill="rgb(132,105,52)" stroke="rgb(132,105,52)" stroke-width="1" opacity="1" d="M 12.5 10 L 13 12 L 11 11.5 L 12.5 10 Z " /><path fill="rgb(132,105,52)" stroke="rgb(132,105,52)" stroke-width="1" opacity="1" d="M 11 13 Q 13.7 11.9 13 14.5 L 11 15.5 L 11 13 Z " /><path fill="rgb(132,105,52)" stroke="rgb(132,105,52)" stroke-width="1" opacity="1" d="M 13.5 28 L 12.5 30 L 13.5 28 Z " /><path fill="rgb(250,250,250)" stroke="rgb(250,250,250)" stroke-width="1" opacity="1" d="M 0 0 L 30 0 L 30 50 L 0 50 L 0 0 Z M 26 1 L 25 2 L 2 2 L 2 44 L 11 43 L 10 45 L 2 45 L 2 49 L 18 49 L 19 48 L 28 48 L 28 45 L 23 44 L 28 43 L 28 2 L 26 1 Z " /><path fill="rgb(250,250,250)" stroke="rgb(250,250,250)" stroke-width="1" opacity="1" d="M 13.5 43 L 17.5 44 L 19.5 43 L 19.5 44 L 14.5 45 L 13.5 43 Z " /><path fill="rgb(124,175,181)" stroke="rgb(124,175,181)" stroke-width="1" opacity="1" d="M 20.5 5 L 24.5 6 L 27 5 L 28 11.5 L 28 13.5 L 26 19.5 L 28 20 Q 29.3 23.3 24.5 22 L 21 24 L 22 18 L 26 18 L 26 16.5 Q 28.3 15.3 25.5 14 L 25 17 L 21 17 L 21 15.5 L 22 12.5 L 23 10.5 L 21 9.5 L 23 8.5 L 21 8 L 20.5 5 Z " /><path fill="rgb(124,175,181)" stroke="rgb(124,175,181)" stroke-width="1" opacity="1" d="M 21 25 L 25.5 27 L 27 26.5 L 24 31.5 L 24.5 33 Q 21.9 32.2 23 35.5 L 24.5 38 L 22 37.5 L 21 30.5 L 24 28.5 L 22.5 26 L 21 26.5 L 21 25 Z " /><path fill="rgb(124,175,181)" stroke="rgb(124,175,181)" stroke-width="1" opacity="1" d="M 4.5 30 L 6 30.5 L 3.5 32 L 4.5 30 Z " /><path fill="rgb(124,175,181)" stroke="rgb(124,175,181)" stroke-width="1" opacity="1" d="M 7 30 Q 10 29 9 32 Q 6 33 7 30 Z " /><path fill="rgb(124,175,181)" stroke="rgb(124,175,181)" stroke-width="1" opacity="1" d="M 24.5 34 Q 28.9 32.5 28 35.5 L 26.5 35 Q 23.5 35.5 24.5 34 Z " /><path fill="rgb(133,185,194)" stroke="rgb(133,185,194)" stroke-width="1" opacity="1" d="M 2 2 Q 6.3 1 7.5 4 L 8.5 2 L 10.5 2 Q 14.3 1 13 4 L 15.5 4 L 15.5 5 Q 9.4 3.8 10 6.5 L 8.5 6 L 3 5 L 4 7.5 L 2 8.5 L 2 2 Z " /><path fill="rgb(133,185,194)" stroke="rgb(133,185,194)" stroke-width="1" opacity="1" d="M 18.5 2 L 25 2.5 L 19.5 4 L 17 3.5 L 18.5 2 Z " /><path fill="rgb(133,185,194)" stroke="rgb(133,185,194)" stroke-width="1" opacity="1" d="M 27.5 2 L 28 4.5 L 27 4.5 L 27.5 2 Z " /><path fill="rgb(133,185,194)" stroke="rgb(133,185,194)" stroke-width="1" opacity="1" d="M 2 15 Q 6.6 13.8 8 16.5 L 9 26 L 6 26.5 L 9 28.5 L 6.5 30 L 5 26 Q 2.3 24.9 3 27.5 L 2 27.5 L 2 15 Z " /><path fill="rgb(212,201,123)" stroke="rgb(212,201,123)" stroke-width="1" opacity="1" d="M 11.5 19 L 13 21.5 L 11 20.5 L 11.5 19 Z " /><path fill="rgb(212,201,123)" stroke="rgb(212,201,123)" stroke-width="1" opacity="1" d="M 13.5 32 L 14 37.5 L 13 37.5 L 12 34.5 L 13.5 32 Z " /><path fill="rgb(208,199,198)" stroke="rgb(208,199,198)" stroke-width="1" opacity="1" d="M 18 10 L 20 10.5 L 20 27.5 L 18.5 27 Q 15.5 27.9 17 23.5 L 16 19 L 14 18.5 L 14.5 17 L 13 16.5 L 14.5 16 L 17 17 L 16 14.5 Q 18.8 13.4 18 10 Z " /><path fill="rgb(208,199,198)" stroke="rgb(208,199,198)" stroke-width="1" opacity="1" d="M 13.5 20 L 14 23.5 L 13 23.5 L 13.5 20 Z " /><path fill="rgb(208,199,198)" stroke="rgb(208,199,198)" stroke-width="1" opacity="1" d="M 16.5 30 L 18 33.5 L 17.5 36 L 14 33.5 L 16 33 L 16.5 30 Z " /><path fill="rgb(208,199,198)" stroke="rgb(208,199,198)" stroke-width="1" opacity="1" d="M 22.5 42 L 23 43.5 Q 21.5 46.5 20 43.5 L 22 43.5 L 22.5 42 Z " /><path fill="rgb(208,199,198)" stroke="rgb(208,199,198)" stroke-width="1" opacity="1" d="M 11.5 43 L 13 43.5 L 9.5 46 L 11.5 43 Z " /><path fill="rgb(208,199,198)" stroke="rgb(208,199,198)" stroke-width="1" opacity="1" d="M 24.5 44 L 28 45 L 27.5 48 L 18.5 48 L 16.5 49 L 15.5 48 L 2 48 Q 0.3 43.5 5.5 45 Q 7 48.3 12 47 Q 10.7 43.7 15.5 45 L 15.5 46 L 14 46.5 L 25 47 L 24.5 44 Z " /><path fill="rgb(129,178,184)" stroke="rgb(129,178,184)" stroke-width="1" opacity="1" d="M 6.5 2 Q 8.8 1.3 8 3.5 L 6.5 2 Z " /><path fill="rgb(129,178,184)" stroke="rgb(129,178,184)" stroke-width="1" opacity="1" d="M 25.5 2 Q 28.1 1.2 27 4.5 Q 29.3 5.7 28 10.5 L 27 10.5 Q 28.3 4.4 25.5 5 L 23.5 6 L 20.5 5 L 21 6.5 L 22 8.5 L 17 6.5 L 16 4.5 L 18.5 3 L 21.5 4 L 25.5 2 Z " /><path fill="rgb(129,178,184)" stroke="rgb(129,178,184)" stroke-width="1" opacity="1" d="M 21 10 L 23 10.5 L 21.5 13 L 21 10 Z " /><path fill="rgb(129,178,184)" stroke="rgb(129,178,184)" stroke-width="1" opacity="1" d="M 27.5 16 L 28 19.5 L 27 19.5 L 27.5 16 Z " /><path fill="rgb(129,178,184)" stroke="rgb(129,178,184)" stroke-width="1" opacity="1" d="M 21 17 L 26 17.5 L 22 18 L 21.5 20 L 21 17 Z " /><path fill="rgb(129,178,184)" stroke="rgb(129,178,184)" stroke-width="1" opacity="1" d="M 23.5 19 L 24.5 21 L 23.5 19 Z " /><path fill="rgb(129,178,184)" stroke="rgb(129,178,184)" stroke-width="1" opacity="1" d="M 3 26 Q 5.7 24.9 5 27.5 L 6.5 30 L 9 28.5 L 6 26.5 L 8.5 26 L 10 30 Q 5.9 28.7 7 32 L 9.5 31 L 10 34 Q 13.7 32.6 12 38.5 L 11.5 41 L 9 41 Q 10.3 44 6.5 43 L 4 38.5 L 7 37.5 L 6.5 36 Q 9.1 36.7 8 34 Q 3.4 35.3 2 32.5 L 3 29.5 L 3 27.5 L 3 26 Z M 5 30 L 4 32 L 6 31 L 5 30 Z " /><path fill="rgb(129,178,184)" stroke="rgb(129,178,184)" stroke-width="1" opacity="1" d="M 23.5 37 Q 25.8 37.8 25 41.5 L 21 38.5 L 23.5 37 Z " /><path fill="rgb(141,177,183)" stroke="rgb(141,177,183)" stroke-width="1" opacity="1" d="M 2.5 37 L 4 41 Q 0.2 42.2 2.5 37 Z " /><path fill="rgb(169,139,74)" stroke="rgb(169,139,74)" stroke-width="1" opacity="1" d="M 11.5 7 L 14 8 L 13.5 10 L 11 9 L 11.5 7 Z " /><path fill="rgb(169,139,74)" stroke="rgb(169,139,74)" stroke-width="1" opacity="1" d="M 11.5 12 L 14 12.5 L 11.5 13 L 11.5 12 Z " /><path fill="rgb(169,139,74)" stroke="rgb(169,139,74)" stroke-width="1" opacity="1" d="M 12.5 17 L 13 19.5 L 12 19.5 L 12.5 17 Z " /><path fill="rgb(169,139,74)" stroke="rgb(169,139,74)" stroke-width="1" opacity="1" d="M 11.5 21 L 12.5 23 L 11.5 21 Z " /><path fill="rgb(169,139,74)" stroke="rgb(169,139,74)" stroke-width="1" opacity="1" d="M 13.5 29 L 14 32 Q 11.3 33.1 12 30.5 L 13.5 29 Z " /><path fill="rgb(169,139,74)" stroke="rgb(169,139,74)" stroke-width="1" opacity="1" d="M 13.5 38 L 14 40.5 L 13 40.5 L 13.5 38 Z " /><path fill="rgb(117,120,122)" stroke="rgb(117,120,122)" stroke-width="1" opacity="1" d="M 16.5 6 L 17 8.5 L 16 8.5 L 16.5 6 Z " /><path fill="rgb(117,120,122)" stroke="rgb(117,120,122)" stroke-width="1" opacity="1" d="M 14.5 15 L 17 15.5 L 14.5 16 L 14.5 15 Z " /><path fill="rgb(117,120,122)" stroke="rgb(117,120,122)" stroke-width="1" opacity="1" d="M 14 21 Q 16.7 19.9 16 22.5 L 14.5 25 L 14 21 Z " /><path fill="rgb(117,120,122)" stroke="rgb(117,120,122)" stroke-width="1" opacity="1" d="M 11.5 22 L 11 23.5 L 10.5 27 L 9 24.5 L 11.5 22 Z " /><path fill="rgb(117,120,122)" stroke="rgb(117,120,122)" stroke-width="1" opacity="1" d="M 14.5 26 L 18 27.5 L 16.5 30 L 16 28.5 L 16.5 27 L 12.5 28 L 12.5 27 L 14.5 26 Z " /><path fill="rgb(117,120,122)" stroke="rgb(117,120,122)" stroke-width="1" opacity="1" d="M 20.5 28 L 20 29.5 L 21 38.5 L 20 38.5 L 20 31.5 L 18.5 31 L 20.5 28 Z " /><path fill="rgb(117,120,122)" stroke="rgb(117,120,122)" stroke-width="1" opacity="1" d="M 10.5 29 L 12 33.5 L 10 32.5 L 10.5 29 Z " /><path fill="rgb(117,120,122)" stroke="rgb(117,120,122)" stroke-width="1" opacity="1" d="M 18.5 35 L 18 36.5 Q 18.8 40.3 16.5 41 L 16 39.5 L 18.5 35 Z " /><path fill="rgb(117,120,122)" stroke="rgb(117,120,122)" stroke-width="1" opacity="1" d="M 19.5 44 L 20 46.5 L 18.5 46 L 16.5 47 L 17.5 45 L 19.5 44 Z " /><path fill="rgb(117,120,122)" stroke="rgb(117,120,122)" stroke-width="1" opacity="1" d="M 22.5 45 L 25 45.5 L 22.5 46 L 22.5 45 Z " /><path fill="rgb(117,120,122)" stroke="rgb(117,120,122)" stroke-width="1" opacity="1" d="M 2.5 48 L 6 48.5 L 2.5 49 L 2.5 48 Z " /><path fill="rgb(124,167,174)" stroke="rgb(124,167,174)" stroke-width="1" opacity="1" d="M 14.5 2 L 16.5 3 L 18 2.5 L 15.5 4 L 14.5 2 Z " /><path fill="rgb(124,167,174)" stroke="rgb(124,167,174)" stroke-width="1" opacity="1" d="M 25.5 14 Q 28.5 15.5 25.5 17 L 25.5 14 Z " /><path fill="rgb(124,167,174)" stroke="rgb(124,167,174)" stroke-width="1" opacity="1" d="M 7.5 15 L 8.5 17 L 7.5 15 Z " /><path fill="rgb(124,167,174)" stroke="rgb(124,167,174)" stroke-width="1" opacity="1" d="M 9.5 21 L 10 23.5 L 9 23.5 L 9.5 21 Z " /><path fill="rgb(124,167,174)" stroke="rgb(124,167,174)" stroke-width="1" opacity="1" d="M 22.5 21 L 23.5 23 L 28 22 L 28 33.5 L 24 34 L 24 36 L 28 36 L 28 37.5 L 26.5 37 L 23 35.5 L 25 32.5 L 25 30.5 L 26 27 L 23.5 26 L 23 27.5 L 23.5 29 L 20.5 31 L 20 29.5 L 23 25.5 L 21 24.5 L 23 23.5 L 22.5 21 Z " /><path fill="rgb(156,181,185)" stroke="rgb(156,181,185)" stroke-width="1" opacity="1" d="M 19.5 9 L 21 9.5 L 21 27.5 L 20 27.5 L 20 10.5 L 19.5 9 Z " /><path fill="rgb(156,181,185)" stroke="rgb(156,181,185)" stroke-width="1" opacity="1" d="M 9.5 48 L 16 48.5 L 9.5 49 L 9.5 48 Z " /><path fill="rgb(159,156,149)" stroke="rgb(159,156,149)" stroke-width="1" opacity="1" d="M 13.5 5 L 16 8.5 L 13 6.5 L 13.5 5 Z " /><path fill="rgb(159,156,149)" stroke="rgb(159,156,149)" stroke-width="1" opacity="1" d="M 10.5 6 L 11 8.5 L 10 8.5 L 10.5 6 Z " /><path fill="rgb(159,156,149)" stroke="rgb(159,156,149)" stroke-width="1" opacity="1" d="M 18.5 9 L 17.5 11 L 18.5 9 Z " /><path fill="rgb(159,156,149)" stroke="rgb(159,156,149)" stroke-width="1" opacity="1" d="M 11.5 24 L 12 27.5 L 11 27.5 L 11.5 24 Z " /><path fill="rgb(159,156,149)" stroke="rgb(159,156,149)" stroke-width="1" opacity="1" d="M 14.5 27 L 16 29.5 L 14.5 33 L 15 29.5 L 14.5 27 Z " /><path fill="rgb(159,156,149)" stroke="rgb(159,156,149)" stroke-width="1" opacity="1" d="M 18.5 33 L 17.5 35 L 18.5 33 Z " /><path fill="rgb(159,156,149)" stroke="rgb(159,156,149)" stroke-width="1" opacity="1" d="M 12.5 36 L 13 41.5 L 12 41.5 L 12.5 36 Z " /><path fill="rgb(159,156,149)" stroke="rgb(159,156,149)" stroke-width="1" opacity="1" d="M 16.5 36 L 17 38.5 L 16 38.5 L 16.5 36 Z " /><path fill="rgb(159,156,149)" stroke="rgb(159,156,149)" stroke-width="1" opacity="1" d="M 17.5 40 L 16.5 42 L 17.5 40 Z " /><path fill="rgb(159,156,149)" stroke="rgb(159,156,149)" stroke-width="1" opacity="1" d="M 20.5 44 L 23 44.5 Q 20.9 47.8 20.5 44 Z " /><path fill="rgb(159,156,149)" stroke="rgb(159,156,149)" stroke-width="1" opacity="1" d="M 6.5 45 Q 8.8 44.3 8 46.5 L 6.5 45 Z " /><path fill="rgb(159,156,149)" stroke="rgb(159,156,149)" stroke-width="1" opacity="1" d="M 6.5 48 L 9 48.5 L 6.5 49 L 6.5 48 Z " /><path fill="rgb(89,84,86)" stroke="rgb(89,84,86)" stroke-width="1" opacity="1" d="M 4.5 5 L 7 5.5 L 4.5 6 L 4.5 5 Z " /><path fill="rgb(89,84,86)" stroke="rgb(89,84,86)" stroke-width="1" opacity="1" d="M 17.5 9 L 15 12.5 L 16 13.5 L 15.5 15 L 13 13.5 L 14 11 L 17.5 9 Z " /><path fill="rgb(89,84,86)" stroke="rgb(89,84,86)" stroke-width="1" opacity="1" d="M 10.5 15 L 11 17 L 9 16.5 L 10.5 15 Z " /><path fill="rgb(89,84,86)" stroke="rgb(89,84,86)" stroke-width="1" opacity="1" d="M 10.5 21 L 14 25.5 L 12 26.5 L 13 25.5 L 10 22.5 L 10.5 21 Z " /><path fill="rgb(89,84,86)" stroke="rgb(89,84,86)" stroke-width="1" opacity="1" d="M 15.5 27 L 20 28.5 L 17 30 Q 18 27 15 28 L 14.5 30 L 14 28.5 L 15.5 27 Z " /><path fill="rgb(89,84,86)" stroke="rgb(89,84,86)" stroke-width="1" opacity="1" d="M 19.5 31 L 18.5 33 L 19.5 31 Z " /><path fill="rgb(89,84,86)" stroke="rgb(89,84,86)" stroke-width="1" opacity="1" d="M 14.5 36 Q 16.8 35.3 16 37.5 L 14.5 36 Z " /><path fill="rgb(89,84,86)" stroke="rgb(89,84,86)" stroke-width="1" opacity="1" d="M 18.5 37 L 19 40.5 L 17 41.5 L 18.5 37 Z " /><path fill="rgb(89,84,86)" stroke="rgb(89,84,86)" stroke-width="1" opacity="1" d="M 4.5 43 L 7 43.5 L 4.5 44 L 4.5 43 Z " /><path fill="rgb(135,173,179)" stroke="rgb(135,173,179)" stroke-width="1" opacity="1" d="M 4.5 34 Q 9.3 32.7 8 36 L 6 36.5 L 6.5 38 Q 2.8 38.8 2 36.5 L 3.5 36 L 5 36.5 L 4.5 34 Z " /><path fill="rgb(135,173,179)" stroke="rgb(135,173,179)" stroke-width="1" opacity="1" d="M 21.5 35 L 22 37.5 L 21 37.5 L 21.5 35 Z " /><path fill="rgb(135,173,179)" stroke="rgb(135,173,179)" stroke-width="1" opacity="1" d="M 24.5 35 L 27 35.5 L 24.5 36 L 24.5 35 Z " /><path fill="rgb(135,173,179)" stroke="rgb(135,173,179)" stroke-width="1" opacity="1" d="M 4.5 39 L 5 40.5 L 4.5 42 L 6 42.5 L 2 43 L 2 41 Q 4.8 42 4.5 39 Z " /><path fill="rgb(135,173,179)" stroke="rgb(135,173,179)" stroke-width="1" opacity="1" d="M 25.5 39 Q 27.8 38.3 27 40.5 L 25 41.5 L 25.5 39 Z " /><path fill="rgb(135,173,179)" stroke="rgb(135,173,179)" stroke-width="1" opacity="1" d="M 9.5 41 L 12 41.5 L 9.5 42 L 9.5 41 Z " /></svg>